<?xml version="1.0" encoding="UTF-8" standalone="no"?>
<svg
   xmlns:dc="http://purl.org/dc/elements/1.1/"
   xmlns:cc="http://creativecommons.org/ns#"
   xmlns:rdf="http://www.w3.org/1999/02/22-rdf-syntax-ns#"
   xmlns:svg="http://www.w3.org/2000/svg"
   xmlns="http://www.w3.org/2000/svg"
   xmlns:sodipodi="http://sodipodi.sourceforge.net/DTD/sodipodi-0.dtd"
   xmlns:inkscape="http://www.inkscape.org/namespaces/inkscape"
   width="793.70081"
   height="1122.5197"
   viewBox="0 0 210 297"
   version="1.1"
   id="svg8"
   inkscape:version="1.0 (b51213c273, 2020-08-10)"
   sodipodi:docname="2020.svg">
  <defs
     id="defs2" />
  <sodipodi:namedview
     id="base"
     pagecolor="#ffffff"
     bordercolor="#666666"
     borderopacity="1.0"
     inkscape:pageopacity="0.0"
     inkscape:pageshadow="2"
     inkscape:zoom="1"
     inkscape:cx="582.81231"
     inkscape:cy="388.33902"
     inkscape:document-units="px"
     inkscape:current-layer="layer1"
     inkscape:document-rotation="0"
     showgrid="true"
     showborder="true"
     units="px"
     inkscape:window-width="1846"
     inkscape:window-height="1016"
     inkscape:window-x="74"
     inkscape:window-y="27"
     inkscape:window-maximized="1" />
  <metadata
     id="metadata5">
    <rdf:RDF>
      <cc:Work
         rdf:about="">
        <dc:format>image/svg+xml</dc:format>
        <dc:type
           rdf:resource="http://purl.org/dc/dcmitype/StillImage" />
        <dc:title></dc:title>
      </cc:Work>
    </rdf:RDF>
  </metadata>
  <g
     inkscape:label="Layer 1"
     inkscape:groupmode="layer"
     id="layer1">
    <g
       id="g844"
       transform="matrix(0.81607641,0,0,0.81607641,-29.302025,63.967882)"
       style="stroke-width:1.22538"
       inkscape:export-xdpi="96"
       inkscape:export-ydpi="96">
      <path
         id="path866"
         style="fill:#c5c9d3;fill-opacity:1;stroke:none;stroke-width:1.22537px;stroke-linecap:butt;stroke-linejoin:miter;stroke-opacity:1"
         d="M 809.05469,-121.33203 682.44531,-48.234375 766.85156,0.49804688 V -48.234375 l 42.20313,-24.365234 z m -168.8125,97.464842 -126.60938,73.097657 42.20313,24.365234 84.40625,-48.730469 z M 935.66406,0.49804688 893.46094,24.865234 V 73.595703 L 935.66406,49.230469 Z M 682.44531,49.230469 598.03906,97.962891 682.44531,146.69336 Z m -211.01562,24.365234 -126.60938,73.097657 84.40625,48.73242 v -48.73242 l 42.20313,-24.36524 z m 337.625,0 -84.40625,48.732417 v 48.73243 l 84.40625,-48.73243 z m -506.4375,97.464847 -126.60938,73.09765 42.20313,24.36524 84.40625,-48.73047 z m 295.42187,24.36523 -42.20312,24.36719 v 48.73047 l 42.20312,-24.36524 z m -253.21875,48.73242 -84.40625,48.73242 84.40625,48.73047 z m 126.60938,24.36524 -84.40625,48.73242 v 48.73242 l 84.40625,-48.73242 z"
         transform="scale(0.26458333)" />
      <path
         id="path853"
         style="opacity:1;fill:#bdc2cd;fill-opacity:1;stroke:none;stroke-width:1.22537px;stroke-linecap:butt;stroke-linejoin:miter;stroke-opacity:1"
         d="m 809.05469,-121.33203 v 48.732421 L 935.66406,0.49804688 V 49.230469 L 977.86719,24.865234 1020.0703,0.49804688 Z m -42.20313,73.099608 V 0.49804688 L 893.46094,73.597656 V 24.865234 Z m -126.60937,24.365234 v 48.730469 l 42.20312,24.367188 v 48.732422 l 84.40625,-48.732422 z m 42.20312,121.830079 v 48.730469 l 42.20313,24.36719 V 122.32812 Z M 471.42969,73.595703 v 48.732417 l 126.60937,73.09766 v 48.73242 l 42.20313,-24.36523 42.20312,-24.36719 z m 337.625,0 V 122.32812 L 851.25586,97.962891 Z M 429.22656,146.69336 v 48.73242 l 126.60938,73.09766 v -48.73047 z m -126.60937,24.36719 v 48.73047 l 42.20312,24.36718 v 48.73047 l 84.40625,-48.73047 z m 42.20312,121.82812 v 48.73242 l 42.20313,24.36524 v -48.73047 z m 126.60938,-24.36523 v 48.73242 l 42.20312,-24.36719 z"
         transform="scale(0.26458333)" />
      <path
         id="path884"
         style="fill:#ffffff;fill-opacity:1;stroke:none;stroke-width:1.22537px;stroke-linecap:butt;stroke-linejoin:miter;stroke-opacity:1"
         d="m 809.05469,-72.599609 -42.20313,24.365234 126.60938,73.099609 42.20312,-24.36718712 z m -337.625,194.927729 -42.20313,24.36524 126.60938,73.09961 42.20312,-24.36719 z"
         transform="scale(0.26458333)" />
    </g>
  </g>
</svg>
