<?xml version="1.0" encoding="UTF-8" standalone="no"?>
<svg
   xmlns:dc="http://purl.org/dc/elements/1.1/"
   xmlns:cc="http://creativecommons.org/ns#"
   xmlns:rdf="http://www.w3.org/1999/02/22-rdf-syntax-ns#"
   xmlns:svg="http://www.w3.org/2000/svg"
   xmlns="http://www.w3.org/2000/svg"
   xmlns:xlink="http://www.w3.org/1999/xlink"
   xmlns:sodipodi="http://sodipodi.sourceforge.net/DTD/sodipodi-0.dtd"
   xmlns:inkscape="http://www.inkscape.org/namespaces/inkscape"
   sodipodi:docname="4-coins.svg"
   inkscape:version="1.0.1 (0767f8302a, 2020-10-17)"
   id="svg8"
   version="1.1"
   viewBox="0 0 210 297"
   height="297mm"
   width="210mm"
   inkscape:export-filename="/home/rajesh/Documents/dax/4-coins.png"
   inkscape:export-xdpi="96"
   inkscape:export-ydpi="96">
  <defs
     id="defs2">
    <linearGradient
       id="linearGradient921"
       inkscape:collect="always">
      <stop
         id="stop917"
         offset="0"
         style="stop-color:#ffe166;stop-opacity:1" />
      <stop
         id="stop919"
         offset="1"
         style="stop-color:#ffcc00;stop-opacity:1" />
    </linearGradient>
    <linearGradient
       id="linearGradient911"
       inkscape:collect="always">
      <stop
         id="stop907"
         offset="0"
         style="stop-color:#ff7c00;stop-opacity:1" />
      <stop
         style="stop-color:#ffba00;stop-opacity:1"
         offset="0.52333981"
         id="stop915" />
      <stop
         id="stop909"
         offset="1"
         style="stop-color:#ff7c00;stop-opacity:1" />
    </linearGradient>
    <linearGradient
       id="linearGradient895"
       inkscape:collect="always">
      <stop
         id="stop891"
         offset="0"
         style="stop-color:#ffcc00;stop-opacity:1;" />
      <stop
         id="stop893"
         offset="1"
         style="stop-color:#ececec;stop-opacity:1" />
    </linearGradient>
    <linearGradient
       id="linearGradient879"
       inkscape:collect="always">
      <stop
         id="stop875"
         offset="0"
         style="stop-color:#ffcc00;stop-opacity:1;" />
      <stop
         style="stop-color:#ff8400;stop-opacity:1"
         offset="0.14538363"
         id="stop889" />
      <stop
         style="stop-color:#ffd324;stop-opacity:1"
         offset="0.31708178"
         id="stop885" />
      <stop
         style="stop-color:#ffcc00;stop-opacity:1"
         offset="0.67476505"
         id="stop883" />
      <stop
         id="stop887"
         offset="0.87535846"
         style="stop-color:#ff8800;stop-opacity:1" />
      <stop
         id="stop877"
         offset="1"
         style="stop-color:#ffcc00;stop-opacity:1" />
    </linearGradient>
    <linearGradient
       gradientUnits="userSpaceOnUse"
       y2="125.11743"
       x2="145.14865"
       y1="125.11743"
       x1="35.629162"
       id="linearGradient881"
       xlink:href="#linearGradient879"
       inkscape:collect="always" />
    <linearGradient
       gradientUnits="userSpaceOnUse"
       y2="123.32472"
       x2="94.645615"
       y1="70.6595"
       x1="94.645615"
       id="linearGradient897"
       xlink:href="#linearGradient895"
       inkscape:collect="always" />
    <linearGradient
       gradientUnits="userSpaceOnUse"
       y2="96.992874"
       x2="144.07741"
       y1="96.992874"
       x1="37.047797"
       id="linearGradient913"
       xlink:href="#linearGradient911"
       inkscape:collect="always" />
    <linearGradient
       gradientUnits="userSpaceOnUse"
       y2="114.00812"
       x2="91.958282"
       y1="79.71312"
       x1="91.958282"
       id="linearGradient923"
       xlink:href="#linearGradient921"
       inkscape:collect="always" />
    <linearGradient
       y2="125.11743"
       x2="145.14865"
       y1="125.11743"
       x1="35.629162"
       gradientUnits="userSpaceOnUse"
       id="linearGradient1296"
       xlink:href="#linearGradient879"
       inkscape:collect="always" />
    <linearGradient
       y2="123.32472"
       x2="94.645615"
       y1="70.6595"
       x1="94.645615"
       gradientUnits="userSpaceOnUse"
       id="linearGradient1298"
       xlink:href="#linearGradient895"
       inkscape:collect="always" />
    <linearGradient
       y2="96.992874"
       x2="144.07741"
       y1="96.992874"
       x1="37.047797"
       gradientUnits="userSpaceOnUse"
       id="linearGradient1300"
       xlink:href="#linearGradient911"
       inkscape:collect="always" />
    <linearGradient
       y2="114.00812"
       x2="91.958282"
       y1="79.71312"
       x1="91.958282"
       gradientUnits="userSpaceOnUse"
       id="linearGradient1302"
       xlink:href="#linearGradient921"
       inkscape:collect="always" />
    <linearGradient
       y2="123.32472"
       x2="94.645615"
       y1="70.6595"
       x1="94.645615"
       gradientUnits="userSpaceOnUse"
       id="linearGradient1304"
       xlink:href="#linearGradient895"
       inkscape:collect="always" />
    <linearGradient
       inkscape:collect="always"
       xlink:href="#linearGradient879"
       id="linearGradient1104"
       gradientUnits="userSpaceOnUse"
       x1="35.629162"
       y1="125.11743"
       x2="145.14865"
       y2="125.11743" />
    <linearGradient
       inkscape:collect="always"
       xlink:href="#linearGradient895"
       id="linearGradient1106"
       gradientUnits="userSpaceOnUse"
       x1="94.645615"
       y1="70.6595"
       x2="94.645615"
       y2="123.32472" />
    <linearGradient
       inkscape:collect="always"
       xlink:href="#linearGradient911"
       id="linearGradient1108"
       gradientUnits="userSpaceOnUse"
       x1="37.047797"
       y1="96.992874"
       x2="144.07741"
       y2="96.992874" />
    <linearGradient
       inkscape:collect="always"
       xlink:href="#linearGradient921"
       id="linearGradient1110"
       gradientUnits="userSpaceOnUse"
       x1="91.958282"
       y1="79.71312"
       x2="91.958282"
       y2="114.00812" />
    <linearGradient
       inkscape:collect="always"
       xlink:href="#linearGradient879"
       id="linearGradient1112"
       gradientUnits="userSpaceOnUse"
       x1="35.629162"
       y1="125.11743"
       x2="145.14865"
       y2="125.11743" />
    <linearGradient
       inkscape:collect="always"
       xlink:href="#linearGradient895"
       id="linearGradient1114"
       gradientUnits="userSpaceOnUse"
       x1="94.645615"
       y1="70.6595"
       x2="94.645615"
       y2="123.32472" />
    <linearGradient
       inkscape:collect="always"
       xlink:href="#linearGradient911"
       id="linearGradient1116"
       gradientUnits="userSpaceOnUse"
       x1="37.047797"
       y1="96.992874"
       x2="144.07741"
       y2="96.992874" />
    <linearGradient
       inkscape:collect="always"
       xlink:href="#linearGradient921"
       id="linearGradient1118"
       gradientUnits="userSpaceOnUse"
       x1="91.958282"
       y1="79.71312"
       x2="91.958282"
       y2="114.00812" />
  </defs>
  <sodipodi:namedview
     inkscape:window-maximized="1"
     inkscape:window-y="27"
     inkscape:window-x="74"
     inkscape:window-height="1016"
     inkscape:window-width="1846"
     inkscape:snap-nodes="false"
     showguides="true"
     inkscape:snap-smooth-nodes="true"
     inkscape:snap-intersection-paths="true"
     inkscape:snap-midpoints="true"
     inkscape:object-paths="true"
     inkscape:object-nodes="true"
     showborder="false"
     showgrid="false"
     inkscape:document-rotation="0"
     inkscape:current-layer="layer1"
     inkscape:document-units="mm"
     inkscape:cy="396.69836"
     inkscape:cx="373.30704"
     inkscape:zoom="1"
     inkscape:pageshadow="2"
     inkscape:pageopacity="0.0"
     borderopacity="1.0"
     bordercolor="#666666"
     pagecolor="#ffffff"
     id="base" />
  <metadata
     id="metadata5">
    <rdf:RDF>
      <cc:Work
         rdf:about="">
        <dc:format>image/svg+xml</dc:format>
        <dc:type
           rdf:resource="http://purl.org/dc/dcmitype/StillImage" />
        <dc:title />
      </cc:Work>
    </rdf:RDF>
  </metadata>
  <g
     id="layer1"
     inkscape:groupmode="layer"
     inkscape:label="Layer 1">
    <g
       id="g1150">
      <g
         id="g1072">
        <g
           transform="matrix(0.71182901,0,0,0.71182901,-12.023431,54.076634)"
           id="g1236"
           style="stroke-width:1.40483">
          <path
             d="m 90.22133,86.445474 0.0011,5.2e-4 a 1.6888528,1.6195456 0 0 0 -0.153043,0.008 c -7.292035,0.002 -14.496732,0.59611 -21.246915,1.79111 a 1.6888528,1.6195456 0 0 0 -0.02048,0.004 c -0.0089,0.002 -0.01756,0.002 -0.02641,0.004 -1.565948,0.28479 -6.20251,0.89508 -11.525539,2.64221 -4.759825,1.56227 -10.172982,4.05826 -14.759353,8.16281 h -7.130986 v 13.770736 0.002 0.0894 h 0.0022 c 0.0021,0.2458 0.0093,0.46808 0.01617,0.61392 a 1.6888528,1.6195456 0 0 0 0.09538,0.46457 c 0.09057,2.48186 0.621357,4.97664 1.702858,7.3458 0.295813,0.64817 0.673429,1.26345 1.121944,1.82832 4.44074,5.59363 11.030973,8.8416 18.556835,11.3006 7.558903,2.46981 16.403074,4.00586 26.000364,4.53926 a 1.6888528,1.6195456 0 0 0 0.09808,0.002 c 2.533741,0.13872 5.076388,0.20421 7.614897,0.19534 2.535292,0.009 5.075433,-0.0568 7.605193,-0.19534 l 0.0959,-0.002 a 1.6888528,1.6195456 0 0 0 0.002,0 c 9.597315,-0.53339 18.442405,-2.06937 26.000905,-4.53926 7.52551,-2.45909 14.11381,-5.70749 18.55414,-11.3006 0.44852,-0.56487 0.82667,-1.18015 1.12249,-1.82832 1.07455,-2.35397 1.60453,-4.8321 1.7007,-7.30446 a 1.6888528,1.6195456 0 0 0 0.0997,-0.46715 c 0.0169,-0.33467 0.0162,-0.59886 0.0162,-0.74208 v -0.002 c 0,-0.0121 -0.001,-0.024 -0.001,-0.0362 h 0.001 V 99.058144 h -7.1299 c -4.58766,-4.1047 -10.00031,-6.60012 -14.76098,-8.16333 -5.29722,-1.73939 -9.89737,-2.34982 -11.48512,-2.63653 l -0.0307,-0.006 c -10e-4,-2.7e-4 -0.006,-0.002 -0.008,-0.002 -0.003,-5.5e-4 -0.005,-5.5e-4 -0.009,-0.002 a 1.6888528,1.6195456 0 0 0 -0.0366,-0.006 c -6.80062,-1.20394 -14.061295,-1.80277 -21.407513,-1.79679 h -0.0022 a 1.6888528,1.6195456 0 0 0 -0.0022,0 c -0.187459,2e-4 -0.267044,0.003 -0.315786,0.004 -0.005,-7e-5 -0.09904,-0.002 -0.264588,-0.004 a 1.6888528,1.6195456 0 0 0 -0.01024,0 c -0.02779,-1.1e-4 -0.05358,-1.1e-4 -0.08137,0 z"
             style="opacity:0.328;fill:#000000;fill-opacity:1;stroke-width:0;stroke-linecap:round;stroke-linejoin:round"
             id="path930" />
          <path
             id="path870"
             style="opacity:1;fill:url(#linearGradient881);fill-opacity:1;stroke-width:0;stroke-linecap:round;stroke-linejoin:round"
             d="m 90.22133,84.472068 0.0011,5.2e-4 a 1.6888528,1.6195456 0 0 0 -0.153043,0.008 c -7.292035,0.002 -14.496732,0.59611 -21.246915,1.79111 a 1.6888528,1.6195456 0 0 0 -0.02048,0.004 c -0.0089,0.002 -0.01756,0.002 -0.02641,0.004 -1.565948,0.28479 -6.20251,0.89508 -11.525539,2.64221 -4.759825,1.56227 -10.172982,4.05826 -14.759353,8.16281 h -7.130986 v 13.770732 0.002 0.0894 h 0.0022 c 0.0021,0.2458 0.0093,0.46808 0.01617,0.61392 a 1.6888528,1.6195456 0 0 0 0.09538,0.46457 c 0.09057,2.48186 0.621357,4.97664 1.702858,7.3458 0.295813,0.64817 0.673429,1.26345 1.121944,1.82832 4.44074,5.59363 11.030973,8.8416 18.556835,11.3006 7.558903,2.46981 16.403074,4.00586 26.000364,4.53926 a 1.6888528,1.6195456 0 0 0 0.09808,0.002 c 2.533741,0.13872 5.076388,0.20421 7.614897,0.19534 2.535292,0.009 5.075433,-0.0568 7.605193,-0.19534 l 0.0959,-0.002 a 1.6888528,1.6195456 0 0 0 0.002,0 c 9.597315,-0.53339 18.442405,-2.06937 26.000905,-4.53926 7.52551,-2.45909 14.11381,-5.70749 18.55414,-11.3006 0.44852,-0.56487 0.82667,-1.18015 1.12249,-1.82832 1.07455,-2.35397 1.60453,-4.8321 1.7007,-7.30446 a 1.6888528,1.6195456 0 0 0 0.0997,-0.46715 c 0.0169,-0.33467 0.0162,-0.59886 0.0162,-0.74208 v -0.002 c 0,-0.0121 -0.001,-0.024 -0.001,-0.0362 h 0.001 V 97.084738 h -7.1299 c -4.58766,-4.1047 -10.00031,-6.60012 -14.76098,-8.16333 -5.29722,-1.73939 -9.89737,-2.34982 -11.48512,-2.63653 l -0.0307,-0.006 c -10e-4,-2.7e-4 -0.006,-0.002 -0.008,-0.002 -0.003,-5.5e-4 -0.005,-5.5e-4 -0.009,-0.002 a 1.6888528,1.6195456 0 0 0 -0.0366,-0.006 c -6.80062,-1.20394 -14.061295,-1.80277 -21.407513,-1.79679 h -0.0022 a 1.6888528,1.6195456 0 0 0 -0.0022,0 c -0.187459,2e-4 -0.267044,0.003 -0.315786,0.004 -0.005,-7e-5 -0.09904,-0.002 -0.264588,-0.004 a 1.6888528,1.6195456 0 0 0 -0.01024,0 c -0.02779,-1.1e-4 -0.05358,-1.1e-4 -0.08137,0 z" />
          <path
             id="path867"
             style="opacity:1;fill:url(#linearGradient1304);fill-opacity:1;stroke-width:0;stroke-linecap:round;stroke-linejoin:round"
             d="m 90.222239,70.610622 a 1.6888529,1.6195456 0 0 0 -0.152754,0.0078 c -7.292035,0.0024 -14.496748,0.596013 -21.246933,1.791015 a 1.6888529,1.6195456 0 0 0 -0.02036,0.0039 c -0.0089,0.0017 -0.01763,0.0022 -0.02648,0.0039 -1.565949,0.284788 -6.202698,0.895451 -11.525728,2.642578 -5.32303,1.747128 -11.466429,4.655587 -16.352725,9.683593 -0.02829,0.0291 -0.05562,0.0584 -0.08351,0.0879 -0.05137,0.0538 -0.08088,0.0867 -0.08757,0.0937 l 0.02037,-0.0195 c -3.066826,3.13279 -5.386699,7.3478 -5.387092,12.08789 v 0.002 c -1.7e-5,0.29616 0.01045,0.53605 0.01833,0.70313 a 1.6888529,1.6195456 0 0 0 0.09573,0.46484 c 0.09057,2.481862 0.621187,4.976542 1.702687,7.345702 0.295814,0.64816 0.67371,1.26326 1.122226,1.82813 4.44074,5.59363 11.030581,8.84178 18.556442,11.30078 7.558903,2.46981 16.403317,4.00566 26.000609,4.53906 a 1.6888529,1.6195456 0 0 0 0.09776,0.002 c 2.53374,0.13872 5.076741,0.20419 7.61525,0.19532 2.53529,0.009 5.075304,-0.0568 7.605064,-0.19532 l 0.0957,-0.002 a 1.6888529,1.6195456 0 0 0 0.002,0 c 9.597325,-0.53339 18.442105,-2.06917 26.000615,-4.53906 7.52551,-2.45909 14.11407,-5.70767 18.5544,-11.30078 0.44852,-0.56487 0.82642,-1.17997 1.12224,-1.82813 1.07455,-2.35398 1.60447,-4.83233 1.70064,-7.304692 a 1.6888529,1.6195456 0 0 0 0.0998,-0.46679 c 0.0169,-0.33467 0.0163,-0.59897 0.0163,-0.74219 v -0.002 c -4.1e-4,-4.74068 -2.32042,-8.96078 -5.39931,-12.10157 -5.1e-4,-6.4e-4 -0.001,-0.003 -0.002,-0.004 -0.004,-0.005 -0.007,-0.0109 -0.0122,-0.0156 l -0.008,-0.008 c -0.0273,-0.0287 -0.0538,-0.0576 -0.0814,-0.0859 -3e-4,-2.6e-4 -0.006,-0.004 -0.006,-0.004 -0.001,-10e-4 -0.001,-0.003 -0.002,-0.004 -0.009,-0.0102 -0.007,-0.005 -0.004,-0.002 -0.009,-0.009 -0.0172,-0.0199 -0.0265,-0.0293 a 1.6888529,1.6195456 0 0 0 -0.002,-0.004 c -4.88691,-5.023123 -11.02565,-7.92859 -16.34662,-9.675773 -5.29722,-1.739384 -9.89725,-2.350004 -11.485,-2.636719 l -0.0305,-0.0059 c -10e-4,-2.7e-4 -0.006,-0.0017 -0.008,-0.002 -0.003,-5.45e-4 -0.005,-0.0014 -0.008,-0.002 a 1.6888529,1.6195456 0 0 0 -0.0367,-0.0059 c -6.80062,-1.203933 -14.061635,-1.802861 -21.407833,-1.796875 0,0 -0.0021,0 -0.0021,0 a 1.6888529,1.6195456 0 0 0 -0.0021,0 c -0.187459,1.98e-4 -0.266949,0.0028 -0.315689,0.0039 -0.005,-6.9e-5 -0.09922,-0.0024 -0.264773,-0.0039 a 1.6888529,1.6195456 0 0 0 -0.01022,0 c -0.02779,-1.11e-4 -0.05368,-1.11e-4 -0.08147,0 z m 50.074491,14.208986 c 0.004,0.004 0.0122,0.013 0.0122,0.0137 a 1.6888529,1.6195456 0 0 0 -0.0122,-0.0137 z m 0.0184,0.0215 c 0.0122,0.004 0.13974,0.20712 0.0468,0.0625 0.0187,0.0258 0.0428,0.0586 0.0428,0.0586 0,0 -0.002,0.002 -0.002,0.002 a 1.6888529,1.6195456 0 0 0 -0.0408,-0.0606 1.6888529,1.6195456 0 0 0 -0.0468,-0.0625 z m -1.10594,0.84375 -0.0468,0.0449 c -0.007,0.004 -0.0267,0.0159 -0.0325,0.0195 0.0146,-0.0115 0.0576,-0.0472 0.0795,-0.0645 z" />
          <path
             id="path864"
             style="opacity:1;fill:url(#linearGradient913);fill-opacity:1;stroke-width:0;stroke-linecap:round;stroke-linejoin:round"
             d="m 90.219874,72.230843 c -7.247874,-0.006 -14.405697,0.586056 -21.090763,1.769531 a 7.9820086,7.3718366 0 0 0 -0.04019,0.0078 c -3.424572,0.622802 -17.705279,2.319852 -26.955069,11.837904 a 7.9820086,7.3718366 0 0 0 -0.06978,0.0723 c -0.110059,0.11422 -0.174556,0.18379 -0.194562,0.20508 l 0.107856,-0.11133 c -2.83915,2.90022 -4.929218,6.75183 -4.929569,10.98047 v 0.002 c -1.5e-5,0.26137 0.0094,0.47099 0.01693,0.63086 l -0.0065,-0.51563 c -0.07355,2.57314 0.515191,5.228022 1.666453,7.750002 a 7.9820086,7.3718366 0 0 0 0.917816,1.4961 c 4.142611,5.2181 10.375848,8.33673 17.755748,10.74804 7.379901,2.41132 16.085287,3.92877 25.55508,4.45508 a 7.9820086,7.3718366 0 0 0 0.0022,0 c 2.529681,0.14041 5.070103,0.20418 7.60689,0.19531 2.537514,0.009 5.079251,-0.0549 7.609001,-0.19531 a 7.9820086,7.3718366 0 0 0 0.002,0 c 9.469825,-0.52631 18.175645,-2.04371 25.555085,-4.45508 7.37946,-2.41136 13.61133,-5.53033 17.75365,-10.74804 a 7.9820086,7.3718366 0 0 0 0.91781,-1.4961 c 1.14679,-2.51222 1.73804,-5.155272 1.66855,-7.726562 l -0.006,0.52539 c 0.0148,-0.29276 0.0149,-0.51695 0.0149,-0.66406 v -0.002 c -3.6e-4,-4.24084 -2.09962,-8.10752 -4.9613,-11.01758 -0.003,-0.003 -0.009,-0.0106 -0.0126,-0.0137 a 7.9820086,7.3718366 0 0 0 -0.10578,-0.10938 c 0.009,0.009 -0.018,-0.0171 -0.0109,-0.01 -9.25139,-9.509272 -23.52312,-11.211002 -26.94872,-11.833981 a 7.9820086,7.3718366 0 0 0 -0.0401,-0.0078 c -6.6885,-1.184059 -13.849225,-1.77555 -21.099385,-1.769531 a 7.9820086,7.3718366 0 0 0 -0.0021,0 c -0.207846,2.19e-4 -0.291665,0.0029 -0.342592,0.0039 -0.03857,-5.32e-4 -0.100963,-0.0025 -0.255884,-0.0039 a 7.9820086,7.3718366 0 0 0 -0.06988,0 z" />
          <path
             id="path833"
             style="opacity:1;fill:url(#linearGradient923);fill-opacity:1;stroke-width:0;stroke-linecap:round;stroke-linejoin:round"
             d="m 90.220654,79.601344 c -6.769883,-0.006 -13.459498,0.5542 -19.591078,1.63969 -2.974564,0.54095 -16.453849,3.240094 -22.567816,9.541534 -0.01206,0.0119 -0.02381,0.0237 -0.0358,0.0357 -0.04364,0.0453 -0.08693,0.0908 -0.129811,0.13643 -1.88271,1.92321 -2.866899,3.96665 -2.86707,6.03839 v 5.3e-4 c -7e-6,0.10349 0.0029,0.20716 0.0078,0.31057 -0.04135,1.44669 0.273895,3.007452 1.042975,4.692222 5.133168,6.46583 19.694718,11.22404 37.353031,12.20546 2.363381,0.13118 4.747358,0.18976 7.129626,0.18087 2.382438,0.009 4.766614,-0.0497 7.130184,-0.18087 17.658305,-0.98142 32.219865,-5.73963 37.353025,-12.20546 0.7667,-1.67954 1.08253,-3.235872 1.04353,-4.678782 0.005,-0.10788 0.007,-0.21604 0.007,-0.32401 v -5.3e-4 c -1.7e-4,-2.08037 -0.99134,-4.13246 -2.88945,-6.06268 -0.0259,-0.0273 -0.0517,-0.0545 -0.0778,-0.0816 -0.0269,-0.0269 -0.0528,-0.0538 -0.08,-0.0806 -6.12051,-6.29114 -19.58151,-8.986524 -22.55382,-9.527064 -6.13158,-1.08549 -12.821205,-1.64531 -19.591082,-1.63969 h -5.78e-4 c -0.113994,1.2e-4 -0.227356,0.003 -0.341307,0.004 -0.11393,-5.3e-4 -0.227354,-0.003 -0.341326,-0.004 z" />
          <path
             id="path925"
             style="opacity:1;fill:#ff8c00;fill-opacity:1;stroke-width:0;stroke-linecap:round;stroke-linejoin:round"
             d="m 174.38281,352.26953 c -2.76767,4.67755 -4.19296,9.4769 -4.19336,14.31836 v 0.002 c -2e-5,0.39115 0.0108,0.78299 0.0293,1.17383 -0.15628,5.46781 1.03465,11.36674 3.94141,17.73438 19.40095,24.43778 74.4357,42.42155 141.17578,46.13086 8.93246,0.49579 17.94342,0.71719 26.94726,0.68359 9.00449,0.034 18.01604,-0.18783 26.94922,-0.68359 66.74005,-3.70931 121.77486,-21.69308 141.17578,-46.13086 2.89777,-6.34787 4.09272,-12.23008 3.94532,-17.6836 0.0189,-0.40773 0.0254,-0.81653 0.0254,-1.22461 v -0.002 c -4e-4,-4.84019 -1.42453,-9.63973 -4.18946,-14.31641 0.61308,2.2153 0.93147,4.44793 0.93164,6.68946 v 0.002 c 0,0.40035 -0.006,0.80115 -0.0254,1.20117 0.14461,5.35026 -1.02625,11.12193 -3.86914,17.34961 -19.03358,23.97508 -73.02753,41.61873 -138.5039,45.25781 -8.76404,0.4862 -17.60546,0.70394 -26.43946,0.66993 -8.83337,0.033 -17.67221,-0.18354 -26.43554,-0.66993 -65.47642,-3.63908 -119.4703,-21.28273 -138.50391,-45.25781 -2.85172,-6.24708 -4.02052,-12.03416 -3.86719,-17.39844 -0.0185,-0.38344 -0.0293,-0.7686 -0.0293,-1.15234 v -0.002 c 1.8e-4,-2.24258 0.32134,-4.4752 0.93554,-6.69141 z"
             transform="scale(0.26458333)" />
        </g>
        <g
           transform="matrix(0.71182901,0,0,0.71182901,91.080923,53.469983)"
           id="g1250"
           style="stroke-width:1.40483">
          <path
             id="path1238"
             style="opacity:0.328;fill:#000000;fill-opacity:1;stroke-width:0;stroke-linecap:round;stroke-linejoin:round"
             d="m 90.22133,86.445474 0.0011,5.2e-4 a 1.6888528,1.6195456 0 0 0 -0.153043,0.008 c -7.292035,0.002 -14.496732,0.59611 -21.246915,1.79111 a 1.6888528,1.6195456 0 0 0 -0.02048,0.004 c -0.0089,0.002 -0.01756,0.002 -0.02641,0.004 -1.565948,0.28479 -6.20251,0.89508 -11.525539,2.64221 -4.759825,1.56227 -10.172982,4.05826 -14.759353,8.16281 h -7.130986 v 13.770736 0.002 0.0894 h 0.0022 c 0.0021,0.2458 0.0093,0.46808 0.01617,0.61392 a 1.6888528,1.6195456 0 0 0 0.09538,0.46457 c 0.09057,2.48186 0.621357,4.97664 1.702858,7.3458 0.295813,0.64817 0.673429,1.26345 1.121944,1.82832 4.44074,5.59363 11.030973,8.8416 18.556835,11.3006 7.558903,2.46981 16.403074,4.00586 26.000364,4.53926 a 1.6888528,1.6195456 0 0 0 0.09808,0.002 c 2.533741,0.13872 5.076388,0.20421 7.614897,0.19534 2.535292,0.009 5.075433,-0.0568 7.605193,-0.19534 l 0.0959,-0.002 a 1.6888528,1.6195456 0 0 0 0.002,0 c 9.597315,-0.53339 18.442405,-2.06937 26.000905,-4.53926 7.52551,-2.45909 14.11381,-5.70749 18.55414,-11.3006 0.44852,-0.56487 0.82667,-1.18015 1.12249,-1.82832 1.07455,-2.35397 1.60453,-4.8321 1.7007,-7.30446 a 1.6888528,1.6195456 0 0 0 0.0997,-0.46715 c 0.0169,-0.33467 0.0162,-0.59886 0.0162,-0.74208 v -0.002 c 0,-0.0121 -0.001,-0.024 -0.001,-0.0362 h 0.001 V 99.058144 h -7.1299 c -4.58766,-4.1047 -10.00031,-6.60012 -14.76098,-8.16333 -5.29722,-1.73939 -9.89737,-2.34982 -11.48512,-2.63653 l -0.0307,-0.006 c -10e-4,-2.7e-4 -0.006,-0.002 -0.008,-0.002 -0.003,-5.5e-4 -0.005,-5.5e-4 -0.009,-0.002 a 1.6888528,1.6195456 0 0 0 -0.0366,-0.006 c -6.80062,-1.20394 -14.061295,-1.80277 -21.407513,-1.79679 h -0.0022 a 1.6888528,1.6195456 0 0 0 -0.0022,0 c -0.187459,2e-4 -0.267044,0.003 -0.315786,0.004 -0.005,-7e-5 -0.09904,-0.002 -0.264588,-0.004 a 1.6888528,1.6195456 0 0 0 -0.01024,0 c -0.02779,-1.1e-4 -0.05358,-1.1e-4 -0.08137,0 z" />
          <path
             d="m 90.22133,84.472068 0.0011,5.2e-4 a 1.6888528,1.6195456 0 0 0 -0.153043,0.008 c -7.292035,0.002 -14.496732,0.59611 -21.246915,1.79111 a 1.6888528,1.6195456 0 0 0 -0.02048,0.004 c -0.0089,0.002 -0.01756,0.002 -0.02641,0.004 -1.565948,0.28479 -6.20251,0.89508 -11.525539,2.64221 -4.759825,1.56227 -10.172982,4.05826 -14.759353,8.16281 h -7.130986 v 13.770732 0.002 0.0894 h 0.0022 c 0.0021,0.2458 0.0093,0.46808 0.01617,0.61392 a 1.6888528,1.6195456 0 0 0 0.09538,0.46457 c 0.09057,2.48186 0.621357,4.97664 1.702858,7.3458 0.295813,0.64817 0.673429,1.26345 1.121944,1.82832 4.44074,5.59363 11.030973,8.8416 18.556835,11.3006 7.558903,2.46981 16.403074,4.00586 26.000364,4.53926 a 1.6888528,1.6195456 0 0 0 0.09808,0.002 c 2.533741,0.13872 5.076388,0.20421 7.614897,0.19534 2.535292,0.009 5.075433,-0.0568 7.605193,-0.19534 l 0.0959,-0.002 a 1.6888528,1.6195456 0 0 0 0.002,0 c 9.597315,-0.53339 18.442405,-2.06937 26.000905,-4.53926 7.52551,-2.45909 14.11381,-5.70749 18.55414,-11.3006 0.44852,-0.56487 0.82667,-1.18015 1.12249,-1.82832 1.07455,-2.35397 1.60453,-4.8321 1.7007,-7.30446 a 1.6888528,1.6195456 0 0 0 0.0997,-0.46715 c 0.0169,-0.33467 0.0162,-0.59886 0.0162,-0.74208 v -0.002 c 0,-0.0121 -0.001,-0.024 -0.001,-0.0362 h 0.001 V 97.084738 h -7.1299 c -4.58766,-4.1047 -10.00031,-6.60012 -14.76098,-8.16333 -5.29722,-1.73939 -9.89737,-2.34982 -11.48512,-2.63653 l -0.0307,-0.006 c -10e-4,-2.7e-4 -0.006,-0.002 -0.008,-0.002 -0.003,-5.5e-4 -0.005,-5.5e-4 -0.009,-0.002 a 1.6888528,1.6195456 0 0 0 -0.0366,-0.006 c -6.80062,-1.20394 -14.061295,-1.80277 -21.407513,-1.79679 h -0.0022 a 1.6888528,1.6195456 0 0 0 -0.0022,0 c -0.187459,2e-4 -0.267044,0.003 -0.315786,0.004 -0.005,-7e-5 -0.09904,-0.002 -0.264588,-0.004 a 1.6888528,1.6195456 0 0 0 -0.01024,0 c -0.02779,-1.1e-4 -0.05358,-1.1e-4 -0.08137,0 z"
             style="opacity:1;fill:url(#linearGradient1296);fill-opacity:1;stroke-width:0;stroke-linecap:round;stroke-linejoin:round"
             id="path1240" />
          <path
             d="m 90.222239,70.610622 a 1.6888529,1.6195456 0 0 0 -0.152754,0.0078 c -7.292035,0.0024 -14.496748,0.596013 -21.246933,1.791015 a 1.6888529,1.6195456 0 0 0 -0.02036,0.0039 c -0.0089,0.0017 -0.01763,0.0022 -0.02648,0.0039 -1.565949,0.284788 -6.202698,0.895451 -11.525728,2.642578 -5.32303,1.747128 -11.466429,4.655587 -16.352725,9.683593 -0.02829,0.0291 -0.05562,0.0584 -0.08351,0.0879 -0.05137,0.0538 -0.08088,0.0867 -0.08757,0.0937 l 0.02037,-0.0195 c -3.066826,3.13279 -5.386699,7.3478 -5.387092,12.08789 v 0.002 c -1.7e-5,0.29616 0.01045,0.53605 0.01833,0.70313 a 1.6888529,1.6195456 0 0 0 0.09573,0.46484 c 0.09057,2.481862 0.621187,4.976542 1.702687,7.345702 0.295814,0.64816 0.67371,1.26326 1.122226,1.82813 4.44074,5.59363 11.030581,8.84178 18.556442,11.30078 7.558903,2.46981 16.403317,4.00566 26.000609,4.53906 a 1.6888529,1.6195456 0 0 0 0.09776,0.002 c 2.53374,0.13872 5.076741,0.20419 7.61525,0.19532 2.53529,0.009 5.075304,-0.0568 7.605064,-0.19532 l 0.0957,-0.002 a 1.6888529,1.6195456 0 0 0 0.002,0 c 9.597325,-0.53339 18.442105,-2.06917 26.000615,-4.53906 7.52551,-2.45909 14.11407,-5.70767 18.5544,-11.30078 0.44852,-0.56487 0.82642,-1.17997 1.12224,-1.82813 1.07455,-2.35398 1.60447,-4.83233 1.70064,-7.304692 a 1.6888529,1.6195456 0 0 0 0.0998,-0.46679 c 0.0169,-0.33467 0.0163,-0.59897 0.0163,-0.74219 v -0.002 c -4.1e-4,-4.74068 -2.32042,-8.96078 -5.39931,-12.10157 -5.1e-4,-6.4e-4 -0.001,-0.003 -0.002,-0.004 -0.004,-0.005 -0.007,-0.0109 -0.0122,-0.0156 l -0.008,-0.008 c -0.0273,-0.0287 -0.0538,-0.0576 -0.0814,-0.0859 -3e-4,-2.6e-4 -0.006,-0.004 -0.006,-0.004 -0.001,-10e-4 -0.001,-0.003 -0.002,-0.004 -0.009,-0.0102 -0.007,-0.005 -0.004,-0.002 -0.009,-0.009 -0.0172,-0.0199 -0.0265,-0.0293 a 1.6888529,1.6195456 0 0 0 -0.002,-0.004 c -4.88691,-5.023123 -11.02565,-7.92859 -16.34662,-9.675773 -5.29722,-1.739384 -9.89725,-2.350004 -11.485,-2.636719 l -0.0305,-0.0059 c -10e-4,-2.7e-4 -0.006,-0.0017 -0.008,-0.002 -0.003,-5.45e-4 -0.005,-0.0014 -0.008,-0.002 a 1.6888529,1.6195456 0 0 0 -0.0367,-0.0059 c -6.80062,-1.203933 -14.061635,-1.802861 -21.407833,-1.796875 0,0 -0.0021,0 -0.0021,0 a 1.6888529,1.6195456 0 0 0 -0.0021,0 c -0.187459,1.98e-4 -0.266949,0.0028 -0.315689,0.0039 -0.005,-6.9e-5 -0.09922,-0.0024 -0.264773,-0.0039 a 1.6888529,1.6195456 0 0 0 -0.01022,0 c -0.02779,-1.11e-4 -0.05368,-1.11e-4 -0.08147,0 z m 50.074491,14.208986 c 0.004,0.004 0.0122,0.013 0.0122,0.0137 a 1.6888529,1.6195456 0 0 0 -0.0122,-0.0137 z m 0.0184,0.0215 c 0.0122,0.004 0.13974,0.20712 0.0468,0.0625 0.0187,0.0258 0.0428,0.0586 0.0428,0.0586 0,0 -0.002,0.002 -0.002,0.002 a 1.6888529,1.6195456 0 0 0 -0.0408,-0.0606 1.6888529,1.6195456 0 0 0 -0.0468,-0.0625 z m -1.10594,0.84375 -0.0468,0.0449 c -0.007,0.004 -0.0267,0.0159 -0.0325,0.0195 0.0146,-0.0115 0.0576,-0.0472 0.0795,-0.0645 z"
             style="opacity:1;fill:url(#linearGradient1298);fill-opacity:1;stroke-width:0;stroke-linecap:round;stroke-linejoin:round"
             id="path1242" />
          <path
             d="m 90.219874,72.230843 c -7.247874,-0.006 -14.405697,0.586056 -21.090763,1.769531 a 7.9820086,7.3718366 0 0 0 -0.04019,0.0078 c -3.424572,0.622802 -17.705279,2.319852 -26.955069,11.837904 a 7.9820086,7.3718366 0 0 0 -0.06978,0.0723 c -0.110059,0.11422 -0.174556,0.18379 -0.194562,0.20508 l 0.107856,-0.11133 c -2.83915,2.90022 -4.929218,6.75183 -4.929569,10.98047 v 0.002 c -1.5e-5,0.26137 0.0094,0.47099 0.01693,0.63086 l -0.0065,-0.51563 c -0.07355,2.57314 0.515191,5.228022 1.666453,7.750002 a 7.9820086,7.3718366 0 0 0 0.917816,1.4961 c 4.142611,5.2181 10.375848,8.33673 17.755748,10.74804 7.379901,2.41132 16.085287,3.92877 25.55508,4.45508 a 7.9820086,7.3718366 0 0 0 0.0022,0 c 2.529681,0.14041 5.070103,0.20418 7.60689,0.19531 2.537514,0.009 5.079251,-0.0549 7.609001,-0.19531 a 7.9820086,7.3718366 0 0 0 0.002,0 c 9.469825,-0.52631 18.175645,-2.04371 25.555085,-4.45508 7.37946,-2.41136 13.61133,-5.53033 17.75365,-10.74804 a 7.9820086,7.3718366 0 0 0 0.91781,-1.4961 c 1.14679,-2.51222 1.73804,-5.155272 1.66855,-7.726562 l -0.006,0.52539 c 0.0148,-0.29276 0.0149,-0.51695 0.0149,-0.66406 v -0.002 c -3.6e-4,-4.24084 -2.09962,-8.10752 -4.9613,-11.01758 -0.003,-0.003 -0.009,-0.0106 -0.0126,-0.0137 a 7.9820086,7.3718366 0 0 0 -0.10578,-0.10938 c 0.009,0.009 -0.018,-0.0171 -0.0109,-0.01 -9.25139,-9.509272 -23.52312,-11.211002 -26.94872,-11.833981 a 7.9820086,7.3718366 0 0 0 -0.0401,-0.0078 c -6.6885,-1.184059 -13.849225,-1.77555 -21.099385,-1.769531 a 7.9820086,7.3718366 0 0 0 -0.0021,0 c -0.207846,2.19e-4 -0.291665,0.0029 -0.342592,0.0039 -0.03857,-5.32e-4 -0.100963,-0.0025 -0.255884,-0.0039 a 7.9820086,7.3718366 0 0 0 -0.06988,0 z"
             style="opacity:1;fill:url(#linearGradient1300);fill-opacity:1;stroke-width:0;stroke-linecap:round;stroke-linejoin:round"
             id="path1244" />
          <path
             d="m 90.220654,79.601344 c -6.769883,-0.006 -13.459498,0.5542 -19.591078,1.63969 -2.974564,0.54095 -16.453849,3.240094 -22.567816,9.541534 -0.01206,0.0119 -0.02381,0.0237 -0.0358,0.0357 -0.04364,0.0453 -0.08693,0.0908 -0.129811,0.13643 -1.88271,1.92321 -2.866899,3.96665 -2.86707,6.03839 v 5.3e-4 c -7e-6,0.10349 0.0029,0.20716 0.0078,0.31057 -0.04135,1.44669 0.273895,3.007452 1.042975,4.692222 5.133168,6.46583 19.694718,11.22404 37.353031,12.20546 2.363381,0.13118 4.747358,0.18976 7.129626,0.18087 2.382438,0.009 4.766614,-0.0497 7.130184,-0.18087 17.658305,-0.98142 32.219865,-5.73963 37.353025,-12.20546 0.7667,-1.67954 1.08253,-3.235872 1.04353,-4.678782 0.005,-0.10788 0.007,-0.21604 0.007,-0.32401 v -5.3e-4 c -1.7e-4,-2.08037 -0.99134,-4.13246 -2.88945,-6.06268 -0.0259,-0.0273 -0.0517,-0.0545 -0.0778,-0.0816 -0.0269,-0.0269 -0.0528,-0.0538 -0.08,-0.0806 -6.12051,-6.29114 -19.58151,-8.986524 -22.55382,-9.527064 -6.13158,-1.08549 -12.821205,-1.64531 -19.591082,-1.63969 h -5.78e-4 c -0.113994,1.2e-4 -0.227356,0.003 -0.341307,0.004 -0.11393,-5.3e-4 -0.227354,-0.003 -0.341326,-0.004 z"
             style="opacity:1;fill:url(#linearGradient1302);fill-opacity:1;stroke-width:0;stroke-linecap:round;stroke-linejoin:round"
             id="path1246" />
          <path
             transform="scale(0.26458333)"
             d="m 174.38281,352.26953 c -2.76767,4.67755 -4.19296,9.4769 -4.19336,14.31836 v 0.002 c -2e-5,0.39115 0.0108,0.78299 0.0293,1.17383 -0.15628,5.46781 1.03465,11.36674 3.94141,17.73438 19.40095,24.43778 74.4357,42.42155 141.17578,46.13086 8.93246,0.49579 17.94342,0.71719 26.94726,0.68359 9.00449,0.034 18.01604,-0.18783 26.94922,-0.68359 66.74005,-3.70931 121.77486,-21.69308 141.17578,-46.13086 2.89777,-6.34787 4.09272,-12.23008 3.94532,-17.6836 0.0189,-0.40773 0.0254,-0.81653 0.0254,-1.22461 v -0.002 c -4e-4,-4.84019 -1.42453,-9.63973 -4.18946,-14.31641 0.61308,2.2153 0.93147,4.44793 0.93164,6.68946 v 0.002 c 0,0.40035 -0.006,0.80115 -0.0254,1.20117 0.14461,5.35026 -1.02625,11.12193 -3.86914,17.34961 -19.03358,23.97508 -73.02753,41.61873 -138.5039,45.25781 -8.76404,0.4862 -17.60546,0.70394 -26.43946,0.66993 -8.83337,0.033 -17.67221,-0.18354 -26.43554,-0.66993 -65.47642,-3.63908 -119.4703,-21.28273 -138.50391,-45.25781 -2.85172,-6.24708 -4.02052,-12.03416 -3.86719,-17.39844 -0.0185,-0.38344 -0.0293,-0.7686 -0.0293,-1.15234 v -0.002 c 1.8e-4,-2.24258 0.32134,-4.4752 0.93554,-6.69141 z"
             style="opacity:1;fill:#ff8c00;fill-opacity:1;stroke-width:0;stroke-linecap:round;stroke-linejoin:round"
             id="path1248" />
        </g>
      </g>
      <g
         id="g1102"
         transform="translate(0,-64.652611)">
        <g
           transform="matrix(0.71182901,0,0,0.71182901,-12.023431,54.076634)"
           id="g1086"
           style="stroke-width:1.40483">
          <path
             d="m 90.22133,86.445474 0.0011,5.2e-4 a 1.6888528,1.6195456 0 0 0 -0.153043,0.008 c -7.292035,0.002 -14.496732,0.59611 -21.246915,1.79111 a 1.6888528,1.6195456 0 0 0 -0.02048,0.004 c -0.0089,0.002 -0.01756,0.002 -0.02641,0.004 -1.565948,0.28479 -6.20251,0.89508 -11.525539,2.64221 -4.759825,1.56227 -10.172982,4.05826 -14.759353,8.16281 h -7.130986 v 13.770736 0.002 0.0894 h 0.0022 c 0.0021,0.2458 0.0093,0.46808 0.01617,0.61392 a 1.6888528,1.6195456 0 0 0 0.09538,0.46457 c 0.09057,2.48186 0.621357,4.97664 1.702858,7.3458 0.295813,0.64817 0.673429,1.26345 1.121944,1.82832 4.44074,5.59363 11.030973,8.8416 18.556835,11.3006 7.558903,2.46981 16.403074,4.00586 26.000364,4.53926 a 1.6888528,1.6195456 0 0 0 0.09808,0.002 c 2.533741,0.13872 5.076388,0.20421 7.614897,0.19534 2.535292,0.009 5.075433,-0.0568 7.605193,-0.19534 l 0.0959,-0.002 a 1.6888528,1.6195456 0 0 0 0.002,0 c 9.597315,-0.53339 18.442405,-2.06937 26.000905,-4.53926 7.52551,-2.45909 14.11381,-5.70749 18.55414,-11.3006 0.44852,-0.56487 0.82667,-1.18015 1.12249,-1.82832 1.07455,-2.35397 1.60453,-4.8321 1.7007,-7.30446 a 1.6888528,1.6195456 0 0 0 0.0997,-0.46715 c 0.0169,-0.33467 0.0162,-0.59886 0.0162,-0.74208 v -0.002 c 0,-0.0121 -0.001,-0.024 -0.001,-0.0362 h 0.001 V 99.058144 h -7.1299 c -4.58766,-4.1047 -10.00031,-6.60012 -14.76098,-8.16333 -5.29722,-1.73939 -9.89737,-2.34982 -11.48512,-2.63653 l -0.0307,-0.006 c -10e-4,-2.7e-4 -0.006,-0.002 -0.008,-0.002 -0.003,-5.5e-4 -0.005,-5.5e-4 -0.009,-0.002 a 1.6888528,1.6195456 0 0 0 -0.0366,-0.006 c -6.80062,-1.20394 -14.061295,-1.80277 -21.407513,-1.79679 h -0.0022 a 1.6888528,1.6195456 0 0 0 -0.0022,0 c -0.187459,2e-4 -0.267044,0.003 -0.315786,0.004 -0.005,-7e-5 -0.09904,-0.002 -0.264588,-0.004 a 1.6888528,1.6195456 0 0 0 -0.01024,0 c -0.02779,-1.1e-4 -0.05358,-1.1e-4 -0.08137,0 z"
             style="opacity:0.328;fill:#000000;fill-opacity:1;stroke-width:0;stroke-linecap:round;stroke-linejoin:round"
             id="path1074" />
          <path
             id="path1076"
             style="opacity:1;fill:url(#linearGradient1104);fill-opacity:1;stroke-width:0;stroke-linecap:round;stroke-linejoin:round"
             d="m 90.22133,84.472068 0.0011,5.2e-4 a 1.6888528,1.6195456 0 0 0 -0.153043,0.008 c -7.292035,0.002 -14.496732,0.59611 -21.246915,1.79111 a 1.6888528,1.6195456 0 0 0 -0.02048,0.004 c -0.0089,0.002 -0.01756,0.002 -0.02641,0.004 -1.565948,0.28479 -6.20251,0.89508 -11.525539,2.64221 -4.759825,1.56227 -10.172982,4.05826 -14.759353,8.16281 h -7.130986 v 13.770732 0.002 0.0894 h 0.0022 c 0.0021,0.2458 0.0093,0.46808 0.01617,0.61392 a 1.6888528,1.6195456 0 0 0 0.09538,0.46457 c 0.09057,2.48186 0.621357,4.97664 1.702858,7.3458 0.295813,0.64817 0.673429,1.26345 1.121944,1.82832 4.44074,5.59363 11.030973,8.8416 18.556835,11.3006 7.558903,2.46981 16.403074,4.00586 26.000364,4.53926 a 1.6888528,1.6195456 0 0 0 0.09808,0.002 c 2.533741,0.13872 5.076388,0.20421 7.614897,0.19534 2.535292,0.009 5.075433,-0.0568 7.605193,-0.19534 l 0.0959,-0.002 a 1.6888528,1.6195456 0 0 0 0.002,0 c 9.597315,-0.53339 18.442405,-2.06937 26.000905,-4.53926 7.52551,-2.45909 14.11381,-5.70749 18.55414,-11.3006 0.44852,-0.56487 0.82667,-1.18015 1.12249,-1.82832 1.07455,-2.35397 1.60453,-4.8321 1.7007,-7.30446 a 1.6888528,1.6195456 0 0 0 0.0997,-0.46715 c 0.0169,-0.33467 0.0162,-0.59886 0.0162,-0.74208 v -0.002 c 0,-0.0121 -0.001,-0.024 -0.001,-0.0362 h 0.001 V 97.084738 h -7.1299 c -4.58766,-4.1047 -10.00031,-6.60012 -14.76098,-8.16333 -5.29722,-1.73939 -9.89737,-2.34982 -11.48512,-2.63653 l -0.0307,-0.006 c -10e-4,-2.7e-4 -0.006,-0.002 -0.008,-0.002 -0.003,-5.5e-4 -0.005,-5.5e-4 -0.009,-0.002 a 1.6888528,1.6195456 0 0 0 -0.0366,-0.006 c -6.80062,-1.20394 -14.061295,-1.80277 -21.407513,-1.79679 h -0.0022 a 1.6888528,1.6195456 0 0 0 -0.0022,0 c -0.187459,2e-4 -0.267044,0.003 -0.315786,0.004 -0.005,-7e-5 -0.09904,-0.002 -0.264588,-0.004 a 1.6888528,1.6195456 0 0 0 -0.01024,0 c -0.02779,-1.1e-4 -0.05358,-1.1e-4 -0.08137,0 z" />
          <path
             id="path1078"
             style="opacity:1;fill:url(#linearGradient1106);fill-opacity:1;stroke-width:0;stroke-linecap:round;stroke-linejoin:round"
             d="m 90.222239,70.610622 a 1.6888529,1.6195456 0 0 0 -0.152754,0.0078 c -7.292035,0.0024 -14.496748,0.596013 -21.246933,1.791015 a 1.6888529,1.6195456 0 0 0 -0.02036,0.0039 c -0.0089,0.0017 -0.01763,0.0022 -0.02648,0.0039 -1.565949,0.284788 -6.202698,0.895451 -11.525728,2.642578 -5.32303,1.747128 -11.466429,4.655587 -16.352725,9.683593 -0.02829,0.0291 -0.05562,0.0584 -0.08351,0.0879 -0.05137,0.0538 -0.08088,0.0867 -0.08757,0.0937 l 0.02037,-0.0195 c -3.066826,3.13279 -5.386699,7.3478 -5.387092,12.08789 v 0.002 c -1.7e-5,0.29616 0.01045,0.53605 0.01833,0.70313 a 1.6888529,1.6195456 0 0 0 0.09573,0.46484 c 0.09057,2.481862 0.621187,4.976542 1.702687,7.345702 0.295814,0.64816 0.67371,1.26326 1.122226,1.82813 4.44074,5.59363 11.030581,8.84178 18.556442,11.30078 7.558903,2.46981 16.403317,4.00566 26.000609,4.53906 a 1.6888529,1.6195456 0 0 0 0.09776,0.002 c 2.53374,0.13872 5.076741,0.20419 7.61525,0.19532 2.53529,0.009 5.075304,-0.0568 7.605064,-0.19532 l 0.0957,-0.002 a 1.6888529,1.6195456 0 0 0 0.002,0 c 9.597325,-0.53339 18.442105,-2.06917 26.000615,-4.53906 7.52551,-2.45909 14.11407,-5.70767 18.5544,-11.30078 0.44852,-0.56487 0.82642,-1.17997 1.12224,-1.82813 1.07455,-2.35398 1.60447,-4.83233 1.70064,-7.304692 a 1.6888529,1.6195456 0 0 0 0.0998,-0.46679 c 0.0169,-0.33467 0.0163,-0.59897 0.0163,-0.74219 v -0.002 c -4.1e-4,-4.74068 -2.32042,-8.96078 -5.39931,-12.10157 -5.1e-4,-6.4e-4 -0.001,-0.003 -0.002,-0.004 -0.004,-0.005 -0.007,-0.0109 -0.0122,-0.0156 l -0.008,-0.008 c -0.0273,-0.0287 -0.0538,-0.0576 -0.0814,-0.0859 -3e-4,-2.6e-4 -0.006,-0.004 -0.006,-0.004 -0.001,-10e-4 -0.001,-0.003 -0.002,-0.004 -0.009,-0.0102 -0.007,-0.005 -0.004,-0.002 -0.009,-0.009 -0.0172,-0.0199 -0.0265,-0.0293 a 1.6888529,1.6195456 0 0 0 -0.002,-0.004 c -4.88691,-5.023123 -11.02565,-7.92859 -16.34662,-9.675773 -5.29722,-1.739384 -9.89725,-2.350004 -11.485,-2.636719 l -0.0305,-0.0059 c -10e-4,-2.7e-4 -0.006,-0.0017 -0.008,-0.002 -0.003,-5.45e-4 -0.005,-0.0014 -0.008,-0.002 a 1.6888529,1.6195456 0 0 0 -0.0367,-0.0059 c -6.80062,-1.203933 -14.061635,-1.802861 -21.407833,-1.796875 0,0 -0.0021,0 -0.0021,0 a 1.6888529,1.6195456 0 0 0 -0.0021,0 c -0.187459,1.98e-4 -0.266949,0.0028 -0.315689,0.0039 -0.005,-6.9e-5 -0.09922,-0.0024 -0.264773,-0.0039 a 1.6888529,1.6195456 0 0 0 -0.01022,0 c -0.02779,-1.11e-4 -0.05368,-1.11e-4 -0.08147,0 z m 50.074491,14.208986 c 0.004,0.004 0.0122,0.013 0.0122,0.0137 a 1.6888529,1.6195456 0 0 0 -0.0122,-0.0137 z m 0.0184,0.0215 c 0.0122,0.004 0.13974,0.20712 0.0468,0.0625 0.0187,0.0258 0.0428,0.0586 0.0428,0.0586 0,0 -0.002,0.002 -0.002,0.002 a 1.6888529,1.6195456 0 0 0 -0.0408,-0.0606 1.6888529,1.6195456 0 0 0 -0.0468,-0.0625 z m -1.10594,0.84375 -0.0468,0.0449 c -0.007,0.004 -0.0267,0.0159 -0.0325,0.0195 0.0146,-0.0115 0.0576,-0.0472 0.0795,-0.0645 z" />
          <path
             id="path1080"
             style="opacity:1;fill:url(#linearGradient1108);fill-opacity:1;stroke-width:0;stroke-linecap:round;stroke-linejoin:round"
             d="m 90.219874,72.230843 c -7.247874,-0.006 -14.405697,0.586056 -21.090763,1.769531 a 7.9820086,7.3718366 0 0 0 -0.04019,0.0078 c -3.424572,0.622802 -17.705279,2.319852 -26.955069,11.837904 a 7.9820086,7.3718366 0 0 0 -0.06978,0.0723 c -0.110059,0.11422 -0.174556,0.18379 -0.194562,0.20508 l 0.107856,-0.11133 c -2.83915,2.90022 -4.929218,6.75183 -4.929569,10.98047 v 0.002 c -1.5e-5,0.26137 0.0094,0.47099 0.01693,0.63086 l -0.0065,-0.51563 c -0.07355,2.57314 0.515191,5.228022 1.666453,7.750002 a 7.9820086,7.3718366 0 0 0 0.917816,1.4961 c 4.142611,5.2181 10.375848,8.33673 17.755748,10.74804 7.379901,2.41132 16.085287,3.92877 25.55508,4.45508 a 7.9820086,7.3718366 0 0 0 0.0022,0 c 2.529681,0.14041 5.070103,0.20418 7.60689,0.19531 2.537514,0.009 5.079251,-0.0549 7.609001,-0.19531 a 7.9820086,7.3718366 0 0 0 0.002,0 c 9.469825,-0.52631 18.175645,-2.04371 25.555085,-4.45508 7.37946,-2.41136 13.61133,-5.53033 17.75365,-10.74804 a 7.9820086,7.3718366 0 0 0 0.91781,-1.4961 c 1.14679,-2.51222 1.73804,-5.155272 1.66855,-7.726562 l -0.006,0.52539 c 0.0148,-0.29276 0.0149,-0.51695 0.0149,-0.66406 v -0.002 c -3.6e-4,-4.24084 -2.09962,-8.10752 -4.9613,-11.01758 -0.003,-0.003 -0.009,-0.0106 -0.0126,-0.0137 a 7.9820086,7.3718366 0 0 0 -0.10578,-0.10938 c 0.009,0.009 -0.018,-0.0171 -0.0109,-0.01 -9.25139,-9.509272 -23.52312,-11.211002 -26.94872,-11.833981 a 7.9820086,7.3718366 0 0 0 -0.0401,-0.0078 c -6.6885,-1.184059 -13.849225,-1.77555 -21.099385,-1.769531 a 7.9820086,7.3718366 0 0 0 -0.0021,0 c -0.207846,2.19e-4 -0.291665,0.0029 -0.342592,0.0039 -0.03857,-5.32e-4 -0.100963,-0.0025 -0.255884,-0.0039 a 7.9820086,7.3718366 0 0 0 -0.06988,0 z" />
          <path
             id="path1082"
             style="opacity:1;fill:url(#linearGradient1110);fill-opacity:1;stroke-width:0;stroke-linecap:round;stroke-linejoin:round"
             d="m 90.220654,79.601344 c -6.769883,-0.006 -13.459498,0.5542 -19.591078,1.63969 -2.974564,0.54095 -16.453849,3.240094 -22.567816,9.541534 -0.01206,0.0119 -0.02381,0.0237 -0.0358,0.0357 -0.04364,0.0453 -0.08693,0.0908 -0.129811,0.13643 -1.88271,1.92321 -2.866899,3.96665 -2.86707,6.03839 v 5.3e-4 c -7e-6,0.10349 0.0029,0.20716 0.0078,0.31057 -0.04135,1.44669 0.273895,3.007452 1.042975,4.692222 5.133168,6.46583 19.694718,11.22404 37.353031,12.20546 2.363381,0.13118 4.747358,0.18976 7.129626,0.18087 2.382438,0.009 4.766614,-0.0497 7.130184,-0.18087 17.658305,-0.98142 32.219865,-5.73963 37.353025,-12.20546 0.7667,-1.67954 1.08253,-3.235872 1.04353,-4.678782 0.005,-0.10788 0.007,-0.21604 0.007,-0.32401 v -5.3e-4 c -1.7e-4,-2.08037 -0.99134,-4.13246 -2.88945,-6.06268 -0.0259,-0.0273 -0.0517,-0.0545 -0.0778,-0.0816 -0.0269,-0.0269 -0.0528,-0.0538 -0.08,-0.0806 -6.12051,-6.29114 -19.58151,-8.986524 -22.55382,-9.527064 -6.13158,-1.08549 -12.821205,-1.64531 -19.591082,-1.63969 h -5.78e-4 c -0.113994,1.2e-4 -0.227356,0.003 -0.341307,0.004 -0.11393,-5.3e-4 -0.227354,-0.003 -0.341326,-0.004 z" />
          <path
             id="path1084"
             style="opacity:1;fill:#ff8c00;fill-opacity:1;stroke-width:0;stroke-linecap:round;stroke-linejoin:round"
             d="m 174.38281,352.26953 c -2.76767,4.67755 -4.19296,9.4769 -4.19336,14.31836 v 0.002 c -2e-5,0.39115 0.0108,0.78299 0.0293,1.17383 -0.15628,5.46781 1.03465,11.36674 3.94141,17.73438 19.40095,24.43778 74.4357,42.42155 141.17578,46.13086 8.93246,0.49579 17.94342,0.71719 26.94726,0.68359 9.00449,0.034 18.01604,-0.18783 26.94922,-0.68359 66.74005,-3.70931 121.77486,-21.69308 141.17578,-46.13086 2.89777,-6.34787 4.09272,-12.23008 3.94532,-17.6836 0.0189,-0.40773 0.0254,-0.81653 0.0254,-1.22461 v -0.002 c -4e-4,-4.84019 -1.42453,-9.63973 -4.18946,-14.31641 0.61308,2.2153 0.93147,4.44793 0.93164,6.68946 v 0.002 c 0,0.40035 -0.006,0.80115 -0.0254,1.20117 0.14461,5.35026 -1.02625,11.12193 -3.86914,17.34961 -19.03358,23.97508 -73.02753,41.61873 -138.5039,45.25781 -8.76404,0.4862 -17.60546,0.70394 -26.43946,0.66993 -8.83337,0.033 -17.67221,-0.18354 -26.43554,-0.66993 -65.47642,-3.63908 -119.4703,-21.28273 -138.50391,-45.25781 -2.85172,-6.24708 -4.02052,-12.03416 -3.86719,-17.39844 -0.0185,-0.38344 -0.0293,-0.7686 -0.0293,-1.15234 v -0.002 c 1.8e-4,-2.24258 0.32134,-4.4752 0.93554,-6.69141 z"
             transform="scale(0.26458333)" />
        </g>
        <g
           transform="matrix(0.71182901,0,0,0.71182901,91.080923,53.469983)"
           id="g1100"
           style="stroke-width:1.40483">
          <path
             id="path1088"
             style="opacity:0.328;fill:#000000;fill-opacity:1;stroke-width:0;stroke-linecap:round;stroke-linejoin:round"
             d="m 90.22133,86.445474 0.0011,5.2e-4 a 1.6888528,1.6195456 0 0 0 -0.153043,0.008 c -7.292035,0.002 -14.496732,0.59611 -21.246915,1.79111 a 1.6888528,1.6195456 0 0 0 -0.02048,0.004 c -0.0089,0.002 -0.01756,0.002 -0.02641,0.004 -1.565948,0.28479 -6.20251,0.89508 -11.525539,2.64221 -4.759825,1.56227 -10.172982,4.05826 -14.759353,8.16281 h -7.130986 v 13.770736 0.002 0.0894 h 0.0022 c 0.0021,0.2458 0.0093,0.46808 0.01617,0.61392 a 1.6888528,1.6195456 0 0 0 0.09538,0.46457 c 0.09057,2.48186 0.621357,4.97664 1.702858,7.3458 0.295813,0.64817 0.673429,1.26345 1.121944,1.82832 4.44074,5.59363 11.030973,8.8416 18.556835,11.3006 7.558903,2.46981 16.403074,4.00586 26.000364,4.53926 a 1.6888528,1.6195456 0 0 0 0.09808,0.002 c 2.533741,0.13872 5.076388,0.20421 7.614897,0.19534 2.535292,0.009 5.075433,-0.0568 7.605193,-0.19534 l 0.0959,-0.002 a 1.6888528,1.6195456 0 0 0 0.002,0 c 9.597315,-0.53339 18.442405,-2.06937 26.000905,-4.53926 7.52551,-2.45909 14.11381,-5.70749 18.55414,-11.3006 0.44852,-0.56487 0.82667,-1.18015 1.12249,-1.82832 1.07455,-2.35397 1.60453,-4.8321 1.7007,-7.30446 a 1.6888528,1.6195456 0 0 0 0.0997,-0.46715 c 0.0169,-0.33467 0.0162,-0.59886 0.0162,-0.74208 v -0.002 c 0,-0.0121 -0.001,-0.024 -0.001,-0.0362 h 0.001 V 99.058144 h -7.1299 c -4.58766,-4.1047 -10.00031,-6.60012 -14.76098,-8.16333 -5.29722,-1.73939 -9.89737,-2.34982 -11.48512,-2.63653 l -0.0307,-0.006 c -10e-4,-2.7e-4 -0.006,-0.002 -0.008,-0.002 -0.003,-5.5e-4 -0.005,-5.5e-4 -0.009,-0.002 a 1.6888528,1.6195456 0 0 0 -0.0366,-0.006 c -6.80062,-1.20394 -14.061295,-1.80277 -21.407513,-1.79679 h -0.0022 a 1.6888528,1.6195456 0 0 0 -0.0022,0 c -0.187459,2e-4 -0.267044,0.003 -0.315786,0.004 -0.005,-7e-5 -0.09904,-0.002 -0.264588,-0.004 a 1.6888528,1.6195456 0 0 0 -0.01024,0 c -0.02779,-1.1e-4 -0.05358,-1.1e-4 -0.08137,0 z" />
          <path
             d="m 90.22133,84.472068 0.0011,5.2e-4 a 1.6888528,1.6195456 0 0 0 -0.153043,0.008 c -7.292035,0.002 -14.496732,0.59611 -21.246915,1.79111 a 1.6888528,1.6195456 0 0 0 -0.02048,0.004 c -0.0089,0.002 -0.01756,0.002 -0.02641,0.004 -1.565948,0.28479 -6.20251,0.89508 -11.525539,2.64221 -4.759825,1.56227 -10.172982,4.05826 -14.759353,8.16281 h -7.130986 v 13.770732 0.002 0.0894 h 0.0022 c 0.0021,0.2458 0.0093,0.46808 0.01617,0.61392 a 1.6888528,1.6195456 0 0 0 0.09538,0.46457 c 0.09057,2.48186 0.621357,4.97664 1.702858,7.3458 0.295813,0.64817 0.673429,1.26345 1.121944,1.82832 4.44074,5.59363 11.030973,8.8416 18.556835,11.3006 7.558903,2.46981 16.403074,4.00586 26.000364,4.53926 a 1.6888528,1.6195456 0 0 0 0.09808,0.002 c 2.533741,0.13872 5.076388,0.20421 7.614897,0.19534 2.535292,0.009 5.075433,-0.0568 7.605193,-0.19534 l 0.0959,-0.002 a 1.6888528,1.6195456 0 0 0 0.002,0 c 9.597315,-0.53339 18.442405,-2.06937 26.000905,-4.53926 7.52551,-2.45909 14.11381,-5.70749 18.55414,-11.3006 0.44852,-0.56487 0.82667,-1.18015 1.12249,-1.82832 1.07455,-2.35397 1.60453,-4.8321 1.7007,-7.30446 a 1.6888528,1.6195456 0 0 0 0.0997,-0.46715 c 0.0169,-0.33467 0.0162,-0.59886 0.0162,-0.74208 v -0.002 c 0,-0.0121 -0.001,-0.024 -0.001,-0.0362 h 0.001 V 97.084738 h -7.1299 c -4.58766,-4.1047 -10.00031,-6.60012 -14.76098,-8.16333 -5.29722,-1.73939 -9.89737,-2.34982 -11.48512,-2.63653 l -0.0307,-0.006 c -10e-4,-2.7e-4 -0.006,-0.002 -0.008,-0.002 -0.003,-5.5e-4 -0.005,-5.5e-4 -0.009,-0.002 a 1.6888528,1.6195456 0 0 0 -0.0366,-0.006 c -6.80062,-1.20394 -14.061295,-1.80277 -21.407513,-1.79679 h -0.0022 a 1.6888528,1.6195456 0 0 0 -0.0022,0 c -0.187459,2e-4 -0.267044,0.003 -0.315786,0.004 -0.005,-7e-5 -0.09904,-0.002 -0.264588,-0.004 a 1.6888528,1.6195456 0 0 0 -0.01024,0 c -0.02779,-1.1e-4 -0.05358,-1.1e-4 -0.08137,0 z"
             style="opacity:1;fill:url(#linearGradient1112);fill-opacity:1;stroke-width:0;stroke-linecap:round;stroke-linejoin:round"
             id="path1090" />
          <path
             d="m 90.222239,70.610622 a 1.6888529,1.6195456 0 0 0 -0.152754,0.0078 c -7.292035,0.0024 -14.496748,0.596013 -21.246933,1.791015 a 1.6888529,1.6195456 0 0 0 -0.02036,0.0039 c -0.0089,0.0017 -0.01763,0.0022 -0.02648,0.0039 -1.565949,0.284788 -6.202698,0.895451 -11.525728,2.642578 -5.32303,1.747128 -11.466429,4.655587 -16.352725,9.683593 -0.02829,0.0291 -0.05562,0.0584 -0.08351,0.0879 -0.05137,0.0538 -0.08088,0.0867 -0.08757,0.0937 l 0.02037,-0.0195 c -3.066826,3.13279 -5.386699,7.3478 -5.387092,12.08789 v 0.002 c -1.7e-5,0.29616 0.01045,0.53605 0.01833,0.70313 a 1.6888529,1.6195456 0 0 0 0.09573,0.46484 c 0.09057,2.481862 0.621187,4.976542 1.702687,7.345702 0.295814,0.64816 0.67371,1.26326 1.122226,1.82813 4.44074,5.59363 11.030581,8.84178 18.556442,11.30078 7.558903,2.46981 16.403317,4.00566 26.000609,4.53906 a 1.6888529,1.6195456 0 0 0 0.09776,0.002 c 2.53374,0.13872 5.076741,0.20419 7.61525,0.19532 2.53529,0.009 5.075304,-0.0568 7.605064,-0.19532 l 0.0957,-0.002 a 1.6888529,1.6195456 0 0 0 0.002,0 c 9.597325,-0.53339 18.442105,-2.06917 26.000615,-4.53906 7.52551,-2.45909 14.11407,-5.70767 18.5544,-11.30078 0.44852,-0.56487 0.82642,-1.17997 1.12224,-1.82813 1.07455,-2.35398 1.60447,-4.83233 1.70064,-7.304692 a 1.6888529,1.6195456 0 0 0 0.0998,-0.46679 c 0.0169,-0.33467 0.0163,-0.59897 0.0163,-0.74219 v -0.002 c -4.1e-4,-4.74068 -2.32042,-8.96078 -5.39931,-12.10157 -5.1e-4,-6.4e-4 -0.001,-0.003 -0.002,-0.004 -0.004,-0.005 -0.007,-0.0109 -0.0122,-0.0156 l -0.008,-0.008 c -0.0273,-0.0287 -0.0538,-0.0576 -0.0814,-0.0859 -3e-4,-2.6e-4 -0.006,-0.004 -0.006,-0.004 -0.001,-10e-4 -0.001,-0.003 -0.002,-0.004 -0.009,-0.0102 -0.007,-0.005 -0.004,-0.002 -0.009,-0.009 -0.0172,-0.0199 -0.0265,-0.0293 a 1.6888529,1.6195456 0 0 0 -0.002,-0.004 c -4.88691,-5.023123 -11.02565,-7.92859 -16.34662,-9.675773 -5.29722,-1.739384 -9.89725,-2.350004 -11.485,-2.636719 l -0.0305,-0.0059 c -10e-4,-2.7e-4 -0.006,-0.0017 -0.008,-0.002 -0.003,-5.45e-4 -0.005,-0.0014 -0.008,-0.002 a 1.6888529,1.6195456 0 0 0 -0.0367,-0.0059 c -6.80062,-1.203933 -14.061635,-1.802861 -21.407833,-1.796875 0,0 -0.0021,0 -0.0021,0 a 1.6888529,1.6195456 0 0 0 -0.0021,0 c -0.187459,1.98e-4 -0.266949,0.0028 -0.315689,0.0039 -0.005,-6.9e-5 -0.09922,-0.0024 -0.264773,-0.0039 a 1.6888529,1.6195456 0 0 0 -0.01022,0 c -0.02779,-1.11e-4 -0.05368,-1.11e-4 -0.08147,0 z m 50.074491,14.208986 c 0.004,0.004 0.0122,0.013 0.0122,0.0137 a 1.6888529,1.6195456 0 0 0 -0.0122,-0.0137 z m 0.0184,0.0215 c 0.0122,0.004 0.13974,0.20712 0.0468,0.0625 0.0187,0.0258 0.0428,0.0586 0.0428,0.0586 0,0 -0.002,0.002 -0.002,0.002 a 1.6888529,1.6195456 0 0 0 -0.0408,-0.0606 1.6888529,1.6195456 0 0 0 -0.0468,-0.0625 z m -1.10594,0.84375 -0.0468,0.0449 c -0.007,0.004 -0.0267,0.0159 -0.0325,0.0195 0.0146,-0.0115 0.0576,-0.0472 0.0795,-0.0645 z"
             style="opacity:1;fill:url(#linearGradient1114);fill-opacity:1;stroke-width:0;stroke-linecap:round;stroke-linejoin:round"
             id="path1092" />
          <path
             d="m 90.219874,72.230843 c -7.247874,-0.006 -14.405697,0.586056 -21.090763,1.769531 a 7.9820086,7.3718366 0 0 0 -0.04019,0.0078 c -3.424572,0.622802 -17.705279,2.319852 -26.955069,11.837904 a 7.9820086,7.3718366 0 0 0 -0.06978,0.0723 c -0.110059,0.11422 -0.174556,0.18379 -0.194562,0.20508 l 0.107856,-0.11133 c -2.83915,2.90022 -4.929218,6.75183 -4.929569,10.98047 v 0.002 c -1.5e-5,0.26137 0.0094,0.47099 0.01693,0.63086 l -0.0065,-0.51563 c -0.07355,2.57314 0.515191,5.228022 1.666453,7.750002 a 7.9820086,7.3718366 0 0 0 0.917816,1.4961 c 4.142611,5.2181 10.375848,8.33673 17.755748,10.74804 7.379901,2.41132 16.085287,3.92877 25.55508,4.45508 a 7.9820086,7.3718366 0 0 0 0.0022,0 c 2.529681,0.14041 5.070103,0.20418 7.60689,0.19531 2.537514,0.009 5.079251,-0.0549 7.609001,-0.19531 a 7.9820086,7.3718366 0 0 0 0.002,0 c 9.469825,-0.52631 18.175645,-2.04371 25.555085,-4.45508 7.37946,-2.41136 13.61133,-5.53033 17.75365,-10.74804 a 7.9820086,7.3718366 0 0 0 0.91781,-1.4961 c 1.14679,-2.51222 1.73804,-5.155272 1.66855,-7.726562 l -0.006,0.52539 c 0.0148,-0.29276 0.0149,-0.51695 0.0149,-0.66406 v -0.002 c -3.6e-4,-4.24084 -2.09962,-8.10752 -4.9613,-11.01758 -0.003,-0.003 -0.009,-0.0106 -0.0126,-0.0137 a 7.9820086,7.3718366 0 0 0 -0.10578,-0.10938 c 0.009,0.009 -0.018,-0.0171 -0.0109,-0.01 -9.25139,-9.509272 -23.52312,-11.211002 -26.94872,-11.833981 a 7.9820086,7.3718366 0 0 0 -0.0401,-0.0078 c -6.6885,-1.184059 -13.849225,-1.77555 -21.099385,-1.769531 a 7.9820086,7.3718366 0 0 0 -0.0021,0 c -0.207846,2.19e-4 -0.291665,0.0029 -0.342592,0.0039 -0.03857,-5.32e-4 -0.100963,-0.0025 -0.255884,-0.0039 a 7.9820086,7.3718366 0 0 0 -0.06988,0 z"
             style="opacity:1;fill:url(#linearGradient1116);fill-opacity:1;stroke-width:0;stroke-linecap:round;stroke-linejoin:round"
             id="path1094" />
          <path
             d="m 90.220654,79.601344 c -6.769883,-0.006 -13.459498,0.5542 -19.591078,1.63969 -2.974564,0.54095 -16.453849,3.240094 -22.567816,9.541534 -0.01206,0.0119 -0.02381,0.0237 -0.0358,0.0357 -0.04364,0.0453 -0.08693,0.0908 -0.129811,0.13643 -1.88271,1.92321 -2.866899,3.96665 -2.86707,6.03839 v 5.3e-4 c -7e-6,0.10349 0.0029,0.20716 0.0078,0.31057 -0.04135,1.44669 0.273895,3.007452 1.042975,4.692222 5.133168,6.46583 19.694718,11.22404 37.353031,12.20546 2.363381,0.13118 4.747358,0.18976 7.129626,0.18087 2.382438,0.009 4.766614,-0.0497 7.130184,-0.18087 17.658305,-0.98142 32.219865,-5.73963 37.353025,-12.20546 0.7667,-1.67954 1.08253,-3.235872 1.04353,-4.678782 0.005,-0.10788 0.007,-0.21604 0.007,-0.32401 v -5.3e-4 c -1.7e-4,-2.08037 -0.99134,-4.13246 -2.88945,-6.06268 -0.0259,-0.0273 -0.0517,-0.0545 -0.0778,-0.0816 -0.0269,-0.0269 -0.0528,-0.0538 -0.08,-0.0806 -6.12051,-6.29114 -19.58151,-8.986524 -22.55382,-9.527064 -6.13158,-1.08549 -12.821205,-1.64531 -19.591082,-1.63969 h -5.78e-4 c -0.113994,1.2e-4 -0.227356,0.003 -0.341307,0.004 -0.11393,-5.3e-4 -0.227354,-0.003 -0.341326,-0.004 z"
             style="opacity:1;fill:url(#linearGradient1118);fill-opacity:1;stroke-width:0;stroke-linecap:round;stroke-linejoin:round"
             id="path1096" />
          <path
             transform="scale(0.26458333)"
             d="m 174.38281,352.26953 c -2.76767,4.67755 -4.19296,9.4769 -4.19336,14.31836 v 0.002 c -2e-5,0.39115 0.0108,0.78299 0.0293,1.17383 -0.15628,5.46781 1.03465,11.36674 3.94141,17.73438 19.40095,24.43778 74.4357,42.42155 141.17578,46.13086 8.93246,0.49579 17.94342,0.71719 26.94726,0.68359 9.00449,0.034 18.01604,-0.18783 26.94922,-0.68359 66.74005,-3.70931 121.77486,-21.69308 141.17578,-46.13086 2.89777,-6.34787 4.09272,-12.23008 3.94532,-17.6836 0.0189,-0.40773 0.0254,-0.81653 0.0254,-1.22461 v -0.002 c -4e-4,-4.84019 -1.42453,-9.63973 -4.18946,-14.31641 0.61308,2.2153 0.93147,4.44793 0.93164,6.68946 v 0.002 c 0,0.40035 -0.006,0.80115 -0.0254,1.20117 0.14461,5.35026 -1.02625,11.12193 -3.86914,17.34961 -19.03358,23.97508 -73.02753,41.61873 -138.5039,45.25781 -8.76404,0.4862 -17.60546,0.70394 -26.43946,0.66993 -8.83337,0.033 -17.67221,-0.18354 -26.43554,-0.66993 -65.47642,-3.63908 -119.4703,-21.28273 -138.50391,-45.25781 -2.85172,-6.24708 -4.02052,-12.03416 -3.86719,-17.39844 -0.0185,-0.38344 -0.0293,-0.7686 -0.0293,-1.15234 v -0.002 c 1.8e-4,-2.24258 0.32134,-4.4752 0.93554,-6.69141 z"
             style="opacity:1;fill:#ff8c00;fill-opacity:1;stroke-width:0;stroke-linecap:round;stroke-linejoin:round"
             id="path1098" />
        </g>
      </g>
    </g>
  </g>
</svg>
