<?xml version="1.0" encoding="UTF-8" standalone="no"?>
<svg
   xmlns:dc="http://purl.org/dc/elements/1.1/"
   xmlns:cc="http://creativecommons.org/ns#"
   xmlns:rdf="http://www.w3.org/1999/02/22-rdf-syntax-ns#"
   xmlns:svg="http://www.w3.org/2000/svg"
   xmlns="http://www.w3.org/2000/svg"
   xmlns:sodipodi="http://sodipodi.sourceforge.net/DTD/sodipodi-0.dtd"
   xmlns:inkscape="http://www.inkscape.org/namespaces/inkscape"
   width="793.70081"
   height="1122.5197"
   viewBox="0 0 210 297"
   version="1.1"
   id="svg8"
   inkscape:version="1.0.2 (e86c870879, 2021-01-15, custom)"
   sodipodi:docname="Arrows.svg">
  <defs
     id="defs2" />
  <sodipodi:namedview
     id="base"
     pagecolor="#ffffff"
     bordercolor="#000000"
     borderopacity="1"
     inkscape:pageopacity="0.0"
     inkscape:pageshadow="2"
     inkscape:zoom="1"
     inkscape:cx="599"
     inkscape:cy="325"
     inkscape:document-units="mm"
     inkscape:current-layer="layer1"
     inkscape:document-rotation="0"
     showgrid="false"
     units="px"
     showborder="false"
     inkscape:window-width="1920"
     inkscape:window-height="1017"
     inkscape:window-x="-8"
     inkscape:window-y="-8"
     inkscape:window-maximized="1" />
  <metadata
     id="metadata5">
    <rdf:RDF>
      <cc:Work
         rdf:about="">
        <dc:format>image/svg+xml</dc:format>
        <dc:type
           rdf:resource="http://purl.org/dc/dcmitype/StillImage" />
        <dc:title></dc:title>
      </cc:Work>
    </rdf:RDF>
  </metadata>
  <g
     inkscape:label="Layer 1"
     inkscape:groupmode="layer"
     id="layer1">
    <g
       id="g891"
       transform="translate(32.014583,-5.2916667)">
      <g
         id="rect830"
         transform="scale(0.26458333)"
         style="opacity:1">
        <path
           style="color:#000000;font-style:normal;font-variant:normal;font-weight:normal;font-stretch:normal;font-size:medium;line-height:normal;font-family:sans-serif;font-variant-ligatures:normal;font-variant-position:normal;font-variant-caps:normal;font-variant-numeric:normal;font-variant-alternates:normal;font-variant-east-asian:normal;font-feature-settings:normal;font-variation-settings:normal;text-indent:0;text-align:start;text-decoration:none;text-decoration-line:none;text-decoration-style:solid;text-decoration-color:#000000;letter-spacing:normal;word-spacing:normal;text-transform:none;writing-mode:lr-tb;direction:ltr;text-orientation:mixed;dominant-baseline:auto;baseline-shift:baseline;text-anchor:start;white-space:normal;shape-padding:0;shape-margin:0;inline-size:0;clip-rule:nonzero;display:inline;overflow:visible;visibility:visible;isolation:auto;mix-blend-mode:normal;color-interpolation:sRGB;color-interpolation-filters:linearRGB;solid-color:#000000;solid-opacity:1;vector-effect:none;fill:#00ceff;fill-opacity:1;fill-rule:nonzero;stroke:none;stroke-width:5;stroke-linecap:round;stroke-linejoin:round;stroke-miterlimit:4;stroke-dasharray:none;stroke-dashoffset:0;stroke-opacity:1;color-rendering:auto;image-rendering:auto;shape-rendering:auto;text-rendering:auto;enable-background:accumulate;stop-color:#000000;stop-opacity:1"
           d="m 485.3125,150.91992 49.42969,35.32422 -231.56446,165.48438 49.42969,35.32421 231.5625,-165.48437 49.42969,35.32422 V 150.91992 Z M 584.17188,286.59766 352.60742,452.08008 303.17773,416.75586 V 522.72852 H 451.4668 L 402.03711,487.4043 633.59961,321.92188 Z"
           id="path866" />
        <path
           style="color:#000000;font-style:normal;font-variant:normal;font-weight:normal;font-stretch:normal;font-size:medium;line-height:normal;font-family:sans-serif;font-variant-ligatures:normal;font-variant-position:normal;font-variant-caps:normal;font-variant-numeric:normal;font-variant-alternates:normal;font-variant-east-asian:normal;font-feature-settings:normal;font-variation-settings:normal;text-indent:0;text-align:start;text-decoration:none;text-decoration-line:none;text-decoration-style:solid;text-decoration-color:#000000;letter-spacing:normal;word-spacing:normal;text-transform:none;writing-mode:lr-tb;direction:ltr;text-orientation:mixed;dominant-baseline:auto;baseline-shift:baseline;text-anchor:start;white-space:normal;shape-padding:0;shape-margin:0;inline-size:0;clip-rule:nonzero;display:inline;overflow:visible;visibility:visible;isolation:auto;mix-blend-mode:normal;color-interpolation:sRGB;color-interpolation-filters:linearRGB;solid-color:#000000;solid-opacity:1;vector-effect:none;fill:#000000;fill-opacity:1;fill-rule:nonzero;stroke:none;stroke-linecap:round;stroke-linejoin:round;stroke-miterlimit:4;stroke-dasharray:none;stroke-dashoffset:0;stroke-opacity:1;color-rendering:auto;image-rendering:auto;shape-rendering:auto;text-rendering:auto;enable-background:accumulate;stop-color:#000000;stop-opacity:1"
           d="m 485.3125,148.41992 a 2.50025,2.50025 0 0 0 -1.45312,4.5332 l 46.58398,33.29102 -228.71875,163.45117 a 2.50025,2.50025 0 0 0 0,4.06641 l 49.42969,35.32422 a 2.50025,2.50025 0 0 0 2.90625,0 l 230.10937,-164.44532 47.97656,34.28516 a 2.50025,2.50025 0 0 0 3.95313,-2.0332 V 150.91992 a 2.50025,2.50025 0 0 0 -2.5,-2.5 z m 7.79688,5 h 137.99023 v 98.61524 l -45.47656,-32.5 a 2.50025,2.50025 0 0 0 -2.90625,0 L 352.60742,383.98047 307.47656,351.72852 536.19531,188.27734 a 2.50025,2.50025 0 0 0 0,-4.0664 z m 91.01757,130.67774 a 2.50025,2.50025 0 0 0 -1.4082,0.46679 L 352.60742,449.00781 304.63086,414.72266 a 2.50025,2.50025 0 0 0 -3.95313,2.0332 v 105.97266 a 2.50025,2.50025 0 0 0 2.5,2.5 H 451.4668 a 2.50025,2.50025 0 0 0 1.45312,-4.53321 L 406.33594,487.4043 635.05273,323.95508 a 2.50025,2.50025 0 0 0 0,-4.06641 L 585.625,284.56445 a 2.50025,2.50025 0 0 0 -1.49805,-0.46679 z m 0.0449,5.57226 45.1289,32.25196 -228.7168,163.44921 a 2.50025,2.50025 0 0 0 0,4.06641 l 43.08594,30.79102 H 305.67773 v -98.61524 l 45.47657,32.5 a 2.50025,2.50025 0 0 0 2.90625,0 z"
           id="path868" />
      </g>
      <g
         id="rect832"
         transform="scale(0.26458333)"
         style="opacity:1">
        <path
           style="color:#000000;font-style:normal;font-variant:normal;font-weight:normal;font-stretch:normal;font-size:medium;line-height:normal;font-family:sans-serif;font-variant-ligatures:normal;font-variant-position:normal;font-variant-caps:normal;font-variant-numeric:normal;font-variant-alternates:normal;font-variant-east-asian:normal;font-feature-settings:normal;font-variation-settings:normal;text-indent:0;text-align:start;text-decoration:none;text-decoration-line:none;text-decoration-style:solid;text-decoration-color:#000000;letter-spacing:normal;word-spacing:normal;text-transform:none;writing-mode:lr-tb;direction:ltr;text-orientation:mixed;dominant-baseline:auto;baseline-shift:baseline;text-anchor:start;white-space:normal;shape-padding:0;shape-margin:0;inline-size:0;clip-rule:nonzero;display:inline;overflow:visible;visibility:visible;isolation:auto;mix-blend-mode:normal;color-interpolation:sRGB;color-interpolation-filters:linearRGB;solid-color:#000000;solid-opacity:1;vector-effect:none;fill:#ff0050;fill-opacity:1;fill-rule:nonzero;stroke:none;stroke-width:5;stroke-linecap:round;stroke-linejoin:round;stroke-miterlimit:4;stroke-dasharray:none;stroke-dashoffset:0;stroke-opacity:1;color-rendering:auto;image-rendering:auto;shape-rendering:auto;text-rendering:auto;enable-background:accumulate;stop-color:#000000;stop-opacity:1"
           d="m 485.3125,150.91992 v 70.64844 l 49.42969,-35.32422 z m 98.85938,70.64844 v 65.0293 l 49.42968,35.32422 v -65.0293 z M 303.17773,351.72852 v 65.02734 l 49.42969,35.32422 v -65.02735 z m 148.28907,100.35156 -49.42969,35.32422 49.42969,35.32422 z"
           id="path872" />
        <path
           style="color:#000000;font-style:normal;font-variant:normal;font-weight:normal;font-stretch:normal;font-size:medium;line-height:normal;font-family:sans-serif;font-variant-ligatures:normal;font-variant-position:normal;font-variant-caps:normal;font-variant-numeric:normal;font-variant-alternates:normal;font-variant-east-asian:normal;font-feature-settings:normal;font-variation-settings:normal;text-indent:0;text-align:start;text-decoration:none;text-decoration-line:none;text-decoration-style:solid;text-decoration-color:#000000;letter-spacing:normal;word-spacing:normal;text-transform:none;writing-mode:lr-tb;direction:ltr;text-orientation:mixed;dominant-baseline:auto;baseline-shift:baseline;text-anchor:start;white-space:normal;shape-padding:0;shape-margin:0;inline-size:0;clip-rule:nonzero;display:inline;overflow:visible;visibility:visible;isolation:auto;mix-blend-mode:normal;color-interpolation:sRGB;color-interpolation-filters:linearRGB;solid-color:#000000;solid-opacity:1;vector-effect:none;fill:#000000;fill-opacity:1;fill-rule:nonzero;stroke:none;stroke-linecap:round;stroke-linejoin:round;stroke-miterlimit:4;stroke-dasharray:none;stroke-dashoffset:0;stroke-opacity:1;color-rendering:auto;image-rendering:auto;shape-rendering:auto;text-rendering:auto;enable-background:accumulate;stop-color:#000000;stop-opacity:1"
           d="m 485.26758,148.41992 a 2.50025,2.50025 0 0 0 -2.45508,2.5 v 70.64844 a 2.50025,2.50025 0 0 0 3.95312,2.0332 l 49.42969,-35.32422 a 2.50025,2.50025 0 0 0 0,-4.0664 l -49.42969,-35.32422 a 2.50025,2.50025 0 0 0 -1.49804,-0.4668 z m 2.54492,7.35742 42.63086,30.4668 -42.63086,30.4668 z m 96.31445,63.29102 a 2.50025,2.50025 0 0 0 -2.45507,2.5 v 65.0293 a 2.50025,2.50025 0 0 0 1.04687,2.0332 l 49.42969,35.32422 a 2.50025,2.50025 0 0 0 3.95312,-2.0332 v -65.0293 a 2.50025,2.50025 0 0 0 -1.04687,-2.0332 L 585.625,219.53516 a 2.50025,2.50025 0 0 0 -1.49805,-0.4668 z m 2.54493,7.35937 44.42968,31.75196 V 317.0625 L 586.67188,285.31055 Z M 303.13281,349.22852 a 2.50025,2.50025 0 0 0 -2.45508,2.5 v 65.02734 a 2.50025,2.50025 0 0 0 1.04688,2.0332 l 49.42969,35.32422 a 2.50025,2.50025 0 0 0 3.95312,-2.0332 v -65.02735 a 2.50025,2.50025 0 0 0 -1.04687,-2.0332 l -49.42969,-35.32422 a 2.50025,2.50025 0 0 0 -1.49805,-0.46679 z m 2.54492,7.35937 44.42969,31.75195 v 58.88086 l -44.42969,-31.75195 z m 145.72657,92.99414 a 2.50025,2.50025 0 0 0 -1.39063,0.46485 l -49.42969,35.32421 a 2.50025,2.50025 0 0 0 0,4.06641 l 49.42969,35.32422 a 2.50025,2.50025 0 0 0 3.95313,-2.0332 v -70.64844 a 2.50025,2.50025 0 0 0 -2.5625,-2.49805 z m -2.4375,7.35547 v 60.93359 L 406.33594,487.4043 Z"
           id="path874" />
      </g>
      <g
         id="path843"
         style="opacity:1">
        <path
           style="color:#000000;font-style:normal;font-variant:normal;font-weight:normal;font-stretch:normal;font-size:medium;line-height:normal;font-family:sans-serif;font-variant-ligatures:normal;font-variant-position:normal;font-variant-caps:normal;font-variant-numeric:normal;font-variant-alternates:normal;font-variant-east-asian:normal;font-feature-settings:normal;font-variation-settings:normal;text-indent:0;text-align:start;text-decoration:none;text-decoration-line:none;text-decoration-style:solid;text-decoration-color:#000000;letter-spacing:normal;word-spacing:normal;text-transform:none;writing-mode:lr-tb;direction:ltr;text-orientation:mixed;dominant-baseline:auto;baseline-shift:baseline;text-anchor:start;white-space:normal;shape-padding:0;shape-margin:0;inline-size:0;clip-rule:nonzero;display:inline;overflow:visible;visibility:visible;isolation:auto;mix-blend-mode:normal;color-interpolation:sRGB;color-interpolation-filters:linearRGB;solid-color:#000000;solid-opacity:1;vector-effect:none;fill:#ffe063;fill-opacity:1;fill-rule:nonzero;stroke:none;stroke-width:1.32292;stroke-linecap:butt;stroke-linejoin:miter;stroke-miterlimit:4;stroke-dasharray:none;stroke-dashoffset:0;stroke-opacity:1;color-rendering:auto;image-rendering:auto;shape-rendering:auto;text-rendering:auto;enable-background:accumulate;stop-color:#000000;stop-opacity:1"
           d="M 93.294115,119.61309 154.56195,75.82873 v -17.2054 l -61.26783,43.78436 z"
           id="path878" />
        <path
           style="color:#000000;font-style:normal;font-variant:normal;font-weight:normal;font-stretch:normal;font-size:medium;line-height:normal;font-family:sans-serif;font-variant-ligatures:normal;font-variant-position:normal;font-variant-caps:normal;font-variant-numeric:normal;font-variant-alternates:normal;font-variant-east-asian:normal;font-feature-settings:normal;font-variation-settings:normal;text-indent:0;text-align:start;text-decoration:none;text-decoration-line:none;text-decoration-style:solid;text-decoration-color:#000000;letter-spacing:normal;word-spacing:normal;text-transform:none;writing-mode:lr-tb;direction:ltr;text-orientation:mixed;dominant-baseline:auto;baseline-shift:baseline;text-anchor:start;white-space:normal;shape-padding:0;shape-margin:0;inline-size:0;clip-rule:nonzero;display:inline;overflow:visible;visibility:visible;isolation:auto;mix-blend-mode:normal;color-interpolation:sRGB;color-interpolation-filters:linearRGB;solid-color:#000000;solid-opacity:1;vector-effect:none;fill:#000000;fill-opacity:1;fill-rule:nonzero;stroke:none;stroke-linecap:butt;stroke-linejoin:miter;stroke-miterlimit:4;stroke-dasharray:none;stroke-dashoffset:0;stroke-opacity:1;color-rendering:auto;image-rendering:auto;shape-rendering:auto;text-rendering:auto;enable-background:accumulate;stop-color:#000000;stop-opacity:1"
           d="M 155.22266,57.337891 92.632812,102.06836 v 18.83008 l 1.044922,-0.74805 61.544926,-43.980468 z m -1.32227,2.572265 V 75.488281 L 93.955078,118.32812 v -15.58007 z"
           id="path880" />
      </g>
    </g>
  </g>
</svg>
