<?xml version="1.0" encoding="UTF-8" standalone="no"?>
<svg
   xmlns:dc="http://purl.org/dc/elements/1.1/"
   xmlns:cc="http://creativecommons.org/ns#"
   xmlns:rdf="http://www.w3.org/1999/02/22-rdf-syntax-ns#"
   xmlns:svg="http://www.w3.org/2000/svg"
   xmlns="http://www.w3.org/2000/svg"
   xmlns:xlink="http://www.w3.org/1999/xlink"
   xmlns:sodipodi="http://sodipodi.sourceforge.net/DTD/sodipodi-0.dtd"
   xmlns:inkscape="http://www.inkscape.org/namespaces/inkscape"
   width="793.70081"
   height="1122.5197"
   viewBox="0 0 210 297"
   version="1.1"
   id="svg8"
   inkscape:version="1.0.2 (e86c870879, 2021-01-15, custom)"
   sodipodi:docname="Banner.svg">
  <defs
     id="defs2">
    <linearGradient
       inkscape:collect="always"
       id="linearGradient2304">
      <stop
         style="stop-color:#f3d07d;stop-opacity:1;"
         offset="0"
         id="stop2300" />
      <stop
         style="stop-color:#ebb32d;stop-opacity:1"
         offset="1"
         id="stop2302" />
    </linearGradient>
    <linearGradient
       inkscape:collect="always"
       id="linearGradient864">
      <stop
         style="stop-color:#9ae2ff;stop-opacity:1"
         offset="0"
         id="stop860" />
      <stop
         style="stop-color:#02b5ff;stop-opacity:1"
         offset="0.49878201"
         id="stop870" />
      <stop
         style="stop-color:#98e1ff;stop-opacity:1"
         offset="0.83130336"
         id="stop868" />
      <stop
         style="stop-color:#10baff;stop-opacity:1"
         offset="1"
         id="stop862" />
    </linearGradient>
    <linearGradient
       inkscape:collect="always"
       xlink:href="#linearGradient864"
       id="linearGradient866"
       x1="351.16406"
       y1="955.40625"
       x2="351.16406"
       y2="252.40625"
       gradientUnits="userSpaceOnUse"
       gradientTransform="matrix(0.13208786,0,0,0.13208786,44.783213,75.708743)" />
    <radialGradient
       inkscape:collect="always"
       xlink:href="#linearGradient2304"
       id="radialGradient2308"
       cx="349.73047"
       cy="418.58008"
       fx="349.73047"
       fy="418.58008"
       r="231.89258"
       gradientTransform="matrix(0.26458333,0,0,1.5054381,0,-520.32313)"
       gradientUnits="userSpaceOnUse" />
  </defs>
  <sodipodi:namedview
     id="base"
     pagecolor="#ffffff"
     bordercolor="#666666"
     borderopacity="1.0"
     inkscape:pageopacity="0.0"
     inkscape:pageshadow="2"
     inkscape:zoom="1"
     inkscape:cx="324"
     inkscape:cy="514.24284"
     inkscape:document-units="mm"
     inkscape:current-layer="layer1"
     inkscape:document-rotation="0"
     showgrid="false"
     units="px"
     showborder="false"
     inkscape:object-nodes="false"
     inkscape:window-width="1920"
     inkscape:window-height="1017"
     inkscape:window-x="-8"
     inkscape:window-y="-8"
     inkscape:window-maximized="1" />
  <metadata
     id="metadata5">
    <rdf:RDF>
      <cc:Work
         rdf:about="">
        <dc:format>image/svg+xml</dc:format>
        <dc:type
           rdf:resource="http://purl.org/dc/dcmitype/StillImage" />
        <dc:title></dc:title>
      </cc:Work>
    </rdf:RDF>
  </metadata>
  <g
     inkscape:label="Layer 1"
     inkscape:groupmode="layer"
     id="layer1">
    <g
       id="g2329">
      <path
         id="path842"
         style="color:#000000;font-style:normal;font-variant:normal;font-weight:normal;font-stretch:normal;font-size:medium;line-height:normal;font-family:sans-serif;font-variant-ligatures:normal;font-variant-position:normal;font-variant-caps:normal;font-variant-numeric:normal;font-variant-alternates:normal;font-variant-east-asian:normal;font-feature-settings:normal;font-variation-settings:normal;text-indent:0;text-align:start;text-decoration:none;text-decoration-line:none;text-decoration-style:solid;text-decoration-color:#000000;letter-spacing:normal;word-spacing:normal;text-transform:none;writing-mode:lr-tb;direction:ltr;text-orientation:mixed;dominant-baseline:auto;baseline-shift:baseline;text-anchor:start;white-space:normal;shape-padding:0;shape-margin:0;inline-size:0;clip-rule:nonzero;display:inline;overflow:visible;visibility:visible;opacity:1;isolation:auto;mix-blend-mode:normal;color-interpolation:sRGB;color-interpolation-filters:linearRGB;solid-color:#000000;solid-opacity:1;vector-effect:none;fill:url(#linearGradient866);fill-opacity:1;fill-rule:nonzero;stroke:none;stroke-width:10.5833;stroke-linecap:square;stroke-linejoin:miter;stroke-miterlimit:4;stroke-dasharray:none;stroke-dashoffset:0;stroke-opacity:1;color-rendering:auto;image-rendering:auto;shape-rendering:auto;text-rendering:auto;enable-background:accumulate;stop-color:#000000"
         d="m 44.761026,108.46653 v 67.83718 l 44.6684,25.78835 44.666854,-25.78835 v -2.00531 -65.83187 z"
         sodipodi:nodetypes="ccccccc" />
      <path
         id="path835"
         style="color:#000000;font-style:normal;font-variant:normal;font-weight:normal;font-stretch:normal;font-size:medium;line-height:normal;font-family:sans-serif;font-variant-ligatures:normal;font-variant-position:normal;font-variant-caps:normal;font-variant-numeric:normal;font-variant-alternates:normal;font-variant-east-asian:normal;font-feature-settings:normal;font-variation-settings:normal;text-indent:0;text-align:start;text-decoration:none;text-decoration-line:none;text-decoration-style:solid;text-decoration-color:#000000;letter-spacing:normal;word-spacing:normal;text-transform:none;writing-mode:lr-tb;direction:ltr;text-orientation:mixed;dominant-baseline:auto;baseline-shift:baseline;text-anchor:start;white-space:normal;shape-padding:0;shape-margin:0;inline-size:0;clip-rule:nonzero;display:inline;overflow:visible;visibility:visible;opacity:1;isolation:auto;mix-blend-mode:normal;color-interpolation:sRGB;color-interpolation-filters:linearRGB;solid-color:#000000;solid-opacity:1;vector-effect:none;fill:#ffffff;fill-opacity:1;fill-rule:nonzero;stroke:none;stroke-width:3.77953;stroke-linecap:square;stroke-linejoin:miter;stroke-miterlimit:4;stroke-dasharray:none;stroke-dashoffset:0;stroke-opacity:1;color-rendering:auto;image-rendering:auto;shape-rendering:auto;text-rendering:auto;enable-background:accumulate;stop-color:#000000;stop-opacity:1"
         d="M 177.58789 409.95312 L 177.58789 661.48633 L 338 754.10156 L 498.4082 661.48633 L 498.4082 658.76367 L 498.4082 409.95312 L 488.97461 409.95312 L 488.97461 656.04492 L 338 743.20703 L 187.02148 656.04102 L 187.02148 409.95312 L 177.58789 409.95312 z M 200.54297 507.19531 L 200.54297 616.0625 L 228.0332 616.0625 C 238.02554 616.0625 246.06922 615.38044 252.16211 614.01562 C 258.30374 612.65082 263.86023 610.43214 268.83203 607.36133 C 275.99727 602.9257 281.72428 596.68714 286.01367 588.64453 C 290.35181 580.60192 292.52148 571.63313 292.52148 561.73828 C 292.52148 551.16102 290.4498 542.02173 286.30664 534.32031 C 282.16347 526.61892 276.38747 520.45287 268.97852 515.82227 C 264.64038 513.1414 259.32692 511.04619 253.03906 509.53516 C 246.79994 507.97537 238.36623 507.19531 227.74023 507.19531 L 200.54297 507.19531 z M 215.01953 519.625 L 228.61914 519.625 C 235.34569 519.625 241.1217 520.11107 245.94727 521.08594 C 250.77283 522.01207 255.32975 523.69372 259.61914 526.13086 C 265.51706 529.49413 269.95245 534.10005 272.92578 539.94922 C 275.89911 545.79839 277.38672 552.98949 277.38672 561.51953 C 277.38672 570.00084 276.02063 577.06846 273.29102 582.72266 C 270.61015 588.37685 266.56478 592.93377 261.1543 596.39453 C 256.81616 599.17289 252.03973 601.07403 246.82422 602.09766 C 241.65745 603.12125 235.58941 603.63281 228.61914 603.63281 L 215.01953 603.63281 L 215.01953 519.625 z M 342.75 532.41992 C 337.82695 532.41992 332.831 532.85702 327.76172 533.73438 C 322.69244 534.61174 318.81759 535.41728 316.13672 536.14844 L 316.13672 550.11328 L 316.86719 550.11328 C 321.59527 548.30977 326.17766 546.94369 330.61328 546.01758 C 335.0489 545.04271 339.07074 544.55664 342.67773 544.55664 C 345.65106 544.55664 348.50281 544.75069 351.23242 545.14062 C 353.96204 545.53057 356.30028 546.28712 358.25 547.4082 C 360.29721 548.57804 361.85734 550.1852 362.92969 552.23242 C 364.05078 554.27964 364.61133 556.86288 364.61133 559.98242 L 364.61133 562.10352 C 356.61746 562.49346 349.13628 563.07948 342.16602 563.85938 C 335.19575 564.63926 329.22375 566.12492 324.25195 568.31836 C 319.3289 570.5118 315.52657 573.53406 312.8457 577.38477 C 310.21357 581.18674 308.89844 586.18268 308.89844 592.37305 C 308.89844 599.92825 311.45814 606.14327 316.57617 611.01758 C 321.6942 615.89188 327.93276 618.32813 335.29297 618.32812 C 339.2899 618.32812 342.77472 617.9381 345.74805 617.1582 C 348.72138 616.42707 351.35361 615.50197 353.64453 614.38086 C 355.59426 613.50351 357.59343 612.33339 359.64062 610.87109 C 361.73658 609.36004 363.39275 608.18995 364.61133 607.36133 L 364.61133 616.0625 L 378.28516 616.0625 L 378.28516 560.64062 C 378.28516 555.37636 377.47963 550.96645 375.87109 547.4082 C 374.26257 543.84998 371.92238 540.94922 368.85156 538.70703 C 365.732 536.41611 362.02768 534.80699 357.73828 533.88086 C 353.49763 532.90602 348.50169 532.41992 342.75 532.41992 z M 395.9043 534.39258 L 427.49023 575.33789 L 395.61328 616.0625 L 411.625 616.0625 L 434.94727 584.69531 L 458.125 616.0625 L 475.45312 616.0625 L 443.35547 574.60547 L 475.45312 534.39258 L 459.36914 534.39258 L 436.26367 565.24805 L 413.23242 534.39258 L 395.9043 534.39258 z M 364.61133 573.2168 L 364.61133 595.95508 C 361.19931 598.58722 357.49498 600.85488 353.49805 602.75586 C 349.50111 604.60811 345.08924 605.5332 340.26367 605.5332 C 334.46324 605.5332 330.15132 604.36312 327.32422 602.02344 C 324.49712 599.63503 323.08203 596.1012 323.08203 591.42188 C 323.08203 587.27871 324.30112 584.0389 326.73828 581.69922 C 329.17544 579.31081 332.36822 577.55468 336.31641 576.43359 C 339.63094 575.50748 344.11533 574.80189 349.76953 574.31445 C 355.47248 573.82694 360.41942 573.46045 364.61133 573.2168 z "
         transform="scale(0.26458333)" />
      <path
         id="path877"
         style="opacity:1;fill:url(#radialGradient2308);fill-opacity:1;stroke:none;stroke-width:4.99998;stroke-linecap:square;stroke-linejoin:miter;stroke-miterlimit:4;stroke-dasharray:none"
         d="m 31.177941,106.61468 a 61.354808,11.511948 0 0 0 10.418485,6.41718 H 143.46979 a 61.354808,11.511948 0 0 0 10.41797,-6.41718 z" />
    </g>
  </g>
</svg>
