<?xml version="1.0" encoding="UTF-8" standalone="no"?>
<svg
   xmlns:dc="http://purl.org/dc/elements/1.1/"
   xmlns:cc="http://creativecommons.org/ns#"
   xmlns:rdf="http://www.w3.org/1999/02/22-rdf-syntax-ns#"
   xmlns:svg="http://www.w3.org/2000/svg"
   xmlns="http://www.w3.org/2000/svg"
   xmlns:xlink="http://www.w3.org/1999/xlink"
   xmlns:sodipodi="http://sodipodi.sourceforge.net/DTD/sodipodi-0.dtd"
   xmlns:inkscape="http://www.inkscape.org/namespaces/inkscape"
   inkscape:export-ydpi="96"
   inkscape:export-xdpi="96"
   inkscape:export-filename="/home/rajesh/snap/inkscape/7627/Cool-Lines.png"
   sodipodi:docname="Cool-Lines.svg"
   inkscape:version="1.0 (6e3e5246a0, 2020-05-07)"
   id="svg8"
   version="1.1"
   viewBox="0 0 210 297"
   height="297mm"
   width="210mm">
  <defs
     id="defs2">
    <linearGradient
       id="linearGradient902"
       inkscape:collect="always">
      <stop
         id="stop898"
         offset="0"
         style="stop-color:#00ff00;stop-opacity:1" />
      <stop
         style="stop-color:#00ffff;stop-opacity:1"
         offset="0.5489862"
         id="stop910" />
      <stop
         id="stop900"
         offset="1"
         style="stop-color:#0000ff;stop-opacity:1" />
    </linearGradient>
    <inkscape:path-effect
       scale_y_rel="false"
       prop_scale="1"
       strokepath="M 0,0 H 0.26458333"
       endpoint_spacing_variation="0;1"
       endpoint_edge_variation="0;1"
       startpoint_spacing_variation="0;1"
       startpoint_edge_variation="0;1"
       count="30"
       lpeversion="1"
       is_visible="true"
       id="path-effect844"
       effect="curvestitching" />
    <linearGradient
       gradientUnits="userSpaceOnUse"
       y2="107.51999"
       x2="136.63069"
       y1="153.00909"
       x1="41.45393"
       id="linearGradient908"
       xlink:href="#linearGradient902"
       inkscape:collect="always" />
  </defs>
  <sodipodi:namedview
     inkscape:window-maximized="1"
     inkscape:window-y="27"
     inkscape:window-x="74"
     inkscape:window-height="1016"
     inkscape:window-width="1846"
     showborder="false"
     showgrid="false"
     inkscape:document-rotation="0"
     inkscape:current-layer="layer1"
     inkscape:document-units="mm"
     inkscape:cy="560"
     inkscape:cx="344"
     inkscape:zoom="1"
     inkscape:pageshadow="2"
     inkscape:pageopacity="0.0"
     borderopacity="1.0"
     bordercolor="#666666"
     pagecolor="#ffffff"
     id="base" />
  <metadata
     id="metadata5">
    <rdf:RDF>
      <cc:Work
         rdf:about="">
        <dc:format>image/svg+xml</dc:format>
        <dc:type
           rdf:resource="http://purl.org/dc/dcmitype/StillImage" />
        <dc:title></dc:title>
      </cc:Work>
    </rdf:RDF>
  </metadata>
  <g
     id="layer1"
     inkscape:groupmode="layer"
     inkscape:label="Layer 1">
    <path
       id="path896"
       d="m 147.43892,93.588413 -32.40625,8.039067 26.25977,-6.835942 -0.0664,-0.255859 -48.517573,12.628911 -16.009766,3.9707 -9.908203,-8.98047 -0.177734,0.19727 9.77539,8.86132 -5.724609,1.41993 -12.023438,-8.92774 -0.158203,0.21289 11.847657,8.79688 -5.4375,1.34961 -14.388672,-8.73828 -0.136719,0.22656 14.164063,8.60156 -5.101563,1.26563 -17.048828,-8.41407 -0.117188,0.23828 16.767579,8.27344 -4.722657,1.17188 -20.039062,-7.93555 -0.09766,0.24609 19.695313,7.79883 -4.28125,1.0625 -23.408203,-7.28515 -0.08008,0.25195 22.992187,7.15625 -3.773437,0.93555 -27.21289,-6.4375 -0.06055,0.25781 26.71289,6.31836 -3.177735,0.78906 -31.523437,-5.35742 -0.04297,0.26172 30.923828,5.2539 -2.490234,0.61914 -36.4023435,-3.99218 -0.029297,0.26367 35.6874995,3.91211 -1.697265,0.42187 -41.9238276,-2.27539 -0.01563,0.26367 41.0644526,2.22852 -0.115235,0.0293 -0.875,0.19726 -47.929687,-0.10937 -0.002,0.26562 46.771484,0.10547 -0.740234,0.16797 -53.712891,2.58594 0.01172,0.26562 52.207031,-2.51367 -8.83789,1.99805 -49.802735,5.23632 0.0293,0.26173 47.582032,-5.00196 -9.332032,2.10938 -8.0761715,1.56835 -23.5468755,3.69727 0.04102,0.25977 16.3183594,-2.5625 -8.1093754,1.57422 0.04883,0.25976 14.9199225,-2.89648 -6.7597651,1.52929 0.05664,0.25782 10.8359381,-2.45118 3.9863275,-0.625 -6.6777345,1.65625 0.064453,0.25586 9.5996095,-2.38086 6.804688,-1.06836 -8.248048,2.14649 0.06836,0.25586 10.828125,-2.81836 10.265625,-1.61133 -12.904297,3.45313 0.06836,0.25585 15.314454,-4.0996 7.769531,-1.21875 3.796875,-0.4004 1.6875,0.0918 -20.357422,5.44336 0.06836,0.25391 21.136719,-5.65039 2.353516,0.12695 8.394531,0.91992 1.613281,0.27539 -26.015625,6.94532 0.06836,0.25586 26.574219,-7.09571 6.34961,1.08008 5.763671,1.36328 -39.898437,12.09961 0.07617,0.25391 40.333984,-12.23243 2.234375,0.52735 4.416016,1.375 -52.244141,16.5293 0.08008,0.25195 52.605468,-16.64453 3.298828,1.02734 1.707032,0.67578 -63.628907,20.4668 0.08008,0.25195 63.935546,-20.5664 4.142578,1.64062 -74.427734,24.09571 0.08203,0.25 74.730469,-24.19336 1.123047,0.44531 2.431641,1.19922 -84.804688,27.51172 0.08203,0.25195 85.0625,-27.5957 3.248047,1.60351 -94.9609371,30.79102 0.082031,0.25195 95.2187501,-30.875 0.884768,0.43555 1.96093,1.1914 -104.8183542,33.91407 0.08203,0.25195 105.0351542,-33.98438 2.63086,1.59766 -114.4960922,36.95117 0.08203,0.25196 114.7128922,-37.02149 1.44336,0.875 1.0039,0.7461 -124.037105,39.89648 0.08008,0.25195 124.216795,-39.95508 4.70118,3.49219 44.15234,40.02344 0.17773,-0.19727 -42.14453,-38.20507 43.50195,32.30078 0.15821,-0.21289 -45.67383,-33.91407 -1.66992,-1.51367 48.58398,29.50391 0.13672,-0.22656 -49.75586,-30.21485 -1.24805,-1.13281 0.39063,-0.125 51.75195,25.53711 0.11719,-0.23828 -51.50586,-25.41602 1.87305,-0.60156 50.67968,20.06641 0.0957,-0.2461 -50.37891,-19.94922 3.14258,-1.00976 48.17187,14.99023 0.0781,-0.25195 -47.8125,-14.87891 4.66211,-1.5 43.94531,10.39453 0.0606,-0.25781 -43.51758,-10.29492 6.52539,-2.09766 37.62109,6.39258 0.043,-0.25976 -37.12109,-6.3086 8.86914,-2.85156 28.68555,3.14453 0.0273,-0.26172 -28.09961,-3.08008 11.92969,-3.83789 16.3789,0.88867 0.0156,-0.26367 -15.69141,-0.85156 40.91993,-13.16211 -0.0801,-0.25 -25.23633,8.11719 0.002,-0.1543 -7.13867,-0.0156 26.20313,-8.45703 -0.082,-0.25 -26.97265,8.70508 -7.65039,-0.0176 28.45508,-9.20703 -0.082,-0.25195 -29.22656,9.45703 -7.9082,-0.0176 17.39258,-5.64062 6.49414,-0.3125 -0.0117,-0.26367 -5.52539,0.26562 12.62695,-4.09375 -0.0801,-0.25195 -13.55273,4.39453 -9.65234,0.46484 17.05664,-5.5332 -0.082,-0.25195 -17.98242,5.83398 -10.01172,0.48242 20.63672,-6.68164 5.48047,-0.57617 -0.0273,-0.26367 -4.23438,0.44531 0.006,-0.002 -0.082,-0.25196 -1.19726,0.38868 -13.08399,1.375 8.16602,-2.62696 -0.082,-0.25195 -9.36915,3.01367 -14.125,1.48438 17.4043,-5.50586 -0.0781,-0.25196 -18.63672,5.89649 -16.66601,1.75195 22.68359,-6.8789 27.32617,-4.29102 -0.041,-0.26172 -25.45312,3.99609 4.74218,-1.4375 -0.0762,-0.2539 -6.56054,1.99023 -31.72852,4.98242 32.36914,-8.64257 -0.0684,-0.25586 -34.79297,9.28906 -18.367185,2.88477 -2.228516,-2.01954 3.240235,-0.86718 75.591796,-14.671879 -0.0508,-0.259766 -71.863282,13.947265 43.710942,-11.68555 -0.0684,-0.25585 -47.371098,12.66601 -3.65039,0.70899 -1.5,-1.35938 5.873047,-1.57227 69.830081,-15.791012 -0.0586,-0.257812 -63.248044,14.302734 45.015624,-12.048828 -0.0137,-0.05273 12.14648,-3.013672 z m -23.14062,6.013672 -40.546874,10.851565 -6.246094,1.41406 -0.404297,-0.36719 15.630859,-4.06836 z m 8.60546,8.771485 -22.18554,6.72852 -26.564451,2.79296 -0.05273,-0.0469 16.474611,-4.39844 z m 24.46289,2.0918 -20.37304,6.59375 -10.52149,0.50781 17.79883,-5.72656 z m -80.574209,1.11523 0.396485,0.35742 -5.71875,1.29297 -0.265625,-0.19531 z m 66.193359,0.39649 -17.53125,5.63867 -11.49414,0.55273 14.87109,-4.70312 z m -65.757812,0.22265 -5.253906,1.40625 -0.224609,-0.16601 z m 0.425781,0.16211 1.478516,1.33985 -5.572266,1.08203 -1.314453,-0.97461 z m -7.228515,0.60352 -5.140625,1.33789 -0.07422,-0.0449 z m 0.451172,0.15625 0.251953,0.1875 -5.451172,1.23242 -0.07813,-0.0469 z m 0.53125,0.39453 0.240234,0.17773 -5.111328,1.36914 -0.533203,-0.32422 z m 56.113274,0.0859 -14.59179,4.61718 -13.757813,0.66211 11.601563,-3.51758 z m -29.439446,0.24023 -14.212891,3.79492 -1.470703,-1.33398 z m -26.16211,0.0527 1.28711,0.95704 -5.31836,1.03125 -1.039062,-0.63086 z m 7.458985,0.0293 0.002,0.002 -5.126953,1.3711 -0.40625,-0.30078 z m 0.236328,0.21289 2.195312,1.99219 -5.314453,0.83398 -1.972656,-1.46484 z m -14.765625,0.21094 0.07813,0.0469 -4.957031,1.29102 -0.173829,-0.0859 z m 0.394531,0.23828 0.0625,0.0391 -1.613281,0.36524 z m 0.388672,0.23633 0.548828,0.33398 -4.722656,1.26368 -0.908203,-0.44727 z m 7.863281,0.24219 0.429688,0.32031 -4.761719,1.27344 -0.9375,-0.57032 z m -7,0.2832 1.007813,0.61133 -5.009766,0.97265 -0.673828,-0.33398 z m 42.878904,0.16211 -11.28906,3.42383 -12.140625,0.58398 -1.527344,-1.38476 z m -35.177732,0.0762 1.931641,1.43555 -5.058594,0.79297 -1.59375,-0.9668 z m -14.798828,0.11328 0.179687,0.0879 -3.890624,1.01367 -0.697266,0.15821 -0.257813,-0.10156 z m 0.740234,0.36524 0.931641,0.46093 -4.28125,1.14649 -1.345703,-0.5332 0.322265,-0.0859 z m 7.701172,0.0977 0.970703,0.58985 -4.332031,1.1582 -1.59375,-0.78516 z m 89.878904,0.16407 -17.23828,5.58984 -8.15235,-0.0195 15.73828,-5.10547 z m -75.656247,0.0293 1.501953,1.36133 -1.482422,0.39648 -3.53711,0.3711 -1.751953,-1.30078 z m -20.63086,0.34766 0.63086,0.31055 -4.650391,0.90429 -0.210938,-0.084 z m 85.626947,0.13672 -15.58398,5.05468 -8.49805,-0.0195 14.06641,-4.55273 z m -77.935541,0.10156 1.541016,0.9375 -4.740234,0.74414 -1.085938,-0.53516 z m -14.832031,0.0254 0.240235,0.0957 -4.351563,0.98438 -0.107422,-0.0352 z m 8.164063,0.24023 1.634765,0.8086 -3.839843,1.02539 -2.38086,-0.94336 z m 13.970703,0.0352 1.730469,1.2832 -5.042969,0.53125 -1.69336,-1.02929 z m -21.417969,0.008 1.351562,0.53516 -3.771484,1.00977 -1.599609,-0.49805 z m 81.025385,0.1211 -13.9082,4.50195 -8.98047,-0.0195 12.35937,-3.97656 z m -11.54492,0.55468 -12.20117,3.92579 -9.89453,-0.0234 10.58203,-3.34766 z m -40.691403,0.004 0.0039,0.002 -0.02539,0.004 z m -27.023437,0.0195 0.15625,0.0625 -1.408203,0.27344 z m 14.240234,0.14258 1.664063,1.00977 -4.769531,0.50195 -1.574219,-0.77734 z m -21.435547,0.043 0.08594,0.0273 -2.220703,0.50196 z m 34.484376,0.0352 1.505859,1.36523 -5.265625,0.25391 -0.917969,-0.68164 2.748047,-0.73438 z m -26.675782,0.0215 2.435547,0.96484 -3.267578,0.87305 -3.318359,-1.03125 z m 7.0625,0 1.019532,0.50391 -4.363282,0.68554 -0.443359,-0.17578 z m -13.945312,0.23242 1.605468,0.5 -0.314453,0.084 -3.353515,0.65039 -1.40625,-0.33203 z m 61.437501,0.10742 -10.41797,3.29493 -11.974609,-0.0273 8.585937,-2.60351 z m -31.501954,0.0195 -1.326172,0.35547 -0.253907,-0.18945 z m -1.970703,0.20704 0.316406,0.23437 -3.972656,1.06055 -0.05274,0.004 -1.273437,-0.77343 z m -30.708985,0.10546 -1.275391,0.33204 -0.09375,-0.0215 z m 18.119141,0.0352 1.535156,0.75586 -4.435547,0.4668 -1.390625,-0.55078 z m -13.189453,0.20508 3.386718,1.05469 -0.107421,0.0293 -3.183594,0.49805 -3.310547,-0.7832 2.384765,-0.63867 z m 26.367187,0.0918 0.828125,0.61328 -3.818359,0.18359 z m 17.992188,0.0527 -8.40625,2.54883 h -0.183594 l -2.236328,-2.02735 z m -51.246094,0.0586 0.134766,0.0312 -2.904297,0.75586 -0.408203,-0.0684 z m 14.429687,0.0117 0.357422,0.14258 -2.15039,0.33789 z m 12.81836,0.01 1.236328,0.75 -4.933594,0.23828 -1.001953,-0.49414 z m -26.5625,0.14062 1.320312,0.3125 -3.089843,0.59961 -1.050782,-0.17773 z m 14.585937,0.1836 1.335938,0.52929 -4.013672,0.42188 -1.132813,-0.35352 z m 24.773438,0.13476 2.214844,2.00977 -5.072266,-0.0117 -2.351563,-1.74609 z m -17.990235,0.0859 0.949219,0.46875 -4.699219,0.22656 -0.599609,-0.23633 z m -19.724609,0.11523 -2.224609,0.59571 -0.449219,-0.0781 z m 0.800781,0.0586 3.160157,0.74805 -2.566407,0.40234 -2.992187,-0.50781 z m 31.28711,0.0117 2.322265,1.72461 -4.957031,-0.0117 -2.421875,-1.47071 z m -38.273438,0.11914 0.460938,0.0801 -2.167969,0.5625 -0.763672,-0.082 z m 14.724609,0.16601 1.060547,0.33008 -3.464843,0.36328 -0.244141,-0.0586 1.996094,-0.5332 z m 18.060547,0.006 2.341797,1.42188 -4.794922,-0.0117 -0.99414,-0.49024 z m -31.6875,0.0156 0.9375,0.1582 -2.330078,0.45313 -0.671875,-0.0742 z m 30.556641,0.0117 -2.675781,0.71484 -1.082031,-0.5332 z m -10.662109,0.0137 0.527343,0.20898 -4.40039,0.21289 -0.03125,-0.0117 z m 6.357421,0.19336 1.238282,0.61133 -2.082032,0.55664 -1.367187,-0.004 -2.380859,-0.94336 z m -24.576171,0.0664 0.574218,0.0977 -1.664062,0.44531 -1.091797,-0.11914 z m 8.828125,0.1836 -0.06641,0.0176 -0.01758,-0.004 z m 10.515625,0.002 2.298828,0.91016 -4.324219,-0.01 -2.234375,-0.69531 z m -18.142579,0.0176 2.708985,0.46094 -2.707031,0.13086 -1.566407,-0.17188 z m -7.240234,0.0625 0.839844,0.0918 -1.310547,0.34179 -1.164063,-0.0625 z m 14.091797,0.0391 0.169922,0.041 -0.505859,0.13476 -1.126954,0.0547 z m 6.261719,0.12305 2.109375,0.65625 -3.964844,-0.008 -1.960937,-0.46485 z m -18.775391,0.0117 0.515625,0.0566 -1.378906,0.26758 -0.316406,-0.0176 z m 1.404297,0.15429 1.259766,0.13672 -0.69336,0.1875 -1.748047,-0.0957 z m 12.599609,0.0645 1.753907,0.41406 -3.445313,-0.008 -0.796875,-0.13477 0.0957,-0.0254 2.302735,-0.24219 z m 16.632813,0.0645 0.78125,0.38672 -2.207031,-0.006 z m -27.246094,0.0879 0.585938,0.0644 -1.00586,0.0488 z m -7.546875,0.0391 1.265625,0.0684 -0.427734,0.11133 -1.617188,-0.004 z m 13.410156,0.0371 -1.347656,0.14063 0.705078,-0.10938 z m -11.273437,0.0781 0.0918,0.006 -0.316407,0.0605 h -0.03125 z m 1.175781,0.0645 0.115235,0.006 h -0.144532 z m -5.171875,0.25977 1.347656,0.002 -1.6875,0.082 z m 7.560547,0.0156 2.824219,0.008 h 0.02344 l -1.628906,0.25586 -3.628906,0.38282 z m -1.033203,0.002 -3.064453,0.82227 -6.599609,0.69336 2.716796,-0.70703 3.238282,-0.62891 z m 10.001953,0.0195 1.777344,0.004 1.273437,0.2168 -2.05664,-0.11133 z m 3.378906,0.008 2.996094,0.006 2.121094,0.50195 -3.125,-0.16992 z m 4.158203,0.01 3.691407,0.008 2.486328,0.77343 -3.726563,-0.20312 z m 4.585938,0.01 4.138672,0.01 0.177734,0.0683 -2.185547,0.58399 z m 5.591797,0.0117 3.728515,0.01 2.66211,1.31446 -4.375,-0.23828 -2.449219,-0.96875 z m 4.330078,0.01 4.693359,0.0117 2.613282,1.58594 -4.572266,-0.24805 z m 5.205078,0.0117 4.876953,0.0117 1.425781,1.0586 -2.085937,0.63085 -1.554688,-0.084 z m 5.324219,0.0137 4.427734,0.01 -3.134766,0.94922 z m 5.404297,0.0117 11.941404,0.0273 -7.150389,2.26172 -2.410156,-0.13086 z m 12.810544,0.0293 9.9082,0.0215 -8.54101,2.74805 -8.640625,-0.46875 z m 10.76563,0.0234 8.98632,0.0215 -9.84961,3.1875 -7.79687,-0.42383 z m -23.890627,0.0215 2.27539,2.06055 -4.824219,-0.26172 -0.982421,-0.72852 z m 33.728507,0.002 8.50196,0.0176 -11.11719,3.60743 -7.34961,-0.4004 z m 9.35352,0.0195 8.15234,0.0195 -12.35742,4.00586 -7.02734,-0.38086 z m 9.00391,0.0215 7.90624,0.0176 -13.58593,4.39453 -6.79492,-0.36719 z m 8.76171,0.0195 7.64844,0.0176 -14.78906,4.77148 -6.5625,-0.35546 z m 8.5,0.0195 7.60938,0.0176 -16,5.14649 -6.51367,-0.35352 z m -90.160147,0.0273 2.046874,0.81054 -4.107421,-0.22265 -0.06445,-0.0195 z m -32.863282,0.002 -1.001953,0.25977 -7.703125,1.49609 -0.236328,0.0234 6.753906,-1.67383 z m 23.669922,0.46289 2.289063,0.125 1.822265,0.43164 -2.375,-0.26172 z m 3.78125,0.20508 1.560547,0.0859 -0.566406,0.15039 z m -24.304687,0.10742 -0.216797,0.0332 0.07031,-0.0195 z m 26.71875,0.0234 0.890625,0.0488 2.464843,0.76757 -3.294921,-0.36132 -0.935547,-0.22071 z m 1.966797,0.10742 3.851562,0.20898 2.689453,1.06446 -3.779297,-0.41406 z m -30.519532,0.0605 -0.859375,0.23047 -10.095703,1.58593 4.277344,-1.11328 z m 48.515625,0.0879 0.81836,0.60742 -2.392579,-0.12891 z m -13.3125,0.10547 4.205078,0.22851 2.701172,1.33203 -0.03125,0.01 -4.023437,-0.44141 z m -41.585937,0.1582 -0.347656,0.0918 -0.259766,0.0273 z m 46.464844,0.10742 4.447265,0.24024 0.353516,0.21484 -2.402344,0.72852 z m -11.574219,0.082 0.05664,0.006 0.05469,0.0137 z m 16.582031,0.18946 0.337891,0.0176 -0.205079,0.0625 z m -14.380859,0.0527 2.519531,0.27539 2.015625,0.62695 -2.541016,-0.43164 z m 15.492187,0.008 3.517578,0.18946 2.462891,1.83007 -0.144531,0.0449 -4.207032,-0.46094 -2.304687,-1.40039 z m -54.642578,0.0977 -5.162109,1.34375 -6.457031,1.01367 4.425781,-1.09766 5.662109,-1.0996 z m 58.638672,0.11914 4.751953,0.25781 0.546875,0.4961 -3.003906,0.94921 z m -5.011719,0.0898 2.021485,1.22852 -4.294922,-0.4707 -0.08398,-0.043 z m -10.583984,0.11133 3.388672,0.3711 2.033203,0.80664 -0.236328,0.0723 -2.583985,-0.43945 z m 20.767578,0.0781 1.384765,0.0762 -0.964843,0.30469 z m 2.132812,0.11523 8.648436,0.4707 -5.865233,1.88672 -2.490234,-0.27343 -1.779297,-1.61329 z m -71.515625,0.0723 -1.673827,0.41406 -1.556641,0.30273 3.121093,-0.70703 z m 52.998047,0.21484 2.451172,0.26953 -1.003906,0.30469 z m 27.906254,0.22266 7.80078,0.42382 -6.92969,2.24415 -6.832031,-0.75 z m -11.167973,0.0547 1.623047,1.47071 -4.544921,-0.49805 -0.04688,-0.0352 z m -13.617187,0.0664 0.728516,0.0781 2.669921,1.31835 -3.726562,-0.63281 -0.949219,-0.37695 z m 1.5,0.16406 4.136719,0.45313 1.693359,1.02734 -0.863281,0.27344 -2.154297,-0.36524 z m -6.875,0.01 0.412109,0.0703 0.369141,0.11524 z m 38.69531,0.16797 7.35352,0.40039 -7.95118,2.57812 -6.42577,-0.70312 z m -35.005857,0.16797 0.09961,0.0391 -0.146485,-0.0234 z m -1.318359,0.0664 0.11914,0.0215 -0.02734,0.008 z m 9.261719,0.10938 3.050781,0.33398 -1.644531,0.51953 z m -8.556641,0.0117 1.900391,0.32226 2.078124,0.82227 -2.568359,-0.60742 -1.572265,-0.48829 z m 43.707028,0.084 7.02734,0.38086 -8.94531,2.90039 -6.12695,-0.67187 z m -31.451169,0.30859 0.634766,0.0703 2.548828,1.89257 -4.144531,-0.70507 -1.03125,-0.62696 z m -72.740234,0.004 -2.371093,0.58789 -3.0585944,0.48047 0.4589854,-0.10352 z m 111.955073,0.10938 6.79297,0.36718 -9.92188,3.21094 -5.91015,-0.64844 z m -38.056636,0.0137 4.458985,0.49023 0.697265,0.63281 -2.53125,0.81446 -0.02344,-0.004 z m -10.255859,0.0156 3.367188,0.57227 1.015624,0.50195 -0.6875,0.2168 -1.089843,-0.25781 z m 55.841795,0.37891 6.5625,0.35547 -10.87696,3.50976 -5.70117,-0.625 z m -40.677733,0.14453 1.539063,0.16797 -0.998047,0.32226 z m -8.394531,0.0723 0.660157,0.40039 -1.251954,-0.21289 z m -2.486328,0.13281 0.773438,0.13086 -0.308594,0.0977 z m 13.064453,0.0352 6.835939,0.74805 -4.718751,1.5293 -1.876953,-0.32031 -1.65625,-1.50196 z m 45.791009,0.0117 6.51367,0.35352 -11.83593,3.80664 -5.64844,-0.62109 z m -57.511712,0.18164 2.416016,0.41016 2.271484,1.38086 -0.195312,0.0625 -3.109375,-0.73633 -1.919922,-0.94726 z m -3.730469,0.17969 0.63086,0.15039 0.52539,0.20703 -0.0039,0.002 z m 2.828125,0.10547 1.132813,0.55859 -1.660156,-0.39257 z m 10.914063,0.0703 1.46289,1.32617 -3.654296,-0.62109 z m -6.888672,0.17578 3.585938,0.60938 -1.6875,0.54297 z m 16.074215,0.0937 6.42579,0.70508 -5.57422,1.8086 -5.648441,-0.95899 z m -20.511715,0.12696 2.603516,0.61523 1.859375,0.91797 -0.05664,0.0176 -2.279297,-0.70899 z m 8.507812,0.50976 2.427735,1.80469 -3.804688,-0.90039 -0.496093,-0.30078 z m 0.50586,0.0469 4.140625,0.70312 0.583984,0.5293 -2.121093,0.68555 -0.02734,-0.006 z m 18.566403,0.0918 6.12695,0.67188 -6.40234,2.07617 -5.3789,-0.91406 z m -23.824216,0.24024 1.564453,0.36914 -0.49414,0.1582 z m 9.884766,0.45312 0.96875,0.16602 -0.580078,0.1875 z m -7.822266,0.0332 1.210938,0.28711 2.382812,1.44726 -3.126953,-0.97265 -1.117187,-0.55274 z m 28.529296,0.0156 5.91015,0.64844 -7.21288,2.33203 -5.17774,-0.8789 z m -19.17578,0.21289 5.64844,0.95899 -3.72461,1.20898 -1.050783,-0.24804 -1.791016,-1.625 z m -7.306641,0.25586 3.267578,0.77344 -1.302734,0.42188 z m 6.097657,0.13477 1.546875,1.40234 -3.396485,-0.80468 z m 26.937494,0.11523 5.70117,0.625 -8,2.58204 -4.99218,-0.84766 z m -35.50976,0.0254 0.787109,0.24415 0.683594,0.33789 z m 15.99414,0.52344 5.37695,0.91406 -4.43164,1.4375 -4.73828,-1.12109 z m -9.830077,0.11524 2.324218,1.72461 -3.421875,-1.06446 -0.328125,-0.19922 z m 35.687497,0.0312 5.64843,0.61914 -8.79101,2.82617 -4.93555,-0.83789 z m -35.115232,0.0625 3.789063,0.89648 0.316406,0.28711 -1.748047,0.56836 z m -4.324219,0.0176 1.300782,0.4043 -0.291016,0.0937 z m 1.738282,0.54102 0.804687,0.25 1.988281,1.20703 -2.435546,-0.96289 -0.746094,-0.36914 z m 17.785159,0.24219 5.17578,0.8789 -5.11914,1.65821 -4.55664,-1.07813 z m -10.875003,0.22265 0.158203,0.0371 -0.08594,0.0293 z m -5.058594,0.11133 2.546875,0.79297 -0.808594,0.26172 z m 5.714847,0.0449 4.73633,1.11914 -2.84961,0.92579 -0.17579,-0.0566 -2.06835,-1.87304 z m -0.648441,0.20899 1.757811,1.59375 -3.402342,-1.06055 z m 16.607421,0.38672 4.99219,0.84961 -5.79102,1.86718 -4.38867,-1.03711 z m -18.687499,0.28906 0.140625,0.043 2.232424,1.6582 -2.953127,-1.16992 -0.36914,-0.22461 z m 0.90625,0.28125 3.273439,1.01953 -1.32227,0.42969 z m 7.054689,0.0703 4.55664,1.07813 -3.44727,1.11523 -4.01757,-1.25 z m -9.414064,0.11914 0.753907,0.29883 0.740234,0.44922 -1.50586,-0.74414 z m 25.695304,0.18555 4.93555,0.83789 -6.45898,2.07617 -4.33398,-1.02539 z m -23.476554,0.69336 1.470703,0.58203 -0.333984,0.10742 z m 3.699224,0.13672 2.04296,1.85156 -3.18164,-1.25977 -0.20898,-0.15429 z m 0.43945,0.0391 3.73047,1.16016 -1.80664,0.58593 z m 8.10937,0.0215 4.38867,1.03907 -4.02734,1.29883 -3.86719,-1.20313 z m -10.39257,0.53711 0.57226,0.22657 1.86328,1.38281 -2.29492,-1.13281 -0.560547,-0.33985 z m 1.52539,0.60352 2.01562,0.79883 -0.6543,0.21094 z m 13.75195,0.0156 4.33398,1.02539 -4.60547,1.48047 -3.81445,-1.1875 z m -8.82617,0.11915 3.86523,1.20312 -2.58594,0.83594 -3.14257,-1.24414 -0.1543,-0.14063 z m -2.52344,0.8164 0.51562,0.20508 1.69141,1.5332 -0.17578,0.0547 -2.19727,-1.08398 -0.61328,-0.45508 z m 1.21875,0.48242 2.18945,0.86719 -0.91015,0.29297 z m -2.40234,0.0195 0.88086,0.43555 0.74218,0.55078 z m 8.00976,0.0215 3.81641,1.1875 -3.0918,0.99414 -3.36133,-1.33008 z m -3.0332,0.97851 3.36132,1.33008 -1.82617,0.58789 -1.9082,-0.9414 -0.69531,-0.63086 z m -2.76953,0.0899 0.64453,0.31836 -0.15039,0.0488 z m 1.4082,0.34961 0.12109,0.10937 -0.18164,-0.0898 z m -0.42383,0.13672 1.26172,0.62304 1.125,1.01953 -0.18359,0.0586 -1.33008,-0.80664 -1.10156,-0.82032 z m 2.12891,1.05078 0.82812,0.4082 -0.27929,0.0898 z m 0.48242,0.79492 0.34375,0.3125 -0.45508,-0.27539 z m 0.55078,0.74805 0.82813,0.50195 0.68164,0.61914 z"
       style="color:#000000;font-style:normal;font-variant:normal;font-weight:normal;font-stretch:normal;font-size:medium;line-height:normal;font-family:sans-serif;font-variant-ligatures:normal;font-variant-position:normal;font-variant-caps:normal;font-variant-numeric:normal;font-variant-alternates:normal;font-variant-east-asian:normal;font-feature-settings:normal;font-variation-settings:normal;text-indent:0;text-align:start;text-decoration:none;text-decoration-line:none;text-decoration-style:solid;text-decoration-color:#000000;letter-spacing:normal;word-spacing:normal;text-transform:none;writing-mode:lr-tb;direction:ltr;text-orientation:mixed;dominant-baseline:auto;baseline-shift:baseline;text-anchor:start;white-space:normal;shape-padding:0;shape-margin:0;inline-size:0;clip-rule:nonzero;display:inline;overflow:visible;visibility:visible;opacity:1;isolation:auto;mix-blend-mode:normal;color-interpolation:sRGB;color-interpolation-filters:linearRGB;solid-color:#000000;solid-opacity:1;vector-effect:none;fill:url(#linearGradient908);fill-opacity:1;fill-rule:nonzero;stroke:none;stroke-width:0.264583px;stroke-linecap:butt;stroke-linejoin:miter;stroke-miterlimit:4;stroke-dasharray:none;stroke-dashoffset:0;stroke-opacity:1;color-rendering:auto;image-rendering:auto;shape-rendering:auto;text-rendering:auto;enable-background:accumulate;stop-color:#000000;stop-opacity:1" />
  </g>
</svg>
