<?xml version="1.0" encoding="UTF-8" standalone="no"?>
<svg
   xmlns:dc="http://purl.org/dc/elements/1.1/"
   xmlns:cc="http://creativecommons.org/ns#"
   xmlns:rdf="http://www.w3.org/1999/02/22-rdf-syntax-ns#"
   xmlns:svg="http://www.w3.org/2000/svg"
   xmlns="http://www.w3.org/2000/svg"
   xmlns:sodipodi="http://sodipodi.sourceforge.net/DTD/sodipodi-0.dtd"
   xmlns:inkscape="http://www.inkscape.org/namespaces/inkscape"
   width="793.70081"
   height="1122.5197"
   viewBox="0 0 210 297"
   version="1.1"
   id="svg8"
   sodipodi:docname="Fire-Sphere.svg"
   inkscape:version="1.0 (9f2f71dc58, 2020-08-02)">
  <defs
     id="defs2" />
  <sodipodi:namedview
     id="base"
     pagecolor="#ffffff"
     bordercolor="#666666"
     borderopacity="1.0"
     inkscape:pageopacity="0.0"
     inkscape:pageshadow="2"
     inkscape:zoom="1"
     inkscape:cx="530.92991"
     inkscape:cy="638.67838"
     inkscape:document-units="px"
     inkscape:current-layer="layer1"
     inkscape:document-rotation="0"
     showgrid="false"
     showborder="true"
     units="px"
     inkscape:window-width="1846"
     inkscape:window-height="1016"
     inkscape:window-x="74"
     inkscape:window-y="27"
     inkscape:window-maximized="1" />
  <metadata
     id="metadata5">
    <rdf:RDF>
      <cc:Work
         rdf:about="">
        <dc:format>image/svg+xml</dc:format>
        <dc:type
           rdf:resource="http://purl.org/dc/dcmitype/StillImage" />
        <dc:title></dc:title>
      </cc:Work>
    </rdf:RDF>
  </metadata>
  <g
     inkscape:label="Layer 1"
     inkscape:groupmode="layer"
     id="layer1">
    <g
       id="g3889"
       transform="translate(-47.725527,3.3219226)">
      <path
         id="path3834"
         style="color:#000000;font-style:normal;font-variant:normal;font-weight:normal;font-stretch:normal;font-size:medium;line-height:normal;font-family:sans-serif;font-variant-ligatures:normal;font-variant-position:normal;font-variant-caps:normal;font-variant-numeric:normal;font-variant-alternates:normal;font-variant-east-asian:normal;font-feature-settings:normal;font-variation-settings:normal;text-indent:0;text-align:start;text-decoration:none;text-decoration-line:none;text-decoration-style:solid;text-decoration-color:#000000;letter-spacing:normal;word-spacing:normal;text-transform:none;writing-mode:lr-tb;direction:ltr;text-orientation:mixed;dominant-baseline:auto;baseline-shift:baseline;text-anchor:start;white-space:normal;shape-padding:0;shape-margin:0;inline-size:0;clip-rule:nonzero;display:inline;overflow:visible;visibility:visible;isolation:auto;mix-blend-mode:normal;color-interpolation:sRGB;color-interpolation-filters:linearRGB;solid-color:#000000;solid-opacity:1;vector-effect:none;fill:#ff2e2e;fill-opacity:1;fill-rule:nonzero;stroke:none;stroke-width:0.597403;stroke-linecap:butt;stroke-linejoin:miter;stroke-miterlimit:4;stroke-dasharray:none;stroke-dashoffset:0;stroke-opacity:1;color-rendering:auto;image-rendering:auto;shape-rendering:auto;text-rendering:auto;enable-background:accumulate;stop-color:#000000"
         d="m 172.13188,216.96184 c 0.40131,-0.0959 0.79373,-0.19827 1.16751,-0.31205 1.96858,-0.59917 3.54995,-1.44407 4.64107,-2.52973 1.09113,-1.08565 1.68232,-2.42403 1.63721,-3.93382 -0.0902,-3.01958 -2.61002,-6.19671 -6.64007,-9.06367 -4.03007,-2.86697 -9.60543,-5.42475 -15.9401,-7.12212 -6.33466,-1.69737 -12.44147,-2.26981 -17.36509,-1.80198 -4.92361,0.46784 -8.69538,1.95915 -10.28331,4.52907 -0.79397,1.28496 -0.95117,2.73962 -0.54905,4.22539 0.40212,1.48577 1.34917,3.00816 2.75442,4.51135 0.26673,0.28532 0.55523,0.56974 0.85471,0.85336 -7.53074,-5.31932 -13.64091,-12.28124 -17.95309,-20.23064 -7.1e-4,-10e-4 -0.001,-0.002 -0.002,-0.004 -1.32842,-2.45177 -1.79819,-4.72431 -1.50878,-6.77017 0.28955,-2.04695 1.33647,-3.88193 3.10156,-5.46153 3.53017,-3.15922 9.95409,-5.25614 18.68193,-5.68818 17.45567,-0.86406 39.78787,5.11983 54.47289,14.59597 7.34251,4.73807 11.85633,9.76575 13.33394,14.2668 0.73881,2.25052 0.72748,4.36298 -0.0452,6.28048 -0.76813,1.90611 -2.29767,3.63094 -4.65222,5.08509 -7.71984,4.74342 -16.50787,7.72743 -25.70661,8.57005 z m 48.25925,-33.66158 c 0.49276,-3.41534 -0.62777,-7.14602 -3.17028,-10.91591 -3.51226,-5.20781 -9.72839,-10.53865 -18.23631,-15.41402 -17.01579,-9.75074 -40.22135,-15.96865 -59.83283,-16.03216 -9.80574,-0.0318 -17.85551,1.47654 -23.50112,4.23051 -4.08514,1.99274 -6.92024,4.66208 -8.20193,7.86446 0.28638,-3.54262 0.89332,-7.10951 1.8461,-10.66532 1.30368,-4.86541 3.17642,-9.42557 5.52403,-13.63181 l 0.01,0.006 c 3.06657,-5.4844 11.18549,-8.97606 22.1648,-10.09098 10.97932,-1.11491 24.78335,0.13089 39.12904,3.9748 14.3457,3.84392 26.92323,9.66704 35.87414,16.12224 8.95091,6.45521 14.23626,13.53853 14.14979,19.82145 l 0.0123,1.8e-4 c -0.0699,4.81666 -0.72786,9.70262 -2.03158,14.56815 -0.95312,3.5571 -2.21175,6.9505 -3.73583,10.1627 z m -79.12162,-79.26881 c 10.48021,-4.969332 22.45176,-6.909539 34.53735,-5.022582 0.21815,0.03381 0.43626,0.0695 0.65482,0.105907 0.30693,0.05139 0.61435,0.1049 0.92137,0.161284 0.19639,0.03606 0.39267,0.07316 0.58916,0.11132 0.26592,0.05169 0.53195,0.105513 0.79791,0.160834 0.24701,0.05149 0.49416,0.104842 0.74103,0.159507 0.21534,0.04766 0.43034,0.09792 0.64584,0.147378 0.2923,0.06807 0.58405,0.137602 0.87554,0.210532 0.2064,0.0522 0.41334,0.10475 0.61998,0.15805 0.29433,0.0768 0.58821,0.15554 0.88151,0.2362 0.20604,0.0562 0.41118,0.11411 0.61594,0.17311 0.28766,0.0828 0.57448,0.16765 0.86051,0.25465 0.21303,0.0647 0.42576,0.1294 0.6375,0.19649 0.23815,0.0751 0.47592,0.15155 0.71264,0.22947 0.26122,0.0861 0.52136,0.17376 0.78065,0.26322 0.18786,0.0648 0.37591,0.12973 0.56267,0.19624 0.29399,0.10466 0.58647,0.21254 0.87793,0.32138 0.20789,0.0779 0.41532,0.15609 0.62154,0.23609 11.40928,4.40833 20.80662,12.07372 27.39832,21.6166 -7.02166,-7.34752 -19.96626,-14.13989 -34.96767,-18.1595 -15.00294,-4.02003 -29.61018,-4.60955 -39.36454,-1.75616 z" />
      <path
         id="path3849"
         style="color:#000000;font-style:normal;font-variant:normal;font-weight:normal;font-stretch:normal;font-size:medium;line-height:normal;font-family:sans-serif;font-variant-ligatures:normal;font-variant-position:normal;font-variant-caps:normal;font-variant-numeric:normal;font-variant-alternates:normal;font-variant-east-asian:normal;font-feature-settings:normal;font-variation-settings:normal;text-indent:0;text-align:start;text-decoration:none;text-decoration-line:none;text-decoration-style:solid;text-decoration-color:#000000;letter-spacing:normal;word-spacing:normal;text-transform:none;writing-mode:lr-tb;direction:ltr;text-orientation:mixed;dominant-baseline:auto;baseline-shift:baseline;text-anchor:start;white-space:normal;shape-padding:0;shape-margin:0;inline-size:0;clip-rule:nonzero;display:inline;overflow:visible;visibility:visible;isolation:auto;mix-blend-mode:normal;color-interpolation:sRGB;color-interpolation-filters:linearRGB;solid-color:#000000;solid-opacity:1;vector-effect:none;fill:#f50000;fill-opacity:1;fill-rule:nonzero;stroke:none;stroke-width:0.597403;stroke-linecap:butt;stroke-linejoin:miter;stroke-miterlimit:4;stroke-dasharray:none;stroke-dashoffset:0;stroke-opacity:1;color-rendering:auto;image-rendering:auto;shape-rendering:auto;text-rendering:auto;enable-background:accumulate;stop-color:#000000"
         d="m 163.75159,98.3729 c -7.88337,0.390794 -15.5127,2.35397 -22.48209,5.6586 7.46453,-2.18356 17.77196,-2.34838 28.92283,-0.5051 -2.01433,-1.85402 -4.16479,-3.577268 -6.44074,-5.1535 z m 12.37072,24.25278 c -14.34569,-3.84392 -28.14972,-5.08971 -39.12904,-3.97479 -10.97931,1.11491 -19.09823,4.60658 -22.1648,10.09098 l -0.01,-0.006 c -2.34762,4.20623 -4.22036,8.7664 -5.52404,13.63181 -0.95278,3.55581 -1.55971,7.12268 -1.84609,10.66531 1.28169,-3.20239 4.11679,-5.87173 8.20193,-7.86447 5.64561,-2.75396 13.69537,-4.26227 23.50111,-4.2305 16.1501,0.0523 34.73463,4.28076 50.2955,11.21629 0.69402,-9.288 -0.8092,-18.40286 -4.14845,-26.7244 -2.96041,-1.02088 -6.02576,-1.96021 -9.17644,-2.80443 z M 163.004,171.58389 c -9.60064,-2.57248 -19.54757,-3.85257 -28.27541,-3.42053 -8.72783,0.43204 -15.15175,2.52896 -18.68193,5.68818 -1.76508,1.5796 -2.812,3.41458 -3.10156,5.46153 -0.28941,2.04586 0.18036,4.3184 1.50878,6.77017 l 0.002,0.004 c 4.31218,7.94941 10.42236,14.91132 17.9531,20.23064 -0.29948,-0.28362 -0.58798,-0.56802 -0.85471,-0.85335 -1.40525,-1.50318 -2.3523,-3.02558 -2.75442,-4.51135 -0.40211,-1.48578 -0.24492,-2.94043 0.54905,-4.22539 1.58793,-2.56992 5.3597,-4.06124 10.28331,-4.52907 4.92362,-0.46784 11.03043,0.10461 17.36508,1.80197 2.6593,0.71256 5.18224,1.57808 7.51575,2.55312 6.69298,-4.78566 12.43072,-10.9583 16.73311,-18.23757 -5.62094,-2.73316 -11.85327,-5.02019 -18.24235,-6.73214 z" />
      <path
         id="path3831"
         style="color:#000000;font-style:normal;font-variant:normal;font-weight:normal;font-stretch:normal;font-size:medium;line-height:normal;font-family:sans-serif;font-variant-ligatures:normal;font-variant-position:normal;font-variant-caps:normal;font-variant-numeric:normal;font-variant-alternates:normal;font-variant-east-asian:normal;font-feature-settings:normal;font-variation-settings:normal;text-indent:0;text-align:start;text-decoration:none;text-decoration-line:none;text-decoration-style:solid;text-decoration-color:#000000;letter-spacing:normal;word-spacing:normal;text-transform:none;writing-mode:lr-tb;direction:ltr;text-orientation:mixed;dominant-baseline:auto;baseline-shift:baseline;text-anchor:start;white-space:normal;shape-padding:0;shape-margin:0;inline-size:0;clip-rule:nonzero;display:inline;overflow:visible;visibility:visible;isolation:auto;mix-blend-mode:normal;color-interpolation:sRGB;color-interpolation-filters:linearRGB;solid-color:#000000;solid-opacity:1;vector-effect:none;fill:#ffcc00;fill-opacity:1;fill-rule:nonzero;stroke:none;stroke-width:0.597403;stroke-linecap:butt;stroke-linejoin:miter;stroke-miterlimit:4;stroke-dasharray:none;stroke-dashoffset:0;stroke-opacity:1;color-rendering:auto;image-rendering:auto;shape-rendering:auto;text-rendering:auto;enable-background:accumulate;stop-color:#000000"
         d="m 201.01263,109.1774 c 0.2996,0.28371 0.58826,0.56856 0.85508,0.85399 1.40525,1.50318 2.3523,3.02557 2.75442,4.51134 0.40212,1.48577 0.24492,2.94043 -0.54905,4.22539 -1.58794,2.56992 -5.3587,4.0615 -10.28231,4.52934 -4.92362,0.46783 -11.03092,-0.10474 -17.36559,-1.80211 -6.33466,-1.69737 -11.90953,-4.25502 -15.9396,-7.12199 -4.03005,-2.86696 -6.55084,-6.04436 -6.64107,-9.06394 -0.0451,-1.50979 0.54608,-2.84816 1.63721,-3.93382 1.09112,-1.08566 2.67249,-1.93056 4.64107,-2.529732 0.37366,-0.113735 0.76571,-0.215792 1.16688,-0.31168 -9.18148,0.841296 -17.954,3.815412 -25.66316,8.543702 -0.001,7.1e-4 -0.002,0.001 -0.004,0.002 -2.37633,1.45908 -3.91944,3.19228 -4.69173,5.10874 -0.77271,1.9175 -0.78354,4.03009 -0.0447,6.28061 1.47761,4.50106 5.99243,9.529 13.33493,14.26708 14.68503,9.47613 37.01722,15.46003 54.4729,14.59596 8.72783,-0.43204 15.15076,-2.52922 18.68093,-5.68844 1.76509,-1.57961 2.81151,-3.41472 3.10106,-5.46167 0.28784,-2.03481 -0.17437,-4.29332 -1.48639,-6.72993 -4.31386,-7.96784 -10.43252,-14.94608 -17.97755,-20.27518 z m 24.96295,53.2814 c -1.28092,3.20415 -4.11667,5.87475 -8.2035,7.86833 -5.64561,2.75396 -13.69436,4.26253 -23.50011,4.23077 -19.61148,-0.0635 -42.81703,-6.28143 -59.83284,-16.03216 -8.5079,-4.87537 -14.72505,-10.20648 -18.23731,-15.41428 -2.54146,-3.76834 -3.66206,-7.49761 -3.17084,-10.9118 -1.5233,3.21119 -2.78112,6.60367 -3.7339,10.15949 -1.30368,4.8654 -1.96192,9.75099 -2.03195,14.56751 l 0.0113,-8e-5 c -0.0865,6.28291 5.19889,13.36624 14.14979,19.82144 8.95092,6.45521 21.52845,12.27834 35.87414,16.12226 14.3457,3.84391 28.14973,5.0897 39.12904,3.97478 10.97932,-1.11491 19.09823,-4.60658 22.1648,-10.09097 l 0.0107,0.006 c 2.34777,-4.20632 4.22096,-8.76664 5.52468,-13.63217 0.95312,-3.55709 1.55981,-7.12519 1.84602,-10.66907 z m -108.15573,29.08799 c 6.59146,9.54368 15.98902,17.20972 27.39893,21.61836 0.20582,0.0798 0.41255,0.15796 0.62003,0.23571 0.29151,0.10896 0.58449,0.21635 0.87857,0.32103 0.18811,0.067 0.37664,0.13301 0.56588,0.19821 0.25614,0.0882 0.51342,0.17464 0.77142,0.25971 0.23966,0.0789 0.48038,0.15626 0.7215,0.23236 0.21025,0.0667 0.42165,0.13037 0.63301,0.19528 0.28715,0.0873 0.57461,0.17281 0.86349,0.2555 0.20484,0.058 0.41028,0.11615 0.61589,0.17331 0.29329,0.0807 0.58718,0.1594 0.88151,0.2362 0.20656,0.0543 0.4132,0.10657 0.62003,0.15785 0.29064,0.0717 0.58133,0.1421 0.87256,0.20968 0.21675,0.0508 0.43342,0.10081 0.65034,0.14858 0.24379,0.054 0.48793,0.10673 0.7319,0.1576 0.26929,0.056 0.53839,0.1102 0.80766,0.16238 0.19511,0.0378 0.39041,0.0756 0.5854,0.1114 0.30693,0.0564 0.61417,0.10918 0.92101,0.16065 0.21897,0.0365 0.43773,0.0725 0.65631,0.10629 12.08489,1.88692 24.05593,-0.0528 34.53595,-5.02136 -9.75471,2.85231 -24.36123,2.26237 -39.36264,-1.75725 -15.00295,-4.02002 -27.94795,-10.8131 -34.96878,-18.1614 z" />
    </g>
  </g>
</svg>
