<?xml version="1.0" encoding="UTF-8" standalone="no"?>
<svg
   xmlns:dc="http://purl.org/dc/elements/1.1/"
   xmlns:cc="http://creativecommons.org/ns#"
   xmlns:rdf="http://www.w3.org/1999/02/22-rdf-syntax-ns#"
   xmlns:svg="http://www.w3.org/2000/svg"
   xmlns="http://www.w3.org/2000/svg"
   xmlns:sodipodi="http://sodipodi.sourceforge.net/DTD/sodipodi-0.dtd"
   xmlns:inkscape="http://www.inkscape.org/namespaces/inkscape"
   sodipodi:docname="Galaxy.svg"
   inkscape:version="1.0 (6e3e5246a0, 2020-05-07)"
   id="svg8"
   version="1.1"
   viewBox="0 0 210 297"
   height="297mm"
   width="210mm">
  <defs
     id="defs2">
    <inkscape:path-effect
       bendpath-nodetypes="cc"
       hide_knot="false"
       vertical="false"
       scale_y_rel="false"
       prop_scale="1"
       bendpath="m 1.9712615,136.66487 c 58.6719795,-59.896635 133.7273885,-66.311954 172.8833985,0"
       lpeversion="1"
       is_visible="true"
       id="path-effect910"
       effect="bend_path" />
    <inkscape:path-effect
       hide_knot="false"
       vertical="false"
       scale_y_rel="false"
       prop_scale="1"
       bendpath="M 2.0712615,136.66487 H 174.95466"
       lpeversion="1"
       is_visible="true"
       id="path-effect908"
       effect="bend_path" />
  </defs>
  <sodipodi:namedview
     inkscape:window-maximized="1"
     inkscape:window-y="27"
     inkscape:window-x="74"
     inkscape:window-height="1016"
     inkscape:window-width="1846"
     showborder="false"
     borderlayer="false"
     showgrid="false"
     inkscape:document-rotation="0"
     inkscape:current-layer="layer1"
     inkscape:document-units="mm"
     inkscape:cy="560"
     inkscape:cx="400"
     inkscape:zoom="1"
     inkscape:pageshadow="2"
     inkscape:pageopacity="0.0"
     borderopacity="1.0"
     bordercolor="#666666"
     pagecolor="#ffffff"
     id="base" />
  <metadata
     id="metadata5">
    <rdf:RDF>
      <cc:Work
         rdf:about="">
        <dc:format>image/svg+xml</dc:format>
        <dc:type
           rdf:resource="http://purl.org/dc/dcmitype/StillImage" />
        <dc:title></dc:title>
      </cc:Work>
    </rdf:RDF>
  </metadata>
  <g
     id="layer1"
     inkscape:groupmode="layer"
     inkscape:label="Layer 1">
    <g
       transform="matrix(0.77559238,0,0,0.77559238,79.013098,37.730759)"
       id="g1888">
      <g
         id="g1546"
         transform="rotate(15,13.756938,136.0137)">
        <path
           d="m 24.721532,126.03292 c -0.487015,-0.45268 -1.305958,-0.36081 -1.844077,0.19131 -0.538116,0.55212 -0.609255,1.37327 -0.144725,1.84801 0.464529,0.47474 1.307104,0.40696 1.867709,-0.16721 0.560605,-0.57418 0.608106,-1.41943 0.121093,-1.87211 z"
           style="fill:#fff15e;fill-opacity:1;fill-rule:evenodd;stroke-width:0.052838"
           id="path833" />
        <path
           id="path836"
           style="fill:#ff0000;fill-rule:evenodd;stroke-width:0.125027"
           d="m 22.785873,78.794149 c -0.797317,1.347377 -0.196897,3.185711 1.128595,4.157437 1.315748,0.96458 3.241942,0.987805 4.296759,-0.163294 1.057918,-1.154486 0.775777,-3.19248 -0.921414,-4.43809 -1.688217,-1.23902 -3.708954,-0.899489 -4.50394,0.443947 z" />
        <path
           id="path843"
           d="m 29.982561,84.560843 c -1.047048,0.955674 -1.045569,2.627752 -0.174086,3.848575 2e-5,3.1e-5 4.2e-5,6.5e-5 6.5e-5,9.7e-5 0.467242,0.654467 1.133779,1.094252 1.850706,1.273779 0.606738,0.149043 1.267698,0.11767 1.839918,-0.187752 l 2.5e-5,-1.4e-5 c 0.575381,-0.30711 0.963419,-0.842433 1.102237,-1.514607 0.161512,-0.788299 -0.03336,-1.734791 -0.622557,-2.556296 -1.5e-5,-2e-5 -2.9e-5,-4e-5 -4.4e-5,-6e-5 -1.120327,-1.561979 -2.955036,-1.814089 -3.996264,-0.863722 z"
           style="fill:#ff3800;fill-opacity:1;fill-rule:evenodd;stroke-width:0.125027" />
        <path
           id="path845"
           d="m 34.78579,92.371975 c -1.183735,0.434732 -1.749261,1.876656 -1.445084,3.139454 7e-6,3.1e-5 1.5e-5,5.9e-5 2.2e-5,8.8e-5 0.318058,1.320208 1.462435,2.292669 2.722065,2.13446 l 8.5e-5,-1.1e-5 c 1.253756,-0.157505 2.145831,-1.555251 1.743783,-3.213967 -9e-6,-3.4e-5 -1.7e-5,-7.1e-5 -2.6e-5,-1.05e-4 -0.402599,-1.660834 -1.836269,-2.494959 -3.020845,-2.059919 z"
           style="fill:#ff6800;fill-opacity:1;fill-rule:evenodd;stroke-width:0.125027" />
        <path
           id="path847"
           d="m 36.242067,101.44411 c -1.117246,-0.0339 -2.040375,0.92907 -2.185095,2.14582 -2e-6,2e-5 -4e-6,4e-5 -7e-6,6e-5 -0.144687,1.2167 0.530271,2.37636 1.624163,2.59919 l 1.11e-4,2e-5 c 1.090909,0.22215 2.214849,-0.67756 2.387388,-2.12082 7e-6,-6e-5 1.4e-5,-1.2e-4 2.1e-5,-1.8e-4 0.167968,-1.40557 -0.709392,-2.59018 -1.826581,-2.62409 z"
           style="fill:#ff9300;fill-opacity:1;fill-rule:evenodd;stroke-width:0.125027" />
        <path
           id="path849"
           d="m 34.488734,110.47701 c -0.913379,-0.32125 -1.942547,0.25271 -2.363405,1.26076 -6e-6,1e-5 -1.5e-5,3e-5 -2e-5,5e-5 -0.420827,1.00803 -0.104752,2.147 0.766383,2.56771 l 1.28e-4,7e-5 c 0.869158,0.41964 1.998344,-0.0879 2.469856,-1.21561 2.6e-5,-7e-5 5.2e-5,-1.3e-4 7.8e-5,-1.9e-4 0.462953,-1.10747 0.04028,-2.29158 -0.87302,-2.61279 z"
           style="fill:#ffc500;fill-opacity:1;fill-rule:evenodd;stroke-width:0.125027" />
        <path
           id="path851"
           d="m 30.401222,118.75077 c -0.686424,-0.43876 -1.647861,-0.15545 -2.18077,0.61264 -8e-6,1e-5 -1.4e-5,2e-5 -2e-5,2e-5 -0.532891,0.76806 -0.461282,1.77008 0.191885,2.25831 l 1.59e-4,1.2e-4 c 0.653156,0.48804 1.667503,0.24033 2.233609,-0.57713 4.6e-5,-6e-5 9.4e-5,-1.3e-4 1.4e-4,-2e-4 0.565988,-0.81749 0.441347,-1.85504 -0.245003,-2.29376 z"
           style="fill:#ffdd00;fill-opacity:1;fill-rule:evenodd;stroke-width:0.125027" />
        <path
           id="path912"
           style="fill:#fff15e;fill-opacity:1;fill-rule:evenodd;stroke-width:0.052838"
           d="m 28.242939,132.85239 c -0.195427,-0.63554 -0.950587,-0.96545 -1.692672,-0.75636 -0.742082,0.20909 -1.214266,0.88466 -1.049341,1.52806 0.164924,0.6434 0.928503,1.00599 1.701089,0.78905 0.772587,-0.21695 1.236347,-0.92521 1.040924,-1.56075 z" />
        <path
           d="m 50.185995,90.974586 c -1.364186,0.768204 -1.763374,2.660458 -1.101327,4.164743 0.657181,1.493225 2.313701,2.476435 3.802749,2.006964 1.493427,-0.470857 2.268082,-2.376881 1.421077,-4.304206 -0.842529,-1.917132 -2.762304,-2.633458 -4.122499,-1.867501 z"
           style="fill:#ff0000;fill-rule:evenodd;stroke-width:0.125027"
           id="path914" />
        <path
           style="fill:#ff3800;fill-opacity:1;fill-rule:evenodd;stroke-width:0.125027"
           d="m 53.535161,99.567033 c -1.384607,0.304115 -2.219364,1.752917 -2.07505,3.245917 2e-6,4e-5 4e-6,8e-5 8e-6,1.2e-4 0.07741,0.80041 0.434756,1.51454 0.965869,2.02848 0.450929,0.43244 1.039023,0.73575 1.687292,0.75736 h 2.9e-5 c 0.651849,0.0217 1.255561,-0.24786 1.711868,-0.76057 0.534023,-0.60193 0.838508,-1.51905 0.738998,-2.5251 -3e-6,-2e-5 -5e-6,-4e-5 -8e-6,-7e-5 -0.189242,-1.91288 -1.652092,-3.048565 -3.029006,-2.746137 z"
           id="path916" />
        <path
           style="fill:#ff6800;fill-opacity:1;fill-rule:evenodd;stroke-width:0.125027"
           d="m 53.789314,108.73329 c -1.242511,-0.21538 -2.453232,0.7506 -2.821206,1.9963 -1e-5,3e-5 -1.8e-5,6e-5 -2.6e-5,9e-5 -0.384658,1.30236 0.120172,2.71673 1.290148,3.20953 l 7.9e-5,3e-5 c 1.164538,0.49048 2.635969,-0.27397 3.117144,-1.91148 9e-6,-4e-5 2.1e-5,-8e-5 3e-5,-1.1e-4 0.481756,-1.63962 -0.342776,-3.07883 -1.586169,-3.29436 z"
           id="path918" />
        <path
           style="fill:#ff9300;fill-opacity:1;fill-rule:evenodd;stroke-width:0.125027"
           d="m 50.514418,117.31813 c -0.950608,-0.58799 -2.231549,-0.2156 -2.965257,0.76578 -1.2e-5,2e-5 -2.5e-5,4e-5 -3.7e-5,5e-5 -0.73365,0.98135 -0.728951,2.32312 0.106974,3.06304 l 8.5e-5,8e-5 c 0.83368,0.73784 2.256896,0.52064 3.127947,-0.64299 3.6e-5,-5e-5 7.2e-5,-9e-5 1.08e-4,-1.4e-4 0.848252,-1.13328 0.68074,-2.59786 -0.26982,-3.18582 z"
           id="path920" />
        <path
           style="fill:#ffc500;fill-opacity:1;fill-rule:evenodd;stroke-width:0.125027"
           d="m 44.47954,124.26417 c -0.630386,-0.73489 -1.808653,-0.75241 -2.677148,-0.0898 -1.3e-5,1e-5 -2.9e-5,2e-5 -4.3e-5,4e-5 -0.868466,0.66257 -1.164218,1.80698 -0.620151,2.6069 l 8e-5,1.1e-4 c 0.54289,0.79801 1.774568,0.92305 2.746763,0.18218 5.3e-5,-4e-5 1.07e-4,-8e-5 1.6e-4,-1.2e-4 0.954664,-0.72762 1.18067,-1.96442 0.550339,-2.69926 z"
           id="path922" />
        <path
           style="fill:#ffdd00;fill-opacity:1;fill-rule:evenodd;stroke-width:0.125027"
           d="m 36.802769,129.38571 c -0.375078,-0.72319 -1.349365,-0.95855 -2.19492,-0.55983 -1.2e-5,10e-6 -2.2e-5,10e-6 -3.1e-5,2e-5 -0.845527,0.39871 -1.284521,1.30229 -0.962974,2.05169 l 7.8e-5,1.8e-4 c 0.321626,0.74924 1.323932,1.04189 2.222923,0.617 7.3e-5,-3e-5 1.48e-4,-7e-5 2.21e-4,-10e-5 0.898909,-0.42498 1.309739,-1.38584 0.934703,-2.10896 z"
           id="path924" />
        <path
           d="m 27.882831,140.51893 c 0.148527,-0.64811 -0.340505,-1.3114 -1.087715,-1.50136 -0.747209,-0.18996 -1.493917,0.159 -1.672788,0.79867 -0.178871,0.63966 0.301111,1.33546 1.078665,1.53387 0.777554,0.19841 1.53331,-0.18307 1.681838,-0.83118 z"
           style="fill:#fff15e;fill-opacity:1;fill-rule:evenodd;stroke-width:0.052838"
           id="path928" />
        <path
           id="path930"
           style="fill:#ff0000;fill-rule:evenodd;stroke-width:0.125027"
           d="m 67.824978,115.22322 c -1.565522,-0.0168 -2.857356,1.42233 -3.036149,3.05611 -0.177477,1.62176 0.765507,3.3015 2.289796,3.63945 1.528773,0.33894 3.152657,-0.9244 3.382791,-3.01701 0.228915,-2.08155 -1.075496,-3.66179 -2.636438,-3.67855 z" />
        <path
           id="path932"
           d="m 66.429217,124.33908 c -1.351162,-0.42894 -2.798483,0.40838 -3.420006,1.77352 -1.7e-5,3e-5 -3.5e-5,7e-5 -5.1e-5,1.1e-4 -0.333164,0.73187 -0.380761,1.529 -0.177772,2.23964 0.174294,0.59998 0.531943,1.1567 1.082557,1.49954 l 2.5e-5,2e-5 c 0.553655,0.34474 1.211277,0.41313 1.862805,0.19726 0.763444,-0.25428 1.485696,-0.89628 1.902539,-1.8173 10e-6,-2e-5 2e-5,-4e-5 3e-5,-7e-5 0.79255,-1.75122 0.09353,-3.46618 -1.250127,-3.89272 z"
           style="fill:#ff3800;fill-opacity:1;fill-rule:evenodd;stroke-width:0.125027" />
        <path
           id="path934"
           d="m 62.066193,132.40436 c -0.968356,-0.80778 -2.499861,-0.57658 -3.441388,0.31825 -2.3e-5,2e-5 -4.5e-5,4e-5 -6.6e-5,6e-5 -0.984305,0.93555 -1.254291,2.41284 -0.487463,3.42461 l 5.2e-5,7e-5 c 0.763281,1.00703 2.419801,1.08072 3.655268,-0.0968 2.5e-5,-2e-5 5.3e-5,-5e-5 7.8e-5,-7e-5 1.237025,-1.17908 1.242563,-2.83774 0.273519,-3.64609 z"
           style="fill:#ff6800;fill-opacity:1;fill-rule:evenodd;stroke-width:0.125027" />
        <path
           id="path936"
           d="m 54.937631,138.2016 c -0.529256,-0.98452 -1.824782,-1.30248 -2.950881,-0.81944 -1.9e-5,1e-5 -3.8e-5,2e-5 -5.8e-5,3e-5 -1.126032,0.48304 -1.792851,1.64741 -1.438878,2.70616 l 3.6e-5,1.1e-4 c 0.353067,1.05582 1.69421,1.57933 3.030375,1.00713 5.5e-5,-3e-5 1.11e-4,-5e-5 1.66e-4,-8e-5 1.301248,-0.55732 1.888468,-1.90944 1.35924,-2.89391 z"
           style="fill:#ff9300;fill-opacity:1;fill-rule:evenodd;stroke-width:0.125027" />
        <path
           id="path938"
           d="m 46.238249,141.19962 c -0.178483,-0.95163 -1.190133,-1.55594 -2.273552,-1.41639 -1.7e-5,0 -3.6e-5,0 -5.4e-5,1e-5 -1.0834,0.13957 -1.911734,0.98278 -1.840517,1.94756 l 1e-5,1.5e-4 c 0.07116,0.96253 1.0753,1.68666 2.287677,1.53115 6.7e-5,-1e-5 1.34e-4,-2e-5 2.01e-4,-3e-5 1.190573,-0.1528 2.004702,-1.1109 1.826235,-2.06245 z"
           style="fill:#ffc500;fill-opacity:1;fill-rule:evenodd;stroke-width:0.125027" />
        <path
           id="path940"
           d="m 37.029202,141.79661 c 0.03677,-0.81384 -0.689308,-1.50481 -1.620943,-1.58228 -1.2e-5,0 -2.3e-5,-1e-5 -3.3e-5,-1e-5 -0.931603,-0.0775 -1.763574,0.48556 -1.859805,1.29533 l -2.4e-5,2e-4 c -0.09608,0.80967 0.625615,1.56427 1.616607,1.6458 8e-5,1e-5 1.62e-4,2e-5 2.43e-4,2e-5 0.990967,0.0814 1.827188,-0.5453 1.863955,-1.35906 z"
           style="fill:#ffdd00;fill-opacity:1;fill-rule:evenodd;stroke-width:0.125027" />
        <path
           id="path944"
           style="fill:#fff15e;fill-opacity:1;fill-rule:evenodd;stroke-width:0.052838"
           d="m 23.737708,146.97829 c 0.452683,-0.48701 0.360813,-1.30595 -0.191308,-1.84407 -0.552121,-0.53812 -1.373272,-0.60926 -1.848011,-0.14473 -0.474738,0.46453 -0.406964,1.30711 0.167212,1.86771 0.574177,0.56061 1.419424,0.60811 1.872107,0.12109 z" />
        <path
           d="m 70.976479,145.04264 c -1.347377,-0.79732 -3.185711,-0.1969 -4.157437,1.12859 -0.96458,1.31575 -0.987805,3.24194 0.163294,4.29676 1.154486,1.05792 3.19248,0.77578 4.43809,-0.92142 1.23902,-1.68821 0.899489,-3.70895 -0.443947,-4.50393 z"
           style="fill:#ff0000;fill-rule:evenodd;stroke-width:0.125027"
           id="path946" />
        <path
           style="fill:#ff3800;fill-opacity:1;fill-rule:evenodd;stroke-width:0.125027"
           d="m 65.209785,152.23932 c -0.955674,-1.04704 -2.627752,-1.04557 -3.848575,-0.17408 -3.1e-5,2e-5 -6.5e-5,4e-5 -9.7e-5,6e-5 -0.654467,0.46724 -1.094252,1.13378 -1.273779,1.85071 -0.149043,0.60674 -0.11767,1.2677 0.187752,1.83992 l 1.4e-5,2e-5 c 0.30711,0.57538 0.842433,0.96342 1.514607,1.10224 0.788299,0.16151 1.734791,-0.0334 2.556296,-0.62256 2e-5,-10e-6 4e-5,-3e-5 6e-5,-4e-5 1.561979,-1.12033 1.814089,-2.95504 0.863722,-3.99627 z"
           id="path948" />
        <path
           style="fill:#ff6800;fill-opacity:1;fill-rule:evenodd;stroke-width:0.125027"
           d="m 57.398653,157.04255 c -0.434732,-1.18373 -1.876656,-1.74926 -3.139454,-1.44508 -3.1e-5,1e-5 -5.9e-5,1e-5 -8.8e-5,2e-5 -1.320208,0.31806 -2.292669,1.46244 -2.13446,2.72207 l 1.1e-5,8e-5 c 0.157505,1.25376 1.555251,2.14583 3.213967,1.74378 3.4e-5,-1e-5 7.1e-5,-1e-5 1.05e-4,-2e-5 1.660834,-0.4026 2.494959,-1.83627 2.059919,-3.02085 z"
           id="path950" />
        <path
           style="fill:#ff9300;fill-opacity:1;fill-rule:evenodd;stroke-width:0.125027"
           d="m 48.326516,158.49883 c 0.03391,-1.11725 -0.929066,-2.04038 -2.145819,-2.1851 -2.1e-5,0 -4.2e-5,0 -6.2e-5,0 -1.216695,-0.14469 -2.376359,0.53027 -2.599185,1.62416 l -2.2e-5,1.1e-4 c -0.22215,1.09091 0.677561,2.21485 2.120817,2.38739 5.9e-5,1e-5 1.19e-4,1e-5 1.79e-4,2e-5 1.405575,0.16797 2.590183,-0.70939 2.624092,-1.82658 z"
           id="path952" />
        <path
           style="fill:#ffc500;fill-opacity:1;fill-rule:evenodd;stroke-width:0.125027"
           d="m 39.293623,156.7455 c 0.321245,-0.91338 -0.252718,-1.94255 -1.26076,-2.36341 -1.7e-5,0 -3.4e-5,-1e-5 -5.1e-5,-2e-5 -1.008037,-0.42083 -2.147002,-0.10475 -2.567718,0.76638 l -6.2e-5,1.3e-4 c -0.419644,0.86916 0.0879,1.99835 1.21561,2.46986 6.2e-5,2e-5 1.24e-4,5e-5 1.86e-4,8e-5 1.10747,0.46295 2.291578,0.0403 2.612795,-0.87302 z"
           id="path954" />
        <path
           style="fill:#ffdd00;fill-opacity:1;fill-rule:evenodd;stroke-width:0.125027"
           d="m 31.019857,152.65798 c 0.438766,-0.68642 0.155448,-1.64786 -0.612636,-2.18077 -9e-6,0 -1.8e-5,-1e-5 -2.7e-5,-2e-5 -0.768058,-0.53289 -1.770078,-0.46128 -2.258302,0.19189 l -1.2e-4,1.6e-4 c -0.488048,0.65315 -0.240336,1.6675 0.577122,2.23361 6.6e-5,4e-5 1.33e-4,9e-5 2e-4,1.4e-4 0.817497,0.56599 1.855043,0.44134 2.293763,-0.24501 z"
           id="path956" />
        <path
           d="m 16.918239,150.4997 c 0.635543,-0.19543 0.965453,-0.95059 0.756362,-1.69267 -0.209093,-0.74208 -0.884662,-1.21427 -1.528062,-1.04934 -0.6434,0.16492 -1.005994,0.9285 -0.789045,1.70109 0.216949,0.77258 0.925204,1.23634 1.560745,1.04092 z"
           style="fill:#fff15e;fill-opacity:1;fill-rule:evenodd;stroke-width:0.052838"
           id="path960" />
        <path
           id="path962"
           style="fill:#ff0000;fill-rule:evenodd;stroke-width:0.125027"
           d="m 58.796044,172.44276 c -0.768204,-1.36419 -2.660458,-1.76338 -4.164743,-1.10133 -1.493225,0.65718 -2.476435,2.3137 -2.006964,3.80275 0.470857,1.49343 2.376881,2.26808 4.304206,1.42108 1.917132,-0.84253 2.633458,-2.76231 1.867501,-4.1225 z" />
        <path
           id="path964"
           d="m 50.203597,175.79192 c -0.304115,-1.3846 -1.752915,-2.21936 -3.245921,-2.07505 -3.7e-5,0 -7.8e-5,1e-5 -1.16e-4,1e-5 -0.800406,0.0774 -1.51454,0.43476 -2.028479,0.96587 -0.432444,0.45093 -0.735754,1.03902 -0.75736,1.68729 l -10e-7,3e-5 c -0.02173,0.65185 0.247859,1.25556 0.76057,1.71187 0.601931,0.53402 1.519051,0.83851 2.525096,0.739 2.4e-5,-1e-5 4.9e-5,-1e-5 7.3e-5,-1e-5 1.912877,-0.18924 3.048566,-1.65209 2.746138,-3.02901 z"
           style="fill:#ff3800;fill-opacity:1;fill-rule:evenodd;stroke-width:0.125027" />
        <path
           id="path966"
           d="m 41.037344,176.04608 c 0.215378,-1.24251 -0.750601,-2.45324 -1.996305,-2.82121 -3.1e-5,-1e-5 -5.9e-5,-2e-5 -8.7e-5,-3e-5 -1.302363,-0.38465 -2.716728,0.12018 -3.20953,1.29015 l -3.2e-5,8e-5 c -0.490475,1.16454 0.27397,2.63597 1.911485,3.11714 3.4e-5,1e-5 7e-5,3e-5 1.04e-4,4e-5 1.639624,0.48175 3.078832,-0.34278 3.294365,-1.58617 z"
           style="fill:#ff6800;fill-opacity:1;fill-rule:evenodd;stroke-width:0.125027" />
        <path
           id="path968"
           d="m 32.452504,172.77118 c 0.58799,-0.95061 0.215593,-2.23155 -0.765787,-2.96526 -1.6e-5,-10e-6 -3.3e-5,-2e-5 -5e-5,-3e-5 -0.981345,-0.73365 -2.323122,-0.72896 -3.063041,0.10697 l -7.5e-5,9e-5 c -0.737841,0.83367 -0.520639,2.25689 0.642988,3.12794 4.8e-5,4e-5 9.6e-5,7e-5 1.44e-4,1.1e-4 1.133279,0.84825 2.59786,0.68074 3.185821,-0.26982 z"
           style="fill:#ff9300;fill-opacity:1;fill-rule:evenodd;stroke-width:0.125027" />
        <path
           id="path970"
           d="m 25.506456,166.7363 c 0.734896,-0.63038 0.752413,-1.80865 0.08985,-2.67715 -1.1e-5,-10e-6 -2.2e-5,-3e-5 -3.3e-5,-4e-5 -0.662573,-0.86846 -1.806984,-1.16422 -2.606901,-0.62015 l -1.18e-4,8e-5 c -0.798001,0.54289 -0.923044,1.77457 -0.182179,2.74676 4.1e-5,6e-5 8.1e-5,1.1e-4 1.22e-4,1.6e-4 0.727621,0.95467 1.964425,1.18067 2.699257,0.55034 z"
           style="fill:#ffc500;fill-opacity:1;fill-rule:evenodd;stroke-width:0.125027" />
        <path
           id="path972"
           d="m 20.38492,159.05953 c 0.723194,-0.37508 0.958553,-1.34936 0.559826,-2.19492 -3e-6,-1e-5 -8e-6,-2e-5 -1.3e-5,-3e-5 -0.398711,-0.84553 -1.30229,-1.28452 -2.051689,-0.96297 l -1.83e-4,7e-5 c -0.749241,0.32163 -1.041889,1.32394 -0.617003,2.22293 3.5e-5,7e-5 6.9e-5,1.4e-4 1.04e-4,2.2e-4 0.424978,0.89891 1.385841,1.30974 2.108958,0.9347 z"
           style="fill:#ffdd00;fill-opacity:1;fill-rule:evenodd;stroke-width:0.125027" />
        <path
           id="path976"
           style="fill:#fff15e;fill-opacity:1;fill-rule:evenodd;stroke-width:0.052838"
           d="m 9.2517033,150.13959 c 0.6481092,0.14853 1.3113997,-0.3405 1.5013637,-1.08771 0.189962,-0.74721 -0.159006,-1.49392 -0.7986695,-1.67279 -0.6396631,-0.17887 -1.3354675,0.30111 -1.5338775,1.07866 -0.1984101,0.77756 0.1830764,1.53331 0.8311833,1.68184 z" />
        <path
           d="m 34.547419,190.08174 c 0.01681,-1.56552 -1.422338,-2.85736 -3.05611,-3.03615 -1.621762,-0.17748 -3.301507,0.76551 -3.639456,2.2898 -0.33894,1.52877 0.924398,3.15265 3.017013,3.38279 2.081549,0.22891 3.661793,-1.0755 3.678553,-2.63644 z"
           style="fill:#ff0000;fill-rule:evenodd;stroke-width:0.125027"
           id="path978" />
        <path
           style="fill:#ff3800;fill-opacity:1;fill-rule:evenodd;stroke-width:0.125027"
           d="m 25.431557,188.68598 c 0.428933,-1.35116 -0.408386,-2.79848 -1.773524,-3.42001 -3.3e-5,-1e-5 -7e-5,-3e-5 -1.05e-4,-5e-5 -0.731877,-0.33316 -1.529008,-0.38076 -2.239648,-0.17777 -0.599972,0.17429 -1.156693,0.53194 -1.49954,1.08256 l -1.4e-5,2e-5 c -0.34474,0.55366 -0.413129,1.21128 -0.197262,1.86281 0.254276,0.76344 0.896283,1.48569 1.817298,1.90254 2.3e-5,1e-5 4.5e-5,2e-5 6.8e-5,3e-5 1.751221,0.79255 3.466181,0.0935 3.892727,-1.25013 z"
           id="path980" />
        <path
           style="fill:#ff6800;fill-opacity:1;fill-rule:evenodd;stroke-width:0.125027"
           d="m 17.366273,184.32296 c 0.807778,-0.96836 0.576577,-2.49987 -0.318248,-3.44139 -2.1e-5,-3e-5 -4.2e-5,-5e-5 -6.2e-5,-7e-5 -0.935551,-0.9843 -2.412841,-1.25429 -3.424608,-0.48746 l -6.8e-5,5e-5 c -1.007032,0.76328 -1.080719,2.4198 0.09682,3.65527 2.5e-5,2e-5 5e-5,5e-5 7.5e-5,8e-5 1.179078,1.23702 2.837735,1.24256 3.646088,0.27352 z"
           id="path982" />
        <path
           style="fill:#ff9300;fill-opacity:1;fill-rule:evenodd;stroke-width:0.125027"
           d="m 11.569031,177.19439 c 0.984519,-0.52925 1.302484,-1.82478 0.819438,-2.95088 -8e-6,-2e-5 -1.6e-5,-4e-5 -2.4e-5,-6e-5 -0.483045,-1.12603 -1.647408,-1.79285 -2.7061585,-1.43887 l -1.08e-4,3e-5 c -1.0558289,0.35307 -1.5793348,1.69421 -1.0071297,3.03038 2.37e-5,5e-5 4.74e-5,1.1e-4 7.1e-5,1.6e-4 0.5573229,1.30125 1.9094432,1.88847 2.8939112,1.35924 z"
           id="path984" />
        <path
           style="fill:#ffc500;fill-opacity:1;fill-rule:evenodd;stroke-width:0.125027"
           d="m 8.5710162,168.49501 c 0.9516322,-0.17848 1.5559358,-1.19013 1.4163889,-2.27355 -3.5e-6,-2e-5 -4.5e-6,-4e-5 -8e-6,-5e-5 -0.1395718,-1.0834 -0.9827838,-1.91174 -1.9475665,-1.84052 l -1.419e-4,1e-5 c -0.9625346,0.0712 -1.6866636,1.0753 -1.5311533,2.28768 8.6e-6,6e-5 1.7e-5,1.3e-4 2.57e-5,2e-4 0.1528061,1.19057 1.1109071,2.0047 2.0624551,1.82623 z"
           id="path986" />
        <path
           style="fill:#ffdd00;fill-opacity:1;fill-rule:evenodd;stroke-width:0.125027"
           d="m 7.9740222,159.28596 c 0.8138433,0.0368 1.5048132,-0.6893 1.5822837,-1.62094 3e-6,-1e-5 3.3e-6,-2e-5 3.9e-6,-3e-5 0.077469,-0.93161 -0.485556,-1.76358 -1.2953278,-1.85981 l -1.979e-4,-2e-5 c -0.8096739,-0.0961 -1.564268,0.62561 -1.645801,1.61661 -6.2e-6,8e-5 -1.48e-5,1.6e-4 -2.09e-5,2.4e-4 -0.081412,0.99097 0.5453038,1.82719 1.35906,1.86395 z"
           id="path988" />
        <path
           d="m 2.7923418,145.99447 c 0.4870155,0.45268 1.3059584,0.36081 1.8440771,-0.19131 0.5381159,-0.55212 0.6092546,-1.37327 0.1447256,-1.84801 -0.4645291,-0.47474 -1.3071041,-0.40696 -1.8677093,0.16721 -0.5606052,0.57418 -0.608106,1.41943 -0.1210934,1.87211 z"
           style="fill:#fff15e;fill-opacity:1;fill-rule:evenodd;stroke-width:0.052838"
           id="path992" />
        <path
           id="path994"
           style="fill:#ff0000;fill-rule:evenodd;stroke-width:0.125027"
           d="m 4.7280006,193.23324 c 0.7973171,-1.34738 0.1968976,-3.18571 -1.1285947,-4.15744 -1.3157481,-0.96458 -3.24194201,-0.9878 -4.29675892,0.1633 -1.05791768,1.15448 -0.77577688,3.19248 0.9214144,4.43809 1.68821662,1.23902 3.70895342,0.89949 4.50393922,-0.44395 z" />
        <path
           id="path996"
           d="m -2.4686869,187.46655 c 1.0470479,-0.95568 1.0455687,-2.62775 0.1740862,-3.84858 -1.99e-5,-3e-5 -4.27e-5,-6e-5 -6.55e-5,-9e-5 -0.4672423,-0.65447 -1.1337789,-1.09426 -1.8507062,-1.27378 -0.606738,-0.14905 -1.2676972,-0.11767 -1.8399175,0.18775 l -2.54e-5,1e-5 c -0.5753807,0.30711 -0.9634187,0.84243 -1.1022365,1.51461 -0.161512,0.7883 0.033356,1.73479 0.6225572,2.55629 1.42e-5,2e-5 2.88e-5,4e-5 4.33e-5,6e-5 1.1203271,1.56198 2.9550363,1.81409 3.9962644,0.86373 z"
           style="fill:#ff3800;fill-opacity:1;fill-rule:evenodd;stroke-width:0.125027" />
        <path
           id="path998"
           d="m -7.2719156,179.65541 c 1.1837343,-0.43473 1.7492609,-1.87665 1.4450833,-3.13945 -7.1e-6,-3e-5 -1.42e-5,-6e-5 -2.14e-5,-9e-5 -0.3180578,-1.32021 -1.4624355,-2.29267 -2.7220658,-2.13446 l -8.46e-5,1e-5 c -1.2537562,0.15751 -2.1458309,1.55525 -1.7437829,3.21397 9e-6,4e-5 1.7e-5,7e-5 2.6e-5,1.1e-4 0.4025988,1.66083 1.8362688,2.49496 3.0208454,2.05991 z"
           style="fill:#ff6800;fill-opacity:1;fill-rule:evenodd;stroke-width:0.125027" />
        <path
           id="path1000"
           d="m -8.7281932,170.58328 c 1.1172457,0.0339 2.0403749,-0.92907 2.1850948,-2.14582 2.3e-6,-2e-5 4.8e-6,-4e-5 7.4e-6,-6e-5 0.1446871,-1.2167 -0.530271,-2.37636 -1.6241627,-2.59919 l -1.118e-4,-2e-5 c -1.090908,-0.22215 -2.2148485,0.67756 -2.3873875,2.12082 -7e-6,6e-5 -1.4e-5,1.2e-4 -2.1e-5,1.8e-4 -0.167968,1.40557 0.709392,2.59018 1.8265808,2.62409 z"
           style="fill:#ff9300;fill-opacity:1;fill-rule:evenodd;stroke-width:0.125027" />
        <path
           id="path1002"
           d="m -6.9748597,161.55038 c 0.9133792,0.32125 1.9425464,-0.25271 2.363405,-1.26076 5.7e-6,-1e-5 1.42e-5,-3e-5 1.99e-5,-5e-5 0.4208273,-1.00803 0.1047516,-2.147 -0.7663832,-2.56771 l -1.283e-4,-7e-5 c -0.8691575,-0.41964 -1.9983432,0.0879 -2.4698562,1.21561 -2.59e-5,7e-5 -5.19e-5,1.3e-4 -7.78e-5,1.9e-4 -0.4629527,1.10747 -0.040278,2.29158 0.8730206,2.61279 z"
           style="fill:#ffc500;fill-opacity:1;fill-rule:evenodd;stroke-width:0.125027" />
        <path
           id="path1004"
           d="m -2.8873481,153.27662 c 0.6864239,0.43876 1.6478607,0.15545 2.18076965,-0.61264 8.55e-6,-1e-5 1.425e-5,-2e-5 1.995e-5,-2e-5 0.53289184,-0.76806 0.4612829,-1.77008 -0.19188438,-2.25831 l -1.596e-4,-1.2e-4 c -0.65315592,-0.48804 -1.66750292,-0.24033 -2.23360852,0.57713 -4.56e-5,6e-5 -9.41e-5,1.3e-4 -1.397e-4,2e-4 -0.5659888,0.81749 -0.4413472,1.85504 0.2450026,2.29376 z"
           style="fill:#ffdd00;fill-opacity:1;fill-rule:evenodd;stroke-width:0.125027" />
        <path
           id="path1008"
           style="fill:#fff15e;fill-opacity:1;fill-rule:evenodd;stroke-width:0.052838"
           d="m -0.72906853,139.175 c 0.19542642,0.63554 0.95058637,0.96545 1.69267137,0.75636 0.74208256,-0.20909 1.21426626,-0.88466 1.04934166,-1.52806 -0.1649248,-0.6434 -0.9285031,-1.00599 -1.70108976,-0.78905 -0.77258661,0.21695 -1.23634696,0.92521 -1.04092327,1.56075 z" />
        <path
           d="m -22.672125,181.0528 c 1.364186,-0.7682 1.763374,-2.66045 1.101327,-4.16474 -0.657181,-1.49322 -2.313701,-2.47643 -3.802749,-2.00696 -1.493427,0.47085 -2.268082,2.37688 -1.421077,4.3042 0.842529,1.91714 2.762304,2.63346 4.122499,1.8675 z"
           style="fill:#ff0000;fill-rule:evenodd;stroke-width:0.125027"
           id="path1010" />
        <path
           style="fill:#ff3800;fill-opacity:1;fill-rule:evenodd;stroke-width:0.125027"
           d="m -26.021291,172.46036 c 1.384607,-0.30412 2.219364,-1.75292 2.07505,-3.24592 -2e-6,-4e-5 -4e-6,-8e-5 -8e-6,-1.2e-4 -0.07741,-0.80041 -0.434756,-1.51454 -0.965869,-2.02848 -0.450929,-0.43244 -1.039023,-0.73575 -1.687292,-0.75736 h -2.9e-5 c -0.651849,-0.0217 -1.255561,0.24786 -1.711868,0.76057 -0.534023,0.60193 -0.838508,1.51905 -0.738998,2.5251 3e-6,2e-5 5e-6,4e-5 8e-6,7e-5 0.189242,1.91288 1.652092,3.04856 3.029006,2.74614 z"
           id="path1012" />
        <path
           style="fill:#ff6800;fill-opacity:1;fill-rule:evenodd;stroke-width:0.125027"
           d="m -26.275444,163.2941 c 1.242511,0.21538 2.453232,-0.7506 2.821206,-1.9963 10e-6,-3e-5 1.8e-5,-6e-5 2.6e-5,-9e-5 0.384658,-1.30236 -0.120172,-2.71673 -1.290148,-3.20953 l -7.9e-5,-3e-5 c -1.164538,-0.49048 -2.635969,0.27397 -3.117144,1.91148 -9e-6,4e-5 -2.1e-5,8e-5 -3e-5,1.1e-4 -0.481756,1.63962 0.342776,3.07883 1.586169,3.29436 z"
           id="path1014" />
        <path
           style="fill:#ff9300;fill-opacity:1;fill-rule:evenodd;stroke-width:0.125027"
           d="m -23.000548,154.70926 c 0.950608,0.58799 2.231549,0.2156 2.965257,-0.76578 1.2e-5,-2e-5 2.5e-5,-4e-5 3.7e-5,-5e-5 0.73365,-0.98135 0.728951,-2.32312 -0.106974,-3.06304 l -8.5e-5,-8e-5 c -0.83368,-0.73784 -2.256896,-0.52064 -3.127947,0.64299 -3.6e-5,5e-5 -7.2e-5,9e-5 -1.08e-4,1.4e-4 -0.848252,1.13328 -0.68074,2.59786 0.26982,3.18582 z"
           id="path1016" />
        <path
           style="fill:#ffc500;fill-opacity:1;fill-rule:evenodd;stroke-width:0.125027"
           d="m -16.96567,147.76322 c 0.630386,0.73489 1.808653,0.75241 2.677148,0.0899 1.3e-5,-1e-5 2.9e-5,-2e-5 4.3e-5,-4e-5 0.868466,-0.66257 1.164218,-1.80698 0.620151,-2.6069 l -8e-5,-1.1e-4 c -0.54289,-0.79801 -1.774568,-0.92305 -2.746763,-0.18218 -5.3e-5,4e-5 -1.07e-4,8e-5 -1.6e-4,1.2e-4 -0.954664,0.72762 -1.18067,1.96442 -0.550339,2.69926 z"
           id="path1018" />
        <path
           style="fill:#ffdd00;fill-opacity:1;fill-rule:evenodd;stroke-width:0.125027"
           d="m -9.2888988,142.64168 c 0.3750777,0.72319 1.3493652,0.95855 2.1949201,0.55983 1.18e-5,-1e-5 2.13e-5,-1e-5 3.07e-5,-2e-5 0.8455265,-0.39871 1.2845213,-1.30229 0.9629742,-2.05169 l -7.85e-5,-1.8e-4 c -0.3216252,-0.74924 -1.3239317,-1.04189 -2.2229224,-0.617 -7.29e-5,3e-5 -1.482e-4,7e-5 -2.21e-4,1e-4 -0.8989091,0.42498 -1.3097395,1.38584 -0.9347031,2.10896 z"
           id="path1020" />
        <path
           d="m -0.36896339,131.50846 c -0.14852699,0.6481 0.34050556,1.3114 1.08771576,1.50136 0.74720883,0.18996 1.49391623,-0.15901 1.67278753,-0.79867 0.1788708,-0.63966 -0.3011106,-1.33547 -1.0786647,-1.53388 -0.77755409,-0.19841 -1.53330973,0.18308 -1.68183859,0.83119 z"
           style="fill:#fff15e;fill-opacity:1;fill-rule:evenodd;stroke-width:0.052838"
           id="path1024" />
        <path
           id="path1026"
           style="fill:#ff0000;fill-rule:evenodd;stroke-width:0.125027"
           d="m -40.31111,156.80417 c 1.565522,0.0168 2.857356,-1.42234 3.036149,-3.05611 0.177477,-1.62176 -0.765507,-3.30151 -2.289796,-3.63946 -1.528773,-0.33894 -3.152657,0.9244 -3.382791,3.01702 -0.228915,2.08155 1.075496,3.66179 2.636438,3.67855 z" />
        <path
           id="path1028"
           d="m -38.915349,147.68831 c 1.351162,0.42893 2.798483,-0.40839 3.420006,-1.77352 1.7e-5,-4e-5 3.5e-5,-7e-5 5.1e-5,-1.1e-4 0.333164,-0.73188 0.380761,-1.52901 0.177772,-2.23965 -0.174294,-0.59997 -0.531943,-1.15669 -1.082557,-1.49954 l -2.5e-5,-1e-5 c -0.553655,-0.34474 -1.211277,-0.41313 -1.862805,-0.19726 -0.763444,0.25427 -1.485696,0.89628 -1.902539,1.81729 -10e-6,3e-5 -2e-5,5e-5 -3e-5,7e-5 -0.79255,1.75122 -0.09353,3.46618 1.250127,3.89273 z"
           style="fill:#ff3800;fill-opacity:1;fill-rule:evenodd;stroke-width:0.125027" />
        <path
           id="path1030"
           d="m -34.552325,139.62303 c 0.968356,0.80777 2.499861,0.57657 3.441388,-0.31825 2.3e-5,-2e-5 4.5e-5,-4e-5 6.6e-5,-7e-5 0.984305,-0.93555 1.254291,-2.41284 0.487463,-3.4246 l -5.2e-5,-7e-5 c -0.763281,-1.00703 -2.419801,-1.08072 -3.655268,0.0968 -2.5e-5,3e-5 -5.3e-5,5e-5 -7.8e-5,8e-5 -1.237025,1.17907 -1.242563,2.83773 -0.273519,3.64609 z"
           style="fill:#ff6800;fill-opacity:1;fill-rule:evenodd;stroke-width:0.125027" />
        <path
           id="path1032"
           d="m -27.423763,133.82578 c 0.529256,0.98452 1.824782,1.30249 2.950881,0.81944 1.9e-5,-1e-5 3.8e-5,-1e-5 5.8e-5,-2e-5 1.126032,-0.48305 1.792851,-1.64741 1.438878,-2.70616 l -3.6e-5,-1.1e-4 c -0.353067,-1.05583 -1.69421,-1.57933 -3.030375,-1.00713 -5.5e-5,2e-5 -1.11e-4,5e-5 -1.66e-4,7e-5 -1.301248,0.55732 -1.888468,1.90944 -1.35924,2.89391 z"
           style="fill:#ff9300;fill-opacity:1;fill-rule:evenodd;stroke-width:0.125027" />
        <path
           id="path1034"
           d="m -18.724381,130.82777 c 0.178483,0.95163 1.190133,1.55593 2.273552,1.41639 1.7e-5,-1e-5 3.6e-5,-1e-5 5.4e-5,-1e-5 1.0834,-0.13957 1.911734,-0.98278 1.840517,-1.94757 l -10e-6,-1.4e-4 c -0.07116,-0.96253 -1.0753,-1.68666 -2.287677,-1.53115 -6.7e-5,1e-5 -1.34e-4,1e-5 -2.01e-4,2e-5 -1.190573,0.15281 -2.004702,1.11091 -1.826235,2.06246 z"
           style="fill:#ffc500;fill-opacity:1;fill-rule:evenodd;stroke-width:0.125027" />
        <path
           id="path1036"
           d="m -9.5153344,130.23077 c -0.03677,0.81385 0.6893084,1.50482 1.6209435,1.58229 1.19e-5,0 2.27e-5,0 3.32e-5,0 0.9316031,0.0775 1.7635733,-0.48555 1.8598047,-1.29533 l 2.36e-5,-1.9e-4 c 0.096085,-0.80968 -0.6256141,-1.56427 -1.6166061,-1.6458 -8.06e-5,-10e-6 -1.625e-4,-2e-5 -2.431e-4,-3e-5 -0.9909674,-0.0814 -1.8271882,0.54531 -1.8639558,1.35906 z"
           style="fill:#ffdd00;fill-opacity:1;fill-rule:evenodd;stroke-width:0.125027" />
        <path
           id="path1040"
           style="fill:#fff15e;fill-opacity:1;fill-rule:evenodd;stroke-width:0.052838"
           d="m 3.7761681,125.04909 c -0.4526827,0.48702 -0.3608134,1.30596 0.1913076,1.84408 0.5521211,0.53812 1.3732726,0.60926 1.8480113,0.14473 0.4747383,-0.46453 0.4069644,-1.30711 -0.1672122,-1.86771 -0.5741766,-0.56061 -1.4194234,-0.60811 -1.8721067,-0.1211 z" />
        <path
           d="m -43.462603,126.98475 c 1.347377,0.79732 3.185711,0.1969 4.157437,-1.12859 0.96458,-1.31575 0.987805,-3.24194 -0.163294,-4.29676 -1.154486,-1.05792 -3.19248,-0.77578 -4.43809,0.92141 -1.23902,1.68822 -0.899489,3.70896 0.443947,4.50394 z"
           style="fill:#ff0000;fill-rule:evenodd;stroke-width:0.125027"
           id="path1042" />
        <path
           style="fill:#ff3800;fill-opacity:1;fill-rule:evenodd;stroke-width:0.125027"
           d="m -37.695909,119.78807 c 0.955674,1.04704 2.627752,1.04556 3.848575,0.17408 3.1e-5,-2e-5 6.5e-5,-4e-5 9.7e-5,-6e-5 0.654467,-0.46725 1.094252,-1.13378 1.273779,-1.85071 0.149043,-0.60674 0.11767,-1.2677 -0.187752,-1.83992 l -1.4e-5,-2e-5 c -0.30711,-0.57538 -0.842433,-0.96342 -1.514607,-1.10224 -0.788299,-0.16151 -1.734791,0.0334 -2.556296,0.62256 -2e-5,1e-5 -4e-5,3e-5 -6e-5,4e-5 -1.561979,1.12033 -1.814089,2.95504 -0.863722,3.99627 z"
           id="path1044" />
        <path
           style="fill:#ff6800;fill-opacity:1;fill-rule:evenodd;stroke-width:0.125027"
           d="m -29.884777,114.98484 c 0.434732,1.18373 1.876656,1.74926 3.139454,1.44508 3.1e-5,-10e-6 5.9e-5,-10e-6 8.8e-5,-2e-5 1.320208,-0.31806 2.292669,-1.46244 2.13446,-2.72207 l -1.1e-5,-8e-5 c -0.157505,-1.25376 -1.555251,-2.14583 -3.213967,-1.74378 -3.4e-5,0 -7.1e-5,1e-5 -1.05e-4,2e-5 -1.660834,0.4026 -2.494959,1.83627 -2.059919,3.02085 z"
           id="path1046" />
        <path
           style="fill:#ff9300;fill-opacity:1;fill-rule:evenodd;stroke-width:0.125027"
           d="m -20.81264,113.52856 c -0.03391,1.11725 0.929066,2.04037 2.145819,2.18509 2.1e-5,1e-5 4.2e-5,1e-5 6.2e-5,1e-5 1.216695,0.14469 2.376359,-0.53027 2.599185,-1.62416 l 2.2e-5,-1.1e-4 c 0.22215,-1.09091 -0.677561,-2.21485 -2.120817,-2.38739 -5.9e-5,-1e-5 -1.19e-4,-1e-5 -1.79e-4,-2e-5 -1.405575,-0.16797 -2.590183,0.70939 -2.624092,1.82658 z"
           id="path1048" />
        <path
           style="fill:#ffc500;fill-opacity:1;fill-rule:evenodd;stroke-width:0.125027"
           d="m -11.779747,115.28189 c -0.321245,0.91338 0.252718,1.94255 1.26076,2.36341 1.7e-5,0 3.4e-5,10e-6 5.1e-5,2e-5 1.0080372,0.42083 2.1470022,0.10475 2.5677177,-0.76639 l 6.18e-5,-1.2e-4 c 0.4196442,-0.86916 -0.087905,-1.99835 -1.2156098,-2.46986 -6.21e-5,-3e-5 -1.24e-4,-5e-5 -1.861e-4,-8e-5 -1.1074696,-0.46295 -2.2915776,-0.0403 -2.6127946,0.87302 z"
           id="path1050" />
        <path
           style="fill:#ffdd00;fill-opacity:1;fill-rule:evenodd;stroke-width:0.125027"
           d="m -3.505981,119.3694 c -0.4387656,0.68643 -0.155448,1.64787 0.6126364,2.18077 8.9e-6,1e-5 1.8e-5,2e-5 2.68e-5,2e-5 0.7680574,0.5329 1.7700773,0.46129 2.25830204,-0.19188 l 1.1942e-4,-1.6e-4 c 0.48804861,-0.65316 0.24033627,-1.6675 -0.57712146,-2.23361 -6.67e-5,-4e-5 -1.334e-4,-9e-5 -2.001e-4,-1.4e-4 -0.8174968,-0.56599 -1.8550433,-0.44134 -2.2937631,0.245 z"
           id="path1052" />
        <path
           d="m 10.595639,121.52769 c -0.6355427,0.19542 -0.965453,0.95058 -0.7563616,1.69267 0.2090926,0.74208 0.8846616,1.21427 1.5280616,1.04934 0.6434,-0.16492 1.005994,-0.9285 0.789045,-1.70109 -0.216949,-0.77259 -0.925204,-1.23635 -1.560745,-1.04092 z"
           style="fill:#fff15e;fill-opacity:1;fill-rule:evenodd;stroke-width:0.052838"
           id="path1056" />
        <path
           id="path1058"
           style="fill:#ff0000;fill-rule:evenodd;stroke-width:0.125027"
           d="m -31.282166,99.584631 c 0.768204,1.364189 2.660458,1.763379 4.164743,1.101329 1.493225,-0.65718 2.476435,-2.313703 2.006964,-3.802751 -0.470857,-1.493427 -2.376881,-2.268082 -4.304206,-1.421077 -1.917132,0.842529 -2.633458,2.762304 -1.867501,4.122499 z" />
        <path
           id="path1060"
           d="m -22.689719,96.235465 c 0.304115,1.384607 1.752915,2.219364 3.245921,2.07505 3.7e-5,-2e-6 7.8e-5,-4e-6 1.16e-4,-8e-6 0.800406,-0.07741 1.51454,-0.434756 2.028479,-0.965869 0.432444,-0.450929 0.735754,-1.039023 0.75736,-1.687292 l 1e-6,-2.9e-5 c 0.02172,-0.651849 -0.247859,-1.255561 -0.76057,-1.711868 -0.601931,-0.534023 -1.519051,-0.838508 -2.525096,-0.738998 -2.4e-5,3e-6 -4.9e-5,5e-6 -7.3e-5,8e-6 -1.912877,0.189242 -3.048566,1.652092 -2.746138,3.029006 z"
           style="fill:#ff3800;fill-opacity:1;fill-rule:evenodd;stroke-width:0.125027" />
        <path
           id="path1062"
           d="m -13.523466,95.981312 c -0.215378,1.242511 0.750601,2.453232 1.996305,2.821206 3.1e-5,10e-6 5.9e-5,1.8e-5 8.7e-5,2.6e-5 1.302363,0.384658 2.7167276,-0.120172 3.2095299,-1.290148 l 3.24e-5,-7.9e-5 c 0.4904748,-1.164538 -0.2739708,-2.635969 -1.9114853,-3.117144 -3.4e-5,-9e-6 -7e-5,-2.1e-5 -1.04e-4,-3e-5 -1.639624,-0.481756 -3.078832,0.342776 -3.294365,1.586169 z"
           style="fill:#ff6800;fill-opacity:1;fill-rule:evenodd;stroke-width:0.125027" />
        <path
           id="path1064"
           d="m -4.9386255,99.256208 c -0.5879904,0.950612 -0.2155935,2.231552 0.7657861,2.965252 1.69e-5,2e-5 3.34e-5,3e-5 5.01e-5,4e-5 0.9813448,0.73365 2.3231223,0.72895 3.063041,-0.10697 l 7.54e-5,-9e-5 c 0.73784123,-0.83368 0.52063937,-2.256893 -0.6429876,-3.127944 -4.8e-5,-3.6e-5 -9.63e-5,-7.2e-5 -1.443e-4,-1.08e-4 -1.1332797,-0.848252 -2.5978604,-0.68074 -3.1858207,0.26982 z"
           style="fill:#ff9300;fill-opacity:1;fill-rule:evenodd;stroke-width:0.125027" />
        <path
           id="path1066"
           d="m 2.0074223,105.29109 c -0.7348962,0.63038 -0.7524132,1.80865 -0.089852,2.67714 1.17e-5,2e-5 2.2e-5,3e-5 3.37e-5,5e-5 0.6625726,0.86846 1.806983,1.16422 2.6069008,0.62015 l 1.176e-4,-8e-5 c 0.7980013,-0.54289 0.9230438,-1.77457 0.1821791,-2.74676 -4.08e-5,-6e-5 -8.14e-5,-1.1e-4 -1.222e-4,-1.7e-4 -0.7276208,-0.95466 -1.9644252,-1.18067 -2.699257,-0.55033 z"
           style="fill:#ffc500;fill-opacity:1;fill-rule:evenodd;stroke-width:0.125027" />
        <path
           id="path1068"
           d="m 7.1289577,112.96786 c -0.7231941,0.37507 -0.9585523,1.34936 -0.5598262,2.19492 3.4e-6,1e-5 8.5e-6,2e-5 1.33e-5,3e-5 0.3987112,0.84552 1.3022904,1.28452 2.0516891,0.96297 l 1.832e-4,-8e-5 c 0.7492404,-0.32162 1.0418887,-1.32393 0.6170024,-2.22292 -3.49e-5,-7e-5 -6.85e-5,-1.5e-4 -1.034e-4,-2.2e-4 -0.4249786,-0.89891 -1.385841,-1.30974 -2.1089584,-0.9347 z"
           style="fill:#ffdd00;fill-opacity:1;fill-rule:evenodd;stroke-width:0.125027" />
        <path
           id="path1072"
           style="fill:#fff15e;fill-opacity:1;fill-rule:evenodd;stroke-width:0.052838"
           d="m 18.262179,121.8878 c -0.648109,-0.14853 -1.3114,0.3405 -1.501364,1.08771 -0.189962,0.74721 0.159006,1.49392 0.79867,1.67279 0.639663,0.17887 1.335467,-0.30111 1.533877,-1.07866 0.19841,-0.77756 -0.183076,-1.53331 -0.831183,-1.68184 z" />
        <path
           d="m -7.0335367,81.94565 c -0.016808,1.565522 1.4223376,2.857356 3.0561101,3.036149 1.6217615,0.177477 3.30150667,-0.765507 3.63945577,-2.289796 C 9.6932053e-4,81.16323 -1.2623686,79.539346 -3.3549842,79.309212 -5.4365329,79.080297 -7.0167767,80.384708 -7.0335367,81.94565 Z"
           style="fill:#ff0000;fill-rule:evenodd;stroke-width:0.125027"
           id="path1074" />
        <path
           style="fill:#ff3800;fill-opacity:1;fill-rule:evenodd;stroke-width:0.125027"
           d="m 2.0823247,83.341411 c -0.428933,1.351162 0.4083866,2.798483 1.7735242,3.420006 3.3e-5,1.7e-5 6.98e-5,3.5e-5 1.052e-4,5.1e-5 0.7318771,0.333164 1.5290074,0.380761 2.2396481,0.177772 0.5999722,-0.174294 1.1566933,-0.531943 1.4995394,-1.082557 l 1.48e-5,-2.5e-5 C 7.9398959,85.303003 8.0082853,84.645381 7.792418,83.993853 7.5381417,83.230409 6.896135,82.508157 5.9751196,82.091314 c -2.23e-5,-1e-5 -4.49e-5,-2e-5 -6.75e-5,-3e-5 -1.7512212,-0.79255 -3.4661812,-0.09353 -3.8927274,1.250127 z"
           id="path1076" />
        <path
           style="fill:#ff6800;fill-opacity:1;fill-rule:evenodd;stroke-width:0.125027"
           d="m 10.147609,87.704435 c -0.8077781,0.968356 -0.576577,2.499861 0.318248,3.441388 2.1e-5,2.3e-5 4.2e-5,4.5e-5 6.2e-5,6.6e-5 0.935551,0.984305 2.412841,1.254291 3.424608,0.487463 l 6.8e-5,-5.2e-5 c 1.007032,-0.763281 1.080719,-2.419801 -0.09682,-3.655268 -2.5e-5,-2.5e-5 -5e-5,-5.3e-5 -7.5e-5,-7.8e-5 -1.179078,-1.237025 -2.837735,-1.242563 -3.646088,-0.273519 z"
           id="path1078" />
        <path
           style="fill:#ff9300;fill-opacity:1;fill-rule:evenodd;stroke-width:0.125027"
           d="m 15.944851,94.832997 c -0.984519,0.529256 -1.302484,1.824782 -0.819438,2.950881 8e-6,1.9e-5 1.6e-5,3.8e-5 2.4e-5,5.8e-5 0.483045,1.126032 1.647408,1.792851 2.706159,1.438878 l 1.08e-4,-3.6e-5 c 1.055828,-0.353067 1.579334,-1.69421 1.007129,-3.030375 -2.3e-5,-5.5e-5 -4.7e-5,-1.11e-4 -7.1e-5,-1.66e-4 -0.557323,-1.301248 -1.909443,-1.888468 -2.893911,-1.35924 z"
           id="path1080" />
        <path
           style="fill:#ffc500;fill-opacity:1;fill-rule:evenodd;stroke-width:0.125027"
           d="m 18.942866,103.53238 c -0.951632,0.17848 -1.555936,1.19013 -1.416389,2.27355 3e-6,2e-5 4e-6,4e-5 8e-6,5e-5 0.139572,1.0834 0.982784,1.91174 1.947566,1.84052 l 1.42e-4,-1e-5 c 0.962535,-0.0712 1.686664,-1.0753 1.531154,-2.28768 -9e-6,-6e-5 -1.7e-5,-1.3e-4 -2.6e-5,-2e-4 -0.152806,-1.19057 -1.110907,-2.0047 -2.062455,-1.82623 z"
           id="path1082" />
        <path
           style="fill:#ffdd00;fill-opacity:1;fill-rule:evenodd;stroke-width:0.125027"
           d="m 19.53986,112.74143 c -0.813843,-0.0368 -1.504813,0.6893 -1.582284,1.62094 -3e-6,1e-5 -3e-6,2e-5 -4e-6,3e-5 -0.07747,0.93161 0.485556,1.76358 1.295328,1.85981 l 1.98e-4,2e-5 c 0.809674,0.0961 1.564268,-0.62561 1.645801,-1.61661 6e-6,-8e-5 1.5e-5,-1.6e-4 2.1e-5,-2.4e-4 0.08141,-0.99097 -0.545304,-1.82719 -1.35906,-1.86395 z"
           id="path1084" />
      </g>
      <g
         id="g1716"
         transform="translate(-174.89717,-12.81004)">
        <path
           id="path1186"
           style="fill:#00ccff;fill-rule:evenodd;stroke-width:0.052838"
           d="m 199.6187,138.84296 c -0.48701,-0.45268 -1.30595,-0.36081 -1.84407,0.19131 -0.53812,0.55212 -0.60926,1.37327 -0.14473,1.84801 0.46453,0.47474 1.30711,0.40696 1.86771,-0.16721 0.56061,-0.57418 0.60811,-1.41943 0.12109,-1.87211 z" />
        <path
           d="m 197.68305,91.604189 c -0.79732,1.347377 -0.1969,3.185711 1.12859,4.157437 1.31575,0.96458 3.24194,0.987805 4.29676,-0.163294 1.05792,-1.154486 0.77578,-3.19248 -0.92142,-4.43809 -1.68821,-1.23902 -3.70895,-0.899489 -4.50393,0.443947 z"
           style="fill:#0000ff;fill-rule:evenodd;stroke-width:0.125027"
           id="path1188" />
        <path
           style="fill:#243cff;fill-opacity:1;fill-rule:evenodd;stroke-width:0.125027"
           d="m 204.87973,97.370883 c -1.04704,0.955674 -1.04557,2.627752 -0.17408,3.848577 2e-5,3e-5 4e-5,6e-5 6e-5,9e-5 0.46724,0.65447 1.13378,1.09426 1.85071,1.27378 0.60674,0.14905 1.2677,0.11767 1.83992,-0.18775 l 2e-5,-1e-5 c 0.57538,-0.30711 0.96342,-0.84243 1.10224,-1.51461 0.16151,-0.7883 -0.0334,-1.73479 -0.62256,-2.556295 -1e-5,-2e-5 -3e-5,-4e-5 -4e-5,-6e-5 -1.12033,-1.561979 -2.95504,-1.814089 -3.99627,-0.863722 z"
           id="path1190" />
        <path
           style="fill:#2443ff;fill-opacity:1;fill-rule:evenodd;stroke-width:0.125027"
           d="m 209.68296,105.18202 c -1.18373,0.43473 -1.74926,1.87665 -1.44508,3.13945 1e-5,3e-5 1e-5,6e-5 2e-5,9e-5 0.31806,1.32021 1.46244,2.29267 2.72207,2.13446 l 8e-5,-10e-6 c 1.25376,-0.15751 2.14583,-1.55525 1.74378,-3.21397 -1e-5,-4e-5 -1e-5,-7e-5 -2e-5,-1.1e-4 -0.4026,-1.66083 -1.83627,-2.49496 -3.02085,-2.05991 z"
           id="path1192" />
        <path
           style="fill:#3366ff;fill-opacity:1;fill-rule:evenodd;stroke-width:0.125027"
           d="m 211.13924,114.25415 c -1.11725,-0.0339 -2.04038,0.92907 -2.1851,2.14582 0,2e-5 0,4e-5 0,6e-5 -0.14469,1.2167 0.53027,2.37636 1.62416,2.59919 l 1.1e-4,2e-5 c 1.09091,0.22215 2.21485,-0.67756 2.38739,-2.12082 1e-5,-6e-5 1e-5,-1.2e-4 2e-5,-1.8e-4 0.16797,-1.40557 -0.70939,-2.59018 -1.82658,-2.62409 z"
           id="path1194" />
        <path
           style="fill:#2288ff;fill-opacity:1;fill-rule:evenodd;stroke-width:0.125027"
           d="m 209.38591,123.28705 c -0.91338,-0.32125 -1.94255,0.25271 -2.36341,1.26076 0,1e-5 -1e-5,3e-5 -2e-5,5e-5 -0.42083,1.00803 -0.10475,2.147 0.76638,2.56771 l 1.3e-4,7e-5 c 0.86916,0.41964 1.99835,-0.0879 2.46986,-1.21561 2e-5,-7e-5 5e-5,-1.3e-4 8e-5,-1.9e-4 0.46295,-1.10747 0.0403,-2.29158 -0.87302,-2.61279 z"
           id="path1196" />
        <path
           style="fill:#11a9ff;fill-opacity:1;fill-rule:evenodd;stroke-width:0.125027"
           d="m 205.29839,131.56081 c -0.68642,-0.43876 -1.64786,-0.15545 -2.18077,0.61264 0,1e-5 -10e-6,2e-5 -2e-5,2e-5 -0.53289,0.76806 -0.46128,1.77008 0.19189,2.25831 l 1.6e-4,1.2e-4 c 0.65315,0.48804 1.6675,0.24033 2.23361,-0.57713 4e-5,-6e-5 9e-5,-1.3e-4 1.4e-4,-2e-4 0.56599,-0.81749 0.44134,-1.85504 -0.24501,-2.29376 z"
           id="path1198" />
        <path
           d="m 203.14011,145.66243 c -0.19543,-0.63554 -0.95059,-0.96545 -1.69267,-0.75636 -0.74208,0.20909 -1.21427,0.88466 -1.04934,1.52806 0.16492,0.6434 0.9285,1.00599 1.70109,0.78905 0.77258,-0.21695 1.23634,-0.92521 1.04092,-1.56075 z"
           style="fill:#00ccff;fill-rule:evenodd;stroke-width:0.052838"
           id="path1202" />
        <path
           id="path1204"
           style="fill:#0000ff;fill-rule:evenodd;stroke-width:0.125027"
           d="m 225.08317,103.78463 c -1.36419,0.7682 -1.76338,2.66045 -1.10133,4.16474 0.65718,1.49322 2.3137,2.47643 3.80275,2.00696 1.49343,-0.47085 2.26808,-2.37688 1.42108,-4.3042 -0.84253,-1.91714 -2.76231,-2.63346 -4.1225,-1.8675 z" />
        <path
           id="path1206"
           d="m 228.43233,112.37707 c -1.3846,0.30412 -2.21936,1.75292 -2.07505,3.24592 0,4e-5 1e-5,8e-5 1e-5,1.2e-4 0.0774,0.80041 0.43476,1.51454 0.96587,2.02848 0.45093,0.43244 1.03902,0.73575 1.68729,0.75736 h 3e-5 c 0.65185,0.0217 1.25556,-0.24786 1.71187,-0.76057 0.53402,-0.60193 0.83851,-1.51905 0.739,-2.5251 -1e-5,-2e-5 -1e-5,-4e-5 -1e-5,-7e-5 -0.18924,-1.91288 -1.65209,-3.04856 -3.02901,-2.74614 z"
           style="fill:#243cff;fill-opacity:1;fill-rule:evenodd;stroke-width:0.125027" />
        <path
           id="path1208"
           d="m 228.68649,121.54333 c -1.24251,-0.21538 -2.45324,0.7506 -2.82121,1.9963 -1e-5,3e-5 -2e-5,6e-5 -3e-5,9e-5 -0.38465,1.30236 0.12018,2.71673 1.29015,3.20953 l 8e-5,3e-5 c 1.16454,0.49048 2.63597,-0.27397 3.11714,-1.91148 1e-5,-4e-5 3e-5,-8e-5 4e-5,-1.1e-4 0.48175,-1.63962 -0.34278,-3.07883 -1.58617,-3.29436 z"
           style="fill:#2443ff;fill-opacity:1;fill-rule:evenodd;stroke-width:0.125027" />
        <path
           id="path1210"
           d="m 225.41159,130.12817 c -0.95061,-0.58799 -2.23155,-0.2156 -2.96526,0.76578 -1e-5,2e-5 -2e-5,4e-5 -3e-5,5e-5 -0.73365,0.98135 -0.72896,2.32312 0.10697,3.06304 l 9e-5,8e-5 c 0.83367,0.73784 2.25689,0.52064 3.12794,-0.64299 4e-5,-5e-5 7e-5,-9e-5 1.1e-4,-1.4e-4 0.84825,-1.13328 0.68074,-2.59786 -0.26982,-3.18582 z"
           style="fill:#3366ff;fill-opacity:1;fill-rule:evenodd;stroke-width:0.125027" />
        <path
           id="path1212"
           d="m 219.37671,137.07421 c -0.63038,-0.73489 -1.80865,-0.75241 -2.67715,-0.0898 -1e-5,1e-5 -3e-5,2e-5 -4e-5,4e-5 -0.86846,0.66257 -1.16422,1.80698 -0.62015,2.6069 l 8e-5,1.1e-4 c 0.54289,0.79801 1.77457,0.92305 2.74676,0.18218 6e-5,-4e-5 1.1e-4,-8e-5 1.6e-4,-1.2e-4 0.95467,-0.72762 1.18067,-1.96442 0.55034,-2.69926 z"
           style="fill:#2288ff;fill-opacity:1;fill-rule:evenodd;stroke-width:0.125027" />
        <path
           id="path1214"
           d="m 211.69994,142.19575 c -0.37508,-0.72319 -1.34936,-0.95855 -2.19492,-0.55983 -1e-5,1e-5 -2e-5,1e-5 -3e-5,2e-5 -0.84553,0.39871 -1.28452,1.30229 -0.96297,2.05169 l 7e-5,1.8e-4 c 0.32163,0.74924 1.32394,1.04189 2.22293,0.617 7e-5,-3e-5 1.4e-4,-7e-5 2.2e-4,-1e-4 0.89891,-0.42498 1.30974,-1.38584 0.9347,-2.10896 z"
           style="fill:#11a9ff;fill-opacity:1;fill-rule:evenodd;stroke-width:0.125027" />
        <path
           id="path1218"
           style="fill:#00ccff;fill-rule:evenodd;stroke-width:0.052838"
           d="m 202.78,153.32897 c 0.14853,-0.64811 -0.3405,-1.3114 -1.08771,-1.50136 -0.74721,-0.18996 -1.49392,0.159 -1.67279,0.79867 -0.17887,0.63966 0.30111,1.33546 1.07866,1.53387 0.77756,0.19841 1.53331,-0.18307 1.68184,-0.83118 z" />
        <path
           d="m 242.72215,128.03326 c -1.56552,-0.0168 -2.85736,1.42233 -3.03615,3.05611 -0.17748,1.62176 0.76551,3.3015 2.2898,3.63945 1.52877,0.33894 3.15265,-0.9244 3.38279,-3.01701 0.22891,-2.08155 -1.0755,-3.66179 -2.63644,-3.67855 z"
           style="fill:#0000ff;fill-rule:evenodd;stroke-width:0.125027"
           id="path1220" />
        <path
           style="fill:#243cff;fill-opacity:1;fill-rule:evenodd;stroke-width:0.125027"
           d="m 241.32639,137.14912 c -1.35116,-0.42894 -2.79848,0.40838 -3.42001,1.77352 -1e-5,3e-5 -3e-5,7e-5 -5e-5,1.1e-4 -0.33316,0.73187 -0.38076,1.529 -0.17777,2.23964 0.17429,0.59998 0.53194,1.1567 1.08256,1.49954 l 2e-5,2e-5 c 0.55366,0.34474 1.21128,0.41313 1.86281,0.19726 0.76344,-0.25428 1.48569,-0.89628 1.90254,-1.8173 1e-5,-2e-5 2e-5,-4e-5 3e-5,-7e-5 0.79255,-1.75122 0.0935,-3.46618 -1.25013,-3.89272 z"
           id="path1222" />
        <path
           style="fill:#2443ff;fill-opacity:1;fill-rule:evenodd;stroke-width:0.125027"
           d="m 236.96337,145.2144 c -0.96836,-0.80778 -2.49987,-0.57658 -3.44139,0.31825 -3e-5,2e-5 -5e-5,4e-5 -7e-5,6e-5 -0.9843,0.93555 -1.25429,2.41284 -0.48746,3.42461 l 5e-5,7e-5 c 0.76328,1.00703 2.4198,1.08072 3.65527,-0.0968 2e-5,-2e-5 5e-5,-5e-5 8e-5,-7e-5 1.23702,-1.17908 1.24256,-2.83774 0.27352,-3.64609 z"
           id="path1224" />
        <path
           style="fill:#3366ff;fill-opacity:1;fill-rule:evenodd;stroke-width:0.125027"
           d="m 229.8348,151.01164 c -0.52925,-0.98452 -1.82478,-1.30248 -2.95088,-0.81944 -2e-5,10e-6 -4e-5,2e-5 -6e-5,3e-5 -1.12603,0.48304 -1.79285,1.64741 -1.43887,2.70616 l 3e-5,1.1e-4 c 0.35307,1.05582 1.69421,1.57933 3.03038,1.00713 5e-5,-3e-5 1.1e-4,-5e-5 1.6e-4,-8e-5 1.30125,-0.55732 1.88847,-1.90944 1.35924,-2.89391 z"
           id="path1226" />
        <path
           style="fill:#2288ff;fill-opacity:1;fill-rule:evenodd;stroke-width:0.125027"
           d="m 221.13542,154.00966 c -0.17848,-0.95163 -1.19013,-1.55594 -2.27355,-1.41639 -2e-5,0 -4e-5,0 -5e-5,1e-5 -1.0834,0.13957 -1.91174,0.98278 -1.84052,1.94756 l 1e-5,1.5e-4 c 0.0711,0.96253 1.0753,1.68666 2.28768,1.53115 6e-5,-1e-5 1.3e-4,-2e-5 2e-4,-3e-5 1.19057,-0.1528 2.0047,-1.1109 1.82623,-2.06245 z"
           id="path1228" />
        <path
           style="fill:#11a9ff;fill-opacity:1;fill-rule:evenodd;stroke-width:0.125027"
           d="m 211.92637,154.60665 c 0.0368,-0.81384 -0.6893,-1.50481 -1.62094,-1.58228 -1e-5,0 -2e-5,-1e-5 -3e-5,-1e-5 -0.93161,-0.0775 -1.76358,0.48556 -1.85981,1.29533 l -2e-5,2e-4 c -0.0961,0.80967 0.62561,1.56427 1.61661,1.6458 8e-5,1e-5 1.6e-4,2e-5 2.4e-4,2e-5 0.99097,0.0814 1.82719,-0.5453 1.86395,-1.35906 z"
           id="path1230" />
        <path
           d="m 198.63488,159.78833 c 0.45268,-0.48701 0.36081,-1.30595 -0.19131,-1.84407 -0.55212,-0.53812 -1.37327,-0.60926 -1.84801,-0.14473 -0.47474,0.46453 -0.40696,1.30711 0.16721,1.86771 0.57418,0.56061 1.41943,0.60811 1.87211,0.12109 z"
           style="fill:#00ccff;fill-rule:evenodd;stroke-width:0.052838"
           id="path1234" />
        <path
           id="path1236"
           style="fill:#0000ff;fill-rule:evenodd;stroke-width:0.125027"
           d="m 245.87365,157.85268 c -1.34738,-0.79732 -3.18571,-0.1969 -4.15744,1.12859 -0.96458,1.31575 -0.9878,3.24194 0.1633,4.29676 1.15448,1.05792 3.19248,0.77578 4.43809,-0.92142 1.23902,-1.68821 0.89949,-3.70895 -0.44395,-4.50393 z" />
        <path
           id="path1238"
           d="m 240.10696,165.04936 c -0.95568,-1.04704 -2.62775,-1.04557 -3.84858,-0.17408 -3e-5,2e-5 -6e-5,4e-5 -9e-5,6e-5 -0.65447,0.46724 -1.09426,1.13378 -1.27378,1.85071 -0.14905,0.60674 -0.11767,1.2677 0.18775,1.83992 l 1e-5,2e-5 c 0.30711,0.57538 0.84243,0.96342 1.51461,1.10224 0.7883,0.16151 1.73479,-0.0334 2.55629,-0.62256 2e-5,-1e-5 4e-5,-3e-5 6e-5,-4e-5 1.56198,-1.12033 1.81409,-2.95504 0.86373,-3.99627 z"
           style="fill:#243cff;fill-opacity:1;fill-rule:evenodd;stroke-width:0.125027" />
        <path
           id="path1240"
           d="m 232.29582,169.85259 c -0.43473,-1.18373 -1.87665,-1.74926 -3.13945,-1.44508 -3e-5,1e-5 -6e-5,1e-5 -9e-5,2e-5 -1.32021,0.31806 -2.29267,1.46244 -2.13446,2.72207 l 1e-5,8e-5 c 0.15751,1.25376 1.55525,2.14583 3.21397,1.74378 4e-5,-1e-5 7e-5,-1e-5 1.1e-4,-2e-5 1.66083,-0.4026 2.49496,-1.83627 2.05991,-3.02085 z"
           style="fill:#2443ff;fill-opacity:1;fill-rule:evenodd;stroke-width:0.125027" />
        <path
           id="path1242"
           d="m 223.22369,171.30887 c 0.0339,-1.11725 -0.92907,-2.04038 -2.14582,-2.1851 -2e-5,0 -4e-5,0 -6e-5,0 -1.2167,-0.14469 -2.37636,0.53027 -2.59919,1.62416 l -2e-5,1.1e-4 c -0.22215,1.09091 0.67756,2.21485 2.12082,2.38739 6e-5,10e-6 1.2e-4,10e-6 1.8e-4,2e-5 1.40557,0.16797 2.59018,-0.70939 2.62409,-1.82658 z"
           style="fill:#3366ff;fill-opacity:1;fill-rule:evenodd;stroke-width:0.125027" />
        <path
           id="path1244"
           d="m 214.19079,169.55554 c 0.32125,-0.91338 -0.25271,-1.94255 -1.26076,-2.36341 -10e-6,0 -3e-5,-1e-5 -5e-5,-2e-5 -1.00803,-0.42083 -2.147,-0.10475 -2.56771,0.76638 l -7e-5,1.3e-4 c -0.41964,0.86916 0.0879,1.99835 1.21561,2.46986 7e-5,2e-5 1.3e-4,5e-5 1.9e-4,8e-5 1.10747,0.46295 2.29158,0.0403 2.61279,-0.87302 z"
           style="fill:#2288ff;fill-opacity:1;fill-rule:evenodd;stroke-width:0.125027" />
        <path
           id="path1246"
           d="m 205.91703,165.46802 c 0.43876,-0.68642 0.15545,-1.64786 -0.61264,-2.18077 -1e-5,0 -2e-5,-1e-5 -2e-5,-2e-5 -0.76806,-0.53289 -1.77008,-0.46128 -2.25831,0.19189 l -1.2e-4,1.6e-4 c -0.48804,0.65315 -0.24033,1.6675 0.57713,2.23361 6e-5,4e-5 1.3e-4,9e-5 2e-4,1.4e-4 0.81749,0.56599 1.85504,0.44134 2.29376,-0.24501 z"
           style="fill:#11a9ff;fill-opacity:1;fill-rule:evenodd;stroke-width:0.125027" />
        <path
           id="path1250"
           style="fill:#00ccff;fill-rule:evenodd;stroke-width:0.052838"
           d="m 191.81541,163.30974 c 0.63554,-0.19543 0.96545,-0.95059 0.75636,-1.69267 -0.20909,-0.74208 -0.88466,-1.21427 -1.52806,-1.04934 -0.6434,0.16492 -1.00599,0.9285 -0.78905,1.70109 0.21695,0.77258 0.92521,1.23634 1.56075,1.04092 z" />
        <path
           d="m 233.69321,185.2528 c -0.7682,-1.36419 -2.66045,-1.76338 -4.16474,-1.10133 -1.49322,0.65718 -2.47643,2.3137 -2.00696,3.80275 0.47085,1.49343 2.37688,2.26808 4.3042,1.42108 1.91714,-0.84253 2.63346,-2.76231 1.8675,-4.1225 z"
           style="fill:#0000ff;fill-rule:evenodd;stroke-width:0.125027"
           id="path1252" />
        <path
           style="fill:#243cff;fill-opacity:1;fill-rule:evenodd;stroke-width:0.125027"
           d="m 225.10077,188.60196 c -0.30412,-1.3846 -1.75292,-2.21936 -3.24592,-2.07505 -4e-5,0 -8e-5,1e-5 -1.2e-4,1e-5 -0.80041,0.0774 -1.51454,0.43476 -2.02848,0.96587 -0.43244,0.45093 -0.73575,1.03902 -0.75736,1.68729 v 3e-5 c -0.0217,0.65185 0.24786,1.25556 0.76057,1.71187 0.60193,0.53402 1.51905,0.83851 2.5251,0.739 2e-5,-1e-5 4e-5,-1e-5 7e-5,-1e-5 1.91288,-0.18924 3.04856,-1.65209 2.74614,-3.02901 z"
           id="path1254" />
        <path
           style="fill:#2443ff;fill-opacity:1;fill-rule:evenodd;stroke-width:0.125027"
           d="m 215.93451,188.85612 c 0.21538,-1.24251 -0.7506,-2.45324 -1.9963,-2.82121 -3e-5,-1e-5 -6e-5,-2e-5 -9e-5,-3e-5 -1.30236,-0.38465 -2.71673,0.12018 -3.20953,1.29015 l -3e-5,8e-5 c -0.49048,1.16454 0.27397,2.63597 1.91148,3.11714 4e-5,1e-5 8e-5,3e-5 1.1e-4,4e-5 1.63962,0.48175 3.07883,-0.34278 3.29436,-1.58617 z"
           id="path1256" />
        <path
           style="fill:#3366ff;fill-opacity:1;fill-rule:evenodd;stroke-width:0.125027"
           d="m 207.34967,185.58122 c 0.58799,-0.95061 0.2156,-2.23155 -0.76578,-2.96526 -2e-5,-1e-5 -4e-5,-2e-5 -5e-5,-3e-5 -0.98135,-0.73365 -2.32312,-0.72896 -3.06304,0.10697 l -8e-5,9e-5 c -0.73784,0.83367 -0.52064,2.25689 0.64299,3.12794 5e-5,4e-5 9e-5,7e-5 1.4e-4,1.1e-4 1.13328,0.84825 2.59786,0.68074 3.18582,-0.26982 z"
           id="path1258" />
        <path
           style="fill:#2288ff;fill-opacity:1;fill-rule:evenodd;stroke-width:0.125027"
           d="m 200.40363,179.54634 c 0.73489,-0.63038 0.75241,-1.80865 0.0899,-2.67715 -1e-5,-1e-5 -2e-5,-3e-5 -4e-5,-4e-5 -0.66257,-0.86846 -1.80698,-1.16422 -2.6069,-0.62015 l -1.1e-4,8e-5 c -0.79801,0.54289 -0.92305,1.77457 -0.18218,2.74676 4e-5,6e-5 8e-5,1.1e-4 1.2e-4,1.6e-4 0.72762,0.95467 1.96442,1.18067 2.69926,0.55034 z"
           id="path1260" />
        <path
           style="fill:#11a9ff;fill-opacity:1;fill-rule:evenodd;stroke-width:0.125027"
           d="m 195.28209,171.86957 c 0.72319,-0.37508 0.95855,-1.34936 0.55983,-2.19492 -10e-6,-1e-5 -10e-6,-2e-5 -2e-5,-3e-5 -0.39871,-0.84553 -1.30229,-1.28452 -2.05169,-0.96297 l -1.8e-4,7e-5 c -0.74924,0.32163 -1.04189,1.32394 -0.617,2.22293 3e-5,7e-5 7e-5,1.4e-4 10e-5,2.2e-4 0.42498,0.89891 1.38584,1.30974 2.10896,0.9347 z"
           id="path1262" />
        <path
           d="m 184.14887,162.94963 c 0.64811,0.14853 1.3114,-0.3405 1.50136,-1.08771 0.18996,-0.74721 -0.159,-1.49392 -0.79867,-1.67279 -0.63966,-0.17887 -1.33546,0.30111 -1.53387,1.07866 -0.19841,0.77756 0.18307,1.53331 0.83118,1.68184 z"
           style="fill:#00ccff;fill-rule:evenodd;stroke-width:0.052838"
           id="path1266" />
        <path
           id="path1268"
           style="fill:#0000ff;fill-rule:evenodd;stroke-width:0.125027"
           d="m 209.44458,202.89178 c 0.0168,-1.56552 -1.42233,-2.85736 -3.05611,-3.03615 -1.62176,-0.17748 -3.3015,0.76551 -3.63945,2.2898 -0.33894,1.52877 0.9244,3.15265 3.01701,3.38279 2.08155,0.22891 3.66179,-1.0755 3.67855,-2.63644 z" />
        <path
           id="path1270"
           d="m 200.32872,201.49602 c 0.42894,-1.35116 -0.40838,-2.79848 -1.77352,-3.42001 -3e-5,-1e-5 -7e-5,-3e-5 -1.1e-4,-5e-5 -0.73187,-0.33316 -1.529,-0.38076 -2.23964,-0.17777 -0.59998,0.17429 -1.1567,0.53194 -1.49954,1.08256 l -2e-5,2e-5 c -0.34474,0.55366 -0.41313,1.21128 -0.19726,1.86281 0.25428,0.76344 0.89628,1.48569 1.8173,1.90254 2e-5,1e-5 4e-5,2e-5 7e-5,3e-5 1.75122,0.79255 3.46618,0.0935 3.89272,-1.25013 z"
           style="fill:#243cff;fill-opacity:1;fill-rule:evenodd;stroke-width:0.125027" />
        <path
           id="path1272"
           d="m 192.26344,197.133 c 0.80778,-0.96836 0.57658,-2.49987 -0.31825,-3.44139 -2e-5,-3e-5 -4e-5,-5e-5 -6e-5,-7e-5 -0.93555,-0.9843 -2.41284,-1.25429 -3.42461,-0.48746 l -7e-5,5e-5 c -1.00703,0.76328 -1.08072,2.4198 0.0968,3.65527 2e-5,2e-5 5e-5,5e-5 7e-5,8e-5 1.17908,1.23702 2.83774,1.24256 3.64609,0.27352 z"
           style="fill:#2443ff;fill-opacity:1;fill-rule:evenodd;stroke-width:0.125027" />
        <path
           id="path1274"
           d="m 186.4662,190.00443 c 0.98452,-0.52925 1.30248,-1.82478 0.81944,-2.95088 -1e-5,-2e-5 -2e-5,-4e-5 -3e-5,-6e-5 -0.48304,-1.12603 -1.64741,-1.79285 -2.70616,-1.43887 l -1.1e-4,3e-5 c -1.05582,0.35307 -1.57933,1.69421 -1.00713,3.03038 3e-5,5e-5 5e-5,1.1e-4 8e-5,1.6e-4 0.55732,1.30125 1.90944,1.88847 2.89391,1.35924 z"
           style="fill:#3366ff;fill-opacity:1;fill-rule:evenodd;stroke-width:0.125027" />
        <path
           id="path1276"
           d="m 183.46818,181.30505 c 0.95163,-0.17848 1.55594,-1.19013 1.41639,-2.27355 0,-2e-5 0,-4e-5 -1e-5,-5e-5 -0.13957,-1.0834 -0.98278,-1.91174 -1.94756,-1.84052 l -1.5e-4,1e-5 c -0.96253,0.0711 -1.68666,1.0753 -1.53115,2.28768 1e-5,6e-5 2e-5,1.3e-4 3e-5,2e-4 0.1528,1.19057 1.1109,2.0047 2.06245,1.82623 z"
           style="fill:#2288ff;fill-opacity:1;fill-rule:evenodd;stroke-width:0.125027" />
        <path
           id="path1278"
           d="m 182.87119,172.096 c 0.81384,0.0368 1.50481,-0.6893 1.58228,-1.62094 0,-1e-5 1e-5,-2e-5 1e-5,-3e-5 0.0775,-0.93161 -0.48556,-1.76358 -1.29533,-1.85981 l -2e-4,-2e-5 c -0.80967,-0.0961 -1.56427,0.62561 -1.6458,1.61661 -1e-5,8e-5 -2e-5,1.6e-4 -2e-5,2.4e-4 -0.0814,0.99097 0.5453,1.82719 1.35906,1.86395 z"
           style="fill:#11a9ff;fill-opacity:1;fill-rule:evenodd;stroke-width:0.125027" />
        <path
           id="path1282"
           style="fill:#00ccff;fill-rule:evenodd;stroke-width:0.052838"
           d="m 177.68952,158.80451 c 0.48701,0.45268 1.30595,0.36081 1.84407,-0.19131 0.53812,-0.55212 0.60926,-1.37327 0.14473,-1.84801 -0.46453,-0.47474 -1.30711,-0.40696 -1.86771,0.16721 -0.56061,0.57418 -0.60811,1.41943 -0.12109,1.87211 z" />
        <path
           d="m 179.62517,206.04328 c 0.79732,-1.34738 0.1969,-3.18571 -1.12859,-4.15744 -1.31575,-0.96458 -3.24194,-0.9878 -4.29676,0.1633 -1.05792,1.15448 -0.77578,3.19248 0.92142,4.43809 1.68821,1.23902 3.70895,0.89949 4.50393,-0.44395 z"
           style="fill:#0000ff;fill-rule:evenodd;stroke-width:0.125027"
           id="path1284" />
        <path
           style="fill:#243cff;fill-opacity:1;fill-rule:evenodd;stroke-width:0.125027"
           d="m 172.42849,200.27659 c 1.04704,-0.95568 1.04557,-2.62775 0.17408,-3.84858 -2e-5,-3e-5 -4e-5,-6e-5 -6e-5,-9e-5 -0.46724,-0.65447 -1.13378,-1.09426 -1.85071,-1.27378 -0.60674,-0.14905 -1.2677,-0.11767 -1.83992,0.18775 l -2e-5,1e-5 c -0.57538,0.30711 -0.96342,0.84243 -1.10224,1.51461 -0.16151,0.7883 0.0334,1.73479 0.62256,2.55629 1e-5,2e-5 3e-5,4e-5 4e-5,6e-5 1.12033,1.56198 2.95504,1.81409 3.99627,0.86373 z"
           id="path1286" />
        <path
           style="fill:#2443ff;fill-opacity:1;fill-rule:evenodd;stroke-width:0.125027"
           d="m 167.62526,192.46545 c 1.18373,-0.43473 1.74926,-1.87665 1.44508,-3.13945 -10e-6,-3e-5 -10e-6,-6e-5 -2e-5,-9e-5 -0.31806,-1.32021 -1.46244,-2.29267 -2.72207,-2.13446 l -8e-5,1e-5 c -1.25376,0.15751 -2.14583,1.55525 -1.74378,3.21397 1e-5,4e-5 1e-5,7e-5 2e-5,1.1e-4 0.4026,1.66083 1.83627,2.49496 3.02085,2.05991 z"
           id="path1288" />
        <path
           style="fill:#3366ff;fill-opacity:1;fill-rule:evenodd;stroke-width:0.125027"
           d="m 166.16898,183.39332 c 1.11725,0.0339 2.04038,-0.92907 2.1851,-2.14582 0,-2e-5 0,-4e-5 0,-6e-5 0.14469,-1.2167 -0.53027,-2.37636 -1.62416,-2.59919 l -1.1e-4,-2e-5 c -1.09091,-0.22215 -2.21485,0.67756 -2.38739,2.12082 -1e-5,6e-5 -1e-5,1.2e-4 -2e-5,1.8e-4 -0.16797,1.40557 0.70939,2.59018 1.82658,2.62409 z"
           id="path1290" />
        <path
           style="fill:#2288ff;fill-opacity:1;fill-rule:evenodd;stroke-width:0.125027"
           d="m 167.92231,174.36042 c 0.91338,0.32125 1.94255,-0.25271 2.36341,-1.26076 0,-1e-5 1e-5,-3e-5 2e-5,-5e-5 0.42083,-1.00803 0.10475,-2.147 -0.76638,-2.56771 l -1.3e-4,-7e-5 c -0.86916,-0.41964 -1.99835,0.0879 -2.46986,1.21561 -2e-5,7e-5 -5e-5,1.3e-4 -8e-5,1.9e-4 -0.46295,1.10747 -0.0403,2.29158 0.87302,2.61279 z"
           id="path1292" />
        <path
           style="fill:#11a9ff;fill-opacity:1;fill-rule:evenodd;stroke-width:0.125027"
           d="m 172.00983,166.08666 c 0.68642,0.43876 1.64786,0.15545 2.18077,-0.61264 0,-1e-5 1e-5,-2e-5 2e-5,-2e-5 0.53289,-0.76806 0.46128,-1.77008 -0.19189,-2.25831 l -1.6e-4,-1.2e-4 c -0.65315,-0.48804 -1.6675,-0.24033 -2.23361,0.57713 -4e-5,6e-5 -9e-5,1.3e-4 -1.4e-4,2e-4 -0.56599,0.81749 -0.44134,1.85504 0.24501,2.29376 z"
           id="path1294" />
        <path
           d="m 174.1681,151.98504 c 0.19543,0.63554 0.95059,0.96545 1.69267,0.75636 0.74208,-0.20909 1.21427,-0.88466 1.04934,-1.52806 -0.16492,-0.6434 -0.9285,-1.00599 -1.70109,-0.78905 -0.77258,0.21695 -1.23634,0.92521 -1.04092,1.56075 z"
           style="fill:#00ccff;fill-rule:evenodd;stroke-width:0.052838"
           id="path1298" />
        <path
           id="path1300"
           style="fill:#0000ff;fill-rule:evenodd;stroke-width:0.125027"
           d="m 152.22504,193.86284 c 1.36419,-0.7682 1.76338,-2.66045 1.10133,-4.16474 -0.65718,-1.49322 -2.3137,-2.47643 -3.80275,-2.00696 -1.49343,0.47085 -2.26808,2.37688 -1.42108,4.3042 0.84253,1.91714 2.76231,2.63346 4.1225,1.8675 z" />
        <path
           id="path1302"
           d="m 148.87588,185.2704 c 1.3846,-0.30412 2.21936,-1.75292 2.07505,-3.24592 0,-4e-5 -1e-5,-8e-5 -1e-5,-1.2e-4 -0.0774,-0.80041 -0.43476,-1.51454 -0.96587,-2.02848 -0.45093,-0.43244 -1.03902,-0.73575 -1.68729,-0.75736 h -3e-5 c -0.65185,-0.0217 -1.25556,0.24786 -1.71187,0.76057 -0.53402,0.60193 -0.83851,1.51905 -0.739,2.5251 1e-5,2e-5 1e-5,4e-5 1e-5,7e-5 0.18924,1.91288 1.65209,3.04856 3.02901,2.74614 z"
           style="fill:#243cff;fill-opacity:1;fill-rule:evenodd;stroke-width:0.125027" />
        <path
           id="path1304"
           d="m 148.62172,176.10414 c 1.24251,0.21538 2.45324,-0.7506 2.82121,-1.9963 1e-5,-3e-5 2e-5,-6e-5 3e-5,-9e-5 0.38465,-1.30236 -0.12018,-2.71673 -1.29015,-3.20953 l -8e-5,-3e-5 c -1.16454,-0.49048 -2.63597,0.27397 -3.11714,1.91148 -1e-5,4e-5 -3e-5,8e-5 -4e-5,1.1e-4 -0.48175,1.63962 0.34278,3.07883 1.58617,3.29436 z"
           style="fill:#2443ff;fill-opacity:1;fill-rule:evenodd;stroke-width:0.125027" />
        <path
           id="path1306"
           d="m 151.89662,167.5193 c 0.95061,0.58799 2.23155,0.2156 2.96526,-0.76578 10e-6,-2e-5 2e-5,-4e-5 3e-5,-5e-5 0.73365,-0.98135 0.72896,-2.32312 -0.10697,-3.06304 l -9e-5,-8e-5 c -0.83367,-0.73784 -2.25689,-0.52064 -3.12794,0.64299 -4e-5,5e-5 -7e-5,9e-5 -1.1e-4,1.4e-4 -0.84825,1.13328 -0.68074,2.59786 0.26982,3.18582 z"
           style="fill:#3366ff;fill-opacity:1;fill-rule:evenodd;stroke-width:0.125027" />
        <path
           id="path1308"
           d="m 157.9315,160.57326 c 0.63038,0.73489 1.80865,0.75241 2.67715,0.0898 10e-6,-1e-5 3e-5,-2e-5 4e-5,-4e-5 0.86846,-0.66257 1.16422,-1.80698 0.62015,-2.6069 l -8e-5,-1.1e-4 c -0.54289,-0.79801 -1.77457,-0.92305 -2.74676,-0.18218 -6e-5,4e-5 -1.1e-4,8e-5 -1.6e-4,1.2e-4 -0.95467,0.72762 -1.18067,1.96442 -0.55034,2.69926 z"
           style="fill:#2288ff;fill-opacity:1;fill-rule:evenodd;stroke-width:0.125027" />
        <path
           id="path1310"
           d="m 165.60827,155.45172 c 0.37508,0.72319 1.34936,0.95855 2.19492,0.55983 1e-5,-1e-5 2e-5,-1e-5 3e-5,-2e-5 0.84553,-0.39871 1.28452,-1.30229 0.96297,-2.05169 l -7e-5,-1.8e-4 c -0.32163,-0.74924 -1.32394,-1.04189 -2.22293,-0.617 -7e-5,3e-5 -1.4e-4,7e-5 -2.2e-4,1e-4 -0.89891,0.42498 -1.30974,1.38584 -0.9347,2.10896 z"
           style="fill:#11a9ff;fill-opacity:1;fill-rule:evenodd;stroke-width:0.125027" />
        <path
           id="path1314"
           style="fill:#00ccff;fill-rule:evenodd;stroke-width:0.052838"
           d="m 174.52821,144.3185 c -0.14853,0.64811 0.3405,1.3114 1.08771,1.50136 0.74721,0.18996 1.49392,-0.159 1.67279,-0.79867 0.17887,-0.63966 -0.30111,-1.33546 -1.07866,-1.53387 -0.77756,-0.19841 -1.53331,0.18307 -1.68184,0.83118 z" />
        <path
           d="m 134.58606,169.61421 c 1.56552,0.0168 2.85736,-1.42233 3.03615,-3.05611 0.17748,-1.62176 -0.76551,-3.3015 -2.2898,-3.63945 -1.52877,-0.33894 -3.15265,0.9244 -3.38279,3.01701 -0.22891,2.08155 1.0755,3.66179 2.63644,3.67855 z"
           style="fill:#0000ff;fill-rule:evenodd;stroke-width:0.125027"
           id="path1316" />
        <path
           style="fill:#243cff;fill-opacity:1;fill-rule:evenodd;stroke-width:0.125027"
           d="m 135.98182,160.49835 c 1.35116,0.42894 2.79848,-0.40838 3.42001,-1.77352 1e-5,-3e-5 3e-5,-7e-5 5e-5,-1.1e-4 0.33316,-0.73187 0.38076,-1.529 0.17777,-2.23964 -0.17429,-0.59998 -0.53194,-1.1567 -1.08256,-1.49954 l -2e-5,-2e-5 c -0.55366,-0.34474 -1.21128,-0.41313 -1.86281,-0.19726 -0.76344,0.25428 -1.48569,0.89628 -1.90254,1.8173 -1e-5,2e-5 -2e-5,4e-5 -3e-5,7e-5 -0.79255,1.75122 -0.0935,3.46618 1.25013,3.89272 z"
           id="path1318" />
        <path
           style="fill:#2443ff;fill-opacity:1;fill-rule:evenodd;stroke-width:0.125027"
           d="m 140.34484,152.43307 c 0.96836,0.80778 2.49987,0.57658 3.44139,-0.31825 3e-5,-2e-5 5e-5,-4e-5 7e-5,-6e-5 0.9843,-0.93555 1.25429,-2.41284 0.48746,-3.42461 l -5e-5,-7e-5 c -0.76328,-1.00703 -2.4198,-1.08072 -3.65527,0.0968 -2e-5,2e-5 -5e-5,5e-5 -8e-5,7e-5 -1.23702,1.17908 -1.24256,2.83774 -0.27352,3.64609 z"
           id="path1320" />
        <path
           style="fill:#3366ff;fill-opacity:1;fill-rule:evenodd;stroke-width:0.125027"
           d="m 147.47341,146.63583 c 0.52925,0.98452 1.82478,1.30248 2.95088,0.81944 2e-5,-1e-5 4e-5,-2e-5 6e-5,-3e-5 1.12603,-0.48304 1.79285,-1.64741 1.43887,-2.70616 l -3e-5,-1.1e-4 c -0.35307,-1.05582 -1.69421,-1.57933 -3.03038,-1.00713 -5e-5,3e-5 -1.1e-4,5e-5 -1.6e-4,8e-5 -1.30125,0.55732 -1.88847,1.90944 -1.35924,2.89391 z"
           id="path1322" />
        <path
           style="fill:#2288ff;fill-opacity:1;fill-rule:evenodd;stroke-width:0.125027"
           d="m 156.17279,143.63781 c 0.17848,0.95163 1.19013,1.55594 2.27355,1.41639 2e-5,0 4e-5,0 5e-5,-1e-5 1.0834,-0.13957 1.91174,-0.98278 1.84052,-1.94756 l -1e-5,-1.5e-4 c -0.0711,-0.96253 -1.0753,-1.68666 -2.28768,-1.53115 -6e-5,1e-5 -1.3e-4,2e-5 -2e-4,3e-5 -1.19057,0.1528 -2.0047,1.1109 -1.82623,2.06245 z"
           id="path1324" />
        <path
           style="fill:#11a9ff;fill-opacity:1;fill-rule:evenodd;stroke-width:0.125027"
           d="m 165.38184,143.04082 c -0.0368,0.81384 0.6893,1.50481 1.62094,1.58228 1e-5,0 2e-5,1e-5 3e-5,1e-5 0.93161,0.0775 1.76358,-0.48556 1.85981,-1.29533 l 2e-5,-2e-4 c 0.0961,-0.80967 -0.62561,-1.56427 -1.61661,-1.6458 -8e-5,-1e-5 -1.6e-4,-2e-5 -2.4e-4,-2e-5 -0.99097,-0.0814 -1.82719,0.5453 -1.86395,1.35906 z"
           id="path1326" />
        <path
           d="m 178.67334,137.85915 c -0.45268,0.48701 -0.36081,1.30595 0.19131,1.84407 0.55212,0.53812 1.37327,0.60926 1.84801,0.14473 0.47474,-0.46453 0.40696,-1.30711 -0.16721,-1.86771 -0.57418,-0.56061 -1.41943,-0.60811 -1.87211,-0.12109 z"
           style="fill:#00ccff;fill-rule:evenodd;stroke-width:0.052838"
           id="path1330" />
        <path
           id="path1332"
           style="fill:#0000ff;fill-rule:evenodd;stroke-width:0.125027"
           d="m 131.43457,139.7948 c 1.34738,0.79732 3.18571,0.1969 4.15744,-1.12859 0.96458,-1.31575 0.9878,-3.24194 -0.1633,-4.29676 -1.15448,-1.05792 -3.19248,-0.77578 -4.43809,0.92142 -1.23902,1.68821 -0.89949,3.70895 0.44395,4.50393 z" />
        <path
           id="path1334"
           d="m 137.20126,132.59812 c 0.95568,1.04704 2.62775,1.04557 3.84858,0.17408 3e-5,-2e-5 6e-5,-4e-5 9e-5,-6e-5 0.65447,-0.46724 1.09426,-1.13378 1.27378,-1.85071 0.14905,-0.60674 0.11767,-1.2677 -0.18775,-1.83992 l -1e-5,-2e-5 c -0.30711,-0.57538 -0.84243,-0.96342 -1.51461,-1.10224 -0.7883,-0.16151 -1.73479,0.0334 -2.55629,0.62256 -2e-5,1e-5 -4e-5,3e-5 -6e-5,4e-5 -1.56198,1.12033 -1.81409,2.95504 -0.86373,3.99627 z"
           style="fill:#243cff;fill-opacity:1;fill-rule:evenodd;stroke-width:0.125027" />
        <path
           id="path1336"
           d="m 145.0124,127.79489 c 0.43473,1.18373 1.87665,1.74926 3.13945,1.44508 3e-5,-1e-5 6e-5,-1e-5 9e-5,-2e-5 1.32021,-0.31806 2.29267,-1.46244 2.13446,-2.72207 l -10e-6,-8e-5 c -0.15751,-1.25376 -1.55525,-2.14583 -3.21397,-1.74378 -4e-5,1e-5 -7e-5,1e-5 -1.1e-4,2e-5 -1.66083,0.4026 -2.49496,1.83627 -2.05991,3.02085 z"
           style="fill:#2443ff;fill-opacity:1;fill-rule:evenodd;stroke-width:0.125027" />
        <path
           id="path1338"
           d="m 154.08453,126.33861 c -0.0339,1.11725 0.92907,2.04038 2.14582,2.1851 2e-5,0 4e-5,0 6e-5,0 1.2167,0.14469 2.37636,-0.53027 2.59919,-1.62416 l 2e-5,-1.1e-4 c 0.22215,-1.09091 -0.67756,-2.21485 -2.12082,-2.38739 -6e-5,-1e-5 -1.2e-4,-1e-5 -1.8e-4,-2e-5 -1.40557,-0.16797 -2.59018,0.70939 -2.62409,1.82658 z"
           style="fill:#3366ff;fill-opacity:1;fill-rule:evenodd;stroke-width:0.125027" />
        <path
           id="path1340"
           d="m 163.11743,128.09194 c -0.32125,0.91338 0.25271,1.94255 1.26076,2.36341 1e-5,0 3e-5,1e-5 5e-5,2e-5 1.00803,0.42083 2.147,0.10475 2.56771,-0.76638 l 7e-5,-1.3e-4 c 0.41964,-0.86916 -0.0879,-1.99835 -1.21561,-2.46986 -7e-5,-2e-5 -1.3e-4,-5e-5 -1.9e-4,-8e-5 -1.10747,-0.46295 -2.29158,-0.0403 -2.61279,0.87302 z"
           style="fill:#2288ff;fill-opacity:1;fill-rule:evenodd;stroke-width:0.125027" />
        <path
           id="path1342"
           d="m 171.39119,132.17946 c -0.43876,0.68642 -0.15545,1.64786 0.61264,2.18077 1e-5,0 2e-5,1e-5 2e-5,2e-5 0.76806,0.53289 1.77008,0.46128 2.25831,-0.19189 l 1.2e-4,-1.6e-4 c 0.48804,-0.65315 0.24033,-1.6675 -0.57713,-2.23361 -6e-5,-4e-5 -1.3e-4,-9e-5 -2e-4,-1.4e-4 -0.81749,-0.56599 -1.85504,-0.44134 -2.29376,0.24501 z"
           style="fill:#11a9ff;fill-opacity:1;fill-rule:evenodd;stroke-width:0.125027" />
        <path
           id="path1346"
           style="fill:#00ccff;fill-rule:evenodd;stroke-width:0.052838"
           d="m 185.49281,134.33773 c -0.63554,0.19543 -0.96545,0.95059 -0.75636,1.69267 0.20909,0.74208 0.88466,1.21427 1.52806,1.04934 0.6434,-0.16492 1.00599,-0.9285 0.78905,-1.70109 -0.21695,-0.77258 -0.92521,-1.23634 -1.56075,-1.04092 z" />
        <path
           d="m 143.61501,112.39467 c 0.7682,1.36419 2.66045,1.76338 4.16474,1.10133 1.49322,-0.65718 2.47643,-2.3137 2.00696,-3.80275 -0.47085,-1.49343 -2.37688,-2.26808 -4.3042,-1.42108 -1.91714,0.84253 -2.63346,2.76231 -1.8675,4.1225 z"
           style="fill:#0000ff;fill-rule:evenodd;stroke-width:0.125027"
           id="path1348" />
        <path
           style="fill:#243cff;fill-opacity:1;fill-rule:evenodd;stroke-width:0.125027"
           d="m 152.20745,109.04551 c 0.30412,1.3846 1.75292,2.21936 3.24592,2.07505 4e-5,0 8e-5,-1e-5 1.2e-4,-1e-5 0.80041,-0.0774 1.51454,-0.43476 2.02848,-0.96587 0.43244,-0.45093 0.73575,-1.03902 0.75736,-1.68729 v -3e-5 c 0.0217,-0.65185 -0.24786,-1.25556 -0.76057,-1.71187 -0.60193,-0.53402 -1.51905,-0.83851 -2.5251,-0.739 -2e-5,10e-6 -4e-5,10e-6 -7e-5,10e-6 -1.91288,0.18924 -3.04856,1.65209 -2.74614,3.02901 z"
           id="path1350" />
        <path
           style="fill:#2443ff;fill-opacity:1;fill-rule:evenodd;stroke-width:0.125027"
           d="m 161.37371,108.79135 c -0.21538,1.24251 0.7506,2.45324 1.9963,2.82121 3e-5,1e-5 6e-5,2e-5 9e-5,3e-5 1.30236,0.38465 2.71673,-0.12018 3.20953,-1.29015 l 3e-5,-8e-5 c 0.49048,-1.16454 -0.27397,-2.63597 -1.91148,-3.11714 -4e-5,-1e-5 -8e-5,-3e-5 -1.1e-4,-4e-5 -1.63962,-0.48175 -3.07883,0.34278 -3.29436,1.58617 z"
           id="path1352" />
        <path
           style="fill:#3366ff;fill-opacity:1;fill-rule:evenodd;stroke-width:0.125027"
           d="m 169.95855,112.06625 c -0.58799,0.95061 -0.2156,2.23155 0.76578,2.96526 2e-5,1e-5 4e-5,2e-5 5e-5,3e-5 0.98135,0.73365 2.32312,0.72896 3.06304,-0.10697 l 8e-5,-9e-5 c 0.73784,-0.83367 0.52064,-2.25689 -0.64299,-3.12794 -5e-5,-4e-5 -9e-5,-7e-5 -1.4e-4,-1.1e-4 -1.13328,-0.84825 -2.59786,-0.68074 -3.18582,0.26982 z"
           id="path1354" />
        <path
           style="fill:#2288ff;fill-opacity:1;fill-rule:evenodd;stroke-width:0.125027"
           d="m 176.90459,118.10113 c -0.73489,0.63038 -0.75241,1.80865 -0.0899,2.67715 10e-6,1e-5 2e-5,3e-5 4e-5,4e-5 0.66257,0.86846 1.80698,1.16422 2.6069,0.62015 l 1.1e-4,-8e-5 c 0.79801,-0.54289 0.92305,-1.77457 0.18218,-2.74676 -4e-5,-6e-5 -8e-5,-1.1e-4 -1.2e-4,-1.6e-4 -0.72762,-0.95467 -1.96442,-1.18067 -2.69926,-0.55034 z"
           id="path1356" />
        <path
           style="fill:#11a9ff;fill-opacity:1;fill-rule:evenodd;stroke-width:0.125027"
           d="m 182.02613,125.7779 c -0.72319,0.37508 -0.95855,1.34936 -0.55983,2.19492 1e-5,1e-5 1e-5,2e-5 2e-5,3e-5 0.39871,0.84553 1.30229,1.28452 2.05169,0.96297 l 1.8e-4,-7e-5 c 0.74924,-0.32163 1.04189,-1.32394 0.617,-2.22293 -3e-5,-7e-5 -7e-5,-1.4e-4 -1e-4,-2.2e-4 -0.42498,-0.89891 -1.38584,-1.30974 -2.10896,-0.9347 z"
           id="path1358" />
        <path
           d="m 193.15935,134.69784 c -0.64811,-0.14853 -1.3114,0.3405 -1.50136,1.08771 -0.18996,0.74721 0.159,1.49392 0.79867,1.67279 0.63966,0.17887 1.33546,-0.30111 1.53387,-1.07866 0.19841,-0.77756 -0.18307,-1.53331 -0.83118,-1.68184 z"
           style="fill:#00ccff;fill-rule:evenodd;stroke-width:0.052838"
           id="path1362" />
        <path
           id="path1364"
           style="fill:#0000ff;fill-rule:evenodd;stroke-width:0.125027"
           d="m 167.86364,94.75569 c -0.0168,1.565522 1.42233,2.857356 3.05611,3.036149 1.62176,0.177477 3.3015,-0.765507 3.63945,-2.289796 0.33894,-1.528773 -0.9244,-3.152657 -3.01701,-3.382791 -2.08155,-0.228915 -3.66179,1.075496 -3.67855,2.636438 z" />
        <path
           id="path1366"
           d="m 176.9795,96.151451 c -0.42894,1.351162 0.40838,2.798483 1.77352,3.420006 3e-5,1.7e-5 7e-5,3.5e-5 1.1e-4,5.1e-5 0.73187,0.333164 1.529,0.380761 2.23964,0.177772 0.59998,-0.174294 1.1567,-0.531943 1.49954,-1.082557 l 2e-5,-2.5e-5 c 0.34474,-0.553655 0.41313,-1.211277 0.19726,-1.862805 -0.25428,-0.763444 -0.89628,-1.485696 -1.8173,-1.902539 -2e-5,-1e-5 -4e-5,-2e-5 -7e-5,-3e-5 -1.75122,-0.79255 -3.46618,-0.09353 -3.89272,1.250127 z"
           style="fill:#243cff;fill-opacity:1;fill-rule:evenodd;stroke-width:0.125027" />
        <path
           id="path1368"
           d="m 185.04478,100.51447 c -0.80778,0.96836 -0.57658,2.49987 0.31825,3.44139 2e-5,3e-5 4e-5,5e-5 6e-5,7e-5 0.93555,0.9843 2.41284,1.25429 3.42461,0.48746 l 7e-5,-5e-5 c 1.00703,-0.76328 1.08072,-2.4198 -0.0968,-3.65527 -2e-5,-2e-5 -5e-5,-5e-5 -7e-5,-8e-5 -1.17908,-1.237021 -2.83774,-1.242559 -3.64609,-0.27352 z"
           style="fill:#2443ff;fill-opacity:1;fill-rule:evenodd;stroke-width:0.125027" />
        <path
           id="path1370"
           d="m 190.84202,107.64304 c -0.98452,0.52925 -1.30248,1.82478 -0.81944,2.95088 1e-5,2e-5 2e-5,4e-5 3e-5,6e-5 0.48304,1.12603 1.64741,1.79285 2.70616,1.43887 l 1.1e-4,-3e-5 c 1.05582,-0.35307 1.57933,-1.69421 1.00713,-3.03038 -3e-5,-5e-5 -5e-5,-1.1e-4 -8e-5,-1.6e-4 -0.55732,-1.30125 -1.90944,-1.88847 -2.89391,-1.35924 z"
           style="fill:#3366ff;fill-opacity:1;fill-rule:evenodd;stroke-width:0.125027" />
        <path
           id="path1372"
           d="m 193.84004,116.34242 c -0.95163,0.17848 -1.55594,1.19013 -1.41639,2.27355 0,2e-5 0,4e-5 1e-5,5e-5 0.13957,1.0834 0.98278,1.91174 1.94756,1.84052 l 1.5e-4,-1e-5 c 0.96253,-0.0712 1.68666,-1.0753 1.53115,-2.28768 -1e-5,-6e-5 -2e-5,-1.3e-4 -3e-5,-2e-4 -0.1528,-1.19057 -1.1109,-2.0047 -2.06245,-1.82623 z"
           style="fill:#2288ff;fill-opacity:1;fill-rule:evenodd;stroke-width:0.125027" />
        <path
           id="path1374"
           d="m 194.43703,125.55147 c -0.81384,-0.0368 -1.50481,0.6893 -1.58228,1.62094 0,1e-5 -1e-5,2e-5 -1e-5,3e-5 -0.0775,0.93161 0.48556,1.76358 1.29533,1.85981 l 2e-4,2e-5 c 0.80967,0.0961 1.56427,-0.62561 1.6458,-1.61661 1e-5,-8e-5 2e-5,-1.6e-4 2e-5,-2.4e-4 0.0814,-0.99097 -0.5453,-1.82719 -1.35906,-1.86395 z"
           style="fill:#11a9ff;fill-opacity:1;fill-rule:evenodd;stroke-width:0.125027" />
      </g>
    </g>
  </g>
</svg>
