<?xml version="1.0" encoding="UTF-8" standalone="no"?>
<svg
   xmlns:dc="http://purl.org/dc/elements/1.1/"
   xmlns:cc="http://creativecommons.org/ns#"
   xmlns:rdf="http://www.w3.org/1999/02/22-rdf-syntax-ns#"
   xmlns:svg="http://www.w3.org/2000/svg"
   xmlns="http://www.w3.org/2000/svg"
   xmlns:xlink="http://www.w3.org/1999/xlink"
   xmlns:sodipodi="http://sodipodi.sourceforge.net/DTD/sodipodi-0.dtd"
   xmlns:inkscape="http://www.inkscape.org/namespaces/inkscape"
   width="210mm"
   height="297mm"
   viewBox="0 0 210 297"
   version="1.1"
   id="svg8"
   inkscape:version="1.0 (9f2f71dc58, 2020-08-02)"
   sodipodi:docname="Galaxy -D.svg">
  <defs
     id="defs2">
    <linearGradient
       inkscape:collect="always"
       id="linearGradient968">
      <stop
         style="stop-color:#003eff;stop-opacity:1"
         offset="0"
         id="stop964" />
      <stop
         style="stop-color:#b100ff;stop-opacity:1"
         offset="0.28410393"
         id="stop972" />
      <stop
         style="stop-color:#ff00ff;stop-opacity:1"
         offset="0.58196723"
         id="stop976" />
      <stop
         style="stop-color:#00ffff;stop-opacity:1"
         offset="1"
         id="stop966" />
    </linearGradient>
    <filter
       inkscape:collect="always"
       style="color-interpolation-filters:sRGB"
       id="filter952"
       x="-0.025413396"
       width="1.0508268"
       y="-0.037627458"
       height="1.0752549">
      <feGaussianBlur
         inkscape:collect="always"
         stdDeviation="0.15873096"
         id="feGaussianBlur954" />
    </filter>
    <linearGradient
       inkscape:collect="always"
       xlink:href="#linearGradient968"
       id="linearGradient970"
       x1="13.641155"
       y1="195.91294"
       x2="138.78311"
       y2="195.91294"
       gradientUnits="userSpaceOnUse" />
  </defs>
  <sodipodi:namedview
     id="base"
     pagecolor="#ffffff"
     bordercolor="#666666"
     borderopacity="1.0"
     inkscape:pageopacity="0.0"
     inkscape:pageshadow="2"
     inkscape:zoom="1"
     inkscape:cx="197.54071"
     inkscape:cy="851.94445"
     inkscape:document-units="px"
     inkscape:current-layer="layer1"
     inkscape:document-rotation="0"
     showgrid="false"
     showborder="true"
     inkscape:window-width="1846"
     inkscape:window-height="1016"
     inkscape:window-x="74"
     inkscape:window-y="27"
     inkscape:window-maximized="1" />
  <metadata
     id="metadata5">
    <rdf:RDF>
      <cc:Work
         rdf:about="">
        <dc:format>image/svg+xml</dc:format>
        <dc:type
           rdf:resource="http://purl.org/dc/dcmitype/StillImage" />
        <dc:title></dc:title>
      </cc:Work>
    </rdf:RDF>
  </metadata>
  <g
     inkscape:label="Layer 1"
     inkscape:groupmode="layer"
     id="layer1">
    <path
       d="m 81.403388,231.99879 q 6.959414,0 13.532194,-3.86634 6.701658,-3.99522 12.114538,-10.31025 5.41287,-6.31502 9.27922,-14.30546 3.99522,-8.11932 5.67063,-16.49639 1.67541,-8.11931 0.25776,-13.91882 -1.41766,-5.92839 -4.89737,-9.66586 -3.47971,-3.86634 -8.76371,-5.67063 -5.15512,-1.80429 -10.954629,-1.80429 -8.892585,0 -16.367511,2.3198 -7.474926,2.31981 -13.145559,6.31502 -5.541758,3.86635 -9.150343,9.15035 -3.479705,5.284 -4.63961,11.08351 -0.644385,2.96419 -0.128875,5.02624 0.644388,1.93317 1.546536,3.35083 1.031024,1.28878 1.804293,2.19092 0.773268,0.77327 0.644388,1.41766 -0.515512,2.44868 -3.221949,2.44868 -2.577558,0 -5.928388,-1.1599 -3.22195,-1.1599 -5.92839,-3.35083 -2.70644,-2.19092 -4.38186,-5.15512 -1.67541,-3.09307 -0.90214,-6.95941 1.41766,-7.21717 7.34605,-13.40332 5.92839,-6.18614 14.563213,-10.69687 8.634831,-4.63961 18.945074,-7.21717 10.43912,-2.70644 20.749363,-2.70644 7.346047,0 15.078727,2.44868 7.73269,2.44868 13.66108,7.6038 5.92838,5.15513 8.89258,13.27444 2.96419,7.99044 0.77327,19.20283 -1.93317,9.79473 -6.95942,19.20283 -4.89736,9.27921 -11.98565,16.62527 -6.95942,7.34604 -15.46537,11.85678 -8.505948,4.38185 -17.527411,4.38185 -8.377072,0 -15.465363,-2.83532 -7.088295,-2.83532 -13.532197,-6.4439 -5.799506,4.76848 -12.243416,7.08829 -6.31502,2.19093 -13.14556,2.19093 -3.99521,0 -7.47492,-1.03103 -3.47971,-1.03102 -6.05727,-2.96419 -2.44868,-1.93317 -3.60858,-4.63961 -1.15991,-2.70644 -0.51552,-6.05727 0.64439,-3.60858 2.70644,-6.4439 2.19093,-2.83532 4.89737,-4.76849 2.83531,-1.93317 5.92839,-2.96419 3.09307,-1.03103 5.92839,-1.03103 5.79951,0 10.69687,2.06205 4.89737,1.93317 9.66586,4.63961 0.644385,-0.77327 1.159898,-1.54654 0.644392,-0.90214 1.159904,-1.80429 2.319805,-3.47971 5.026242,-8.24819 2.835317,-4.89737 5.670633,-10.05249 2.964198,-5.284 5.799515,-10.568 2.835315,-5.284 5.541754,-9.53697 2.706439,-4.38186 4.897365,-7.47493 2.190927,-3.09307 3.608586,-3.86634 5.283999,-3.09307 9.923608,-4.1241 4.768492,-1.1599 6.959412,-1.1599 1.28878,0 1.54654,0.51551 0.25775,0.51551 0.12888,1.28878 -0.12888,0.77327 -3.35083,3.73747 -3.093075,2.96419 -6.443904,8.11931 -0.902146,1.41766 -3.608585,6.18615 -2.577561,4.76848 -6.315024,11.34126 -3.608585,6.57278 -7.990438,13.91883 -4.252975,7.34605 -8.50595,13.78995 -1.031024,1.67542 -2.190929,3.22195 -1.1599,1.41766 -2.319804,2.83532 3.995221,2.3198 8.119319,3.86634 4.252974,1.54654 8.892583,1.54654 z M 32.300853,223.1062 q -2.96419,0 -5.284,1.93317 -2.3198,1.93318 -2.83531,4.51074 -0.51551,2.57756 1.41765,4.25297 1.93318,1.54654 5.02625,1.54654 4.25297,0 8.24819,-1.67542 3.99522,-1.80429 8.11932,-5.67063 -3.99522,-2.19093 -7.60381,-3.47971 -3.60858,-1.41766 -7.08829,-1.41766 z"
       style="font-style:italic;font-size:298.115px;line-height:1.25;font-family:Milkshake;-inkscape-font-specification:'Milkshake Italic';opacity:1;fill:url(#linearGradient970);fill-opacity:1;stroke-width:3.22197"
       id="path849" />
    <text
       xml:space="preserve"
       style="font-style:italic;font-size:10.5833px;line-height:1.25;font-family:Milkshake;-inkscape-font-specification:'Milkshake Italic';stroke-width:0.264583"
       x="-79.555603"
       y="109.91489"
       id="text847"><tspan
         sodipodi:role="line"
         id="tspan845"
         x="-79.555603"
         y="109.91489"
         style="stroke-width:0.264583" /></text>
    <path
       id="path859"
       style="font-style:italic;font-size:298.115px;line-height:1.25;font-family:Milkshake;-inkscape-font-specification:'Milkshake Italic';opacity:0.54816;fill:#000000;fill-opacity:1;stroke-width:3.22197;filter:url(#filter952)"
       d="m 46.992953,228.00357 c -1.70548,1.59889 -3.39435,2.93278 -5.06677,4.0027 2.32172,2.09474 6.15547,4.67658 8.95955,6.12167 2.06511,-1.19015 4.075501,-2.58829 6.030745,-4.19594 -3.176345,-1.89207 -6.785085,-3.54215 -9.923525,-5.92843 z"
       sodipodi:nodetypes="ccccc" />
  </g>
</svg>
