<?xml version="1.0" encoding="UTF-8" standalone="no"?>
<svg
   xmlns:dc="http://purl.org/dc/elements/1.1/"
   xmlns:cc="http://creativecommons.org/ns#"
   xmlns:rdf="http://www.w3.org/1999/02/22-rdf-syntax-ns#"
   xmlns:svg="http://www.w3.org/2000/svg"
   xmlns="http://www.w3.org/2000/svg"
   xmlns:xlink="http://www.w3.org/1999/xlink"
   xmlns:sodipodi="http://sodipodi.sourceforge.net/DTD/sodipodi-0.dtd"
   xmlns:inkscape="http://www.inkscape.org/namespaces/inkscape"
   width="1122.5197"
   height="793.70081"
   viewBox="0 0 296.99998 210.00001"
   version="1.1"
   id="svg8"
   inkscape:version="1.0.2 (e86c870879, 2021-01-15, custom)"
   sodipodi:docname="Impossible-Circle.svg"
   inkscape:export-filename="C:\Users\dax\Documents\dax\Impossible-Circle.png"
   inkscape:export-xdpi="96"
   inkscape:export-ydpi="96">
  <defs
     id="defs2">
    <linearGradient
       inkscape:collect="always"
       id="linearGradient1264">
      <stop
         style="stop-color:#ff0000;stop-opacity:1;"
         offset="0"
         id="stop1260" />
      <stop
         style="stop-color:#ffa425;stop-opacity:1"
         offset="1"
         id="stop1262" />
    </linearGradient>
    <linearGradient
       inkscape:collect="always"
       id="linearGradient1256">
      <stop
         style="stop-color:#0008ff;stop-opacity:1"
         offset="0"
         id="stop1252" />
      <stop
         style="stop-color:#2c0086;stop-opacity:1"
         offset="1"
         id="stop1254" />
    </linearGradient>
    <linearGradient
       inkscape:collect="always"
       xlink:href="#linearGradient1256"
       id="linearGradient1258"
       x1="140.01773"
       y1="474.28156"
       x2="140.01773"
       y2="402.47958"
       gradientUnits="userSpaceOnUse" />
    <linearGradient
       inkscape:collect="always"
       xlink:href="#linearGradient1264"
       id="linearGradient1266"
       x1="156.97581"
       y1="480.01575"
       x2="156.97581"
       y2="404.02185"
       gradientUnits="userSpaceOnUse" />
    <linearGradient
       inkscape:collect="always"
       xlink:href="#linearGradient1264"
       id="linearGradient1272"
       gradientUnits="userSpaceOnUse"
       x1="156.97581"
       y1="480.01575"
       x2="156.97581"
       y2="404.02185" />
  </defs>
  <sodipodi:namedview
     id="base"
     pagecolor="#ffffff"
     bordercolor="#000000"
     borderopacity="1"
     inkscape:pageopacity="0.0"
     inkscape:pageshadow="2"
     inkscape:zoom="0.5"
     inkscape:cx="1009"
     inkscape:cy="417"
     inkscape:document-units="px"
     inkscape:current-layer="layer1"
     inkscape:document-rotation="0"
     showgrid="false"
     units="px"
     showborder="false"
     showguides="true"
     inkscape:snap-smooth-nodes="true"
     inkscape:snap-intersection-paths="false"
     inkscape:object-paths="true"
     inkscape:snap-midpoints="false"
     inkscape:snap-center="false"
     inkscape:snap-others="false"
     inkscape:object-nodes="true"
     inkscape:window-width="1920"
     inkscape:window-height="1017"
     inkscape:window-x="-8"
     inkscape:window-y="-8"
     inkscape:window-maximized="1" />
  <metadata
     id="metadata5">
    <rdf:RDF>
      <cc:Work
         rdf:about="">
        <dc:format>image/svg+xml</dc:format>
        <dc:type
           rdf:resource="http://purl.org/dc/dcmitype/StillImage" />
        <dc:title />
      </cc:Work>
    </rdf:RDF>
  </metadata>
  <g
     inkscape:label="Layer 1"
     inkscape:groupmode="layer"
     id="layer1">
    <path
       style="opacity:0.50641;fill:#000000;stroke:none;stroke-width:1.32292;stroke-linecap:round;stroke-linejoin:round;stroke-miterlimit:4;stroke-dasharray:none"
       d="m 148.65052,478.74753 c -0.90729,0.30493 -1.82989,0.56433 -2.76621,0.77668 0.93631,-0.21235 1.85891,-0.47172 2.76621,-0.77668 z"
       id="path1237" />
    <path
       style="opacity:0.50641;fill:#000000;stroke:none;stroke-width:1.32292;stroke-linecap:round;stroke-linejoin:round;stroke-miterlimit:4;stroke-dasharray:none"
       d="m 149.32682,478.51033 c -0.20359,0.0741 -0.40801,0.1465 -0.6132,0.21601 0.20529,-0.0695 0.40951,-0.14187 0.6132,-0.21601 z"
       id="path1235" />
    <path
       style="opacity:0.50641;fill:#000000;stroke:none;stroke-width:1.32292;stroke-linecap:round;stroke-linejoin:round;stroke-miterlimit:4;stroke-dasharray:none"
       d="m 150.00779,478.25297 c -0.18995,0.0746 -0.3803,0.14703 -0.57171,0.21757 0.19133,-0.0705 0.38184,-0.14304 0.57171,-0.21757 z"
       id="path1233" />
    <path
       style="opacity:0.50641;fill:#000000;stroke:none;stroke-width:1.32292;stroke-linecap:round;stroke-linejoin:round;stroke-miterlimit:4;stroke-dasharray:none"
       d="m 150.71374,477.96566 c -0.1786,0.0755 -0.3583,0.14872 -0.53825,0.22066 0.18,-0.072 0.3596,-0.14512 0.53825,-0.22066 z"
       id="path1231" />
    <path
       style="opacity:0.50641;fill:#000000;stroke:none;stroke-width:1.32292;stroke-linecap:round;stroke-linejoin:round;stroke-miterlimit:4;stroke-dasharray:none"
       d="m 151.43959,477.64731 c -0.18479,0.084 -0.37057,0.16531 -0.55688,0.24548 0.18628,-0.0801 0.37212,-0.16145 0.55688,-0.24548 z"
       id="path1229" />
    <path
       style="opacity:0.50641;fill:#000000;stroke:none;stroke-width:1.32292;stroke-linecap:round;stroke-linejoin:round;stroke-miterlimit:4;stroke-dasharray:none"
       d="m 154.09907,476.27531 c -0.84643,0.4903 -1.71238,0.93827 -2.59596,1.34255 0.88357,-0.40428 1.74952,-0.85225 2.59596,-1.34255 z"
       id="path1227" />
    <path
       style="opacity:0.50641;fill:#000000;stroke:none;stroke-width:1.32292;stroke-linecap:round;stroke-linejoin:round;stroke-miterlimit:4;stroke-dasharray:none"
       d="m 154.69577,475.91979 c -0.19782,0.1205 -0.39669,0.23966 -0.5967,0.35552 0.20013,-0.11591 0.39877,-0.23495 0.5967,-0.35552 z"
       id="path1225" />
    <path
       style="opacity:0.50641;fill:#000000;stroke:none;stroke-width:1.32292;stroke-linecap:round;stroke-linejoin:round;stroke-miterlimit:4;stroke-dasharray:none"
       d="m 155.3132,475.53427 c -0.18134,0.11626 -0.36343,0.23082 -0.54671,0.34314 0.18327,-0.11232 0.36538,-0.22688 0.54671,-0.34314 z"
       id="path1223" />
    <path
       style="opacity:0.50641;fill:#000000;stroke:none;stroke-width:1.32292;stroke-linecap:round;stroke-linejoin:round;stroke-miterlimit:4;stroke-dasharray:none"
       d="m 155.97892,475.09607 c -0.18008,0.12184 -0.36124,0.24175 -0.54333,0.35964 0.18214,-0.11792 0.36321,-0.23778 0.54333,-0.35964 z"
       id="path1221" />
    <path
       style="opacity:0.50641;fill:#000000;stroke:none;stroke-width:1.32292;stroke-linecap:round;stroke-linejoin:round;stroke-miterlimit:4;stroke-dasharray:none"
       d="m 156.62389,474.64855 c -0.19142,0.13634 -0.38425,0.27019 -0.57806,0.40203 0.19385,-0.13186 0.3866,-0.26564 0.57806,-0.40203 z"
       id="path1219" />
    <path
       style="opacity:0.50641;fill:#000000;stroke:none;stroke-width:1.32292;stroke-linecap:round;stroke-linejoin:round;stroke-miterlimit:4;stroke-dasharray:none"
       d="m 159.01065,472.7794 c -0.77233,0.66257 -1.56851,1.28625 -2.38676,1.86915 0.81816,-0.58285 1.6145,-1.20666 2.38676,-1.86915 z"
       id="path1217" />
    <path
       style="opacity:0.50641;fill:#000000;stroke:none;stroke-width:1.32292;stroke-linecap:round;stroke-linejoin:round;stroke-miterlimit:4;stroke-dasharray:none"
       d="m 159.54509,472.31069 c -0.17495,0.15642 -0.35059,0.31121 -0.52809,0.46355 0.17748,-0.15232 0.35316,-0.30715 0.52809,-0.46355 z"
       id="path1215" />
    <path
       style="opacity:0.50641;fill:#000000;stroke:none;stroke-width:1.32292;stroke-linecap:round;stroke-linejoin:round;stroke-miterlimit:4;stroke-dasharray:none"
       d="m 160.11087,471.79341 c -0.16506,0.15414 -0.33143,0.30689 -0.49887,0.45735 0.16756,-0.15057 0.3337,-0.3031 0.49887,-0.45735 z"
       id="path1213" />
    <path
       style="opacity:0.50641;fill:#000000;stroke:none;stroke-width:1.32292;stroke-linecap:round;stroke-linejoin:round;stroke-miterlimit:4;stroke-dasharray:none"
       d="m 160.68638,471.2441 c -0.16223,0.15841 -0.32572,0.31494 -0.4904,0.46975 0.16468,-0.15481 0.32817,-0.31134 0.4904,-0.46975 z"
       id="path1211" />
    <path
       style="opacity:0.50641;fill:#000000;stroke:none;stroke-width:1.32292;stroke-linecap:round;stroke-linejoin:round;stroke-miterlimit:4;stroke-dasharray:none"
       d="m 161.25851,470.67308 c -0.16479,0.16825 -0.331,0.33422 -0.49844,0.49866 0.16742,-0.16441 0.33368,-0.33044 0.49844,-0.49866 z"
       id="path1209" />
    <path
       style="opacity:0.50641;fill:#000000;stroke:none;stroke-width:1.32292;stroke-linecap:round;stroke-linejoin:round;stroke-miterlimit:4;stroke-dasharray:none"
       d="m 163.82779,467.75957 c -0.80885,1.01743 -1.66049,1.98432 -2.55149,2.89541 0.89111,-0.91117 1.74253,-1.87788 2.55149,-2.89541 z"
       id="path1207" />
    <path
       style="opacity:0.50641;fill:#000000;stroke:none;stroke-width:1.32292;stroke-linecap:round;stroke-linejoin:round;stroke-miterlimit:4;stroke-dasharray:none"
       d="m 164.32708,467.11824 c -0.15297,0.20088 -0.30752,0.39979 -0.46372,0.59688 0.15619,-0.19706 0.31077,-0.39603 0.46372,-0.59688 z"
       id="path1205" />
    <path
       style="opacity:0.50641;fill:#000000;stroke:none;stroke-width:1.32292;stroke-linecap:round;stroke-linejoin:round;stroke-miterlimit:4;stroke-dasharray:none"
       d="m 164.79969,466.4847 c -0.14874,0.20362 -0.29902,0.40518 -0.45101,0.60513 0.15193,-0.19987 0.30233,-0.40159 0.45101,-0.60513 z"
       id="path1203" />
    <path
       style="opacity:0.50641;fill:#000000;stroke:none;stroke-width:1.32292;stroke-linecap:round;stroke-linejoin:round;stroke-miterlimit:4;stroke-dasharray:none"
       d="m 140.62209,462.99395 c -0.0466,0.003 -0.0935,0.004 -0.14017,0.006 0.0467,-0.003 0.0935,-0.004 0.14017,-0.006 z"
       id="path1201" />
    <path
       style="opacity:0.50641;fill:#000000;stroke:none;stroke-width:1.32292;stroke-linecap:round;stroke-linejoin:round;stroke-miterlimit:4;stroke-dasharray:none"
       d="m 138.70709,462.98982 c 0.0771,0.005 0.15476,0.007 0.23207,0.0109 -0.0773,-0.004 -0.15496,-0.006 -0.23207,-0.0109 z"
       id="path1199" />
    <path
       style="opacity:0.50641;fill:#000000;stroke:none;stroke-width:1.32292;stroke-linecap:round;stroke-linejoin:round;stroke-miterlimit:4;stroke-dasharray:none"
       d="m 141.48219,462.92161 c -0.0361,0.004 -0.0722,0.008 -0.10841,0.0119 0.0362,-0.004 0.0723,-0.008 0.10841,-0.0119 z"
       id="path1197" />
    <path
       style="opacity:0.50641;fill:#000000;stroke:none;stroke-width:1.32292;stroke-linecap:round;stroke-linejoin:round;stroke-miterlimit:4;stroke-dasharray:none"
       d="m 137.71741,462.89835 c 0.10255,0.0127 0.20571,0.0228 0.30872,0.0336 -0.10301,-0.0108 -0.20617,-0.0209 -0.30872,-0.0336 z"
       id="path1195" />
    <path
       style="opacity:0.50641;fill:#000000;stroke:none;stroke-width:1.32292;stroke-linecap:round;stroke-linejoin:round;stroke-miterlimit:4;stroke-dasharray:none"
       d="m 142.28935,462.81257 c -0.01,0.003 -0.0197,0.004 -0.0296,0.005 0.01,-0.003 0.0197,-0.004 0.0296,-0.005 z"
       id="path1193" />
    <path
       style="opacity:0.50641;fill:#000000;stroke:none;stroke-width:1.32292;stroke-linecap:round;stroke-linejoin:round;stroke-miterlimit:4;stroke-dasharray:none"
       d="m 136.75102,462.74952 c 0.0823,0.0153 0.1651,0.0284 0.24774,0.0424 -0.0826,-0.014 -0.16549,-0.0271 -0.24774,-0.0424 z"
       id="path1191" />
    <path
       style="opacity:0.50641;fill:#000000;stroke:none;stroke-width:1.32292;stroke-linecap:round;stroke-linejoin:round;stroke-miterlimit:4;stroke-dasharray:none"
       d="m 143.11345,462.65806 c -0.0144,0.003 -0.0288,0.006 -0.0432,0.009 0.0144,-0.003 0.0288,-0.006 0.0432,-0.009 z"
       id="path1189" />
    <path
       style="opacity:0.50641;fill:#000000;stroke:none;stroke-width:1.32292;stroke-linecap:round;stroke-linejoin:round;stroke-miterlimit:4;stroke-dasharray:none"
       d="m 136.26909,462.65237 c 0.10759,0.0233 0.21578,0.0445 0.32397,0.0656 -0.10822,-0.0212 -0.21636,-0.0423 -0.32397,-0.0656 z"
       id="path1187" />
    <path
       style="opacity:0.50641;fill:#000000;stroke:none;stroke-width:1.32292;stroke-linecap:round;stroke-linejoin:round;stroke-miterlimit:4;stroke-dasharray:none"
       d="m 135.80622,462.5449 c 0.0931,0.023 0.18679,0.0442 0.28035,0.0656 -0.0936,-0.0214 -0.18725,-0.0426 -0.28035,-0.0656 z"
       id="path1185" />
    <path
       style="opacity:0.50641;fill:#000000;stroke:none;stroke-width:1.32292;stroke-linecap:round;stroke-linejoin:round;stroke-miterlimit:4;stroke-dasharray:none"
       d="m 143.95534,462.4529 c -0.025,0.007 -0.05,0.0135 -0.075,0.0201 0.025,-0.007 0.05,-0.0135 0.075,-0.0201 z"
       id="path1183" />
    <path
       style="opacity:0.50641;fill:#000000;stroke:none;stroke-width:1.32292;stroke-linecap:round;stroke-linejoin:round;stroke-miterlimit:4;stroke-dasharray:none"
       d="m 135.33065,462.41983 c 0.0814,0.0228 0.16338,0.0436 0.2452,0.0651 -0.0818,-0.0214 -0.1638,-0.0424 -0.2452,-0.0651 z"
       id="path1181" />
    <path
       style="opacity:0.50641;fill:#000000;stroke:none;stroke-width:1.32292;stroke-linecap:round;stroke-linejoin:round;stroke-miterlimit:4;stroke-dasharray:none"
       d="m 134.86905,462.28288 c 0.0772,0.0241 0.15493,0.0464 0.23249,0.0693 -0.0776,-0.023 -0.15526,-0.0452 -0.23249,-0.0693 z"
       id="path1179" />
    <path
       style="opacity:0.50641;fill:#000000;stroke:none;stroke-width:1.32292;stroke-linecap:round;stroke-linejoin:round;stroke-miterlimit:4;stroke-dasharray:none"
       d="m 144.75954,462.2126 c -0.0167,0.006 -0.0333,0.0111 -0.05,0.0164 0.0167,-0.005 0.0333,-0.0111 0.05,-0.0164 z"
       id="path1177" />
    <path
       style="opacity:0.50641;fill:#000000;stroke:none;stroke-width:1.32292;stroke-linecap:round;stroke-linejoin:round;stroke-miterlimit:4;stroke-dasharray:none"
       d="m 134.40534,462.13148 c 0.0781,0.0268 0.15695,0.0518 0.23545,0.0775 -0.0785,-0.0257 -0.15731,-0.0506 -0.23545,-0.0775 z"
       id="path1175" />
    <path
       style="opacity:0.50641;fill:#000000;stroke:none;stroke-width:1.32292;stroke-linecap:round;stroke-linejoin:round;stroke-miterlimit:4;stroke-dasharray:none"
       d="m 133.94882,461.96662 c 0.0733,0.0276 0.147,0.0536 0.22064,0.0801 -0.0736,-0.0265 -0.14742,-0.0526 -0.22064,-0.0801 z"
       id="path1173" />
    <path
       style="opacity:0.50641;fill:#000000;stroke:none;stroke-width:1.32292;stroke-linecap:round;stroke-linejoin:round;stroke-miterlimit:4;stroke-dasharray:none"
       d="m 133.49018,461.78678 c 0.082,0.0336 0.16446,0.0654 0.2469,0.0977 -0.0824,-0.0323 -0.16493,-0.0641 -0.2469,-0.0977 z"
       id="path1171" />
    <path
       style="opacity:0.50641;fill:#000000;stroke:none;stroke-width:1.32292;stroke-linecap:round;stroke-linejoin:round;stroke-miterlimit:4;stroke-dasharray:none"
       d="m 133.04637,461.59766 c 0.0785,0.0348 0.15774,0.0682 0.23673,0.10181 -0.079,-0.0336 -0.15818,-0.067 -0.23673,-0.10181 z"
       id="path1169" />
    <path
       style="opacity:0.50641;fill:#000000;stroke:none;stroke-width:1.32292;stroke-linecap:round;stroke-linejoin:round;stroke-miterlimit:4;stroke-dasharray:none"
       d="m 132.6051,461.39457 c 0.0731,0.0349 0.14667,0.0685 0.22021,0.10231 -0.0736,-0.0338 -0.14708,-0.0674 -0.22021,-0.10231 z"
       id="path1167" />
    <path
       style="opacity:0.50641;fill:#000000;stroke:none;stroke-width:1.32292;stroke-linecap:round;stroke-linejoin:round;stroke-miterlimit:4;stroke-dasharray:none"
       d="m 132.16002,461.17443 c 0.079,0.0404 0.15851,0.0796 0.238,0.11885 -0.0795,-0.0392 -0.15902,-0.0784 -0.238,-0.11885 z"
       id="path1165" />
    <path
       style="opacity:0.50641;fill:#000000;stroke:none;stroke-width:1.32292;stroke-linecap:round;stroke-linejoin:round;stroke-miterlimit:4;stroke-dasharray:none"
       d="m 165.28077,465.81136 c -0.14616,0.20905 -0.29429,0.41627 -0.44381,0.62167 0.14956,-0.20545 0.2976,-0.41257 0.44381,-0.62167 z"
       id="path1163" />
    <path
       style="opacity:0.50641;fill:#000000;stroke:none;stroke-width:1.32292;stroke-linecap:round;stroke-linejoin:round;stroke-miterlimit:4;stroke-dasharray:none"
       d="m 167.43546,462.38056 c -0.66931,1.19049 -1.3888,2.33537 -2.15469,3.4308 0.76593,-1.09537 1.48532,-2.24036 2.15469,-3.4308 z"
       id="path1161" />
    <path
       style="opacity:0.50641;fill:#000000;stroke:none;stroke-width:1.32292;stroke-linecap:round;stroke-linejoin:round;stroke-miterlimit:4;stroke-dasharray:none"
       d="m 167.83099,461.66071 c -0.12982,0.24167 -0.26167,0.48175 -0.39553,0.71985 0.13388,-0.23812 0.26569,-0.47815 0.39553,-0.71985 z"
       id="path1159" />
    <path
       style="opacity:0.50641;fill:#000000;stroke:none;stroke-width:1.32292;stroke-linecap:round;stroke-linejoin:round;stroke-miterlimit:4;stroke-dasharray:none"
       d="m 168.20281,460.95324 c -0.12193,0.23749 -0.24603,0.47329 -0.37182,0.70747 0.12583,-0.23421 0.24985,-0.46995 0.37182,-0.70747 z"
       id="path1157" />
    <path
       style="opacity:0.50641;fill:#000000;stroke:none;stroke-width:1.32292;stroke-linecap:round;stroke-linejoin:round;stroke-miterlimit:4;stroke-dasharray:none"
       d="m 131.7251,460.94395 c 0.0822,0.045 0.16494,0.0886 0.24774,0.1323 -0.0827,-0.0436 -0.16563,-0.0873 -0.24774,-0.1323 z"
       id="path1155" />
    <path
       style="opacity:0.50641;fill:#000000;stroke:none;stroke-width:1.32292;stroke-linecap:round;stroke-linejoin:round;stroke-miterlimit:4;stroke-dasharray:none"
       d="m 131.30543,460.70676 c 0.0787,0.0459 0.15791,0.0903 0.23715,0.13488 -0.0792,-0.0446 -0.15849,-0.089 -0.23715,-0.13488 z"
       id="path1153" />
    <path
       style="opacity:0.50641;fill:#000000;stroke:none;stroke-width:1.32292;stroke-linecap:round;stroke-linejoin:round;stroke-miterlimit:4;stroke-dasharray:none"
       d="m 130.89083,460.45768 c 0.0668,0.0414 0.13433,0.0815 0.20158,0.12194 -0.0673,-0.0404 -0.1347,-0.0806 -0.20158,-0.12194 z"
       id="path1151" />
    <path
       style="opacity:0.50641;fill:#000000;stroke:none;stroke-width:1.32292;stroke-linecap:round;stroke-linejoin:round;stroke-miterlimit:4;stroke-dasharray:none"
       d="m 130.46015,460.18275 c 0.074,0.0487 0.14859,0.0961 0.22318,0.14367 -0.0746,-0.0476 -0.14917,-0.095 -0.22318,-0.14367 z"
       id="path1149" />
    <path
       style="opacity:0.50641;fill:#000000;stroke:none;stroke-width:1.32292;stroke-linecap:round;stroke-linejoin:round;stroke-miterlimit:4;stroke-dasharray:none"
       d="m 130.06208,459.91353 c 0.0752,0.0522 0.15078,0.10346 0.22656,0.15449 -0.0757,-0.051 -0.15145,-0.10228 -0.22656,-0.15449 z"
       id="path1147" />
    <path
       style="opacity:0.50641;fill:#000000;stroke:none;stroke-width:1.32292;stroke-linecap:round;stroke-linejoin:round;stroke-miterlimit:4;stroke-dasharray:none"
       d="m 129.6695,459.63345 c 0.0576,0.0422 0.11567,0.0835 0.17363,0.12504 -0.058,-0.0415 -0.11601,-0.0828 -0.17363,-0.12504 z"
       id="path1145" />
    <path
       style="opacity:0.50641;fill:#000000;stroke:none;stroke-width:1.32292;stroke-linecap:round;stroke-linejoin:round;stroke-miterlimit:4;stroke-dasharray:none"
       d="m 129.26042,459.32441 c 0.0635,0.0492 0.12738,0.0979 0.19141,0.14624 -0.064,-0.0483 -0.12793,-0.097 -0.19141,-0.14624 z"
       id="path1143" />
    <path
       style="opacity:0.50641;fill:#000000;stroke:none;stroke-width:1.32292;stroke-linecap:round;stroke-linejoin:round;stroke-miterlimit:4;stroke-dasharray:none"
       d="m 128.86658,459.01125 c 0.0693,0.0566 0.1389,0.11245 0.20878,0.16796 -0.0699,-0.0555 -0.13951,-0.11139 -0.20878,-0.16796 z"
       id="path1141" />
    <path
       style="opacity:0.50641;fill:#000000;stroke:none;stroke-width:1.32292;stroke-linecap:round;stroke-linejoin:round;stroke-miterlimit:4;stroke-dasharray:none"
       d="m 128.4846,458.69137 c 0.0652,0.056 0.13074,0.11136 0.19649,0.1664 -0.0658,-0.055 -0.13131,-0.11039 -0.19649,-0.1664 z"
       id="path1139" />
    <path
       style="opacity:0.50641;fill:#000000;stroke:none;stroke-width:1.32292;stroke-linecap:round;stroke-linejoin:round;stroke-miterlimit:4;stroke-dasharray:none"
       d="m 128.1187,458.36892 c 0.058,0.0523 0.1164,0.10398 0.1749,0.15555 -0.0585,-0.0516 -0.11685,-0.10321 -0.1749,-0.15555 z"
       id="path1137" />
    <path
       style="opacity:0.50641;fill:#000000;stroke:none;stroke-width:1.32292;stroke-linecap:round;stroke-linejoin:round;stroke-miterlimit:4;stroke-dasharray:none"
       d="m 127.74053,458.01906 c 0.0584,0.0554 0.11721,0.11023 0.17617,0.16487 -0.0589,-0.0546 -0.11777,-0.10946 -0.17617,-0.16487 z"
       id="path1135" />
    <path
       style="opacity:0.50641;fill:#000000;stroke:none;stroke-width:1.32292;stroke-linecap:round;stroke-linejoin:round;stroke-miterlimit:4;stroke-dasharray:none"
       d="m 127.41699,457.7054 c 0.045,0.0446 0.0902,0.0887 0.13551,0.1328 -0.0453,-0.0441 -0.0905,-0.0882 -0.13551,-0.1328 z"
       id="path1133" />
    <path
       style="opacity:0.50641;fill:#000000;stroke:none;stroke-width:1.32292;stroke-linecap:round;stroke-linejoin:round;stroke-miterlimit:4;stroke-dasharray:none"
       d="m 126.70977,456.97004 c 0.0289,0.0315 0.0581,0.0627 0.0872,0.094 -0.0291,-0.0313 -0.0583,-0.0625 -0.0872,-0.094 z"
       id="path1131" />
    <path
       style="opacity:0.50641;fill:#000000;stroke:none;stroke-width:1.32292;stroke-linecap:round;stroke-linejoin:round;stroke-miterlimit:4;stroke-dasharray:none"
       d="m 126.03008,456.1923 c 0.0314,0.0377 0.0628,0.0753 0.0944,0.11266 -0.0316,-0.0374 -0.063,-0.075 -0.0944,-0.11266 z"
       id="path1129" />
    <path
       style="opacity:0.50641;fill:#000000;stroke:none;stroke-width:1.32292;stroke-linecap:round;stroke-linejoin:round;stroke-miterlimit:4;stroke-dasharray:none"
       d="m 170.5396,455.54169 c -0.66357,1.86296 -1.4373,3.65395 -2.31095,5.36091 0.8738,-1.70704 1.64726,-3.49787 2.31095,-5.36091 z"
       id="path1127" />
    <path
       style="opacity:0.50641;fill:#000000;stroke:none;stroke-width:1.32292;stroke-linecap:round;stroke-linejoin:round;stroke-miterlimit:4;stroke-dasharray:none"
       d="m 125.39273,455.39183 c 0.0265,0.0349 0.053,0.0697 0.0796,0.10438 -0.0267,-0.0347 -0.0531,-0.0695 -0.0796,-0.10438 z"
       id="path1125" />
    <path
       style="opacity:0.50641;fill:#000000;stroke:none;stroke-width:1.32292;stroke-linecap:round;stroke-linejoin:round;stroke-miterlimit:4;stroke-dasharray:none"
       d="m 170.81487,454.74538 c -0.0889,0.26476 -0.17988,0.52816 -0.27315,0.79012 0.0933,-0.26194 0.18426,-0.52541 0.27315,-0.79012 z"
       id="path1123" />
    <path
       style="opacity:0.50641;fill:#000000;stroke:none;stroke-width:1.32292;stroke-linecap:round;stroke-linejoin:round;stroke-miterlimit:4;stroke-dasharray:none"
       d="m 124.73845,454.48645 c 0.0385,0.0561 0.0772,0.11184 0.11603,0.16746 -0.0388,-0.0556 -0.0776,-0.11144 -0.11603,-0.16746 z"
       id="path1121" />
    <path
       style="opacity:0.50641;fill:#000000;stroke:none;stroke-width:1.32292;stroke-linecap:round;stroke-linejoin:round;stroke-miterlimit:4;stroke-dasharray:none"
       d="m 124.43608,454.03481 c 0.0501,0.0768 0.1003,0.15346 0.15118,0.22945 -0.0509,-0.076 -0.10105,-0.15267 -0.15118,-0.22945 z"
       id="path1119" />
    <path
       style="opacity:0.50641;fill:#000000;stroke:none;stroke-width:1.32292;stroke-linecap:round;stroke-linejoin:round;stroke-miterlimit:4;stroke-dasharray:none"
       d="m 124.15446,453.59298 c 0.048,0.0771 0.0961,0.1541 0.14483,0.23048 -0.0487,-0.0764 -0.0969,-0.15338 -0.14483,-0.23048 z"
       id="path1117" />
    <path
       style="opacity:0.50641;fill:#000000;stroke:none;stroke-width:1.32292;stroke-linecap:round;stroke-linejoin:round;stroke-miterlimit:4;stroke-dasharray:none"
       d="m 123.86776,453.12015 c 0.0492,0.0833 0.0985,0.16658 0.14865,0.24907 -0.0501,-0.0826 -0.0994,-0.1657 -0.14865,-0.24907 z"
       id="path1115" />
    <path
       style="opacity:0.50641;fill:#000000;stroke:none;stroke-width:1.32292;stroke-linecap:round;stroke-linejoin:round;stroke-miterlimit:4;stroke-dasharray:none"
       d="m 123.60224,452.65969 c 0.0491,0.0874 0.0986,0.17441 0.14864,0.26099 -0.05,-0.0865 -0.0995,-0.17357 -0.14864,-0.26099 z"
       id="path1113" />
    <path
       style="opacity:0.50641;fill:#000000;stroke:none;stroke-width:1.32292;stroke-linecap:round;stroke-linejoin:round;stroke-miterlimit:4;stroke-dasharray:none"
       d="m 123.36339,452.22408 c 0.0386,0.0719 0.0769,0.14409 0.11604,0.21548 -0.0392,-0.0714 -0.0775,-0.14356 -0.11604,-0.21548 z"
       id="path1111" />
    <path
       style="opacity:0.50641;fill:#000000;stroke:none;stroke-width:1.32292;stroke-linecap:round;stroke-linejoin:round;stroke-miterlimit:4;stroke-dasharray:none"
       d="m 123.12116,451.76106 c 0.03,0.0588 0.0598,0.11771 0.0902,0.17621 -0.0304,-0.0585 -0.0602,-0.11742 -0.0902,-0.17621 z"
       id="path1109" />
    <path
       style="opacity:0.50641;fill:#000000;stroke:none;stroke-width:1.32292;stroke-linecap:round;stroke-linejoin:round;stroke-miterlimit:4;stroke-dasharray:none"
       d="m 122.87723,451.26806 c 0.0318,0.0659 0.0634,0.1319 0.0957,0.19741 -0.0323,-0.0655 -0.0639,-0.13147 -0.0957,-0.19741 z"
       id="path1107" />
    <path
       style="opacity:0.50641;fill:#000000;stroke:none;stroke-width:1.32292;stroke-linecap:round;stroke-linejoin:round;stroke-miterlimit:4;stroke-dasharray:none"
       d="m 122.63203,450.74509 c 0.0333,0.0732 0.0665,0.14639 0.10037,0.2191 -0.0339,-0.0727 -0.0671,-0.14595 -0.10037,-0.2191 z"
       id="path1105" />
    <path
       style="opacity:0.50641;fill:#000000;stroke:none;stroke-width:1.32292;stroke-linecap:round;stroke-linejoin:round;stroke-miterlimit:4;stroke-dasharray:none"
       d="m 122.39785,450.21386 c 0.041,0.0958 0.082,0.19174 0.12408,0.2868 -0.0421,-0.0951 -0.0831,-0.19094 -0.12408,-0.2868 z"
       id="path1103" />
    <path
       style="opacity:0.50641;fill:#000000;stroke:none;stroke-width:1.32292;stroke-linecap:round;stroke-linejoin:round;stroke-miterlimit:4;stroke-dasharray:none"
       d="m 122.19839,449.73533 c 0.0328,0.0811 0.0656,0.1623 0.0991,0.24289 -0.0336,-0.0806 -0.0663,-0.16174 -0.0991,-0.24289 z"
       id="path1101" />
    <path
       style="opacity:0.50641;fill:#000000;stroke:none;stroke-width:1.32292;stroke-linecap:round;stroke-linejoin:round;stroke-miterlimit:4;stroke-dasharray:none"
       d="m 121.99638,449.21908 c 0.0303,0.0798 0.06,0.15996 0.091,0.23926 -0.031,-0.0793 -0.0607,-0.15947 -0.091,-0.23926 z"
       id="path1099" />
    <path
       style="opacity:0.50641;fill:#000000;stroke:none;stroke-width:1.32292;stroke-linecap:round;stroke-linejoin:round;stroke-miterlimit:4;stroke-dasharray:none"
       d="m 121.80158,448.69094 c 0.0297,0.0835 0.0593,0.16711 0.0898,0.25014 -0.0305,-0.0829 -0.0601,-0.16672 -0.0898,-0.25014 z"
       id="path1097" />
    <path
       style="opacity:0.50641;fill:#000000;stroke:none;stroke-width:1.32292;stroke-linecap:round;stroke-linejoin:round;stroke-miterlimit:4;stroke-dasharray:none"
       d="m 121.61652,448.15352 c 0.0293,0.088 0.0584,0.17605 0.0885,0.26355 -0.0301,-0.0875 -0.0593,-0.17555 -0.0885,-0.26355 z"
       id="path1095" />
    <path
       style="opacity:0.50641;fill:#000000;stroke:none;stroke-width:1.32292;stroke-linecap:round;stroke-linejoin:round;stroke-miterlimit:4;stroke-dasharray:none"
       d="m 121.45178,447.64036 c 0.0249,0.0801 0.0494,0.1606 0.075,0.24029 -0.0256,-0.0798 -0.0501,-0.16007 -0.075,-0.24029 z"
       id="path1093" />
    <path
       style="opacity:0.50641;fill:#000000;stroke:none;stroke-width:1.32292;stroke-linecap:round;stroke-linejoin:round;stroke-miterlimit:4;stroke-dasharray:none"
       d="m 121.29848,447.12929 c 0.0195,0.0675 0.0384,0.13531 0.0584,0.20257 -0.02,-0.0672 -0.0389,-0.13507 -0.0584,-0.20257 z"
       id="path1091" />
    <path
       style="opacity:0.50641;fill:#000000;stroke:none;stroke-width:1.32292;stroke-linecap:round;stroke-linejoin:round;stroke-miterlimit:4;stroke-dasharray:none"
       d="m 121.14645,446.58049 c 0.0179,0.067 0.035,0.1343 0.0534,0.20101 -0.0183,-0.0667 -0.0355,-0.13402 -0.0534,-0.20101 z"
       id="path1089" />
    <path
       style="opacity:0.50641;fill:#000000;stroke:none;stroke-width:1.32292;stroke-linecap:round;stroke-linejoin:round;stroke-miterlimit:4;stroke-dasharray:none"
       d="m 120.99823,445.99912 c 0.0195,0.0801 0.0383,0.16055 0.0584,0.2403 -0.0202,-0.0797 -0.0389,-0.16021 -0.0584,-0.2403 z"
       id="path1087" />
    <path
       style="opacity:0.50641;fill:#000000;stroke:none;stroke-width:1.32292;stroke-linecap:round;stroke-linejoin:round;stroke-miterlimit:4;stroke-dasharray:none"
       d="m 120.86526,445.42707 c 0.0188,0.0849 0.0368,0.17023 0.0563,0.25477 -0.0195,-0.0846 -0.0375,-0.16984 -0.0563,-0.25477 z"
       id="path1085" />
    <path
       style="opacity:0.50641;fill:#000000;stroke:none;stroke-width:1.32292;stroke-linecap:round;stroke-linejoin:round;stroke-miterlimit:4;stroke-dasharray:none"
       d="m 120.74626,444.8607 c 0.0172,0.0861 0.0337,0.17262 0.0517,0.25837 -0.0179,-0.0858 -0.0345,-0.17219 -0.0517,-0.25837 z"
       id="path1083" />
    <path
       style="opacity:0.50641;fill:#000000;stroke:none;stroke-width:1.32292;stroke-linecap:round;stroke-linejoin:round;stroke-miterlimit:4;stroke-dasharray:none"
       d="m 120.64038,444.30156 c 0.015,0.0841 0.0292,0.16846 0.0449,0.25217 -0.0157,-0.0837 -0.0299,-0.16814 -0.0449,-0.25217 z"
       id="path1081" />
    <path
       style="opacity:0.50641;fill:#000000;stroke:none;stroke-width:1.32292;stroke-linecap:round;stroke-linejoin:round;stroke-miterlimit:4;stroke-dasharray:none"
       d="m 120.5396,443.69952 c 0.0141,0.0903 0.0274,0.18085 0.0423,0.27078 -0.015,-0.0899 -0.0282,-0.1805 -0.0423,-0.27078 z"
       id="path1079" />
    <path
       style="opacity:0.50641;fill:#000000;stroke:none;stroke-width:1.32292;stroke-linecap:round;stroke-linejoin:round;stroke-miterlimit:4;stroke-dasharray:none"
       d="m 120.44601,443.0541 c 0.0157,0.11795 0.0312,0.23609 0.0483,0.35346 -0.0171,-0.11743 -0.0326,-0.23546 -0.0483,-0.35346 z"
       id="path1077" />
    <path
       style="opacity:0.50641;fill:#000000;stroke:none;stroke-width:1.32292;stroke-linecap:round;stroke-linejoin:round;stroke-miterlimit:4;stroke-dasharray:none"
       d="m 120.37825,442.50374 c 0.0119,0.10456 0.023,0.20952 0.036,0.31366 -0.013,-0.10414 -0.0241,-0.2091 -0.036,-0.31366 z"
       id="path1075" />
    <path
       style="opacity:0.50641;fill:#000000;stroke:none;stroke-width:1.32292;stroke-linecap:round;stroke-linejoin:round;stroke-miterlimit:4;stroke-dasharray:none"
       d="m 171.08547,453.9139 c -0.0844,0.2682 -0.17153,0.53501 -0.26044,0.80047 0.089,-0.26557 0.17595,-0.53216 0.26044,-0.80047 z"
       id="path1073" />
    <path
       style="opacity:0.50641;fill:#000000;stroke:none;stroke-width:1.32292;stroke-linecap:round;stroke-linejoin:round;stroke-miterlimit:4;stroke-dasharray:none"
       d="m 172.68964,447.09622 c -0.37529,2.35061 -0.91507,4.62923 -1.60417,6.81768 0.68921,-2.18851 1.22881,-4.46704 1.60417,-6.81768 z"
       id="path1071" />
    <path
       style="opacity:0.50641;fill:#000000;stroke:none;stroke-width:1.32292;stroke-linecap:round;stroke-linejoin:round;stroke-miterlimit:4;stroke-dasharray:none"
       d="m 173.28675,440.77826 c -0.0664,2.15265 -0.26898,4.26268 -0.59711,6.31796 0.32819,-2.05528 0.53067,-4.16534 0.59711,-6.31796 z"
       id="path1069" />
    <path
       style="opacity:0.50641;fill:#000000;stroke:none;stroke-width:1.32292;stroke-linecap:round;stroke-linejoin:round;stroke-miterlimit:4;stroke-dasharray:none"
       d="m 120.41424,435.59925 c -0.013,0.10414 -0.0241,0.2091 -0.036,0.31367 0.0119,-0.10457 0.023,-0.20953 0.036,-0.31367 z"
       id="path1067" />
    <path
       style="opacity:0.50641;fill:#000000;stroke:none;stroke-width:1.32292;stroke-linecap:round;stroke-linejoin:round;stroke-miterlimit:4;stroke-dasharray:none"
       d="m 120.49428,435.0091 c -0.0171,0.11737 -0.0326,0.2355 -0.0483,0.35346 0.0157,-0.11801 0.0311,-0.23604 0.0483,-0.35346 z"
       id="path1065" />
    <path
       style="opacity:0.50641;fill:#000000;stroke:none;stroke-width:1.32292;stroke-linecap:round;stroke-linejoin:round;stroke-miterlimit:4;stroke-dasharray:none"
       d="m 120.58194,434.44636 c -0.015,0.0899 -0.0282,0.18047 -0.0423,0.27077 0.0141,-0.0903 0.0274,-0.18089 0.0423,-0.27077 z"
       id="path1063" />
    <path
       style="opacity:0.50641;fill:#000000;stroke:none;stroke-width:1.32292;stroke-linecap:round;stroke-linejoin:round;stroke-miterlimit:4;stroke-dasharray:none"
       d="m 120.68527,433.86292 c -0.0157,0.0837 -0.0299,0.16812 -0.0449,0.25218 0.015,-0.084 0.0292,-0.16849 0.0449,-0.25218 z"
       id="path1061" />
    <path
       style="opacity:0.50641;fill:#000000;stroke:none;stroke-width:1.32292;stroke-linecap:round;stroke-linejoin:round;stroke-miterlimit:4;stroke-dasharray:none"
       d="m 120.79792,433.29759 c -0.0179,0.0857 -0.0345,0.17224 -0.0517,0.25836 0.0172,-0.0862 0.0337,-0.17256 0.0517,-0.25836 z"
       id="path1059" />
    <path
       style="opacity:0.50641;fill:#000000;stroke:none;stroke-width:1.32292;stroke-linecap:round;stroke-linejoin:round;stroke-miterlimit:4;stroke-dasharray:none"
       d="m 120.92158,432.73482 c -0.0195,0.0845 -0.0376,0.16986 -0.0563,0.25477 0.0188,-0.0849 0.0368,-0.17021 0.0563,-0.25477 z"
       id="path1057" />
    <path
       style="opacity:0.50641;fill:#000000;stroke:none;stroke-width:1.32292;stroke-linecap:round;stroke-linejoin:round;stroke-miterlimit:4;stroke-dasharray:none"
       d="m 121.05667,432.17724 c -0.0202,0.0797 -0.0389,0.1602 -0.0584,0.24029 0.0195,-0.0801 0.0383,-0.16057 0.0584,-0.24029 z"
       id="path1055" />
    <path
       style="opacity:0.50641;fill:#000000;stroke:none;stroke-width:1.32292;stroke-linecap:round;stroke-linejoin:round;stroke-miterlimit:4;stroke-dasharray:none"
       d="m 121.19981,431.63516 c -0.0183,0.0667 -0.0355,0.13404 -0.0534,0.201 0.0179,-0.067 0.035,-0.13427 0.0534,-0.201 z"
       id="path1053" />
    <path
       style="opacity:0.50641;fill:#000000;stroke:none;stroke-width:1.32292;stroke-linecap:round;stroke-linejoin:round;stroke-miterlimit:4;stroke-dasharray:none"
       d="m 121.35692,431.0848 c -0.02,0.0673 -0.0389,0.13502 -0.0584,0.20256 0.0195,-0.0675 0.0384,-0.13536 0.0584,-0.20256 z"
       id="path1051" />
    <path
       style="opacity:0.50641;fill:#000000;stroke:none;stroke-width:1.32292;stroke-linecap:round;stroke-linejoin:round;stroke-miterlimit:4;stroke-dasharray:none"
       d="m 121.52674,430.536 c -0.0256,0.0797 -0.0501,0.16018 -0.075,0.2403 0.0249,-0.0802 0.0494,-0.16053 0.075,-0.2403 z"
       id="path1049" />
    <path
       style="opacity:0.50641;fill:#000000;stroke:none;stroke-width:1.32292;stroke-linecap:round;stroke-linejoin:round;stroke-miterlimit:4;stroke-dasharray:none"
       d="m 121.70503,429.99958 c -0.0301,0.0875 -0.0593,0.17556 -0.0885,0.26356 0.0293,-0.088 0.0584,-0.17608 0.0885,-0.26356 z"
       id="path1047" />
    <path
       style="opacity:0.50641;fill:#000000;stroke:none;stroke-width:1.32292;stroke-linecap:round;stroke-linejoin:round;stroke-miterlimit:4;stroke-dasharray:none"
       d="m 121.89136,429.47558 c -0.0305,0.083 -0.06,0.16661 -0.0898,0.25013 0.0297,-0.0834 0.0593,-0.16721 0.0898,-0.25013 z"
       id="path1045" />
    <path
       style="opacity:0.50641;fill:#000000;stroke:none;stroke-width:1.32292;stroke-linecap:round;stroke-linejoin:round;stroke-miterlimit:4;stroke-dasharray:none"
       d="m 122.08743,428.95832 c -0.031,0.0793 -0.0607,0.15946 -0.091,0.23926 0.0303,-0.0798 0.06,-0.15997 0.091,-0.23926 z"
       id="path1043" />
    <path
       style="opacity:0.50641;fill:#000000;stroke:none;stroke-width:1.32292;stroke-linecap:round;stroke-linejoin:round;stroke-miterlimit:4;stroke-dasharray:none"
       d="m 122.29748,428.43844 c -0.0335,0.0806 -0.0663,0.16179 -0.0991,0.24288 0.0328,-0.0811 0.0655,-0.16226 0.0991,-0.24288 z"
       id="path1041" />
    <path
       style="opacity:0.50641;fill:#000000;stroke:none;stroke-width:1.32292;stroke-linecap:round;stroke-linejoin:round;stroke-miterlimit:4;stroke-dasharray:none"
       d="m 122.52193,427.91599 c -0.0421,0.0951 -0.0831,0.19098 -0.12408,0.28681 0.041,-0.0959 0.082,-0.19172 0.12408,-0.28681 z"
       id="path1039" />
    <path
       style="opacity:0.50641;fill:#000000;stroke:none;stroke-width:1.32292;stroke-linecap:round;stroke-linejoin:round;stroke-miterlimit:4;stroke-dasharray:none"
       d="m 122.7324,427.45247 c -0.0339,0.0727 -0.0671,0.14591 -0.10037,0.2191 0.0333,-0.0732 0.0665,-0.14645 0.10037,-0.2191 z"
       id="path1037" />
    <path
       style="opacity:0.50641;fill:#000000;stroke:none;stroke-width:1.32292;stroke-linecap:round;stroke-linejoin:round;stroke-miterlimit:4;stroke-dasharray:none"
       d="m 122.97294,426.95119 c -0.0323,0.0655 -0.0639,0.1315 -0.0957,0.1974 0.0318,-0.0659 0.0634,-0.13187 0.0957,-0.1974 z"
       id="path1035" />
    <path
       style="opacity:0.50641;fill:#000000;stroke:none;stroke-width:1.32292;stroke-linecap:round;stroke-linejoin:round;stroke-miterlimit:4;stroke-dasharray:none"
       d="m 123.21136,426.47938 c -0.0304,0.0585 -0.0602,0.1174 -0.0902,0.17622 0.03,-0.0588 0.0598,-0.11774 0.0902,-0.17622 z"
       id="path1033" />
    <path
       style="opacity:0.50641;fill:#000000;stroke:none;stroke-width:1.32292;stroke-linecap:round;stroke-linejoin:round;stroke-miterlimit:4;stroke-dasharray:none"
       d="m 123.47943,425.9771 c -0.0392,0.0714 -0.0775,0.14353 -0.11604,0.21547 0.0386,-0.0719 0.0769,-0.14409 0.11604,-0.21547 z"
       id="path1031" />
    <path
       style="opacity:0.50641;fill:#000000;stroke:none;stroke-width:1.32292;stroke-linecap:round;stroke-linejoin:round;stroke-miterlimit:4;stroke-dasharray:none"
       d="m 123.75088,425.49598 c -0.05,0.0866 -0.0995,0.17357 -0.14864,0.26098 0.0491,-0.0874 0.0986,-0.17444 0.14864,-0.26098 z"
       id="path1029" />
    <path
       style="opacity:0.50641;fill:#000000;stroke:none;stroke-width:1.32292;stroke-linecap:round;stroke-linejoin:round;stroke-miterlimit:4;stroke-dasharray:none"
       d="m 124.01641,425.04743 c -0.0501,0.0825 -0.0994,0.16576 -0.14865,0.24908 0.0493,-0.0834 0.0985,-0.1665 0.14865,-0.24908 z"
       id="path1027" />
    <path
       style="opacity:0.50641;fill:#000000;stroke:none;stroke-width:1.32292;stroke-linecap:round;stroke-linejoin:round;stroke-miterlimit:4;stroke-dasharray:none"
       d="m 124.29929,424.59319 c -0.0487,0.0764 -0.0968,0.15336 -0.14483,0.23048 0.048,-0.0771 0.0961,-0.15412 0.14483,-0.23048 z"
       id="path1025" />
    <path
       style="opacity:0.50641;fill:#000000;stroke:none;stroke-width:1.32292;stroke-linecap:round;stroke-linejoin:round;stroke-miterlimit:4;stroke-dasharray:none"
       d="m 124.58726,424.1524 c -0.0509,0.076 -0.10106,0.15266 -0.15118,0.22945 0.0501,-0.0768 0.1003,-0.15346 0.15118,-0.22945 z"
       id="path1023" />
    <path
       style="opacity:0.50641;fill:#000000;stroke:none;stroke-width:1.32292;stroke-linecap:round;stroke-linejoin:round;stroke-miterlimit:4;stroke-dasharray:none"
       d="m 124.85448,423.76275 c -0.0389,0.0556 -0.0776,0.11139 -0.11603,0.16745 0.0384,-0.056 0.0772,-0.11186 0.11603,-0.16745 z"
       id="path1021" />
    <path
       style="opacity:0.50641;fill:#000000;stroke:none;stroke-width:1.32292;stroke-linecap:round;stroke-linejoin:round;stroke-miterlimit:4;stroke-dasharray:none"
       d="m 125.47235,422.92045 c -0.0267,0.0347 -0.0531,0.0695 -0.0796,0.10437 0.0265,-0.0349 0.0529,-0.0697 0.0796,-0.10437 z"
       id="path1019" />
    <path
       style="opacity:0.50641;fill:#000000;stroke:none;stroke-width:1.32292;stroke-linecap:round;stroke-linejoin:round;stroke-miterlimit:4;stroke-dasharray:none"
       d="m 170.51885,422.81657 c 0.0895,0.25022 0.17706,0.50168 0.26256,0.75446 -0.0855,-0.25276 -0.17305,-0.50427 -0.26256,-0.75446 z"
       id="path1017" />
    <path
       style="opacity:0.50641;fill:#000000;stroke:none;stroke-width:1.32292;stroke-linecap:round;stroke-linejoin:round;stroke-miterlimit:4;stroke-dasharray:none"
       d="m 126.12451,422.11169 c -0.0316,0.0374 -0.063,0.075 -0.0944,0.11266 0.0314,-0.0377 0.0628,-0.0753 0.0944,-0.11266 z"
       id="path1015" />
    <path
       style="opacity:0.50641;fill:#000000;stroke:none;stroke-width:1.32292;stroke-linecap:round;stroke-linejoin:round;stroke-miterlimit:4;stroke-dasharray:none"
       d="m 126.79701,421.35258 c -0.0291,0.0313 -0.0583,0.0625 -0.0872,0.094 0.0289,-0.0315 0.0581,-0.0627 0.0872,-0.094 z"
       id="path1013" />
    <path
       style="opacity:0.50641;fill:#000000;stroke:none;stroke-width:1.32292;stroke-linecap:round;stroke-linejoin:round;stroke-miterlimit:4;stroke-dasharray:none"
       d="m 169.793,420.9221 c 0.2527,0.61823 0.49319,1.24553 0.72077,1.88103 -0.22752,-0.63548 -0.46803,-1.2628 -0.72077,-1.88103 z"
       id="path1011" />
    <path
       style="opacity:0.50641;fill:#000000;stroke:none;stroke-width:1.32292;stroke-linecap:round;stroke-linejoin:round;stroke-miterlimit:4;stroke-dasharray:none"
       d="m 127.5525,420.57846 c -0.0453,0.0441 -0.0905,0.0882 -0.13551,0.13279 0.045,-0.0446 0.0902,-0.0887 0.13551,-0.13279 z"
       id="path1009" />
    <path
       style="opacity:0.50641;fill:#000000;stroke:none;stroke-width:1.32292;stroke-linecap:round;stroke-linejoin:round;stroke-miterlimit:4;stroke-dasharray:none"
       d="m 127.9167,420.23273 c -0.059,0.0546 -0.11773,0.10943 -0.17617,0.16486 0.0584,-0.0554 0.11724,-0.11025 0.17617,-0.16486 z"
       id="path1007" />
    <path
       style="opacity:0.50641;fill:#000000;stroke:none;stroke-width:1.32292;stroke-linecap:round;stroke-linejoin:round;stroke-miterlimit:4;stroke-dasharray:none"
       d="m 128.2936,419.89218 c -0.0585,0.0516 -0.11688,0.10322 -0.1749,0.15555 0.0581,-0.0523 0.11637,-0.10395 0.1749,-0.15555 z"
       id="path1005" />
    <path
       style="opacity:0.50641;fill:#000000;stroke:none;stroke-width:1.32292;stroke-linecap:round;stroke-linejoin:round;stroke-miterlimit:4;stroke-dasharray:none"
       d="m 128.68109,419.55889 c -0.0658,0.055 -0.13132,0.11038 -0.19649,0.16639 0.0652,-0.056 0.13072,-0.11136 0.19649,-0.16639 z"
       id="path1003" />
    <path
       style="opacity:0.50641;fill:#000000;stroke:none;stroke-width:1.32292;stroke-linecap:round;stroke-linejoin:round;stroke-miterlimit:4;stroke-dasharray:none"
       d="m 129.05418,419.25451 c -0.0615,0.0489 -0.12282,0.098 -0.18379,0.1478 0.061,-0.0498 0.12236,-0.0989 0.18379,-0.1478 z"
       id="path1001" />
    <path
       style="opacity:0.50641;fill:#000000;stroke:none;stroke-width:1.32292;stroke-linecap:round;stroke-linejoin:round;stroke-miterlimit:4;stroke-dasharray:none"
       d="m 129.43913,418.95529 c -0.0543,0.0411 -0.10863,0.0823 -0.16262,0.12404 0.054,-0.0417 0.10829,-0.083 0.16262,-0.12404 z"
       id="path999" />
    <path
       style="opacity:0.50641;fill:#000000;stroke:none;stroke-width:1.32292;stroke-linecap:round;stroke-linejoin:round;stroke-miterlimit:4;stroke-dasharray:none"
       d="m 129.84313,418.65817 c -0.058,0.0415 -0.11604,0.0828 -0.17363,0.12504 0.0576,-0.0422 0.11564,-0.0835 0.17363,-0.12504 z"
       id="path997" />
    <path
       style="opacity:0.50641;fill:#000000;stroke:none;stroke-width:1.32292;stroke-linecap:round;stroke-linejoin:round;stroke-miterlimit:4;stroke-dasharray:none"
       d="m 130.28864,418.34863 c -0.0758,0.051 -0.1514,0.10226 -0.22656,0.15449 0.0751,-0.0522 0.15083,-0.10348 0.22656,-0.15449 z"
       id="path995" />
    <path
       style="opacity:0.50641;fill:#000000;stroke:none;stroke-width:1.32292;stroke-linecap:round;stroke-linejoin:round;stroke-miterlimit:4;stroke-dasharray:none"
       d="m 130.68333,418.09024 c -0.0746,0.0475 -0.14916,0.095 -0.22318,0.14367 0.074,-0.0487 0.1486,-0.0961 0.22318,-0.14367 z"
       id="path993" />
    <path
       style="opacity:0.50641;fill:#000000;stroke:none;stroke-width:1.32292;stroke-linecap:round;stroke-linejoin:round;stroke-miterlimit:4;stroke-dasharray:none"
       d="m 131.09241,417.83703 c -0.0673,0.0404 -0.13476,0.0806 -0.20158,0.12195 0.0669,-0.0414 0.13427,-0.0815 0.20158,-0.12195 z"
       id="path991" />
    <path
       style="opacity:0.50641;fill:#000000;stroke:none;stroke-width:1.32292;stroke-linecap:round;stroke-linejoin:round;stroke-miterlimit:4;stroke-dasharray:none"
       d="m 168.32097,417.6944 c 0.10678,0.21108 0.21177,0.42357 0.31549,0.63717 -0.10373,-0.2136 -0.20869,-0.42609 -0.31549,-0.63717 z"
       id="path989" />
    <path
       style="opacity:0.50641;fill:#000000;stroke:none;stroke-width:1.32292;stroke-linecap:round;stroke-linejoin:round;stroke-miterlimit:4;stroke-dasharray:none"
       d="m 131.54258,417.57502 c -0.0792,0.0446 -0.15849,0.089 -0.23715,0.13488 0.0787,-0.0459 0.15791,-0.0903 0.23715,-0.13488 z"
       id="path987" />
    <path
       style="opacity:0.50641;fill:#000000;stroke:none;stroke-width:1.32292;stroke-linecap:round;stroke-linejoin:round;stroke-miterlimit:4;stroke-dasharray:none"
       d="m 131.97284,417.34041 c -0.0828,0.0437 -0.16554,0.0873 -0.24774,0.13229 0.0821,-0.0449 0.16503,-0.0887 0.24774,-0.13229 z"
       id="path985" />
    <path
       style="opacity:0.50641;fill:#000000;stroke:none;stroke-width:1.32292;stroke-linecap:round;stroke-linejoin:round;stroke-miterlimit:4;stroke-dasharray:none"
       d="m 132.39802,417.12337 c -0.0795,0.0392 -0.15904,0.0784 -0.238,0.11885 0.079,-0.0404 0.1585,-0.0796 0.238,-0.11885 z"
       id="path983" />
    <path
       style="opacity:0.50641;fill:#000000;stroke:none;stroke-width:1.32292;stroke-linecap:round;stroke-linejoin:round;stroke-miterlimit:4;stroke-dasharray:none"
       d="m 132.82531,416.91978 c -0.0735,0.0338 -0.14709,0.0674 -0.22021,0.10231 0.0731,-0.0349 0.14666,-0.0685 0.22021,-0.10231 z"
       id="path981" />
    <path
       style="opacity:0.50641;fill:#000000;stroke:none;stroke-width:1.32292;stroke-linecap:round;stroke-linejoin:round;stroke-miterlimit:4;stroke-dasharray:none"
       d="m 133.2831,416.71718 c -0.079,0.0336 -0.1582,0.067 -0.23673,0.10182 0.0786,-0.0348 0.15772,-0.0682 0.23673,-0.10182 z"
       id="path979" />
    <path
       style="opacity:0.50641;fill:#000000;stroke:none;stroke-width:1.32292;stroke-linecap:round;stroke-linejoin:round;stroke-miterlimit:4;stroke-dasharray:none"
       d="m 133.73708,416.53219 c -0.0824,0.0323 -0.16494,0.0641 -0.2469,0.0977 0.082,-0.0336 0.16445,-0.0654 0.2469,-0.0977 z"
       id="path977" />
    <path
       style="opacity:0.50641;fill:#000000;stroke:none;stroke-width:1.32292;stroke-linecap:round;stroke-linejoin:round;stroke-miterlimit:4;stroke-dasharray:none"
       d="m 134.16946,416.36992 c -0.0736,0.0265 -0.14737,0.0525 -0.22064,0.0801 0.0732,-0.0275 0.14705,-0.0536 0.22064,-0.0801 z"
       id="path975" />
    <path
       style="opacity:0.50641;fill:#000000;stroke:none;stroke-width:1.32292;stroke-linecap:round;stroke-linejoin:round;stroke-miterlimit:4;stroke-dasharray:none"
       d="m 145.21394,416.3596 c 0.0233,0.008 0.0466,0.0169 0.0699,0.0254 -0.0233,-0.008 -0.0465,-0.0169 -0.0699,-0.0254 z"
       id="path973" />
    <path
       style="opacity:0.50641;fill:#000000;stroke:none;stroke-width:1.32292;stroke-linecap:round;stroke-linejoin:round;stroke-miterlimit:4;stroke-dasharray:none"
       d="m 134.64079,416.20768 c -0.0785,0.0257 -0.15735,0.0507 -0.23545,0.0775 0.0781,-0.0268 0.15691,-0.0518 0.23545,-0.0775 z"
       id="path971" />
    <path
       style="opacity:0.50641;fill:#000000;stroke:none;stroke-width:1.32292;stroke-linecap:round;stroke-linejoin:round;stroke-miterlimit:4;stroke-dasharray:none"
       d="m 144.73286,416.19527 c 0.0242,0.008 0.0483,0.0159 0.0724,0.0238 -0.0241,-0.008 -0.0483,-0.0159 -0.0724,-0.0238 z"
       id="path969" />
    <path
       style="opacity:0.50641;fill:#000000;stroke:none;stroke-width:1.32292;stroke-linecap:round;stroke-linejoin:round;stroke-miterlimit:4;stroke-dasharray:none"
       d="m 135.10154,416.06451 c -0.0776,0.023 -0.15529,0.0452 -0.23249,0.0693 0.0772,-0.0241 0.15491,-0.0464 0.23249,-0.0693 z"
       id="path967" />
    <path
       style="opacity:0.50641;fill:#000000;stroke:none;stroke-width:1.32292;stroke-linecap:round;stroke-linejoin:round;stroke-miterlimit:4;stroke-dasharray:none"
       d="m 144.23908,416.04334 c 0.0348,0.0101 0.0694,0.0206 0.10417,0.031 -0.0347,-0.0103 -0.0694,-0.0209 -0.10417,-0.031 z"
       id="path965" />
    <path
       style="opacity:0.50641;fill:#000000;stroke:none;stroke-width:1.32292;stroke-linecap:round;stroke-linejoin:round;stroke-miterlimit:4;stroke-dasharray:none"
       d="m 173.30665,439.84756 c -0.004,0.3079 -0.0105,0.61518 -0.0199,0.92139 0.009,-0.30629 0.016,-0.61341 0.0199,-0.92139 z"
       id="path963" />
    <path
       style="opacity:0.50641;fill:#000000;stroke:none;stroke-width:1.32292;stroke-linecap:round;stroke-linejoin:round;stroke-miterlimit:4;stroke-dasharray:none"
       d="m 135.57585,415.93172 c -0.0818,0.0214 -0.16376,0.0423 -0.2452,0.0651 0.0814,-0.0228 0.16342,-0.0436 0.2452,-0.0651 z"
       id="path959" />
    <path
       style="opacity:0.50641;fill:#000000;stroke:none;stroke-width:1.32292;stroke-linecap:round;stroke-linejoin:round;stroke-miterlimit:4;stroke-dasharray:none"
       d="m 143.74953,415.90899 c 0.0375,0.01 0.0748,0.0201 0.11222,0.0299 -0.0374,-0.01 -0.0747,-0.0204 -0.11222,-0.0299 z"
       id="path957" />
    <path
       style="opacity:0.50641;fill:#000000;stroke:none;stroke-width:1.32292;stroke-linecap:round;stroke-linejoin:round;stroke-miterlimit:4;stroke-dasharray:none"
       d="m 136.08657,415.80614 c -0.0936,0.0214 -0.18726,0.0426 -0.28035,0.0656 0.0931,-0.023 0.18678,-0.0442 0.28035,-0.0656 z"
       id="path955" />
    <path
       style="opacity:0.50641;fill:#000000;stroke:none;stroke-width:1.32292;stroke-linecap:round;stroke-linejoin:round;stroke-miterlimit:4;stroke-dasharray:none"
       d="m 143.25151,415.78908 c 0.0427,0.01 0.0853,0.0201 0.12789,0.03 -0.0427,-0.01 -0.0851,-0.0204 -0.12789,-0.03 z"
       id="path953" />
    <path
       style="opacity:0.50641;fill:#000000;stroke:none;stroke-width:1.32292;stroke-linecap:round;stroke-linejoin:round;stroke-miterlimit:4;stroke-dasharray:none"
       d="m 136.59306,415.69864 c -0.10819,0.0212 -0.21638,0.0423 -0.32397,0.0657 0.10761,-0.0233 0.21575,-0.0445 0.32397,-0.0657 z"
       id="path951" />
    <path
       style="opacity:0.50641;fill:#000000;stroke:none;stroke-width:1.32292;stroke-linecap:round;stroke-linejoin:round;stroke-miterlimit:4;stroke-dasharray:none"
       d="m 142.74968,415.6847 c 0.0545,0.0103 0.10867,0.0222 0.16304,0.0331 -0.0543,-0.0108 -0.10854,-0.0227 -0.16304,-0.0331 z"
       id="path949" />
    <path
       style="opacity:0.50641;fill:#000000;stroke:none;stroke-width:1.32292;stroke-linecap:round;stroke-linejoin:round;stroke-miterlimit:4;stroke-dasharray:none"
       d="m 136.99876,415.62475 c -0.0826,0.014 -0.16544,0.0271 -0.24774,0.0424 0.0822,-0.0153 0.16516,-0.0284 0.24774,-0.0424 z"
       id="path947" />
    <path
       style="opacity:0.50641;fill:#000000;stroke:none;stroke-width:1.32292;stroke-linecap:round;stroke-linejoin:round;stroke-miterlimit:4;stroke-dasharray:none"
       d="m 142.26056,415.59892 c 0.0427,0.007 0.0853,0.0145 0.12789,0.0217 -0.0427,-0.007 -0.0851,-0.0148 -0.12789,-0.0217 z"
       id="path945" />
    <path
       style="opacity:0.50641;fill:#000000;stroke:none;stroke-width:1.32292;stroke-linecap:round;stroke-linejoin:round;stroke-miterlimit:4;stroke-dasharray:none"
       d="m 141.74687,415.52502 c 0.0524,0.007 0.10443,0.0151 0.15669,0.0222 -0.0523,-0.007 -0.10431,-0.0156 -0.15669,-0.0222 z"
       id="path943" />
    <path
       style="opacity:0.50641;fill:#000000;stroke:none;stroke-width:1.32292;stroke-linecap:round;stroke-linejoin:round;stroke-miterlimit:4;stroke-dasharray:none"
       d="m 138.02613,415.4847 c -0.10301,0.0109 -0.20617,0.0209 -0.30872,0.0336 0.10255,-0.0127 0.20571,-0.0228 0.30872,-0.0336 z"
       id="path941" />
    <path
       style="opacity:0.50641;fill:#000000;stroke:none;stroke-width:1.32292;stroke-linecap:round;stroke-linejoin:round;stroke-miterlimit:4;stroke-dasharray:none"
       d="m 141.24419,415.4692 c 0.0544,0.005 0.10838,0.0119 0.16262,0.0177 -0.0542,-0.006 -0.10825,-0.0124 -0.16262,-0.0177 z"
       id="path939" />
    <path
       style="opacity:0.50641;fill:#000000;stroke:none;stroke-width:1.32292;stroke-linecap:round;stroke-linejoin:round;stroke-miterlimit:4;stroke-dasharray:none"
       d="m 140.73474,415.4289 c 0.0448,0.003 0.0892,0.007 0.13382,0.0103 -0.0446,-0.003 -0.0891,-0.007 -0.13382,-0.0103 z"
       id="path937" />
    <path
       style="opacity:0.50641;fill:#000000;stroke:none;stroke-width:1.32292;stroke-linecap:round;stroke-linejoin:round;stroke-miterlimit:4;stroke-dasharray:none"
       d="m 138.93916,415.41599 c -0.0773,0.004 -0.15499,0.006 -0.23207,0.0109 0.0771,-0.005 0.15473,-0.007 0.23207,-0.0109 z"
       id="path935" />
    <path
       style="opacity:0.50641;fill:#000000;stroke:none;stroke-width:1.32292;stroke-linecap:round;stroke-linejoin:round;stroke-miterlimit:4;stroke-dasharray:none"
       d="m 140.21597,415.40408 c 0.0613,0.003 0.12221,0.006 0.18337,0.008 -0.0612,-0.003 -0.12205,-0.006 -0.18337,-0.008 z"
       id="path933" />
    <path
       style="opacity:0.50641;fill:#000000;stroke:none;stroke-width:1.32292;stroke-linecap:round;stroke-linejoin:round;stroke-miterlimit:4;stroke-dasharray:none"
       d="m 166.45043,414.3747 c 0.11066,0.17721 0.2203,0.35538 0.32863,0.53485 -0.10837,-0.17949 -0.21794,-0.35761 -0.32863,-0.53485 z"
       id="path931" />
    <path
       style="opacity:0.50641;fill:#000000;stroke:none;stroke-width:1.32292;stroke-linecap:round;stroke-linejoin:round;stroke-miterlimit:4;stroke-dasharray:none"
       d="m 166.00111,413.67035 c 0.11115,0.17023 0.22094,0.34179 0.3299,0.51419 -0.10897,-0.1724 -0.21874,-0.34399 -0.3299,-0.51419 z"
       id="path929" />
    <path
       style="opacity:0.50641;fill:#000000;stroke:none;stroke-width:1.32292;stroke-linecap:round;stroke-linejoin:round;stroke-miterlimit:4;stroke-dasharray:none"
       d="m 165.55137,412.99545 c 0.12088,0.17732 0.23982,0.3566 0.35827,0.53641 -0.11847,-0.17981 -0.23737,-0.35911 -0.35827,-0.53641 z"
       id="path927" />
    <path
       style="opacity:0.50641;fill:#000000;stroke:none;stroke-width:1.32292;stroke-linecap:round;stroke-linejoin:round;stroke-miterlimit:4;stroke-dasharray:none"
       d="m 163.84007,410.67209 c 0.10985,0.13832 0.2191,0.27734 0.32736,0.41754 -0.10827,-0.1402 -0.2175,-0.27922 -0.32736,-0.41754 z"
       id="path925" />
    <path
       style="opacity:0.50641;fill:#000000;stroke:none;stroke-width:1.32292;stroke-linecap:round;stroke-linejoin:round;stroke-miterlimit:4;stroke-dasharray:none"
       d="m 163.33401,410.04733 c 0.10593,0.12785 0.21095,0.25699 0.31549,0.38653 -0.1046,-0.12959 -0.2095,-0.25863 -0.31549,-0.38653 z"
       id="path923" />
    <path
       style="opacity:0.50641;fill:#000000;stroke:none;stroke-width:1.32292;stroke-linecap:round;stroke-linejoin:round;stroke-miterlimit:4;stroke-dasharray:none"
       d="m 162.80592,409.42357 c 0.10788,0.12468 0.21448,0.25088 0.321,0.37725 -0.10653,-0.12637 -0.2131,-0.25257 -0.321,-0.37725 z"
       id="path921" />
    <path
       style="opacity:0.50641;fill:#000000;stroke:none;stroke-width:1.32292;stroke-linecap:round;stroke-linejoin:round;stroke-miterlimit:4;stroke-dasharray:none"
       d="m 161.89628,408.41125 c 0.24968,0.26813 0.49595,0.54107 0.73898,0.81804 -0.24304,-0.27694 -0.48929,-0.54994 -0.73898,-0.81804 z"
       id="path919" />
    <path
       style="opacity:0.50641;fill:#000000;stroke:none;stroke-width:1.32292;stroke-linecap:round;stroke-linejoin:round;stroke-miterlimit:4;stroke-dasharray:none"
       d="m 161.45035,407.94151 c 0.10916,0.11316 0.21855,0.22569 0.3265,0.34055 -0.10792,-0.11481 -0.21738,-0.22744 -0.3265,-0.34055 z"
       id="path917" />
    <path
       style="opacity:0.50641;fill:#000000;stroke:none;stroke-width:1.32292;stroke-linecap:round;stroke-linejoin:round;stroke-miterlimit:4;stroke-dasharray:none"
       d="m 160.87483,407.35808 c 0.1104,0.1094 0.22067,0.21913 0.3299,0.3302 -0.10927,-0.1111 -0.21947,-0.22077 -0.3299,-0.3302 z"
       id="path915" />
    <path
       style="opacity:0.50641;fill:#000000;stroke:none;stroke-width:1.32292;stroke-linecap:round;stroke-linejoin:round;stroke-miterlimit:4;stroke-dasharray:none"
       d="m 160.29423,406.79428 c 0.12054,0.11419 0.24032,0.22958 0.35954,0.34573 -0.11924,-0.11615 -0.23898,-0.23154 -0.35954,-0.34573 z"
       id="path913" />
    <path
       style="opacity:0.50641;fill:#000000;stroke:none;stroke-width:1.32292;stroke-linecap:round;stroke-linejoin:round;stroke-miterlimit:4;stroke-dasharray:none"
       d="m 159.71702,406.25892 c 0.11841,0.10726 0.23557,0.21643 0.35277,0.32557 -0.11722,-0.10914 -0.23435,-0.21831 -0.35277,-0.32557 z"
       id="path911" />
    <path
       style="opacity:0.50641;fill:#000000;stroke:none;stroke-width:1.32292;stroke-linecap:round;stroke-linejoin:round;stroke-miterlimit:4;stroke-dasharray:none"
       d="m 158.88615,405.53184 c 0.19421,0.165 0.38686,0.3324 0.57805,0.50229 -0.19119,-0.16986 -0.38384,-0.33729 -0.57805,-0.50229 z"
       id="path909" />
    <path
       style="opacity:0.50641;fill:#000000;stroke:none;stroke-width:1.32292;stroke-linecap:round;stroke-linejoin:round;stroke-miterlimit:4;stroke-dasharray:none"
       d="m 158.21704,404.97733 c 0.1163,0.0939 0.23282,0.18711 0.34811,0.28268 -0.11524,-0.0955 -0.23185,-0.18886 -0.34811,-0.28268 z"
       id="path907" />
    <path
       style="opacity:0.50641;fill:#000000;stroke:none;stroke-width:1.32292;stroke-linecap:round;stroke-linejoin:round;stroke-miterlimit:4;stroke-dasharray:none"
       d="m 157.60384,404.49417 c 0.11744,0.0904 0.23503,0.18077 0.35149,0.27284 -0.11652,-0.0921 -0.234,-0.18245 -0.35149,-0.27284 z"
       id="path905" />
    <path
       style="opacity:0.50641;fill:#000000;stroke:none;stroke-width:1.32292;stroke-linecap:round;stroke-linejoin:round;stroke-miterlimit:4;stroke-dasharray:none"
       d="m 156.97581,404.02184 c 0.11442,0.0838 0.22822,0.16883 0.34175,0.25427 -0.11356,-0.0854 -0.22731,-0.17045 -0.34175,-0.25427 z"
       id="path903" />
    <path
       style="opacity:0.50641;fill:#000000;stroke:none;stroke-width:1.32292;stroke-linecap:round;stroke-linejoin:round;stroke-miterlimit:4;stroke-dasharray:none"
       d="m 156.32915,403.55935 c 0.11752,0.0818 0.23401,0.1656 0.35064,0.24908 -0.11665,-0.0835 -0.2331,-0.1673 -0.35064,-0.24908 z"
       id="path901" />
    <path
       style="opacity:0.50641;fill:#000000;stroke:none;stroke-width:1.32292;stroke-linecap:round;stroke-linejoin:round;stroke-miterlimit:4;stroke-dasharray:none"
       d="m 155.69265,403.12681 c 0.11352,0.0751 0.22563,0.15282 0.33836,0.22944 -0.11275,-0.0766 -0.22482,-0.15438 -0.33836,-0.22944 z"
       id="path899" />
    <path
       style="opacity:0.50641;fill:#000000;stroke:none;stroke-width:1.32292;stroke-linecap:round;stroke-linejoin:round;stroke-miterlimit:4;stroke-dasharray:none"
       d="m 154.76267,402.53718 c 0.1008,0.0618 0.20217,0.12259 0.30237,0.18553 -0.10025,-0.063 -0.20153,-0.12375 -0.30237,-0.18553 z"
       id="path897" />
    <path
       style="opacity:0.50641;fill:#000000;stroke:none;stroke-width:1.32292;stroke-linecap:round;stroke-linejoin:round;stroke-miterlimit:4;stroke-dasharray:none"
       d="m 154.07621,402.12843 c 0.10619,0.0614 0.21245,0.12229 0.31803,0.185 -0.10555,-0.0627 -0.21187,-0.12364 -0.31803,-0.185 z"
       id="path895" />
    <path
       style="opacity:0.50641;fill:#000000;stroke:none;stroke-width:1.32292;stroke-linecap:round;stroke-linejoin:round;stroke-miterlimit:4;stroke-dasharray:none"
       d="m 153.38211,401.73775 c 0.11035,0.0601 0.22018,0.12147 0.3299,0.18293 -0.10972,-0.0615 -0.21954,-0.12287 -0.3299,-0.18293 z"
       id="path893" />
    <path
       style="opacity:0.50641;fill:#000000;stroke:none;stroke-width:1.32292;stroke-linecap:round;stroke-linejoin:round;stroke-miterlimit:4;stroke-dasharray:none"
       d="m 152.70793,401.3817 c 0.091,0.0467 0.18166,0.0945 0.2723,0.1421 -0.0907,-0.0476 -0.18123,-0.0954 -0.2723,-0.1421 z"
       id="path891" />
    <path
       style="opacity:0.50641;fill:#000000;stroke:none;stroke-width:1.32292;stroke-linecap:round;stroke-linejoin:round;stroke-miterlimit:4;stroke-dasharray:none"
       d="m 151.99266,401.02618 c 0.0773,0.037 0.15379,0.0759 0.2308,0.11366 -0.077,-0.0377 -0.1535,-0.0766 -0.2308,-0.11366 z"
       id="path889" />
    <path
       style="opacity:0.50641;fill:#000000;stroke:none;stroke-width:1.32292;stroke-linecap:round;stroke-linejoin:round;stroke-miterlimit:4;stroke-dasharray:none"
       d="m 151.05507,400.59829 c 0.0831,0.0363 0.16667,0.0714 0.24943,0.10851 -0.0828,-0.0371 -0.16637,-0.0722 -0.24943,-0.10851 z"
       id="path887" />
    <path
       style="opacity:0.50641;fill:#000000;stroke:none;stroke-width:1.32292;stroke-linecap:round;stroke-linejoin:round;stroke-miterlimit:4;stroke-dasharray:none"
       d="m 150.27543,400.27013 c 0.10782,0.0436 0.21578,0.0869 0.32312,0.13179 -0.10735,-0.0449 -0.21529,-0.0882 -0.32312,-0.13179 z"
       id="path885" />
    <path
       style="opacity:0.50641;fill:#000000;stroke:none;stroke-width:1.32292;stroke-linecap:round;stroke-linejoin:round;stroke-miterlimit:4;stroke-dasharray:none"
       d="m 149.54534,399.98591 c 0.10826,0.0404 0.21618,0.0813 0.32397,0.12301 -0.10777,-0.0417 -0.21573,-0.0826 -0.32397,-0.12301 z"
       id="path883" />
    <path
       style="opacity:0.50641;fill:#000000;stroke:none;stroke-width:1.32292;stroke-linecap:round;stroke-linejoin:round;stroke-miterlimit:4;stroke-dasharray:none"
       d="m 148.81144,399.72236 c 0.0995,0.0341 0.1986,0.0697 0.29771,0.10491 -0.0992,-0.0352 -0.19816,-0.0708 -0.29771,-0.10491 z"
       id="path881" />
    <path
       style="opacity:0.50641;fill:#000000;stroke:none;stroke-width:1.32292;stroke-linecap:round;stroke-linejoin:round;stroke-miterlimit:4;stroke-dasharray:none"
       d="m 148.05891,399.47535 c 0.0941,0.0294 0.18739,0.0611 0.28119,0.0915 -0.0937,-0.0303 -0.18712,-0.0621 -0.28119,-0.0915 z"
       id="path879" />
    <g
       id="g1270"
       transform="matrix(1.958529,0,0,1.958529,-137.67047,-760.34107)"
       style="stroke-width:0.510587">
      <path
         id="path961"
         style="opacity:1;fill:url(#linearGradient1258);fill-opacity:1;stroke:none;stroke-width:0.675466;stroke-linecap:round;stroke-linejoin:round;stroke-miterlimit:4;stroke-dasharray:none"
         d="m 154.17149,398.01085 -14.46582,0.18706 c -18.56105,0 -33.60775,18.361 -33.60775,41.01042 0,22.64942 15.0467,41.01041 33.60775,41.01041 l 14.07029,-0.0284 c -2.86589,0 -1.8e-4,5e-5 -7.93187,-0.65836 1.65325,-0.37238 3.26378,-0.89374 4.82264,-1.54978 0.0862,-0.0363 0.17202,-0.0735 0.2579,-0.11059 0.1278,-0.0552 0.25533,-0.11091 0.38241,-0.16796 0.0942,-0.0423 0.18818,-0.0854 0.28204,-0.12867 0.12102,-0.0558 0.24173,-0.11252 0.36208,-0.17002 0.093,-0.0444 0.18609,-0.089 0.27865,-0.13435 0.12129,-0.0595 0.24192,-0.12023 0.3625,-0.18137 0.0892,-0.0453 0.17844,-0.0898 0.26722,-0.13592 0.13586,-0.0706 0.27077,-0.1433 0.4057,-0.21601 0.0729,-0.0393 0.14632,-0.0774 0.21895,-0.11731 0.1508,-0.0828 0.30054,-0.16828 0.45016,-0.25371 0.0573,-0.0328 0.11519,-0.0646 0.17236,-0.0977 0.0363,-0.0212 0.0722,-0.0429 0.10841,-0.0641 0.16381,-0.0958 0.32722,-0.19248 0.48955,-0.29144 0.0772,-0.0471 0.15354,-0.0959 0.23037,-0.14367 0.12866,-0.0799 0.25725,-0.15994 0.38495,-0.24185 0.0781,-0.0501 0.1556,-0.1016 0.23334,-0.15243 0.11879,-0.0777 0.23738,-0.15578 0.35531,-0.23513 0.0909,-0.0611 0.18152,-0.12287 0.27187,-0.185 0.10308,-0.0709 0.2059,-0.14229 0.3083,-0.21447 0.0997,-0.0702 0.19867,-0.14142 0.29771,-0.21291 0.0956,-0.069 0.19087,-0.13867 0.28585,-0.20876 0.0955,-0.0705 0.19094,-0.14128 0.28585,-0.21291 0.0953,-0.0719 0.18996,-0.14454 0.28458,-0.21756 0.096,-0.0741 0.19218,-0.14799 0.28755,-0.22323 0.0995,-0.0785 0.19813,-0.15851 0.29687,-0.23823 0.0868,-0.0701 0.17416,-0.13976 0.26044,-0.21085 0.12981,-0.10694 0.25855,-0.21595 0.38706,-0.32504 0.052,-0.0442 0.10449,-0.0873 0.15627,-0.13179 0.18722,-0.16087 0.37293,-0.32348 0.5573,-0.48884 0.18504,-0.16598 0.36841,-0.33494 0.55053,-0.50541 0.0359,-0.0336 0.0713,-0.068 0.10715,-0.10179 0.13606,-0.12842 0.27173,-0.2572 0.40612,-0.38809 0.0695,-0.0677 0.13801,-0.13681 0.20708,-0.20515 0.1111,-0.10999 0.22209,-0.22011 0.33202,-0.33177 0.057,-0.0579 0.11355,-0.11633 0.17023,-0.17467 0.11738,-0.12084 0.23424,-0.2426 0.35023,-0.36534 0.0611,-0.0647 0.12218,-0.12959 0.18294,-0.19484 0.10698,-0.11486 0.21312,-0.23077 0.31889,-0.34727 0.0625,-0.0688 0.1251,-0.13779 0.18718,-0.20722 0.11342,-0.12681 0.22596,-0.25474 0.33794,-0.38343 0.05,-0.0575 0.10018,-0.11475 0.14991,-0.17259 0.13557,-0.15772 0.26977,-0.31708 0.40316,-0.47749 0.0245,-0.0295 0.0496,-0.0583 0.0741,-0.0879 0.1371,-0.16587 0.27264,-0.33356 0.40739,-0.50229 0.0291,-0.0365 0.0586,-0.0724 0.0877,-0.10903 0.16007,-0.2019 0.31849,-0.40598 0.47515,-0.61185 0.1532,-0.20132 0.30451,-0.40473 0.4544,-0.60978 0.0309,-0.0423 0.0615,-0.0851 0.0923,-0.12764 0.12329,-0.17007 0.24575,-0.3411 0.36674,-0.51366 0.0296,-0.0422 0.0586,-0.0848 0.0881,-0.12713 0.11467,-0.16489 0.22835,-0.33055 0.34091,-0.49763 0.0417,-0.0619 0.0831,-0.12391 0.1245,-0.18606 0.10426,-0.15663 0.20761,-0.3143 0.31,-0.47283 0.0384,-0.0595 0.0766,-0.11907 0.11476,-0.17881 0.10635,-0.16653 0.21164,-0.33422 0.31592,-0.50281 0.032,-0.0518 0.0643,-0.10354 0.0961,-0.15553 0.10057,-0.16422 0.19997,-0.32948 0.29856,-0.49559 0.0405,-0.0683 0.0813,-0.13652 0.12154,-0.20515 0.12547,-0.21416 0.24965,-0.42979 0.37182,-0.64699 0.26773,-0.47601 0.52733,-0.9588 0.77878,-1.44902 0.1211,-0.23606 0.24019,-0.47387 0.35743,-0.71313 0.0196,-0.0399 0.0385,-0.0803 0.058,-0.12038 0.0947,-0.19476 0.18824,-0.39077 0.28035,-0.58759 0.0303,-0.0647 0.0602,-0.12986 0.0902,-0.19481 0.0844,-0.18257 0.16816,-0.36555 0.25028,-0.54983 0.0299,-0.0672 0.0593,-0.13468 0.0889,-0.20207 0.0777,-0.17663 0.15435,-0.35409 0.22995,-0.53226 0.0298,-0.0702 0.0599,-0.14036 0.0894,-0.21085 0.0843,-0.20148 0.16697,-0.40378 0.24859,-0.60719 0.0171,-0.0427 0.0342,-0.0854 0.0512,-0.12816 0.0903,-0.22712 0.17897,-0.45577 0.26595,-0.68522 0.008,-0.0204 0.016,-0.0402 0.0237,-0.0605 0.002,-0.006 0.005,-0.0127 0.007,-0.019 0.0934,-0.24791 0.18493,-0.4972 0.27442,-0.74776 0.004,-0.0106 0.008,-0.0209 0.0114,-0.0315 6.6e-4,-0.003 0.002,-0.004 0.002,-0.006 0.18772,-0.52703 0.36626,-1.06011 0.53614,-1.59835 0.0118,-0.0374 0.023,-0.0752 0.0347,-0.11266 0.0702,-0.22434 0.13921,-0.44919 0.20624,-0.6754 0.019,-0.0642 0.0371,-0.12894 0.0559,-0.19328 0.0611,-0.20963 0.12157,-0.41979 0.17998,-0.63098 0.0152,-0.055 0.0299,-0.11025 0.0449,-0.16537 0.058,-0.21285 0.11499,-0.42637 0.17024,-0.64076 0.0181,-0.0702 0.036,-0.1405 0.0538,-0.21085 0.0501,-0.1983 0.0988,-0.39727 0.14653,-0.59687 0.0197,-0.0822 0.0392,-0.16455 0.0584,-0.24702 0.0443,-0.18952 0.0871,-0.37986 0.12916,-0.57049 0.0187,-0.0846 0.0381,-0.16889 0.0563,-0.25374 0.0487,-0.22627 0.095,-0.45384 0.1406,-0.68162 0.009,-0.0449 0.0187,-0.0894 0.0275,-0.13435 0.0552,-0.28022 0.10833,-0.56142 0.1588,-0.84387 0.0514,-0.28749 0.10013,-0.57589 0.14653,-0.86558 6.5e-4,-0.004 0.002,-0.008 0.002,-0.0119 0.004,-0.0251 0.007,-0.0507 0.0114,-0.076 0.0414,-0.26146 0.0808,-0.52385 0.11815,-0.78705 0.005,-0.035 0.01,-0.0703 0.0144,-0.10541 0.0343,-0.24564 0.0671,-0.49186 0.0978,-0.73898 0.009,-0.0717 0.0168,-0.14367 0.0254,-0.21548 0.0262,-0.21934 0.0516,-0.43895 0.075,-0.6594 0.008,-0.0717 0.0147,-0.14364 0.022,-0.2155 0.0219,-0.21534 0.0427,-0.43114 0.0618,-0.64749 0.008,-0.0869 0.0152,-0.17388 0.0224,-0.26096 0.0166,-0.19999 0.0319,-0.40071 0.0462,-0.60153 0.007,-0.0945 0.0137,-0.18904 0.0199,-0.28371 0.0133,-0.20383 0.0247,-0.40817 0.0356,-0.61288 0.005,-0.0913 0.01,-0.18235 0.0144,-0.27387 0.0102,-0.21463 0.0183,-0.42995 0.0258,-0.64545 0.003,-0.0794 0.006,-0.15867 0.009,-0.23823 0.009,-0.29398 0.0157,-0.58865 0.0195,-0.88419 0,-0.004 2.2e-4,-0.008 4.3e-4,-0.013 1e-5,0 0,-0.003 0,-0.003 0.004,-0.21227 0.007,-0.42489 0.007,-0.6382 0,0 0,0 0,0 0,-0.2128 -0.002,-0.42444 -0.007,-0.63563 -10e-6,0 2e-5,-0.003 0,-0.003 -2.1e-4,-0.005 -2.1e-4,-0.0109 -4.3e-4,-0.0161 -0.004,-0.19457 -0.01,-0.38825 -0.0178,-0.58137 -0.008,-0.19227 -0.0179,-0.38383 -0.0292,-0.57465 -0.0216,-0.36258 -0.0498,-0.72202 -0.0843,-1.07899 -0.002,-0.0151 -0.003,-0.0304 -0.004,-0.0455 -0.0349,-0.35578 -0.0764,-0.70895 -0.12366,-1.05883 -0.002,-0.0169 -0.004,-0.0338 -0.007,-0.0506 -0.0478,-0.34968 -0.10187,-0.69628 -0.16177,-1.03974 -0.012,-0.069 -0.0231,-0.13851 -0.0356,-0.20722 -0.0216,-0.1185 -0.0447,-0.23574 -0.0678,-0.35345 -0.0132,-0.0677 -0.0259,-0.13608 -0.0394,-0.20363 -0.0376,-0.18484 -0.0771,-0.36907 -0.11815,-0.55189 -0.0407,-0.18127 -0.083,-0.36129 -0.12705,-0.54055 -4.3e-4,-0.003 -8.7e-4,-0.003 -10e-4,-0.005 -4e-5,-1.6e-4 4e-5,0 0,0 -0.0421,-0.17092 -0.0857,-0.34102 -0.13086,-0.51004 -0.003,-0.01 -0.005,-0.0193 -0.008,-0.0289 -4.3e-4,-0.003 -8.6e-4,-0.003 -0.001,-0.004 -0.14347,-0.53462 -0.30193,-1.05971 -0.47515,-1.57459 -0.0579,-0.17209 -0.11758,-0.34285 -0.17871,-0.51263 -0.0559,-0.15537 -0.11332,-0.30964 -0.17194,-0.46302 -0.005,-0.0143 -0.0107,-0.0286 -0.0161,-0.0429 -0.002,-0.005 -0.004,-0.009 -0.006,-0.014 -0.0626,-0.16266 -0.12668,-0.3243 -0.19226,-0.48471 -0.0675,-0.16502 -0.13651,-0.32888 -0.20709,-0.49144 -0.28232,-0.65029 -0.5895,-1.28082 -0.91981,-1.88981 -0.0826,-0.15224 -0.1665,-0.30314 -0.25197,-0.45268 -0.17093,-0.29908 -0.34754,-0.59261 -0.52978,-0.88058 -0.0911,-0.14396 -0.18392,-0.28676 -0.2778,-0.42786 -0.0939,-0.14113 -0.18883,-0.28038 -0.28543,-0.4186 -0.1932,-0.27644 -0.39203,-0.54732 -0.59585,-0.81182 -0.20381,-0.2645 -0.41267,-0.52298 -0.62675,-0.77515 -3.10276,-3.65482 -7.26583,-5.99273 -11.9626,-6.40064 -4.4e-4,-5e-5 -8.7e-4,3e-5 -0.001,0 -0.002,3e-5 -0.003,1.3e-4 -0.005,0 -0.22314,-0.0193 -0.44785,-0.0329 -0.67334,-0.0434 -0.0403,-0.003 -0.0807,-0.004 -0.12111,-0.006 -0.22585,-0.009 -0.45249,-0.0145 -0.68054,-0.0145 -0.26037,0 -0.51922,0.008 -0.7771,0.0206 -0.0462,0.003 -0.0924,0.003 -0.13848,0.006 -0.0257,0.003 -0.051,0.005 -0.0767,0.006 -0.22649,0.014 -0.45234,0.031 -0.67673,0.0543 -0.006,0 -0.0124,0 -0.0186,0.003 -0.0229,0.003 -0.0457,0.005 -0.0686,0.008 -0.26965,0.0294 -0.53782,0.0643 -0.8042,0.10697 -8.6e-4,1.3e-4 -0.002,0 -0.003,0 -0.007,0 -0.0141,0.003 -0.0212,0.004 -0.26028,0.0421 -0.51888,0.0902 -0.77582,0.1447 -0.0168,0.003 -0.0336,0.007 -0.0504,0.0103 -0.14114,0.0304 -0.28044,0.0672 -0.42052,0.10128 -0.11313,0.0277 -0.22719,0.0523 -0.33963,0.0822 -0.0152,0.004 -0.0306,0.007 -0.0457,0.0114 -4.3e-4,1.3e-4 -0.001,-1.6e-4 -0.002,0 -0.27132,0.073 -0.54021,0.15314 -0.80716,0.23976 -0.011,0.003 -0.0217,0.008 -0.0326,0.0114 -0.0272,0.009 -0.0538,0.0193 -0.0809,0.0284 -0.234,0.0778 -0.467,0.15909 -0.69748,0.24701 -0.25719,0.0981 -0.51197,0.20246 -0.76439,0.31316 6.85978,3.69105 11.64879,12.0608 11.64879,21.79691 0,10.32438 -5.38497,19.11294 -12.91417,22.41465 -2.06154,0.90403 -4.2834,1.39785 -6.60001,1.39785 -1.82285,0 -3.58725,-0.30493 -5.26095,-0.8754 -0.15215,-0.0519 -0.30335,-0.10605 -0.45398,-0.16227 -0.30136,-0.11245 -0.59943,-0.23321 -0.8944,-0.36277 -0.14742,-0.0648 -0.29382,-0.13158 -0.43957,-0.2005 -0.14588,-0.069 -0.29077,-0.13978 -0.43492,-0.21291 -0.14392,-0.073 -0.28684,-0.14828 -0.42899,-0.2253 -1.2e-4,-8e-5 -2.2e-4,6e-5 -4.4e-4,0 -0.14226,-0.0771 -0.28345,-0.1561 -0.4239,-0.2372 -0.14057,-0.0812 -0.28014,-0.16449 -0.41883,-0.2496 -0.13848,-0.085 -0.27591,-0.17211 -0.41248,-0.26096 -1e-4,-8e-5 -2.1e-4,8e-5 -4.3e-4,0 -0.13656,-0.0889 -0.27194,-0.17965 -0.40655,-0.27234 -10e-5,-8e-5 -2.1e-4,8e-5 -4.3e-4,0 -0.13471,-0.0928 -0.26834,-0.18769 -0.40104,-0.28421 -0.1328,-0.0966 -0.26438,-0.19476 -0.39511,-0.29509 -0.13054,-0.10015 -0.2599,-0.20212 -0.38834,-0.30591 -9e-5,-8e-5 -4.3e-4,8e-5 -4.3e-4,0 -0.12843,-0.1038 -0.2557,-0.20992 -0.38198,-0.31729 -10e-5,-8e-5 -4.3e-4,8e-5 -4.3e-4,0 -0.12638,-0.10745 -0.25147,-0.21664 -0.37564,-0.32764 -0.12425,-0.11107 -0.24728,-0.22344 -0.36927,-0.33795 -0.12192,-0.11446 -0.24248,-0.23045 -0.36208,-0.34832 -0.2393,-0.23577 -0.47405,-0.47853 -0.70384,-0.72761 -0.22963,-0.24889 -0.45401,-0.50413 -0.67376,-0.76583 -1.09917,-1.30895 -2.07239,-2.77493 -2.89494,-4.36822 -0.16451,-0.31864 -0.32288,-0.64238 -0.47515,-0.97099 -0.30454,-0.65715 -0.58438,-1.33369 -0.83765,-2.02777 -6e-5,-1.6e-4 5e-5,0 0,0 -0.25321,-0.69395 -0.48,-1.4051 -0.67885,-2.13217 -4e-5,-1.6e-4 4e-5,0 0,0 -0.0496,-0.18153 -0.0978,-0.36436 -0.14398,-0.54777 -9e-5,0 7e-5,0 0,0 -0.0461,-0.18341 -0.0908,-0.36764 -0.1334,-0.55293 -8e-5,0 7e-5,0 0,0 -0.0426,-0.18544 -0.0834,-0.37136 -0.12239,-0.55861 -3e-5,-1.6e-4 3e-5,0 0,0 -0.078,-0.37462 -0.14892,-0.75282 -0.21217,-1.1343 -5e-5,0 6e-5,0 0,0 -0.0316,-0.1905 -0.0615,-0.38147 -0.0894,-0.57361 -5e-5,0 5e-5,0 0,0 -0.0278,-0.19214 -0.0539,-0.38508 -0.0779,-0.57878 -4e-5,0 4e-5,0 0,0 -0.0481,-0.38769 -0.0886,-0.77843 -0.12112,-1.17202 -3e-5,0 3e-5,0 0,0 -0.0163,-0.19664 -0.0305,-0.39418 -0.0428,-0.59222 -2e-5,0 2e-5,0 0,0 -0.0123,-0.19786 -0.0226,-0.39664 -0.0309,-0.59582 -2e-5,0 3e-5,0 0,-0.003 -0.008,-0.19918 -0.0148,-0.39899 -0.0191,-0.59944 -10e-6,0 2e-5,0 0,-0.003 -0.003,-0.20886 -0.007,-0.41732 -0.007,-0.62682 0,0 0,0 0,0 0,-1.9e-4 0,0 0,0 0,-0.20971 0.004,-0.41799 0.007,-0.62683 1e-5,0 0,0 0,-0.003 3e-5,0 -2e-5,-0.004 0,-0.004 8e-5,-0.006 4.4e-4,-0.0114 4.4e-4,-0.0169 0.006,-0.43458 0.0186,-0.86683 0.0356,-1.29759 0.003,-0.0663 0.004,-0.13277 0.007,-0.19895 0.018,-0.41452 0.0424,-0.82687 0.0707,-1.23766 0.006,-0.0816 0.0113,-0.16301 0.0174,-0.24443 0.0301,-0.40692 0.0641,-0.8124 0.10418,-1.21541 0.007,-0.0722 0.0154,-0.14396 0.0229,-0.21603 0.0425,-0.40884 0.0885,-0.81595 0.14102,-1.22058 0.002,-0.0124 0.003,-0.0249 0.005,-0.0372 0.002,-0.0151 0.004,-0.0302 0.006,-0.0454 0.0526,-0.39928 0.11098,-0.79616 0.17321,-1.19116 0.0121,-0.0772 0.0239,-0.15451 0.0364,-0.23151 0.0637,-0.39145 0.1328,-0.78031 0.20581,-1.16736 0.0137,-0.0724 0.0271,-0.14478 0.0411,-0.21704 0.0754,-0.38981 0.15534,-0.77761 0.24011,-1.16271 0.0155,-0.0707 0.032,-0.14087 0.0479,-0.21138 0.0894,-0.39709 0.18205,-0.79253 0.28119,-1.18441 6.5e-4,-0.003 0.002,-0.006 0.002,-0.008 9e-5,0 4.3e-4,0 4.3e-4,0 0.0997,-0.39367 0.20528,-0.7838 0.31465,-1.17202 0.0191,-0.0678 0.0378,-0.13595 0.0572,-0.2036 0.10463,-0.36486 0.21431,-0.72692 0.32736,-1.08675 0.0264,-0.0841 0.0532,-0.16788 0.08,-0.25167 0.1142,-0.35618 0.23169,-0.71041 0.35403,-1.06143 0.0262,-0.0751 0.0535,-0.14941 0.08,-0.22429 0.12091,-0.34102 0.24461,-0.68048 0.37309,-1.01647 0.0183,-0.0479 0.0366,-0.0958 0.0551,-0.14365 0.12966,-0.33557 0.26396,-0.66754 0.40104,-0.99787 0.034,-0.082 0.0676,-0.16431 0.10206,-0.24599 0.13883,-0.32885 0.28164,-0.65476 0.42772,-0.97824 0.0392,-0.0869 0.0788,-0.17343 0.11858,-0.25993 0.14559,-0.31676 0.29432,-0.63121 0.44677,-0.94257 0.0423,-0.0865 0.0855,-0.17233 0.12832,-0.2584 0.15187,-0.3049 0.30621,-0.6079 0.46456,-0.90744 0.0127,-0.0241 0.0245,-0.0488 0.0373,-0.0728 0.0856,-0.1611 0.17335,-0.3202 0.26086,-0.47955 0.002,-0.004 0.004,-0.008 0.006,-0.0119 0.20052,-0.3656 0.40608,-0.72657 0.61617,-1.08366 0.0127,-0.0217 0.0254,-0.043 0.0381,-0.0646 0.20531,-0.3475 0.41471,-0.69128 0.62888,-1.03042 0.0166,-0.0262 0.0333,-0.0523 0.05,-0.0786 0.21022,-0.33124 0.42393,-0.65937 0.64242,-0.98238 0.001,-0.003 0.003,-0.004 0.004,-0.006 0.0214,-0.0316 0.0434,-0.0625 0.0648,-0.0941 0.19259,-0.28287 0.38855,-0.56184 0.58737,-0.8382 0.0292,-0.0406 0.0571,-0.0825 0.0864,-0.12298 0.0206,-0.0284 0.042,-0.0559 0.0627,-0.0842 0.0506,-0.0693 0.10194,-0.1378 0.15288,-0.20669 0.0758,-0.10232 0.15082,-0.20548 0.22741,-0.30697 0.0161,-0.0214 0.0321,-0.0427 0.0483,-0.0641 0.002,-0.003 0.005,-0.006 0.007,-0.009 0.0419,-0.0553 0.0849,-0.10932 0.12704,-0.16433 0.10055,-0.13115 0.20079,-0.26265 0.30279,-0.39222 0.002,-0.003 0.005,-0.006 0.007,-0.009 0.0188,-0.0238 0.0375,-0.0476 0.0563,-0.0713 0.0635,-0.0802 0.1283,-0.15901 0.19226,-0.23876 0.0343,-0.0427 0.0687,-0.0854 0.1029,-0.12813 0.0323,-0.0398 0.0641,-0.0803 0.0966,-0.11991 0.0173,-0.0214 0.0343,-0.0429 0.0517,-0.0641 0.0497,-0.0604 0.10119,-0.11872 0.15119,-0.17878 0.11912,-0.14312 0.23865,-0.28538 0.35954,-0.42635 0.0846,-0.0987 0.16947,-0.19693 0.25494,-0.29454 0.10938,-0.12493 0.21996,-0.24841 0.33074,-0.37155 0.12995,-0.14452 0.26073,-0.28789 0.39257,-0.42995 0.1241,-0.13372 0.24861,-0.26691 0.37436,-0.39844 0.0867,-0.0907 0.17384,-0.18065 0.26129,-0.27027 0.11669,-0.11956 0.23428,-0.23783 0.35234,-0.35552 0.0623,-0.0621 0.12325,-0.12602 0.18591,-0.18759 0.0337,-0.0331 0.0682,-0.0652 0.10206,-0.0982 0.11994,-0.11661 0.24006,-0.23292 0.36123,-0.3478 0.0413,-0.0392 0.0826,-0.0783 0.12408,-0.11729 0.004,-0.004 0.009,-0.007 0.0127,-0.0114 0.14562,-0.1366 0.29206,-0.27186 0.43957,-0.40565 0.0221,-0.0201 0.0443,-0.04 0.0665,-0.06 0.0222,-0.0198 0.0443,-0.04 0.0665,-0.0599 0.14799,-0.1329 0.29695,-0.26424 0.44677,-0.39431 0.0114,-0.01 0.0225,-0.0201 0.0339,-0.0299 0.0264,-0.0227 0.0528,-0.0455 0.0792,-0.0682 0.066,-0.0567 0.13277,-0.11219 0.19904,-0.16846 0.0144,-0.0122 0.0292,-0.0241 0.0436,-0.0362 0.20901,-0.17653 0.4194,-0.35095 0.63184,-0.52192 0.21606,-0.17391 0.43349,-0.34509 0.65301,-0.51316 0.0551,-0.0423 0.11108,-0.0832 0.16643,-0.12507 0.14557,-0.11004 0.2917,-0.21912 0.43873,-0.32657 0.0923,-0.0676 0.18492,-0.13452 0.27781,-0.20103 0.12238,-0.0875 0.24549,-0.17367 0.36885,-0.25943 0.0635,-0.0442 0.12595,-0.0902 0.18973,-0.13382 0.033,-0.0225 0.0665,-0.0443 0.0995,-0.0667 0.0672,-0.0456 0.13494,-0.0903 0.20242,-0.13538 0.0808,-0.0538 0.16112,-0.10854 0.24223,-0.16174 0.0342,-0.0225 0.0682,-0.0455 0.10249,-0.0677 0.0199,-0.013 0.0402,-0.0254 0.0601,-0.0382 0.15158,-0.0981 0.30361,-0.1955 0.45652,-0.29094 0.0538,-0.0336 0.10777,-0.067 0.16177,-0.10025 0.17662,-0.10882 0.35394,-0.21622 0.53232,-0.32144 0.0269,-0.0159 0.054,-0.0311 0.0809,-0.047 0.0566,-0.0332 0.11393,-0.0648 0.17067,-0.0977 0.0138,-0.008 0.0278,-0.0154 0.0415,-0.0233 0.22541,-0.12977 0.45203,-0.25688 0.68012,-0.38086 0.0202,-0.0111 0.0403,-0.0222 0.0606,-0.0331 0.2451,-0.13255 0.4913,-0.26231 0.7394,-0.38809 0.03,-0.0151 0.0602,-0.0298 0.0902,-0.045 0.19557,-0.0984 0.39212,-0.19479 0.58949,-0.28887 0.10424,-0.0498 0.20907,-0.0982 0.31381,-0.14677 0.12133,-0.0562 0.24305,-0.11131 0.36504,-0.16589 0.0757,-0.0339 0.15057,-0.0701 0.22656,-0.10335 0.0491,-0.0214 0.0988,-0.0418 0.14822,-0.0625 0.0604,-0.0262 0.12112,-0.0513 0.18168,-0.077 0.0888,-0.0379 0.17755,-0.0763 0.26679,-0.11319 0.0409,-0.0169 0.0818,-0.034 0.12282,-0.0506 0.0255,-0.0103 0.0511,-0.0204 0.0767,-0.0305 0.005,-0.003 0.011,-0.005 0.0165,-0.007 1.3e-4,-5e-5 2.1e-4,6e-5 4.3e-4,0 0.0315,-0.0124 0.063,-0.0246 0.0944,-0.0372 0.12167,-0.0486 0.24318,-0.0976 0.36546,-0.1447 0.0584,-0.0225 0.11678,-0.045 0.17533,-0.0672 0.11816,-0.0446 0.23704,-0.0872 0.35572,-0.13022 0.1187,-0.0431 0.23736,-0.0865 0.35658,-0.12817 0.19332,-0.0675 0.38719,-0.1334 0.58187,-0.19687 0.0386,-0.0127 0.0774,-0.0243 0.11603,-0.0367 0.2048,-0.0659 0.40993,-0.13084 0.61617,-0.19222 0.71457,-0.21273 1.4378,-0.39852 2.16867,-0.55655 0,0 4.3e-4,0 4.3e-4,0 1.98965,-0.43021 4.03623,-1.4609 6.12274,-1.4609 z m -28.11558,64.33042 c 0.25266,0.45564 0.51246,0.90482 0.77921,1.34774 -0.26679,-0.44292 -0.52657,-0.8921 -0.77921,-1.34774 z" />
      <path
         id="path854"
         style="opacity:1;fill:url(#linearGradient1272);fill-opacity:1;stroke:none;stroke-width:0.675466;stroke-linecap:round;stroke-linejoin:round;stroke-miterlimit:4;stroke-dasharray:none"
         d="m 154.17149,398.01067 c -2.08651,0 -4.13309,1.03087 -6.12274,1.46108 -1.3e-4,-5e-5 -2.2e-4,2e-5 -4.4e-4,0 -0.73086,0.15803 -1.45409,0.34382 -2.16866,0.55655 -0.20624,0.0614 -0.41138,0.12636 -0.61617,0.19222 -0.0386,0.0124 -0.0775,0.0241 -0.11604,0.0367 -0.19467,0.0635 -0.38855,0.1294 -0.58187,0.19687 -0.11921,0.0416 -0.23788,0.085 -0.35657,0.12817 -0.11869,0.043 -0.23756,0.0856 -0.35573,0.13023 -0.0585,0.0222 -0.11691,0.0447 -0.17532,0.0672 -0.12229,0.0471 -0.24379,0.0961 -0.36547,0.1447 -0.0626,0.0251 -0.12558,0.049 -0.18802,0.0744 -0.041,0.0167 -0.0819,0.0338 -0.12281,0.0507 -0.11346,0.0468 -0.22617,0.0957 -0.33922,0.14366 -0.0858,0.0364 -0.17207,0.0717 -0.25747,0.10904 -1.06108,0.46442 -2.09705,0.99179 -3.10669,1.57509 -0.0567,0.0329 -0.11404,0.0645 -0.17066,0.0977 -0.0269,0.0159 -0.054,0.0312 -0.0809,0.047 -0.17838,0.10523 -0.3557,0.21262 -0.53232,0.32144 -0.054,0.0333 -0.10793,0.0666 -0.16177,0.10025 -0.17304,0.10801 -0.34535,0.21773 -0.51665,0.32917 -0.0343,0.0222 -0.0683,0.0453 -0.10248,0.0677 -0.18228,0.11956 -0.36394,0.24037 -0.54418,0.3638 -0.95336,0.65281 -1.87706,1.36044 -2.77002,2.11717 -0.0663,0.0563 -0.13308,0.11173 -0.19904,0.16846 -0.0264,0.0228 -0.0528,0.0454 -0.0792,0.0682 -0.16137,0.13967 -0.32143,0.28127 -0.48065,0.42426 -0.0444,0.0398 -0.0887,0.0798 -0.13298,0.11988 -0.15173,0.13763 -0.30255,0.27644 -0.45228,0.41703 -0.0415,0.0389 -0.0828,0.0781 -0.12408,0.11729 -0.15539,0.14732 -0.31012,0.29549 -0.46329,0.44599 -0.93034,0.91413 -1.81926,1.88663 -2.66287,2.91298 -0.0846,0.10298 -0.16755,0.20794 -0.25113,0.31213 -0.064,0.0797 -0.12875,0.15851 -0.19226,0.23876 -0.0212,0.0267 -0.0424,0.0533 -0.0635,0.0801 -0.14704,0.18677 -0.29252,0.3752 -0.43661,0.56533 -0.0162,0.0214 -0.0322,0.0427 -0.0483,0.0641 -0.14918,0.1977 -0.29702,0.39667 -0.44296,0.59791 -0.98344,1.35623 -1.89146,2.79329 -2.71835,4.30101 -0.0897,0.1633 -0.17955,0.32639 -0.26722,0.49147 -3.20701,6.03819 -5.10765,13.1872 -5.20632,20.92843 -3e-5,0 2e-5,0.003 0,0.004 v 0 c -1e-5,0 0,0 0,0 -0.003,0.20936 -0.007,0.41814 -0.007,0.62838 0,0.21003 0.004,0.419 0.007,0.62839 v 0 0 c 0.27356,12.86272 8.90255,23.18557 19.50741,23.18557 2.31661,0 4.53847,-0.49382 6.60001,-1.39785 -6.85959,-3.69136 -11.64837,-12.06116 -11.64837,-21.79711 0,-10.32428 5.38469,-19.11284 12.91375,-22.41466 0.50484,-0.2214 1.01963,-0.41764 1.54275,-0.58859 0.002,0 0.003,0 0.004,-0.003 0.0166,-0.006 0.0333,-0.0106 0.05,-0.0161 0.24815,-0.0802 0.49807,-0.15433 0.74999,-0.22272 0.0262,-0.007 0.0525,-0.0143 0.0788,-0.0212 h 0.004 c 0.25163,-0.0669 0.505,-0.12851 0.76015,-0.18346 0.0168,-0.004 0.0336,-0.007 0.0504,-0.0103 0.25693,-0.0545 0.51554,-0.1026 0.77582,-0.1447 0.0101,-0.003 0.02,-0.004 0.0301,-0.005 0.25744,-0.0411 0.51659,-0.0751 0.77709,-0.10388 0.0347,-0.004 0.0694,-0.008 0.10418,-0.0114 10e-4,-1.4e-4 0.003,0 0.004,0 0.2498,-0.0259 0.50098,-0.0462 0.75337,-0.0605 0.0461,-0.003 0.0923,-0.004 0.13848,-0.006 0.25788,-0.0124 0.51674,-0.0206 0.7771,-0.0206 0.49699,0 0.98885,0.0214 1.475,0.0636 0.002,1.9e-4 0.004,0 0.006,0 0.002,1.6e-4 0.004,0 0.006,0 0.15805,0.0138 0.31536,0.0294 0.47218,0.0476 0.002,2.4e-4 0.004,0 0.006,0 0.002,0 0.005,2.4e-4 0.007,0 0.10502,0.0122 0.20935,0.0267 0.31381,0.0408 0.0544,0.007 0.10918,0.0138 0.16346,0.0217 h 0.007 c 0.0744,0.0109 0.14824,0.0238 0.22233,0.0357 0.0877,0.014 0.1757,0.0275 0.26298,0.0429 0.0577,0.0101 0.11489,0.0217 0.17236,0.0326 0.10363,0.0193 0.2074,0.0387 0.31041,0.06 0.0696,0.0143 0.13863,0.0302 0.20793,0.0455 0.0844,0.0185 0.16886,0.037 0.25282,0.0568 0.0622,0.0148 0.12394,0.0306 0.18591,0.046 0.0974,0.0241 0.19496,0.048 0.29178,0.0739 h 0.004 c 0.0639,0.0172 0.12733,0.0359 0.19099,0.0538 0.0847,0.0238 0.16948,0.0473 0.25367,0.0723 0.0785,0.0233 0.1565,0.0483 0.23461,0.0729 0.0726,0.0228 0.14544,0.045 0.21767,0.0687 0.002,0 0.004,0 0.006,0.003 0.0888,0.0292 0.17687,0.0602 0.2651,0.091 0.0596,0.0206 0.11936,0.0411 0.17871,0.0625 0.0866,0.0312 0.17268,0.064 0.25875,0.0966 0.0664,0.0251 0.13297,0.0499 0.19904,0.076 0.0901,0.0355 0.17946,0.0725 0.26891,0.10957 0.048,0.0198 0.0962,0.0391 0.14398,0.0594 0.003,0 0.005,0.003 0.008,0.003 0.085,0.0361 0.16929,0.0741 0.25367,0.11163 0.0702,0.0312 0.14066,0.0619 0.21047,0.094 0.0673,0.031 0.13386,0.0632 0.20073,0.0951 0.0733,0.0349 0.14659,0.0695 0.21937,0.10544 0.0757,0.0374 0.15093,0.0762 0.22614,0.11472 0.0678,0.0347 0.13585,0.0692 0.20327,0.10491 0.0797,0.0422 0.15888,0.0852 0.238,0.12866 0.0581,0.0319 0.11628,0.0636 0.17405,0.0961 0.002,0 0.004,0.003 0.006,0.004 0.0684,0.0386 0.13624,0.0783 0.20412,0.11785 0.0745,0.0434 0.14882,0.0873 0.22275,0.13176 0.0671,0.0404 0.13367,0.0817 0.20031,0.12298 0.0627,0.0389 0.12535,0.0776 0.18761,0.11731 0.082,0.0523 0.16353,0.10549 0.24477,0.15918 0.0501,0.0331 0.10014,0.0661 0.14992,0.0997 0.002,0 0.004,0.003 0.006,0.004 0.075,0.0507 0.14928,0.10266 0.2236,0.15452 0.0601,0.042 0.12028,0.0839 0.17999,0.1266 0.0719,0.0514 0.14305,0.10404 0.21428,0.15658 0.0563,0.0415 0.11268,0.0828 0.16855,0.12507 0.0682,0.0515 0.13609,0.10401 0.20369,0.15655 0.0649,0.0505 0.12965,0.1011 0.19396,0.15246 0.0605,0.0483 0.12044,0.0971 0.1804,0.14626 0.0621,0.0509 0.12396,0.10173 0.18549,0.15346 0.002,0.003 0.004,0.003 0.006,0.005 0.0608,0.0511 0.12101,0.10306 0.18125,0.15502 0.0506,0.0437 0.10098,0.0875 0.15118,0.13179 0.21268,0.18746 0.42204,0.38034 0.62761,0.57825 0.0289,0.0278 0.0577,0.0557 0.0864,0.0837 0.20527,0.20005 0.4069,0.40524 0.60473,0.61547 0.026,0.0277 0.052,0.0553 0.0779,0.0832 0.19734,0.21212 0.39098,0.42908 0.58059,0.65112 0.0265,0.0311 0.0528,0.0623 0.0792,0.0935 0.001,0.003 0.002,0.003 0.003,0.004 0.1876,0.22246 0.37128,0.44961 0.55095,0.68159 0.0226,0.0292 0.0449,0.0586 0.0673,0.0879 0.18109,0.23635 0.35838,0.47763 0.53105,0.72345 0.0365,0.052 0.0727,0.10417 0.10883,0.15658 0.0521,0.0755 0.10374,0.15103 0.155,0.22739 0.038,0.0566 0.0755,0.1135 0.11307,0.17052 0.004,0.006 0.009,0.0122 0.0127,0.0185 0.0535,0.0815 0.10665,0.16357 0.15923,0.24598 0.0398,0.0623 0.0789,0.12526 0.11816,0.18812 0.0525,0.0841 0.10473,0.1682 0.15626,0.25321 0.0314,0.0518 0.0625,0.1039 0.0936,0.15605 0.004,0.006 0.008,0.0127 0.0114,0.019 0.0518,0.0873 0.10333,0.17484 0.15415,0.26302 0.0399,0.0692 0.0789,0.13904 0.11815,0.20879 0.0452,0.0803 0.0903,0.16073 0.13467,0.24185 0.0395,0.0723 0.0784,0.14518 0.1173,0.21807 0.0434,0.0814 0.087,0.1628 0.12959,0.24495 0.0333,0.0642 0.0659,0.12909 0.0987,0.19378 0.002,0.004 0.004,0.007 0.006,0.0109 0.0486,0.0961 0.0969,0.19233 0.14441,0.2894 0.0247,0.0504 0.0489,0.10123 0.0733,0.15193 h 4.3e-4 c 0.0502,0.10443 0.10021,0.20918 0.14907,0.31469 0.0328,0.0708 0.0648,0.14216 0.097,0.21344 2.1e-4,0 4.3e-4,0.003 8.6e-4,0.003 0.0383,0.0849 0.0769,0.16962 0.11434,0.25527 0.0328,0.0749 0.0645,0.15046 0.0966,0.22584 0.003,0.008 0.007,0.0161 0.0106,0.0244 0.0352,0.083 0.0706,0.16594 0.10502,0.24958 0.0317,0.077 0.0626,0.15454 0.0936,0.23204 0.005,0.0114 0.009,0.0228 0.0136,0.0341 0.029,0.0727 0.058,0.14539 0.0864,0.21857 0.0366,0.0944 0.072,0.18963 0.10756,0.28475 0.002,0.006 0.005,0.0116 0.007,0.0175 0.0266,0.0712 0.0532,0.14232 0.0792,0.21394 0.0321,0.0885 0.0632,0.17759 0.0944,0.26665 0.0306,0.0873 0.0617,0.17415 0.0915,0.26202 0.0269,0.0796 0.0525,0.16018 0.0788,0.24029 0.0322,0.0984 0.065,0.19648 0.0961,0.29559 0.0182,0.058 0.0355,0.11645 0.0534,0.17466 1.5e-4,0 2.1e-4,0 4.3e-4,0.003 0.037,0.12065 0.0742,0.24104 0.10968,0.36277 0.0129,0.0442 0.025,0.089 0.0377,0.13333 0.005,0.0177 0.01,0.0355 0.0148,0.0532 0.0309,0.10898 0.0619,0.21786 0.0915,0.32764 0.0185,0.0686 0.0358,0.13784 0.0538,0.20672 0.005,0.0183 0.01,0.0365 0.0144,0.0548 0.0244,0.0942 0.049,0.18839 0.0724,0.28319 0.0173,0.0698 0.0332,0.14023 0.05,0.21032 0.0274,0.11474 0.0553,0.22912 0.0813,0.34469 0.009,0.0394 0.0171,0.0793 0.0258,0.11886 0.004,0.0201 0.009,0.04 0.0131,0.0599 0.0269,0.1233 0.0539,0.24686 0.0792,0.37105 0.0154,0.0755 0.0292,0.15158 0.044,0.22739 0.0217,0.1112 0.0439,0.2219 0.0644,0.33382 0.0115,0.0628 0.022,0.12616 0.033,0.18913 6.5e-4,0.003 0.001,0.007 0.002,0.0103 0.2515,1.43388 0.39943,2.92327 0.43196,4.45759 1.1e-4,0.005 2.1e-4,0.0103 4.3e-4,0.0156 0.004,0.21185 0.007,0.42421 0.007,0.6377 0,0.21365 -0.002,0.42661 -0.007,0.63923 -6e-5,0.005 -4.3e-4,0.0101 -4.3e-4,0.0151 -0.2541,19.79822 -12.00285,36.18945 -27.46215,39.67147 7.9317,0.65841 5.06581,0.65841 7.9317,0.65841 18.56105,0 34.00346,-17.71716 34.00346,-40.36657 0,-22.64942 -15.04671,-41.8152 -33.60775,-41.8152 z m -4.7875,1.91375 c 0.44129,0.16166 0.87852,0.3338 1.31196,0.51676 -0.4334,-0.18293 -0.87071,-0.35512 -1.31196,-0.51676 z m 23.63173,33.84394 c 0.0161,0.1479 0.0331,0.29549 0.0479,0.44389 -0.0148,-0.1484 -0.0318,-0.29601 -0.0479,-0.44389 z m -52.47867,0.96687 c -0.0949,0.60955 -0.17131,1.227 -0.22741,1.85208 0.0561,-0.62502 0.13247,-1.24259 0.22741,-1.85208 z m -0.31973,5.98464 c 0.0267,0.87989 0.0767,1.75387 0.14907,2.62051 -0.0724,-0.86667 -0.12234,-1.74067 -0.14907,-2.62051 z m 52.6506,3.69797 c -0.01,0.0564 -0.0188,0.11319 -0.0288,0.16949 0.0101,-0.0563 0.0191,-0.11305 0.0288,-0.16949 z m -0.0851,0.47025 c -0.0175,0.0927 -0.0346,0.18568 -0.0529,0.27802 0.0184,-0.0924 0.0354,-0.18526 0.0529,-0.27802 z m -0.12789,0.63923 c -0.0139,0.0658 -0.0276,0.13179 -0.0419,0.1974 0.0144,-0.0656 0.028,-0.1316 0.0419,-0.1974 z m -0.11519,0.51885 c -0.0202,0.0877 -0.04,0.17565 -0.061,0.26302 0.021,-0.0873 0.0408,-0.17537 0.061,-0.26302 z m -0.14017,0.58031 c -0.0188,0.0746 -0.037,0.14946 -0.0563,0.22376 0.0193,-0.0743 0.0375,-0.1492 0.0563,-0.22376 z m -0.15542,0.59168 c -0.0173,0.0632 -0.0339,0.12669 -0.0517,0.18966 0.0177,-0.063 0.0343,-0.12645 0.0517,-0.18966 z m -0.14992,0.52764 c -0.0212,0.0719 -0.0418,0.14435 -0.0635,0.216 0.0217,-0.0717 0.0423,-0.14404 0.0635,-0.216 z m -0.17278,0.56533 c -0.02,0.063 -0.0398,0.12592 -0.0601,0.18862 0.0204,-0.0627 0.0402,-0.1257 0.0601,-0.18862 z m -0.16643,0.5085 c -0.0233,0.069 -0.0465,0.13804 -0.0703,0.2067 0.0238,-0.0686 0.047,-0.13774 0.0703,-0.2067 z m -0.42306,1.16634 c -0.0125,0.0322 -0.0247,0.0645 -0.0373,0.0966 0.0126,-0.0321 0.0248,-0.0645 0.0373,-0.0966 z m -0.41882,1.0206 c -0.015,0.0346 -0.0297,0.0694 -0.0449,0.10388 0.0151,-0.0345 0.0299,-0.0693 0.0449,-0.10388 z m -0.46033,1.00254 c -0.0158,0.0326 -0.0311,0.0656 -0.047,0.0982 0.0159,-0.0325 0.0312,-0.0656 0.047,-0.0982 z m -0.48659,0.95496 c -0.0209,0.039 -0.0412,0.0785 -0.0622,0.11731 0.0211,-0.0389 0.0414,-0.0783 0.0622,-0.11731 z m -0.53655,0.95395 c -0.0176,0.0297 -0.0353,0.0593 -0.0529,0.0889 0.0177,-0.0296 0.0354,-0.0592 0.0529,-0.0889 z m -0.56281,0.90588 c -0.0183,0.028 -0.0363,0.0563 -0.0546,0.0842 0.0184,-0.0279 0.0364,-0.0562 0.0546,-0.0842 z m -0.59415,0.87075 c -0.0202,0.0281 -0.0403,0.0562 -0.0606,0.0842 0.0203,-0.028 0.0404,-0.0561 0.0606,-0.0842 z m -45.21294,0.0408 c 0.0907,0.25096 0.18314,0.50086 0.27781,0.74933 -0.0947,-0.24852 -0.18707,-0.49832 -0.27781,-0.74933 z m 44.59465,0.78394 c -0.0373,0.0475 -0.0746,0.095 -0.11222,0.1421 0.0376,-0.0471 0.0749,-0.0946 0.11222,-0.1421 z m -0.29644,0.36949 c -0.044,0.0537 -0.0881,0.10752 -0.13255,0.16071 0.0444,-0.0532 0.0885,-0.10695 0.13255,-0.16071 z m -0.33244,0.39687 c -0.0472,0.0549 -0.0947,0.10949 -0.14229,0.16383 0.0477,-0.0544 0.0951,-0.10887 0.14229,-0.16383 z m -0.34175,0.38862 c -0.0454,0.0504 -0.091,0.10049 -0.13678,0.15036 0.0458,-0.0498 0.0914,-0.1 0.13678,-0.15036 z m -0.34599,0.37515 c -0.0515,0.0545 -0.10343,0.10843 -0.15541,0.16227 0.052,-0.0538 0.10391,-0.10776 0.15541,-0.16227 z m -0.34513,0.35658 c -0.0581,0.0586 -0.11671,0.11639 -0.17533,0.17415 0.0586,-0.0578 0.11727,-0.11554 0.17533,-0.17415 z m -0.35912,0.35346 c -0.059,0.0567 -0.11828,0.11308 -0.17786,0.16899 0.0596,-0.0559 0.11884,-0.11224 0.17786,-0.16899 z m -0.37521,0.35192 c -0.058,0.053 -0.11638,0.10541 -0.1749,0.15762 0.0585,-0.0522 0.11689,-0.10462 0.1749,-0.15762 z m -0.37266,0.33176 c -0.0607,0.0527 -0.12175,0.10475 -0.18295,0.15658 0.0612,-0.0518 0.12225,-0.10387 0.18295,-0.15658 z m -40.28188,0.0424 c 0.10793,0.23233 0.2176,0.46331 0.32905,0.69297 -0.11141,-0.2296 -0.22116,-0.46067 -0.32905,-0.69297 z m 39.89651,0.28369 c -0.0605,0.0498 -0.12156,0.0988 -0.18253,0.14779 0.061,-0.049 0.122,-0.0979 0.18253,-0.14779 z m -0.38241,0.30697 c -0.0696,0.0544 -0.13948,0.10795 -0.20963,0.16123 0.0701,-0.0533 0.14009,-0.10686 0.20963,-0.16123 z m -39.15244,0.16899 c 0.1102,0.22613 0.22182,0.4509 0.33539,0.67437 -0.11355,-0.22347 -0.22521,-0.44826 -0.33539,-0.67437 z m 38.76537,0.12557 c -0.0747,0.0553 -0.14992,0.10972 -0.22529,0.1638 0.0754,-0.0541 0.1506,-0.10848 0.22529,-0.1638 z m -0.40612,0.293 c -0.0744,0.052 -0.14944,0.10268 -0.22445,0.15348 0.075,-0.0508 0.15008,-0.10147 0.22445,-0.15348 z m -0.40654,0.27596 c -0.0713,0.047 -0.1433,0.0931 -0.21514,0.13901 0.0719,-0.046 0.14375,-0.0919 0.21514,-0.13901 z m -0.42307,0.27077 c -0.0736,0.0456 -0.14777,0.0899 -0.2219,0.13436 0.0741,-0.0444 0.14834,-0.0888 0.2219,-0.13436 z m -0.40823,0.24546 c -0.077,0.0448 -0.15453,0.0882 -0.23208,0.13178 0.0776,-0.0436 0.1551,-0.0869 0.23208,-0.13178 z m -0.43746,0.24651 c -0.0633,0.0344 -0.12734,0.0672 -0.191,0.10075 0.0637,-0.0336 0.12769,-0.0663 0.191,-0.10075 z m -0.43958,0.23048 c -0.0654,0.0331 -0.13118,0.0649 -0.19692,0.0971 0.0657,-0.0322 0.13157,-0.0641 0.19692,-0.0971 z m -0.42306,0.20669 c -0.0806,0.038 -0.16192,0.0744 -0.24308,0.1111 0.0812,-0.0367 0.16241,-0.0731 0.24308,-0.1111 z m -0.43662,0.19844 c -0.0799,0.0348 -0.16051,0.0678 -0.24096,0.10128 0.0804,-0.0335 0.16104,-0.0664 0.24096,-0.10128 z m -34.29422,0.003 c 0.25264,0.45564 0.51241,0.90482 0.77921,1.34774 -0.26675,-0.44292 -0.52654,-0.8921 -0.77921,-1.34774 z m 33.83262,0.18915 c -0.0677,0.0271 -0.13602,0.0529 -0.20411,0.0791 0.0681,-0.0262 0.13638,-0.052 0.20411,-0.0791 z m -11.29603,0.11885 c 0.0237,0.009 0.0474,0.0172 0.0711,0.0259 -0.0237,-0.008 -0.0474,-0.0172 -0.0711,-0.0259 z m 10.84968,0.0522 c -0.0777,0.0284 -0.15607,0.055 -0.23419,0.0822 0.0782,-0.0272 0.15643,-0.0538 0.23419,-0.0822 z m -10.38004,0.11057 c 0.0295,0.01 0.059,0.0193 0.0885,0.029 -0.0295,-0.01 -0.059,-0.0193 -0.0885,-0.029 z m 9.92437,0.0481 c -0.0784,0.0259 -0.15748,0.0497 -0.2363,0.0744 0.0788,-0.0246 0.15789,-0.0485 0.2363,-0.0744 z m -9.4543,0.0992 c 0.0354,0.0106 0.0708,0.0212 0.1063,0.0315 -0.0355,-0.0103 -0.0709,-0.0209 -0.1063,-0.0315 z m 8.99059,0.046 c -0.0977,0.029 -0.19597,0.0561 -0.29433,0.0832 0.0983,-0.0271 0.19665,-0.0542 0.29433,-0.0832 z m -8.51628,0.0878 c 0.0418,0.0111 0.0835,0.0222 0.12535,0.0331 -0.0419,-0.0109 -0.0836,-0.022 -0.12535,-0.0331 z m 8.06357,0.0393 c -0.0925,0.0244 -0.18564,0.0465 -0.27865,0.0693 0.093,-0.0228 0.18621,-0.0448 0.27865,-0.0693 z m -7.57403,0.0822 c 0.0432,0.01 0.0863,0.0206 0.12959,0.0305 -0.0433,-0.01 -0.0864,-0.0204 -0.12959,-0.0305 z m 7.08618,0.0383 c -0.0617,0.014 -0.12398,0.0265 -0.18591,0.0398 0.062,-0.0135 0.12416,-0.0257 0.18591,-0.0398 z m -6.6178,0.0636 c 0.0543,0.0111 0.10853,0.0227 0.16304,0.0331 -0.0545,-0.0103 -0.10867,-0.022 -0.16304,-0.0331 z m 0.52427,0.0971 c 0.0427,0.007 0.0851,0.0148 0.1279,0.0217 -0.0427,-0.007 -0.0853,-0.0146 -0.1279,-0.0217 z m 5.13222,0.0274 c -0.0541,0.009 -0.10875,0.0156 -0.16305,0.0238 0.0543,-0.008 0.10892,-0.0151 0.16305,-0.0238 z m -4.64733,0.046 c 0.0523,0.007 0.10431,0.0156 0.15669,0.0222 -0.0524,-0.007 -0.10443,-0.0151 -0.15669,-0.0222 z m 4.17091,0.0238 c -0.11951,0.0156 -0.23974,0.0286 -0.35997,0.0413 0.12028,-0.0127 0.24041,-0.0257 0.35997,-0.0413 z m -3.67416,0.0367 c 0.0542,0.006 0.10825,0.0124 0.16262,0.0175 -0.0544,-0.005 -0.10838,-0.0119 -0.16262,-0.0175 z m 3.19562,0.018 c -0.11531,0.0114 -0.23132,0.0196 -0.34726,0.0284 0.11599,-0.009 0.2319,-0.0172 0.34726,-0.0284 z m -2.66541,0.0289 c 0.0476,0.003 0.095,0.008 0.14271,0.0109 -0.0477,-0.003 -0.0951,-0.007 -0.14271,-0.0109 z m 0.4743,0.0274 c 0.0621,0.003 0.12407,0.006 0.18633,0.008 -0.0623,-0.003 -0.12418,-0.006 -0.18633,-0.008 z m 1.20015,0.008 c -0.16719,0.006 -0.33512,0.008 -0.50352,0.008 0.16851,0 0.33621,-0.003 0.50352,-0.008 z m -27.82083,0.0904 c 0.12067,0.19994 0.24325,0.39803 0.36674,0.59531 -0.12346,-0.19728 -0.24609,-0.39537 -0.36674,-0.59531 z m 0.45101,0.73019 c 0.11551,0.18304 0.2319,0.36502 0.3498,0.54571 -0.11787,-0.18066 -0.23432,-0.3627 -0.3498,-0.54571 z m 2.21821,3.18069 c 0.11853,0.15401 0.23831,0.30652 0.35869,0.45836 -0.12036,-0.15184 -0.24017,-0.30435 -0.35869,-0.45836 z m 0.49463,0.62889 c 0.12482,0.15571 0.25015,0.3107 0.3769,0.46405 -0.12669,-0.1533 -0.25213,-0.30837 -0.3769,-0.46405 z m 2.47951,2.80966 c 0.1399,0.14372 0.2813,0.2853 0.42306,0.42633 -0.14174,-0.14103 -0.28317,-0.28263 -0.42306,-0.42633 z m 0.55773,0.56018 c 0.13885,0.13673 0.27866,0.27202 0.41925,0.40616 -0.14062,-0.1342 -0.28036,-0.26937 -0.41925,-0.40616 z m 0.57594,0.55449 c 0.14511,0.13684 0.29055,0.27312 0.43745,0.40719 -0.14685,-0.13404 -0.29238,-0.27038 -0.43745,-0.40719 z m 2.19153,1.90685 c 0.12192,0.0975 0.24463,0.1937 0.36758,0.28937 -0.12292,-0.0956 -0.24569,-0.19185 -0.36758,-0.28937 z m 0.6293,0.49143 c 0.12885,0.0983 0.25838,0.19521 0.38833,0.29147 -0.13002,-0.0963 -0.25941,-0.19312 -0.38833,-0.29147 z m 0.61701,0.4589 c 0.14017,0.10199 0.28039,0.20375 0.4218,0.30334 -0.14131,-0.0995 -0.28172,-0.20142 -0.4218,-0.30334 z m 2.32578,1.54823 c 0.13496,0.0816 0.27063,0.16132 0.40655,0.2408 -0.13587,-0.0795 -0.27164,-0.1592 -0.40655,-0.2408 z m 0.68393,0.40151 c 0.13967,0.0798 0.27988,0.15814 0.42052,0.23566 -0.14062,-0.0775 -0.28088,-0.15586 -0.42052,-0.23566 z m 0.6509,0.36123 c 0.15412,0.0832 0.30846,0.166 0.46371,0.24649 -0.15524,-0.0805 -0.30961,-0.16325 -0.46371,-0.24649 z m 2.49686,1.20717 c 0.13823,0.0591 0.27731,0.11567 0.41629,0.17258 -0.13892,-0.0569 -0.27813,-0.11356 -0.41629,-0.17258 z m 0.71569,0.29403 c 0.14319,0.0568 0.28672,0.11242 0.43069,0.16692 -0.144,-0.0545 -0.28747,-0.11012 -0.43069,-0.16692 z m 0.71569,0.27284 c 0.14879,0.0546 0.29761,0.10866 0.4472,0.16073 -0.14951,-0.052 -0.29848,-0.1062 -0.4472,-0.16073 z m 0.7212,0.25323 c 0.15364,0.0517 0.30714,0.10387 0.4616,0.15295 -0.15448,-0.0491 -0.30794,-0.10123 -0.4616,-0.15295 z"
         sodipodi:nodetypes="cscsssssssssssssssssscscscsssssssssssccssssssscsscsssccsscscscssssssssssscsscsssssssscsssscsssssscsssssssscsssssscsssssssscssssscsscscssssssssscssssssssscsscsscsssssssssssscscssssssscssssscssssccsssccccccccccccccccccccccccccccccccccccccccccccccccccccccccccccccccccccccccccccccccccccccccccccccccccccccccccccccccccccccccccccccccccccccccccccccccccccccccccccccccccccccccccccccccccccccccccccccccccccccccccccccccccccccccccccccccccccccccccccccccccccccc" />
    </g>
  </g>
</svg>
