<?xml version="1.0" encoding="UTF-8" standalone="no"?>
<svg
   xmlns:dc="http://purl.org/dc/elements/1.1/"
   xmlns:cc="http://creativecommons.org/ns#"
   xmlns:rdf="http://www.w3.org/1999/02/22-rdf-syntax-ns#"
   xmlns:svg="http://www.w3.org/2000/svg"
   xmlns="http://www.w3.org/2000/svg"
   xmlns:sodipodi="http://sodipodi.sourceforge.net/DTD/sodipodi-0.dtd"
   xmlns:inkscape="http://www.inkscape.org/namespaces/inkscape"
   width="793.70081"
   height="1122.5197"
   viewBox="0 0 210 297"
   version="1.1"
   id="svg8"
   inkscape:version="1.0.2 (e86c870879, 2021-01-15, custom)"
   sodipodi:docname="Infinite-Loop.svg">
  <defs
     id="defs2">
    <inkscape:path-effect
       effect="skeletal"
       id="path-effect875"
       is_visible="true"
       lpeversion="1"
       pattern="m 99.483335,155.04584 v 2.40531 h 39.687505 v -2.40531 z"
       copytype="single_stretched"
       prop_scale="1"
       scale_y_rel="false"
       spacing="0"
       normal_offset="0"
       tang_offset="0"
       prop_units="false"
       vertical_pattern="false"
       hide_knot="false"
       fuse_tolerance="0" />
  </defs>
  <sodipodi:namedview
     id="base"
     pagecolor="#ffffff"
     bordercolor="#666666"
     borderopacity="1.0"
     inkscape:pageopacity="0.0"
     inkscape:pageshadow="2"
     inkscape:zoom="1"
     inkscape:cx="270.5"
     inkscape:cy="558.45509"
     inkscape:document-units="mm"
     inkscape:current-layer="layer1"
     inkscape:document-rotation="0"
     showgrid="false"
     units="px"
     showborder="false"
     inkscape:snap-center="false"
     inkscape:window-width="1920"
     inkscape:window-height="1017"
     inkscape:window-x="-8"
     inkscape:window-y="-8"
     inkscape:window-maximized="1" />
  <metadata
     id="metadata5">
    <rdf:RDF>
      <cc:Work
         rdf:about="">
        <dc:format>image/svg+xml</dc:format>
        <dc:type
           rdf:resource="http://purl.org/dc/dcmitype/StillImage" />
        <dc:title />
      </cc:Work>
    </rdf:RDF>
  </metadata>
  <g
     inkscape:label="Layer 1"
     inkscape:groupmode="layer"
     id="layer1">
    <g
       id="g1905"
       transform="matrix(1.1578908,0,0,1.1578908,-0.66840435,-13.451637)"
       style="stroke-width:0.863639">
      <path
         id="path921"
         style="fill:#7300ff;fill-opacity:1;stroke-width:16.3207;stroke-linecap:square"
         d="m 143.79297,412.72656 c -0.9553,-0.0302 -1.8895,0.0263 -2.79297,0.18164 -0.90347,-0.15382 -1.83768,-0.2103 -2.79297,-0.17968 C 123.87772,413.18308 104.60347,433.4479 106.9082,447 104.44982,461.45556 126.54443,483.55015 141,481.0918 h 134.0918 134.09179 c 14.45556,2.45835 36.55019,-19.63624 34.0918,-34.0918 2.30472,-13.5521 -16.9695,-33.81692 -31.29883,-34.27148 -0.95527,-0.0302 -1.88951,0.0266 -2.79297,0.17968 -0.90349,-0.15534 -1.83761,-0.21187 -2.79297,-0.18164 C 392.06127,413.18124 372.78707,433.4479 375.0918,447 v 25 h -100 -100 v -25 c 2.30473,-13.5521 -16.96942,-33.81876 -31.29883,-34.27344 z m -4.58008,8.96094 c 0.63005,0.0227 1.22828,0.12466 1.78711,0.3125 8.94126,-3.00472 28.00469,16.05873 25,25 v 25 h -25 c -8.94125,3.00469 -28.00469,-16.05873 -25,-25 -2.8169,-8.38243 13.76215,-25.66116 23.21289,-25.3125 z m 268.18359,0 c 0.63005,0.0227 1.22827,0.12466 1.78711,0.3125 0.55884,-0.18784 1.15707,-0.28982 1.78711,-0.3125 9.45075,-0.34847 26.02981,16.93007 23.21289,25.3125 3.00469,8.94127 -16.05877,28.00469 -25,25 h -25 v -25 c -2.81688,-8.38246 13.76215,-25.66116 23.21289,-25.3125 z M 166,572 v 9.0918 9.09179 h 9.0918 V 581.0918 572 Z m 209.0918,0 v 9.0918 9.09179 h 9.09179 V 581.0918 572 Z M 138.20703,680.91016 c -14.3294,0.45467 -33.60356,20.72133 -31.29883,34.27343 -2.30473,13.5521 16.96952,33.81692 31.29883,34.27149 0.95529,0.0302 1.8895,-0.0266 2.79297,-0.17969 0.90347,0.15534 1.83767,0.21188 2.79297,0.18164 14.32941,-0.45468 33.60356,-20.72134 31.29883,-34.27344 v -25 h 100 100 v 25 c -2.30473,13.5521 16.96947,33.81876 31.29882,34.27344 0.95536,0.0302 1.88948,-0.0263 2.79297,-0.18164 0.90346,0.15383 1.8377,0.2103 2.79297,0.17969 14.32933,-0.45457 33.60355,-20.71939 31.29883,-34.27149 2.45839,-14.45556 -19.63624,-36.55015 -34.0918,-34.09179 H 275.0918 141 c -0.90347,-0.15383 -1.83768,-0.21188 -2.79297,-0.18164 z m 1.00586,8.96093 c 0.63005,0.0227 1.22828,0.12466 1.78711,0.3125 h 25 v 25 c 3.00469,8.94127 -16.05874,28.00469 -25,25 -0.55883,0.18785 -1.15706,0.28983 -1.78711,0.3125 -9.45074,0.34885 -26.02979,-16.93007 -23.21289,-25.3125 -2.8169,-8.38246 13.76216,-25.66116 23.21289,-25.3125 z m 271.75781,0 c 9.45071,-0.34885 26.02978,16.93004 23.21289,25.3125 2.81692,8.38243 -13.76214,25.66117 -23.21289,25.3125 -0.63004,-0.0227 -1.22827,-0.12465 -1.78711,-0.3125 -8.94126,3.00469 -28.00465,-16.05873 -25,-25 v -25 h 25 c 0.55881,-0.18784 1.15707,-0.28906 1.78711,-0.3125 z"
         transform="scale(0.26458333)" />
      <path
         id="path919"
         style="fill:#0095ff;fill-opacity:1;stroke-width:16.3207;stroke-linecap:square"
         d="m 143.39648,394.68359 c -0.80061,-0.0151 -1.6001,4e-5 -2.39648,0.043 -0.79638,-0.0427 -1.59587,-0.055 -2.39648,-0.041 C 113.78451,395.11932 87.403483,422.3122 88.726562,447 87.360805,472.48414 115.51585,500.63917 141,499.27344 h 134.0918 134.09179 c 25.48415,1.36573 53.63921,-26.7893 52.27344,-52.27344 1.32306,-24.6878 -25.05797,-51.88064 -49.87695,-52.31445 -0.80062,-0.0151 -1.6001,-0.002 -2.39649,0.041 -0.79638,-0.0427 -1.59586,-0.0581 -2.39648,-0.043 C 381.96809,395.11748 355.58706,422.3122 356.91016,447 v 25 h 9.09179 v -25 c -1.91208,-19.96989 23.21175,-45.09374 43.18164,-43.18164 19.96986,-1.91206 45.09371,23.21179 43.18164,43.18164 1.91207,19.96985 -23.21178,45.09363 -43.18164,43.18164 H 275.0918 141 C 121.03014,492.09363 95.906289,466.96985 97.818359,447 95.906289,427.03015 121.03014,401.9063 141,403.81836 160.96987,401.90626 186.09372,427.03011 184.18164,447 v 25 h 9.0918 v -25 c 1.32309,-24.6878 -25.05792,-51.88255 -49.87696,-52.31641 z M 184.18164,572 v 9.0918 9.09179 h 9.0918 V 581.0918 572 Z m 172.72852,0 v 9.0918 9.09179 h 9.09179 V 581.0918 572 Z m -218.30664,90.86719 c -24.81904,0.43389 -51.200033,27.62864 -49.876958,52.3164 -1.323079,24.6878 25.057948,51.88064 49.876958,52.31446 0.80061,0.0151 1.6001,0.002 2.39648,-0.041 0.79638,0.0427 1.59587,0.0581 2.39648,0.043 24.81904,-0.43385 51.20005,-27.62861 49.87696,-52.31641 v -25 h -9.0918 v 25 C 186.09372,735.15345 160.96987,760.27734 141,758.36523 121.03014,760.2773 95.906289,735.15345 97.818359,715.18359 95.906289,695.21374 121.03014,670.09 141,672.00195 h 134.0918 134.09179 c 19.96986,-1.91195 45.09371,23.21179 43.18164,43.18164 1.91207,19.96986 -23.21178,45.09371 -43.18164,43.18164 -19.96989,1.91211 -45.09372,-23.21175 -43.18164,-43.18164 v -25 h -9.09179 v 25 c -1.3231,24.6878 25.05793,51.88256 49.87695,52.31641 0.80062,0.0151 1.6001,-3e-5 2.39648,-0.043 0.79639,0.0427 1.59587,0.0546 2.39649,0.041 24.81898,-0.43382 51.20001,-27.62666 49.87695,-52.31446 1.36577,-25.48414 -26.78929,-53.63917 -52.27344,-52.27343 H 275.0918 141 c -0.79638,-0.0427 -1.59587,-0.057 -2.39648,-0.043 z"
         transform="scale(0.26458333)" />
      <path
         id="path917"
         style="fill:#00ff00;stroke-width:16.3207;stroke-linecap:square"
         d="M 141,376.54492 C 104.48724,376.27178 70.271772,410.48723 70.544922,447 70.271775,483.51277 104.48724,517.72822 141,517.45508 H 275.0918 409.18359 C 445.69636,517.72834 479.91193,483.51277 479.63867,447 479.91193,410.48723 445.69636,376.27178 409.18359,376.54492 372.67081,376.27178 338.45537,410.48723 338.72852,447 v 25 h 9.09179 v -25 c -0.81946,-30.99848 30.36481,-62.18276 61.36328,-61.36328 30.99848,-0.81948 62.18271,30.3648 61.36329,61.36328 0.81942,30.99848 -30.36481,62.18272 -61.36329,61.36328 H 275.0918 141 C 110.00153,509.18272 78.81726,477.99848 79.636719,447 78.81726,416.00152 110.00153,384.81724 141,385.63672 171.99848,384.81724 203.18274,416.00152 202.36328,447 v 25 h 9.0918 V 447 C 211.72822,410.48723 177.51277,376.27176 141,376.54492 Z M 202.36328,572 v 9.0918 9.09179 h 9.0918 V 581.0918 572 Z m 136.36524,0 v 9.0918 9.09179 h 9.09179 V 581.0918 572 Z M 141,644.72852 c -36.51276,-0.27326 -70.728225,33.94231 -70.455078,70.45507 -0.273147,36.51277 33.942318,70.72834 70.455078,70.45508 36.51277,0.27326 70.72822,-33.94231 70.45508,-70.45508 v -25 h -9.0918 v 25 C 203.18274,746.18207 171.99848,777.36634 141,776.54688 110.00153,777.36634 78.81726,746.18207 79.636719,715.18359 78.81726,684.18512 110.00153,653.00087 141,653.82031 h 134.0918 134.09179 c 30.99848,-0.81944 62.18271,30.36481 61.36329,61.36328 0.81942,30.99848 -30.36481,62.18275 -61.36329,61.36329 -30.99847,0.81946 -62.18274,-30.36481 -61.36328,-61.36329 v -25 h -9.09179 v 25 c -0.27315,36.51277 33.94229,70.72827 70.45507,70.45508 36.51277,0.27326 70.72823,-33.94231 70.45508,-70.45508 0.27326,-36.51276 -33.94231,-70.72822 -70.45508,-70.45507 H 275.0918 Z"
         transform="scale(0.26458333)" />
      <path
         id="path915"
         style="fill:#ffcc00;stroke-width:16.3207;stroke-linecap:square"
         d="M 141,358.36328 C 93.458643,359.18274 53.18274,399.45865 52.363281,447 53.18274,494.54135 93.45865,534.81724 141,535.63672 H 275.0918 409.18359 C 456.72495,534.81724 497.00084,494.54135 497.82031,447 497.00084,399.45865 456.72495,359.18274 409.18359,358.36328 361.64221,359.18274 321.36632,399.45865 320.54688,447 v 25 h 9.09179 v -25 c 0.27315,-42.02706 37.51784,-79.27178 79.54492,-79.54492 42.02703,0.27318 79.27167,37.51786 79.54493,79.54492 -0.27326,42.02706 -37.51786,79.27166 -79.54493,79.54492 H 275.0918 141 C 98.972943,526.27166 61.728228,489.02706 61.455078,447 61.728225,404.97294 98.972951,367.72825 141,367.45508 183.02707,367.72822 220.27177,404.97294 220.54492,447 v 25 h 9.0918 V 447 C 228.81726,399.45865 188.54137,359.18274 141,358.36328 Z M 220.54492,572 v 9.0918 9.09179 h 9.0918 V 581.0918 572 Z m 100.00196,0 v 9.0918 9.09179 h 9.09179 V 581.0918 572 Z M 141,626.54688 c -47.54135,0.81946 -87.81726,41.09536 -88.636719,88.63671 0.819459,47.54136 41.095362,87.81728 88.636719,88.63672 47.54137,-0.81944 87.81726,-41.09536 88.63672,-88.63672 v -25 h -9.0918 v 25 C 220.27178,757.21066 183.02707,794.45526 141,794.72852 98.972951,794.45526 61.728225,757.21066 61.455078,715.18359 61.728228,673.15653 98.972943,635.91193 141,635.63867 h 134.0918 134.09179 c 42.02707,0.27326 79.27178,37.51786 79.54493,79.54492 -0.27326,42.02707 -37.5179,79.27178 -79.54493,79.54493 -42.02708,-0.27326 -79.27177,-37.51786 -79.54492,-79.54493 v -25 h -9.09179 v 25 c 0.81944,47.54136 41.09533,87.81728 88.63671,88.63672 47.54136,-0.81944 87.81725,-41.09536 88.63672,-88.63672 -0.81947,-47.54135 -41.09536,-87.81725 -88.63672,-88.63671 H 275.0918 Z"
         transform="scale(0.26458333)" />
      <path
         id="path913"
         style="fill:#ff6600;stroke-width:16.3207;stroke-linecap:square"
         d="M 141,340.18164 C 82.430042,342.09372 36.093721,388.43002 34.181641,447 36.09371,505.56994 82.430061,551.90626 141,553.81836 H 275.0918 409.18359 C 467.75353,551.90626 514.08985,505.56994 516.00195,447 514.08985,388.43002 467.75353,342.09372 409.18359,340.18164 350.61362,342.09371 304.27732,388.43002 302.36523,447 v 25 h 9.0918 v -25 c 1.36576,-53.05569 44.67089,-96.3608 97.72656,-97.72656 53.05565,1.36578 96.3608,44.67091 97.72657,97.72656 -1.36577,53.05565 -44.67092,96.36079 -97.72657,97.72656 H 275.0918 141 C 87.944342,543.36079 44.639207,500.05565 43.273438,447 44.639199,393.94435 87.944361,350.63922 141,349.27344 194.05566,350.6392 237.3608,393.94431 238.72656,447 v 25 h 9.0918 V 447 C 245.90628,388.43002 199.56996,342.09371 141,340.18164 Z M 238.72656,572 v 9.0918 9.09179 h 9.0918 V 581.0918 572 Z m 63.63867,0 v 9.0918 9.09179 h 9.0918 V 581.0918 572 Z M 141,608.36523 C 82.430061,610.27734 36.09371,656.61365 34.181641,715.18359 36.093721,773.75357 82.430042,820.08985 141,822.00195 199.56996,820.08989 245.90628,773.75357 247.81836,715.18359 v -25 h -9.0918 v 25 C 237.3608,768.23928 194.05566,811.54439 141,812.91016 87.944361,811.54439 44.639199,768.23924 43.273438,715.18359 44.639207,662.12795 87.944342,618.8228 141,617.45703 h 134.0918 134.09179 c 53.05565,1.36577 96.3608,44.67092 97.72657,97.72656 -1.36577,53.05565 -44.67092,96.3608 -97.72657,97.72657 -53.05567,-1.36577 -96.3608,-44.67088 -97.72656,-97.72657 v -25 h -9.0918 v 25 c 1.91209,58.56998 48.24839,104.9063 106.81836,106.81836 58.56994,-1.9121 104.90626,-48.24838 106.81836,-106.81836 -1.9121,-58.56994 -48.24842,-104.90625 -106.81836,-106.81836 H 275.0918 Z"
         transform="scale(0.26458333)" />
      <path
         id="path866"
         style="fill:#ff0000;stroke-width:16.3207;stroke-linecap:square"
         d="m 141,322 c -69.598559,3.00469 -121.99531,55.40142 -125,125 3.00469,69.59853 55.401464,121.99531 125,125 h 115.9082 v 9.0918 9.09179 H 141 c -69.598536,3.00469 -121.99531,55.40148 -125,125 3.00469,69.59857 55.401441,121.99532 125,125 69.59857,-3.00468 121.99531,-55.40143 125,-125 v -25 h -9.0918 v 25 C 254.44982,779.26786 205.08426,828.6334 141,831.0918 76.91576,828.63337 27.550177,779.26783 25.091797,715.18359 27.550177,651.09936 76.915741,601.73378 141,599.27539 h 134.0918 134.09179 c 64.08424,2.45839 113.44981,51.82397 115.90821,115.9082 -2.4584,64.08424 -51.82397,113.44978 -115.90821,115.90821 -64.08427,-2.4584 -113.44982,-51.82394 -115.9082,-115.90821 v -25 h -9.0918 v 25 c 3.00469,69.59857 55.40142,121.99532 125,125 69.59857,-3.00468 121.99532,-55.40143 125,-125 -3.00468,-69.59852 -55.40147,-121.99531 -125,-125 H 293.27539 V 581.0918 572 h 115.9082 c 69.59853,-3.00469 121.99532,-55.40147 125,-125 -3.00468,-69.59858 -55.40143,-121.99531 -125,-125 -69.59858,3.00468 -121.99531,55.40142 -125,125 v 25 h 9.0918 V 447 C 295.73377,382.91573 345.09932,333.55016 409.18359,331.0918 473.26783,333.55019 522.6334,382.91577 525.0918,447 522.6334,511.08423 473.26783,560.44981 409.18359,562.9082 H 275.0918 141 C 76.915741,560.44981 27.550177,511.08423 25.091797,447 27.550177,382.91577 76.91576,333.55019 141,331.0918 205.08426,333.55016 254.44982,382.91573 256.9082,447 v 25 H 266 V 447 C 262.99531,377.40142 210.59857,325.00468 141,322 Z m 125,250 h 9.0918 9.09179 v 9.0918 9.09179 H 275.0918 266 v -9.09179 z"
         transform="scale(0.26458333)" />
    </g>
  </g>
</svg>
