<?xml version="1.0" encoding="UTF-8" standalone="no"?>
<svg
   xmlns:dc="http://purl.org/dc/elements/1.1/"
   xmlns:cc="http://creativecommons.org/ns#"
   xmlns:rdf="http://www.w3.org/1999/02/22-rdf-syntax-ns#"
   xmlns:svg="http://www.w3.org/2000/svg"
   xmlns="http://www.w3.org/2000/svg"
   xmlns:sodipodi="http://sodipodi.sourceforge.net/DTD/sodipodi-0.dtd"
   xmlns:inkscape="http://www.inkscape.org/namespaces/inkscape"
   inkscape:export-ydpi="96"
   inkscape:export-xdpi="96"
   inkscape:export-filename="/home/rajesh/Documents/dax/Paper-Airplane.png"
   sodipodi:docname="Paper-Airplane.svg"
   inkscape:version="1.0 (6e3e5246a0, 2020-05-07)"
   id="svg8"
   version="1.1"
   viewBox="0 0 210 297"
   height="1122.5197"
   width="793.70081">
  <defs
     id="defs2" />
  <sodipodi:namedview
     inkscape:window-maximized="1"
     inkscape:window-y="27"
     inkscape:window-x="74"
     inkscape:window-height="1016"
     inkscape:window-width="1846"
     inkscape:snap-midpoints="false"
     inkscape:snap-smooth-nodes="false"
     inkscape:snap-intersection-paths="false"
     inkscape:object-paths="false"
     inkscape:snap-nodes="true"
     inkscape:object-nodes="true"
     units="px"
     showborder="false"
     inkscape:showpageshadow="false"
     showgrid="false"
     inkscape:document-rotation="0"
     inkscape:current-layer="layer1"
     inkscape:document-units="mm"
     inkscape:cy="705.01327"
     inkscape:cx="704.69704"
     inkscape:zoom="1"
     inkscape:pageshadow="2"
     inkscape:pageopacity="0.0"
     borderopacity="1"
     bordercolor="#ffffff"
     pagecolor="#ffffff"
     id="base" />
  <metadata
     id="metadata5">
    <rdf:RDF>
      <cc:Work
         rdf:about="">
        <dc:format>image/svg+xml</dc:format>
        <dc:type
           rdf:resource="http://purl.org/dc/dcmitype/StillImage" />
        <dc:title></dc:title>
      </cc:Work>
    </rdf:RDF>
  </metadata>
  <g
     id="layer1"
     inkscape:groupmode="layer"
     inkscape:label="Layer 1">
    <g
       transform="translate(-3.2407098,-11.02394)"
       id="g882">
      <path
         style="fill:#8b8b8b;fill-opacity:1;stroke-width:1"
         d="m 169.78023,227.06522 c -0.13006,-0.33085 -1.38214,-4.00393 -2.78239,-8.1624 l -2.54592,-7.56086 1.92428,-4.41154 c 1.05836,-2.42634 2.01932,-4.41153 2.13548,-4.41153 0.17386,0 17.60865,12.11606 18.25366,12.68512 0.10985,0.0969 -2.44999,2.09335 -5.68854,4.43651 -3.23856,2.34316 -7.05194,5.10763 -8.47419,6.14326 -2.51233,1.82939 -2.59264,1.86586 -2.82238,1.28144 z"
         id="path863" />
      <path
         id="rect833"
         style="fill:#dfdfdf;fill-opacity:1;stroke-width:1.42099"
         d="m 131.37242,191.04141 115.3459,-55.23237 -26.0401,106.79309 z"
         sodipodi:nodetypes="cccc" />
      <path
         sodipodi:nodetypes="cccc"
         d="m 131.37242,191.04141 50.30953,2.0863 38.99627,49.47442 z"
         style="fill:#c5c5c5;fill-opacity:1;stroke-width:0.668464"
         id="path836" />
      <path
         sodipodi:nodetypes="cccc"
         d="m 153.1041,203.58819 93.61422,-67.77915 -75.66376,78.14286 z"
         style="fill:#d6d6d6;fill-opacity:1;stroke-width:0.63707"
         id="path838" />
      <path
         style="fill:#b7b7b7;fill-opacity:1;stroke-width:1"
         d="m 161.89926,216.09462 c -4.4799,-6.48886 -8.09885,-11.84437 -8.04212,-11.90109 0.0567,-0.0567 3.75672,2.0027 8.22219,4.57651 l 8.11903,4.67969 v 7.22142 c 0,3.97178 -0.0346,7.22142 -0.0769,7.22142 -0.0423,0 -3.74228,-5.30908 -8.22218,-11.79795 z"
         id="path861" />
    </g>
  </g>
</svg>
