<?xml version="1.0" encoding="UTF-8" standalone="no"?>
<svg
   xmlns:dc="http://purl.org/dc/elements/1.1/"
   xmlns:cc="http://creativecommons.org/ns#"
   xmlns:rdf="http://www.w3.org/1999/02/22-rdf-syntax-ns#"
   xmlns:svg="http://www.w3.org/2000/svg"
   xmlns="http://www.w3.org/2000/svg"
   xmlns:xlink="http://www.w3.org/1999/xlink"
   xmlns:sodipodi="http://sodipodi.sourceforge.net/DTD/sodipodi-0.dtd"
   xmlns:inkscape="http://www.inkscape.org/namespaces/inkscape"
   width="793.70081"
   height="1122.5197"
   viewBox="0 0 210 297"
   version="1.1"
   id="svg1027"
   inkscape:version="1.0 (b51213c273, 2020-08-10)"
   sodipodi:docname="Rainbow.svg">
  <defs
     id="defs1021">
    <linearGradient
       inkscape:collect="always"
       id="linearGradient1199">
      <stop
         style="stop-color:#00ffff;stop-opacity:1"
         offset="0"
         id="stop1195" />
      <stop
         style="stop-color:#ffcc00;stop-opacity:1"
         offset="0.36411974"
         id="stop1203" />
      <stop
         style="stop-color:#ff0000;stop-opacity:1"
         offset="1"
         id="stop1197" />
    </linearGradient>
    <inkscape:perspective
       sodipodi:type="inkscape:persp3d"
       inkscape:vp_x="0 : 148.5 : 1"
       inkscape:vp_y="0 : 1000 : 0"
       inkscape:vp_z="210 : 148.5 : 1"
       inkscape:persp3d-origin="105 : 99 : 1"
       id="perspective1042" />
    <linearGradient
       inkscape:collect="always"
       xlink:href="#linearGradient1199"
       id="linearGradient1201"
       x1="369.94952"
       y1="725.65399"
       x2="788.84668"
       y2="306.75684"
       gradientUnits="userSpaceOnUse"
       gradientTransform="matrix(0.25556787,-0.0684792,0.0684792,0.25556787,-33.234298,39.511224)" />
  </defs>
  <sodipodi:namedview
     id="base"
     pagecolor="#ffffff"
     bordercolor="#666666"
     borderopacity="1.0"
     inkscape:pageopacity="0.0"
     inkscape:pageshadow="2"
     inkscape:zoom="1"
     inkscape:cx="475.03113"
     inkscape:cy="575.84351"
     inkscape:document-units="px"
     inkscape:current-layer="layer1"
     inkscape:document-rotation="0"
     showgrid="false"
     showborder="false"
     units="px"
     inkscape:snap-smooth-nodes="false"
     inkscape:object-paths="true"
     inkscape:snap-intersection-paths="false"
     inkscape:snap-midpoints="false"
     inkscape:window-width="1846"
     inkscape:window-height="1016"
     inkscape:window-x="74"
     inkscape:window-y="27"
     inkscape:window-maximized="1" />
  <metadata
     id="metadata1024">
    <rdf:RDF>
      <cc:Work
         rdf:about="">
        <dc:format>image/svg+xml</dc:format>
        <dc:type
           rdf:resource="http://purl.org/dc/dcmitype/StillImage" />
        <dc:title></dc:title>
      </cc:Work>
    </rdf:RDF>
  </metadata>
  <g
     inkscape:label="Layer 1"
     inkscape:groupmode="layer"
     id="layer1">
    <path
       id="path1172"
       style="color:#000000;font-style:normal;font-variant:normal;font-weight:normal;font-stretch:normal;font-size:medium;line-height:normal;font-family:sans-serif;font-variant-ligatures:normal;font-variant-position:normal;font-variant-caps:normal;font-variant-numeric:normal;font-variant-alternates:normal;font-variant-east-asian:normal;font-feature-settings:normal;font-variation-settings:normal;text-indent:0;text-align:start;text-decoration:none;text-decoration-line:none;text-decoration-style:solid;text-decoration-color:#000000;letter-spacing:normal;word-spacing:normal;text-transform:none;writing-mode:lr-tb;direction:ltr;text-orientation:mixed;dominant-baseline:auto;baseline-shift:baseline;text-anchor:start;white-space:normal;shape-padding:0;shape-margin:0;inline-size:0;clip-rule:nonzero;display:inline;overflow:visible;visibility:visible;opacity:1;isolation:auto;mix-blend-mode:normal;color-interpolation:sRGB;color-interpolation-filters:linearRGB;solid-color:#000000;solid-opacity:1;vector-effect:none;fill:url(#linearGradient1201);fill-opacity:1;fill-rule:evenodd;stroke:none;stroke-width:2.64583;stroke-linecap:round;stroke-linejoin:round;stroke-miterlimit:4;stroke-dasharray:none;stroke-dashoffset:0;stroke-opacity:1;color-rendering:auto;image-rendering:auto;shape-rendering:auto;text-rendering:auto;enable-background:accumulate;stop-color:#000000;stop-opacity:1"
       d="m 166.35529,70.482803 a 1.3230489,1.3230489 0 0 0 -0.0368,0.01039 1.3230489,1.3230489 0 0 0 -0.28087,0.121804 l -15.41891,8.901488 a 1.3230489,1.3230489 0 0 0 -0.01,0.0058 1.3230489,1.3230489 0 0 0 -0.0328,0.01949 1.3230489,1.3230489 0 0 0 -0.002,0.0016 1.3230489,1.3230489 0 0 0 -0.0414,0.02714 1.3230489,1.3230489 0 0 0 -0.0386,0.02748 1.3230489,1.3230489 0 0 0 -0.001,0.0016 1.3230489,1.3230489 0 0 0 -0.0758,0.06044 1.3230489,1.3230489 0 0 0 -0.002,0.0023 1.3230489,1.3230489 0 0 0 -0.0728,0.06766 1.3230489,1.3230489 0 0 0 -0.12903,0.151225 1.3230489,1.3230489 0 0 0 -0.19489,1.17945 l 21.1776,79.035859 c 1.47713,5.5127 0.003,10.90307 -3.48142,14.69235 -4.90062,-1.53986 -8.84458,-5.49294 -10.31875,-10.99461 l -7.54261,-28.1494 a 1.3230489,1.3230489 0 0 0 -0.0293,-0.0932 l -4.55012,-16.98128 C 140.52085,100.83502 122.93068,89.785308 105.15669,92.688805 a 1.3230489,1.3230489 0 0 0 -0.38861,0.04314 l -0.0305,0.0082 c -1.01436,0.178052 -2.0314,0.394499 -3.04836,0.667004 -0.86086,0.230663 -1.703702,0.496436 -2.531293,0.785789 l -0.01149,0.0031 -13.797562,3.591651 c -0.09047,0.02348 -0.181051,0.04477 -0.271481,0.069 a 1.3230489,1.3230489 0 0 0 -0.245084,0.09564 C 66.098461,103.12318 54.876537,122.63896 59.914774,141.44192 l 21.179337,79.04235 a 1.3230489,1.3230489 0 0 0 0.820632,0.94425 1.3230489,1.3230489 0 0 0 0.04079,0.0151 1.3230489,1.3230489 0 0 0 0.0057,0.002 1.3230489,1.3230489 0 0 0 0.0414,0.0132 1.3230489,1.3230489 0 0 0 0.233849,0.0481 1.3230489,1.3230489 0 0 0 0.01018,6.5e-4 1.3230489,1.3230489 0 0 0 0.0061,5.9e-4 1.3230489,1.3230489 0 0 0 0.04325,0.004 1.3230489,1.3230489 0 0 0 4.93e-4,-1.3e-4 1.3230489,1.3230489 0 0 0 0.006,7.8e-4 1.3230489,1.3230489 0 0 0 0.04383,0.001 1.3230489,1.3230489 0 0 0 0.03987,3.3e-4 1.3230489,1.3230489 0 0 0 0.01044,-3.1e-4 l 17.793266,-3.7e-4 a 1.3230489,1.3230489 0 0 0 0.66237,-0.17748 l 15.39234,-8.88687 a 1.3230489,1.3230489 0 0 0 0.0675,-0.0395 1.3230489,1.3230489 0 0 0 0.002,-4.5e-4 1.3230489,1.3230489 0 0 0 0.19516,-0.1502 1.3230489,1.3230489 0 0 0 0.001,-0.002 1.3230489,1.3230489 0 0 0 0.19241,-0.22436 1.3230489,1.3230489 0 0 0 0.001,-0.002 1.3230489,1.3230489 0 0 0 0.0512,-0.0822 1.3230489,1.3230489 0 0 0 3.7e-4,-6.4e-4 1.3230489,1.3230489 0 0 0 6.2e-4,-8.7e-4 1.3230489,1.3230489 0 0 0 0.0659,-0.13158 1.3230489,1.3230489 0 0 0 0.001,-0.002 1.3230489,1.3230489 0 0 0 0.0758,-0.23429 1.3230489,1.3230489 0 0 0 6.3e-4,-0.002 1.3230489,1.3230489 0 0 0 0.009,-0.0469 1.3230489,1.3230489 0 0 0 6.3e-4,-0.002 1.3230489,1.3230489 0 0 0 0.0125,-0.39444 1.3230489,1.3230489 0 0 0 -5e-5,-0.002 1.3230489,1.3230489 0 0 0 -0.0356,-0.18468 L 95.693798,131.85487 c -1.477126,-5.51271 -0.0024,-10.9027 3.482055,-14.69199 4.900467,1.53995 8.843977,5.49271 10.318107,10.99425 l 5.96652,22.26735 a 1.3230489,1.3230489 0 0 0 0.0147,0.0469 l 6.13879,22.91027 c 4.75195,17.73453 22.34304,28.78429 40.1164,25.88186 a 1.3230489,1.3230489 0 0 0 0.38113,-0.0411 1.3230489,1.3230489 0 0 0 0.008,-0.002 c 1.02515,-0.179 2.05293,-0.39867 3.0807,-0.67406 0.86149,-0.23084 1.70331,-0.49573 2.53143,-0.7853 l 0.01,-0.002 14.06101,-3.66065 c 0.003,-0.001 0.007,-0.001 0.01,-0.002 a 1.323254,1.323254 0 0 0 0.0508,-0.0141 c 18.85887,-5.08311 30.1686,-24.69909 25.11173,-43.57155 L 185.79494,71.467585 a 1.3230489,1.3230489 0 0 0 -1.29153,-1.030474 l -17.80342,4.04e-4 a 1.3230489,1.3230489 0 0 0 -0.3447,0.04529 z m 0.69719,2.599971 12.51124,0.0015 -10.83357,6.255649 -4.85512,-1.8e-4 -7.65675,-0.0017 z m -14.04715,8.903607 15.06423,-4.58e-4 19.73699,73.659457 c 2.30806,8.61382 -2.5171,16.9741 -11.13088,19.28216 -2.08986,0.55998 -4.12786,0.56404 -6.10228,0.32491 3.3218,-4.3449 4.72983,-10.0492 3.17792,-15.84098 z m 30.66615,-8.216968 20.74598,77.425087 c 4.68739,17.49356 -5.79722,35.65708 -23.29077,40.34445 -17.49355,4.6874 -35.65775,-5.79972 -40.34513,-23.29326 l -6.15149,-22.95769 -1.39112,-5.19172 -4.5754,-17.07563 c -0.0696,-0.25989 -0.14261,-0.51765 -0.21773,-0.77464 -0.0266,-0.0911 -0.0542,-0.18167 -0.0815,-0.27239 -0.0421,-0.1399 -0.0859,-0.27887 -0.12963,-0.41788 -0.12188,-0.38764 -0.24773,-0.77311 -0.38193,-1.15383 -0.003,-0.009 -0.007,-0.0178 -0.01,-0.0268 -0.13443,-0.3804 -0.27654,-0.75612 -0.423,-1.12944 -0.0286,-0.0729 -0.0573,-0.14561 -0.0863,-0.21817 -0.30456,-0.76135 -0.63453,-1.5071 -0.98743,-2.23759 -0.0344,-0.0711 -0.0688,-0.14216 -0.10361,-0.21298 -0.3708,-0.7545 -0.76651,-1.49193 -1.18643,-2.21155 -0.0113,-0.0193 -0.0224,-0.0386 -0.0337,-0.0579 -5.56194,-9.49009 -15.28026,-15.866088 -26.048938,-17.333 l 0.849901,-0.222377 a 1.3230489,1.3230489 0 0 0 0.108886,-0.03294 c 0.798601,-0.282004 1.611621,-0.535084 2.441511,-0.757459 0.97338,-0.260819 1.95249,-0.471413 2.93249,-0.640233 a 1.3230489,1.3230489 0 0 0 0.006,-0.0016 1.3230489,1.3230489 0 0 0 0.006,-0.0016 1.3230489,1.3230489 0 0 0 0.0175,-0.0026 c 16.52936,-2.832223 32.96074,7.430575 37.38402,23.938505 l 4.57541,17.07563 a 1.3230489,1.3230489 0 0 0 0.0262,0.0919 l 7.51786,28.05706 c 1.76509,6.58738 6.72072,11.32251 12.75511,12.99321 a 1.3230489,1.3230489 0 0 0 0.2025,0.0709 c 2.14051,0.5604 4.41576,0.73517 6.72823,0.47573 0.0343,-0.004 0.0685,-0.008 0.10271,-0.012 0.56882,-0.067 1.13999,-0.1599 1.71172,-0.28049 0.0619,-0.013 0.12371,-0.0264 0.1856,-0.0401 0.27876,-0.0617 0.55758,-0.12801 0.83645,-0.20273 9.93797,-2.66288 15.66498,-12.58535 13.00213,-22.52326 L 170.62574,81.300998 Z m -97.918085,26.645797 0.0091,-0.003 c 10.660135,-2.856372 21.569466,-0.0782 29.526236,6.48676 4.89648,4.04 8.6748,9.51398 10.5892,15.99121 0.0798,0.26988 0.15633,0.54147 0.22957,0.81481 l 4.57539,17.07562 1.39112,5.19173 6.15149,22.95767 c 0.0722,0.26927 0.14832,0.53668 0.22635,0.80283 0.0198,0.0675 0.0404,0.13471 0.0606,0.20205 0.0471,0.157 0.0958,0.313 0.1449,0.46889 0.12038,0.38252 0.24454,0.76334 0.37692,1.13912 0.004,0.0121 0.009,0.0242 0.0135,0.0365 0.132,0.37338 0.27168,0.74196 0.41526,1.10851 0.0321,0.0819 0.0641,0.16377 0.0968,0.24532 0.3032,0.75729 0.63119,1.4994 0.98223,2.22613 0.0348,0.0721 0.0696,0.1441 0.10492,0.21585 0.37019,0.75322 0.7657,1.48926 1.18485,2.20769 0.0123,0.021 0.0243,0.042 0.0367,0.0629 5.56237,9.489 15.28012,15.86401 26.04826,17.3305 l -0.8509,0.22265 a 1.3230489,1.3230489 0 0 0 -0.10838,0.0328 c -0.79864,0.28199 -1.61214,0.53523 -2.442,0.75759 -0.97274,0.26065 -1.95078,0.47248 -2.93009,0.6412 a 1.3230489,1.3230489 0 0 0 -0.002,4.5e-4 1.3230489,1.3230489 0 0 0 -0.0289,0.004 c -16.52938,2.83221 -32.96087,-7.43109 -37.38415,-23.939 l -6.15141,-22.95723 a 1.3230489,1.3230489 0 0 0 -0.014,-0.0465 l -5.95393,-22.22043 c -1.76467,-6.58582 -6.71824,-11.31896 -12.750547,-12.99016 a 1.3230489,1.3230489 0 0 0 -0.207065,-0.074 c -2.140819,-0.56049 -4.416016,-0.73361 -6.728684,-0.47346 -0.03389,0.004 -0.06781,0.008 -0.101723,0.0118 -0.568111,0.067 -1.138545,0.16 -1.70959,0.28046 -0.0632,0.0133 -0.126377,0.0272 -0.18958,0.0411 -0.278079,0.0616 -0.556386,0.12715 -0.834581,0.20169 -9.627407,2.57966 -15.303118,11.97071 -13.227537,21.59019 0.06695,0.3103 0.141658,0.62053 0.224873,0.93109 l 19.737258,73.66044 -13.045731,7.53159 -20.746261,-77.42608 c -4.686586,-17.49057 5.793789,-35.65035 23.281923,-40.34155 z m 4.459998,16.60901 c 2.089232,-0.55981 4.126902,-0.56332 6.10079,-0.3245 -3.321471,4.34483 -4.728399,10.04855 -3.176563,15.84008 l 20.74639,77.42658 -15.064365,-5e-5 -19.737258,-73.66045 c -0.07213,-0.26918 -0.136903,-0.53785 -0.195201,-0.80635 -1.807208,-8.32381 2.981609,-16.23938 11.326207,-18.47531 z m 7.944934,95.58938 12.512323,-3.9e-4 -10.836058,6.25632 -12.510468,-6.4e-4 z"
       inkscape:export-xdpi="96"
       inkscape:export-ydpi="96" />
  </g>
</svg>
