<?xml version="1.0" encoding="UTF-8" standalone="no"?>
<svg
   xmlns:dc="http://purl.org/dc/elements/1.1/"
   xmlns:cc="http://creativecommons.org/ns#"
   xmlns:rdf="http://www.w3.org/1999/02/22-rdf-syntax-ns#"
   xmlns:svg="http://www.w3.org/2000/svg"
   xmlns="http://www.w3.org/2000/svg"
   xmlns:sodipodi="http://sodipodi.sourceforge.net/DTD/sodipodi-0.dtd"
   xmlns:inkscape="http://www.inkscape.org/namespaces/inkscape"
   width="793.70081"
   height="1122.5197"
   viewBox="0 0 210 297"
   version="1.1"
   id="svg8"
   inkscape:version="1.0.2 (e86c870879, 2021-01-15, custom)"
   sodipodi:docname="Reflective-text.svg">
  <defs
     id="defs2">
    <inkscape:path-effect
       effect="perspective-envelope"
       up_left_point="23.800535,125.14791"
       up_right_point="165.14075,125.14791"
       down_left_point="17.185952,132.71955"
       down_right_point="171.75533,132.71955"
       id="path-effect903"
       is_visible="true"
       lpeversion="1"
       deform_type="perspective"
       horizontal_mirror="false"
       vertical_mirror="false"
       overflow_perspective="false" />
  </defs>
  <sodipodi:namedview
     id="base"
     pagecolor="#ffffff"
     bordercolor="#000000"
     borderopacity="1"
     inkscape:pageopacity="0.0"
     inkscape:pageshadow="2"
     inkscape:zoom="1"
     inkscape:cx="398.39996"
     inkscape:cy="580"
     inkscape:document-units="mm"
     inkscape:current-layer="layer1"
     inkscape:document-rotation="0"
     showgrid="false"
     units="px"
     showborder="false"
     inkscape:window-width="1920"
     inkscape:window-height="1017"
     inkscape:window-x="-8"
     inkscape:window-y="-8"
     inkscape:window-maximized="1" />
  <metadata
     id="metadata5">
    <rdf:RDF>
      <cc:Work
         rdf:about="">
        <dc:format>image/svg+xml</dc:format>
        <dc:type
           rdf:resource="http://purl.org/dc/dcmitype/StillImage" />
        <dc:title></dc:title>
      </cc:Work>
    </rdf:RDF>
  </metadata>
  <g
     inkscape:label="Layer 1"
     inkscape:groupmode="layer"
     id="layer1">
    <path
       style="fill:#15c0ff;fill-opacity:1;stroke:none;stroke-width:0.264583px;stroke-linecap:butt;stroke-linejoin:miter;stroke-opacity:1"
       d="M 30.282308,114.52958 H 152.30154 V 79.031374 l -122.165895,10e-7 z"
       id="path906"
       sodipodi:nodetypes="ccccc" />
    <path
       id="path834"
       style="font-size:38.6705px;line-height:1.25;font-family:'Bebas Neue';-inkscape-font-specification:'Bebas Neue';letter-spacing:0px;word-spacing:0px;stroke-width:0.264583"
       d="m 112.36584,100.44337 c -1.87327,0 -3.30139,0.53846 -4.28486,1.61557 -0.98347,1.05373 -1.47522,2.57565 -1.47522,4.56601 v 7.90463 l 0.48391,2.93073 c 0.20276,1.22758 0.88984,2.20064 2.07132,2.89881 1.19958,0.69512 2.83095,1.04763 4.87956,1.04763 2.04859,0 3.50932,-0.35251 4.37028,-1.04763 0.8414,-0.69817 1.05421,-1.67123 0.65899,-2.89881 l -0.94343,-2.93073 v -3.02227 h -5.585 v 3.02227 l 0.068,0.27598 h 1.93896 l 0.7693,2.82607 c 0.26769,0.98333 -0.30457,1.48414 -1.72258,1.48414 -1.41802,0 -2.23647,-0.50081 -2.45057,-1.48414 l -0.67542,-3.10205 V 106.379 c 0,-1.61569 0.66761,-2.42335 2.00232,-2.42335 1.3347,0 2.00185,0.80766 2.00185,2.42335 v 2.35341 h 3.65309 v -2.10746 c 0,-1.99036 -0.49174,-3.51228 -1.47522,-4.56601 -0.98346,-1.07711 -2.41207,-1.61557 -4.28533,-1.61557 z m 13.7337,0 c -1.87326,0 -3.30186,0.53846 -4.28532,1.61557 -0.98346,1.05373 -1.47523,2.57565 -1.47523,4.56601 v 7.90463 l 1.03167,2.93073 c 0.43219,1.22758 1.30101,2.20064 2.61297,2.89881 1.3295,0.69512 3.02761,1.04763 5.07622,1.04763 2.04859,0 3.44305,-0.35251 4.17409,-1.04763 0.71089,-0.69817 0.74153,-1.67123 0.11687,-2.89881 l -1.49118,-2.93073 v -3.02227 h -5.58454 v 3.02227 l 0.11922,0.27598 h 1.93896 l 1.29733,2.82607 c 0.45149,0.98333 -0.0272,1.48414 -1.44518,1.48414 -1.41801,0 -2.3296,-0.50081 -2.7275,-1.48414 l -1.25509,-3.10205 V 106.379 c 0,-1.61569 0.66715,-2.42335 2.00185,-2.42335 1.3347,0 2.00186,0.80766 2.00186,2.42335 v 2.35341 h 3.65309 v -2.10746 c 0,-1.99036 -0.49176,-3.51228 -1.47523,-4.56601 -0.98345,-1.07711 -2.41159,-1.61557 -4.28486,-1.61557 z m -95.817232,0.35109 v 13.73512 l -5.802326,6.64202 h 6.433626 c 2.093668,0 3.920348,-0.34255 5.459219,-1.01853 1.513008,-0.66463 2.707611,-1.6188 3.581745,-2.84155 l 1.988714,-2.78194 v -7.65868 c 0,-1.99035 -0.479974,-3.50098 -1.440021,-4.53128 -0.96005,-1.03029 -2.400432,-1.54516 -4.320533,-1.54516 z m 17.175112,0 -2.237009,13.73512 -6.379179,6.64202 h 3.906549 l 2.730314,-3.08797 h 4.602621 l 0.02488,-0.0432 -1.037773,3.13114 h 4.212578 l 1.647481,-6.64202 -2.237008,-13.73512 z m 10.326563,0 4.249656,12.01207 -0.611115,1.72305 -7.184616,6.64202 h 3.982588 l 5.347039,-5.33906 h 0.07134 l 0.863169,5.33906 h 4.442096 l -1.732904,-6.64202 -0.611118,-1.72305 4.249657,-12.01207 h -3.652622 l -2.669295,7.93795 h -0.07041 l -2.599358,-7.93795 z m 20.723063,0 v 13.73512 l -1.443307,6.64202 h 6.434096 c 2.093668,0 3.695172,-0.34255 4.790369,-1.01853 1.076792,-0.66463 1.645345,-1.6188 1.716949,-2.84155 l 0.16287,-2.78194 v -7.65868 c 0,-1.99035 -0.479972,-3.50098 -1.440021,-4.53128 -0.96005,-1.03029 -2.400432,-1.54516 -4.320531,-1.54516 z m 14.119526,0 v 13.73512 l -0.07369,2.93073 c -0.03081,1.22758 0.470698,2.20064 1.519343,2.89881 1.067309,0.69512 2.632411,1.04763 4.681005,1.04763 2.04861,0 3.57609,-0.35251 4.5693,-1.04763 0.97422,-0.69817 1.37217,-1.67123 1.2105,-2.89881 l -0.38582,-2.93073 v -13.73512 h -3.72303 v 13.73512 l 0.25112,3.10205 c 0.042,0.51747 -0.11259,0.89524 -0.46562,1.12977 -0.330322,0.23594 -0.832162,0.35437 -1.503855,0.35437 -0.671688,0 -1.198766,-0.11843 -1.579422,-0.35437 -0.353671,-0.23453 -0.537288,-0.6123 -0.551507,-1.12977 l -0.08496,-3.10205 v -13.73512 z m 44.712458,0 -2.23701,13.73512 1.74605,6.64202 h 3.90655 l -1.04763,-3.08797 h 4.60263 l -0.0277,-0.0432 2.7918,3.13114 h 4.21258 l -6.47728,-6.64202 -2.23654,-13.73512 z m 11.09914,0 v 13.73512 l 4.87815,6.64202 h 11.14513 l -1.98964,-2.27784 h -6.73543 l -3.43484,-4.36418 v -13.73512 z m -114.292494,3.51228 h 1.967121 c 0.632232,0 1.112202,0.18718 1.440019,0.56183 0.351237,0.37466 0.526632,0.98381 0.526632,1.82679 v 7.83422 l -2.216825,2.88802 c -0.394917,0.51456 -0.868015,0.89094 -1.41796,1.12413 -0.528504,0.23461 -1.128362,0.35203 -1.798148,0.35203 h -2.083994 l 3.583155,-4.36418 z m 48.224737,0 h 1.967121 c 0.632227,0 1.112199,0.18718 1.440022,0.56183 0.351237,0.37466 0.526632,0.98381 0.526632,1.82679 v 7.83422 l -0.321049,2.88802 c -0.05719,0.51456 -0.283222,0.89094 -0.680114,1.12413 -0.374527,0.23461 -0.897909,0.35203 -1.56769,0.35203 h -2.083523 l 0.718601,-4.36418 z m -32.489177,0.77258 h 0.06994 l 1.338637,9.45026 -0.520059,1.54891 h -3.5503 l 1.350842,-1.54891 z m 89.881144,0 h 0.0704 l 1.33864,9.45026 1.37525,1.54891 h -3.55077 l -0.54446,-1.54891 z" />
  </g>
</svg>
