<?xml version="1.0" encoding="UTF-8" standalone="no"?>
<svg
   xmlns:dc="http://purl.org/dc/elements/1.1/"
   xmlns:cc="http://creativecommons.org/ns#"
   xmlns:rdf="http://www.w3.org/1999/02/22-rdf-syntax-ns#"
   xmlns:svg="http://www.w3.org/2000/svg"
   xmlns="http://www.w3.org/2000/svg"
   xmlns:xlink="http://www.w3.org/1999/xlink"
   xmlns:sodipodi="http://sodipodi.sourceforge.net/DTD/sodipodi-0.dtd"
   xmlns:inkscape="http://www.inkscape.org/namespaces/inkscape"
   sodipodi:docname="S.I.A.S.svg"
   inkscape:version="1.0 (6e3e5246a0, 2020-05-07)"
   id="svg8"
   version="1.1"
   viewBox="0 0 210 297"
   height="297mm"
   width="210mm">
  <defs
     id="defs2">
    <linearGradient
       id="linearGradient917"
       inkscape:collect="always">
      <stop
         id="stop913"
         offset="0"
         style="stop-color:#ff0000;stop-opacity:1" />
      <stop
         id="stop915"
         offset="1"
         style="stop-color:#ffd42a;stop-opacity:1" />
    </linearGradient>
    <linearGradient
       id="linearGradient909"
       inkscape:collect="always">
      <stop
         id="stop905"
         offset="0"
         style="stop-color:#5500d4;stop-opacity:1" />
      <stop
         id="stop907"
         offset="1"
         style="stop-color:#00ff00;stop-opacity:1" />
    </linearGradient>
    <linearGradient
       id="linearGradient901"
       inkscape:collect="always">
      <stop
         id="stop897"
         offset="0"
         style="stop-color:#0000ff;stop-opacity:1;" />
      <stop
         id="stop899"
         offset="1"
         style="stop-color:#00ffff;stop-opacity:1" />
    </linearGradient>
    <linearGradient
       gradientUnits="userSpaceOnUse"
       y2="79.67244"
       x2="175.91063"
       y1="127.829"
       x1="89.734734"
       id="linearGradient903"
       xlink:href="#linearGradient901"
       inkscape:collect="always" />
    <linearGradient
       gradientUnits="userSpaceOnUse"
       y2="79.67244"
       x2="175.91063"
       y1="127.829"
       x1="89.734734"
       id="linearGradient911"
       xlink:href="#linearGradient909"
       inkscape:collect="always" />
    <linearGradient
       gradientUnits="userSpaceOnUse"
       y2="90.869492"
       x2="154.23679"
       y1="127.829"
       x1="89.734734"
       id="linearGradient919"
       xlink:href="#linearGradient917"
       inkscape:collect="always" />
  </defs>
  <sodipodi:namedview
     inkscape:window-maximized="1"
     inkscape:window-y="27"
     inkscape:window-x="74"
     inkscape:window-height="1016"
     inkscape:window-width="1846"
     inkscape:snap-nodes="true"
     inkscape:object-nodes="true"
     showborder="false"
     showgrid="false"
     inkscape:document-rotation="0"
     inkscape:current-layer="layer1"
     inkscape:document-units="mm"
     inkscape:cy="433.20354"
     inkscape:cx="457.2869"
     inkscape:zoom="1"
     inkscape:pageshadow="2"
     inkscape:pageopacity="0.0"
     borderopacity="1.0"
     bordercolor="#666666"
     pagecolor="#ffffff"
     id="base" />
  <metadata
     id="metadata5">
    <rdf:RDF>
      <cc:Work
         rdf:about="">
        <dc:format>image/svg+xml</dc:format>
        <dc:type
           rdf:resource="http://purl.org/dc/dcmitype/StillImage" />
        <dc:title></dc:title>
      </cc:Work>
    </rdf:RDF>
  </metadata>
  <g
     id="layer1"
     inkscape:groupmode="layer"
     inkscape:label="Layer 1">
    <g
       id="g924">
      <path
         id="path857"
         style="opacity:1;fill:url(#linearGradient911);fill-opacity:1;stroke:#1a1a1a;stroke-width:0;stroke-linecap:square"
         d="m 175.91063,79.672443 -24.34236,-15.375252 -15.68841,4.639943 -5.39524,8.463937 a 24.990074,24.990074 0 0 0 -2.01778,0.208282 24.990074,24.990074 0 0 0 -0.45603,0.06943 24.990074,24.990074 0 0 0 -0.45456,0.07893 24.990074,24.990074 0 0 0 -13.18976,6.914242 l -3.6e-4,3.65e-4 a 24.990074,24.990074 0 0 0 -2.05286,2.325454 L 100.02461,78.510813 85.276765,86.450389 108.376,94.301901 a 20.67695,10.206395 15 0 1 2.2162,0.20353 20.67695,10.206395 15 0 1 0.3687,0.04641 20.67695,10.206395 15 0 1 0.36942,0.05079 20.67695,10.206395 15 0 1 0.24629,0.03581 20.67695,10.206395 15 0 1 0.10304,0.01535 20.67695,10.206395 15 0 1 0.0212,0.0029 20.67695,10.206395 15 0 1 0.12277,0.019 20.67695,10.206395 15 0 1 0.12424,0.019 20.67695,10.206395 15 0 1 0.0976,0.01571 20.67695,10.206395 15 0 1 0.026,0.004 20.67695,10.206395 15 0 1 0.0884,0.01462 20.67695,10.206395 15 0 1 0.0351,0.0058 20.67695,10.206395 15 0 1 0.0106,0.0018 20.67695,10.206395 15 0 1 0.11292,0.01863 20.67695,10.206395 15 0 1 0.1056,0.01791 20.67695,10.206395 15 0 1 0.0183,0.0029 20.67695,10.206395 15 0 1 0.10341,0.01791 20.67695,10.206395 15 0 1 0.0201,0.0033 20.67695,10.206395 15 0 1 0.0102,0.0015 20.67695,10.206395 15 0 1 0.0782,0.01389 20.67695,10.206395 15 0 1 0.0362,0.0062 20.67695,10.206395 15 0 1 0.076,0.01389 20.67695,10.206395 15 0 1 0.0479,0.0084 20.67695,10.206395 15 0 1 0.068,0.01242 20.67695,10.206395 15 0 1 0.10268,0.01864 20.67695,10.206395 15 0 1 0.11145,0.02083 20.67695,10.206395 15 0 1 0.0497,0.0095 20.67695,10.206395 15 0 1 0.0398,0.0077 20.67695,10.206395 15 0 1 0.0753,0.01389 20.67695,10.206395 15 0 1 0.0957,0.019 20.67695,10.206395 15 0 1 0.12095,0.02302 20.67695,10.206395 15 0 1 0.007,0.0018 20.67695,10.206395 15 0 1 0.12022,0.02375 20.67695,10.206395 15 0 1 0.1246,0.02521 20.67695,10.206395 15 0 1 2.42594,0.570399 v 7.3e-4 a 20.67695,10.206395 15 0 1 2.91157,0.892327 20.67695,10.206395 15 0 1 11.36381,6.620823 l 3.6e-4,-3.6e-4 a 20.67695,10.206395 15 0 1 0.69647,0.73739 20.67695,10.206395 15 0 1 0.17905,0.20536 20.67695,10.206395 15 0 1 0.17284,0.20572 20.67695,10.206395 15 0 1 2.04336,6.55834 l 3.6e-4,3.6e-4 a 20.67695,10.206395 15 0 1 -5.13324,4.68818 20.67695,10.206395 15 0 1 -2.26334,0.64823 20.67695,10.206395 15 0 1 -12.28646,-0.15639 20.67695,10.206395 15 0 1 -1.40865,-0.29562 20.67695,10.206395 15 0 1 -0.0194,-0.004 20.67695,10.206395 15 0 1 -0.47248,-0.11145 20.67695,10.206395 15 0 1 -0.0208,-0.005 20.67695,10.206395 15 0 1 -0.45932,-0.11437 20.67695,10.206395 15 0 1 -0.20061,-0.0508 20.67695,10.206395 15 0 1 -0.0179,-0.005 20.67695,10.206395 15 0 1 -0.0873,-0.023 20.67695,10.206395 15 0 1 -0.0705,-0.0186 20.67695,10.206395 15 0 1 -0.0523,-0.0135 20.67695,10.206395 15 0 1 -0.0354,-0.009 20.67695,10.206395 15 0 1 -0.0877,-0.0234 20.67695,10.206395 15 0 1 -0.0702,-0.019 20.67695,10.206395 15 0 1 -0.0175,-0.005 20.67695,10.206395 15 0 1 -0.0351,-0.01 20.67695,10.206395 15 0 1 -0.12242,-0.0333 20.67695,10.206395 15 0 1 -0.0296,-0.008 l -20.898394,12.58975 19.309964,12.566 23.98133,-0.64129 1.17661,-12.51155 a 24.990074,24.990074 0 0 0 15.5079,-7.2263 l 28.40203,0.0895 -22.75904,-8.77417 a 20.67695,10.206395 15 0 1 -5.44786,-0.65225 20.67695,10.206395 15 0 1 -1.40901,-0.29598 20.67695,10.206395 15 0 1 -0.019,-0.004 20.67695,10.206395 15 0 1 -0.47248,-0.11072 20.67695,10.206395 15 0 1 -0.0208,-0.005 20.67695,10.206395 15 0 1 -0.45895,-0.11328 20.67695,10.206395 15 0 1 -0.20097,-0.0512 20.67695,10.206395 15 0 1 -0.0179,-0.005 20.67695,10.206395 15 0 1 -0.0877,-0.0226 20.67695,10.206395 15 0 1 -0.0698,-0.0186 20.67695,10.206395 15 0 1 -0.0534,-0.0139 20.67695,10.206395 15 0 1 -0.0347,-0.009 20.67695,10.206395 15 0 1 -0.0881,-0.0237 20.67695,10.206395 15 0 1 -0.0702,-0.019 20.67695,10.206395 15 0 1 -0.0175,-0.004 20.67695,10.206395 15 0 1 -0.0351,-0.01 20.67695,10.206395 15 0 1 -0.12241,-0.0332 20.67695,10.206395 15 0 1 -0.30439,-0.0844 20.67695,10.206395 15 0 1 -2.32728,-0.73191 20.67695,10.206395 15 0 1 -14.45552,-14.327634 l 0.004,-0.0044 a 20.67695,10.206395 15 0 1 0.006,-0.01973 20.67695,10.206395 15 0 1 0.0121,-0.04495 20.67695,10.206395 15 0 1 0.004,-0.01535 20.67695,10.206395 15 0 1 0.009,-0.03033 20.67695,10.206395 15 0 1 0.009,-0.02996 20.67695,10.206395 15 0 1 0.003,-0.01169 20.67695,10.206395 15 0 1 0.019,-0.05993 20.67695,10.206395 15 0 1 0.0384,-0.117293 20.67695,10.206395 15 0 1 0.0175,-0.05043 20.67695,10.206395 15 0 1 0.019,-0.05116 20.67695,10.206395 15 0 1 0.003,-0.008 20.67695,10.206395 15 0 1 0.0102,-0.02631 20.67695,10.206395 15 0 1 0.0121,-0.03252 20.67695,10.206395 15 0 1 0.005,-0.01389 20.67695,10.206395 15 0 1 0.0219,-0.05627 20.67695,10.206395 15 0 1 0.0241,-0.05847 20.67695,10.206395 15 0 1 0.0197,-0.0475 20.67695,10.206395 15 0 1 0.0256,-0.05774 20.67695,10.206395 15 0 1 0.0128,-0.02887 20.67695,10.206395 15 0 1 0.0179,-0.03983 20.67695,10.206395 15 0 1 0.0216,-0.04714 20.67695,10.206395 15 0 1 0.0278,-0.057 20.67695,10.206395 15 0 1 0.0153,-0.03142 20.67695,10.206395 15 0 1 0.0186,-0.03691 20.67695,10.206395 15 0 1 0.023,-0.04568 20.67695,10.206395 15 0 1 0.0132,-0.02485 20.67695,10.206395 15 0 1 0.0226,-0.04238 20.67695,10.206395 15 0 1 0.0307,-0.05627 20.67695,10.206395 15 0 1 0.0248,-0.04604 20.67695,10.206395 15 0 1 0.01,-0.01644 20.67695,10.206395 15 0 1 0.0281,-0.05006 20.67695,10.206395 15 0 1 0.0267,-0.04494 20.67695,10.206395 15 0 1 0.0175,-0.0307 20.67695,10.206395 15 0 1 0.0157,-0.02521 20.67695,10.206395 15 0 1 0.01,-0.01681 20.67695,10.206395 15 0 1 0.0307,-0.04897 20.67695,10.206395 15 0 1 0.0351,-0.05481 20.67695,10.206395 15 0 1 0.0285,-0.04458 20.67695,10.206395 15 0 1 0.0157,-0.02229 20.67695,10.206395 15 0 1 0.0208,-0.03252 20.67695,10.206395 15 0 1 0.007,-0.0099 20.67695,10.206395 15 0 1 0.11364,-0.161146 20.67695,10.206395 15 0 1 0.0391,-0.05371 20.67695,10.206395 15 0 1 0.0325,-0.04348 20.67695,10.206395 15 0 1 0.0172,-0.02302 20.67695,10.206395 15 0 1 0.0303,-0.04056 20.67695,10.206395 15 0 1 0.0413,-0.05225 20.67695,10.206395 15 0 1 0.12899,-0.15603 20.67695,10.206395 15 0 1 0.0351,-0.04239 20.67695,10.206395 15 0 1 0.0113,-0.01279 20.67695,10.206395 15 0 1 0.0333,-0.03837 20.67695,10.206395 15 0 1 0.0102,-0.01169 20.67695,10.206395 15 0 1 0.0435,-0.04933 20.67695,10.206395 15 0 1 0.0373,-0.04166 20.67695,10.206395 15 0 1 0.009,-0.0091 20.67695,10.206395 15 0 1 0.038,-0.04093 20.67695,10.206395 15 0 1 0.009,-0.0095 20.67695,10.206395 15 0 1 0.0475,-0.05043 20.67695,10.206395 15 0 1 0.0979,-0.09939 20.67695,10.206395 15 0 1 0.0501,-0.0486 20.67695,10.206395 15 0 1 0.0413,-0.03983 20.67695,10.206395 15 0 1 0.11364,-0.104871 20.67695,10.206395 15 0 1 0.0526,-0.04823 20.67695,10.206395 15 0 1 0.10268,-0.09026 20.67695,10.206395 15 0 1 0.0117,-0.01023 20.67695,10.206395 15 0 1 0.0117,-0.0088 20.67695,10.206395 15 0 1 0.0417,-0.03581 20.67695,10.206395 15 0 1 0.10706,-0.0888 20.67695,10.206395 15 0 1 0.0574,-0.04568 20.67695,10.206395 15 0 1 0.17466,-0.135932 20.67695,10.206395 15 0 1 0.18088,-0.133373 20.67695,10.206395 15 0 1 0.0617,-0.04348 20.67695,10.206395 15 0 1 0.31718,-0.213399 20.67695,10.206395 15 0 1 0.19878,-0.124238 20.67695,10.206395 15 0 1 0.34385,-0.199878 20.67695,10.206395 15 0 1 0.0709,-0.03873 20.67695,10.206395 15 0 1 0.2883,-0.152375 20.67695,10.206395 15 0 1 0.0738,-0.03727 20.67695,10.206395 15 0 1 0.0745,-0.03654 20.67695,10.206395 15 0 1 0.0745,-0.03654 20.67695,10.206395 15 0 1 0.076,-0.03581 20.67695,10.206395 15 0 1 0.2302,-0.105969 20.67695,10.206395 15 0 1 0.31498,-0.136662 20.67695,10.206395 15 0 1 0.0808,-0.03252 20.67695,10.206395 15 0 1 0.0807,-0.03325 20.67695,10.206395 15 0 1 0.0113,-0.004 l 0.003,-0.0033 a 20.67695,10.206395 15 0 1 12.25796,-1.052372 20.67695,10.206395 15 0 1 0.3687,0.04714 20.67695,10.206395 15 0 1 0.36906,0.05043 20.67695,10.206395 15 0 1 0.24629,0.03581 20.67695,10.206395 15 0 1 0.10268,0.01498 20.67695,10.206395 15 0 1 0.0208,0.0033 20.67695,10.206395 15 0 1 0.12351,0.019 20.67695,10.206395 15 0 1 0.12387,0.01937 20.67695,10.206395 15 0 1 0.0979,0.01534 20.67695,10.206395 15 0 1 0.0259,0.004 20.67695,10.206395 15 0 1 0.0888,0.01498 20.67695,10.206395 15 0 1 0.0347,0.0055 20.67695,10.206395 15 0 1 0.0106,0.0018 20.67695,10.206395 15 0 1 0.11291,0.01864 20.67695,10.206395 15 0 1 0.10561,0.0179 20.67695,10.206395 15 0 1 0.0183,0.0029 20.67695,10.206395 15 0 1 0.10377,0.01754 20.67695,10.206395 15 0 1 0.0201,0.004 20.67695,10.206395 15 0 1 0.009,7.3e-4 20.67695,10.206395 15 0 1 0.0786,0.01425 20.67695,10.206395 15 0 1 0.0362,0.0062 20.67695,10.206395 15 0 1 0.0767,0.01389 20.67695,10.206395 15 0 1 0.0475,0.008 20.67695,10.206395 15 0 1 0.068,0.01242 20.67695,10.206395 15 0 1 0.10268,0.01864 20.67695,10.206395 15 0 1 0.11145,0.02083 20.67695,10.206395 15 0 1 0.0497,0.0095 20.67695,10.206395 15 0 1 0.0402,0.0073 20.67695,10.206395 15 0 1 0.0749,0.01425 20.67695,10.206395 15 0 1 0.0954,0.01864 20.67695,10.206395 15 0 1 0.12095,0.02375 20.67695,10.206395 15 0 1 0.006,0.0011 20.67695,10.206395 15 0 1 0.12095,0.02375 20.67695,10.206395 15 0 1 0.12388,0.02521 20.67695,10.206395 15 0 1 2.4263,0.570768 v 7.3e-4 a 20.67695,10.206395 15 0 1 2.01851,0.593423 z" />
      <path
         id="path890"
         style="opacity:1;fill:url(#linearGradient919);fill-opacity:1;stroke:#1a1a1a;stroke-width:0;stroke-linecap:square"
         d="m 152.58153,81.704435 a 29.125903,29.125903 0 0 0 -0.14389,-0.142333 29.125903,29.125903 0 0 0 -0.14479,-0.1414 29.125903,29.125903 0 0 0 -0.003,-0.0028 29.125903,29.125903 0 0 0 -0.15216,-0.145657 29.125903,29.125903 0 0 0 -0.0245,-0.02363 29.125903,29.125903 0 0 0 -0.0764,-0.07213 29.125903,29.125903 0 0 0 -0.13856,-0.130213 29.125903,29.125903 0 0 0 -0.14806,-0.137313 29.125903,29.125903 0 0 0 -4e-4,-4.03e-4 29.125903,29.125903 0 0 0 -0.16755,-0.152679 29.125903,29.125903 0 0 0 -0.0242,-0.0215 29.125903,29.125903 0 0 0 -0.0266,-0.0239 29.125903,29.125903 0 0 0 -0.15055,-0.134824 29.125903,29.125903 0 0 0 -0.18665,-0.164254 29.125903,29.125903 0 0 0 -0.14849,-0.128587 29.125903,29.125903 0 0 0 -0.0526,-0.0461 29.125903,29.125903 0 0 0 -0.022,-0.0186 29.125903,29.125903 0 0 0 -0.15429,-0.131069 29.125903,29.125903 0 0 0 -0.1908,-0.159269 29.125903,29.125903 0 0 0 -0.1655,-0.136464 29.125903,29.125903 0 0 0 -0.0352,-0.02871 29.125903,29.125903 0 0 0 -0.0274,-0.02241 29.125903,29.125903 0 0 0 -0.15761,-0.126926 29.125903,29.125903 0 0 0 -0.58817,-0.458749 29.125903,29.125903 0 0 0 -0.23559,-0.17752 29.125903,29.125903 0 0 0 -0.97556,-0.694348 29.125903,29.125903 0 0 0 -37.00212,3.469668 l -0.007,0.01237 a 29.125903,29.125903 0 0 0 -0.0506,0.0514 29.125903,29.125903 0 0 0 -0.31406,0.319718 29.125903,29.125903 0 0 0 -0.005,0.0049 29.125903,29.125903 0 0 0 -0.11361,0.117846 29.125903,29.125903 0 0 0 -0.15005,0.158541 29.125903,29.125903 0 0 0 -0.0609,0.0652 29.125903,29.125903 0 0 0 -0.0363,0.03917 29.125903,29.125903 0 0 0 -0.11521,0.123695 29.125903,29.125903 0 0 0 -0.2443,0.269195 29.125903,29.125903 0 0 0 -0.11061,0.123334 29.125903,29.125903 0 0 0 -0.0558,0.06286 29.125903,29.125903 0 0 0 -0.0982,0.113335 29.125903,29.125903 0 0 0 -0.0697,0.07961 29.125903,29.125903 0 0 0 -0.0811,0.09388 29.125903,29.125903 0 0 0 -0.13274,0.155932 29.125903,29.125903 0 0 0 -0.0127,0.01556 29.125903,29.125903 0 0 0 -0.1,0.119048 29.125903,29.125903 0 0 0 -0.24807,0.301101 29.125903,29.125903 0 0 0 -0.0743,0.09166 29.125903,29.125903 0 0 0 -0.0697,0.08709 29.125903,29.125903 0 0 0 -0.0954,0.119452 29.125903,29.125903 0 0 0 -0.0496,0.06237 29.125903,29.125903 0 0 0 -0.2513,0.324413 29.125903,29.125903 0 0 0 -0.0759,0.09996 29.125903,29.125903 0 0 0 -0.046,0.06109 29.125903,29.125903 0 0 0 -0.11041,0.146753 29.125903,29.125903 0 0 0 -0.0252,0.03366 29.125903,29.125903 0 0 0 -0.1,0.135616 29.125903,29.125903 0 0 0 -0.2136,0.295761 29.125903,29.125903 0 0 0 -0.2318,0.329809 29.125903,29.125903 0 0 0 -0.066,0.0958 29.125903,29.125903 0 0 0 -0.0623,0.09039 29.125903,29.125903 0 0 0 -0.12026,0.178382 29.125903,29.125903 0 0 0 -0.002,0.0032 29.125903,29.125903 0 0 0 -0.26963,0.409782 29.125903,29.125903 0 0 0 -0.004,0.0071 29.125903,29.125903 0 0 0 -0.11109,0.173453 29.125903,29.125903 0 0 0 -0.0411,0.06512 29.125903,29.125903 0 0 0 -0.0256,0.04073 29.125903,29.125903 0 0 0 -0.0867,0.138982 29.125903,29.125903 0 0 0 -0.1294,0.209876 29.125903,29.125903 0 0 0 -0.003,0.0057 29.125903,29.125903 0 0 0 -0.11119,0.18331 29.125903,29.125903 0 0 0 -0.0194,0.0321 29.125903,29.125903 0 0 0 -0.0975,0.163822 29.125903,29.125903 0 0 0 -0.0547,0.09376 29.125903,29.125903 0 0 0 -0.0144,0.02291 29.125903,29.125903 0 0 0 -0.0821,0.141902 29.125903,29.125903 0 0 0 -0.11455,0.200677 29.125903,29.125903 0 0 0 -0.0282,0.05056 29.125903,29.125903 0 0 0 -0.0436,0.07757 29.125903,29.125903 0 0 0 -0.0722,0.128523 29.125903,29.125903 0 0 0 -0.14553,0.268425 29.125903,29.125903 0 0 0 -0.0767,0.143076 29.125903,29.125903 0 0 0 -9.9e-4,0.0018 29.125903,29.125903 0 0 0 -0.11163,0.21274 29.125903,29.125903 0 0 0 -0.005,0.0095 29.125903,29.125903 0 0 0 -0.083,0.160902 29.125903,29.125903 0 0 0 -0.0395,0.0758 29.125903,29.125903 0 0 0 -0.0569,0.113179 29.125903,29.125903 0 0 0 -0.0572,0.114495 29.125903,29.125903 0 0 0 -0.0125,0.02234 29.125903,29.125903 0 0 0 -0.0858,0.175483 29.125903,29.125903 0 0 0 -0.0888,0.182519 29.125903,29.125903 0 0 0 -0.0262,0.0543 29.125903,29.125903 0 0 0 -0.0165,0.03493 29.125903,29.125903 0 0 0 -0.083,0.177477 29.125903,29.125903 0 0 0 -0.28951,0.638765 29.125903,29.125903 0 0 0 -0.0245,0.05593 29.125903,29.125903 0 0 0 -0.0145,0.03359 29.125903,29.125903 0 0 0 -0.0768,0.17957 29.125903,29.125903 0 0 0 -0.27376,0.665309 29.125903,29.125903 0 0 0 -0.017,0.04264 29.125903,29.125903 0 0 0 -0.0688,0.175893 29.125903,29.125903 0 0 0 -0.0163,0.04186 29.125903,29.125903 0 0 0 -0.17047,0.453355 29.125903,29.125903 0 0 0 -0.007,0.01584 29.125903,29.125903 0 0 0 -0.0149,0.04151 29.125903,29.125903 0 0 0 -0.0664,0.184166 29.125903,29.125903 0 0 0 -0.33432,0.992983 29.125903,29.125903 0 0 0 -0.0584,0.187122 29.125903,29.125903 0 0 0 -0.2107,0.712601 29.125903,29.125903 0 0 0 -7.1e-4,0.0035 29.125903,29.125903 0 0 0 -0.063,0.228961 29.125903,29.125903 0 0 0 -0.004,0.01252 29.125903,29.125903 0 0 0 -0.0132,0.04815 29.125903,29.125903 0 0 0 -0.0502,0.188685 29.125903,29.125903 0 0 0 -0.36584,1.562889 l -0.005,0.0095 a 29.125903,29.125903 0 0 0 2.24189,18.369372 29.125903,29.125903 0 0 0 0.32933,0.66944 29.125903,29.125903 0 0 0 0.017,0.0335 29.125903,29.125903 0 0 0 0.21237,0.40815 29.125903,29.125903 0 0 0 0.22482,0.41561 29.125903,29.125903 0 0 0 0.0168,0.0296 29.125903,29.125903 0 0 0 0.0589,0.1053 29.125903,29.125903 0 0 0 0.0755,0.13437 29.125903,29.125903 0 0 0 2.9e-4,0.001 29.125903,29.125903 0 0 0 0.10446,0.18338 29.125903,29.125903 0 0 0 0.0194,0.0321 29.125903,29.125903 0 0 0 0.10623,0.18246 29.125903,29.125903 0 0 0 0.12698,0.21396 29.125903,29.125903 0 0 0 0.12812,0.21283 29.125903,29.125903 0 0 0 0.0938,0.15261 29.125903,29.125903 0 0 0 0.0364,0.0597 29.125903,29.125903 0 0 0 0.0201,0.0314 29.125903,29.125903 0 0 0 0.0148,0.0233 29.125903,29.125903 0 0 0 0.19952,0.31478 29.125903,29.125903 0 0 0 0.0484,0.0759 29.125903,29.125903 0 0 0 0.004,0.006 29.125903,29.125903 0 0 0 0.11573,0.1771 29.125903,29.125903 0 0 0 0.0547,0.083 29.125903,29.125903 0 0 0 0.10324,0.15557 29.125903,29.125903 0 0 0 0.12323,0.18206 29.125903,29.125903 0 0 0 0.0164,0.0235 29.125903,29.125903 0 0 0 0.11982,0.17384 29.125903,29.125903 0 0 0 0.14227,0.20365 29.125903,29.125903 0 0 0 0.0871,0.12199 29.125903,29.125903 0 0 0 0.0763,0.10618 29.125903,29.125903 0 0 0 0.003,0.004 29.125903,29.125903 0 0 0 0.12447,0.17085 29.125903,29.125903 0 0 0 0.0904,0.12196 29.125903,29.125903 0 0 0 0.20703,0.27661 29.125903,29.125903 0 0 0 0.10286,0.13439 29.125903,29.125903 0 0 0 0.0668,0.0867 29.125903,29.125903 0 0 0 0.0192,0.0248 29.125903,29.125903 0 0 0 0.13886,0.17719 29.125903,29.125903 0 0 0 0.14601,0.18334 29.125903,29.125903 0 0 0 0.0364,0.0449 29.125903,29.125903 0 0 0 0.12943,0.15926 29.125903,29.125903 0 0 0 0.15806,0.19201 29.125903,29.125903 0 0 0 0.0813,0.097 29.125903,29.125903 0 0 0 0.0783,0.0934 29.125903,29.125903 0 0 0 0.0832,0.096 29.125903,29.125903 0 0 0 0.74084,0.83531 29.125903,29.125903 0 0 0 4.0325,3.63016 29.125903,29.125903 0 0 0 5.04415,3.01255 29.125903,29.125903 0 0 0 0.0469,0.022 29.125903,29.125903 0 0 0 13.22941,2.70561 29.125903,29.125903 0 0 0 0.0515,-0.002 29.125903,29.125903 0 0 0 2.92129,-0.2468 29.125903,29.125903 0 0 0 0.0511,-0.007 29.125903,29.125903 0 0 0 16.63351,-8.25994 l 4.2e-4,-4.1e-4 a 29.125903,29.125903 0 0 0 7.9393,-14.75498 29.125903,29.125903 0 0 0 0.0133,-0.068 29.125903,29.125903 0 0 0 0.0291,-0.14432 29.125903,29.125903 0 0 0 0.0378,-0.19366 29.125903,29.125903 0 0 0 0.01,-0.051 29.125903,29.125903 0 0 0 0.002,-0.008 29.125903,29.125903 0 0 0 0.0431,-0.23642 29.125903,29.125903 0 0 0 0.0344,-0.19368 29.125903,29.125903 0 0 0 0.009,-0.051 29.125903,29.125903 0 0 0 0.003,-0.0193 29.125903,29.125903 0 0 0 0.36916,-6.42328 29.125903,29.125903 0 0 0 -0.0108,-0.1966 29.125903,29.125903 0 0 0 -0.0589,-0.79555 29.125903,29.125903 0 0 0 -0.0178,-0.196191 29.125903,29.125903 0 0 0 -0.005,-0.05138 29.125903,29.125903 0 0 0 -3.6e-4,-0.0053 29.125903,29.125903 0 0 0 -4.00885,-12.178363 29.125903,29.125903 0 0 0 -1.61184,-2.409876 29.125903,29.125903 0 0 0 -0.17752,-0.235594 29.125903,29.125903 0 0 0 -0.45874,-0.588158 29.125903,29.125903 0 0 0 -0.14517,-0.180015 29.125903,29.125903 0 0 0 -0.0605,-0.07389 29.125903,29.125903 0 0 0 -0.10868,-0.131897 29.125903,29.125903 0 0 0 -0.15928,-0.190806 29.125903,29.125903 0 0 0 -0.14392,-0.1688 29.125903,29.125903 0 0 0 -0.0174,-0.02079 29.125903,29.125903 0 0 0 -0.0756,-0.08702 29.125903,29.125903 0 0 0 -0.0874,-0.100876 29.125903,29.125903 0 0 0 -0.16426,-0.186662 29.125903,29.125903 0 0 0 -0.15886,-0.177102 29.125903,29.125903 0 0 0 -0.0214,-0.02411 29.125903,29.125903 0 0 0 -0.15267,-0.167549 29.125903,29.125903 0 0 0 -4.1e-4,-4.17e-4 29.125903,29.125903 0 0 0 -0.0526,-0.05685 29.125903,29.125903 0 0 0 -0.0847,-0.09117 29.125903,29.125903 0 0 0 -7.1e-4,-7.07e-4 29.125903,29.125903 0 0 0 -0.1439,-0.153096 29.125903,29.125903 0 0 0 -0.046,-0.04851 29.125903,29.125903 0 0 0 -0.0354,-0.03691 29.125903,29.125903 0 0 0 -0.14566,-0.152162 29.125903,29.125903 0 0 0 -0.003,-0.0028 29.125903,29.125903 0 0 0 -0.14139,-0.144787 29.125903,29.125903 0 0 0 -0.14232,-0.143882 29.125903,29.125903 0 0 0 -0.0983,-0.0983 z" />
      <path
         id="path833"
         style="opacity:1;fill:url(#linearGradient903);fill-opacity:1;stroke:#1a1a1a;stroke-width:0;stroke-linecap:square"
         d="m 167.02167,67.483306 a 49.385989,49.385989 0 0 0 -5.51144,-4.768932 49.385989,49.385989 0 0 0 -36.5298,-9.252123 49.385989,49.385989 0 0 0 -0.90109,0.138124 49.385989,49.385989 0 0 0 -0.89854,0.155299 49.385989,49.385989 0 0 0 -26.065986,13.664054 l -3.61e-4,3.61e-4 a 49.385989,49.385989 0 0 0 -11.837744,19.030422 40.862289,20.170124 15 0 1 4.380137,0.402322 40.862289,20.170124 15 0 1 0.728259,0.09244 40.862289,20.170124 15 0 1 0.729719,0.09976 40.862289,20.170124 15 0 1 0.487457,0.07089 40.862289,20.170124 15 0 1 0.20353,0.03033 40.862289,20.170124 15 0 1 0.04092,0.0058 40.862289,20.170124 15 0 1 0.243728,0.03763 40.862289,20.170124 15 0 1 0.244462,0.03763 40.862289,20.170124 15 0 1 0.1933,0.03106 40.862289,20.170124 15 0 1 0.05117,0.008 40.862289,20.170124 15 0 1 0.175396,0.0285 40.862289,20.170124 15 0 1 0.06868,0.01098 40.862289,20.170124 15 0 1 0.02156,0.004 40.862289,20.170124 15 0 1 0.222902,0.03654 40.862289,20.170124 15 0 1 0.208646,0.03545 40.862289,20.170124 15 0 1 0.03618,0.0062 40.862289,20.170124 15 0 1 0.204628,0.03508 40.862289,20.170124 15 0 1 0.03986,0.0069 40.862289,20.170124 15 0 1 0.01902,0.0029 40.862289,20.170124 15 0 1 0.154908,0.02706 40.862289,20.170124 15 0 1 0.07123,0.01282 40.862289,20.170124 15 0 1 0.151244,0.02708 40.862289,20.170124 15 0 1 0.09392,0.01643 40.862289,20.170124 15 0 1 0.13446,0.02486 40.862289,20.170124 15 0 1 0.202796,0.03691 40.862289,20.170124 15 0 1 0.220343,0.04129 40.862289,20.170124 15 0 1 0.09791,0.01829 40.862289,20.170124 15 0 1 0.0786,0.01496 40.862289,20.170124 15 0 1 0.148746,0.02811 40.862289,20.170124 15 0 1 0.189649,0.0369 40.862289,20.170124 15 0 1 0.238612,0.04641 40.862289,20.170124 15 0 1 0.01299,0.0031 40.862289,20.170124 15 0 1 0.237883,0.04713 40.862289,20.170124 15 0 1 0.245184,0.05006 40.862289,20.170124 15 0 1 4.794151,1.126924 v 0.0014 a 40.862289,20.170124 15 0 1 5.75444,1.763461 40.862289,20.170124 15 0 1 22.45722,13.083784 l 3.6e-4,-3.7e-4 a 40.862289,20.170124 15 0 1 1.37683,1.458 40.862289,20.170124 15 0 1 0.35334,0.40525 40.862289,20.170124 15 0 1 0.34166,0.4067 40.862289,20.170124 15 0 1 4.03848,12.96027 l 7.1e-4,7e-4 a 40.862289,20.170124 15 0 1 -10.14409,9.26564 40.862289,20.170124 15 0 1 -4.47331,1.28112 40.862289,20.170124 15 0 1 -24.280241,-0.3095 40.862289,20.170124 15 0 1 -2.784403,-0.58465 40.862289,20.170124 15 0 1 -0.03804,-0.008 40.862289,20.170124 15 0 1 -0.933614,-0.21961 40.862289,20.170124 15 0 1 -0.0413,-0.01 40.862289,20.170124 15 0 1 -0.907664,-0.2251 40.862289,20.170124 15 0 1 -0.396842,-0.10085 40.862289,20.170124 15 0 1 -0.03507,-0.009 40.862289,20.170124 15 0 1 -0.173184,-0.0461 40.862289,20.170124 15 0 1 -0.139251,-0.0361 40.862289,20.170124 15 0 1 -0.103803,-0.027 40.862289,20.170124 15 0 1 -0.06944,-0.0182 40.862289,20.170124 15 0 1 -0.173559,-0.0464 40.862289,20.170124 15 0 1 -0.13848,-0.0376 40.862289,20.170124 15 0 1 -0.03472,-0.009 40.862289,20.170124 15 0 1 -0.06979,-0.0186 40.862289,20.170124 15 0 1 -0.242268,-0.0661 40.862289,20.170124 15 0 1 -0.05813,-0.0164 49.385989,49.385989 0 0 0 2.673698,3.98696 49.385989,49.385989 0 0 0 2.15773,2.6978 49.385989,49.385989 0 0 0 0.03005,0.0357 49.385989,49.385989 0 0 0 0.767338,0.87114 49.385989,49.385989 0 0 0 0.03444,0.0387 49.385989,49.385989 0 0 0 0.767741,0.82983 49.385989,49.385989 0 0 0 0.341632,0.35775 49.385989,49.385989 0 0 0 0.02998,0.0314 49.385989,49.385989 0 0 0 0.151349,0.15559 49.385989,49.385989 0 0 0 0.121361,0.12419 49.385989,49.385989 0 0 0 0.09137,0.0928 49.385989,49.385989 0 0 0 0.06101,0.0617 49.385989,49.385989 0 0 0 0.15311,0.15383 49.385989,49.385989 0 0 0 0.123143,0.12242 49.385989,49.385989 0 0 0 0.03069,0.0307 49.385989,49.385989 0 0 0 0.06174,0.061 49.385989,49.385989 0 0 0 0.216615,0.21237 49.385989,49.385989 0 0 0 0.543369,0.52216 49.385989,49.385989 0 0 0 4.474794,3.75931 49.385989,49.385989 0 0 0 64.39503,-4.70572 l 0.0126,-0.0239 a 49.385989,49.385989 0 0 0 0.0694,-0.0694 49.385989,49.385989 0 0 0 0.16007,-0.16148 49.385989,49.385989 0 0 0 0.0537,-0.0545 49.385989,49.385989 0 0 0 0.10637,-0.1092 49.385989,49.385989 0 0 0 0.10565,-0.10848 49.385989,49.385989 0 0 0 0.0399,-0.0413 49.385989,49.385989 0 0 0 0.21062,-0.21911 49.385989,49.385989 0 0 0 0.40965,-0.43298 49.385989,49.385989 0 0 0 0.17563,-0.18977 49.385989,49.385989 0 0 0 0.17757,-0.19369 49.385989,49.385989 0 0 0 0.0278,-0.0306 49.385989,49.385989 0 0 0 0.0911,-0.10106 49.385989,49.385989 0 0 0 0.11274,-0.12404 49.385989,49.385989 0 0 0 0.0461,-0.0518 49.385989,49.385989 0 0 0 0.19442,-0.21776 49.385989,49.385989 0 0 0 0.20099,-0.22799 49.385989,49.385989 0 0 0 0.16263,-0.18597 49.385989,49.385989 0 0 0 0.19843,-0.22983 49.385989,49.385989 0 0 0 0.0983,-0.11511 49.385989,49.385989 0 0 0 0.1359,-0.16008 49.385989,49.385989 0 0 0 0.15894,-0.18893 49.385989,49.385989 0 0 0 0.19404,-0.23349 49.385989,49.385989 0 0 0 0.10379,-0.12642 49.385989,49.385989 0 0 0 0.12536,-0.15308 49.385989,49.385989 0 0 0 0.15568,-0.19146 49.385989,49.385989 0 0 0 0.0818,-0.10233 49.385989,49.385989 0 0 0 0.14327,-0.17976 49.385989,49.385989 0 0 0 0.18857,-0.23821 49.385989,49.385989 0 0 0 0.152,-0.19442 49.385989,49.385989 0 0 0 0.0555,-0.0724 49.385989,49.385989 0 0 0 0.16482,-0.21375 49.385989,49.385989 0 0 0 0.14944,-0.19696 49.385989,49.385989 0 0 0 0.0994,-0.13231 49.385989,49.385989 0 0 0 0.0833,-0.11034 49.385989,49.385989 0 0 0 0.0534,-0.0716 49.385989,49.385989 0 0 0 0.16151,-0.21851 49.385989,49.385989 0 0 0 0.17907,-0.24554 49.385989,49.385989 0 0 0 0.14468,-0.20026 49.385989,49.385989 0 0 0 0.0738,-0.10307 49.385989,49.385989 0 0 0 0.10265,-0.14436 49.385989,49.385989 0 0 0 0.0326,-0.0471 49.385989,49.385989 0 0 0 0.5196,-0.74909 49.385989,49.385989 0 0 0 0.17027,-0.25214 49.385989,49.385989 0 0 0 0.137,-0.20503 49.385989,49.385989 0 0 0 0.072,-0.10928 49.385989,49.385989 0 0 0 0.1268,-0.19257 49.385989,49.385989 0 0 0 0.16514,-0.25508 49.385989,49.385989 0 0 0 0.48672,-0.77101 49.385989,49.385989 0 0 0 0.12976,-0.21008 49.385989,49.385989 0 0 0 0.0395,-0.0651 49.385989,49.385989 0 0 0 0.11836,-0.19444 49.385989,49.385989 0 0 0 0.0358,-0.0592 49.385989,49.385989 0 0 0 0.14947,-0.25101 49.385989,49.385989 0 0 0 0.1257,-0.21267 49.385989,49.385989 0 0 0 0.0285,-0.049 49.385989,49.385989 0 0 0 0.12427,-0.21337 49.385989,49.385989 0 0 0 0.0285,-0.0497 49.385989,49.385989 0 0 0 0.15126,-0.26383 49.385989,49.385989 0 0 0 0.29708,-0.53021 49.385989,49.385989 0 0 0 0.14614,-0.26677 49.385989,49.385989 0 0 0 0.118,-0.21672 49.385989,49.385989 0 0 0 0.3106,-0.5883 49.385989,49.385989 0 0 0 0.13957,-0.26968 49.385989,49.385989 0 0 0 0.26236,-0.51815 49.385989,49.385989 0 0 0 0.0281,-0.0574 49.385989,49.385989 0 0 0 0.0271,-0.0541 49.385989,49.385989 0 0 0 0.1027,-0.20862 49.385989,49.385989 0 0 0 0.2525,-0.52437 49.385989,49.385989 0 0 0 0.12972,-0.27514 49.385989,49.385989 0 0 0 0.3782,-0.82984 49.385989,49.385989 0 0 0 0.36284,-0.83643 49.385989,49.385989 0 0 0 0.11766,-0.28063 49.385989,49.385989 0 0 0 0.47723,-1.19196 40.862289,20.170124 15 0 1 -10.76601,-1.28879 40.862289,20.170124 15 0 1 -2.7844,-0.58538 40.862289,20.170124 15 0 1 -0.0377,-0.008 40.862289,20.170124 15 0 1 -0.93398,-0.21924 40.862289,20.170124 15 0 1 -0.0409,-0.0103 40.862289,20.170124 15 0 1 -0.9073,-0.22399 40.862289,20.170124 15 0 1 -0.39684,-0.10159 40.862289,20.170124 15 0 1 -0.0351,-0.009 40.862289,20.170124 15 0 1 -0.17356,-0.0457 40.862289,20.170124 15 0 1 -0.13849,-0.0362 40.862289,20.170124 15 0 1 -0.10485,-0.0274 40.862289,20.170124 15 0 1 -0.0694,-0.0183 40.862289,20.170124 15 0 1 -0.17319,-0.0468 40.862289,20.170124 15 0 1 -0.13886,-0.0373 40.862289,20.170124 15 0 1 -0.0343,-0.01 40.862289,20.170124 15 0 1 -0.0694,-0.0183 40.862289,20.170124 15 0 1 -0.24226,-0.0661 40.862289,20.170124 15 0 1 -0.6011,-0.167 40.862289,20.170124 15 0 1 -4.59975,-1.44628 40.862289,20.170124 15 0 1 -28.5672,-28.314336 l 0.009,-0.0084 a 40.862289,20.170124 15 0 1 0.0106,-0.03913 40.862289,20.170124 15 0 1 0.0248,-0.08918 40.862289,20.170124 15 0 1 0.008,-0.03033 40.862289,20.170124 15 0 1 0.0179,-0.0596 40.862289,20.170124 15 0 1 0.0175,-0.05923 40.862289,20.170124 15 0 1 0.007,-0.02268 40.862289,20.170124 15 0 1 0.0365,-0.118407 40.862289,20.170124 15 0 1 0.076,-0.231675 40.862289,20.170124 15 0 1 0.0354,-0.09977 40.862289,20.170124 15 0 1 0.0372,-0.100882 40.862289,20.170124 15 0 1 0.005,-0.01626 40.862289,20.170124 15 0 1 0.0208,-0.05224 40.862289,20.170124 15 0 1 0.0238,-0.06465 40.862289,20.170124 15 0 1 0.0102,-0.02633 40.862289,20.170124 15 0 1 0.0438,-0.111124 40.862289,20.170124 15 0 1 0.0478,-0.115863 40.862289,20.170124 15 0 1 0.0388,-0.09351 40.862289,20.170124 15 0 1 0.0504,-0.114754 40.862289,20.170124 15 0 1 0.0249,-0.05698 40.862289,20.170124 15 0 1 0.0358,-0.07893 40.862289,20.170124 15 0 1 0.0428,-0.09242 40.862289,20.170124 15 0 1 0.0548,-0.113248 40.862289,20.170124 15 0 1 0.03,-0.06138 40.862289,20.170124 15 0 1 0.0366,-0.07305 40.862289,20.170124 15 0 1 0.0457,-0.09096 40.862289,20.170124 15 0 1 0.0256,-0.04894 40.862289,20.170124 15 0 1 0.0446,-0.08404 40.862289,20.170124 15 0 1 0.0603,-0.111469 40.862289,20.170124 15 0 1 0.0497,-0.09059 40.862289,20.170124 15 0 1 0.0199,-0.03268 40.862289,20.170124 15 0 1 0.0555,-0.09795 40.862289,20.170124 15 0 1 0.053,-0.0895 40.862289,20.170124 15 0 1 0.0354,-0.0596 40.862289,20.170124 15 0 1 0.0299,-0.05045 40.862289,20.170124 15 0 1 0.0196,-0.03231 40.862289,20.170124 15 0 1 0.0607,-0.09717 40.862289,20.170124 15 0 1 0.0694,-0.108169 40.862289,20.170124 15 0 1 0.0567,-0.08805 40.862289,20.170124 15 0 1 0.03,-0.04456 40.862289,20.170124 15 0 1 0.042,-0.06322 40.862289,20.170124 15 0 1 0.0143,-0.02 40.862289,20.170124 15 0 1 0.22398,-0.319015 40.862289,20.170124 15 0 1 0.0782,-0.105224 40.862289,20.170124 15 0 1 0.0636,-0.0855 40.862289,20.170124 15 0 1 0.0349,-0.04478 40.862289,20.170124 15 0 1 0.061,-0.07928 40.862289,20.170124 15 0 1 0.0822,-0.103421 40.862289,20.170124 15 0 1 0.25434,-0.307656 40.862289,20.170124 15 0 1 0.0707,-0.08346 40.862289,20.170124 15 0 1 0.022,-0.0248 40.862289,20.170124 15 0 1 0.0663,-0.0762 40.862289,20.170124 15 0 1 0.0201,-0.02297 40.862289,20.170124 15 0 1 0.0868,-0.09667 40.862289,20.170124 15 0 1 0.0736,-0.08207 40.862289,20.170124 15 0 1 0.0175,-0.01827 40.862289,20.170124 15 0 1 0.0761,-0.08032 40.862289,20.170124 15 0 1 0.0179,-0.01864 40.862289,20.170124 15 0 1 0.094,-0.09966 40.862289,20.170124 15 0 1 0.19298,-0.195811 40.862289,20.170124 15 0 1 0.0993,-0.09652 40.862289,20.170124 15 0 1 0.0814,-0.07861 40.862289,20.170124 15 0 1 0.22401,-0.207896 40.862289,20.170124 15 0 1 0.10364,-0.09515 40.862289,20.170124 15 0 1 0.20313,-0.179088 40.862289,20.170124 15 0 1 0.0226,-0.01978 40.862289,20.170124 15 0 1 0.0222,-0.01798 40.862289,20.170124 15 0 1 0.0824,-0.07108 40.862289,20.170124 15 0 1 0.21191,-0.175422 40.862289,20.170124 15 0 1 0.11291,-0.09099 40.862289,20.170124 15 0 1 0.34497,-0.268182 40.862289,20.170124 15 0 1 0.35776,-0.263431 40.862289,20.170124 15 0 1 0.12167,-0.08589 40.862289,20.170124 15 0 1 0.62741,-0.42204 40.862289,20.170124 15 0 1 0.39281,-0.245193 40.862289,20.170124 15 0 1 0.67929,-0.395006 40.862289,20.170124 15 0 1 0.13956,-0.07676 40.862289,20.170124 15 0 1 0.57039,-0.300736 40.862289,20.170124 15 0 1 0.14583,-0.07342 40.862289,20.170124 15 0 1 0.14761,-0.07237 40.862289,20.170124 15 0 1 0.1476,-0.07237 40.862289,20.170124 15 0 1 0.14946,-0.07125 40.862289,20.170124 15 0 1 0.45493,-0.20938 40.862289,20.170124 15 0 1 0.62302,-0.26931 40.862289,20.170124 15 0 1 0.15934,-0.06502 40.862289,20.170124 15 0 1 0.15971,-0.06538 40.862289,20.170124 15 0 1 0.0214,-0.0086 l 0.006,-0.0062 a 40.862289,20.170124 15 0 1 24.2247,-2.079529 40.862289,20.170124 15 0 1 0.72825,0.09244 40.862289,20.170124 15 0 1 0.72972,0.09976 40.862289,20.170124 15 0 1 0.48709,0.07052 40.862289,20.170124 15 0 1 0.20317,0.02997 40.862289,20.170124 15 0 1 0.0409,0.0066 40.862289,20.170124 15 0 1 0.24409,0.03727 40.862289,20.170124 15 0 1 0.24483,0.038 40.862289,20.170124 15 0 1 0.19293,0.03069 40.862289,20.170124 15 0 1 0.0515,0.0084 40.862289,20.170124 15 0 1 0.17503,0.02887 40.862289,20.170124 15 0 1 0.0687,0.01095 40.862289,20.170124 15 0 1 0.0219,0.0037 40.862289,20.170124 15 0 1 0.2229,0.03654 40.862289,20.170124 15 0 1 0.20865,0.03545 40.862289,20.170124 15 0 1 0.0362,0.0062 40.862289,20.170124 15 0 1 0.20463,0.03508 40.862289,20.170124 15 0 1 0.0399,0.007 40.862289,20.170124 15 0 1 0.0179,0.0026 40.862289,20.170124 15 0 1 0.15567,0.02777 40.862289,20.170124 15 0 1 0.0716,0.0124 40.862289,20.170124 15 0 1 0.15128,0.02704 40.862289,20.170124 15 0 1 0.0932,0.01643 40.862289,20.170124 15 0 1 0.13483,0.02448 40.862289,20.170124 15 0 1 0.20281,0.03691 40.862289,20.170124 15 0 1 0.22034,0.04129 40.862289,20.170124 15 0 1 0.0979,0.01829 40.862289,20.170124 15 0 1 0.0793,0.01501 40.862289,20.170124 15 0 1 0.14835,0.0285 40.862289,20.170124 15 0 1 0.18855,0.03654 40.862289,20.170124 15 0 1 0.23972,0.04678 40.862289,20.170124 15 0 1 0.0124,0.0022 40.862289,20.170124 15 0 1 0.23897,0.0475 40.862289,20.170124 15 0 1 0.24483,0.0497 40.862289,20.170124 15 0 1 4.79415,1.127647 l 3.4e-4,0.0011 a 40.862289,20.170124 15 0 1 3.98879,1.172961 49.385989,49.385989 0 0 0 -0.69427,-1.295735 49.385989,49.385989 0 0 0 -0.44982,-0.793303 49.385989,49.385989 0 0 0 -0.46444,-0.784528 49.385989,49.385989 0 0 0 -0.31754,-0.518515 49.385989,49.385989 0 0 0 -0.13409,-0.214493 49.385989,49.385989 0 0 0 -0.027,-0.04311 49.385989,49.385989 0 0 0 -0.16296,-0.256517 49.385989,49.385989 0 0 0 -0.16444,-0.255789 49.385989,49.385989 0 0 0 -0.13118,-0.202077 49.385989,49.385989 0 0 0 -0.0347,-0.05298 49.385989,49.385989 0 0 0 -0.12022,-0.182335 49.385989,49.385989 0 0 0 -0.0471,-0.07124 49.385989,49.385989 0 0 0 -0.015,-0.02234 49.385989,49.385989 0 0 0 -0.15421,-0.230206 49.385989,49.385989 0 0 0 -0.14543,-0.214133 49.385989,49.385989 0 0 0 -0.0252,-0.03762 49.385989,49.385989 0 0 0 -0.14397,-0.209742 49.385989,49.385989 0 0 0 -0.0281,-0.04059 49.385989,49.385989 0 0 0 -0.0128,-0.0186 49.385989,49.385989 0 0 0 -0.11035,-0.15859 49.385989,49.385989 0 0 0 -0.0504,-0.07234 49.385989,49.385989 0 0 0 -0.10853,-0.153838 49.385989,49.385989 0 0 0 -0.0669,-0.09465 49.385989,49.385989 0 0 0 -0.0972,-0.135927 49.385989,49.385989 0 0 0 -0.1469,-0.20463 49.385989,49.385989 0 0 0 -0.16078,-0.221438 49.385989,49.385989 0 0 0 -0.072,-0.09757 49.385989,49.385989 0 0 0 -0.0577,-0.07891 49.385989,49.385989 0 0 0 -0.10999,-0.147991 49.385989,49.385989 0 0 0 -0.14068,-0.188182 49.385989,49.385989 0 0 0 -0.17868,-0.236421 49.385989,49.385989 0 0 0 -0.009,-0.01244 49.385989,49.385989 0 0 0 -0.17977,-0.23459 49.385989,49.385989 0 0 0 -0.18637,-0.240444 49.385989,49.385989 0 0 0 -3.9442,-4.468927 z" />
    </g>
  </g>
</svg>
