<?xml version="1.0" encoding="UTF-8" standalone="no"?>
<svg
   xmlns:dc="http://purl.org/dc/elements/1.1/"
   xmlns:cc="http://creativecommons.org/ns#"
   xmlns:rdf="http://www.w3.org/1999/02/22-rdf-syntax-ns#"
   xmlns:svg="http://www.w3.org/2000/svg"
   xmlns="http://www.w3.org/2000/svg"
   xmlns:xlink="http://www.w3.org/1999/xlink"
   xmlns:sodipodi="http://sodipodi.sourceforge.net/DTD/sodipodi-0.dtd"
   xmlns:inkscape="http://www.inkscape.org/namespaces/inkscape"
   width="793.70081"
   height="1122.5197"
   viewBox="0 0 210 297"
   version="1.1"
   id="svg8"
   inkscape:version="1.0 (262b4497e3, 2020-09-04)"
   sodipodi:docname="Star-Of-Lines.svg">
  <defs
     id="defs2">
    <linearGradient
       inkscape:collect="always"
       id="linearGradient931">
      <stop
         style="stop-color:#c38900;stop-opacity:1"
         offset="0"
         id="stop927" />
      <stop
         style="stop-color:#f5bc00;stop-opacity:1"
         offset="1"
         id="stop929" />
    </linearGradient>
    <inkscape:path-effect
       effect="curvestitching"
       id="path-effect913"
       is_visible="true"
       lpeversion="1"
       count="75"
       startpoint_edge_variation="0;1"
       startpoint_spacing_variation="0;1"
       endpoint_edge_variation="0;1"
       endpoint_spacing_variation="0;1"
       strokepath="M0,0 L1,0"
       prop_scale="1"
       scale_y_rel="false" />
    <inkscape:path-effect
       effect="curvestitching"
       id="path-effect909"
       is_visible="true"
       lpeversion="1"
       count="75"
       startpoint_edge_variation="0;1"
       startpoint_spacing_variation="0;1"
       endpoint_edge_variation="0;1"
       endpoint_spacing_variation="0;1"
       strokepath="M 0,0 38.424297,209.74209"
       prop_scale="1"
       scale_y_rel="false"
       strokepath-nodetypes="cc" />
    <inkscape:path-effect
       effect="curvestitching"
       id="path-effect898"
       is_visible="true"
       lpeversion="1"
       count="75"
       startpoint_edge_variation="0;1"
       startpoint_spacing_variation="0;1"
       endpoint_edge_variation="0;1"
       endpoint_spacing_variation="0;1"
       strokepath="m 42.048283,142.84556 c 397.094597,112.99283 260.900357,35.56976 123.270587,0"
       prop_scale="1"
       scale_y_rel="false"
       strokepath-nodetypes="cc" />
    <inkscape:path-effect
       effect="curvestitching"
       id="path-effect876"
       is_visible="true"
       lpeversion="1"
       count="75"
       startpoint_edge_variation="0;1"
       startpoint_spacing_variation="0;1"
       endpoint_edge_variation="0;1"
       endpoint_spacing_variation="0;1"
       strokepath="#path886"
       prop_scale="1"
       scale_y_rel="false" />
    <linearGradient
       inkscape:collect="always"
       xlink:href="#linearGradient931"
       id="linearGradient933"
       x1="157.72282"
       y1="170.57849"
       x2="248.36426"
       y2="76.846169"
       gradientUnits="userSpaceOnUse"
       gradientTransform="translate(93.392475,10.450864)" />
  </defs>
  <sodipodi:namedview
     id="base"
     pagecolor="#ffffff"
     bordercolor="#666666"
     borderopacity="1.0"
     inkscape:pageopacity="0.0"
     inkscape:pageshadow="2"
     inkscape:zoom="1"
     inkscape:cx="700.55703"
     inkscape:cy="560"
     inkscape:document-units="px"
     inkscape:current-layer="layer1"
     inkscape:document-rotation="0"
     showgrid="false"
     showborder="true"
     units="px"
     inkscape:object-nodes="false"
     inkscape:window-width="1846"
     inkscape:window-height="1016"
     inkscape:window-x="74"
     inkscape:window-y="27"
     inkscape:window-maximized="1" />
  <metadata
     id="metadata5">
    <rdf:RDF>
      <cc:Work
         rdf:about="">
        <dc:format>image/svg+xml</dc:format>
        <dc:type
           rdf:resource="http://purl.org/dc/dcmitype/StillImage" />
        <dc:title></dc:title>
      </cc:Work>
    </rdf:RDF>
  </metadata>
  <g
     inkscape:label="Layer 1"
     inkscape:groupmode="layer"
     id="layer1">
    <path
       style="color:#000000;font-style:normal;font-variant:normal;font-weight:normal;font-stretch:normal;font-size:medium;line-height:normal;font-family:sans-serif;font-variant-ligatures:normal;font-variant-position:normal;font-variant-caps:normal;font-variant-numeric:normal;font-variant-alternates:normal;font-variant-east-asian:normal;font-feature-settings:normal;font-variation-settings:normal;text-indent:0;text-align:start;text-decoration:none;text-decoration-line:none;text-decoration-style:solid;text-decoration-color:#000000;letter-spacing:normal;word-spacing:normal;text-transform:none;writing-mode:lr-tb;direction:ltr;text-orientation:mixed;dominant-baseline:auto;baseline-shift:baseline;text-anchor:start;white-space:normal;shape-padding:0;shape-margin:0;inline-size:0;clip-rule:nonzero;display:inline;overflow:visible;visibility:visible;opacity:1;isolation:auto;mix-blend-mode:normal;color-interpolation:sRGB;color-interpolation-filters:linearRGB;solid-color:#000000;solid-opacity:1;vector-effect:none;fill:url(#linearGradient933);fill-opacity:1;fill-rule:evenodd;stroke:none;stroke-width:0.529168;stroke-linecap:round;stroke-linejoin:round;stroke-miterlimit:4;stroke-dasharray:none;stroke-dashoffset:0;stroke-opacity:1;color-rendering:auto;image-rendering:auto;shape-rendering:auto;text-rendering:auto;enable-background:accumulate;stop-color:#000000;stop-opacity:1"
       d="m 287.73622,87.403989 a 0.264584,0.264584 0 0 0 -0.25781,0.271484 l 0.94531,37.626947 -2.27344,-33.267572 a 0.264584,0.264584 0 0 0 -0.2832,-0.246093 0.264584,0.264584 0 0 0 -0.24609,0.283203 l 2.41601,35.353512 -3.74609,-31.017575 a 0.264584,0.264584 0 0 0 -0.29492,-0.230469 0.264584,0.264584 0 0 0 -0.23047,0.292969 l 3.96679,32.851555 -5.30273,-28.54491 a 0.264584,0.264584 0 0 0 -0.30859,-0.2129 0.264584,0.264584 0 0 0 -0.21094,0.3086 l 5.5957,30.12304 -6.9375,-25.85351 a 0.264584,0.264584 0 0 0 -0.32422,-0.1875 0.264584,0.264584 0 0 0 -0.1875,0.32422 l 7.14258,26.61523 a 0.264584,0.264584 0 0 0 0.32422,0.1875 0.264584,0.264584 0 0 0 0.1875,-0.32422 l -0.1543,-0.57617 a 0.264584,0.264584 0 0 0 0.27735,0.12891 0.264584,0.264584 0 0 0 0.21093,-0.3086 l -0.0977,-0.52539 a 0.264584,0.264584 0 0 0 0.19922,0.0586 0.264584,0.264584 0 0 0 0.23047,-0.29492 l -0.0625,-0.51367 a 0.264584,0.264584 0 0 0 0.14843,0.0332 0.264584,0.264584 0 0 0 0.2461,-0.2832 l -0.0352,-0.51562 a 0.264584,0.264584 0 0 0 0.10742,0.0215 0.264584,0.264584 0 0 0 0.0879,-0.0176 0.264584,0.264584 0 0 0 0.24024,0.16406 0.264584,0.264584 0 0 0 0.11328,-0.0234 l -0.0293,0.51562 a 0.264584,0.264584 0 0 0 0.25,0.2793 0.264584,0.264584 0 0 0 0.15625,-0.041 l -0.0586,0.51758 a 0.264584,0.264584 0 0 0 0.23242,0.29297 0.264584,0.264584 0 0 0 0.21094,-0.0723 l -0.0957,0.53125 a 0.264584,0.264584 0 0 0 0.21289,0.3086 0.264584,0.264584 0 0 0 0.30664,-0.21485 l 5.33985,-29.60741 a 0.264584,0.264584 0 0 0 -0.21485,-0.3086 0.264584,0.264584 0 0 0 -0.30664,0.21485 l -5.07226,28.13476 3.65039,-32.406248 a 0.264584,0.264584 0 0 0 -0.23242,-0.292969 0.264584,0.264584 0 0 0 -0.29297,0.232422 l -3.44922,30.628905 2.03125,-34.931639 a 0.264584,0.264584 0 0 0 -0.24805,-0.279297 0.264584,0.264584 0 0 0 -0.27929,0.25 l -1.91602,32.892576 0.5,-37.222654 a 0.264584,0.264584 0 0 0 -0.26172,-0.267578 0.264584,0.264584 0 0 0 -0.26758,0.261718 l -0.47265,35.318354 -0.90821,-36.177728 a 0.264584,0.264584 0 0 0 -0.27148,-0.257813 z m 9.67773,18.248051 a 0.264584,0.264584 0 0 0 -0.23828,0.19531 l -6.9375,26.03124 a 0.264584,0.264584 0 0 0 0.1875,0.32422 0.264584,0.264584 0 0 0 0.32422,-0.1875 l 6.9375,-26.03124 a 0.264584,0.264584 0 0 0 -0.1875,-0.32422 0.264584,0.264584 0 0 0 -0.0859,-0.008 z m -18.98632,3.67968 a 0.264584,0.264584 0 0 0 -0.0664,0.0156 0.264584,0.264584 0 0 0 -0.1543,0.3418 l 8.66993,23.00781 a 0.264584,0.264584 0 0 0 0.34179,0.1543 0.264584,0.264584 0 0 0 0.1543,-0.3418 l -8.67188,-23.00781 a 0.264584,0.264584 0 0 0 -0.27343,-0.16992 z m 20.95703,0.66797 a 0.264584,0.264584 0 0 0 -0.25586,0.16992 l -8.53711,22.45313 a 0.264584,0.264584 0 0 0 0.15234,0.34179 0.264584,0.264584 0 0 0 0.3418,-0.15234 l 8.53711,-22.45508 a 0.264584,0.264584 0 0 0 -0.15235,-0.3418 0.264584,0.264584 0 0 0 -0.0859,-0.0156 z m -22.80274,3.71679 a 0.264584,0.264584 0 0 0 -0.10937,0.0313 0.264584,0.264584 0 0 0 -0.11133,0.35742 l 10.19922,19.39843 a 0.264584,0.264584 0 0 0 0.35742,0.11133 0.264584,0.264584 0 0 0 0.11133,-0.35742 L 276.82997,113.8591 a 0.264584,0.264584 0 0 0 -0.24805,-0.14258 z m 24.73828,0.63086 a 0.264584,0.264584 0 0 0 -0.23242,0.13868 l -10.13672,18.87695 a 0.264584,0.264584 0 0 0 0.10743,0.35742 0.264584,0.264584 0 0 0 0.35937,-0.10742 l 10.13477,-18.87695 a 0.264584,0.264584 0 0 0 -0.10743,-0.35743 0.264584,0.264584 0 0 0 -0.125,-0.0312 z m 2.50391,3.56055 a 0.264584,0.264584 0 0 0 -0.20898,0.10352 l -12.19727,15.94531 a 0.264584,0.264584 0 0 0 0.0508,0.37109 0.264584,0.264584 0 0 0 0.3711,-0.0488 l 12.19531,-15.94726 a 0.264584,0.264584 0 0 0 -0.0488,-0.36914 0.264584,0.264584 0 0 0 -0.16211,-0.0547 z m -29.09766,0.19531 a 0.264584,0.264584 0 0 0 -0.14648,0.0508 0.264584,0.264584 0 0 0 -0.0547,0.3711 l 11.72461,15.78516 a 0.264584,0.264584 0 0 0 0.3711,0.0547 0.264584,0.264584 0 0 0 0.0547,-0.36914 l -11.72461,-15.78711 a 0.264584,0.264584 0 0 0 -0.22461,-0.10547 z m 33.83985,0.2168 a 0.264584,0.264584 0 0 0 -0.17969,0.0742 l -16.10156,15.60742 a 0.264584,0.264584 0 0 0 -0.006,0.37305 0.264584,0.264584 0 0 0 0.375,0.006 l 16.09961,-15.60742 a 0.264584,0.264584 0 0 0 0.006,-0.37305 0.264584,0.264584 0 0 0 -0.19336,-0.0801 z m -38.57227,0.29102 a 0.264584,0.264584 0 0 0 -0.17968,0.0781 0.264584,0.264584 0 0 0 0.004,0.375 l 15.61914,15.36719 a 0.264584,0.264584 0 0 0 0.375,-0.002 0.264584,0.264584 0 0 0 -0.004,-0.375 l -15.61914,-15.36914 a 0.264584,0.264584 0 0 0 -0.19532,-0.0742 z m 43.30469,0.12109 a 0.264584,0.264584 0 0 0 -0.14453,0.0527 l -20.00391,15.26954 a 0.264584,0.264584 0 0 0 -0.0488,0.36914 0.264584,0.264584 0 0 0 0.3711,0.0508 l 20.00195,-15.26758 a 0.264584,0.264584 0 0 0 0.0508,-0.37109 0.264584,0.264584 0 0 0 -0.22656,-0.10352 z m -48.03125,0.38477 a 0.264584,0.264584 0 0 0 -0.20898,0.10351 0.264584,0.264584 0 0 0 0.0488,0.37109 l 19.51563,14.95118 a 0.264584,0.264584 0 0 0 0.37109,-0.0488 0.264584,0.264584 0 0 0 -0.0488,-0.37109 l -19.51562,-14.95313 a 0.264584,0.264584 0 0 0 -0.16211,-0.0527 z m 52.80078,0.0254 a 0.264584,0.264584 0 0 0 -0.14844,0.041 l -23.9082,14.92969 a 0.264584,0.264584 0 0 0 -0.084,0.36328 0.264584,0.264584 0 0 0 0.36523,0.084 l 0.48633,-0.30274 a 0.264584,0.264584 0 0 0 -0.0195,0.27539 0.264584,0.264584 0 0 0 0.35742,0.11133 l 0.4668,-0.24414 a 0.264584,0.264584 0 0 0 0.01,0.1914 0.264584,0.264584 0 0 0 0.34961,0.13282 l 0.47266,-0.21289 a 0.264584,0.264584 0 0 0 0.0137,0.14062 0.264584,0.264584 0 0 0 0.3418,0.15039 l 0.48242,-0.1875 a 0.264584,0.264584 0 0 0 0.0117,0.0996 0.264584,0.264584 0 0 0 0.0351,0.0684 l -0.1875,0.0566 a 0.264584,0.264584 0 0 0 -0.17578,0.33008 0.264584,0.264584 0 0 0 0.0625,0.10742 l -0.50195,0.125 a 0.264584,0.264584 0 0 0 -0.19141,0.32031 0.264584,0.264584 0 0 0 0.0937,0.14454 l -0.51367,0.0977 a 0.264584,0.264584 0 0 0 -0.21094,0.3086 0.264584,0.264584 0 0 0 0.14649,0.1875 l -0.54492,0.0664 a 0.264584,0.264584 0 0 0 -0.23047,0.29492 0.264584,0.264584 0 0 0 0.29492,0.23047 l 29.24805,-3.51758 a 0.264584,0.264584 0 0 0 0.23046,-0.29492 0.264584,0.264584 0 0 0 -0.29296,-0.23047 l -27.94336,3.36133 31.55859,-6.03125 a 0.264584,0.264584 0 0 0 0.20898,-0.31055 0.264584,0.264584 0 0 0 -0.30859,-0.20898 l -29.84961,5.70313 33.4961,-8.38086 a 0.264584,0.264584 0 0 0 0.19335,-0.32032 0.264584,0.264584 0 0 0 -0.32031,-0.19336 l -31.55078,7.89454 35.22461,-10.57618 a 0.264584,0.264584 0 0 0 0.17773,-0.33007 0.264584,0.264584 0 0 0 -0.33007,-0.17774 l -33.16407,9.95703 35.20704,-12.08984 a 0.264584,0.264584 0 0 0 0.16406,-0.33789 0.264584,0.264584 0 0 0 -0.33594,-0.16406 l -36.00195,12.36523 31.4375,-12.2793 a 0.264584,0.264584 0 0 0 0.15039,-0.34375 0.264584,0.264584 0 0 0 -0.3418,-0.15039 l -33.41016,13.04883 28.86914,-12.97266 a 0.264584,0.264584 0 0 0 0.13282,-0.3496 0.264584,0.264584 0 0 0 -0.34961,-0.13282 l -30.61719,13.75782 26.10352,-13.69336 a 0.264584,0.264584 0 0 0 0.11132,-0.35743 0.264584,0.264584 0 0 0 -0.35742,-0.11132 l -27.57226,14.46484 23.08984,-14.41797 a 0.264584,0.264584 0 0 0 0.0859,-0.36523 0.264584,0.264584 0 0 0 -0.2168,-0.125 z m -57.5625,0.48047 a 0.264584,0.264584 0 0 0 -0.19922,0.125 0.264584,0.264584 0 0 0 0.0859,0.36328 l 22.73633,14.11523 -27.21094,-14.06836 a 0.264584,0.264584 0 0 0 -0.35742,0.11328 0.264584,0.264584 0 0 0 0.11328,0.35742 l 25.78906,13.33204 -30.29687,-13.30469 a 0.264584,0.264584 0 0 0 -0.34766,0.13672 0.264584,0.264584 0 0 0 0.13477,0.34765 l 28.58984,12.55469 -33.125,-12.53711 a 0.264584,0.264584 0 0 0 -0.3418,0.15235 0.264584,0.264584 0 0 0 0.1543,0.34179 l 31.20117,11.8086 -35.75976,-11.80079 a 0.264584,0.264584 0 0 0 -0.33399,0.16797 0.264584,0.264584 0 0 0 0.16797,0.33399 l 34.3711,11.34179 -33.95313,-9.77148 a 0.264584,0.264584 0 0 0 -0.32617,0.18164 0.264584,0.264584 0 0 0 0.17969,0.32617 l 35.80859,10.30664 -32.07617,-7.69531 a 0.264584,0.264584 0 0 0 -0.31836,0.19531 0.264584,0.264584 0 0 0 0.19531,0.32032 l 34.02148,8.16015 -30.3164,-5.55664 a 0.264584,0.264584 0 0 0 -0.30664,0.21289 0.264584,0.264584 0 0 0 0.21094,0.3086 l 32.08203,5.8789 -28.40625,-3.2793 a 0.264584,0.264584 0 0 0 -0.29297,0.23243 0.264584,0.264584 0 0 0 0.23242,0.29297 l 29.90625,3.45312 a 0.264584,0.264584 0 0 0 0.29297,-0.23242 0.264584,0.264584 0 0 0 -0.23242,-0.29297 l -0.53516,-0.0625 a 0.264584,0.264584 0 0 0 0.12695,-0.17969 0.264584,0.264584 0 0 0 -0.21093,-0.30859 l -0.51172,-0.0937 a 0.264584,0.264584 0 0 0 0.082,-0.13672 0.264584,0.264584 0 0 0 -0.19531,-0.31836 l -0.50196,-0.12109 a 0.264584,0.264584 0 0 0 0.0566,-0.10157 0.264584,0.264584 0 0 0 -0.0918,-0.2832 0.264584,0.264584 0 0 0 0.041,-0.0762 0.264584,0.264584 0 0 0 0.0117,-0.10938 l 0.48242,0.1836 a 0.264584,0.264584 0 0 0 0.3418,-0.15235 0.264584,0.264584 0 0 0 0.01,-0.15039 l 0.4746,0.20899 a 0.264584,0.264584 0 0 0 0.34961,-0.13672 0.264584,0.264584 0 0 0 0.002,-0.20508 l 0.47265,0.24414 a 0.264584,0.264584 0 0 0 0.35743,-0.11328 0.264584,0.264584 0 0 0 -0.043,-0.30078 l 0.50781,0.31445 a 0.264584,0.264584 0 0 0 0.36328,-0.084 0.264584,0.264584 0 0 0 -0.084,-0.36524 l -23.41211,-14.53515 a 0.264584,0.264584 0 0 0 -0.16602,-0.0391 z m 60.50977,16.57812 -26.3418,0.89062 a 0.264584,0.264584 0 0 0 -0.25586,0.27344 0.264584,0.264584 0 0 0 0.27344,0.25391 l 26.34179,-0.88868 a 0.264584,0.264584 0 0 0 0.25586,-0.27344 0.264584,0.264584 0 0 0 -0.27343,-0.25586 z m -64.76953,0.01 a 0.264584,0.264584 0 0 0 -0.27344,0.25585 0.264584,0.264584 0 0 0 0.25586,0.27344 l 26.94922,0.88477 a 0.264584,0.264584 0 0 0 0.27343,-0.25586 0.264584,0.264584 0 0 0 -0.25586,-0.27344 z m 27.58593,1.4375 a 0.264584,0.264584 0 0 0 -0.0254,0.002 l -23.99023,1.68359 a 0.264584,0.264584 0 0 0 -0.2461,0.28321 0.264584,0.264584 0 0 0 0.28321,0.24609 l 23.99023,-1.68555 a 0.264584,0.264584 0 0 0 0.24414,-0.2832 0.264584,0.264584 0 0 0 -0.25586,-0.24609 z m 10.24414,0.008 a 0.264584,0.264584 0 0 0 -0.28515,0.24414 0.264584,0.264584 0 0 0 0.24609,0.28516 l 23.43359,1.73828 a 0.264584,0.264584 0 0 0 0.28321,-0.2461 0.264584,0.264584 0 0 0 -0.24414,-0.2832 z m -9.64062,0.54687 a 0.264584,0.264584 0 0 0 -0.0254,0.004 l -21.03125,4.25391 a 0.264584,0.264584 0 0 0 -0.20703,0.3125 0.264584,0.264584 0 0 0 0.31054,0.20703 l 21.03321,-4.25391 a 0.264584,0.264584 0 0 0 0.20703,-0.3125 0.264584,0.264584 0 0 0 -0.28711,-0.21094 z m 9.00586,0.0195 a 0.264584,0.264584 0 0 0 -0.27149,0.20899 0.264584,0.264584 0 0 0 0.20313,0.31445 l 20.52734,4.36524 a 0.264584,0.264584 0 0 0 0.31446,-0.20313 0.264584,0.264584 0 0 0 -0.20313,-0.31445 l -20.52734,-4.36524 a 0.264584,0.264584 0 0 0 -0.043,-0.006 z m -8.5293,0.5879 a 0.264584,0.264584 0 0 0 -0.0684,0.0156 l -18.82422,7.07812 a 0.264584,0.264584 0 0 0 -0.15625,0.33985 0.264584,0.264584 0 0 0 0.3418,0.1543 l 18.82617,-7.07618 a 0.264584,0.264584 0 0 0 0.1543,-0.34179 0.264584,0.264584 0 0 0 -0.27344,-0.16992 z m 8.22461,0.0781 a 0.264584,0.264584 0 0 0 -0.25781,0.16797 0.264584,0.264584 0 0 0 0.15039,0.34375 l 19.14258,7.4707 a 0.264584,0.264584 0 0 0 0.34179,-0.15039 0.264584,0.264584 0 0 0 -0.15039,-0.3418 l -19.14258,-7.47265 a 0.264584,0.264584 0 0 0 -0.084,-0.0176 z m -8.39453,0.74805 a 0.264584,0.264584 0 0 0 -0.10742,0.0312 l -19.63281,10.91211 a 0.264584,0.264584 0 0 0 -0.10352,0.35937 0.264584,0.264584 0 0 0 0.35937,0.10352 l 19.63477,-10.91211 a 0.264584,0.264584 0 0 0 0.10156,-0.35938 0.264584,0.264584 0 0 0 -0.25195,-0.13476 z m 8.58008,0.0742 a 0.264584,0.264584 0 0 0 -0.23633,0.13476 0.264584,0.264584 0 0 0 0.0996,0.36133 l 20.02539,11.28906 a 0.264584,0.264584 0 0 0 0.36133,-0.10156 0.264584,0.264584 0 0 0 -0.0996,-0.35938 L 293.4452,139.74578 a 0.264584,0.264584 0 0 0 -0.12304,-0.0351 z m -8.74219,0.75 a 0.264584,0.264584 0 0 0 -0.14648,0.0508 l -20.44141,14.74609 a 0.264584,0.264584 0 0 0 -0.0586,0.36914 0.264584,0.264584 0 0 0 0.36914,0.0605 l 20.4414,-14.7461 a 0.264584,0.264584 0 0 0 0.0586,-0.36914 0.264584,0.264584 0 0 0 -0.22266,-0.11132 z m 8.91797,0.0723 a 0.264584,0.264584 0 0 0 -0.20703,0.10938 0.264584,0.264584 0 0 0 0.0605,0.37109 l 20.91016,15.10547 a 0.264584,0.264584 0 0 0 0.36914,-0.0586 0.264584,0.264584 0 0 0 -0.0606,-0.3711 l -20.9082,-15.10547 a 0.264584,0.264584 0 0 0 -0.16406,-0.0508 z m -9.07422,0.75391 a 0.264584,0.264584 0 0 0 -0.18359,0.0664 l -21.25,18.58008 a 0.264584,0.264584 0 0 0 -0.0234,0.37305 0.264584,0.264584 0 0 0 0.37305,0.0254 l 20.51171,-17.93555 -21.85742,22.21094 a 0.264584,0.264584 0 0 0 0.004,0.375 0.264584,0.264584 0 0 0 0.37305,-0.004 l 20.70117,-21.03515 -22.07031,25.33593 a 0.264584,0.264584 0 0 0 0.0254,0.37305 0.264584,0.264584 0 0 0 0.37304,-0.0254 l 20.81836,-23.89844 -22.20898,28.22266 a 0.264584,0.264584 0 0 0 0.0449,0.37109 0.264584,0.264584 0 0 0 0.37109,-0.0449 l 20.88282,-26.53711 -22.28711,30.87891 a 0.264584,0.264584 0 0 0 0.0605,0.36914 0.264584,0.264584 0 0 0 0.36914,-0.0586 l 21.82813,-30.24219 -19.19727,28.91015 a 0.264584,0.264584 0 0 0 0.0742,0.36719 0.264584,0.264584 0 0 0 0.36719,-0.0742 l 20.4043,-30.73242 -16.77149,27.99414 a 0.264584,0.264584 0 0 0 0.0918,0.36328 0.264584,0.264584 0 0 0 0.36328,-0.0918 l 17.77539,-29.67188 -14.15625,26.95703 a 0.264584,0.264584 0 0 0 0.11133,0.35742 0.264584,0.264584 0 0 0 0.35742,-0.11132 l 14.97461,-28.51368 -11.37109,25.82813 a 0.264584,0.264584 0 0 0 0.13672,0.34961 0.264584,0.264584 0 0 0 0.34765,-0.13672 l 11.89258,-27.01367 a 0.264584,0.264584 0 0 0 -0.13672,-0.34766 0.264584,0.264584 0 0 0 -0.34766,0.13477 l -0.2207,0.5 a 0.264584,0.264584 0 0 0 -0.13867,-0.19336 0.264584,0.264584 0 0 0 -0.35742,0.11133 l -0.24414,0.46289 a 0.264584,0.264584 0 0 0 -0.10938,-0.13086 0.264584,0.264584 0 0 0 -0.36133,0.0898 l -0.26562,0.44531 a 0.264584,0.264584 0 0 0 -0.0859,-0.0937 0.264584,0.264584 0 0 0 -0.36719,0.0742 l -0.11718,0.17578 a 0.264584,0.264584 0 0 0 -0.0566,-0.0547 0.264584,0.264584 0 0 0 -0.0918,-0.043 l 0.32031,-0.40625 a 0.264584,0.264584 0 0 0 -0.0449,-0.3711 0.264584,0.264584 0 0 0 -0.12891,-0.0547 l 0.33985,-0.38868 a 0.264584,0.264584 0 0 0 -0.0254,-0.37304 0.264584,0.264584 0 0 0 -0.17969,-0.0645 l 0.36914,-0.37695 a 0.264584,0.264584 0 0 0 -0.004,-0.375 0.264584,0.264584 0 0 0 -0.26758,-0.0625 l 0.42969,-0.375 a 0.264584,0.264584 0 0 0 0.0254,-0.37305 0.264584,0.264584 0 0 0 -0.18945,-0.0918 z m 9.24609,0.0703 a 0.264584,0.264584 0 0 0 -0.17187,0.0898 0.264584,0.264584 0 0 0 0.0254,0.37305 l 0.41992,0.36524 a 0.264584,0.264584 0 0 0 -0.24219,0.0703 0.264584,0.264584 0 0 0 0,0.375 l 0.3711,0.37109 a 0.264584,0.264584 0 0 0 -0.16992,0.0664 0.264584,0.264584 0 0 0 -0.0215,0.37304 l 0.34375,0.38672 a 0.264584,0.264584 0 0 0 -0.12109,0.0527 0.264584,0.264584 0 0 0 -0.041,0.37304 l 0.32422,0.4043 a 0.264584,0.264584 0 0 0 -0.0234,0.006 0.264584,0.264584 0 0 0 -0.0605,0.0332 0.264584,0.264584 0 0 0 -0.0332,0.0293 0.264584,0.264584 0 0 0 -0.0273,0.0332 0.264584,0.264584 0 0 0 -0.004,0.008 l -0.29101,-0.42579 a 0.264584,0.264584 0 0 0 -0.36719,-0.0703 0.264584,0.264584 0 0 0 -0.0879,0.10157 l -0.27149,-0.44141 a 0.264584,0.264584 0 0 0 -0.36328,-0.0879 0.264584,0.264584 0 0 0 -0.11328,0.14258 l -0.24609,-0.46094 a 0.264584,0.264584 0 0 0 -0.35938,-0.10938 0.264584,0.264584 0 0 0 -0.13867,0.21485 l -0.22656,-0.50977 a 0.264584,0.264584 0 0 0 -0.34961,-0.13476 0.264584,0.264584 0 0 0 -0.13477,0.34961 l 11.74219,26.3789 a 0.264584,0.264584 0 0 0 0.34961,0.13477 0.264584,0.264584 0 0 0 0.13477,-0.34961 l -11.28907,-25.36133 14.94336,27.9668 a 0.264584,0.264584 0 0 0 0.35743,0.10937 0.264584,0.264584 0 0 0 0.10937,-0.35742 l -14.13672,-26.45703 17.80469,29.09375 a 0.264584,0.264584 0 0 0 0.36523,0.0879 0.264584,0.264584 0 0 0 0.0879,-0.36328 l -16.81445,-27.47461 20.49805,30.13476 a 0.264584,0.264584 0 0 0 0.36719,0.0703 0.264584,0.264584 0 0 0 0.0703,-0.36719 l -19.26172,-28.31445 22.95898,30.99414 a 0.264584,0.264584 0 0 0 0.0625,0.0605 0.264584,0.264584 0 0 0 0.11914,0.0449 0.264584,0.264584 0 0 0 0.0859,-0.004 0.264584,0.264584 0 0 0 0.041,-0.0117 0.264584,0.264584 0 0 0 0.0391,-0.0195 0.264584,0.264584 0 0 0 0.0215,-0.0137 0.264584,0.264584 0 0 0 0.082,-0.0996 0.264584,0.264584 0 0 0 0.0254,-0.12696 0.264584,0.264584 0 0 0 -0.0508,-0.14453 l -22.91602,-30.93554 21.42187,26.61914 a 0.264584,0.264584 0 0 0 0.37305,0.041 0.264584,0.264584 0 0 0 0.0391,-0.37304 l -22.80859,-28.34375 21.33008,24.04492 a 0.264584,0.264584 0 0 0 0.37305,0.0234 0.264584,0.264584 0 0 0 0.0234,-0.37305 l -22.60547,-25.48438 21.14454,21.20508 a 0.264584,0.264584 0 0 0 0.375,0.002 0.264584,0.264584 0 0 0 0,-0.375 l -22.34571,-22.41211 20.91016,18.1582 a 0.264584,0.264584 0 0 0 0.375,-0.0254 0.264584,0.264584 0 0 0 -0.0274,-0.37305 l -21.79292,-18.92623 a 0.264584,0.264584 0 0 0 -0.20118,-0.0625 z m -4.35546,0.3457 a 0.264584,0.264584 0 0 0 -0.24219,0.28516 l 1.55078,20.51562 a 0.264584,0.264584 0 0 0 0.28515,0.24415 0.264584,0.264584 0 0 0 0.24415,-0.28516 l -1.55274,-20.51563 a 0.264584,0.264584 0 0 0 -0.28515,-0.24414 z m -0.72657,0.0918 a 0.264584,0.264584 0 0 0 -0.24414,0.24023 l -1.82031,20.94922 a 0.264584,0.264584 0 0 0 0.24219,0.28711 0.264584,0.264584 0 0 0 0.28515,-0.24023 l 1.82032,-20.95117 a 0.264584,0.264584 0 0 0 -0.24024,-0.28516 0.264584,0.264584 0 0 0 -0.043,0 z m 1.49219,0.32813 a 0.264584,0.264584 0 0 0 -0.0703,0.006 0.264584,0.264584 0 0 0 -0.20117,0.31641 l 4.94921,22.46875 a 0.264584,0.264584 0 0 0 0.31641,0.20313 0.264584,0.264584 0 0 0 0.20117,-0.31641 l -4.94922,-22.46875 a 0.264584,0.264584 0 0 0 -0.24609,-0.20898 z m -2.17969,0.10546 a 0.264584,0.264584 0 0 0 -0.27343,0.20704 l -5.17774,22.9707 a 0.264584,0.264584 0 0 0 0.19922,0.3164 0.264584,0.264584 0 0 0 0.31641,-0.20117 l 5.17773,-22.9707 a 0.264584,0.264584 0 0 0 -0.19922,-0.31641 0.264584,0.264584 0 0 0 -0.043,-0.006 z m 2.88086,0.31641 a 0.264584,0.264584 0 0 0 -0.0664,0.0137 0.264584,0.264584 0 0 0 -0.16602,0.33594 l 8.3457,24.42383 a 0.264584,0.264584 0 0 0 0.33594,0.16406 0.264584,0.264584 0 0 0 0.16406,-0.33594 l -8.34375,-24.42383 a 0.264584,0.264584 0 0 0 -0.26953,-0.17773 z m -3.61914,0.11719 a 0.264584,0.264584 0 0 0 -0.25195,0.17968 l -8.53516,24.99219 a 0.264584,0.264584 0 0 0 0.16602,0.33594 0.264584,0.264584 0 0 0 0.33594,-0.16406 l 8.5332,-24.99219 a 0.264584,0.264584 0 0 0 -0.16406,-0.33594 0.264584,0.264584 0 0 0 -0.084,-0.0156 z"
       id="path917"
       inkscape:export-xdpi="96"
       inkscape:export-ydpi="96" />
  </g>
</svg>
