<?xml version="1.0" encoding="UTF-8" standalone="no"?>
<svg
   xmlns:dc="http://purl.org/dc/elements/1.1/"
   xmlns:cc="http://creativecommons.org/ns#"
   xmlns:rdf="http://www.w3.org/1999/02/22-rdf-syntax-ns#"
   xmlns:svg="http://www.w3.org/2000/svg"
   xmlns="http://www.w3.org/2000/svg"
   xmlns:sodipodi="http://sodipodi.sourceforge.net/DTD/sodipodi-0.dtd"
   xmlns:inkscape="http://www.inkscape.org/namespaces/inkscape"
   width="1122.5197"
   height="793.70081"
   viewBox="0 0 296.99998 210.00001"
   version="1.1"
   id="svg8"
   inkscape:version="1.0.2 (e86c870879, 2021-01-15, custom)"
   sodipodi:docname="Tracker-Icon.svg">
  <defs
     id="defs2" />
  <sodipodi:namedview
     id="base"
     pagecolor="#ffffff"
     bordercolor="#000000"
     borderopacity="1"
     inkscape:pageopacity="0.0"
     inkscape:pageshadow="2"
     inkscape:zoom="1"
     inkscape:cx="787"
     inkscape:cy="282.235"
     inkscape:document-units="px"
     inkscape:current-layer="layer1"
     inkscape:document-rotation="0"
     showgrid="false"
     units="px"
     showborder="false"
     showguides="true"
     inkscape:object-nodes="false"
     inkscape:window-width="1920"
     inkscape:window-height="1017"
     inkscape:window-x="-8"
     inkscape:window-y="-8"
     inkscape:window-maximized="1" />
  <metadata
     id="metadata5">
    <rdf:RDF>
      <cc:Work
         rdf:about="">
        <dc:format>image/svg+xml</dc:format>
        <dc:type
           rdf:resource="http://purl.org/dc/dcmitype/StillImage" />
        <dc:title></dc:title>
      </cc:Work>
    </rdf:RDF>
  </metadata>
  <g
     inkscape:label="Layer 1"
     inkscape:groupmode="layer"
     id="layer1">
    <g
       id="g1419"
       transform="matrix(2.2103747,0,0,2.2103747,-71.55645,-206.73643)"
       style="stroke-width:0.452412">
      <circle
         style="opacity:1;fill:#ff6600;fill-opacity:1;stroke:none;stroke-width:1.197;stroke-linecap:round;stroke-linejoin:round;stroke-miterlimit:4;stroke-dasharray:none"
         id="path992"
         cx="87.973953"
         cy="141.94896"
         r="45.905205" />
      <path
         id="path1127"
         style="fill:#a74300;fill-opacity:1;stroke:none;stroke-width:0.904827;stroke-opacity:0.6"
         d="m 330.36133,416.94922 -0.004,0.004 -33.33789,10.26563 -22.19726,26.75977 -0.002,0.004 -0.002,0.004 -4.0293,34.10156 12.2168,27.33789 -20.97656,12.10547 -0.002,0.004 -1.41601,1.24414 -0.18164,0.17382 -0.17188,0.20704 -0.45117,0.64648 -1.0332,3.73047 v 77.25391 0.004 l 0.50976,2.1543 0.33789,0.94726 1.6836,2.01563 0.004,0.004 0.004,0.002 67.99609,58.82226 36.92969,31.94727 a 173.49999,173.49999 0 0 0 139.28909,-157.4225 l -141.96093,-122.80664 -0.17579,-0.10156 -0.01,-0.004 -32.61524,-9.37696 -0.37109,-0.0273 h -0.0273 z"
         transform="scale(0.26458333)" />
      <g
         id="g990"
         transform="matrix(0.54303597,0,0,0.54303597,41.854275,75.763036)"
         style="stroke-width:0.833117">
        <path
           style="color:#000000;font-style:normal;font-variant:normal;font-weight:normal;font-stretch:normal;font-size:medium;line-height:normal;font-family:sans-serif;font-variant-ligatures:normal;font-variant-position:normal;font-variant-caps:normal;font-variant-numeric:normal;font-variant-alternates:normal;font-variant-east-asian:normal;font-feature-settings:normal;font-variation-settings:normal;text-indent:0;text-align:start;text-decoration:none;text-decoration-line:none;text-decoration-style:solid;text-decoration-color:#000000;letter-spacing:normal;word-spacing:normal;text-transform:none;writing-mode:lr-tb;direction:ltr;text-orientation:mixed;dominant-baseline:auto;baseline-shift:baseline;text-anchor:start;white-space:normal;shape-padding:0;shape-margin:0;inline-size:0;clip-rule:nonzero;display:inline;overflow:visible;visibility:visible;isolation:auto;mix-blend-mode:normal;color-interpolation:sRGB;color-interpolation-filters:linearRGB;solid-color:#000000;solid-opacity:1;vector-effect:none;fill:#000000;fill-opacity:1;fill-rule:nonzero;stroke:none;stroke-width:2.20428;stroke-linecap:round;stroke-linejoin:round;stroke-miterlimit:4;stroke-dasharray:none;stroke-dashoffset:0;stroke-opacity:1;color-rendering:auto;image-rendering:auto;shape-rendering:auto;text-rendering:auto;enable-background:accumulate;stop-color:#000000"
           d="m 83.898236,64.958824 c -5.49946,0.03796 -10.955141,1.716427 -15.523083,4.779553 -4.56081,3.037075 -8.18942,7.414188 -10.332185,12.457123 -2.130261,4.973314 -2.789621,10.541788 -1.876888,15.874999 0.864132,5.146811 3.219633,9.987391 6.657991,13.909741 -3.856199,2.22625 -7.712086,4.45191 -11.568285,6.67815 -0.193471,0.11193 -0.355435,0.27104 -0.470773,0.4625 0.04941,-0.0817 -0.01725,-0.005 -0.16588,0.22273 -0.130448,0.19952 -0.317937,0.63161 -0.288872,1.09451 v 37.64008 c 2.01e-4,0.27515 0.08619,0.54339 0.24598,0.76739 -0.08849,-0.12421 -0.04645,0.23303 0.525547,0.72295 0.06186,0.0529 0.128456,0.0999 0.198956,0.14056 l 32.704979,18.8805 c 0.193302,0.11192 0.41179,0.17308 0.635103,0.17777 -0.09659,-0.002 0.0044,0.0185 0.275437,0.0336 0.225999,0.0126 0.658744,-0.0385 1.033013,-0.26407 l 0.0026,-0.002 c 0.01746,-0.0106 0.03553,-0.0191 0.05271,-0.0305 l 32.602594,-18.82104 c 0.23817,-0.13814 0.42731,-0.34715 0.54105,-0.5979 -0.0632,0.13861 0.22354,-0.0764 0.36174,-0.81648 0.0153,-0.0804 0.0231,-0.16207 0.0233,-0.24392 v -37.76203 c -2e-4,-0.27516 -0.0862,-0.5434 -0.24598,-0.7674 0.0885,0.12419 0.0443,-0.23252 -0.52761,-0.72243 -0.0619,-0.0529 -0.12846,-0.0999 -0.19896,-0.14056 -4.20214,-2.42898 -8.41152,-4.85529 -12.60543,-7.28328 3.19629,-3.86654 5.39635,-8.5335 6.18929,-13.492198 v -0.0041 c 0.89306,-5.469284 0.13356,-11.173288 -2.15853,-16.218646 l -0.002,-0.0057 c -2.25515,-5.00339 -5.9899,-9.305041 -10.625182,-12.242662 l -0.0041,-0.0016 C 94.814835,66.49028 89.46327,64.952715 84.079732,64.970262 c -0.05824,-0.0079 -0.116933,-0.01183 -0.175699,-0.01188 -0.0021,1.8e-5 -0.0042,-1.9e-5 -0.0062,0 z"
           id="path973" />
        <path
           style="color:#000000;font-style:normal;font-variant:normal;font-weight:normal;font-stretch:normal;font-size:medium;line-height:normal;font-family:sans-serif;font-variant-ligatures:normal;font-variant-position:normal;font-variant-caps:normal;font-variant-numeric:normal;font-variant-alternates:normal;font-variant-east-asian:normal;font-feature-settings:normal;font-variation-settings:normal;text-indent:0;text-align:start;text-decoration:none;text-decoration-line:none;text-decoration-style:solid;text-decoration-color:#000000;letter-spacing:normal;word-spacing:normal;text-transform:none;writing-mode:lr-tb;direction:ltr;text-orientation:mixed;dominant-baseline:auto;baseline-shift:baseline;text-anchor:start;white-space:normal;shape-padding:0;shape-margin:0;inline-size:0;clip-rule:nonzero;display:inline;overflow:visible;visibility:visible;isolation:auto;mix-blend-mode:normal;color-interpolation:sRGB;color-interpolation-filters:linearRGB;solid-color:#000000;solid-opacity:1;vector-effect:none;fill:#000000;fill-opacity:1;fill-rule:nonzero;stroke:none;stroke-width:0.220428;stroke-linecap:round;stroke-linejoin:round;stroke-miterlimit:4;stroke-dasharray:none;stroke-dashoffset:0;stroke-opacity:1;color-rendering:auto;image-rendering:auto;shape-rendering:auto;text-rendering:auto;enable-background:accumulate;stop-color:#000000"
           d="m 83.885835,63.635908 c -5.76004,0.04037 -11.458633,1.793401 -16.243969,5.001246 -4.778362,3.181943 -8.569417,7.754885 -10.814844,13.037447 -2.14e-4,5.29e-4 -2.64e-4,0.0011 -5.29e-4,0.0016 -2.64e-4,7.93e-4 -7.94e-4,0.0013 -0.0011,0.0021 -2.230853,5.210104 -2.919399,11.028273 -1.963187,16.615524 0.81839,4.869865 2.912377,9.455495 5.95209,13.319085 -3.406685,1.96667 -6.813211,3.93308 -10.220047,5.8999 a 1.3230477,1.3230477 0 0 0 -0.0011,5.3e-4 c -0.268872,0.15555 -0.491985,0.36991 -0.68988,0.60668 -0.03377,0.0318 -0.07272,0.0676 -0.08837,0.0847 -0.04726,0.0519 -0.06457,0.0756 -0.08371,0.10025 -0.07657,0.0986 -0.133546,0.18259 -0.220142,0.31523 -0.291311,0.44571 -0.555828,1.0316 -0.501261,1.90066 l -0.0026,-0.0827 v 37.64008 a 1.3230477,1.3230477 0 0 0 0,0.001 c 2.65e-4,0.36725 0.102513,0.71722 0.248563,1.05007 0.03886,0.23205 0.101203,0.34288 0.164333,0.46302 0.171476,0.32635 0.426643,0.64293 0.821137,0.98082 a 1.3230477,1.3230477 0 0 0 0.0011,0.001 c 0.123704,0.10573 0.256916,0.19985 0.397907,0.28112 l 32.702397,18.87895 c 0.269687,0.15614 0.567877,0.24316 0.872815,0.29662 0.03348,0.01 0.08297,0.027 0.102836,0.0315 0.07205,0.0165 0.102317,0.0202 0.13436,0.0248 0.12817,0.0184 0.230593,0.0257 0.390157,0.0346 0.518153,0.0289 1.104287,-0.039 1.789036,-0.45165 l 0.0011,-5.3e-4 a 1.3230477,1.3230477 0 0 0 0.0041,-0.003 c -0.05771,0.0349 -0.02101,0.0192 0.09715,-0.0589 l -0.06821,0.0424 32.602663,-18.82107 a 1.3230477,1.3230477 0 0 0 0.002,-0.002 c 0.31836,-0.18466 0.57042,-0.44909 0.78548,-0.7431 0.1812,-0.15018 0.24525,-0.25902 0.3173,-0.37362 0.19513,-0.31038 0.34097,-0.68838 0.43615,-1.19631 0.0304,-0.16032 0.0461,-0.32311 0.0465,-0.48628 a 1.3230477,1.3230477 0 0 0 0,-0.003 v -37.76207 a 1.3230477,1.3230477 0 0 0 0,-10e-4 c -2.7e-4,-0.36849 -0.10361,-0.71938 -0.25064,-1.05317 -0.0399,-0.23403 -0.10175,-0.34348 -0.16536,-0.46354 -0.17157,-0.32381 -0.42644,-0.63947 -0.82011,-0.97668 a 1.3230477,1.3230477 0 0 0 -0.001,-0.001 c -0.12323,-0.10533 -0.25597,-0.19903 -0.39636,-0.28008 l -5.3e-4,-5.3e-4 c -3.78054,-2.18528 -7.5635,-4.36802 -11.33729,-6.55102 2.82135,-3.78558 4.81557,-8.17677 5.56606,-12.870024 a 1.3230477,1.3230477 0 0 0 0.0119,-0.0987 c 0.90511,-5.665912 0.12197,-11.549042 -2.2319,-16.781404 a 1.3230477,1.3230477 0 0 0 -0.002,-0.0047 1.3230477,1.3230477 0 0 0 -0.0388,-0.09612 c -2.36326,-5.243258 -6.26623,-9.738061 -11.12335,-12.816271 a 1.3230477,1.3230477 0 0 0 -0.08578,-0.05012 1.3230477,1.3230477 0 0 0 -0.0047,-0.0026 c -4.736391,-2.995541 -10.290686,-4.58457 -15.891018,-4.568195 -0.06015,-0.0042 -0.120028,-0.01236 -0.18035,-0.01241 a 1.3230477,1.3230477 0 0 0 -0.01344,0 c 0.01167,-1.09e-4 -0.0021,5e-6 -0.0031,0 z m 0.01757,2.645833 a 1.3230477,1.3230477 0 0 0 0.0011,0 1.3230477,1.3230477 0 0 0 0.179835,0.01188 c 5.128797,-0.01672 10.238176,1.451943 14.559832,4.206978 a 1.3230477,1.3230477 0 0 0 0.02429,0.01447 c 4.401558,2.79432 7.958938,6.893369 10.103768,11.645283 a 1.3230477,1.3230477 0 0 0 0.009,0.0217 c 2.1823,4.803698 2.9075,10.250794 2.05724,15.457969 a 1.3230477,1.3230477 0 0 0 -0.002,0.0155 c -0.75407,4.707219 -2.84925,9.159799 -5.90093,12.851409 a 1.3230477,1.3230477 0 0 0 0.35656,1.988 c 4.19536,2.42883 8.40526,4.85484 12.60647,7.28327 a 1.3230477,1.3230477 0 0 0 0.002,0.001 c 0.12203,0.10496 0.12243,0.1188 0.14004,0.14211 a 1.3230477,1.3230477 0 0 0 0.1695,0.34262 c 1e-4,1.5e-4 5.3e-4,2.6e-4 5.3e-4,5.3e-4 v 37.75787 a 1.3230477,1.3230477 0 0 0 -5.3e-4,0.004 c -0.0297,0.15894 -0.0407,0.16353 -0.0522,0.19069 a 1.3230477,1.3230477 0 0 0 -0.21291,0.31988 c -2.2e-4,5.2e-4 -2.7e-4,0.002 -5.3e-4,0.002 -7e-5,1.5e-4 -5.3e-4,2.7e-4 -5.3e-4,5.3e-4 l -32.600589,18.81952 a 1.3230477,1.3230477 0 0 0 -0.06821,0.0424 c 0.08381,-0.0554 0.08438,-0.054 -0.0083,0.002 -0.06379,0.0385 -0.343141,0.0728 -0.276987,0.0765 -0.06199,-0.003 -0.06008,-0.004 -0.0894,-0.007 a 1.3230477,1.3230477 0 0 0 -0.23151,-0.0284 1.3230477,1.3230477 0 0 0 -5.3e-4,0 1.3230477,1.3230477 0 0 0 -0.0011,-10e-4 l -32.705111,-18.88 a 1.3230477,1.3230477 0 0 0 -0.0011,-5.3e-4 c -0.120115,-0.10332 -0.118808,-0.11464 -0.136424,-0.13798 -3.4e-5,-4e-5 3.2e-5,-5.3e-4 0,-5.3e-4 a 1.3230477,1.3230477 0 0 0 -0.17105,-0.34623 c -4.8e-5,-7e-5 -5.3e-4,6e-5 -5.3e-4,0 v -5.3e-4 c -5.5e-5,-8e-5 5.6e-5,-5.3e-4 0,-5.3e-4 v -37.63899 a 1.3230477,1.3230477 0 0 0 -0.0026,-0.0827 c -0.0035,-0.0564 0.106515,-0.33456 0.07596,-0.28783 a 1.3230477,1.3230477 0 0 0 5.29e-4,-5.3e-4 c 0.03609,-0.0553 0.03771,-0.0569 0.05478,-0.0811 a 1.3230477,1.3230477 0 0 0 0.135392,-0.18035 c 2.65e-4,-5.3e-4 7.94e-4,-0.002 0.0011,-0.002 3.855807,-2.22601 7.711326,-4.45153 11.567252,-6.67762 a 1.3230477,1.3230477 0 0 0 0.333314,-2.01797 c -3.280076,-3.74179 -5.526315,-8.36325 -6.347872,-13.25649 a 1.3230477,1.3230477 0 0 0 -0.0011,-0.0041 c -0.869034,-5.077881 -0.2394,-10.39526 1.789039,-15.13086 a 1.3230477,1.3230477 0 0 0 0.0016,-0.0036 c 2.040298,-4.801775 5.505813,-8.981697 9.84798,-11.873177 a 1.3230477,1.3230477 0 0 0 0.0036,-0.0026 c 4.347781,-2.915494 9.556392,-4.518319 14.791343,-4.555278 z m 36.051025,52.080539 c 0.0638,0.0359 0.1092,0.0644 0.14728,0.0982 a 1.3230477,1.3230477 0 0 0 -0.14728,-0.0982 z m -70.301647,0.0739 h 5.29e-4 c -5.29e-4,7.9e-4 -0.0011,0.001 -0.0016,0.002 1.19e-4,-2e-4 7.93e-4,-0.002 0.0011,-0.002 z m 70.546077,0.10594 c 0.001,7.9e-4 0.003,0.002 0.004,0.003 0.003,0.003 0.002,0.003 0.005,0.006 a 1.3230477,1.3230477 0 0 0 -0.009,-0.009 z m -2.1487,1.38906 c 0.004,0.006 0.0596,0.0671 0.0522,0.0532 -0.007,-0.0137 -0.0298,-0.005 -0.0522,-0.0532 z m 0.10387,38.29895 c -0.003,0.007 -0.029,0.0869 -0.0202,0.0729 0.008,-0.0134 -0.011,-0.0289 0.0202,-0.0729 z m -66.391814,0.13126 c 0.0075,0.0142 0.03084,0.005 0.05323,0.0538 -0.0045,-0.006 -0.06109,-0.0687 -0.05323,-0.0538 z m 68.701744,0.73897 c 5.3e-4,0.0688 -7.9e-4,0.11838 -0.0103,0.1664 a 1.3230477,1.3230477 0 0 0 0.0103,-0.1664 z m -0.031,0.28526 c -10e-4,0.004 -0.002,0.0125 -0.003,0.0165 -10e-4,0.005 -0.002,0.005 -0.003,0.009 a 1.3230477,1.3230477 0 0 0 0.006,-0.0259 z m -70.775526,0.40669 a 1.3230477,1.3230477 0 0 0 0.01654,0.0155 c -0.0027,-0.003 -0.0087,-0.007 -0.01138,-0.009 -0.003,-0.003 -0.0021,-0.003 -0.0052,-0.006 z m 0.113173,0.0956 a 1.3230477,1.3230477 0 0 0 0.140557,0.0925 c -0.06035,-0.0338 -0.103259,-0.0602 -0.140557,-0.0925 z"
           id="path975" />
        <path
           id="path962"
           style="color:#000000;font-style:normal;font-variant:normal;font-weight:normal;font-stretch:normal;font-size:medium;line-height:normal;font-family:sans-serif;font-variant-ligatures:normal;font-variant-position:normal;font-variant-caps:normal;font-variant-numeric:normal;font-variant-alternates:normal;font-variant-east-asian:normal;font-feature-settings:normal;font-variation-settings:normal;text-indent:0;text-align:start;text-decoration:none;text-decoration-line:none;text-decoration-style:solid;text-decoration-color:#000000;letter-spacing:normal;word-spacing:normal;text-transform:none;writing-mode:lr-tb;direction:ltr;text-orientation:mixed;dominant-baseline:auto;baseline-shift:baseline;text-anchor:start;white-space:normal;shape-padding:0;shape-margin:0;inline-size:0;clip-rule:nonzero;display:inline;overflow:visible;visibility:visible;isolation:auto;mix-blend-mode:normal;color-interpolation:sRGB;color-interpolation-filters:linearRGB;solid-color:#000000;solid-opacity:1;vector-effect:none;fill:#000000;fill-opacity:1;fill-rule:nonzero;stroke:none;stroke-width:8.33117;stroke-linecap:round;stroke-linejoin:round;stroke-miterlimit:4;stroke-dasharray:none;stroke-dashoffset:0;stroke-opacity:1;color-rendering:auto;image-rendering:auto;shape-rendering:auto;text-rendering:auto;enable-background:accumulate;stop-color:#000000"
           d="m 317.0957,245.51367 c -20.78536,0.14347 -41.40526,6.48728 -58.66992,18.06445 -17.23771,11.47871 -30.95214,28.02213 -39.05078,47.08204 -8.05138,18.79678 -10.54345,39.84298 -7.09375,60 3.26601,19.4525 12.16869,37.74763 25.16406,52.57226 -14.57461,8.41418 -29.14804,16.8261 -43.72265,25.24024 a 5.0004998,5.0004998 0 0 0 -1.7793,1.74804 c 0.18675,-0.30878 -0.0652,-0.0187 -0.62695,0.8418 -0.49303,0.7541 -1.20165,2.38719 -1.0918,4.13672 v 142.26172 a 5.0004998,5.0004998 0 0 0 0.92969,2.90039 c -0.33445,-0.46946 -0.17556,0.88075 1.98632,2.73242 a 5.0004998,5.0004998 0 0 0 0.75196,0.53125 l 123.60937,71.35938 a 5.0004998,5.0004998 0 0 0 2.40039,0.67187 c -0.36506,-0.008 0.0168,0.0699 1.04102,0.12695 0.85417,0.0476 2.48974,-0.1455 3.9043,-0.99804 l 0.01,-0.006 c 0.066,-0.04 0.13429,-0.0723 0.19922,-0.11524 L 448.2793,603.5293 a 5.0004998,5.0004998 0 0 0 2.04492,-2.25977 c -0.23887,0.52388 0.84486,-0.28867 1.36719,-3.08594 a 5.0004998,5.0004998 0 0 0 0.0879,-0.92187 V 454.53906 a 5.0004998,5.0004998 0 0 0 -0.92969,-2.90039 c 0.33449,0.46938 0.16752,-0.87884 -1.99414,-2.73047 a 5.0004998,5.0004998 0 0 0 -0.75195,-0.53125 c -15.88211,-9.18039 -31.79158,-18.35069 -47.64258,-27.52734 12.08046,-14.6137 20.39564,-32.25261 23.39258,-50.99414 v -0.0156 c 3.37534,-20.67131 0.50481,-42.22975 -8.15821,-61.29882 l -0.006,-0.0215 c -8.5234,-18.91045 -22.63902,-35.16866 -40.1582,-46.27148 l -0.0156,-0.006 c -17.1588,-10.93865 -37.38519,-16.74992 -57.73242,-16.6836 a 5.0004998,5.0004998 0 0 0 -0.66406,-0.0449 c -0.008,7e-5 -0.0159,-7e-5 -0.0234,0 z"
           transform="scale(0.26458333)" />
        <path
           id="path843"
           style="opacity:1;fill:#1d8bbd;fill-opacity:1;stroke-width:3.74902;stroke-linecap:round;stroke-linejoin:round"
           d="M 321,383.07422 197.22266,454.53711 V 597.46289 L 321,668.92578 444.77734,597.46289 V 454.53711 Z m 0,16 109.92188,63.46289 V 589.46289 L 321,652.92578 211.07812,589.46289 V 462.53711 Z"
           transform="scale(0.26458333)" />
        <path
           id="path841"
           style="opacity:1;fill:#ffffff;stroke-width:3.74902;stroke-linecap:round;stroke-linejoin:round"
           d="M 321,399.07422 211.07812,462.53711 V 589.46289 L 321,652.92578 430.92188,589.46289 V 462.53711 Z m 0,18 94.33398,54.46289 V 580.46289 L 321,634.92578 226.66602,580.46289 V 471.53711 Z m 0,21.99219 L 245.71289,482.5332 321,526 v 86.93359 l 75.28711,-43.46679 v -86.9336 z"
           transform="scale(0.26458333)" />
        <path
           id="path830"
           style="opacity:1;fill:#19487d;fill-opacity:1;stroke-width:3.74902;stroke-linecap:round;stroke-linejoin:round"
           d="m 321,417.07422 -94.33398,54.46289 V 580.46289 L 321,634.92578 415.33398,580.46289 V 471.53711 Z m 0,21.99219 75.28711,43.46679 v 86.9336 L 321,612.93359 V 526 l -75.28711,-43.4668 z"
           transform="scale(0.26458333)" />
        <path
           id="path832"
           style="opacity:1;fill:#ffffff;stroke-width:0.99192;stroke-linecap:round;stroke-linejoin:round"
           d="M 84.1375,116.16965 64.217786,127.67024 84.1375,139.17083 v 23.00118 l 19.91971,-11.50059 v -23.00118 z" />
        <g
           id="g940"
           transform="matrix(0.97188424,0,0,0.97188424,90.05182,-64.46485)"
           style="stroke-width:0.857222">
          <path
             id="path929"
             style="opacity:1;fill:#ffffff;fill-opacity:1;stroke:none;stroke-width:3.85746;stroke-linecap:round;stroke-linejoin:round"
             d="m -23,510.50781 a 103.1274,103.1274 0 0 0 -103.12695,103.12696 103.1274,103.1274 0 0 0 30.447262,73.16211 L -23,759.47852 49.507812,686.9707 A 103.1274,103.1274 0 0 0 80.126953,613.63477 103.1274,103.1274 0 0 0 -23,510.50781 Z m 0,16.86328 a 87.499998,87.499998 0 0 1 87.5,87.5 87.499998,87.499998 0 0 1 -25.980469,62.22266 L -23,738.61523 -84.666016,676.94727 A 87.499998,87.499998 0 0 1 -110.5,614.87109 a 87.499998,87.499998 0 0 1 87.5,-87.5 z m 0,59 a 28.499997,28.499997 0 0 0 -28.5,28.5 28.499997,28.499997 0 0 0 28.5,28.5 28.499997,28.499997 0 0 0 28.5,-28.5 28.499997,28.499997 0 0 0 -28.5,-28.5 z"
             transform="scale(0.26458333)" />
          <path
             id="path924"
             style="opacity:1;fill:#ff0000;fill-opacity:1;stroke:none;stroke-width:3.85746;stroke-linecap:round;stroke-linejoin:round"
             d="m -23,527.37109 a 87.499998,87.499998 0 0 0 -87.5,87.5 87.499998,87.499998 0 0 0 25.833984,62.07618 L -23,738.61523 38.519531,677.09375 A 87.499998,87.499998 0 0 0 64.5,614.87109 a 87.499998,87.499998 0 0 0 -87.5,-87.5 z m 0,59 a 28.499997,28.499997 0 0 1 28.5,28.5 28.499997,28.499997 0 0 1 -28.5,28.5 28.499997,28.499997 0 0 1 -28.5,-28.5 28.499997,28.499997 0 0 1 28.5,-28.5 z"
             transform="scale(0.26458333)" />
        </g>
      </g>
    </g>
  </g>
</svg>
