<?xml version="1.0" encoding="UTF-8" standalone="no"?>
<svg
   xmlns:dc="http://purl.org/dc/elements/1.1/"
   xmlns:cc="http://creativecommons.org/ns#"
   xmlns:rdf="http://www.w3.org/1999/02/22-rdf-syntax-ns#"
   xmlns:svg="http://www.w3.org/2000/svg"
   xmlns="http://www.w3.org/2000/svg"
   xmlns:xlink="http://www.w3.org/1999/xlink"
   xmlns:sodipodi="http://sodipodi.sourceforge.net/DTD/sodipodi-0.dtd"
   xmlns:inkscape="http://www.inkscape.org/namespaces/inkscape"
   width="793.70081"
   height="1122.5197"
   viewBox="0 0 210 297"
   version="1.1"
   id="svg8"
   inkscape:version="1.0 (262b4497e3, 2020-09-04)"
   sodipodi:docname="Wavy-Lines.svg">
  <defs
     id="defs2">
    <linearGradient
       inkscape:collect="always"
       id="linearGradient930">
      <stop
         style="stop-color:#2200ff;stop-opacity:1;"
         offset="0"
         id="stop926" />
      <stop
         style="stop-color:#0f3bff;stop-opacity:1"
         offset="1"
         id="stop928" />
    </linearGradient>
    <inkscape:path-effect
       gridpoint32x33x34x35="110.8661,140.00158"
       gridpoint29x31="133.97568,152.02566"
       gridpoint28x30="46.33662,153.23846"
       gridpoint25x27="170.02983,152.02566"
       gridpoint24x26="25.813222,152.02566"
       gridpoint22x23="113.5937,159.86533"
       gridpoint20x21="115.4685,121.77392"
       gridpoint19="160.20069,179.29029"
       gridpoint18="57.173378,189.16333"
       gridpoint17="123.67014,104.10051"
       gridpoint16="85.733117,157.73891"
       gridpoint15="170.02983,180.99777"
       gridpoint14="25.813222,180.99777"
       gridpoint13="170.02983,123.05356"
       gridpoint12="25.813222,123.05356"
       gridpoint10x11="97.921526,209.96988"
       gridpoint8x9="97.921526,94.081447"
       gridpoint7="133.97568,209.96988"
       gridpoint6="61.867374,209.96988"
       gridpoint5="133.97568,94.081447"
       gridpoint4="61.867374,94.081447"
       gridpoint3="170.02983,209.96988"
       gridpoint2="25.813222,209.96988"
       gridpoint1="170.02983,94.081447"
       gridpoint0="25.813222,94.081447"
       effect="lattice2"
       id="path-effect908"
       is_visible="true"
       lpeversion="1"
       horizontal_mirror="false"
       vertical_mirror="false"
       perimetral="false"
       live_update="true" />
    <linearGradient
       inkscape:collect="always"
       xlink:href="#linearGradient930"
       id="linearGradient932"
       x1="25.216802"
       y1="152.02761"
       x2="179.53535"
       y2="152.0276"
       gradientUnits="userSpaceOnUse" />
  </defs>
  <sodipodi:namedview
     id="base"
     pagecolor="#ffffff"
     bordercolor="#666666"
     borderopacity="1.0"
     inkscape:pageopacity="0.0"
     inkscape:pageshadow="2"
     inkscape:zoom="1"
     inkscape:cx="400"
     inkscape:cy="558.53263"
     inkscape:document-units="px"
     inkscape:current-layer="layer1"
     inkscape:document-rotation="0"
     showgrid="false"
     showborder="true"
     units="px"
     inkscape:window-width="1846"
     inkscape:window-height="1016"
     inkscape:window-x="74"
     inkscape:window-y="27"
     inkscape:window-maximized="1" />
  <metadata
     id="metadata5">
    <rdf:RDF>
      <cc:Work
         rdf:about="">
        <dc:format>image/svg+xml</dc:format>
        <dc:type
           rdf:resource="http://purl.org/dc/dcmitype/StillImage" />
        <dc:title></dc:title>
      </cc:Work>
    </rdf:RDF>
  </metadata>
  <g
     inkscape:label="Layer 1"
     inkscape:groupmode="layer"
     id="layer1">
    <path
       style="color:#000000;font-style:normal;font-variant:normal;font-weight:normal;font-stretch:normal;font-size:medium;line-height:normal;font-family:sans-serif;font-variant-ligatures:normal;font-variant-position:normal;font-variant-caps:normal;font-variant-numeric:normal;font-variant-alternates:normal;font-variant-east-asian:normal;font-feature-settings:normal;font-variation-settings:normal;text-indent:0;text-align:start;text-decoration:none;text-decoration-line:none;text-decoration-style:solid;text-decoration-color:#000000;letter-spacing:normal;word-spacing:normal;text-transform:none;writing-mode:lr-tb;direction:ltr;text-orientation:mixed;dominant-baseline:auto;baseline-shift:baseline;text-anchor:start;white-space:normal;shape-padding:0;shape-margin:0;inline-size:0;clip-rule:nonzero;display:inline;overflow:visible;visibility:visible;isolation:auto;mix-blend-mode:normal;color-interpolation:sRGB;color-interpolation-filters:linearRGB;solid-color:#000000;solid-opacity:1;vector-effect:none;fill:url(#linearGradient932);fill-opacity:1;fill-rule:nonzero;stroke:none;stroke-width:1.19062;stroke-linecap:round;stroke-linejoin:miter;stroke-miterlimit:4;stroke-dasharray:none;stroke-dashoffset:0;stroke-opacity:1;color-rendering:auto;image-rendering:auto;shape-rendering:auto;text-rendering:auto;enable-background:accumulate;stop-color:#000000;stop-opacity:1;opacity:1"
       d="M 25.8125 93.486328 A 0.59530997 0.59530997 0 0 0 25.21875 94.082031 A 0.59530997 0.59530997 0 0 0 25.8125 94.675781 C 73.910698 94.685781 170.0293 94.675781 170.0293 94.675781 A 0.59530997 0.59530997 0 0 0 170.625 94.082031 A 0.59530997 0.59530997 0 0 0 170.0293 93.486328 C 170.0293 93.486328 73.910204 93.496328 25.8125 93.486328 z M 138.0293 96.357422 C 132.17347 96.425856 125.7341 96.59906 118.21094 96.894531 C 104.75214 97.423124 87.200126 98.403903 71.460938 98.695312 C 54.341117 99.012284 39.462382 98.56286 25.876953 97.111328 A 0.59530997 0.59530997 0 0 0 25.220703 97.640625 A 0.59530997 0.59530997 0 0 0 25.75 98.294922 C 39.400941 99.753454 54.330985 100.20236 71.484375 99.884766 C 87.256544 99.592745 104.81613 98.611905 118.25781 98.083984 C 133.28734 97.493702 143.96518 97.392958 154.31836 97.638672 C 163.74679 97.862438 169.98828 98.296875 169.98828 98.296875 A 0.59530997 0.59530997 0 0 0 170.62305 97.744141 A 0.59530997 0.59530997 0 0 0 170.07031 97.109375 C 170.07031 97.109375 163.80014 96.673556 154.34766 96.449219 C 149.15749 96.32604 143.88512 96.288988 138.0293 96.357422 z M 139.13086 99.087891 C 133.64008 99.155523 127.62321 99.41819 120.54883 99.923828 C 107.09812 100.88521 91.076157 102.69659 74.029297 103.4082 C 56.160909 104.15412 40.117454 103.4871 25.925781 100.74023 A 0.59530997 0.59530997 0 0 0 25.228516 101.21094 A 0.59530997 0.59530997 0 0 0 25.699219 101.9082 C 40.019886 104.68004 56.152548 105.34604 74.080078 104.59766 C 91.179934 103.88383 107.22118 102.06992 120.63281 101.11133 C 134.74425 100.10272 144.60164 100.0661 154.48633 100.60938 C 163.53575 101.10674 169.95508 101.91602 169.95508 101.91602 A 0.59530997 0.59530997 0 0 0 170.62109 101.39844 A 0.59530997 0.59530997 0 0 0 170.10352 100.73438 C 170.10352 100.73438 163.64004 99.919477 154.55078 99.419922 C 149.58528 99.147011 144.62164 99.020258 139.13086 99.087891 z M 140.35742 101.71289 C 135.22455 101.72083 129.60425 101.99888 122.93359 102.64062 C 110.14097 103.87132 94.133749 106.48606 76.351562 107.68945 C 57.67345 108.95348 40.523569 108.26481 25.966797 104.37109 A 0.59530997 0.59530997 0 0 0 25.238281 104.79297 A 0.59530997 0.59530997 0 0 0 25.660156 105.52148 C 40.408274 109.46639 57.675615 110.14625 76.431641 108.87695 C 94.28165 107.66897 110.32025 105.05052 123.04688 103.82617 C 136.3269 102.54858 145.36175 102.71695 154.74609 103.5957 C 163.38361 104.40454 169.92773 105.5332 169.92773 105.5332 A 0.59530997 0.59530997 0 0 0 170.61719 105.04688 A 0.59530997 0.59530997 0 0 0 170.13086 104.35938 C 170.13086 104.35938 163.53981 103.22338 154.85547 102.41016 C 150.13487 101.96812 145.4903 101.70495 140.35742 101.71289 z M 141.67773 104.26367 C 136.89097 104.16236 131.64066 104.39552 125.33008 105.10938 C 113.11385 106.49128 96.99459 109.84155 78.4375 111.59961 C 58.910144 113.4496 40.716208 112.89871 26.001953 108.00195 A 0.59530997 0.59530997 0 0 0 25.248047 108.37891 A 0.59530997 0.59530997 0 0 0 25.625 109.13281 C 40.592343 114.11379 58.930652 114.6418 78.548828 112.7832 C 97.182702 111.01787 113.34631 107.66382 125.46484 106.29297 C 137.99739 104.87528 146.22042 105.36373 155.08203 106.60352 C 163.28568 107.75125 169.90625 109.15039 169.90625 109.15039 A 0.59530997 0.59530997 0 0 0 170.61133 108.69141 A 0.59530997 0.59530997 0 0 0 170.15234 107.98438 C 170.15234 107.98438 163.49608 106.57777 155.24805 105.42383 C 150.78823 104.79988 146.46449 104.36498 141.67773 104.26367 z M 135.95898 106.71094 C 133.42582 106.80461 130.69967 107.02092 127.70312 107.38672 C 111.82519 109.32011 96.069538 113.26621 80.291016 115.1875 C 59.894515 117.67109 40.727754 117.39561 26.03125 111.63477 A 0.59530997 0.59530997 0 0 0 25.259766 111.97266 A 0.59530997 0.59530997 0 0 0 25.595703 112.74414 C 40.606583 118.62822 59.940307 118.86475 80.435547 116.36914 C 96.313486 114.43575 112.06913 110.48965 127.84766 108.56836 C 139.71428 107.11975 147.15829 108.02775 155.48438 109.64258 C 163.24248 111.14725 169.88867 112.76758 169.88867 112.76758 A 0.59530997 0.59530997 0 0 0 170.60742 112.33008 A 0.59530997 0.59530997 0 0 0 170.16992 111.61133 C 170.16992 111.61133 163.50114 109.98355 155.71094 108.47266 C 149.42945 107.25438 143.55848 106.42991 135.95898 106.71094 z M 137.8418 108.9707 C 135.45948 109.00251 132.88018 109.17723 130.02148 109.5293 C 124.1776 110.24901 117.88305 111.54724 109.55078 113.30078 C 101.54649 114.9853 91.950151 117.0228 81.923828 118.50586 C 60.656432 121.65169 40.590812 121.75864 26.056641 115.26758 A 0.59530997 0.59530997 0 0 0 25.269531 115.56836 A 0.59530997 0.59530997 0 0 0 25.570312 116.35352 C 40.479605 123.01211 60.727742 122.84459 82.097656 119.68359 C 92.1713 118.19353 101.79425 116.15096 109.79688 114.4668 C 118.12674 112.71376 124.39373 111.42207 130.16797 110.71094 C 141.44829 109.3217 148.14822 110.72143 155.93555 112.71484 C 163.24196 114.58514 169.87305 116.38477 169.87305 116.38477 A 0.59530997 0.59530997 0 0 0 170.60352 115.9668 A 0.59530997 0.59530997 0 0 0 170.18555 115.23633 C 170.18555 115.23633 163.54698 113.43343 156.23047 111.56055 C 150.36722 110.05966 144.98875 108.87529 137.8418 108.9707 z M 139.74414 111.21875 C 137.46599 111.16181 134.99282 111.26645 132.25586 111.58594 C 126.6059 112.24545 120.31281 113.61585 111.84375 115.56641 C 103.7362 117.43371 93.719184 119.81186 83.339844 121.60352 C 61.216582 125.4224 40.334146 125.99121 26.078125 118.89844 A 0.59530997 0.59530997 0 0 0 25.279297 119.16602 A 0.59530997 0.59530997 0 0 0 25.548828 119.96484 C 40.239922 127.27407 61.316758 126.61205 83.542969 122.77539 C 93.969697 120.97555 104.01016 118.5924 112.11133 116.72656 C 120.57345 114.7776 126.8304 113.4188 132.39258 112.76953 C 143.1336 111.51574 149.57348 113.5933 156.42578 115.82812 C 163.29004 118.06683 169.86133 120.00391 169.86133 120.00391 A 0.59530997 0.59530997 0 0 0 170.60156 119.59961 A 0.59530997 0.59530997 0 0 0 170.19727 118.86133 C 170.19727 118.86133 163.63865 116.92732 156.79492 114.69531 C 151.65318 113.01837 146.5786 111.38956 139.74414 111.21875 z M 141.49023 113.43164 C 139.36055 113.29395 137.01949 113.33191 134.375 113.60547 C 128.87902 114.17401 122.56531 115.58479 113.9375 117.70508 C 105.72934 119.72225 95.246494 122.43214 84.548828 124.52344 C 61.600173 129.00969 39.986502 130.10282 26.097656 122.53125 A 0.59530997 0.59530997 0 0 0 25.291016 122.76953 A 0.59530997 0.59530997 0 0 0 25.527344 123.57617 C 39.910094 131.417 61.727933 130.19735 84.777344 125.69141 C 95.5213 123.59106 106.02638 120.87558 114.22266 118.86133 C 122.83832 116.74402 129.10993 115.3484 134.49805 114.79102 C 144.83902 113.72129 150.20534 116.26027 156.94141 118.98438 C 163.38039 121.58834 169.85156 123.62109 169.85156 123.62109 A 0.59530997 0.59530997 0 0 0 170.59766 123.23242 A 0.59530997 0.59530997 0 0 0 170.20898 122.48633 C 170.20898 122.48633 163.77027 120.46162 157.38867 117.88086 C 152.36165 115.8479 147.8793 113.84471 141.49023 113.43164 z M 136.35547 115.63281 C 130.97595 116.08595 124.61768 117.50495 115.81641 119.76758 C 107.5356 121.89638 96.513932 124.93892 85.558594 127.30859 C 61.829128 132.44135 39.572668 134.09548 26.115234 126.16211 A 0.59530997 0.59530997 0 0 0 25.300781 126.37305 A 0.59530997 0.59530997 0 0 0 25.511719 127.1875 C 39.520416 135.44585 61.982556 133.62435 85.808594 128.4707 C 96.808313 126.09143 107.85057 123.04603 116.11328 120.92188 C 124.8967 118.66384 131.20516 117.26253 136.45508 116.82031 C 146.44134 115.97912 151.23477 119.12914 157.47461 122.18945 C 163.50266 125.14588 169.84375 127.24023 169.84375 127.24023 A 0.59530997 0.59530997 0 0 0 170.5957 126.86133 A 0.59530997 0.59530997 0 0 0 170.2168 126.10938 C 170.2168 126.10938 163.92908 124.02994 157.99805 121.12109 C 151.8312 118.09658 146.62562 114.76771 136.35547 115.63281 z M 138.17383 117.70703 C 132.87561 118.02632 126.45366 119.43107 117.4707 121.80859 C 109.20222 123.99704 97.465977 127.39161 86.371094 129.99805 C 61.918163 135.74258 39.115392 137.97729 26.130859 129.79297 A 0.59530997 0.59530997 0 0 0 25.310547 129.97852 A 0.59530997 0.59530997 0 0 0 25.496094 130.80078 C 39.087447 139.36758 62.100672 136.92214 86.644531 131.15625 C 97.781476 128.53993 109.53202 125.14078 117.77539 122.95898 C 126.73442 120.58779 133.09824 119.20659 138.24414 118.89648 C 147.95167 118.31148 152.23909 122.0793 158.01172 125.44727 C 163.65159 128.73778 169.83594 130.85938 169.83594 130.85938 A 0.59530997 0.59530997 0 0 0 170.59375 130.49023 A 0.59530997 0.59530997 0 0 0 170.22266 129.73438 C 170.22266 129.73438 164.11589 127.63149 158.61133 124.41992 C 152.9514 121.11771 148.2143 117.10196 138.17383 117.70703 z M 139.80469 119.86523 C 134.55508 120.03779 128.05363 121.40397 118.88672 123.86914 C 109.92305 126.27967 98.841747 129.65278 86.998047 132.62891 C 74.444235 135.78347 62.349253 138.08898 51.830078 138.54297 C 41.310904 138.99696 32.388005 137.5873 26.142578 133.42188 A 0.59530997 0.59530997 0 0 0 25.318359 133.58789 A 0.59530997 0.59530997 0 0 0 25.482422 134.41406 C 32.058 138.79969 41.227671 140.19415 51.880859 139.73438 C 62.534048 139.2746 74.69312 136.94835 87.289062 133.7832 C 99.16871 130.79805 110.26306 127.42161 119.19531 125.01953 C 128.332 122.56248 134.7692 121.22149 139.84375 121.05469 C 144.81917 120.89115 147.92193 121.87149 150.72656 123.41992 C 153.50018 124.95123 155.92229 126.9735 158.54492 128.76172 C 163.82338 132.36075 169.83203 134.47852 169.83203 134.47852 A 0.59530997 0.59530997 0 0 0 170.5918 134.11719 A 0.59530997 0.59530997 0 0 0 170.22852 133.35742 C 170.22852 133.35742 164.32483 131.26346 159.21484 127.7793 C 156.65712 126.03533 154.2042 123.98188 151.30078 122.37891 C 148.35245 120.75114 144.95605 119.69591 139.80469 119.86523 z M 141.23242 122.14062 C 136.00124 122.15883 129.40442 123.46831 120.05664 125.99414 C 110.9104 128.46551 99.553372 132.02082 87.443359 135.23438 C 74.601626 138.6421 62.27361 141.22353 51.654297 141.87695 C 41.034983 142.53038 32.151828 141.24063 26.154297 137.05078 A 0.59530997 0.59530997 0 0 0 25.326172 137.19922 A 0.59530997 0.59530997 0 0 0 25.472656 138.02734 C 31.825938 142.46572 40.972179 143.72619 51.726562 143.06445 C 62.480946 142.40272 74.869808 139.80465 87.75 136.38672 C 99.892119 133.16464 111.25915 129.60363 120.36719 127.14258 C 129.67837 124.62663 136.20177 123.3476 141.23633 123.33008 C 146.17471 123.31292 149.14148 124.50256 151.77539 126.25781 C 154.38358 127.99593 156.60696 130.21368 159.0625 132.13672 C 164.01027 136.01148 169.82812 138.09961 169.82812 138.09961 A 0.59530997 0.59530997 0 0 0 170.58984 137.74219 A 0.59530997 0.59530997 0 0 0 170.23242 136.98047 C 170.23242 136.98047 164.55072 134.92211 159.79688 131.19922 C 157.41852 129.33663 155.17086 127.08847 152.43555 125.26562 C 149.65888 123.41524 146.36808 122.12278 141.23242 122.14062 z M 142.43555 124.56055 C 137.19517 124.42176 130.49333 125.65883 120.97266 128.21875 C 111.6526 130.72473 100.05268 134.42861 87.716797 137.84766 C 74.630937 141.47457 62.115368 144.30401 51.429688 145.15234 C 40.744007 146.00068 31.919002 144.8486 26.162109 140.67969 A 0.59530997 0.59530997 0 0 0 25.332031 140.8125 A 0.59530997 0.59530997 0 0 0 25.464844 141.64258 C 31.601873 146.08677 40.703024 147.19692 51.523438 146.33789 C 62.343851 145.47886 74.914711 142.63064 88.035156 138.99414 C 100.39913 135.56731 112.00808 131.86304 121.2832 129.36914 C 130.76093 126.82076 137.37969 125.61693 142.4043 125.75 C 147.33515 125.88058 150.21218 127.26646 152.71484 129.21289 C 155.19567 131.14235 157.25203 133.53413 159.55859 135.57227 C 164.21084 139.68311 169.82617 141.7207 169.82617 141.7207 A 0.59530997 0.59530997 0 0 0 170.58984 141.36523 A 0.59530997 0.59530997 0 0 0 170.23438 140.60156 C 170.23438 140.60156 164.78909 138.60425 160.34766 134.67969 C 158.1266 132.7171 156.04874 130.29824 153.44531 128.27344 C 150.80354 126.21881 147.58256 124.69685 142.43555 124.56055 z M 143.40234 127.15039 C 138.1277 126.85668 131.31206 128.01007 121.63086 130.57812 C 112.14984 133.09309 100.34004 136.90538 87.822266 140.49414 C 74.539771 144.30214 61.886936 147.34931 51.167969 148.38281 C 40.449002 149.41632 31.698799 148.41096 26.167969 144.30469 A 0.59530997 0.59530997 0 0 0 25.335938 144.42773 A 0.59530997 0.59530997 0 0 0 25.458984 145.25977 C 31.393044 149.66541 40.431073 150.6147 51.283203 149.56836 C 62.135333 148.52202 74.837283 145.45545 88.150391 141.63867 C 100.69216 138.04303 112.50605 134.22981 121.93555 131.72852 C 131.56761 129.17349 138.29266 128.05902 143.33594 128.33984 C 148.28745 128.61557 151.11632 130.18501 153.52734 132.30273 C 155.91929 134.4037 157.84132 136.94329 160.01953 139.07422 C 164.41625 143.37552 169.82617 145.3418 169.82617 145.3418 A 0.59530997 0.59530997 0 0 0 170.58984 144.98633 A 0.59530997 0.59530997 0 0 0 170.23438 144.22266 C 170.23438 144.22266 165.0304 142.30889 160.85352 138.22266 C 158.76538 136.17985 156.82397 133.61244 154.31445 131.4082 C 151.7691 129.17249 148.58533 127.43901 143.40234 127.15039 z M 139.79688 129.88281 C 135.13683 130.11332 129.39447 131.18635 122.02539 133.09961 C 112.39996 135.59869 100.41836 139.48171 87.765625 143.20117 C 74.337015 147.14871 61.598845 150.37972 50.878906 151.58398 C 40.158967 152.78825 31.497559 151.93342 26.171875 147.92773 A 0.59530997 0.59530997 0 0 0 25.337891 148.04688 A 0.59530997 0.59530997 0 0 0 25.455078 148.87891 C 31.205663 153.20418 40.161252 153.9865 51.011719 152.76758 C 61.862186 151.54865 74.646332 148.29911 88.101562 144.34375 C 100.77419 140.61843 112.75661 136.73603 122.32422 134.25195 C 132.0946 131.71523 138.92857 130.69898 144.01758 131.12109 C 149.0164 131.53573 151.84216 133.27189 154.20117 135.53711 C 156.54289 137.78574 158.36646 140.44316 160.43945 142.64258 C 164.62566 147.08405 169.82617 148.96289 169.82617 148.96289 A 0.59530997 0.59530997 0 0 0 170.58984 148.60742 A 0.59530997 0.59530997 0 0 0 170.23242 147.84375 C 170.23242 147.84375 165.27008 146.02934 161.30664 141.82422 C 159.3253 139.72204 157.48017 137.03493 155.02539 134.67773 C 152.53674 132.28803 149.35647 130.36834 144.11523 129.93359 C 142.78234 129.82304 141.35022 129.80598 139.79688 129.88281 z M 140.18164 132.7793 C 135.4491 132.92082 129.61477 133.92825 122.15234 135.81055 C 111.789 138.42455 100.98591 141.97511 87.556641 145.99023 C 74.034798 150.03305 61.261705 153.40916 50.572266 154.76562 C 39.882826 156.12209 31.318742 155.42184 26.171875 151.55078 A 0.59530997 0.59530997 0 0 0 25.337891 151.66797 A 0.59530997 0.59530997 0 0 0 25.455078 152.50195 C 31.046835 156.70762 39.906221 157.31985 50.722656 155.94727 C 61.539091 154.57468 74.353924 151.18045 87.898438 147.13086 C 101.34425 143.11079 112.13766 139.5643 122.44336 136.96484 C 132.33266 134.47041 139.27949 133.55569 144.43945 134.10938 C 149.51039 134.65351 152.3742 136.53833 154.7207 138.92383 C 157.05096 141.29279 158.81525 144.03511 160.80859 146.27734 C 164.83403 150.80539 169.83008 152.58594 169.83008 152.58594 A 0.59530997 0.59530997 0 0 0 170.58984 152.22656 A 0.59530997 0.59530997 0 0 0 170.23047 151.46484 C 170.23047 151.46484 165.50296 149.765 161.69922 145.48633 C 159.79706 143.34666 158.01018 140.56829 155.57031 138.08789 C 153.09802 135.57451 149.88591 133.49659 144.56641 132.92578 C 143.21417 132.78068 141.75915 132.73212 140.18164 132.7793 z M 140.28516 135.90625 C 135.4736 135.9622 129.55431 136.89845 122.01562 138.73242 C 111.64466 141.25542 100.56986 144.84695 87.201172 148.88086 C 73.640678 152.97264 60.884252 156.45099 50.255859 157.9375 C 39.627467 159.42401 31.166879 158.87436 26.167969 155.16797 A 0.59530997 0.59530997 0 0 0 25.335938 155.29297 A 0.59530997 0.59530997 0 0 0 25.458984 156.125 C 30.920588 160.17445 39.668804 160.62086 50.419922 159.11719 C 61.17104 157.61352 73.96562 154.11699 87.544922 150.01953 C 100.92658 145.9817 111.98902 142.39631 122.29688 139.88867 C 132.28282 137.45935 139.34163 136.65156 144.5957 137.32422 C 149.76154 137.98558 152.70284 139.99113 155.07617 142.4668 C 157.4337 144.92598 159.17585 147.71991 161.11719 149.97852 C 165.03585 154.53757 169.83398 156.20898 169.83398 156.20898 A 0.59530997 0.59530997 0 0 0 170.5918 155.84375 A 0.59530997 0.59530997 0 0 0 170.22656 155.08594 C 170.22656 155.08594 165.71961 153.50788 162.01953 149.20312 C 160.16775 147.04871 158.4004 144.21371 155.93555 141.64258 C 153.43918 139.03857 150.16179 136.83593 144.74609 136.14258 C 143.36995 135.9664 141.88901 135.8876 140.28516 135.90625 z M 140.10352 139.27539 C 135.20813 139.25119 129.20728 140.10962 121.61133 141.87891 C 111.2245 144.29825 99.991925 147.87448 86.703125 151.89062 C 73.159601 155.98375 60.473355 159.52196 49.935547 161.11328 C 39.397738 162.7046 31.045675 162.30091 26.160156 158.78516 A 0.59530997 0.59530997 0 0 0 25.330078 158.92188 A 0.59530997 0.59530997 0 0 0 25.464844 159.75195 C 30.827823 163.61131 39.457612 163.90013 50.113281 162.29102 C 60.768951 160.6819 73.488283 157.12698 87.046875 153.0293 C 100.34513 149.0103 111.5619 145.44065 121.88086 143.03711 C 131.93873 140.69438 139.10944 139.99503 144.47852 140.77148 C 149.75978 141.53525 152.8167 143.6364 155.25586 146.16992 C 157.67917 148.68699 159.44063 151.49984 161.35938 153.74805 C 165.22862 158.2817 169.83984 159.83203 169.83984 159.83203 A 0.59530997 0.59530997 0 0 0 170.59375 159.45898 A 0.59530997 0.59530997 0 0 0 170.2207 158.70508 C 170.2207 158.70508 165.91808 157.25654 162.26367 152.97461 C 160.43236 150.82884 158.64257 147.9709 156.11328 145.34375 C 153.55288 142.68429 150.17625 140.39121 144.64844 139.5918 C 143.24433 139.38874 141.73531 139.28346 140.10352 139.27539 z M 139.63281 142.89648 C 134.65044 142.79934 128.57791 143.57435 120.94531 145.26367 C 110.55174 147.56408 99.24605 151.07613 86.072266 155.0332 C 72.601717 159.07941 60.035975 162.63045 49.617188 164.29883 C 39.1984 165.96721 30.96001 165.7036 26.150391 162.40039 A 0.59530997 0.59530997 0 0 0 25.322266 162.55273 A 0.59530997 0.59530997 0 0 0 25.476562 163.38086 C 30.774071 167.01914 39.273374 167.15905 49.804688 165.47266 C 60.336001 163.78626 72.932034 160.22349 86.414062 156.17383 C 99.593888 152.21494 110.88138 148.71225 121.20312 146.42773 C 131.30615 144.19163 138.58145 143.59619 144.08398 144.45898 C 154.3246 146.06471 157.85426 153.36738 161.52539 157.58008 C 165.40516 162.03221 169.84766 163.45703 169.84766 163.45703 A 0.59530997 0.59530997 0 0 0 170.59766 163.07227 A 0.59530997 0.59530997 0 0 0 170.21094 162.32227 C 170.21094 162.32227 166.09036 161.00656 162.42188 156.79688 C 158.95857 152.82266 155.02008 144.96888 144.26953 143.2832 C 142.83389 143.0581 141.2936 142.92887 139.63281 142.89648 z M 138.875 146.77148 C 133.80404 146.61014 127.66691 147.30312 120.01953 148.89844 C 109.63725 151.06429 98.328982 154.46557 85.3125 158.32031 C 71.970668 162.27141 59.577213 165.78625 49.304688 167.50195 C 39.032162 169.21765 30.908124 169.08435 26.134766 166.01172 A 0.59530997 0.59530997 0 0 0 25.3125 166.18945 A 0.59530997 0.59530997 0 0 0 25.490234 167.01172 C 30.755815 170.40119 39.122609 170.40932 49.501953 168.67578 C 59.881297 166.94224 72.300487 163.41638 85.650391 159.46289 C 98.669661 155.60732 109.9563 152.21468 120.26367 150.06445 C 130.38353 147.95336 137.76216 147.46094 143.41406 148.39062 C 153.95881 150.12515 157.88326 157.40343 161.60938 161.47266 C 165.56126 165.78845 169.85938 167.08203 169.85938 167.08203 A 0.59530997 0.59530997 0 0 0 170.59961 166.68164 A 0.59530997 0.59530997 0 0 0 170.20117 165.94141 C 170.20117 165.94141 166.2321 164.75849 162.48828 160.66992 C 158.96639 156.82373 154.63688 149.03105 143.60742 147.2168 C 142.13719 146.97496 140.56532 146.82527 138.875 146.77148 z M 137.82812 150.9043 C 132.6685 150.68879 126.48114 151.29652 118.8418 152.78516 C 108.49397 154.80158 97.247323 158.05292 84.433594 161.76172 C 71.275316 165.57024 59.102267 169.00057 49.001953 170.73242 C 38.90164 172.46428 30.895214 172.44871 26.117188 169.62109 A 0.59530997 0.59530997 0 0 0 25.300781 169.83008 A 0.59530997 0.59530997 0 0 0 25.509766 170.64648 C 30.776176 173.76313 39.002001 173.65539 49.203125 171.90625 C 59.404249 170.15711 71.600525 166.71618 84.763672 162.90625 C 97.577132 159.19753 108.79948 155.95454 119.07031 153.95312 C 129.17756 151.98359 136.65029 151.59092 142.46484 152.56641 C 153.33718 154.39041 157.76529 161.54361 161.60742 165.42383 C 165.69391 169.55084 169.87109 170.70703 169.87109 170.70703 A 0.59530997 0.59530997 0 0 0 170.60352 170.29102 A 0.59530997 0.59530997 0 0 0 170.1875 169.55859 C 170.1875 169.55859 166.33489 168.50619 162.45312 164.58594 C 158.8114 160.90811 153.9878 153.29264 142.66211 151.39258 C 141.15474 151.13969 139.548 150.97613 137.82812 150.9043 z M 136.5 155.28711 C 131.25311 155.02855 125.02781 155.55501 117.41992 156.92578 C 107.13283 158.77929 96.00406 161.84334 83.439453 165.36328 C 70.518023 168.98319 58.612534 172.28013 48.708984 173.99609 C 38.805435 175.71206 30.917619 175.79983 26.09375 173.22852 A 0.59530997 0.59530997 0 0 0 25.287109 173.47461 A 0.59530997 0.59530997 0 0 0 25.533203 174.2793 C 30.831428 177.10346 38.914022 176.90227 48.912109 175.16992 C 58.910197 173.43757 70.836435 170.13021 83.759766 166.50977 C 96.321281 162.99069 107.42175 159.93516 117.63086 158.0957 C 127.69535 156.28231 135.25245 155.97964 141.24023 156.97852 C 152.45587 158.84949 157.4938 165.77807 161.51172 169.42578 C 165.79571 173.31504 169.88672 174.33203 169.88672 174.33203 A 0.59530997 0.59530997 0 0 0 170.60742 173.89648 A 0.59530997 0.59530997 0 0 0 170.17188 173.17578 C 170.17188 173.17578 166.39627 172.25242 162.3125 168.54492 C 158.4902 165.07481 153.06833 157.74525 141.43555 155.80469 C 139.88902 155.5467 138.24896 155.37329 136.5 155.28711 z M 129.24414 159.87305 C 125.25312 160.01074 120.79686 160.48555 115.76172 161.31445 C 105.56345 162.99332 94.607569 165.83516 82.337891 169.125 C 69.704434 172.51237 58.111472 175.63306 48.427734 177.30078 C 38.743996 178.9685 30.976203 179.14421 26.066406 176.83789 A 0.59530997 0.59530997 0 0 0 25.273438 177.12305 A 0.59530997 0.59530997 0 0 0 25.560547 177.91602 C 30.919079 180.43312 38.857163 180.15748 48.628906 178.47461 C 58.40065 176.79174 70.013826 173.66255 82.646484 170.27539 C 94.910528 166.98707 105.83455 164.15435 115.95508 162.48828 C 125.94641 160.84347 133.57726 160.62412 139.74609 161.62305 C 151.3128 163.49605 157.06694 170.1001 161.31836 173.47461 C 165.8629 177.08179 169.9043 177.95898 169.9043 177.95898 A 0.59530997 0.59530997 0 0 0 170.61133 177.50195 A 0.59530997 0.59530997 0 0 0 170.1543 176.79492 C 170.1543 176.79492 166.40999 175.99685 162.05859 172.54297 C 157.99598 169.31832 151.87952 162.38136 139.93555 160.44727 C 136.76127 159.93325 133.23516 159.73536 129.24414 159.87305 z M 127.31641 164.69727 C 123.30433 164.79636 118.86149 165.2046 113.87891 165.94336 C 103.79845 167.43797 93.063426 170.02795 81.132812 173.04883 C 68.835667 176.16251 57.596791 179.0611 48.154297 180.64844 C 38.711803 182.23578 31.070185 182.48018 26.037109 180.44531 A 0.59530997 0.59530997 0 0 0 25.261719 180.77539 A 0.59530997 0.59530997 0 0 0 25.589844 181.54883 C 31.034268 183.75 38.829844 183.42325 48.353516 181.82227 C 57.877188 180.22128 69.13182 177.316 81.425781 174.20312 C 93.34855 171.18424 104.05037 168.60442 114.05469 167.12109 C 123.94263 165.65502 131.63145 165.50929 137.98633 166.48438 C 149.90345 168.31293 156.48174 174.49623 161.02148 177.56055 C 165.89007 180.84683 169.92383 181.58398 169.92383 181.58398 A 0.59530997 0.59530997 0 0 0 170.61523 181.10352 A 0.59530997 0.59530997 0 0 0 170.13672 180.41211 C 170.13672 180.41211 166.37396 179.73757 161.6875 176.57422 C 157.32658 173.63061 150.41987 167.18852 138.16797 165.30859 C 134.9107 164.8088 131.32848 164.59818 127.31641 164.69727 z M 125.14258 169.74805 C 121.11729 169.81335 116.69766 170.15806 111.7832 170.80273 C 101.84974 172.10582 91.38593 174.41659 79.835938 177.13281 C 67.920039 179.9351 57.072175 182.56928 47.890625 184.04492 C 38.709075 185.52056 31.193042 185.81377 26.003906 184.05469 A 0.59530997 0.59530997 0 0 0 25.25 184.42773 A 0.59530997 0.59530997 0 0 0 25.623047 185.18359 C 31.175804 187.06594 38.824546 186.70823 48.080078 185.2207 C 57.33561 183.73317 68.196722 181.09208 80.107422 178.29102 C 91.647765 175.57706 102.07903 173.27787 111.93945 171.98438 C 121.69439 170.70473 129.42959 170.62355 135.97266 171.55078 C 148.23044 173.28786 155.73809 178.95594 160.61719 181.67773 C 165.87408 184.61028 169.94336 185.20898 169.94336 185.20898 A 0.59530997 0.59530997 0 0 0 170.61914 184.70508 A 0.59530997 0.59530997 0 0 0 170.11523 184.0293 C 170.11523 184.0293 166.28788 183.47651 161.19727 180.63672 C 156.48303 178.00689 148.68906 172.14936 136.14062 170.37109 C 132.79977 169.89766 129.16787 169.68275 125.14258 169.74805 z M 122.73438 175.00977 C 118.70418 175.04664 114.32146 175.32894 109.49023 175.87695 C 99.732547 176.98377 89.580419 178.99129 78.449219 181.37109 C 55.461766 186.28571 36.713961 190.62887 25.970703 187.66602 A 0.59530997 0.59530997 0 0 0 25.240234 188.08203 A 0.59530997 0.59530997 0 0 0 25.654297 188.81445 C 37.014463 191.94744 55.723354 187.44688 78.697266 182.53516 C 89.817506 180.1577 99.935622 178.15961 109.625 177.06055 C 119.21835 175.97237 126.98635 175.94123 133.7168 176.79688 C 146.29534 178.39601 154.83109 183.45998 160.0957 185.8125 C 165.80632 188.36432 169.96484 188.83203 169.96484 188.83203 A 0.59530997 0.59530997 0 0 0 170.62109 188.30664 A 0.59530997 0.59530997 0 0 0 170.0957 187.64844 C 170.0957 187.64844 166.14696 187.21328 160.58203 184.72656 C 155.46418 182.43962 146.69148 177.24757 133.86719 175.61719 C 130.44341 175.18192 126.76457 174.97289 122.73438 175.00977 z M 119.64453 180.44727 C 107.559 180.53195 94.105263 182.5206 76.980469 185.75391 C 54.909999 189.921 37.084929 193.69134 25.939453 191.28125 A 0.59530997 0.59530997 0 0 0 25.230469 191.73633 A 0.59530997 0.59530997 0 0 0 25.6875 192.44336 C 37.332176 194.96139 55.146313 191.08797 77.201172 186.92383 C 100.00175 182.61888 116.19029 180.54972 131.22852 182.20508 C 144.09616 183.6215 153.7633 187.99806 159.45312 189.96094 C 165.68369 192.11036 169.98242 192.45508 169.98242 192.45508 A 0.59530997 0.59530997 0 0 0 170.62305 191.91016 A 0.59530997 0.59530997 0 0 0 170.07617 191.26953 C 170.07617 191.26953 165.95087 190.94345 159.8418 188.83594 C 154.2771 186.91623 144.42793 182.46002 131.35938 181.02148 C 127.54997 180.60216 123.67304 180.41904 119.64453 180.44727 z M 116.82617 186.05273 C 104.78641 186.08078 91.787905 187.65834 75.435547 190.27344 C 54.344286 193.64639 37.475405 196.76428 25.908203 194.89648 A 0.59530997 0.59530997 0 0 0 25.224609 195.38867 A 0.59530997 0.59530997 0 0 0 25.71875 196.07227 C 37.667554 198.00167 54.548155 194.81955 75.623047 191.44922 C 97.394846 187.96744 113.12542 186.34585 128.52734 187.74609 C 141.63808 188.93804 152.53992 192.55139 158.68555 194.11133 C 165.50206 195.84155 169.99805 196.07812 169.99805 196.07812 A 0.59530997 0.59530997 0 0 0 170.625 195.51562 A 0.59530997 0.59530997 0 0 0 170.06055 194.88867 C 170.06055 194.88867 165.69959 194.66498 158.97852 192.95898 C 152.93398 191.4247 141.90237 187.76676 128.63477 186.56055 C 124.74547 186.20696 120.83943 186.04338 116.82617 186.05273 z M 113.82812 191.78711 C 101.86176 191.77757 89.363842 192.94086 73.822266 194.91211 C 53.760879 197.45663 37.868224 199.85901 25.878906 198.51367 A 0.59530997 0.59530997 0 0 0 25.220703 199.03906 A 0.59530997 0.59530997 0 0 0 25.746094 199.69727 C 38.005532 201.07291 53.926797 198.63631 73.972656 196.09375 C 94.666746 193.46898 109.88321 192.28669 125.62695 193.38867 C 138.91625 194.31886 151.16481 197.10423 157.7832 198.25586 C 165.24984 199.55509 170.01172 199.70117 170.01172 199.70117 A 0.59530997 0.59530997 0 0 0 170.625 199.12305 A 0.59530997 0.59530997 0 0 0 170.04688 198.50977 C 170.04688 198.50977 165.38567 198.37117 157.98828 197.08398 C 151.44574 195.94555 139.11452 193.13936 125.71094 192.20117 C 121.74688 191.92371 117.81691 191.79029 113.82812 191.78711 z M 110.67578 197.61328 C 98.810678 197.58615 86.849033 198.34376 72.146484 199.65625 C 53.153109 201.35178 38.245004 202.98588 25.853516 202.13281 A 0.59530997 0.59530997 0 0 0 25.21875 202.68555 A 0.59530997 0.59530997 0 0 0 25.771484 203.32031 C 38.331544 204.18498 53.273282 202.53619 72.253906 200.8418 C 91.83531 199.09377 106.49453 198.3345 122.55078 199.09961 C 135.92831 199.73707 149.66129 201.63955 156.74805 202.38672 C 164.92571 203.24891 170.02148 203.32227 170.02148 203.32227 A 0.59530997 0.59530997 0 0 0 170.625 202.73438 A 0.59530997 0.59530997 0 0 0 170.03906 202.13086 C 170.03906 202.13086 165.00649 202.06065 156.87305 201.20312 C 149.83666 200.46127 136.05869 198.55113 122.60742 197.91016 C 118.57539 197.71802 114.63082 197.62232 110.67578 197.61328 z M 95.666016 203.5957 C 87.786983 203.74569 79.646936 204.05254 70.416016 204.48633 C 52.516591 205.32747 38.582858 206.1557 25.832031 205.75391 A 0.59530997 0.59530997 0 0 0 25.21875 206.33008 A 0.59530997 0.59530997 0 0 0 25.794922 206.94336 C 38.624345 207.34763 52.578956 206.51656 70.470703 205.67578 C 88.919757 204.80881 102.9845 204.44669 119.31641 204.8418 C 132.65312 205.16444 148.05654 206.13618 155.57227 206.49414 C 164.51738 206.92017 170.02734 206.94336 170.02734 206.94336 A 0.59530997 0.59530997 0 0 0 170.625 206.35156 A 0.59530997 0.59530997 0 0 0 170.0332 205.75391 C 170.0332 205.75391 164.55297 205.72972 155.62891 205.30469 C 148.13831 204.94793 132.71801 203.97389 119.3457 203.65039 C 111.16267 203.45242 103.54505 203.44572 95.666016 203.5957 z M 25.8125 209.375 A 0.59530997 0.59530997 0 0 0 25.21875 209.9707 A 0.59530997 0.59530997 0 0 0 25.8125 210.56445 C 73.904564 210.57445 170.0293 210.56445 170.0293 210.56445 A 0.59530997 0.59530997 0 0 0 170.625 209.9707 A 0.59530997 0.59530997 0 0 0 170.0293 209.375 C 170.0293 209.375 73.90407 209.385 25.8125 209.375 z "
       id="path924" />
  </g>
</svg>
