<?xml version="1.0" encoding="UTF-8" standalone="no"?>
<svg
   xmlns:dc="http://purl.org/dc/elements/1.1/"
   xmlns:cc="http://creativecommons.org/ns#"
   xmlns:rdf="http://www.w3.org/1999/02/22-rdf-syntax-ns#"
   xmlns:svg="http://www.w3.org/2000/svg"
   xmlns="http://www.w3.org/2000/svg"
   xmlns:xlink="http://www.w3.org/1999/xlink"
   xmlns:sodipodi="http://sodipodi.sourceforge.net/DTD/sodipodi-0.dtd"
   xmlns:inkscape="http://www.inkscape.org/namespaces/inkscape"
   inkscape:export-ydpi="96"
   inkscape:export-xdpi="96"
   inkscape:export-filename="/home/rajesh/Documents/dax/Aqua-Octagon.png"
   sodipodi:docname="Aqua-Octagon.svg"
   inkscape:version="1.0 (6e3e5246a0, 2020-05-07)"
   id="svg914"
   version="1.1"
   viewBox="0 0 210 297"
   height="297mm"
   width="210mm">
  <defs
     id="defs908">
    <linearGradient
       id="linearGradient1532"
       inkscape:collect="always">
      <stop
         id="stop1528"
         offset="0"
         style="stop-color:#0000ff;stop-opacity:1;" />
      <stop
         id="stop1530"
         offset="1"
         style="stop-color:#00ffff;stop-opacity:1" />
    </linearGradient>
    <linearGradient
       id="linearGradient1494"
       inkscape:collect="always">
      <stop
         id="stop1490"
         offset="0"
         style="stop-color:#0000ff;stop-opacity:1;" />
      <stop
         id="stop1492"
         offset="1"
         style="stop-color:#00ffff;stop-opacity:1" />
    </linearGradient>
    <linearGradient
       gradientUnits="userSpaceOnUse"
       y2="448.8125"
       x2="477.35742"
       y1="448.8125"
       x1="213.5625"
       id="linearGradient1496"
       xlink:href="#linearGradient1494"
       inkscape:collect="always" />
    <linearGradient
       gradientTransform="matrix(0.18708867,-0.18708867,0.18708867,0.18708867,-76.638774,90.232377)"
       y2="448.8125"
       x2="477.35742"
       y1="448.8125"
       x1="213.5625"
       gradientUnits="userSpaceOnUse"
       id="linearGradient1500"
       xlink:href="#linearGradient1494"
       inkscape:collect="always" />
    <linearGradient
       y2="448.8125"
       x2="477.35742"
       y1="448.8125"
       x1="213.5625"
       gradientTransform="matrix(0,-0.26458333,0.26458333,0,-67.026647,208.2281)"
       gradientUnits="userSpaceOnUse"
       id="linearGradient1504"
       xlink:href="#linearGradient1494"
       inkscape:collect="always" />
    <linearGradient
       y2="448.8125"
       x2="477.35742"
       y1="448.8125"
       x1="213.5625"
       gradientTransform="matrix(-0.18708867,-0.18708867,0.18708867,-0.18708867,23.20548,284.8674)"
       gradientUnits="userSpaceOnUse"
       id="linearGradient1508"
       xlink:href="#linearGradient1494"
       inkscape:collect="always" />
    <linearGradient
       y2="448.8125"
       x2="477.35742"
       y1="448.8125"
       x1="213.5625"
       gradientTransform="matrix(-0.26458333,0,0,-0.26458333,141.20116,275.25519)"
       gradientUnits="userSpaceOnUse"
       id="linearGradient1512"
       xlink:href="#linearGradient1494"
       inkscape:collect="always" />
    <linearGradient
       y2="448.8125"
       x2="477.35742"
       y1="448.8125"
       x1="213.5625"
       gradientTransform="matrix(-0.18708867,0.18708867,-0.18708867,-0.18708867,217.83985,185.02279)"
       gradientUnits="userSpaceOnUse"
       id="linearGradient1516"
       xlink:href="#linearGradient1494"
       inkscape:collect="always" />
    <linearGradient
       y2="448.8125"
       x2="477.35742"
       y1="448.8125"
       x1="213.5625"
       gradientTransform="matrix(0,0.26458333,-0.26458333,0,208.22764,67.027079)"
       gradientUnits="userSpaceOnUse"
       id="linearGradient1520"
       xlink:href="#linearGradient1494"
       inkscape:collect="always" />
    <linearGradient
       y2="448.8125"
       x2="477.35742"
       y1="448.8125"
       x1="213.5625"
       gradientTransform="matrix(0.18708867,0.18708867,-0.18708867,0.18708867,117.99594,-9.6115435)"
       gradientUnits="userSpaceOnUse"
       id="linearGradient1524"
       xlink:href="#linearGradient1494"
       inkscape:collect="always" />
    <radialGradient
       gradientUnits="userSpaceOnUse"
       r="52.5"
       fy="520.5"
       fx="267"
       cy="520.5"
       cx="267"
       id="radialGradient1534"
       xlink:href="#linearGradient1532"
       inkscape:collect="always" />
  </defs>
  <sodipodi:namedview
     inkscape:window-maximized="1"
     inkscape:window-y="27"
     inkscape:window-x="74"
     inkscape:window-height="1016"
     inkscape:window-width="1846"
     showborder="false"
     showgrid="false"
     inkscape:document-rotation="0"
     inkscape:current-layer="layer1"
     inkscape:document-units="mm"
     inkscape:cy="560"
     inkscape:cx="376"
     inkscape:zoom="1"
     inkscape:pageshadow="2"
     inkscape:pageopacity="0.0"
     borderopacity="1.0"
     bordercolor="#666666"
     pagecolor="#ffffff"
     id="base" />
  <metadata
     id="metadata911">
    <rdf:RDF>
      <cc:Work
         rdf:about="">
        <dc:format>image/svg+xml</dc:format>
        <dc:type
           rdf:resource="http://purl.org/dc/dcmitype/StillImage" />
        <dc:title></dc:title>
      </cc:Work>
    </rdf:RDF>
  </metadata>
  <g
     id="layer1"
     inkscape:groupmode="layer"
     inkscape:label="Layer 1">
    <path
       transform="scale(0.26458333)"
       d="M 291.36719 355.70312 L 213.94531 432.58398 L 213.5625 541.69336 L 213.79102 541.92188 L 213.94531 497.7168 L 291.36719 420.83594 L 400.47656 421.2207 L 477.12891 498.41211 L 477.35742 433.50977 L 400.47656 356.08789 L 291.36719 355.70312 z "
       inkscape:transform-center-y="-2.0168693e-06"
       style="fill:url(#linearGradient1496);stroke-width:1.11051;fill-opacity:1"
       id="path1483" />
    <path
       inkscape:transform-center-x="-3.1361094"
       id="path1498"
       style="fill:url(#linearGradient1500);fill-opacity:1;stroke-width:0.293822"
       inkscape:transform-center-y="7.2063822"
       d="m 44.420747,102.2689 -0.101219,28.86829 20.341509,20.48475 h 0.08551 l -8.241403,-8.29913 0.101219,-28.8683 L 77.091473,94.11337 105.8739,94.21422 93.774156,82.028979 64.90586,81.92776 Z" />
    <path
       d="m 27.086469,131.13719 20.341391,20.48454 28.868524,0.10129 0.06047,-0.0605 -11.695923,-0.0408 -20.341403,-20.48453 0.101802,-28.86852 20.423561,-20.280936 -17.172078,-0.06046 -20.48454,20.341392 z"
       inkscape:transform-center-y="1.2e-06"
       style="fill:url(#linearGradient1504);fill-opacity:1;stroke-width:0.293822"
       id="path1502"
       inkscape:transform-center-x="1.1e-06" />
    <path
       inkscape:transform-center-x="-7.2063819"
       id="path1506"
       style="fill:url(#linearGradient1508);fill-opacity:1;stroke-width:0.293822"
       inkscape:transform-center-y="-3.1360898"
       d="m 35.241998,163.80787 28.868292,0.10122 20.484752,-20.3415 -2.1e-5,-0.0855 -8.299116,8.24141 -28.868294,-0.1012 -20.341142,-20.48511 0.100851,-28.78243 -12.185244,12.09974 -0.101221,28.8683 z" />
    <path
       d="m 64.110254,181.14207 20.484538,-20.34139 0.101294,-28.86852 -0.06047,-0.0604 -0.0408,11.69592 -20.484526,20.34141 -28.86852,-0.1018 -20.280939,-20.42357 -0.06046,17.17208 20.341396,20.48455 z"
       inkscape:transform-center-y="4.02e-05"
       style="fill:url(#linearGradient1512);fill-opacity:1;stroke-width:0.293822"
       id="path1510"
       inkscape:transform-center-x="-1.855e-05" />
    <path
       inkscape:transform-center-x="3.1360715"
       id="path1514"
       style="fill:url(#linearGradient1516);fill-opacity:1;stroke-width:0.293822"
       inkscape:transform-center-y="-7.2063648"
       d="m 96.780326,172.98626 0.101221,-28.86829 -20.341501,-20.48475 -0.08547,5e-5 8.241415,8.29912 -0.101199,28.86829 -20.485109,20.34115 -28.782435,-0.10086 12.099743,12.18525 28.868303,0.10122 z" />
    <path
       d="m 114.11453,144.11798 -20.341394,-20.48454 -28.868519,-0.10129 -0.0604,0.0605 11.695925,0.0408 20.341405,20.48452 -0.101795,28.86853 -20.423573,20.28094 17.172083,0.0605 20.484548,-20.3414 z"
       inkscape:transform-center-y="2.02e-05"
       style="fill:url(#linearGradient1520);fill-opacity:1;stroke-width:0.293822"
       id="path1518"
       inkscape:transform-center-x="-3.75e-05" />
    <path
       inkscape:transform-center-x="7.20634"
       id="path1522"
       style="fill:url(#linearGradient1524);fill-opacity:1;stroke-width:0.293822"
       inkscape:transform-center-y="3.1360902"
       d="m 105.95942,111.44798 -28.868293,-0.10122 -20.484748,20.3415 7e-5,0.0855 8.299118,-8.24142 28.868289,0.1012 20.341154,20.48511 -0.10085,28.78244 12.18527,-12.09972 0.10122,-28.8683 z" />
    <path
       transform="scale(0.26458333)"
       id="path1526"
       d="M 230.23828,557.23863 214.5,541.47726 V 519.97653 498.4758 L 229.76173,483.2379 245.02346,468 h 22.00037 22.00037 l 15.2379,15.26173 15.2379,15.26173 v 21.49999 21.49999 L 303.73863,557.26172 287.97726,573 h -21.00035 -21.00035 z"
       style="opacity:1;fill:url(#radialGradient1534);fill-opacity:1" />
  </g>
</svg>
