<?xml version="1.0" encoding="UTF-8" standalone="no"?>
<svg
   xmlns:dc="http://purl.org/dc/elements/1.1/"
   xmlns:cc="http://creativecommons.org/ns#"
   xmlns:rdf="http://www.w3.org/1999/02/22-rdf-syntax-ns#"
   xmlns:svg="http://www.w3.org/2000/svg"
   xmlns="http://www.w3.org/2000/svg"
   xmlns:sodipodi="http://sodipodi.sourceforge.net/DTD/sodipodi-0.dtd"
   xmlns:inkscape="http://www.inkscape.org/namespaces/inkscape"
   sodipodi:docname="Book.svg"
   inkscape:version="1.0 (6e3e5246a0, 2020-05-07)"
   id="svg4626"
   version="1.1"
   viewBox="0 0 210 297"
   height="1122.5197"
   width="793.70081">
  <defs
     id="defs4620" />
  <sodipodi:namedview
     inkscape:window-maximized="1"
     inkscape:window-y="27"
     inkscape:window-x="74"
     inkscape:window-height="1016"
     inkscape:window-width="1846"
     inkscape:snap-nodes="true"
     inkscape:snap-intersection-paths="true"
     showborder="true"
     units="px"
     showgrid="false"
     inkscape:document-rotation="0"
     inkscape:current-layer="layer1"
     inkscape:document-units="px"
     inkscape:cy="417.33194"
     inkscape:cx="245.17048"
     inkscape:zoom="1"
     inkscape:pageshadow="2"
     inkscape:pageopacity="0.0"
     borderopacity="1.0"
     bordercolor="#666666"
     pagecolor="#ffffff"
     id="base" />
  <metadata
     id="metadata4623">
    <rdf:RDF>
      <cc:Work
         rdf:about="">
        <dc:format>image/svg+xml</dc:format>
        <dc:type
           rdf:resource="http://purl.org/dc/dcmitype/StillImage" />
        <dc:title></dc:title>
      </cc:Work>
    </rdf:RDF>
  </metadata>
  <g
     id="layer1"
     inkscape:groupmode="layer"
     inkscape:label="Layer 1">
    <g
       style="stroke-width:1.29826"
       transform="matrix(0.77026355,0,0,0.77026355,70.690261,32.153152)"
       id="g5271">
      <path
         id="path5261"
         d="m 76.044142,34.015665 c 11.626356,0.0089 21.777493,3.259031 31.649388,6.178952 14.95602,4.423709 29.09144,8.25782 48.59443,1.261422 l 5.55722,-1.995228 v 11.825118 l -8.43089,0.372586 c -18.95906,5.20187 -34.20134,1.289349 -47.97047,-2.783292 -9.965136,-2.94749 -19.260042,-5.841773 -29.405232,-5.849771 -5.357601,-0.0041 -11.013942,0.852228 -17.20984,2.899047 v 6.018753 H 50.397831 V 39.443758 l 2.795524,-1.069702 c 8.216866,-3.14234 15.788666,-4.363792 22.850787,-4.358391 z"
         style="opacity:1;fill:#282828;fill-opacity:1;stroke:none;stroke-width:0.343497px;stroke-linecap:butt;stroke-linejoin:miter;stroke-opacity:1" />
      <path
         id="path5208"
         style="color:#000000;font-style:normal;font-variant:normal;font-weight:normal;font-stretch:normal;font-size:medium;line-height:normal;font-family:sans-serif;font-variant-ligatures:normal;font-variant-position:normal;font-variant-caps:normal;font-variant-numeric:normal;font-variant-alternates:normal;font-variant-east-asian:normal;font-feature-settings:normal;font-variation-settings:normal;text-indent:0;text-align:start;text-decoration:none;text-decoration-line:none;text-decoration-style:solid;text-decoration-color:#000000;letter-spacing:normal;word-spacing:normal;text-transform:none;writing-mode:lr-tb;direction:ltr;text-orientation:mixed;dominant-baseline:auto;baseline-shift:baseline;text-anchor:start;white-space:normal;shape-padding:0;shape-margin:0;inline-size:0;clip-rule:nonzero;display:inline;overflow:visible;visibility:visible;opacity:1;isolation:auto;mix-blend-mode:normal;color-interpolation:sRGB;color-interpolation-filters:linearRGB;solid-color:#000000;solid-opacity:1;vector-effect:none;fill:#000000;fill-opacity:1;fill-rule:evenodd;stroke:none;stroke-width:12.0224;stroke-linecap:butt;stroke-linejoin:miter;stroke-miterlimit:4;stroke-dasharray:none;stroke-dashoffset:0;stroke-opacity:1;color-rendering:auto;image-rendering:auto;shape-rendering:auto;text-rendering:auto;enable-background:accumulate;stop-color:#000000;stop-opacity:1"
         d="m 76.044122,38.280866 c -7.062106,-0.0054 -14.633915,1.216049 -22.850785,4.358391 L 50.397834,43.70896 V 173.8576 l 5.63741,-2.15645 c 7.332119,-2.80398 13.841539,-3.83479 20.003331,-3.83026 10.145418,0.008 19.440212,2.9023 29.405235,5.84977 15.09933,4.46608 31.91597,8.87166 53.52767,1.1188 l 2.87369,-1.0294 V 43.726012 l -5.55721,1.995228 c -19.50301,6.996406 -33.63843,3.162282 -48.59443,-1.261422 -9.871917,-2.91992 -20.023035,-6.170083 -31.649408,-6.178952 z m -0.0056,9.009787 c 10.145206,0.0078 19.440096,2.902278 29.405238,5.849771 13.76912,4.072644 29.01138,7.985165 47.97046,2.783292 V 167.16964 c -18.01026,5.62204 -31.52424,2.06895 -45.72074,-2.1301 -9.872026,-2.91997 -20.023248,-6.16908 -31.649411,-6.17844 -5.415856,-0.004 -11.138559,0.73532 -17.215392,2.48719 V 50.189701 c 6.195911,-2.046817 11.852257,-2.903146 17.209845,-2.899048 z m 0.0056,7.979357 c -3.421565,-0.0026 -6.964033,0.286129 -10.640262,0.938446 v 9.191685 c 3.706396,-0.776554 7.231246,-1.123465 10.634715,-1.120862 10.145207,0.0078 19.440096,2.902797 29.405235,5.850289 12.14009,3.590804 25.42709,7.053025 41.39533,4.257622 V 65.370685 C 131.99006,68.387795 120.12366,65.125044 107.69353,61.448444 97.821613,58.528526 87.670495,55.278879 76.044122,55.27001 Z m 0,21.671545 C 72.622557,76.938909 69.080089,77.227688 65.40386,77.88 v 9.191686 c 3.706396,-0.776555 7.231246,-1.123466 10.634715,-1.12086 10.145207,0.0078 19.440096,2.902794 29.405235,5.850287 12.14009,3.590803 25.42709,7.053024 41.39533,4.257622 V 87.042232 C 131.99006,90.059337 120.12366,86.796588 107.69353,83.119991 97.821613,80.200068 87.670495,76.950426 76.044122,76.941555 Z m 0,21.671547 c -3.421565,-0.003 -6.964033,0.286133 -10.640262,0.938442 v 9.191686 c 3.706396,-0.77656 7.231246,-1.12347 10.634715,-1.12086 10.145207,0.008 19.440096,2.9028 29.405235,5.85029 12.14009,3.5908 25.42709,7.05303 41.39533,4.25762 v -9.0165 c -14.84908,3.01711 -26.71548,-0.24565 -39.14561,-3.92224 -9.871917,-2.91993 -20.023035,-6.16958 -31.649408,-6.178438 z m 0,21.671548 c -3.421565,-0.003 -6.964033,0.28613 -10.640262,0.93844 v 9.19169 c 3.706396,-0.77656 7.231246,-1.12346 10.634715,-1.12087 10.145207,0.008 19.440096,2.9028 29.405235,5.85029 12.14009,3.5908 25.42709,7.05304 41.39533,4.25763 v -9.01651 c -14.84908,3.01711 -26.71548,-0.24564 -39.14561,-3.92224 -9.871917,-2.91992 -20.023035,-6.16957 -31.649408,-6.17843 z m 0,21.67102 c -3.421565,-0.003 -6.964033,0.28614 -10.640262,0.93845 v 9.19169 c 3.706396,-0.77656 7.231246,-1.12348 10.634715,-1.12087 10.145207,0.008 19.440096,2.90279 29.405235,5.85029 12.14009,3.5908 25.42709,7.05302 41.39533,4.25762 v -9.0165 c -14.84908,3.01711 -26.71548,-0.24564 -39.14561,-3.92224 -9.871917,-2.91992 -20.023035,-6.16956 -31.649408,-6.17844 z" />
      <path
         style="opacity:1;fill:#282828;fill-opacity:1;stroke:none;stroke-width:0.343497px;stroke-linecap:butt;stroke-linejoin:miter;stroke-opacity:1"
         d="m 24.751952,34.015665 c -11.626292,0.0089 -21.7773649,3.259031 -31.6492007,6.178952 -14.9559723,4.423709 -29.0913923,8.25782 -48.5943793,1.261422 l -5.557216,-1.995228 v 11.825118 l 8.430888,0.372586 c 18.959057,5.20187 34.201342,1.289349 47.9704045,-2.783292 9.9650743,-2.94749 19.2599255,-5.841773 29.4050575,-5.849771 5.357571,-0.0041 11.01388,0.852228 17.209743,2.899047 v 6.018753 h 8.430868 V 39.443758 L 47.60261,38.374056 C 39.385791,35.231716 31.814032,34.010264 24.751952,34.015665 Z"
         id="path5265" />
      <path
         d="m 24.751543,38.280866 c 7.062102,-0.0054 14.633912,1.216049 22.850787,4.358391 l 2.795505,1.069703 V 173.8576 l -5.637414,-2.15645 c -7.332115,-2.80398 -13.841541,-3.83479 -20.003334,-3.83026 -10.145414,0.008 -19.4402129,2.9023 -29.4052315,5.84977 -15.0993265,4.46608 -31.9159675,8.87166 -53.5276745,1.1188 l -2.873687,-1.0294 V 43.726012 l 5.557209,1.995228 c 19.503008,6.996406 33.63843,3.162282 48.5944325,-1.261422 9.8719168,-2.91992 20.0230315,-6.170083 31.6494075,-6.178952 z m 0.0059,9.009787 C 14.6122,47.298453 5.3173036,50.192931 -4.6478322,53.140424 -18.416958,57.213068 -33.659222,61.125589 -52.618297,55.923716 V 167.16964 c 18.010253,5.62204 31.524238,2.06895 45.7207449,-2.1301 9.8720242,-2.91997 20.0232461,-6.16908 31.6494071,-6.17844 5.415855,-0.004 11.138562,0.73532 17.215394,2.48719 V 50.189701 C 35.771331,48.142884 30.114991,47.286555 24.757399,47.290653 Z m -0.0059,7.979357 c 3.421565,-0.0026 6.964032,0.286129 10.640265,0.938446 v 9.191685 c -3.706395,-0.776554 -7.231253,-1.123465 -10.634721,-1.120862 -10.1452,0.0078 -19.4400958,2.902797 -29.4052315,5.850289 -12.1400875,3.590804 -25.4270925,7.053025 -41.3953325,4.257622 v -9.016505 c 14.849085,3.01711 26.715482,-0.245641 39.1456125,-3.922241 C 2.9740523,58.528526 13.125167,55.278879 24.751543,55.27001 Z m 0,21.671545 c 3.421565,-0.0026 6.964032,0.286133 10.640265,0.938445 v 9.191686 c -3.706395,-0.776555 -7.231253,-1.123466 -10.634721,-1.12086 -10.1452,0.0078 -19.4400958,2.902794 -29.4052315,5.850287 -12.1400875,3.590803 -25.4270925,7.053024 -41.3953325,4.257622 v -9.016503 c 14.849085,3.017105 26.715482,-0.245644 39.1456125,-3.922241 9.8719168,-2.919923 20.0230315,-6.169565 31.6494075,-6.178436 z m 0,21.671547 c 3.421565,-0.003 6.964032,0.286133 10.640265,0.938442 v 9.191686 c -3.706395,-0.77656 -7.231253,-1.12347 -10.634721,-1.12086 -10.1452,0.008 -19.4400958,2.9028 -29.4052315,5.85029 -12.1400875,3.5908 -25.4270925,7.05303 -41.3953325,4.25762 v -9.0165 c 14.849085,3.01711 26.715482,-0.24565 39.1456125,-3.92224 9.8719168,-2.91993 20.0230315,-6.16958 31.6494075,-6.178438 z m 0,21.671548 c 3.421565,-0.003 6.964032,0.28613 10.640265,0.93844 v 9.19169 c -3.706395,-0.77656 -7.231253,-1.12346 -10.634721,-1.12087 -10.1452,0.008 -19.4400958,2.9028 -29.4052315,5.85029 -12.1400875,3.5908 -25.4270925,7.05304 -41.3953325,4.25763 v -9.01651 c 14.849085,3.01711 26.715482,-0.24564 39.1456125,-3.92224 9.8719168,-2.91992 20.0230315,-6.16957 31.6494075,-6.17843 z m 0,21.67102 c 3.421565,-0.003 6.964032,0.28614 10.640265,0.93845 v 9.19169 c -3.706395,-0.77656 -7.231253,-1.12348 -10.634721,-1.12087 -10.1452,0.008 -19.4400958,2.90279 -29.4052315,5.85029 -12.1400875,3.5908 -25.4270925,7.05302 -41.3953325,4.25762 v -9.0165 c 14.849085,3.01711 26.715482,-0.24564 39.1456125,-3.92224 9.8719168,-2.91992 20.0230315,-6.16956 31.6494075,-6.17844 z"
         style="color:#000000;font-style:normal;font-variant:normal;font-weight:normal;font-stretch:normal;font-size:medium;line-height:normal;font-family:sans-serif;font-variant-ligatures:normal;font-variant-position:normal;font-variant-caps:normal;font-variant-numeric:normal;font-variant-alternates:normal;font-variant-east-asian:normal;font-feature-settings:normal;font-variation-settings:normal;text-indent:0;text-align:start;text-decoration:none;text-decoration-line:none;text-decoration-style:solid;text-decoration-color:#000000;letter-spacing:normal;word-spacing:normal;text-transform:none;writing-mode:lr-tb;direction:ltr;text-orientation:mixed;dominant-baseline:auto;baseline-shift:baseline;text-anchor:start;white-space:normal;shape-padding:0;shape-margin:0;inline-size:0;clip-rule:nonzero;display:inline;overflow:visible;visibility:visible;opacity:1;isolation:auto;mix-blend-mode:normal;color-interpolation:sRGB;color-interpolation-filters:linearRGB;solid-color:#000000;solid-opacity:1;vector-effect:none;fill:#000000;fill-opacity:1;fill-rule:evenodd;stroke:none;stroke-width:12.0224;stroke-linecap:butt;stroke-linejoin:miter;stroke-miterlimit:4;stroke-dasharray:none;stroke-dashoffset:0;stroke-opacity:1;color-rendering:auto;image-rendering:auto;shape-rendering:auto;text-rendering:auto;enable-background:accumulate;stop-color:#000000;stop-opacity:1"
         id="path5230" />
    </g>
  </g>
</svg>
