<?xml version="1.0" encoding="UTF-8" standalone="no"?>
<svg
   xmlns:dc="http://purl.org/dc/elements/1.1/"
   xmlns:cc="http://creativecommons.org/ns#"
   xmlns:rdf="http://www.w3.org/1999/02/22-rdf-syntax-ns#"
   xmlns:svg="http://www.w3.org/2000/svg"
   xmlns="http://www.w3.org/2000/svg"
   xmlns:sodipodi="http://sodipodi.sourceforge.net/DTD/sodipodi-0.dtd"
   xmlns:inkscape="http://www.inkscape.org/namespaces/inkscape"
   sodipodi:docname="Calendar.svg"
   inkscape:version="1.0 (6e3e5246a0, 2020-05-07)"
   width="793.70081"
   height="1122.5197"
   viewBox="0 0 210 297"
   version="1.1"
   id="svg8">
  <defs
     id="defs2">
    <rect
       id="rect987"
       height="71.659997"
       width="410.50369"
       y="110.99633"
       x="-121.584" />
    <rect
       x="-121.584"
       y="110.99633"
       width="410.50369"
       height="71.659997"
       id="rect1017" />
    <rect
       x="-121.584"
       y="110.99633"
       width="410.50369"
       height="71.659997"
       id="rect1040" />
    <rect
       x="-121.584"
       y="110.99633"
       width="410.50369"
       height="71.659997"
       id="rect1046" />
  </defs>
  <sodipodi:namedview
     inkscape:snap-nodes="true"
     inkscape:snap-smooth-nodes="true"
     inkscape:snap-intersection-paths="true"
     inkscape:object-paths="true"
     inkscape:window-maximized="1"
     inkscape:window-y="27"
     inkscape:window-x="74"
     inkscape:window-height="1016"
     inkscape:window-width="1846"
     units="px"
     showborder="true"
     showgrid="false"
     inkscape:document-rotation="0"
     inkscape:current-layer="layer1"
     inkscape:document-units="px"
     inkscape:cy="1114.3633"
     inkscape:cx="284.03383"
     inkscape:zoom="0.40529061"
     inkscape:pageshadow="2"
     inkscape:pageopacity="0.0"
     borderopacity="1.0"
     bordercolor="#666666"
     pagecolor="#ffffff"
     id="base" />
  <metadata
     id="metadata5">
    <rdf:RDF>
      <cc:Work
         rdf:about="">
        <dc:format>image/svg+xml</dc:format>
        <dc:type
           rdf:resource="http://purl.org/dc/dcmitype/StillImage" />
        <dc:title></dc:title>
      </cc:Work>
    </rdf:RDF>
  </metadata>
  <g
     id="layer1"
     inkscape:groupmode="layer"
     inkscape:label="Layer 1">
    <path
       d="m 31.11413,152.77873 v 49.57475 c 0,14.29036 11.50444,25.79482 25.79481,25.79482 h 97.89997 c 14.29036,0 25.7948,-11.50446 25.7948,-25.79482 v -49.57475 z"
       style="opacity:1;fill:#0098ff;fill-opacity:1;fill-rule:evenodd;stroke-width:0.264581"
       id="path970" />
    <path
       sodipodi:nodetypes="sssssssss"
       id="path952"
       style="opacity:1;fill:#007ed5;fill-opacity:1;fill-rule:evenodd;stroke-width:0.264581"
       d="m 56.90902,78.034039 h 97.89981 c 14.29036,0 25.79488,11.50451 25.79488,25.794881 v 77.02491 c 0,14.29036 -11.50452,25.79488 -25.79488,25.79488 H 56.90902 c -14.290367,0 -25.794886,-11.50452 -25.794886,-25.79488 v -77.02491 c 0,-14.290371 11.504519,-25.794881 25.794886,-25.794881 z" />
    <path
       d="m 56.908789,77.409239 c -14.290369,0 -25.794809,11.50444 -25.794809,25.794811 v 48.94998 h 149.48958 v -48.94998 c 0,-14.290371 -11.50444,-25.794811 -25.79481,-25.794811 z"
       style="opacity:1;fill:#d4d4d4;fill-opacity:1;fill-rule:evenodd;stroke-width:0.264581"
       id="path940" />
    <path
       sodipodi:nodetypes="ccccccc"
       d="m 36.851616,107.61931 c -1.882544,0.13941 -3.815884,0.26135 -5.737635,0.41548 v 6.44248 H 180.60356 v -6.68433 c -0.86034,-0.0565 -1.72594,-0.1114 -2.56625,-0.17363 z"
       style="opacity:1;fill:#9e9e9e;fill-opacity:1;stroke:none;stroke-width:0.264583px;stroke-linecap:butt;stroke-linejoin:miter;stroke-opacity:1"
       id="path973" />
    <path
       sodipodi:nodetypes="caccacc"
       d="m 36.851616,113.43394 c -10.453066,0.7741 -22.48487,0.96982 -25.274942,9.53069 -3.6817935,11.29696 19.537307,29.8142 19.537307,29.8142 H 180.60356 c 0,0 25.81613,-18.23912 22.21984,-30.21159 -2.53307,-8.43287 -14.62931,-8.38114 -24.78609,-9.1333 z"
       style="opacity:1;fill:#0056b2;fill-opacity:1;stroke:none;stroke-width:0.264583px;stroke-linecap:butt;stroke-linejoin:miter;stroke-opacity:1"
       id="path873" />
    <path
       d="m 87.694245,83.969079 a 6.7416785,6.7416785 0 0 0 -6.70915,6.7417 6.7416785,6.7416785 0 0 0 6.741707,6.74171 6.7416785,6.7416785 0 0 0 6.741705,-6.74171 6.7416785,6.7416785 0 0 0 -6.741705,-6.7417 6.7416785,6.7416785 0 0 0 -0.03256,0 z m 36.263415,0 a 6.7416785,6.7416785 0 0 0 -6.70863,6.7417 6.7416785,6.7416785 0 0 0 6.74171,6.74171 6.7416785,6.7416785 0 0 0 6.74171,-6.74171 6.7416785,6.7416785 0 0 0 -6.74171,-6.7417 6.7416785,6.7416785 0 0 0 -0.0331,0 z"
       style="fill:#666666;fill-rule:evenodd;stroke-width:0.264583"
       id="path978" />
    <text
       transform="matrix(12.699282,0,0,12.699282,1620.6058,-1329.7553)"
       style="font-style:normal;font-variant:normal;font-weight:normal;font-stretch:normal;font-size:10.5833px;line-height:1.25;font-family:Georgia;-inkscape-font-specification:Georgia;white-space:pre;shape-inside:url(#rect987);fill:#ffcc00;fill-opacity:1;stroke-width:0.0787446;"
       id="text985"
       xml:space="preserve"><tspan
         x="-121.58398"
         y="120.54456"><tspan
           style="font-style:normal;font-variant:normal;font-weight:normal;font-stretch:normal;font-family:Georgia;-inkscape-font-specification:Georgia;fill:#ffcc00;fill-opacity:1;stroke-width:0.0787446">1</tspan></tspan></text>
  </g>
</svg>
