<?xml version="1.0" encoding="UTF-8" standalone="no"?>
<svg
   xmlns:dc="http://purl.org/dc/elements/1.1/"
   xmlns:cc="http://creativecommons.org/ns#"
   xmlns:rdf="http://www.w3.org/1999/02/22-rdf-syntax-ns#"
   xmlns:svg="http://www.w3.org/2000/svg"
   xmlns="http://www.w3.org/2000/svg"
   xmlns:sodipodi="http://sodipodi.sourceforge.net/DTD/sodipodi-0.dtd"
   xmlns:inkscape="http://www.inkscape.org/namespaces/inkscape"
   width="793.70081"
   height="1122.5197"
   viewBox="0 0 210 297"
   version="1.1"
   id="svg8"
   inkscape:version="1.0.2 (e86c870879, 2021-01-15, custom)"
   sodipodi:docname="Candy-Canes.svg">
  <defs
     id="defs2">
    <inkscape:path-effect
       effect="skeletal"
       id="path-effect860"
       is_visible="true"
       lpeversion="1"
       pattern="m 272.87946,146.88405 a 7.011458,28.310416 0 0 0 -1.07177,15.04094 7.011458,28.310416 0 0 0 1.07126,15.04095 h 5.63893 a 7.011458,28.310416 0 0 1 -1.07125,-15.04095 7.011458,28.310416 0 0 1 1.07176,-15.04094 z"
       copytype="repeated"
       prop_scale="1"
       scale_y_rel="false"
       spacing="0"
       normal_offset="0"
       tang_offset="0"
       prop_units="false"
       vertical_pattern="false"
       hide_knot="false"
       fuse_tolerance="0" />
  </defs>
  <sodipodi:namedview
     id="base"
     pagecolor="#ffffff"
     bordercolor="#666666"
     borderopacity="1.0"
     inkscape:pageopacity="0.0"
     inkscape:pageshadow="2"
     inkscape:zoom="1"
     inkscape:cx="400"
     inkscape:cy="540"
     inkscape:document-units="mm"
     inkscape:current-layer="layer1"
     inkscape:document-rotation="0"
     showgrid="false"
     units="px"
     showborder="true"
     inkscape:object-nodes="false"
     inkscape:window-width="1920"
     inkscape:window-height="1017"
     inkscape:window-x="-8"
     inkscape:window-y="-8"
     inkscape:window-maximized="1" />
  <metadata
     id="metadata5">
    <rdf:RDF>
      <cc:Work
         rdf:about="">
        <dc:format>image/svg+xml</dc:format>
        <dc:type
           rdf:resource="http://purl.org/dc/dcmitype/StillImage" />
        <dc:title></dc:title>
      </cc:Work>
    </rdf:RDF>
  </metadata>
  <g
     inkscape:label="Layer 1"
     inkscape:groupmode="layer"
     id="layer1">
    <g
       id="g1054"
       transform="rotate(-30,108.61138,189.48608)">
      <g
         id="g1043">
        <path
           id="path966"
           style="color:#000000;font-style:normal;font-variant:normal;font-weight:normal;font-stretch:normal;font-size:medium;line-height:normal;font-family:sans-serif;font-variant-ligatures:normal;font-variant-position:normal;font-variant-caps:normal;font-variant-numeric:normal;font-variant-alternates:normal;font-variant-east-asian:normal;font-feature-settings:normal;font-variation-settings:normal;text-indent:0;text-align:start;text-decoration:none;text-decoration-line:none;text-decoration-style:solid;text-decoration-color:#000000;letter-spacing:normal;word-spacing:normal;text-transform:none;writing-mode:lr-tb;direction:ltr;text-orientation:mixed;dominant-baseline:auto;baseline-shift:baseline;text-anchor:start;white-space:normal;shape-padding:0;shape-margin:0;inline-size:0;clip-rule:nonzero;display:inline;overflow:visible;visibility:visible;opacity:1;isolation:auto;mix-blend-mode:normal;color-interpolation:sRGB;color-interpolation-filters:linearRGB;solid-color:#000000;solid-opacity:1;vector-effect:none;fill:#ff0000;fill-opacity:1;fill-rule:nonzero;stroke:none;stroke-width:3.77953;stroke-linecap:round;stroke-linejoin:round;stroke-miterlimit:4;stroke-dasharray:none;stroke-dashoffset:0;stroke-opacity:1;color-rendering:auto;image-rendering:auto;shape-rendering:auto;text-rendering:auto;enable-background:accumulate;stop-color:#000000;stop-opacity:1"
           d="m 403.48047,189.80273 c -3.7005,0.0269 -7.38666,0.18867 -11.04492,0.48047 a 11.906703,11.906703 0 0 0 -2.21485,0.39063 11.906703,11.906703 0 0 0 -0.006,0 c -77.17439,7.30121 -149.57148,72.96544 -149.57226,166.49219 v 87.99804 c -0.002,15.8343 6.34703,31.16544 17.54687,42.36524 11.19982,11.1998 26.52899,17.5491 42.36328,17.54687 15.83454,-10e-4 31.1696,-6.35666 42.36524,-17.55469 11.19478,-11.19711 17.54132,-26.52301 17.53906,-42.35742 v -87.99804 c 1.4e-4,-17.16208 5.46895,-27.86675 13.11914,-35.25 7.65019,-7.38325 18.13878,-11.38406 28.38281,-12.20118 10.33108,-0.82405 14.61278,0.89977 19.61329,5.75 5.16975,5.01446 11.10696,12.98525 11.00585,40.07618 -8.92482,125.18074 -31.48286,293.21003 1.5879,437.05273 3.54897,15.4334 13.1767,28.9505 26.59765,37.35156 13.42235,8.40201 29.78973,11.15446 45.22071,7.60352 15.42788,-3.54849 28.94305,-13.16882 37.3457,-26.58985 8.404,-13.42325 11.14831,-29.78538 7.60156,-45.21289 -25.51189,-110.96511 -7.81371,-273.5104 1.38086,-404.38086 a 11.906703,11.906703 0 0 0 0,-0.0293 l 0.0234,-0.53125 a 11.906703,11.906703 0 0 0 0.006,-0.27344 v -0.0137 c 0.0496,-0.90028 0.10248,-1.80428 0.11132,-2.70313 v -0.008 c 4e-5,-0.003 -3e-5,-0.003 0,-0.006 0.56285,-52.05076 -15.90083,-97.71821 -47.46484,-128.33398 -28.51661,-27.65986 -65.73629,-39.92445 -101.50781,-39.66407 z m 0.0781,11.90821 c 32.95029,-0.2443 67.08159,11.02851 93.13868,36.30273 28.80196,27.9367 44.38785,70.18385 43.84961,119.66797 v 0.008 c -0.009,0.94413 -0.0463,1.88618 -0.11133,2.82813 a 13.001302,13.001302 0 0 1 0,0.0137 c -9.16558,130.45786 -27.44106,293.33957 -1.10743,407.87891 2.81538,12.24612 0.57815,25.58006 -6.08984,36.23046 -6.66799,10.65041 -17.67996,18.48808 -29.92578,21.30469 -12.24748,2.81836 -25.57783,0.57838 -36.23047,-6.08984 C 456.4294,813.18725 448.586,802.17567 445.76953,789.92773 413.38234,649.05813 435.55382,481.7272 444.5,355.85156 c 0.15579,-29.3714 -7.35057,-41.86638 -14.63867,-48.93554 -7.27143,-7.05297 -16.19282,-10.08168 -28.84766,-9.07227 -25.27343,2.01594 -52.46256,19.56954 -52.46289,59.32227 v 87.99804 c 0.002,12.56697 -5.16945,25.05626 -14.05469,33.94336 -8.88523,8.88711 -21.37641,14.06163 -33.94336,14.0625 -12.56863,0.002 -25.06185,-5.16927 -33.94921,-14.05664 -8.88737,-8.88733 -14.05648,-21.38059 -14.05469,-33.94922 v -87.99804 c 7.3e-4,-88.23693 68.89139,-149.27533 140.83203,-155.01368 3.37311,-0.26905 6.76908,-0.41613 10.17773,-0.4414 z"
           transform="scale(0.26458333)" />
        <path
           id="path963"
           style="color:#000000;font-style:normal;font-variant:normal;font-weight:normal;font-stretch:normal;font-size:medium;line-height:normal;font-family:sans-serif;font-variant-ligatures:normal;font-variant-position:normal;font-variant-caps:normal;font-variant-numeric:normal;font-variant-alternates:normal;font-variant-east-asian:normal;font-feature-settings:normal;font-variation-settings:normal;text-indent:0;text-align:start;text-decoration:none;text-decoration-line:none;text-decoration-style:solid;text-decoration-color:#000000;letter-spacing:normal;word-spacing:normal;text-transform:none;writing-mode:lr-tb;direction:ltr;text-orientation:mixed;dominant-baseline:auto;baseline-shift:baseline;text-anchor:start;white-space:normal;shape-padding:0;shape-margin:0;inline-size:0;clip-rule:nonzero;display:inline;overflow:visible;visibility:visible;opacity:1;isolation:auto;mix-blend-mode:normal;color-interpolation:sRGB;color-interpolation-filters:linearRGB;solid-color:#000000;solid-opacity:1;vector-effect:none;fill:#ffd5d5;fill-opacity:1;fill-rule:nonzero;stroke:none;stroke-width:3.77953;stroke-linecap:round;stroke-linejoin:round;stroke-miterlimit:4;stroke-dasharray:none;stroke-dashoffset:0;stroke-opacity:1;color-rendering:auto;image-rendering:auto;shape-rendering:auto;text-rendering:auto;enable-background:accumulate;stop-color:#000000;stop-opacity:1"
           d="m 403.55859,201.71094 c -1.52672,0.0113 -3.04958,0.0547 -4.57031,0.11523 1.52084,-0.0602 3.04347,-0.10391 4.57031,-0.11523 z m 3.30664,0.0156 c 3.24038,0.0537 6.48986,0.22039 9.73829,0.49805 -3.24858,-0.27768 -6.49777,-0.4462 -9.73829,-0.49805 z m 9.73829,0.49805 c -71.6585,6.1146 -140.05396,67.02261 -140.05469,154.94141 v 87.99804 c -0.002,12.56863 5.16732,25.06189 14.05469,33.94922 6.02298,6.02299 13.70507,10.33274 21.9414,12.48828 8.2405,-2.15646 15.92584,-6.46753 21.95117,-12.49414 8.88524,-8.8871 14.05648,-21.37639 14.05469,-33.94336 V 357.166 c 3.3e-4,-39.75273 27.18946,-57.30633 52.46289,-59.32227 5.94615,-0.47429 11.06028,-0.0437 15.57422,1.26367 2.80624,-0.61334 5.62701,-1.04043 8.42578,-1.26367 1.58186,-0.12618 3.10494,-0.18944 4.57422,-0.18945 10.28493,-7e-5 17.91093,3.09037 24.27344,9.26172 7.2881,7.06916 14.79446,19.56414 14.63867,48.93554 -8.94618,125.87564 -31.11766,293.20658 1.26953,434.07617 2.81647,12.24794 10.65987,23.25952 21.3125,29.92774 4.17777,2.61515 8.77032,4.53695 13.54492,5.75195 11.71527,-3.06101 22.18348,-10.69995 28.61133,-20.9668 6.66799,-10.6504 8.90522,-23.98434 6.08984,-36.23046 -26.33363,-114.53934 -8.05815,-277.42105 1.10743,-407.87891 a 13.001302,13.001302 0 0 0 0,-0.0137 c 0.065,-0.94195 0.10225,-1.884 0.11133,-2.82813 v -0.008 c 0.53824,-49.48412 -15.04765,-91.73127 -43.84961,-119.66797 -22.62906,-21.94919 -51.3475,-33.33194 -80.09375,-35.78906 z m -104.0586,289.37695 c -0.96744,0.25317 -1.94289,0.47635 -2.92383,0.66992 0.98164,-0.19289 1.95581,-0.41659 2.92383,-0.66992 z m 85.36133,-289.72851 c -1.51189,0.0718 -3.02169,0.15935 -4.52539,0.27929 1.50357,-0.11993 3.01363,-0.20782 4.52539,-0.27929 z m 22.31055,98.53125 c 0.0271,0.0116 0.055,0.0215 0.082,0.0332 -0.027,-0.0117 -0.055,-0.0216 -0.082,-0.0332 z m 1.6914,0.78906 c 0.0499,0.0252 0.1007,0.0488 0.15039,0.0742 -0.0497,-0.0254 -0.10051,-0.0491 -0.15039,-0.0742 z m 1.58203,0.85937 c 0.0915,0.0533 0.18447,0.10392 0.27539,0.15821 -0.091,-0.0542 -0.18386,-0.10502 -0.27539,-0.15821 z m 1.56446,0.97657 c 0.10738,0.0716 0.21757,0.13793 0.32422,0.21093 -0.10671,-0.0728 -0.21678,-0.13953 -0.32422,-0.21093 z m 1.56836,1.11328 c 0.0982,0.0744 0.19931,0.1431 0.29687,0.21875 -0.0977,-0.0756 -0.1986,-0.14447 -0.29687,-0.21875 z M 272.75391,484.26562 c 1.01941,0.71867 2.05862,1.4091 3.13086,2.04688 -1.07184,-0.63761 -2.11182,-1.32846 -3.13086,-2.04688 z m 36.71679,8.03321 c -0.85667,0.16624 -1.71771,0.30447 -2.58203,0.42383 0.86421,-0.11843 1.72549,-0.25834 2.58203,-0.42383 z m -3.25,0.50781 c -0.72109,0.0892 -1.44542,0.15925 -2.16992,0.21484 0.725,-0.055 1.44832,-0.12636 2.16992,-0.21484 z m -3.04101,0.28125 c -0.18683,0.0108 -0.37359,0.0208 -0.56055,0.0293 0.18695,-0.008 0.37373,-0.0186 0.56055,-0.0293 z"
           transform="scale(0.26458333)" />
      </g>
      <g
         id="g1035">
        <path
           id="path943"
           style="opacity:1;fill:#ff0000;stroke:none;stroke-width:0.999999;stroke-linecap:round;stroke-linejoin:round;stroke-miterlimit:4;stroke-dasharray:none;stroke-opacity:1"
           d="m 403.69922,217.09375 c -1.41732,0.0106 -2.83264,0.0416 -4.24414,0.0937 4.86588,17.12539 6.17716,36.45484 6.02148,56.78711 -0.0274,3.57873 -0.10619,7.14941 -0.20312,10.70898 6.6036,0.006 12.75477,1.06419 18.36328,3.18555 1.00877,-3.73807 2.0006,-7.49697 2.93945,-11.27734 4.90118,-19.73611 8.11393,-38.75917 7.14649,-56.60157 -10.04954,-2.01871 -20.10207,-2.97001 -30.02344,-2.89648 z m -49.16406,8.3418 c -3.52055,1.17218 -6.98939,2.47026 -10.41016,3.875 -1.59224,0.79645 -3.17098,1.62431 -4.73633,2.48242 -0.003,0.002 -0.005,0.004 -0.008,0.006 -4.14154,3.05732 -8.15064,6.32258 -11.99805,9.79687 11.05257,12.45202 20.58135,27.82724 29.36914,44.50782 2.09845,3.98326 4.24456,8.23471 6.38867,12.58203 5.14265,-3.82316 10.73021,-6.86152 16.52149,-9.11524 -1.06054,-3.96022 -2.12946,-7.84036 -3.19336,-11.46875 -5.70996,-19.47282 -12.53867,-37.60823 -21.93359,-52.66601 z m -19.20508,8.67968 c -0.38364,0.22688 -0.76471,0.45887 -1.14649,0.68946 0.38184,-0.2306 0.76279,-0.46256 1.14649,-0.68946 z m -4.21289,2.59375 c -0.36626,0.23388 -0.73328,0.46581 -1.09766,0.70313 0.36438,-0.2373 0.7314,-0.46927 1.09766,-0.70313 z m 148.10547,3.25586 c -5.3477,16.46361 -14.83057,32.55206 -25.98047,48.64063 -2.81141,4.05659 -5.68353,8.03924 -8.56055,11.98633 3.37865,1.51929 6.39982,3.62786 9.17969,6.32422 1.39585,1.35392 2.7978,2.91366 4.15429,4.74609 3.62881,-2.86509 7.25733,-5.76143 10.85547,-8.74609 13.48707,-11.18782 25.78238,-22.81789 35.10352,-35.67579 -4.78909,-7.33409 -10.24276,-13.99387 -16.32617,-19.89453 -2.71131,-2.62985 -5.52818,-5.0834 -8.42578,-7.38086 z m -184.45508,29.91602 c 0.92647,0.61361 1.8501,1.24285 2.76953,1.88476 -0.91987,-0.64059 -1.84301,-1.27112 -2.76953,-1.88476 z m 2.76953,1.88476 c 0.91943,0.64192 1.83467,1.29649 2.74805,1.9629 -0.91333,-0.66637 -1.82828,-1.32236 -2.74805,-1.9629 z m 2.74805,1.9629 c -5.2252,8.26644 -9.71946,17.1347 -13.34766,26.55078 10.75912,5.25253 21.50213,11.8019 32.25391,19.10351 6.73017,4.57062 13.32291,9.3117 19.71484,14.00391 1.76414,-5.84378 4.16826,-11.15524 7.08203,-15.9375 -4.33974,-4.8669 -8.7508,-9.7135 -13.07422,-14.25586 -10.52358,-11.05621 -21.3346,-21.22441 -32.6289,-29.46484 z m -21.64649,22.75 c 1.42066,0.59831 2.83986,1.23662 4.25977,1.88476 -1.41963,-0.65379 -2.83924,-1.28651 -4.25977,-1.88476 z m 243.52539,13.16992 c -11.55762,6.99399 -24.77822,12.91247 -38.70703,18.25 -5.54226,2.12372 -11.11545,4.12444 -16.63867,6.04883 0.91357,5.04967 1.49695,10.9299 1.63672,17.80859 7.02947,-1.01467 14.1148,-2.12044 20.99804,-3.38281 13.13365,-2.40885 25.81732,-5.37678 37.47461,-9.23438 -0.81431,-10.33502 -2.41682,-20.1877 -4.76367,-29.49023 z m -53.70898,42.10742 c -3.67619,0.53064 -7.34085,1.04423 -10.94531,1.52539 3.60446,-0.48116 7.26912,-0.99475 10.94531,-1.52539 z M 267.12109,335.33984 c 1.72983,0.29518 3.4689,0.62143 5.21485,0.97266 -1.74529,-0.34888 -3.48496,-0.67747 -5.21485,-0.97266 z m 5.58789,1.05078 c 1.66606,0.33847 3.33732,0.6964 5.01563,1.07813 -1.67825,-0.38171 -3.35031,-0.74192 -5.01563,-1.07813 z m 5.01563,1.07813 c -0.77212,6.39998 -1.17573,12.96839 -1.17578,19.69727 v 6.75586 c 8.11783,0.44937 16.4395,1.30336 24.89258,2.44531 10.94246,1.47837 22.87772,3.56597 34.10937,5.60742 v -14.80859 c 0,-0.28821 0.0169,-0.56511 0.0195,-0.85157 -9.74661,-3.73866 -19.94688,-7.55524 -29.30859,-10.68945 -9.65033,-3.23071 -19.1888,-6.03 -28.53711,-8.15625 z m -6.81445,26.20508 c 0.10711,0.003 0.21506,0.008 0.32226,0.0117 -0.10728,-0.004 -0.21506,-0.008 -0.32226,-0.0117 z m 196.01953,13.08008 c -0.52279,6.68309 -1.08258,13.53134 -1.64649,20.40429 8.39942,0.91632 17.07596,1.60342 25.85352,2.01953 11.36281,0.53853 22.60267,0.60418 33.35547,0.22852 0.58699,-7.57988 1.15393,-15.07756 1.70508,-22.48437 -10.83228,0.9507 -22.18989,1.20364 -33.76954,0.98046 -8.46909,-0.16332 -17.07831,-0.59527 -25.49804,-1.14843 z m -1.64649,20.40429 c -1.70671,-0.18618 -3.40073,-0.3838 -5.08398,-0.58789 1.68186,0.20531 3.37708,0.40168 5.08398,0.58789 z m -164.85937,-1.41211 c -8.08227,-8e-5 -16.07534,0.24918 -23.875,0.69532 v 21.3125 c 7.79966,-0.44614 15.79273,-0.6954 23.875,-0.69532 12.02015,2.7e-4 23.88037,0.51172 35.12695,1.48047 v -21.3125 c -11.24658,-0.96874 -23.10678,-1.48017 -35.12695,-1.48047 z m 154.03125,0.0859 c 1.70999,0.23493 3.44085,0.45683 5.18164,0.67188 -1.74247,-0.21381 -3.47161,-0.43694 -5.18164,-0.67188 z m -177.92383,0.61133 c -1.51392,0.0867 -3.01854,0.17855 -4.51563,0.28125 1.4996,-0.0992 3.00245,-0.19466 4.51563,-0.28125 z m -4.51563,21.59375 c -2.1748,0.14382 -4.33722,0.29857 -6.46679,0.48047 2.12889,-0.18184 4.29741,-0.33165 6.46679,-0.48047 z M 462.87891,426.25 c -0.57916,6.9685 -1.15178,14.03354 -1.72852,21.14258 8.45291,1.03429 17.19101,1.83637 26.03906,2.36328 11.35843,0.67623 22.60447,0.87942 33.36328,0.64258 0.54481,-7.17042 1.08747,-14.29958 1.63868,-21.37696 -10.74291,0.27957 -21.97069,0.11896 -33.31446,-0.51367 -8.83191,-0.49263 -17.55625,-1.25959 -25.99804,-2.25781 z m -1.72852,21.14258 c -1.69113,-0.20693 -3.36933,-0.42417 -5.03711,-0.64844 1.66644,0.22584 3.3458,0.44149 5.03711,0.64844 z m -10.78125,-1.46485 c 1.70156,0.25739 3.42399,0.50081 5.15625,0.73829 -1.73389,-0.23587 -3.45464,-0.48089 -5.15625,-0.73829 z m 8.49414,30.74024 c -0.52999,7.06174 -1.05738,14.12528 -1.54687,21.28125 8.42451,1.04247 17.13193,1.84914 25.94921,2.38476 11.46803,0.6965 22.82652,0.91222 33.67969,0.68555 0.45966,-7.10345 0.95484,-14.16334 1.45313,-21.22461 -10.80645,0.21585 -22.10844,-0.0102 -33.52149,-0.71289 -8.83964,-0.5443 -17.56934,-1.36178 -26.01367,-2.41406 z m -12.31836,19.79883 c 1.76173,0.26981 3.54545,0.52546 5.33985,0.77343 -1.79636,-0.24671 -3.57763,-0.50355 -5.33985,-0.77343 z m 5.33985,0.77343 c 1.78837,0.24715 3.59304,0.48208 5.41015,0.70704 -1.81657,-0.22488 -3.62087,-0.46129 -5.41015,-0.70704 z m -2,29.48047 c 0.15841,0.0211 0.3179,0.0416 0.47656,0.0625 -0.1584,-0.021 -0.3184,-0.0413 -0.47656,-0.0625 z m 5.58984,0.70508 c -0.40071,7.11493 -0.76189,14.26206 -1.08789,21.43164 8.29687,0.939 16.85982,1.64383 25.5293,2.08594 11.67417,0.59518 23.23722,0.69578 34.25781,0.35156 0.31093,-7.02472 0.65182,-14.05285 1.03125,-21.08008 -10.94225,0.27957 -22.40927,0.11403 -33.98633,-0.53906 -8.74478,-0.49342 -17.38155,-1.25424 -25.74414,-2.25 z m -1.08789,21.43164 c -1.69293,-0.19159 -3.3727,-0.39338 -5.04297,-0.60351 1.66889,0.21142 3.34991,0.4119 5.04297,0.60351 z m -10.8086,-1.375 c 1.71017,0.2445 3.44146,0.47597 5.18165,0.69922 -1.74187,-0.22192 -3.47137,-0.4547 -5.18165,-0.69922 z m 3.95118,30.42578 c 0.30122,0.0351 0.60421,0.0691 0.90625,0.10352 -0.30164,-0.0346 -0.60544,-0.0682 -0.90625,-0.10352 z m 5.76367,0.62891 c -0.19795,7.18388 -0.33877,14.37913 -0.42774,21.58203 8.08082,0.73565 16.40186,1.24327 24.82618,1.49805 11.93882,0.36092 23.76358,0.2111 34.99023,-0.38281 0.096,-6.95687 0.23996,-13.93673 0.43555,-20.93946 -11.13413,0.47237 -22.84019,0.49821 -34.66016,0.0215 -8.54107,-0.34455 -16.97812,-0.94605 -25.16406,-1.7793 z m -11.29883,20.43945 c 1.74047,0.21029 3.50158,0.40612 5.27148,0.59375 -1.77158,-0.18627 -3.53082,-0.38343 -5.27148,-0.59375 z m 5.63672,0.63086 c 1.72384,0.18103 3.46056,0.35048 5.20898,0.50977 -1.74815,-0.15925 -3.48398,-0.33011 -5.20898,-0.50977 z m 64.97852,30.39649 c -11.38647,0.82167 -23.41006,1.20318 -35.54688,1.06445 -8.21158,-0.094 -16.3129,-0.44378 -24.20703,-1.00391 0.0871,7.27329 0.22505,14.54396 0.45898,21.80078 7.73259,0.40614 15.6552,0.60847 23.6836,0.56055 12.29632,-0.0735 24.4802,-0.6775 35.99023,-1.71484 -0.19828,-6.85257 -0.31445,-13.7628 -0.3789,-20.70703 z m -59.29493,21.86132 c -1.52347,-0.08 -3.03696,-0.17032 -4.54687,-0.26367 1.50727,0.0974 3.0226,0.18362 4.54687,0.26367 z m 60.92969,27.17774 c -11.68776,1.41071 -24.11293,2.39684 -36.65234,2.83984 -7.73032,0.27304 -15.36383,0.30875 -22.83203,0.14844 0.46999,7.31587 1.03286,14.60762 1.6914,21.86914 7.2574,-0.0373 14.66276,-0.26314 22.15625,-0.7168 12.72596,-0.77057 25.32322,-2.10282 37.14063,-3.83984 -0.58935,-6.69353 -1.08795,-13.4642 -1.50391,-20.30078 z m -70.41211,2.61328 c 2.05016,0.10508 4.12754,0.18259 6.2168,0.24805 -2.08378,-0.0709 -4.16756,-0.14302 -6.2168,-0.24805 z m 7.89844,22.24219 c 1.55964,0.0117 3.1291,0.01 4.70508,0.002 -1.57544,0.008 -3.14276,0.005 -4.70508,-0.002 z m 67.04883,23.09961 c -11.99041,2.27273 -24.82825,4.17566 -37.82227,5.48828 -7.14599,0.72178 -14.21624,1.22953 -21.16211,1.55859 0.96679,7.30487 2.0435,14.5667 3.2461,21.77539 6.70588,-0.55232 13.52081,-1.27725 20.40039,-2.20312 13.19571,-1.7761 26.21443,-4.16294 38.32421,-6.88867 -1.10771,-6.47252 -2.10098,-13.05304 -2.98632,-19.73047 z m -63.68946,7.24414 c -2.0469,0.071 -4.09218,0.14032 -6.10937,0.17578 2.01718,-0.0355 4.05849,-0.0992 6.10937,-0.17578 z m 7.84571,21.58593 c -1.5626,0.12841 -3.11886,0.24801 -4.66993,0.35938 1.5491,-0.10739 3.10669,-0.23106 4.66993,-0.35938 z m 64.15039,17.64844 c -12.25832,3.44389 -25.52655,6.60345 -39.00196,9.125 -6.4803,1.21251 -12.9126,2.24167 -19.25586,3.11133 0.31134,1.40595 0.61936,2.81406 0.94141,4.21484 1.37618,5.98457 3.95876,11.66942 7.47656,16.70118 5.01945,-0.95113 10.08656,-2.01125 15.17774,-3.18164 10.72203,-2.46501 21.29555,-5.34065 31.32226,-8.41016 a 34.999936,34.999936 0 0 0 3.33985,-21.56055 z m -63.01758,12.86328 c -1.88548,0.23332 -3.76956,0.46427 -5.63281,0.66407 1.86367,-0.19985 3.74417,-0.42521 5.63281,-0.66407 z"
           transform="scale(0.26458333)" />
        <path
           id="path1005"
           style="color:#000000;font-style:normal;font-variant:normal;font-weight:normal;font-stretch:normal;font-size:medium;line-height:normal;font-family:sans-serif;font-variant-ligatures:normal;font-variant-position:normal;font-variant-caps:normal;font-variant-numeric:normal;font-variant-alternates:normal;font-variant-east-asian:normal;font-feature-settings:normal;font-variation-settings:normal;text-indent:0;text-align:start;text-decoration:none;text-decoration-line:none;text-decoration-style:solid;text-decoration-color:#000000;letter-spacing:normal;word-spacing:normal;text-transform:none;writing-mode:lr-tb;direction:ltr;text-orientation:mixed;dominant-baseline:auto;baseline-shift:baseline;text-anchor:start;white-space:normal;shape-padding:0;shape-margin:0;inline-size:0;clip-rule:nonzero;display:inline;overflow:visible;visibility:visible;opacity:1;isolation:auto;mix-blend-mode:normal;color-interpolation:sRGB;color-interpolation-filters:linearRGB;solid-color:#000000;solid-opacity:1;vector-effect:none;fill:#d40000;fill-opacity:1;fill-rule:nonzero;stroke:none;stroke-width:3.77953;stroke-linecap:round;stroke-linejoin:round;stroke-miterlimit:4;stroke-dasharray:none;stroke-dashoffset:0;stroke-opacity:1;color-rendering:auto;image-rendering:auto;shape-rendering:auto;text-rendering:auto;enable-background:accumulate;stop-color:#000000;stop-opacity:1"
           d="m 339.38867,231.79297 c -4.57865,2.50998 -9.03834,5.28077 -13.35156,8.29687 0.45254,0.49443 0.89822,1.00172 1.3457,1.50586 3.84984,-3.47649 7.86154,-6.74374 12.00586,-9.80273 z m -44.62109,38.08789 c -6.25331,8.10793 -11.6898,17.00244 -16.12891,26.59766 2.76787,1.16569 5.53361,2.45081 8.29883,3.80078 3.6282,-9.41608 8.12246,-18.28434 13.34766,-26.55078 -1.82675,-1.33281 -3.66463,-2.62044 -5.51758,-3.84766 z m 149.91406,30.71094 c -0.46061,0.63193 -0.91807,1.27267 -1.37891,1.90234 3.02597,3.84856 5.82024,8.53279 8.10938,14.35742 2.19379,-1.71078 4.39965,-3.44941 6.60351,-5.18945 -1.3565,-1.83243 -2.75844,-3.39217 -4.15429,-4.74609 -2.77987,-2.69636 -5.80104,-4.80493 -9.17969,-6.32422 z m 22.13672,33.35547 c -3.47753,1.21162 -6.9399,2.39906 -10.34766,3.54882 0.61461,4.78638 0.97873,10.03071 1.03907,15.78516 3.60446,-0.48116 7.26912,-0.99475 10.94531,-1.52539 -0.13977,-6.87869 -0.72315,-12.75892 -1.63672,-17.80859 z m -199.69727,1.39257 c -1.02941,7.04166 -1.5722,14.32286 -1.57226,21.82618 v 6.40234 c 3.61574,0.0183 7.28875,0.14808 11,0.35352 v -6.75586 c 5e-5,-6.72888 0.40366,-13.29729 1.17578,-19.69727 -3.56314,-0.81043 -7.10114,-1.53127 -10.60352,-2.12891 z m 188.91016,40.63477 c -0.50475,6.52213 -1.03279,13.16164 -1.57617,19.85742 3.54248,0.48669 7.16165,0.92619 10.82812,1.32617 0.56391,-6.87295 1.1237,-13.7212 1.64649,-20.40429 -3.67717,-0.24159 -7.32694,-0.49844 -10.89844,-0.7793 z m -179.48242,20.4668 c -3.7137,0.21242 -7.39629,0.45585 -11,0.76367 v 21.3125 c 3.60371,-0.30782 7.2863,-0.55125 11,-0.76367 z m 175.5332,28.38671 c -0.57393,6.96185 -1.14036,14.00406 -1.71289,21.09961 3.52701,0.53351 7.1302,1.01811 10.78125,1.46485 0.57674,-7.10904 1.14936,-14.17408 1.72852,-21.14258 -3.65601,-0.43231 -7.26508,-0.903 -10.79688,-1.42188 z m -3.98828,50.34961 c -0.52994,7.06725 -1.05783,14.13403 -1.54883,21.28907 3.52444,0.53976 7.1238,1.03105 10.77149,1.48242 0.48949,-7.15597 1.01688,-14.21951 1.54687,-21.28125 -3.64725,-0.4545 -7.24601,-0.94822 -10.76953,-1.49024 z m -3.41211,50.8125 c -0.4062,7.13703 -0.77078,14.30738 -1.10352,21.49219 3.53782,0.5058 7.14997,0.96094 10.8086,1.375 0.326,-7.16958 0.68718,-14.31671 1.08789,-21.43164 -3.65403,-0.43509 -7.26129,-0.91009 -10.79297,-1.43555 z m -2.22656,51.29102 c -0.20707,7.22573 -0.36281,14.45884 -0.46094,21.69531 3.5613,0.43029 7.19373,0.80781 10.87109,1.14258 0.089,-7.2029 0.22979,-14.39815 0.42774,-21.58203 -3.66694,-0.37326 -7.28886,-0.78876 -10.83789,-1.25586 z m -0.50586,51.86914 c 0.0794,7.34557 0.21241,14.68392 0.4414,22.00195 3.57994,0.29463 7.23689,0.51925 10.92383,0.71289 -0.23393,-7.25682 -0.37189,-14.52749 -0.45898,-21.80078 -3.68297,-0.26132 -7.33422,-0.55423 -10.90625,-0.91406 z m 1.88281,52.50586 c 0.47463,7.42044 1.04416,14.80979 1.71485,22.16016 3.57992,0.0884 7.22884,0.10286 10.90429,0.084 -0.65854,-7.26152 -1.22141,-14.55327 -1.6914,-21.86914 -3.68542,-0.0791 -7.34283,-0.19125 -10.92774,-0.375 z m 15.96289,52.38867 c -3.64189,0.17254 -7.25999,0.31057 -10.81445,0.37305 1.00245,7.43999 2.13325,14.82186 3.38672,22.14258 3.51171,-0.18468 7.08161,-0.44437 10.67383,-0.74024 -1.2026,-7.20869 -2.27931,-14.47052 -3.2461,-21.77539 z m 9.0332,51.66797 c -3.49432,0.47907 -6.96866,0.92387 -10.39257,1.29102 7.4e-4,0.003 0.001,0.007 0.002,0.01 a 34.999936,34.999936 0 0 0 13.65625,20.55664 c 1.71092,-0.30075 3.42906,-0.61486 5.15234,-0.9414 -3.5178,-5.03176 -6.10038,-10.71661 -7.47656,-16.70118 -0.32205,-1.40078 -0.63007,-2.80889 -0.94141,-4.21484 z"
           transform="scale(0.26458333)" />
      </g>
      <g
         id="g1039">
        <path
           id="path975"
           style="color:#000000;font-style:normal;font-variant:normal;font-weight:normal;font-stretch:normal;font-size:medium;line-height:normal;font-family:sans-serif;font-variant-ligatures:normal;font-variant-position:normal;font-variant-caps:normal;font-variant-numeric:normal;font-variant-alternates:normal;font-variant-east-asian:normal;font-feature-settings:normal;font-variation-settings:normal;text-indent:0;text-align:start;text-decoration:none;text-decoration-line:none;text-decoration-style:solid;text-decoration-color:#000000;letter-spacing:normal;word-spacing:normal;text-transform:none;writing-mode:lr-tb;direction:ltr;text-orientation:mixed;dominant-baseline:auto;baseline-shift:baseline;text-anchor:start;white-space:normal;shape-padding:0;shape-margin:0;inline-size:0;clip-rule:nonzero;display:inline;overflow:visible;visibility:visible;opacity:1;isolation:auto;mix-blend-mode:normal;color-interpolation:sRGB;color-interpolation-filters:linearRGB;solid-color:#000000;solid-opacity:1;vector-effect:none;fill:#ffa7a7;fill-opacity:1;fill-rule:nonzero;stroke:none;stroke-width:3.77953;stroke-linecap:round;stroke-linejoin:round;stroke-miterlimit:4;stroke-dasharray:none;stroke-dashoffset:0;stroke-opacity:1;color-rendering:auto;image-rendering:auto;shape-rendering:auto;text-rendering:auto;enable-background:accumulate;stop-color:#000000;stop-opacity:1"
           d="m 406.71094,201.72461 c 0.27713,0.004 0.55478,0.0157 0.83203,0.0215 -0.27721,-0.006 -0.55494,-0.0172 -0.83203,-0.0215 z m -14.56641,0.54101 c -71.49122,6.33505 -139.59498,67.16939 -139.5957,154.9004 v 87.99804 c -0.002,12.56863 5.16732,25.06189 14.05469,33.94922 5.90119,5.9012 13.39611,10.15181 21.44336,12.34961 4.19936,-1.147 8.24549,-2.8587 11.99609,-5.06641 -3.43356,-2.02346 -6.61978,-4.46352 -9.43945,-7.2832 -8.88737,-8.88733 -14.05648,-21.38059 -14.05469,-33.94922 v -27.41015 c -3.7137,0.21242 -7.39629,0.45585 -11,0.76367 v -21.3125 c 3.60371,-0.30782 7.2863,-0.55125 11,-0.76367 v -32.51953 c -3.71125,-0.20544 -7.38426,-0.33526 -11,-0.35352 v -6.40234 c 6e-5,-7.50332 0.54285,-14.78452 1.57226,-21.82618 3.50238,0.59764 7.04038,1.31848 10.60352,2.12891 -0.006,0.0537 -0.0111,0.10839 -0.0176,0.16211 1.58431,-13.24484 4.75684,-25.76103 9.26367,-37.43555 -0.0109,0.0281 -0.0224,0.0558 -0.0332,0.084 -2.76522,-1.34997 -5.53096,-2.63509 -8.29883,-3.80078 4.43911,-9.59522 9.8756,-18.48973 16.12891,-26.59766 1.85295,1.22722 3.69083,2.51485 5.51758,3.84766 -0.12875,0.20368 -0.25105,0.41277 -0.37891,0.61718 7.91805,-12.65805 17.54323,-23.91233 28.39844,-33.56054 -0.30593,0.27184 -0.61795,0.53609 -0.92188,0.81054 -0.44748,-0.50414 -0.89316,-1.01143 -1.3457,-1.50586 4.31129,-3.01475 8.76921,-5.78388 13.3457,-8.29296 19.33909,-14.27393 41.64596,-23.90362 64.69727,-27.93555 -3.96662,-0.7043 -7.95025,-1.2395 -11.93555,-1.59571 z m -55.68945,31.75 c -0.19395,0.15015 -0.38677,0.30204 -0.58008,0.45313 0.19327,-0.15119 0.38616,-0.30289 0.58008,-0.45313 z m -2.72852,2.16211 c -0.36765,0.29776 -0.73248,0.59914 -1.09765,0.90039 0.36504,-0.30148 0.73014,-0.6024 1.09765,-0.90039 z m -2.72851,2.26563 c -0.40381,0.34247 -0.80645,0.68635 -1.20703,1.0332 0.40034,-0.34688 0.80349,-0.69064 1.20703,-1.0332 z m -32.28711,37.84375 c -0.22266,0.3681 -0.44429,0.73703 -0.66406,1.10742 0.21971,-0.37026 0.44147,-0.73946 0.66406,-1.10742 z m -1.86328,3.16601 c -0.18902,0.33022 -0.37773,0.66022 -0.56446,0.99219 0.18666,-0.33183 0.37552,-0.66212 0.56446,-0.99219 z m -1.76172,3.16407 c -0.18135,0.33508 -0.36395,0.66904 -0.54297,1.00586 0.17908,-0.33694 0.36156,-0.67066 0.54297,-1.00586 z m -1.60938,3.06054 c -0.21152,0.41305 -0.42479,0.82467 -0.63281,1.24024 0.20798,-0.41548 0.42133,-0.82728 0.63281,-1.24024 z m -1.67187,3.36719 c -0.16697,0.34698 -0.33938,0.69038 -0.50391,1.03906 0.16457,-0.34875 0.3369,-0.69201 0.50391,-1.03906 z m -1.73242,3.72266 c -0.0928,0.20707 -0.18928,0.41148 -0.28125,0.61914 0.092,-0.20763 0.18842,-0.41209 0.28125,-0.61914 z m 139.51562,4.88672 c -1.46928,1e-5 -2.99236,0.0633 -4.57422,0.18945 -2.79877,0.22324 -5.61954,0.65033 -8.42578,1.26367 5.09281,1.47501 9.41865,4.06962 13.27344,7.8086 7.2881,7.06916 14.79446,19.56414 14.63867,48.93554 -8.94618,125.87564 -31.11766,293.20659 1.26953,434.07617 2.81647,12.24794 10.65987,23.25952 21.3125,29.92774 4.02821,2.52153 8.4406,4.40589 13.03125,5.62695 4.17153,-1.13843 8.1745,-2.86497 11.89063,-5.07617 -0.30787,-0.1827 -0.6183,-0.36075 -0.92188,-0.55078 -5.44756,-3.41001 -10.15424,-7.96039 -13.83594,-13.22656 -1.72328,0.32654 -3.44142,0.64065 -5.15234,0.9414 A 34.999936,34.999936 0 0 1 458.4375,787.01367 c -7.4e-4,-0.003 -10e-4,-0.007 -0.002,-0.01 3.42391,-0.36715 6.89826,-0.81195 10.39257,-1.29102 -2.18066,-9.84778 -4.10634,-19.81756 -5.7871,-29.89258 -3.59222,0.29587 -7.16212,0.55556 -10.67383,0.74024 -1.25347,-7.32072 -2.38427,-14.70259 -3.38672,-22.14258 3.55446,-0.0625 7.17256,-0.20051 10.81445,-0.37305 -1.31997,-9.97354 -2.42635,-20.02877 -3.34375,-30.14453 -3.67545,0.0189 -7.32438,0.004 -10.90429,-0.084 -0.67069,-7.35037 -1.24022,-14.73972 -1.71485,-22.16016 3.58491,0.18375 7.24232,0.29589 10.92774,0.375 -0.64367,-10.01922 -1.12018,-20.08003 -1.44532,-30.16602 -3.68694,-0.19364 -7.34389,-0.41826 -10.92383,-0.71289 -0.22898,-7.31803 -0.36196,-14.65638 -0.4414,-22.00195 3.57203,0.35983 7.22328,0.65274 10.90625,0.91406 -0.11951,-9.98091 -0.11348,-19.96721 0.01,-29.94531 -3.67736,-0.33477 -7.30979,-0.71229 -10.87109,-1.14258 0.0981,-7.23647 0.25387,-14.46958 0.46094,-21.69531 3.54903,0.4671 7.17095,0.8826 10.83789,1.25586 0.2735,-9.92581 0.64559,-19.82365 1.09375,-29.67969 -3.65863,-0.41406 -7.27078,-0.8692 -10.8086,-1.375 0.33274,-7.18481 0.69732,-14.35516 1.10352,-21.49219 3.53168,0.52546 7.13894,1.00046 10.79297,1.43555 0.55705,-9.89094 1.17481,-19.72577 1.8418,-29.47656 -3.64769,-0.45137 -7.24705,-0.94266 -10.77149,-1.48242 0.491,-7.15504 1.01889,-14.22182 1.54883,-21.28907 3.52352,0.54202 7.12228,1.03574 10.76953,1.49024 0.74096,-9.87284 1.50411,-19.62394 2.28711,-29.27539 -3.65105,-0.44674 -7.25424,-0.93134 -10.78125,-1.46485 0.57253,-7.09555 1.13896,-14.13776 1.71289,-21.09961 3.5318,0.51888 7.14087,0.98957 10.79688,1.42188 0.82006,-9.86711 1.62128,-19.54843 2.40429,-29.0918 -3.66647,-0.39998 -7.28564,-0.83948 -10.82812,-1.32617 0.54338,-6.69578 1.07142,-13.33529 1.57617,-19.85742 3.5715,0.28086 7.22127,0.53771 10.89844,0.7793 0.5535,-7.07563 1.08407,-14.06075 1.57031,-20.90235 0.008,-1.41525 -0.0177,-2.75753 -0.0449,-4.0957 -3.67619,0.53064 -7.34085,1.04423 -10.94531,1.52539 -0.0603,-5.75445 -0.42446,-10.99878 -1.03907,-15.78516 3.40776,-1.14976 6.87013,-2.3372 10.34766,-3.54882 -1.89068,-10.45056 -5.17216,-17.38081 -8.80274,-22.28516 -2.20385,1.74004 -4.40972,3.47867 -6.60351,5.18945 -2.28914,-5.82463 -5.08341,-10.50886 -8.10938,-14.35742 0.46084,-0.62967 0.9183,-1.27041 1.37891,-1.90234 -4.35432,-1.95804 -9.30245,-2.93754 -15.09375,-2.9375 z m 28.42773,14.00781 c -0.18584,-0.25104 -0.37307,-0.48385 -0.56054,-0.72461 0.18707,0.24056 0.37504,0.47403 0.56054,0.72461 z m 7.26758,85.49609 c 0.55829,-6.80435 1.11279,-13.58673 1.63086,-20.20508 -0.5184,6.62104 -1.07245,13.39923 -1.63086,20.20508 z m -19.27539,-95.92773 c 0.16044,0.0818 0.31775,0.16927 0.47657,0.25391 -0.15884,-0.0846 -0.31612,-0.17209 -0.47657,-0.25391 z m 1.32031,0.7168 c 0.16223,0.0932 0.32187,0.19085 0.48243,0.28711 -0.16058,-0.0963 -0.32018,-0.1939 -0.48243,-0.28711 z m 1.30469,0.79492 c 0.15544,0.1 0.30899,0.20371 0.46289,0.30664 -0.1539,-0.10292 -0.30745,-0.20667 -0.46289,-0.30664 z m 1.22852,0.83398 c 0.166,0.11825 0.33184,0.23759 0.49609,0.35938 -0.16426,-0.12179 -0.33008,-0.24113 -0.49609,-0.35938 z m 1.21875,0.91406 c 0.16443,0.12916 0.32947,0.25586 0.49219,0.38868 -0.16254,-0.13266 -0.32795,-0.25967 -0.49219,-0.38868 z m 1.2793,1.05665 c 0.11697,0.10146 0.23545,0.19931 0.35156,0.30273 -0.11617,-0.10346 -0.23454,-0.20123 -0.35156,-0.30273 z m 2.71289,2.60156 c 0.15038,0.15937 0.2991,0.32749 0.44921,0.49218 -0.15027,-0.1644 -0.29869,-0.33305 -0.44921,-0.49218 z m 1.16796,1.30078 c 0.19927,0.23144 0.39755,0.46531 0.59571,0.70703 -0.19837,-0.24142 -0.3962,-0.47598 -0.59571,-0.70703 z m 10.58008,24.51172 c 0.22577,1.24907 0.43157,2.54914 0.61524,3.90234 -0.18396,-1.35298 -0.38946,-2.65323 -0.61524,-3.90234 z m 0.62891,4.01953 c 0.17928,1.33288 0.33938,2.71584 0.47461,4.1543 -0.13563,-1.43844 -0.295,-2.82141 -0.47461,-4.1543 z m -190.22852,4.25976 c -0.01,0.10763 -0.0158,0.21651 -0.0254,0.32422 0.01,-0.1077 0.0156,-0.2166 0.0254,-0.32422 z m 190.71485,0.0274 c 0.1339,1.44226 0.24557,2.93538 0.33203,4.48828 -0.0867,-1.55269 -0.19776,-3.04632 -0.33203,-4.48828 z m -191.05078,4.42383 c -0.0253,0.40008 -0.0459,0.80181 -0.0684,1.20312 0.0223,-0.40132 0.0431,-0.80303 0.0684,-1.20312 z m 191.38867,0.16992 c 0.0862,1.57052 0.14722,3.1964 0.18164,4.88476 -0.0344,-1.68801 -0.0952,-3.31482 -0.18164,-4.88476 z m -191.60938,4.3789 c -0.017,0.4769 -0.036,0.95307 -0.0488,1.43165 0.0128,-0.47881 0.032,-0.95451 0.0488,-1.43165 z m 16.25391,141.28907 c 0.35637,0.0588 0.71271,0.11533 1.07031,0.16601 -0.35719,-0.0512 -0.71434,-0.10679 -1.07031,-0.16601 z m 13.97461,0.1914 c -0.22513,0.0309 -0.45023,0.0583 -0.67578,0.0859 0.22548,-0.0279 0.45072,-0.0548 0.67578,-0.0859 z m -11.56055,0.14453 c 0.31106,0.0351 0.6219,0.0688 0.93359,0.0977 -0.31162,-0.0293 -0.62261,-0.0622 -0.93359,-0.0977 z m 8.71875,0.15625 c -0.29039,0.022 -0.58031,0.0498 -0.87109,0.0664 0.29081,-0.0168 0.58068,-0.0441 0.87109,-0.0664 z m -6.14062,0.0664 c 0.18293,0.0105 0.36577,0.019 0.54882,0.0273 -0.18304,-0.008 -0.36592,-0.0167 -0.54882,-0.0273 z m 4.70898,0.0293 c -0.688,0.0309 -1.37736,0.0527 -2.06641,0.0527 0.6896,-5e-5 1.37792,-0.0214 2.06641,-0.0527 z m 150.44922,94.93945 c -0.014,0.68037 -0.0279,1.36047 -0.041,2.04102 0.0134,-0.68051 0.0267,-1.36068 0.041,-2.04102 z m -0.0449,52.55859 c 0.0682,3.3766 0.15759,6.75106 0.26172,10.12305 -0.10498,-3.37193 -0.18914,-6.74686 -0.26172,-10.12305 z m 8.26953,104.08399 c 0.0351,0.2365 0.0701,0.47258 0.10547,0.70898 -0.0354,-0.23637 -0.0703,-0.47251 -0.10547,-0.70898 z m 42.01953,81.24609 c -0.86273,0.19853 -1.73138,0.36521 -2.60352,0.51367 0.87188,-0.14851 1.74107,-0.3152 2.60352,-0.51367 z m -19.93945,0.27539 c 0.69423,0.13489 1.39043,0.25649 2.08984,0.36133 -0.69921,-0.10495 -1.39579,-0.22639 -2.08984,-0.36133 z m 16.41601,0.37696 c -0.59891,0.0897 -1.19893,0.16984 -1.80078,0.23632 0.60197,-0.0666 1.20177,-0.14652 1.80078,-0.23632 z m -13.59961,0.0879 c 0.74119,0.0998 1.48361,0.18215 2.22852,0.24804 -0.74433,-0.066 -1.4879,-0.14814 -2.22852,-0.24804 z m 2.70508,0.29492 c 0.92874,0.073 1.85979,0.12473 2.79102,0.14453 -0.93168,-0.02 -1.86183,-0.0712 -2.79102,-0.14453 z"
           transform="scale(0.26458333)" />
        <path
           id="path1016"
           style="color:#000000;font-style:normal;font-variant:normal;font-weight:normal;font-stretch:normal;font-size:medium;line-height:normal;font-family:sans-serif;font-variant-ligatures:normal;font-variant-position:normal;font-variant-caps:normal;font-variant-numeric:normal;font-variant-alternates:normal;font-variant-east-asian:normal;font-feature-settings:normal;font-variation-settings:normal;text-indent:0;text-align:start;text-decoration:none;text-decoration-line:none;text-decoration-style:solid;text-decoration-color:#000000;letter-spacing:normal;word-spacing:normal;text-transform:none;writing-mode:lr-tb;direction:ltr;text-orientation:mixed;dominant-baseline:auto;baseline-shift:baseline;text-anchor:start;white-space:normal;shape-padding:0;shape-margin:0;inline-size:0;clip-rule:nonzero;display:inline;overflow:visible;visibility:visible;opacity:0.49359;isolation:auto;mix-blend-mode:normal;color-interpolation:sRGB;color-interpolation-filters:linearRGB;solid-color:#000000;solid-opacity:1;vector-effect:none;fill:#ffffff;fill-opacity:1;fill-rule:nonzero;stroke:none;stroke-width:3.77953;stroke-linecap:round;stroke-linejoin:round;stroke-miterlimit:4;stroke-dasharray:none;stroke-dashoffset:0;stroke-opacity:1;color-rendering:auto;image-rendering:auto;shape-rendering:auto;text-rendering:auto;enable-background:accumulate;stop-color:#000000;stop-opacity:1"
           d="m 403.55859,201.71094 c -3.40865,0.0253 -6.80462,0.17235 -10.17773,0.4414 -0.41247,0.0329 -0.82408,0.0768 -1.23633,0.11328 28.56536,2.55315 57.06563,13.93655 79.55274,35.74805 28.80196,27.9367 44.38785,70.18385 43.84961,119.66797 v 0.008 c -0.009,0.94413 -0.0463,1.88618 -0.11133,2.82813 a 13.001302,13.001302 0 0 1 0,0.0137 c -9.16558,130.45786 -27.44106,293.33957 -1.10743,407.87891 2.81538,12.24612 0.57815,25.58006 -6.08984,36.23046 -6.339,10.12493 -16.60628,17.69829 -28.125,20.8418 7.5493,2.00809 15.58306,2.2155 23.19922,0.46289 12.24582,-2.81661 23.25779,-10.65428 29.92578,-21.30469 6.66799,-10.6504 8.90522,-23.98434 6.08984,-36.23046 -26.33363,-114.53934 -8.05815,-277.42105 1.10743,-407.87891 a 13.001302,13.001302 0 0 0 0,-0.0137 c 0.065,-0.94195 0.10225,-1.884 0.11133,-2.82813 v -0.008 c 0.53824,-49.48412 -15.04765,-91.73127 -43.84961,-119.66797 -26.05709,-25.27422 -60.18839,-36.54703 -93.13868,-36.30273 z m -22.9707,95.94336 c -1.46928,1e-5 -2.99236,0.0633 -4.57422,0.18945 -25.27343,2.01594 -52.46256,19.56954 -52.46289,59.32227 v 87.99804 c 0.002,12.56697 -5.16945,25.05626 -14.05469,33.94336 -5.90296,5.90421 -13.40066,10.15692 -21.45117,12.35547 4.07292,1.11237 8.28387,1.70763 12.50781,1.70703 12.56695,-8.7e-4 25.05813,-5.17539 33.94336,-14.0625 8.88524,-8.8871 14.05648,-21.37639 14.05469,-33.94336 v -87.99804 c 2.9e-4,-35.05132 21.13978,-52.83562 43.46484,-57.93555 -3.42632,-1.04382 -7.19975,-1.5762 -11.42773,-1.57617 z"
           transform="scale(0.26458333)" />
      </g>
    </g>
    <g
       id="g1074"
       transform="matrix(-0.8660254,-0.5,-0.5,0.8660254,287.37087,79.69201)">
      <g
         id="g1060">
        <path
           id="path1056"
           style="color:#000000;font-style:normal;font-variant:normal;font-weight:normal;font-stretch:normal;font-size:medium;line-height:normal;font-family:sans-serif;font-variant-ligatures:normal;font-variant-position:normal;font-variant-caps:normal;font-variant-numeric:normal;font-variant-alternates:normal;font-variant-east-asian:normal;font-feature-settings:normal;font-variation-settings:normal;text-indent:0;text-align:start;text-decoration:none;text-decoration-line:none;text-decoration-style:solid;text-decoration-color:#000000;letter-spacing:normal;word-spacing:normal;text-transform:none;writing-mode:lr-tb;direction:ltr;text-orientation:mixed;dominant-baseline:auto;baseline-shift:baseline;text-anchor:start;white-space:normal;shape-padding:0;shape-margin:0;inline-size:0;clip-rule:nonzero;display:inline;overflow:visible;visibility:visible;opacity:1;isolation:auto;mix-blend-mode:normal;color-interpolation:sRGB;color-interpolation-filters:linearRGB;solid-color:#000000;solid-opacity:1;vector-effect:none;fill:#ff0000;fill-opacity:1;fill-rule:nonzero;stroke:none;stroke-width:3.77953;stroke-linecap:round;stroke-linejoin:round;stroke-miterlimit:4;stroke-dasharray:none;stroke-dashoffset:0;stroke-opacity:1;color-rendering:auto;image-rendering:auto;shape-rendering:auto;text-rendering:auto;enable-background:accumulate;stop-color:#000000;stop-opacity:1"
           d="m 403.48047,189.80273 c -3.7005,0.0269 -7.38666,0.18867 -11.04492,0.48047 a 11.906703,11.906703 0 0 0 -2.21485,0.39063 11.906703,11.906703 0 0 0 -0.006,0 c -77.17439,7.30121 -149.57148,72.96544 -149.57226,166.49219 v 87.99804 c -0.002,15.8343 6.34703,31.16544 17.54687,42.36524 11.19982,11.1998 26.52899,17.5491 42.36328,17.54687 15.83454,-10e-4 31.1696,-6.35666 42.36524,-17.55469 11.19478,-11.19711 17.54132,-26.52301 17.53906,-42.35742 v -87.99804 c 1.4e-4,-17.16208 5.46895,-27.86675 13.11914,-35.25 7.65019,-7.38325 18.13878,-11.38406 28.38281,-12.20118 10.33108,-0.82405 14.61278,0.89977 19.61329,5.75 5.16975,5.01446 11.10696,12.98525 11.00585,40.07618 -8.92482,125.18074 -31.48286,293.21003 1.5879,437.05273 3.54897,15.4334 13.1767,28.9505 26.59765,37.35156 13.42235,8.40201 29.78973,11.15446 45.22071,7.60352 15.42788,-3.54849 28.94305,-13.16882 37.3457,-26.58985 8.404,-13.42325 11.14831,-29.78538 7.60156,-45.21289 -25.51189,-110.96511 -7.81371,-273.5104 1.38086,-404.38086 a 11.906703,11.906703 0 0 0 0,-0.0293 l 0.0234,-0.53125 a 11.906703,11.906703 0 0 0 0.006,-0.27344 v -0.0137 c 0.0496,-0.90028 0.10248,-1.80428 0.11132,-2.70313 v -0.008 c 4e-5,-0.003 -3e-5,-0.003 0,-0.006 0.56285,-52.05076 -15.90083,-97.71821 -47.46484,-128.33398 -28.51661,-27.65986 -65.73629,-39.92445 -101.50781,-39.66407 z m 0.0781,11.90821 c 32.95029,-0.2443 67.08159,11.02851 93.13868,36.30273 28.80196,27.9367 44.38785,70.18385 43.84961,119.66797 v 0.008 c -0.009,0.94413 -0.0463,1.88618 -0.11133,2.82813 a 13.001302,13.001302 0 0 1 0,0.0137 c -9.16558,130.45786 -27.44106,293.33957 -1.10743,407.87891 2.81538,12.24612 0.57815,25.58006 -6.08984,36.23046 -6.66799,10.65041 -17.67996,18.48808 -29.92578,21.30469 -12.24748,2.81836 -25.57783,0.57838 -36.23047,-6.08984 C 456.4294,813.18725 448.586,802.17567 445.76953,789.92773 413.38234,649.05813 435.55382,481.7272 444.5,355.85156 c 0.15579,-29.3714 -7.35057,-41.86638 -14.63867,-48.93554 -7.27143,-7.05297 -16.19282,-10.08168 -28.84766,-9.07227 -25.27343,2.01594 -52.46256,19.56954 -52.46289,59.32227 v 87.99804 c 0.002,12.56697 -5.16945,25.05626 -14.05469,33.94336 -8.88523,8.88711 -21.37641,14.06163 -33.94336,14.0625 -12.56863,0.002 -25.06185,-5.16927 -33.94921,-14.05664 -8.88737,-8.88733 -14.05648,-21.38059 -14.05469,-33.94922 v -87.99804 c 7.3e-4,-88.23693 68.89139,-149.27533 140.83203,-155.01368 3.37311,-0.26905 6.76908,-0.41613 10.17773,-0.4414 z"
           transform="scale(0.26458333)" />
        <path
           id="path1058"
           style="color:#000000;font-style:normal;font-variant:normal;font-weight:normal;font-stretch:normal;font-size:medium;line-height:normal;font-family:sans-serif;font-variant-ligatures:normal;font-variant-position:normal;font-variant-caps:normal;font-variant-numeric:normal;font-variant-alternates:normal;font-variant-east-asian:normal;font-feature-settings:normal;font-variation-settings:normal;text-indent:0;text-align:start;text-decoration:none;text-decoration-line:none;text-decoration-style:solid;text-decoration-color:#000000;letter-spacing:normal;word-spacing:normal;text-transform:none;writing-mode:lr-tb;direction:ltr;text-orientation:mixed;dominant-baseline:auto;baseline-shift:baseline;text-anchor:start;white-space:normal;shape-padding:0;shape-margin:0;inline-size:0;clip-rule:nonzero;display:inline;overflow:visible;visibility:visible;opacity:1;isolation:auto;mix-blend-mode:normal;color-interpolation:sRGB;color-interpolation-filters:linearRGB;solid-color:#000000;solid-opacity:1;vector-effect:none;fill:#ffd5d5;fill-opacity:1;fill-rule:nonzero;stroke:none;stroke-width:3.77953;stroke-linecap:round;stroke-linejoin:round;stroke-miterlimit:4;stroke-dasharray:none;stroke-dashoffset:0;stroke-opacity:1;color-rendering:auto;image-rendering:auto;shape-rendering:auto;text-rendering:auto;enable-background:accumulate;stop-color:#000000;stop-opacity:1"
           d="m 403.55859,201.71094 c -1.52672,0.0113 -3.04958,0.0547 -4.57031,0.11523 1.52084,-0.0602 3.04347,-0.10391 4.57031,-0.11523 z m 3.30664,0.0156 c 3.24038,0.0537 6.48986,0.22039 9.73829,0.49805 -3.24858,-0.27768 -6.49777,-0.4462 -9.73829,-0.49805 z m 9.73829,0.49805 c -71.6585,6.1146 -140.05396,67.02261 -140.05469,154.94141 v 87.99804 c -0.002,12.56863 5.16732,25.06189 14.05469,33.94922 6.02298,6.02299 13.70507,10.33274 21.9414,12.48828 8.2405,-2.15646 15.92584,-6.46753 21.95117,-12.49414 8.88524,-8.8871 14.05648,-21.37639 14.05469,-33.94336 V 357.166 c 3.3e-4,-39.75273 27.18946,-57.30633 52.46289,-59.32227 5.94615,-0.47429 11.06028,-0.0437 15.57422,1.26367 2.80624,-0.61334 5.62701,-1.04043 8.42578,-1.26367 1.58186,-0.12618 3.10494,-0.18944 4.57422,-0.18945 10.28493,-7e-5 17.91093,3.09037 24.27344,9.26172 7.2881,7.06916 14.79446,19.56414 14.63867,48.93554 -8.94618,125.87564 -31.11766,293.20658 1.26953,434.07617 2.81647,12.24794 10.65987,23.25952 21.3125,29.92774 4.17777,2.61515 8.77032,4.53695 13.54492,5.75195 11.71527,-3.06101 22.18348,-10.69995 28.61133,-20.9668 6.66799,-10.6504 8.90522,-23.98434 6.08984,-36.23046 -26.33363,-114.53934 -8.05815,-277.42105 1.10743,-407.87891 a 13.001302,13.001302 0 0 0 0,-0.0137 c 0.065,-0.94195 0.10225,-1.884 0.11133,-2.82813 v -0.008 c 0.53824,-49.48412 -15.04765,-91.73127 -43.84961,-119.66797 -22.62906,-21.94919 -51.3475,-33.33194 -80.09375,-35.78906 z m -104.0586,289.37695 c -0.96744,0.25317 -1.94289,0.47635 -2.92383,0.66992 0.98164,-0.19289 1.95581,-0.41659 2.92383,-0.66992 z m 85.36133,-289.72851 c -1.51189,0.0718 -3.02169,0.15935 -4.52539,0.27929 1.50357,-0.11993 3.01363,-0.20782 4.52539,-0.27929 z m 22.31055,98.53125 c 0.0271,0.0116 0.055,0.0215 0.082,0.0332 -0.027,-0.0117 -0.055,-0.0216 -0.082,-0.0332 z m 1.6914,0.78906 c 0.0499,0.0252 0.1007,0.0488 0.15039,0.0742 -0.0497,-0.0254 -0.10051,-0.0491 -0.15039,-0.0742 z m 1.58203,0.85937 c 0.0915,0.0533 0.18447,0.10392 0.27539,0.15821 -0.091,-0.0542 -0.18386,-0.10502 -0.27539,-0.15821 z m 1.56446,0.97657 c 0.10738,0.0716 0.21757,0.13793 0.32422,0.21093 -0.10671,-0.0728 -0.21678,-0.13953 -0.32422,-0.21093 z m 1.56836,1.11328 c 0.0982,0.0744 0.19931,0.1431 0.29687,0.21875 -0.0977,-0.0756 -0.1986,-0.14447 -0.29687,-0.21875 z M 272.75391,484.26562 c 1.01941,0.71867 2.05862,1.4091 3.13086,2.04688 -1.07184,-0.63761 -2.11182,-1.32846 -3.13086,-2.04688 z m 36.71679,8.03321 c -0.85667,0.16624 -1.71771,0.30447 -2.58203,0.42383 0.86421,-0.11843 1.72549,-0.25834 2.58203,-0.42383 z m -3.25,0.50781 c -0.72109,0.0892 -1.44542,0.15925 -2.16992,0.21484 0.725,-0.055 1.44832,-0.12636 2.16992,-0.21484 z m -3.04101,0.28125 c -0.18683,0.0108 -0.37359,0.0208 -0.56055,0.0293 0.18695,-0.008 0.37373,-0.0186 0.56055,-0.0293 z"
           transform="scale(0.26458333)" />
      </g>
      <g
         id="g1066">
        <path
           id="path1062"
           style="opacity:1;fill:#ff0000;stroke:none;stroke-width:0.999999;stroke-linecap:round;stroke-linejoin:round;stroke-miterlimit:4;stroke-dasharray:none;stroke-opacity:1"
           d="m 403.69922,217.09375 c -1.41732,0.0106 -2.83264,0.0416 -4.24414,0.0937 4.86588,17.12539 6.17716,36.45484 6.02148,56.78711 -0.0274,3.57873 -0.10619,7.14941 -0.20312,10.70898 6.6036,0.006 12.75477,1.06419 18.36328,3.18555 1.00877,-3.73807 2.0006,-7.49697 2.93945,-11.27734 4.90118,-19.73611 8.11393,-38.75917 7.14649,-56.60157 -10.04954,-2.01871 -20.10207,-2.97001 -30.02344,-2.89648 z m -49.16406,8.3418 c -3.52055,1.17218 -6.98939,2.47026 -10.41016,3.875 -1.59224,0.79645 -3.17098,1.62431 -4.73633,2.48242 -0.003,0.002 -0.005,0.004 -0.008,0.006 -4.14154,3.05732 -8.15064,6.32258 -11.99805,9.79687 11.05257,12.45202 20.58135,27.82724 29.36914,44.50782 2.09845,3.98326 4.24456,8.23471 6.38867,12.58203 5.14265,-3.82316 10.73021,-6.86152 16.52149,-9.11524 -1.06054,-3.96022 -2.12946,-7.84036 -3.19336,-11.46875 -5.70996,-19.47282 -12.53867,-37.60823 -21.93359,-52.66601 z m -19.20508,8.67968 c -0.38364,0.22688 -0.76471,0.45887 -1.14649,0.68946 0.38184,-0.2306 0.76279,-0.46256 1.14649,-0.68946 z m -4.21289,2.59375 c -0.36626,0.23388 -0.73328,0.46581 -1.09766,0.70313 0.36438,-0.2373 0.7314,-0.46927 1.09766,-0.70313 z m 148.10547,3.25586 c -5.3477,16.46361 -14.83057,32.55206 -25.98047,48.64063 -2.81141,4.05659 -5.68353,8.03924 -8.56055,11.98633 3.37865,1.51929 6.39982,3.62786 9.17969,6.32422 1.39585,1.35392 2.7978,2.91366 4.15429,4.74609 3.62881,-2.86509 7.25733,-5.76143 10.85547,-8.74609 13.48707,-11.18782 25.78238,-22.81789 35.10352,-35.67579 -4.78909,-7.33409 -10.24276,-13.99387 -16.32617,-19.89453 -2.71131,-2.62985 -5.52818,-5.0834 -8.42578,-7.38086 z m -184.45508,29.91602 c 0.92647,0.61361 1.8501,1.24285 2.76953,1.88476 -0.91987,-0.64059 -1.84301,-1.27112 -2.76953,-1.88476 z m 2.76953,1.88476 c 0.91943,0.64192 1.83467,1.29649 2.74805,1.9629 -0.91333,-0.66637 -1.82828,-1.32236 -2.74805,-1.9629 z m 2.74805,1.9629 c -5.2252,8.26644 -9.71946,17.1347 -13.34766,26.55078 10.75912,5.25253 21.50213,11.8019 32.25391,19.10351 6.73017,4.57062 13.32291,9.3117 19.71484,14.00391 1.76414,-5.84378 4.16826,-11.15524 7.08203,-15.9375 -4.33974,-4.8669 -8.7508,-9.7135 -13.07422,-14.25586 -10.52358,-11.05621 -21.3346,-21.22441 -32.6289,-29.46484 z m -21.64649,22.75 c 1.42066,0.59831 2.83986,1.23662 4.25977,1.88476 -1.41963,-0.65379 -2.83924,-1.28651 -4.25977,-1.88476 z m 243.52539,13.16992 c -11.55762,6.99399 -24.77822,12.91247 -38.70703,18.25 -5.54226,2.12372 -11.11545,4.12444 -16.63867,6.04883 0.91357,5.04967 1.49695,10.9299 1.63672,17.80859 7.02947,-1.01467 14.1148,-2.12044 20.99804,-3.38281 13.13365,-2.40885 25.81732,-5.37678 37.47461,-9.23438 -0.81431,-10.33502 -2.41682,-20.1877 -4.76367,-29.49023 z m -53.70898,42.10742 c -3.67619,0.53064 -7.34085,1.04423 -10.94531,1.52539 3.60446,-0.48116 7.26912,-0.99475 10.94531,-1.52539 z M 267.12109,335.33984 c 1.72983,0.29518 3.4689,0.62143 5.21485,0.97266 -1.74529,-0.34888 -3.48496,-0.67747 -5.21485,-0.97266 z m 5.58789,1.05078 c 1.66606,0.33847 3.33732,0.6964 5.01563,1.07813 -1.67825,-0.38171 -3.35031,-0.74192 -5.01563,-1.07813 z m 5.01563,1.07813 c -0.77212,6.39998 -1.17573,12.96839 -1.17578,19.69727 v 6.75586 c 8.11783,0.44937 16.4395,1.30336 24.89258,2.44531 10.94246,1.47837 22.87772,3.56597 34.10937,5.60742 v -14.80859 c 0,-0.28821 0.0169,-0.56511 0.0195,-0.85157 -9.74661,-3.73866 -19.94688,-7.55524 -29.30859,-10.68945 -9.65033,-3.23071 -19.1888,-6.03 -28.53711,-8.15625 z m -6.81445,26.20508 c 0.10711,0.003 0.21506,0.008 0.32226,0.0117 -0.10728,-0.004 -0.21506,-0.008 -0.32226,-0.0117 z m 196.01953,13.08008 c -0.52279,6.68309 -1.08258,13.53134 -1.64649,20.40429 8.39942,0.91632 17.07596,1.60342 25.85352,2.01953 11.36281,0.53853 22.60267,0.60418 33.35547,0.22852 0.58699,-7.57988 1.15393,-15.07756 1.70508,-22.48437 -10.83228,0.9507 -22.18989,1.20364 -33.76954,0.98046 -8.46909,-0.16332 -17.07831,-0.59527 -25.49804,-1.14843 z m -1.64649,20.40429 c -1.70671,-0.18618 -3.40073,-0.3838 -5.08398,-0.58789 1.68186,0.20531 3.37708,0.40168 5.08398,0.58789 z m -164.85937,-1.41211 c -8.08227,-8e-5 -16.07534,0.24918 -23.875,0.69532 v 21.3125 c 7.79966,-0.44614 15.79273,-0.6954 23.875,-0.69532 12.02015,2.7e-4 23.88037,0.51172 35.12695,1.48047 v -21.3125 c -11.24658,-0.96874 -23.10678,-1.48017 -35.12695,-1.48047 z m 154.03125,0.0859 c 1.70999,0.23493 3.44085,0.45683 5.18164,0.67188 -1.74247,-0.21381 -3.47161,-0.43694 -5.18164,-0.67188 z m -177.92383,0.61133 c -1.51392,0.0867 -3.01854,0.17855 -4.51563,0.28125 1.4996,-0.0992 3.00245,-0.19466 4.51563,-0.28125 z m -4.51563,21.59375 c -2.1748,0.14382 -4.33722,0.29857 -6.46679,0.48047 2.12889,-0.18184 4.29741,-0.33165 6.46679,-0.48047 z M 462.87891,426.25 c -0.57916,6.9685 -1.15178,14.03354 -1.72852,21.14258 8.45291,1.03429 17.19101,1.83637 26.03906,2.36328 11.35843,0.67623 22.60447,0.87942 33.36328,0.64258 0.54481,-7.17042 1.08747,-14.29958 1.63868,-21.37696 -10.74291,0.27957 -21.97069,0.11896 -33.31446,-0.51367 -8.83191,-0.49263 -17.55625,-1.25959 -25.99804,-2.25781 z m -1.72852,21.14258 c -1.69113,-0.20693 -3.36933,-0.42417 -5.03711,-0.64844 1.66644,0.22584 3.3458,0.44149 5.03711,0.64844 z m -10.78125,-1.46485 c 1.70156,0.25739 3.42399,0.50081 5.15625,0.73829 -1.73389,-0.23587 -3.45464,-0.48089 -5.15625,-0.73829 z m 8.49414,30.74024 c -0.52999,7.06174 -1.05738,14.12528 -1.54687,21.28125 8.42451,1.04247 17.13193,1.84914 25.94921,2.38476 11.46803,0.6965 22.82652,0.91222 33.67969,0.68555 0.45966,-7.10345 0.95484,-14.16334 1.45313,-21.22461 -10.80645,0.21585 -22.10844,-0.0102 -33.52149,-0.71289 -8.83964,-0.5443 -17.56934,-1.36178 -26.01367,-2.41406 z m -12.31836,19.79883 c 1.76173,0.26981 3.54545,0.52546 5.33985,0.77343 -1.79636,-0.24671 -3.57763,-0.50355 -5.33985,-0.77343 z m 5.33985,0.77343 c 1.78837,0.24715 3.59304,0.48208 5.41015,0.70704 -1.81657,-0.22488 -3.62087,-0.46129 -5.41015,-0.70704 z m -2,29.48047 c 0.15841,0.0211 0.3179,0.0416 0.47656,0.0625 -0.1584,-0.021 -0.3184,-0.0413 -0.47656,-0.0625 z m 5.58984,0.70508 c -0.40071,7.11493 -0.76189,14.26206 -1.08789,21.43164 8.29687,0.939 16.85982,1.64383 25.5293,2.08594 11.67417,0.59518 23.23722,0.69578 34.25781,0.35156 0.31093,-7.02472 0.65182,-14.05285 1.03125,-21.08008 -10.94225,0.27957 -22.40927,0.11403 -33.98633,-0.53906 -8.74478,-0.49342 -17.38155,-1.25424 -25.74414,-2.25 z m -1.08789,21.43164 c -1.69293,-0.19159 -3.3727,-0.39338 -5.04297,-0.60351 1.66889,0.21142 3.34991,0.4119 5.04297,0.60351 z m -10.8086,-1.375 c 1.71017,0.2445 3.44146,0.47597 5.18165,0.69922 -1.74187,-0.22192 -3.47137,-0.4547 -5.18165,-0.69922 z m 3.95118,30.42578 c 0.30122,0.0351 0.60421,0.0691 0.90625,0.10352 -0.30164,-0.0346 -0.60544,-0.0682 -0.90625,-0.10352 z m 5.76367,0.62891 c -0.19795,7.18388 -0.33877,14.37913 -0.42774,21.58203 8.08082,0.73565 16.40186,1.24327 24.82618,1.49805 11.93882,0.36092 23.76358,0.2111 34.99023,-0.38281 0.096,-6.95687 0.23996,-13.93673 0.43555,-20.93946 -11.13413,0.47237 -22.84019,0.49821 -34.66016,0.0215 -8.54107,-0.34455 -16.97812,-0.94605 -25.16406,-1.7793 z m -11.29883,20.43945 c 1.74047,0.21029 3.50158,0.40612 5.27148,0.59375 -1.77158,-0.18627 -3.53082,-0.38343 -5.27148,-0.59375 z m 5.63672,0.63086 c 1.72384,0.18103 3.46056,0.35048 5.20898,0.50977 -1.74815,-0.15925 -3.48398,-0.33011 -5.20898,-0.50977 z m 64.97852,30.39649 c -11.38647,0.82167 -23.41006,1.20318 -35.54688,1.06445 -8.21158,-0.094 -16.3129,-0.44378 -24.20703,-1.00391 0.0871,7.27329 0.22505,14.54396 0.45898,21.80078 7.73259,0.40614 15.6552,0.60847 23.6836,0.56055 12.29632,-0.0735 24.4802,-0.6775 35.99023,-1.71484 -0.19828,-6.85257 -0.31445,-13.7628 -0.3789,-20.70703 z m -59.29493,21.86132 c -1.52347,-0.08 -3.03696,-0.17032 -4.54687,-0.26367 1.50727,0.0974 3.0226,0.18362 4.54687,0.26367 z m 60.92969,27.17774 c -11.68776,1.41071 -24.11293,2.39684 -36.65234,2.83984 -7.73032,0.27304 -15.36383,0.30875 -22.83203,0.14844 0.46999,7.31587 1.03286,14.60762 1.6914,21.86914 7.2574,-0.0373 14.66276,-0.26314 22.15625,-0.7168 12.72596,-0.77057 25.32322,-2.10282 37.14063,-3.83984 -0.58935,-6.69353 -1.08795,-13.4642 -1.50391,-20.30078 z m -70.41211,2.61328 c 2.05016,0.10508 4.12754,0.18259 6.2168,0.24805 -2.08378,-0.0709 -4.16756,-0.14302 -6.2168,-0.24805 z m 7.89844,22.24219 c 1.55964,0.0117 3.1291,0.01 4.70508,0.002 -1.57544,0.008 -3.14276,0.005 -4.70508,-0.002 z m 67.04883,23.09961 c -11.99041,2.27273 -24.82825,4.17566 -37.82227,5.48828 -7.14599,0.72178 -14.21624,1.22953 -21.16211,1.55859 0.96679,7.30487 2.0435,14.5667 3.2461,21.77539 6.70588,-0.55232 13.52081,-1.27725 20.40039,-2.20312 13.19571,-1.7761 26.21443,-4.16294 38.32421,-6.88867 -1.10771,-6.47252 -2.10098,-13.05304 -2.98632,-19.73047 z m -63.68946,7.24414 c -2.0469,0.071 -4.09218,0.14032 -6.10937,0.17578 2.01718,-0.0355 4.05849,-0.0992 6.10937,-0.17578 z m 7.84571,21.58593 c -1.5626,0.12841 -3.11886,0.24801 -4.66993,0.35938 1.5491,-0.10739 3.10669,-0.23106 4.66993,-0.35938 z m 64.15039,17.64844 c -12.25832,3.44389 -25.52655,6.60345 -39.00196,9.125 -6.4803,1.21251 -12.9126,2.24167 -19.25586,3.11133 0.31134,1.40595 0.61936,2.81406 0.94141,4.21484 1.37618,5.98457 3.95876,11.66942 7.47656,16.70118 5.01945,-0.95113 10.08656,-2.01125 15.17774,-3.18164 10.72203,-2.46501 21.29555,-5.34065 31.32226,-8.41016 a 34.999936,34.999936 0 0 0 3.33985,-21.56055 z m -63.01758,12.86328 c -1.88548,0.23332 -3.76956,0.46427 -5.63281,0.66407 1.86367,-0.19985 3.74417,-0.42521 5.63281,-0.66407 z"
           transform="scale(0.26458333)" />
        <path
           id="path1064"
           style="color:#000000;font-style:normal;font-variant:normal;font-weight:normal;font-stretch:normal;font-size:medium;line-height:normal;font-family:sans-serif;font-variant-ligatures:normal;font-variant-position:normal;font-variant-caps:normal;font-variant-numeric:normal;font-variant-alternates:normal;font-variant-east-asian:normal;font-feature-settings:normal;font-variation-settings:normal;text-indent:0;text-align:start;text-decoration:none;text-decoration-line:none;text-decoration-style:solid;text-decoration-color:#000000;letter-spacing:normal;word-spacing:normal;text-transform:none;writing-mode:lr-tb;direction:ltr;text-orientation:mixed;dominant-baseline:auto;baseline-shift:baseline;text-anchor:start;white-space:normal;shape-padding:0;shape-margin:0;inline-size:0;clip-rule:nonzero;display:inline;overflow:visible;visibility:visible;opacity:1;isolation:auto;mix-blend-mode:normal;color-interpolation:sRGB;color-interpolation-filters:linearRGB;solid-color:#000000;solid-opacity:1;vector-effect:none;fill:#d40000;fill-opacity:1;fill-rule:nonzero;stroke:none;stroke-width:3.77953;stroke-linecap:round;stroke-linejoin:round;stroke-miterlimit:4;stroke-dasharray:none;stroke-dashoffset:0;stroke-opacity:1;color-rendering:auto;image-rendering:auto;shape-rendering:auto;text-rendering:auto;enable-background:accumulate;stop-color:#000000;stop-opacity:1"
           d="m 339.38867,231.79297 c -4.57865,2.50998 -9.03834,5.28077 -13.35156,8.29687 0.45254,0.49443 0.89822,1.00172 1.3457,1.50586 3.84984,-3.47649 7.86154,-6.74374 12.00586,-9.80273 z m -44.62109,38.08789 c -6.25331,8.10793 -11.6898,17.00244 -16.12891,26.59766 2.76787,1.16569 5.53361,2.45081 8.29883,3.80078 3.6282,-9.41608 8.12246,-18.28434 13.34766,-26.55078 -1.82675,-1.33281 -3.66463,-2.62044 -5.51758,-3.84766 z m 149.91406,30.71094 c -0.46061,0.63193 -0.91807,1.27267 -1.37891,1.90234 3.02597,3.84856 5.82024,8.53279 8.10938,14.35742 2.19379,-1.71078 4.39965,-3.44941 6.60351,-5.18945 -1.3565,-1.83243 -2.75844,-3.39217 -4.15429,-4.74609 -2.77987,-2.69636 -5.80104,-4.80493 -9.17969,-6.32422 z m 22.13672,33.35547 c -3.47753,1.21162 -6.9399,2.39906 -10.34766,3.54882 0.61461,4.78638 0.97873,10.03071 1.03907,15.78516 3.60446,-0.48116 7.26912,-0.99475 10.94531,-1.52539 -0.13977,-6.87869 -0.72315,-12.75892 -1.63672,-17.80859 z m -199.69727,1.39257 c -1.02941,7.04166 -1.5722,14.32286 -1.57226,21.82618 v 6.40234 c 3.61574,0.0183 7.28875,0.14808 11,0.35352 v -6.75586 c 5e-5,-6.72888 0.40366,-13.29729 1.17578,-19.69727 -3.56314,-0.81043 -7.10114,-1.53127 -10.60352,-2.12891 z m 188.91016,40.63477 c -0.50475,6.52213 -1.03279,13.16164 -1.57617,19.85742 3.54248,0.48669 7.16165,0.92619 10.82812,1.32617 0.56391,-6.87295 1.1237,-13.7212 1.64649,-20.40429 -3.67717,-0.24159 -7.32694,-0.49844 -10.89844,-0.7793 z m -179.48242,20.4668 c -3.7137,0.21242 -7.39629,0.45585 -11,0.76367 v 21.3125 c 3.60371,-0.30782 7.2863,-0.55125 11,-0.76367 z m 175.5332,28.38671 c -0.57393,6.96185 -1.14036,14.00406 -1.71289,21.09961 3.52701,0.53351 7.1302,1.01811 10.78125,1.46485 0.57674,-7.10904 1.14936,-14.17408 1.72852,-21.14258 -3.65601,-0.43231 -7.26508,-0.903 -10.79688,-1.42188 z m -3.98828,50.34961 c -0.52994,7.06725 -1.05783,14.13403 -1.54883,21.28907 3.52444,0.53976 7.1238,1.03105 10.77149,1.48242 0.48949,-7.15597 1.01688,-14.21951 1.54687,-21.28125 -3.64725,-0.4545 -7.24601,-0.94822 -10.76953,-1.49024 z m -3.41211,50.8125 c -0.4062,7.13703 -0.77078,14.30738 -1.10352,21.49219 3.53782,0.5058 7.14997,0.96094 10.8086,1.375 0.326,-7.16958 0.68718,-14.31671 1.08789,-21.43164 -3.65403,-0.43509 -7.26129,-0.91009 -10.79297,-1.43555 z m -2.22656,51.29102 c -0.20707,7.22573 -0.36281,14.45884 -0.46094,21.69531 3.5613,0.43029 7.19373,0.80781 10.87109,1.14258 0.089,-7.2029 0.22979,-14.39815 0.42774,-21.58203 -3.66694,-0.37326 -7.28886,-0.78876 -10.83789,-1.25586 z m -0.50586,51.86914 c 0.0794,7.34557 0.21241,14.68392 0.4414,22.00195 3.57994,0.29463 7.23689,0.51925 10.92383,0.71289 -0.23393,-7.25682 -0.37189,-14.52749 -0.45898,-21.80078 -3.68297,-0.26132 -7.33422,-0.55423 -10.90625,-0.91406 z m 1.88281,52.50586 c 0.47463,7.42044 1.04416,14.80979 1.71485,22.16016 3.57992,0.0884 7.22884,0.10286 10.90429,0.084 -0.65854,-7.26152 -1.22141,-14.55327 -1.6914,-21.86914 -3.68542,-0.0791 -7.34283,-0.19125 -10.92774,-0.375 z m 15.96289,52.38867 c -3.64189,0.17254 -7.25999,0.31057 -10.81445,0.37305 1.00245,7.43999 2.13325,14.82186 3.38672,22.14258 3.51171,-0.18468 7.08161,-0.44437 10.67383,-0.74024 -1.2026,-7.20869 -2.27931,-14.47052 -3.2461,-21.77539 z m 9.0332,51.66797 c -3.49432,0.47907 -6.96866,0.92387 -10.39257,1.29102 7.4e-4,0.003 0.001,0.007 0.002,0.01 a 34.999936,34.999936 0 0 0 13.65625,20.55664 c 1.71092,-0.30075 3.42906,-0.61486 5.15234,-0.9414 -3.5178,-5.03176 -6.10038,-10.71661 -7.47656,-16.70118 -0.32205,-1.40078 -0.63007,-2.80889 -0.94141,-4.21484 z"
           transform="scale(0.26458333)" />
      </g>
      <g
         id="g1072">
        <path
           id="path1068"
           style="color:#000000;font-style:normal;font-variant:normal;font-weight:normal;font-stretch:normal;font-size:medium;line-height:normal;font-family:sans-serif;font-variant-ligatures:normal;font-variant-position:normal;font-variant-caps:normal;font-variant-numeric:normal;font-variant-alternates:normal;font-variant-east-asian:normal;font-feature-settings:normal;font-variation-settings:normal;text-indent:0;text-align:start;text-decoration:none;text-decoration-line:none;text-decoration-style:solid;text-decoration-color:#000000;letter-spacing:normal;word-spacing:normal;text-transform:none;writing-mode:lr-tb;direction:ltr;text-orientation:mixed;dominant-baseline:auto;baseline-shift:baseline;text-anchor:start;white-space:normal;shape-padding:0;shape-margin:0;inline-size:0;clip-rule:nonzero;display:inline;overflow:visible;visibility:visible;opacity:1;isolation:auto;mix-blend-mode:normal;color-interpolation:sRGB;color-interpolation-filters:linearRGB;solid-color:#000000;solid-opacity:1;vector-effect:none;fill:#ffa7a7;fill-opacity:1;fill-rule:nonzero;stroke:none;stroke-width:3.77953;stroke-linecap:round;stroke-linejoin:round;stroke-miterlimit:4;stroke-dasharray:none;stroke-dashoffset:0;stroke-opacity:1;color-rendering:auto;image-rendering:auto;shape-rendering:auto;text-rendering:auto;enable-background:accumulate;stop-color:#000000;stop-opacity:1"
           d="m 406.71094,201.72461 c 0.27713,0.004 0.55478,0.0157 0.83203,0.0215 -0.27721,-0.006 -0.55494,-0.0172 -0.83203,-0.0215 z m -14.56641,0.54101 c -71.49122,6.33505 -139.59498,67.16939 -139.5957,154.9004 v 87.99804 c -0.002,12.56863 5.16732,25.06189 14.05469,33.94922 5.90119,5.9012 13.39611,10.15181 21.44336,12.34961 4.19936,-1.147 8.24549,-2.8587 11.99609,-5.06641 -3.43356,-2.02346 -6.61978,-4.46352 -9.43945,-7.2832 -8.88737,-8.88733 -14.05648,-21.38059 -14.05469,-33.94922 v -27.41015 c -3.7137,0.21242 -7.39629,0.45585 -11,0.76367 v -21.3125 c 3.60371,-0.30782 7.2863,-0.55125 11,-0.76367 v -32.51953 c -3.71125,-0.20544 -7.38426,-0.33526 -11,-0.35352 v -6.40234 c 6e-5,-7.50332 0.54285,-14.78452 1.57226,-21.82618 3.50238,0.59764 7.04038,1.31848 10.60352,2.12891 -0.006,0.0537 -0.0111,0.10839 -0.0176,0.16211 1.58431,-13.24484 4.75684,-25.76103 9.26367,-37.43555 -0.0109,0.0281 -0.0224,0.0558 -0.0332,0.084 -2.76522,-1.34997 -5.53096,-2.63509 -8.29883,-3.80078 4.43911,-9.59522 9.8756,-18.48973 16.12891,-26.59766 1.85295,1.22722 3.69083,2.51485 5.51758,3.84766 -0.12875,0.20368 -0.25105,0.41277 -0.37891,0.61718 7.91805,-12.65805 17.54323,-23.91233 28.39844,-33.56054 -0.30593,0.27184 -0.61795,0.53609 -0.92188,0.81054 -0.44748,-0.50414 -0.89316,-1.01143 -1.3457,-1.50586 4.31129,-3.01475 8.76921,-5.78388 13.3457,-8.29296 19.33909,-14.27393 41.64596,-23.90362 64.69727,-27.93555 -3.96662,-0.7043 -7.95025,-1.2395 -11.93555,-1.59571 z m -55.68945,31.75 c -0.19395,0.15015 -0.38677,0.30204 -0.58008,0.45313 0.19327,-0.15119 0.38616,-0.30289 0.58008,-0.45313 z m -2.72852,2.16211 c -0.36765,0.29776 -0.73248,0.59914 -1.09765,0.90039 0.36504,-0.30148 0.73014,-0.6024 1.09765,-0.90039 z m -2.72851,2.26563 c -0.40381,0.34247 -0.80645,0.68635 -1.20703,1.0332 0.40034,-0.34688 0.80349,-0.69064 1.20703,-1.0332 z m -32.28711,37.84375 c -0.22266,0.3681 -0.44429,0.73703 -0.66406,1.10742 0.21971,-0.37026 0.44147,-0.73946 0.66406,-1.10742 z m -1.86328,3.16601 c -0.18902,0.33022 -0.37773,0.66022 -0.56446,0.99219 0.18666,-0.33183 0.37552,-0.66212 0.56446,-0.99219 z m -1.76172,3.16407 c -0.18135,0.33508 -0.36395,0.66904 -0.54297,1.00586 0.17908,-0.33694 0.36156,-0.67066 0.54297,-1.00586 z m -1.60938,3.06054 c -0.21152,0.41305 -0.42479,0.82467 -0.63281,1.24024 0.20798,-0.41548 0.42133,-0.82728 0.63281,-1.24024 z m -1.67187,3.36719 c -0.16697,0.34698 -0.33938,0.69038 -0.50391,1.03906 0.16457,-0.34875 0.3369,-0.69201 0.50391,-1.03906 z m -1.73242,3.72266 c -0.0928,0.20707 -0.18928,0.41148 -0.28125,0.61914 0.092,-0.20763 0.18842,-0.41209 0.28125,-0.61914 z m 139.51562,4.88672 c -1.46928,1e-5 -2.99236,0.0633 -4.57422,0.18945 -2.79877,0.22324 -5.61954,0.65033 -8.42578,1.26367 5.09281,1.47501 9.41865,4.06962 13.27344,7.8086 7.2881,7.06916 14.79446,19.56414 14.63867,48.93554 -8.94618,125.87564 -31.11766,293.20659 1.26953,434.07617 2.81647,12.24794 10.65987,23.25952 21.3125,29.92774 4.02821,2.52153 8.4406,4.40589 13.03125,5.62695 4.17153,-1.13843 8.1745,-2.86497 11.89063,-5.07617 -0.30787,-0.1827 -0.6183,-0.36075 -0.92188,-0.55078 -5.44756,-3.41001 -10.15424,-7.96039 -13.83594,-13.22656 -1.72328,0.32654 -3.44142,0.64065 -5.15234,0.9414 A 34.999936,34.999936 0 0 1 458.4375,787.01367 c -7.4e-4,-0.003 -10e-4,-0.007 -0.002,-0.01 3.42391,-0.36715 6.89826,-0.81195 10.39257,-1.29102 -2.18066,-9.84778 -4.10634,-19.81756 -5.7871,-29.89258 -3.59222,0.29587 -7.16212,0.55556 -10.67383,0.74024 -1.25347,-7.32072 -2.38427,-14.70259 -3.38672,-22.14258 3.55446,-0.0625 7.17256,-0.20051 10.81445,-0.37305 -1.31997,-9.97354 -2.42635,-20.02877 -3.34375,-30.14453 -3.67545,0.0189 -7.32438,0.004 -10.90429,-0.084 -0.67069,-7.35037 -1.24022,-14.73972 -1.71485,-22.16016 3.58491,0.18375 7.24232,0.29589 10.92774,0.375 -0.64367,-10.01922 -1.12018,-20.08003 -1.44532,-30.16602 -3.68694,-0.19364 -7.34389,-0.41826 -10.92383,-0.71289 -0.22898,-7.31803 -0.36196,-14.65638 -0.4414,-22.00195 3.57203,0.35983 7.22328,0.65274 10.90625,0.91406 -0.11951,-9.98091 -0.11348,-19.96721 0.01,-29.94531 -3.67736,-0.33477 -7.30979,-0.71229 -10.87109,-1.14258 0.0981,-7.23647 0.25387,-14.46958 0.46094,-21.69531 3.54903,0.4671 7.17095,0.8826 10.83789,1.25586 0.2735,-9.92581 0.64559,-19.82365 1.09375,-29.67969 -3.65863,-0.41406 -7.27078,-0.8692 -10.8086,-1.375 0.33274,-7.18481 0.69732,-14.35516 1.10352,-21.49219 3.53168,0.52546 7.13894,1.00046 10.79297,1.43555 0.55705,-9.89094 1.17481,-19.72577 1.8418,-29.47656 -3.64769,-0.45137 -7.24705,-0.94266 -10.77149,-1.48242 0.491,-7.15504 1.01889,-14.22182 1.54883,-21.28907 3.52352,0.54202 7.12228,1.03574 10.76953,1.49024 0.74096,-9.87284 1.50411,-19.62394 2.28711,-29.27539 -3.65105,-0.44674 -7.25424,-0.93134 -10.78125,-1.46485 0.57253,-7.09555 1.13896,-14.13776 1.71289,-21.09961 3.5318,0.51888 7.14087,0.98957 10.79688,1.42188 0.82006,-9.86711 1.62128,-19.54843 2.40429,-29.0918 -3.66647,-0.39998 -7.28564,-0.83948 -10.82812,-1.32617 0.54338,-6.69578 1.07142,-13.33529 1.57617,-19.85742 3.5715,0.28086 7.22127,0.53771 10.89844,0.7793 0.5535,-7.07563 1.08407,-14.06075 1.57031,-20.90235 0.008,-1.41525 -0.0177,-2.75753 -0.0449,-4.0957 -3.67619,0.53064 -7.34085,1.04423 -10.94531,1.52539 -0.0603,-5.75445 -0.42446,-10.99878 -1.03907,-15.78516 3.40776,-1.14976 6.87013,-2.3372 10.34766,-3.54882 -1.89068,-10.45056 -5.17216,-17.38081 -8.80274,-22.28516 -2.20385,1.74004 -4.40972,3.47867 -6.60351,5.18945 -2.28914,-5.82463 -5.08341,-10.50886 -8.10938,-14.35742 0.46084,-0.62967 0.9183,-1.27041 1.37891,-1.90234 -4.35432,-1.95804 -9.30245,-2.93754 -15.09375,-2.9375 z m 28.42773,14.00781 c -0.18584,-0.25104 -0.37307,-0.48385 -0.56054,-0.72461 0.18707,0.24056 0.37504,0.47403 0.56054,0.72461 z m 7.26758,85.49609 c 0.55829,-6.80435 1.11279,-13.58673 1.63086,-20.20508 -0.5184,6.62104 -1.07245,13.39923 -1.63086,20.20508 z m -19.27539,-95.92773 c 0.16044,0.0818 0.31775,0.16927 0.47657,0.25391 -0.15884,-0.0846 -0.31612,-0.17209 -0.47657,-0.25391 z m 1.32031,0.7168 c 0.16223,0.0932 0.32187,0.19085 0.48243,0.28711 -0.16058,-0.0963 -0.32018,-0.1939 -0.48243,-0.28711 z m 1.30469,0.79492 c 0.15544,0.1 0.30899,0.20371 0.46289,0.30664 -0.1539,-0.10292 -0.30745,-0.20667 -0.46289,-0.30664 z m 1.22852,0.83398 c 0.166,0.11825 0.33184,0.23759 0.49609,0.35938 -0.16426,-0.12179 -0.33008,-0.24113 -0.49609,-0.35938 z m 1.21875,0.91406 c 0.16443,0.12916 0.32947,0.25586 0.49219,0.38868 -0.16254,-0.13266 -0.32795,-0.25967 -0.49219,-0.38868 z m 1.2793,1.05665 c 0.11697,0.10146 0.23545,0.19931 0.35156,0.30273 -0.11617,-0.10346 -0.23454,-0.20123 -0.35156,-0.30273 z m 2.71289,2.60156 c 0.15038,0.15937 0.2991,0.32749 0.44921,0.49218 -0.15027,-0.1644 -0.29869,-0.33305 -0.44921,-0.49218 z m 1.16796,1.30078 c 0.19927,0.23144 0.39755,0.46531 0.59571,0.70703 -0.19837,-0.24142 -0.3962,-0.47598 -0.59571,-0.70703 z m 10.58008,24.51172 c 0.22577,1.24907 0.43157,2.54914 0.61524,3.90234 -0.18396,-1.35298 -0.38946,-2.65323 -0.61524,-3.90234 z m 0.62891,4.01953 c 0.17928,1.33288 0.33938,2.71584 0.47461,4.1543 -0.13563,-1.43844 -0.295,-2.82141 -0.47461,-4.1543 z m -190.22852,4.25976 c -0.01,0.10763 -0.0158,0.21651 -0.0254,0.32422 0.01,-0.1077 0.0156,-0.2166 0.0254,-0.32422 z m 190.71485,0.0274 c 0.1339,1.44226 0.24557,2.93538 0.33203,4.48828 -0.0867,-1.55269 -0.19776,-3.04632 -0.33203,-4.48828 z m -191.05078,4.42383 c -0.0253,0.40008 -0.0459,0.80181 -0.0684,1.20312 0.0223,-0.40132 0.0431,-0.80303 0.0684,-1.20312 z m 191.38867,0.16992 c 0.0862,1.57052 0.14722,3.1964 0.18164,4.88476 -0.0344,-1.68801 -0.0952,-3.31482 -0.18164,-4.88476 z m -191.60938,4.3789 c -0.017,0.4769 -0.036,0.95307 -0.0488,1.43165 0.0128,-0.47881 0.032,-0.95451 0.0488,-1.43165 z m 16.25391,141.28907 c 0.35637,0.0588 0.71271,0.11533 1.07031,0.16601 -0.35719,-0.0512 -0.71434,-0.10679 -1.07031,-0.16601 z m 13.97461,0.1914 c -0.22513,0.0309 -0.45023,0.0583 -0.67578,0.0859 0.22548,-0.0279 0.45072,-0.0548 0.67578,-0.0859 z m -11.56055,0.14453 c 0.31106,0.0351 0.6219,0.0688 0.93359,0.0977 -0.31162,-0.0293 -0.62261,-0.0622 -0.93359,-0.0977 z m 8.71875,0.15625 c -0.29039,0.022 -0.58031,0.0498 -0.87109,0.0664 0.29081,-0.0168 0.58068,-0.0441 0.87109,-0.0664 z m -6.14062,0.0664 c 0.18293,0.0105 0.36577,0.019 0.54882,0.0273 -0.18304,-0.008 -0.36592,-0.0167 -0.54882,-0.0273 z m 4.70898,0.0293 c -0.688,0.0309 -1.37736,0.0527 -2.06641,0.0527 0.6896,-5e-5 1.37792,-0.0214 2.06641,-0.0527 z m 150.44922,94.93945 c -0.014,0.68037 -0.0279,1.36047 -0.041,2.04102 0.0134,-0.68051 0.0267,-1.36068 0.041,-2.04102 z m -0.0449,52.55859 c 0.0682,3.3766 0.15759,6.75106 0.26172,10.12305 -0.10498,-3.37193 -0.18914,-6.74686 -0.26172,-10.12305 z m 8.26953,104.08399 c 0.0351,0.2365 0.0701,0.47258 0.10547,0.70898 -0.0354,-0.23637 -0.0703,-0.47251 -0.10547,-0.70898 z m 42.01953,81.24609 c -0.86273,0.19853 -1.73138,0.36521 -2.60352,0.51367 0.87188,-0.14851 1.74107,-0.3152 2.60352,-0.51367 z m -19.93945,0.27539 c 0.69423,0.13489 1.39043,0.25649 2.08984,0.36133 -0.69921,-0.10495 -1.39579,-0.22639 -2.08984,-0.36133 z m 16.41601,0.37696 c -0.59891,0.0897 -1.19893,0.16984 -1.80078,0.23632 0.60197,-0.0666 1.20177,-0.14652 1.80078,-0.23632 z m -13.59961,0.0879 c 0.74119,0.0998 1.48361,0.18215 2.22852,0.24804 -0.74433,-0.066 -1.4879,-0.14814 -2.22852,-0.24804 z m 2.70508,0.29492 c 0.92874,0.073 1.85979,0.12473 2.79102,0.14453 -0.93168,-0.02 -1.86183,-0.0712 -2.79102,-0.14453 z"
           transform="scale(0.26458333)" />
        <path
           id="path1070"
           style="color:#000000;font-style:normal;font-variant:normal;font-weight:normal;font-stretch:normal;font-size:medium;line-height:normal;font-family:sans-serif;font-variant-ligatures:normal;font-variant-position:normal;font-variant-caps:normal;font-variant-numeric:normal;font-variant-alternates:normal;font-variant-east-asian:normal;font-feature-settings:normal;font-variation-settings:normal;text-indent:0;text-align:start;text-decoration:none;text-decoration-line:none;text-decoration-style:solid;text-decoration-color:#000000;letter-spacing:normal;word-spacing:normal;text-transform:none;writing-mode:lr-tb;direction:ltr;text-orientation:mixed;dominant-baseline:auto;baseline-shift:baseline;text-anchor:start;white-space:normal;shape-padding:0;shape-margin:0;inline-size:0;clip-rule:nonzero;display:inline;overflow:visible;visibility:visible;opacity:0.49359;isolation:auto;mix-blend-mode:normal;color-interpolation:sRGB;color-interpolation-filters:linearRGB;solid-color:#000000;solid-opacity:1;vector-effect:none;fill:#ffffff;fill-opacity:1;fill-rule:nonzero;stroke:none;stroke-width:3.77953;stroke-linecap:round;stroke-linejoin:round;stroke-miterlimit:4;stroke-dasharray:none;stroke-dashoffset:0;stroke-opacity:1;color-rendering:auto;image-rendering:auto;shape-rendering:auto;text-rendering:auto;enable-background:accumulate;stop-color:#000000;stop-opacity:1"
           d="m 403.55859,201.71094 c -3.40865,0.0253 -6.80462,0.17235 -10.17773,0.4414 -0.41247,0.0329 -0.82408,0.0768 -1.23633,0.11328 28.56536,2.55315 57.06563,13.93655 79.55274,35.74805 28.80196,27.9367 44.38785,70.18385 43.84961,119.66797 v 0.008 c -0.009,0.94413 -0.0463,1.88618 -0.11133,2.82813 a 13.001302,13.001302 0 0 1 0,0.0137 c -9.16558,130.45786 -27.44106,293.33957 -1.10743,407.87891 2.81538,12.24612 0.57815,25.58006 -6.08984,36.23046 -6.339,10.12493 -16.60628,17.69829 -28.125,20.8418 7.5493,2.00809 15.58306,2.2155 23.19922,0.46289 12.24582,-2.81661 23.25779,-10.65428 29.92578,-21.30469 6.66799,-10.6504 8.90522,-23.98434 6.08984,-36.23046 -26.33363,-114.53934 -8.05815,-277.42105 1.10743,-407.87891 a 13.001302,13.001302 0 0 0 0,-0.0137 c 0.065,-0.94195 0.10225,-1.884 0.11133,-2.82813 v -0.008 c 0.53824,-49.48412 -15.04765,-91.73127 -43.84961,-119.66797 -26.05709,-25.27422 -60.18839,-36.54703 -93.13868,-36.30273 z m -22.9707,95.94336 c -1.46928,1e-5 -2.99236,0.0633 -4.57422,0.18945 -25.27343,2.01594 -52.46256,19.56954 -52.46289,59.32227 v 87.99804 c 0.002,12.56697 -5.16945,25.05626 -14.05469,33.94336 -5.90296,5.90421 -13.40066,10.15692 -21.45117,12.35547 4.07292,1.11237 8.28387,1.70763 12.50781,1.70703 12.56695,-8.7e-4 25.05813,-5.17539 33.94336,-14.0625 8.88524,-8.8871 14.05648,-21.37639 14.05469,-33.94336 v -87.99804 c 2.9e-4,-35.05132 21.13978,-52.83562 43.46484,-57.93555 -3.42632,-1.04382 -7.19975,-1.5762 -11.42773,-1.57617 z"
           transform="scale(0.26458333)" />
      </g>
    </g>
  </g>
</svg>
