<?xml version="1.0" encoding="UTF-8" standalone="no"?>
<svg
   xmlns:dc="http://purl.org/dc/elements/1.1/"
   xmlns:cc="http://creativecommons.org/ns#"
   xmlns:rdf="http://www.w3.org/1999/02/22-rdf-syntax-ns#"
   xmlns:svg="http://www.w3.org/2000/svg"
   xmlns="http://www.w3.org/2000/svg"
   xmlns:sodipodi="http://sodipodi.sourceforge.net/DTD/sodipodi-0.dtd"
   xmlns:inkscape="http://www.inkscape.org/namespaces/inkscape"
   width="793.70081"
   height="1122.5197"
   viewBox="0 0 210 297"
   version="1.1"
   id="svg8"
   inkscape:version="1.0 (6e3e5246a0, 2020-05-07)"
   sodipodi:docname="Chocolates.svg">
  <defs
     id="defs2" />
  <sodipodi:namedview
     id="base"
     pagecolor="#ffffff"
     bordercolor="#666666"
     borderopacity="1.0"
     inkscape:pageopacity="0.0"
     inkscape:pageshadow="2"
     inkscape:zoom="1"
     inkscape:cx="397.75226"
     inkscape:cy="560"
     inkscape:document-units="px"
     inkscape:current-layer="layer1"
     inkscape:document-rotation="0"
     showgrid="false"
     showborder="true"
     units="px"
     inkscape:snap-intersection-paths="false"
     inkscape:object-nodes="true"
     inkscape:object-paths="true"
     inkscape:snap-smooth-nodes="false"
     inkscape:snap-midpoints="false"
     inkscape:snap-nodes="true"
     inkscape:window-width="1846"
     inkscape:window-height="1016"
     inkscape:window-x="74"
     inkscape:window-y="27"
     inkscape:window-maximized="1" />
  <metadata
     id="metadata5">
    <rdf:RDF>
      <cc:Work
         rdf:about="">
        <dc:format>image/svg+xml</dc:format>
        <dc:type
           rdf:resource="http://purl.org/dc/dcmitype/StillImage" />
        <dc:title></dc:title>
      </cc:Work>
    </rdf:RDF>
  </metadata>
  <g
     inkscape:label="Layer 1"
     inkscape:groupmode="layer"
     id="layer1">
    <rect
       style="fill:#000000;fill-rule:evenodd;stroke-width:0.264583"
       id="rect1881"
       width="195.77917"
       height="111.63109"
       x="5.1432838"
       y="87.541443" />
    <g
       style="stroke-width:2.06346"
       transform="matrix(0.48462391,0,0,0.48462391,53.382583,75.075562)"
       id="g1633">
      <g
         style="stroke-width:2.06346"
         id="g1120">
        <path
           id="path1050"
           d="m 277.28455,166.40059 v 4.50459 l -10.25494,10.25494 v -7.22614 z"
           style="fill:#542b1b;fill-opacity:1;stroke:none;stroke-width:0.545955px;stroke-linecap:butt;stroke-linejoin:miter;stroke-opacity:1" />
        <path
           id="path1048"
           style="fill:#542b1b;fill-opacity:1;fill-rule:evenodd;stroke-width:0.545955"
           d="m 208.66325,152.51815 -58.00555,58.00556 54.54613,14.61559 1.994,-6.42298 8.78795,-3.5595 0.79189,-5.79759 10.87046,-1.92539 3.38461,2.18622 5.82739,-0.6607 1.00043,1.36982 39.424,-39.424 z" />
        <path
           d="m 208.66325,148.01356 -58.00555,58.00556 54.54613,14.61559 1.994,-6.42298 8.78795,-3.5595 0.79189,-5.79759 10.87046,-1.92539 3.38461,2.18622 5.82739,-0.6607 1.00043,1.36982 39.424,-39.424 z"
           style="fill:#653320;fill-opacity:1;fill-rule:evenodd;stroke-width:0.545955"
           id="path1589" />
        <rect
           y="97.769432"
           x="286.93204"
           height="19.154427"
           width="16.588219"
           id="rect1591"
           style="fill:#6f3824;fill-opacity:1;fill-rule:evenodd;stroke-width:0.586667"
           transform="matrix(0.96592583,0.25881905,-0.70710678,0.70710678,0,0)" />
        <path
           d="m 219.44536,150.53381 -19.03172,6.51379 9.87258,2.64535 z"
           style="fill:#aa5538;fill-opacity:1;fill-rule:evenodd;stroke-width:0.545953"
           id="path1593" />
        <path
           id="path1595"
           d="m 194.47742,156.94113 -0.0612,8.041 17.24719,4.62137 -1.16298,-8.36902 z"
           style="fill:#5a3a29;fill-opacity:1;stroke:none;stroke-width:0.545955px;stroke-linecap:butt;stroke-linejoin:miter;stroke-opacity:1" />
        <path
           id="path1597"
           d="m 224.04463,147.69025 2.19781,7.3342 -14.57905,14.57905 -1.16298,-8.36902 z"
           style="fill:#542b1a;fill-opacity:1;stroke:none;stroke-width:0.545955px;stroke-linecap:butt;stroke-linejoin:miter;stroke-opacity:1" />
        <rect
           style="fill:#6f3824;fill-opacity:1;fill-rule:evenodd;stroke-width:0.586667"
           id="rect1601"
           width="16.588219"
           height="19.154427"
           x="335.67419"
           y="97.769447"
           transform="matrix(0.96592583,0.25881905,-0.70710678,0.70710678,0,0)" />
        <path
           id="path1603"
           style="fill:#aa5538;fill-opacity:1;fill-rule:evenodd;stroke-width:0.545953"
           d="m 266.52666,163.14922 -19.03172,6.51378 9.87258,2.64535 z" />
        <path
           style="fill:#5a3a29;fill-opacity:1;stroke:none;stroke-width:0.545955px;stroke-linecap:butt;stroke-linejoin:miter;stroke-opacity:1"
           d="m 241.55872,169.55653 -0.0612,8.041 17.24719,4.62138 -1.16298,-8.36902 z"
           id="path1605" />
        <path
           style="fill:#542b1a;fill-opacity:1;stroke:none;stroke-width:0.545955px;stroke-linecap:butt;stroke-linejoin:miter;stroke-opacity:1"
           d="m 271.12593,160.30566 2.19781,7.3342 -14.57905,14.57905 -1.16299,-8.36902 z"
           id="path1607" />
        <rect
           y="97.769432"
           x="311.30313"
           height="19.154427"
           width="16.588219"
           id="rect1611"
           style="fill:#6f3824;fill-opacity:1;fill-rule:evenodd;stroke-width:0.586667"
           transform="matrix(0.96592583,0.25881905,-0.70710678,0.70710678,0,0)" />
        <path
           d="m 242.98601,156.84151 -19.03172,6.51379 9.87258,2.64535 z"
           style="fill:#aa5538;fill-opacity:1;fill-rule:evenodd;stroke-width:0.545953"
           id="path1613" />
        <path
           id="path1615"
           d="m 218.01807,163.24883 -0.0612,8.041 17.24719,4.62138 -1.16298,-8.36902 z"
           style="fill:#5a3a29;fill-opacity:1;stroke:none;stroke-width:0.545955px;stroke-linecap:butt;stroke-linejoin:miter;stroke-opacity:1" />
        <path
           id="path1617"
           d="m 247.58528,153.99796 2.19781,7.3342 -14.57905,14.57905 -1.16299,-8.36902 z"
           style="fill:#542b1a;fill-opacity:1;stroke:none;stroke-width:0.545955px;stroke-linecap:butt;stroke-linejoin:miter;stroke-opacity:1" />
        <rect
           style="fill:#6f3824;fill-opacity:1;fill-rule:evenodd;stroke-width:0.586667"
           id="rect1623"
           width="16.588219"
           height="19.154427"
           x="286.93204"
           y="154.05202"
           transform="matrix(0.96592583,0.25881905,-0.70710678,0.70710678,0,0)" />
        <path
           id="path1625"
           style="fill:#aa5538;fill-opacity:1;fill-rule:evenodd;stroke-width:0.545953"
           d="m 179.64756,190.33161 -19.03171,6.51379 9.87257,2.64535 z" />
        <path
           style="fill:#5a3a29;fill-opacity:1;stroke:none;stroke-width:0.545955px;stroke-linecap:butt;stroke-linejoin:miter;stroke-opacity:1"
           d="m 154.67962,196.73893 -0.0612,8.041 17.2472,4.62137 -1.16299,-8.36902 z"
           id="path1627" />
        <path
           style="fill:#542b1a;fill-opacity:1;stroke:none;stroke-width:0.545955px;stroke-linecap:butt;stroke-linejoin:miter;stroke-opacity:1"
           d="m 184.24683,187.48805 2.19781,7.3342 -14.57905,14.57905 -1.16298,-8.36902 z"
           id="path1629" />
        <rect
           style="fill:#6f3824;fill-opacity:1;fill-rule:evenodd;stroke-width:0.586667"
           id="rect1633"
           width="16.588219"
           height="19.154427"
           x="311.30313"
           y="154.05202"
           transform="matrix(0.96592583,0.25881905,-0.70710678,0.70710678,0,0)" />
        <path
           id="path1635"
           style="fill:#aa5538;fill-opacity:1;fill-rule:evenodd;stroke-width:0.545953"
           d="m 203.18821,196.63931 -19.03171,6.51379 9.87257,2.64535 z" />
        <path
           style="fill:#5a3a29;fill-opacity:1;stroke:none;stroke-width:0.545955px;stroke-linecap:butt;stroke-linejoin:miter;stroke-opacity:1"
           d="m 178.22027,203.04663 -0.0612,8.041 17.2472,4.62137 -1.16299,-8.36902 z"
           id="path1637" />
        <path
           style="fill:#542b1a;fill-opacity:1;stroke:none;stroke-width:0.545955px;stroke-linecap:butt;stroke-linejoin:miter;stroke-opacity:1"
           d="m 207.78748,193.79575 2.19781,7.3342 -14.57905,14.57905 -1.16298,-8.36902 z"
           id="path1639" />
        <g
           style="stroke-width:5.33176"
           transform="matrix(0.37382304,0.10016558,-0.31599242,0.31599242,188.61107,119.79107)"
           id="g1651">
          <rect
             style="opacity:1;fill:#8c462d;fill-opacity:1;fill-rule:evenodd;stroke-width:1.4107"
             id="rect1643"
             width="42.862499"
             height="42.862499"
             x="90.754112"
             y="108.90865" />
          <path
             id="path1645"
             style="opacity:1;fill:#c56c4d;fill-opacity:1;fill-rule:evenodd;stroke-width:5.33176"
             d="m 491.00781,450.07227 -99.8164,109.55078 h 99.8164 z"
             transform="scale(0.26458333)" />
          <path
             style="fill:#67422f;fill-opacity:1;stroke:none;stroke-width:1.4107px;stroke-linecap:butt;stroke-linejoin:miter;stroke-opacity:1"
             d="m 90.754112,151.77115 16.835388,20.11021 h 46.13732 l -20.11021,-20.11021 z"
             id="path1647" />
          <path
             style="fill:#542b1a;fill-opacity:1;stroke:none;stroke-width:1.4107px;stroke-linecap:butt;stroke-linejoin:miter;stroke-opacity:1"
             d="m 133.61661,108.90865 20.11021,16.83538 v 46.13733 l -20.11021,-20.11021 z"
             id="path1649" />
        </g>
        <g
           id="g1661"
           transform="matrix(0.37382304,0.10016558,-0.31599242,0.31599242,235.69237,132.40647)"
           style="stroke-width:5.33176">
          <rect
             y="108.90865"
             x="90.754112"
             height="42.862499"
             width="42.862499"
             id="rect1653"
             style="opacity:1;fill:#8c462d;fill-opacity:1;fill-rule:evenodd;stroke-width:1.4107" />
          <path
             transform="scale(0.26458333)"
             d="m 491.00781,450.07227 -99.8164,109.55078 h 99.8164 z"
             style="opacity:1;fill:#c56c4d;fill-opacity:1;fill-rule:evenodd;stroke-width:5.33176"
             id="path1655" />
          <path
             id="path1657"
             d="m 90.754112,151.77115 16.835388,20.11021 h 46.13732 l -20.11021,-20.11021 z"
             style="fill:#67422f;fill-opacity:1;stroke:none;stroke-width:1.4107px;stroke-linecap:butt;stroke-linejoin:miter;stroke-opacity:1" />
          <path
             id="path1659"
             d="m 133.61661,108.90865 20.11021,16.83538 v 46.13733 l -20.11021,-20.11021 z"
             style="fill:#542b1a;fill-opacity:1;stroke:none;stroke-width:1.4107px;stroke-linecap:butt;stroke-linejoin:miter;stroke-opacity:1" />
        </g>
        <g
           style="stroke-width:5.33176"
           transform="matrix(0.37382304,0.10016558,-0.31599242,0.31599242,212.15172,126.09877)"
           id="g1671">
          <rect
             style="opacity:1;fill:#8c462d;fill-opacity:1;fill-rule:evenodd;stroke-width:1.4107"
             id="rect1663"
             width="42.862499"
             height="42.862499"
             x="90.754112"
             y="108.90865" />
          <path
             id="path1665"
             style="opacity:1;fill:#c56c4d;fill-opacity:1;fill-rule:evenodd;stroke-width:5.33176"
             d="m 491.00781,450.07227 -99.8164,109.55078 h 99.8164 z"
             transform="scale(0.26458333)" />
          <path
             style="fill:#67422f;fill-opacity:1;stroke:none;stroke-width:1.4107px;stroke-linecap:butt;stroke-linejoin:miter;stroke-opacity:1"
             d="m 90.754112,151.77115 16.835388,20.11021 h 46.13732 l -20.11021,-20.11021 z"
             id="path1667" />
          <path
             style="fill:#542b1a;fill-opacity:1;stroke:none;stroke-width:1.4107px;stroke-linecap:butt;stroke-linejoin:miter;stroke-opacity:1"
             d="m 133.61661,108.90865 20.11021,16.83538 v 46.13733 l -20.11021,-20.11021 z"
             id="path1669" />
        </g>
        <rect
           style="fill:#6f3824;fill-opacity:1;fill-rule:evenodd;stroke-width:0.586667"
           id="rect1675"
           width="16.588219"
           height="19.154427"
           x="286.93204"
           y="125.91073"
           transform="matrix(0.96592583,0.25881905,-0.70710678,0.70710678,0,0)" />
        <path
           id="path1677"
           style="fill:#aa5538;fill-opacity:1;fill-rule:evenodd;stroke-width:0.545953"
           d="m 199.54646,170.43272 -19.03171,6.51378 9.87257,2.64535 z" />
        <path
           style="fill:#5a3a29;fill-opacity:1;stroke:none;stroke-width:0.545955px;stroke-linecap:butt;stroke-linejoin:miter;stroke-opacity:1"
           d="m 174.57852,176.84003 -0.0612,8.041 17.2472,4.62138 -1.16299,-8.36902 z"
           id="path1679" />
        <path
           style="fill:#542b1a;fill-opacity:1;stroke:none;stroke-width:0.545955px;stroke-linecap:butt;stroke-linejoin:miter;stroke-opacity:1"
           d="m 204.14573,167.58916 2.19781,7.3342 -14.57905,14.57905 -1.16298,-8.36902 z"
           id="path1681" />
        <rect
           y="125.91074"
           x="335.67419"
           height="19.154427"
           width="16.588219"
           id="rect1685"
           style="fill:#6f3824;fill-opacity:1;fill-rule:evenodd;stroke-width:0.586667"
           transform="matrix(0.96592583,0.25881905,-0.70710678,0.70710678,0,0)" />
        <path
           d="m 246.62776,183.04812 -19.03172,6.51379 9.87258,2.64535 z"
           style="fill:#aa5538;fill-opacity:1;fill-rule:evenodd;stroke-width:0.545953"
           id="path1687" />
        <path
           id="path1689"
           d="m 221.65982,189.45544 -0.0612,8.041 17.24719,4.62137 -1.16298,-8.36902 z"
           style="fill:#5a3a29;fill-opacity:1;stroke:none;stroke-width:0.545955px;stroke-linecap:butt;stroke-linejoin:miter;stroke-opacity:1" />
        <path
           id="path1691"
           d="m 251.22703,180.20456 2.19781,7.3342 -14.57905,14.57905 -1.16299,-8.36902 z"
           style="fill:#542b1a;fill-opacity:1;stroke:none;stroke-width:0.545955px;stroke-linecap:butt;stroke-linejoin:miter;stroke-opacity:1" />
        <rect
           style="fill:#6f3824;fill-opacity:1;fill-rule:evenodd;stroke-width:0.586667"
           id="rect1695"
           width="16.588219"
           height="19.154427"
           x="311.30313"
           y="125.91074"
           transform="matrix(0.96592583,0.25881905,-0.70710678,0.70710678,0,0)" />
        <path
           id="path1697"
           style="fill:#aa5538;fill-opacity:1;fill-rule:evenodd;stroke-width:0.545953"
           d="m 223.08711,176.74042 -19.03172,6.51379 9.87258,2.64534 z" />
        <path
           style="fill:#5a3a29;fill-opacity:1;stroke:none;stroke-width:0.545955px;stroke-linecap:butt;stroke-linejoin:miter;stroke-opacity:1"
           d="m 198.11917,183.14773 -0.0612,8.04101 17.24719,4.62137 -1.16298,-8.36902 z"
           id="path1699" />
        <path
           style="fill:#542b1a;fill-opacity:1;stroke:none;stroke-width:0.545955px;stroke-linecap:butt;stroke-linejoin:miter;stroke-opacity:1"
           d="m 227.68638,173.89686 2.19781,7.3342 -14.57905,14.57905 -1.16298,-8.36902 z"
           id="path1701" />
        <path
           id="path1052"
           d="m 150.6577,206.01912 v 4.50459 l 54.54613,14.61559 v -4.50459 z"
           style="fill:#542b1b;fill-opacity:1;stroke:none;stroke-width:0.545955px;stroke-linecap:butt;stroke-linejoin:miter;stroke-opacity:1" />
      </g>
      <g
         style="stroke-width:2.06346"
         id="g1250">
        <path
           d="m 99.430364,114.62315 -58.005554,58.00556 54.546134,14.61559 1.993993,-6.42298 8.787953,-3.55951 0.79189,-5.79759 10.87046,-1.92538 3.38461,2.18622 5.82739,-0.6607 1.00043,1.36982 39.424,-39.424 z"
           style="fill:#683521;fill-opacity:1;fill-rule:evenodd;stroke-width:0.545951"
           id="path1182" />
        <path
           id="rect1031"
           style="fill:#9c4f32;fill-opacity:1;fill-rule:evenodd;stroke-width:0.545951"
           d="m 99.430364,108.94178 -58.005554,58.00556 54.546134,14.61559 1.993993,-6.42298 8.787953,-3.55951 0.79189,-5.79759 10.87046,-1.92538 3.38461,2.18622 5.82739,-0.6607 1.00043,1.36982 39.424,-39.424 z" />
        <g
           transform="matrix(0.84145704,0.22546773,-0.71128317,0.71128317,139.43802,35.864234)"
           style="stroke-width:2.36866"
           id="g912">
          <g
             style="stroke-width:5.33176"
             transform="matrix(0.44425683,0,0,0.44425683,-14.251038,39.603501)"
             id="g875">
            <rect
               style="opacity:1;fill:#8c462d;fill-opacity:1;fill-rule:evenodd;stroke-width:1.4107"
               id="rect835"
               width="42.862499"
               height="42.862499"
               x="90.754112"
               y="108.90865" />
            <path
               id="rect837"
               style="opacity:1;fill:#c56c4d;fill-opacity:1;fill-rule:evenodd;stroke-width:5.33176"
               d="m 491.00781,450.07227 -99.8164,109.55078 h 99.8164 z"
               transform="scale(0.26458333)" />
            <path
               style="fill:#67422f;fill-opacity:1;stroke:none;stroke-width:1.4107px;stroke-linecap:butt;stroke-linejoin:miter;stroke-opacity:1"
               d="m 90.754112,151.77115 16.835388,20.11021 h 46.13732 l -20.11021,-20.11021 z"
               id="path843" />
            <path
               style="fill:#542b1a;fill-opacity:1;stroke:none;stroke-width:1.4107px;stroke-linecap:butt;stroke-linejoin:miter;stroke-opacity:1"
               d="m 133.61661,108.90865 20.11021,16.83538 v 46.13733 l -20.11021,-20.11021 z"
               id="path845" />
          </g>
          <g
             id="g885"
             transform="matrix(0.44425683,0,0,0.44425683,41.701074,39.603501)"
             style="stroke-width:5.33176">
            <rect
               y="108.90865"
               x="90.754112"
               height="42.862499"
               width="42.862499"
               id="rect877"
               style="opacity:1;fill:#8c462d;fill-opacity:1;fill-rule:evenodd;stroke-width:1.4107" />
            <path
               transform="scale(0.26458333)"
               d="m 491.00781,450.07227 -99.8164,109.55078 h 99.8164 z"
               style="opacity:1;fill:#c56c4d;fill-opacity:1;fill-rule:evenodd;stroke-width:5.33176"
               id="path879" />
            <path
               id="path881"
               d="m 90.754112,151.77115 16.835388,20.11021 h 46.13732 l -20.11021,-20.11021 z"
               style="fill:#67422f;fill-opacity:1;stroke:none;stroke-width:1.4107px;stroke-linecap:butt;stroke-linejoin:miter;stroke-opacity:1" />
            <path
               id="path883"
               d="m 133.61661,108.90865 20.11021,16.83538 v 46.13733 l -20.11021,-20.11021 z"
               style="fill:#542b1a;fill-opacity:1;stroke:none;stroke-width:1.4107px;stroke-linecap:butt;stroke-linejoin:miter;stroke-opacity:1" />
          </g>
          <g
             style="stroke-width:5.33176"
             transform="matrix(0.44425683,0,0,0.44425683,13.725018,39.603501)"
             id="g895">
            <rect
               style="opacity:1;fill:#8c462d;fill-opacity:1;fill-rule:evenodd;stroke-width:1.4107"
               id="rect887"
               width="42.862499"
               height="42.862499"
               x="90.754112"
               y="108.90865" />
            <path
               id="path889"
               style="opacity:1;fill:#c56c4d;fill-opacity:1;fill-rule:evenodd;stroke-width:5.33176"
               d="m 491.00781,450.07227 -99.8164,109.55078 h 99.8164 z"
               transform="scale(0.26458333)" />
            <path
               style="fill:#67422f;fill-opacity:1;stroke:none;stroke-width:1.4107px;stroke-linecap:butt;stroke-linejoin:miter;stroke-opacity:1"
               d="m 90.754112,151.77115 16.835388,20.11021 h 46.13732 l -20.11021,-20.11021 z"
               id="path891" />
            <path
               style="fill:#542b1a;fill-opacity:1;stroke:none;stroke-width:1.4107px;stroke-linecap:butt;stroke-linejoin:miter;stroke-opacity:1"
               d="m 133.61661,108.90865 20.11021,16.83538 v 46.13733 l -20.11021,-20.11021 z"
               id="path893" />
          </g>
        </g>
        <g
           style="stroke-width:5.33176"
           transform="matrix(0.37382304,0.10016558,-0.31599241,0.31599241,59.479283,100.61819)"
           id="g922">
          <rect
             style="opacity:1;fill:#8c462d;fill-opacity:1;fill-rule:evenodd;stroke-width:1.4107"
             id="rect914"
             width="42.862499"
             height="42.862499"
             x="90.754112"
             y="108.90865" />
          <path
             id="path916"
             style="opacity:1;fill:#c56c4d;fill-opacity:1;fill-rule:evenodd;stroke-width:5.33176"
             d="m 491.00781,450.07227 -99.8164,109.55078 h 99.8164 z"
             transform="scale(0.26458333)" />
          <path
             style="fill:#67422f;fill-opacity:1;stroke:none;stroke-width:1.4107px;stroke-linecap:butt;stroke-linejoin:miter;stroke-opacity:1"
             d="m 90.754112,151.77115 16.835388,20.11021 h 46.13732 l -20.11021,-20.11021 z"
             id="path918" />
          <path
             style="fill:#542b1a;fill-opacity:1;stroke:none;stroke-width:1.4107px;stroke-linecap:butt;stroke-linejoin:miter;stroke-opacity:1"
             d="m 133.61661,108.90865 20.11021,16.83538 v 46.13733 l -20.11021,-20.11021 z"
             id="path920" />
        </g>
        <g
           style="stroke-width:5.33176"
           transform="matrix(0.37382304,0.10016558,-0.31599241,0.31599241,83.019932,106.92588)"
           id="g942">
          <rect
             style="opacity:1;fill:#8c462d;fill-opacity:1;fill-rule:evenodd;stroke-width:1.4107"
             id="rect934"
             width="42.862499"
             height="42.862499"
             x="90.754112"
             y="108.90865" />
          <path
             id="path936"
             style="opacity:1;fill:#c56c4d;fill-opacity:1;fill-rule:evenodd;stroke-width:5.33176"
             d="m 491.00781,450.07227 -99.8164,109.55078 h 99.8164 z"
             transform="scale(0.26458333)" />
          <path
             style="fill:#67422f;fill-opacity:1;stroke:none;stroke-width:1.4107px;stroke-linecap:butt;stroke-linejoin:miter;stroke-opacity:1"
             d="m 90.754112,151.77115 16.835388,20.11021 h 46.13732 l -20.11021,-20.11021 z"
             id="path938" />
          <path
             style="fill:#542b1a;fill-opacity:1;stroke:none;stroke-width:1.4107px;stroke-linecap:butt;stroke-linejoin:miter;stroke-opacity:1"
             d="m 133.61661,108.90865 20.11021,16.83538 v 46.13733 l -20.11021,-20.11021 z"
             id="path940" />
        </g>
        <g
           style="stroke-width:2.36866"
           id="g976"
           transform="matrix(0.84145704,0.22546773,-0.71128317,0.71128317,119.53912,55.763133)">
          <g
             style="stroke-width:5.33176"
             transform="matrix(0.44425683,0,0,0.44425683,-14.251038,39.603501)"
             id="g954">
            <rect
               style="opacity:1;fill:#8c462d;fill-opacity:1;fill-rule:evenodd;stroke-width:1.4107"
               id="rect946"
               width="42.862499"
               height="42.862499"
               x="90.754112"
               y="108.90865" />
            <path
               id="path948"
               style="opacity:1;fill:#c56c4d;fill-opacity:1;fill-rule:evenodd;stroke-width:5.33176"
               d="m 491.00781,450.07227 -99.8164,109.55078 h 99.8164 z"
               transform="scale(0.26458333)" />
            <path
               style="fill:#67422f;fill-opacity:1;stroke:none;stroke-width:1.4107px;stroke-linecap:butt;stroke-linejoin:miter;stroke-opacity:1"
               d="m 90.754112,151.77115 16.835388,20.11021 h 46.13732 l -20.11021,-20.11021 z"
               id="path950" />
            <path
               style="fill:#542b1a;fill-opacity:1;stroke:none;stroke-width:1.4107px;stroke-linecap:butt;stroke-linejoin:miter;stroke-opacity:1"
               d="m 133.61661,108.90865 20.11021,16.83538 v 46.13733 l -20.11021,-20.11021 z"
               id="path952" />
          </g>
          <g
             id="g964"
             transform="matrix(0.44425683,0,0,0.44425683,41.701074,39.603501)"
             style="stroke-width:5.33176">
            <rect
               y="108.90865"
               x="90.754112"
               height="42.862499"
               width="42.862499"
               id="rect956"
               style="opacity:1;fill:#8c462d;fill-opacity:1;fill-rule:evenodd;stroke-width:1.4107" />
            <path
               transform="scale(0.26458333)"
               d="m 491.00781,450.07227 -99.8164,109.55078 h 99.8164 z"
               style="opacity:1;fill:#c56c4d;fill-opacity:1;fill-rule:evenodd;stroke-width:5.33176"
               id="path958" />
            <path
               id="path960"
               d="m 90.754112,151.77115 16.835388,20.11021 h 46.13732 l -20.11021,-20.11021 z"
               style="fill:#67422f;fill-opacity:1;stroke:none;stroke-width:1.4107px;stroke-linecap:butt;stroke-linejoin:miter;stroke-opacity:1" />
            <path
               id="path962"
               d="m 133.61661,108.90865 20.11021,16.83538 v 46.13733 l -20.11021,-20.11021 z"
               style="fill:#542b1a;fill-opacity:1;stroke:none;stroke-width:1.4107px;stroke-linecap:butt;stroke-linejoin:miter;stroke-opacity:1" />
          </g>
          <g
             style="stroke-width:5.33176"
             transform="matrix(0.44425683,0,0,0.44425683,13.725018,39.603501)"
             id="g974">
            <rect
               style="opacity:1;fill:#8c462d;fill-opacity:1;fill-rule:evenodd;stroke-width:1.4107"
               id="rect966"
               width="42.862499"
               height="42.862499"
               x="90.754112"
               y="108.90865" />
            <path
               id="path968"
               style="opacity:1;fill:#c56c4d;fill-opacity:1;fill-rule:evenodd;stroke-width:5.33176"
               d="m 491.00781,450.07227 -99.8164,109.55078 h 99.8164 z"
               transform="scale(0.26458333)" />
            <path
               style="fill:#67422f;fill-opacity:1;stroke:none;stroke-width:1.4107px;stroke-linecap:butt;stroke-linejoin:miter;stroke-opacity:1"
               d="m 90.754112,151.77115 16.835388,20.11021 h 46.13732 l -20.11021,-20.11021 z"
               id="path970" />
            <path
               style="fill:#542b1a;fill-opacity:1;stroke:none;stroke-width:1.4107px;stroke-linecap:butt;stroke-linejoin:miter;stroke-opacity:1"
               d="m 133.61661,108.90865 20.11021,16.83538 v 46.13733 l -20.11021,-20.11021 z"
               id="path972" />
          </g>
        </g>
        <g
           style="stroke-width:2.36866"
           transform="matrix(0.84145704,0.22546773,-0.71128317,0.71128317,119.53912,55.763133)"
           id="g1008">
          <g
             id="g986"
             transform="matrix(0.44425683,0,0,0.44425683,-14.251038,39.603501)"
             style="stroke-width:5.33176">
            <rect
               y="108.90865"
               x="90.754112"
               height="42.862499"
               width="42.862499"
               id="rect978"
               style="opacity:1;fill:#8c462d;fill-opacity:1;fill-rule:evenodd;stroke-width:1.4107" />
            <path
               transform="scale(0.26458333)"
               d="m 491.00781,450.07227 -99.8164,109.55078 h 99.8164 z"
               style="opacity:1;fill:#c56c4d;fill-opacity:1;fill-rule:evenodd;stroke-width:5.33176"
               id="path980" />
            <path
               id="path982"
               d="m 90.754112,151.77115 16.835388,20.11021 h 46.13732 l -20.11021,-20.11021 z"
               style="fill:#67422f;fill-opacity:1;stroke:none;stroke-width:1.4107px;stroke-linecap:butt;stroke-linejoin:miter;stroke-opacity:1" />
            <path
               id="path984"
               d="m 133.61661,108.90865 20.11021,16.83538 v 46.13733 l -20.11021,-20.11021 z"
               style="fill:#542b1a;fill-opacity:1;stroke:none;stroke-width:1.4107px;stroke-linecap:butt;stroke-linejoin:miter;stroke-opacity:1" />
          </g>
          <g
             style="stroke-width:5.33176"
             transform="matrix(0.44425683,0,0,0.44425683,41.701074,39.603501)"
             id="g996">
            <rect
               style="opacity:1;fill:#8c462d;fill-opacity:1;fill-rule:evenodd;stroke-width:1.4107"
               id="rect988"
               width="42.862499"
               height="42.862499"
               x="90.754112"
               y="108.90865" />
            <path
               id="path990"
               style="opacity:1;fill:#c56c4d;fill-opacity:1;fill-rule:evenodd;stroke-width:5.33176"
               d="m 491.00781,450.07227 -99.8164,109.55078 h 99.8164 z"
               transform="scale(0.26458333)" />
            <path
               style="fill:#67422f;fill-opacity:1;stroke:none;stroke-width:1.4107px;stroke-linecap:butt;stroke-linejoin:miter;stroke-opacity:1"
               d="m 90.754112,151.77115 16.835388,20.11021 h 46.13732 l -20.11021,-20.11021 z"
               id="path992" />
            <path
               style="fill:#542b1a;fill-opacity:1;stroke:none;stroke-width:1.4107px;stroke-linecap:butt;stroke-linejoin:miter;stroke-opacity:1"
               d="m 133.61661,108.90865 20.11021,16.83538 v 46.13733 l -20.11021,-20.11021 z"
               id="path994" />
          </g>
          <g
             id="g1006"
             transform="matrix(0.44425683,0,0,0.44425683,13.725018,39.603501)"
             style="stroke-width:5.33176">
            <rect
               y="108.90865"
               x="90.754112"
               height="42.862499"
               width="42.862499"
               id="rect998"
               style="opacity:1;fill:#8c462d;fill-opacity:1;fill-rule:evenodd;stroke-width:1.4107" />
            <path
               transform="scale(0.26458333)"
               d="m 491.00781,450.07227 -99.8164,109.55078 h 99.8164 z"
               style="opacity:1;fill:#c56c4d;fill-opacity:1;fill-rule:evenodd;stroke-width:5.33176"
               id="path1000" />
            <path
               id="path1002"
               d="m 90.754112,151.77115 16.835388,20.11021 h 46.13732 l -20.11021,-20.11021 z"
               style="fill:#67422f;fill-opacity:1;stroke:none;stroke-width:1.4107px;stroke-linecap:butt;stroke-linejoin:miter;stroke-opacity:1" />
            <path
               id="path1004"
               d="m 133.61661,108.90865 20.11021,16.83538 v 46.13733 l -20.11021,-20.11021 z"
               style="fill:#542b1a;fill-opacity:1;stroke:none;stroke-width:1.4107px;stroke-linecap:butt;stroke-linejoin:miter;stroke-opacity:1" />
          </g>
        </g>
        <path
           id="path1184"
           d="m 168.05167,127.32881 -39.424,39.424 v 5.68137 l 39.424,-39.424 z"
           style="fill:#683521;fill-opacity:1;stroke:none;stroke-width:0.545955px;stroke-linecap:butt;stroke-linejoin:miter;stroke-opacity:1" />
        <path
           id="path1186"
           d="m 41.424809,166.94734 54.546134,14.61559 v 5.68137 L 41.424809,172.62871 Z"
           style="fill:#683521;fill-opacity:1;stroke:none;stroke-width:0.545955px;stroke-linecap:butt;stroke-linejoin:miter;stroke-opacity:1" />
      </g>
      <g
         style="stroke-width:2.06346"
         id="g1463">
        <path
           id="path1403"
           style="fill:#ffe788;fill-opacity:1;fill-rule:evenodd;stroke:none;stroke-width:0.545955"
           d="m -12.119285,76.600052 -58.005555,58.005548 54.546134,14.6156 1.993993,-6.42297 8.7879493,-3.55952 0.7918946,-5.79759 10.8704632,-1.92538 3.3846049,2.18623 5.827392,-0.66071 1.000428,1.36982 39.424001,-39.424002 z" />
        <path
           d="m -12.119285,70.820172 -58.005555,58.005548 54.546134,14.6156 1.993993,-6.42297 8.7879493,-3.55952 0.7918946,-5.79759 10.8704632,-1.92538 3.3846049,2.18623 5.827392,-0.66071 1.000428,1.36982 39.424001,-39.424002 z"
           style="fill:#fff0b5;fill-opacity:1;fill-rule:evenodd;stroke:none;stroke-width:0.545955"
           id="path1113" />
        <rect
           style="fill:#fff2bc;fill-opacity:1;fill-rule:evenodd;stroke:none;stroke-width:0.586667"
           id="rect1147"
           width="16.588219"
           height="19.154427"
           x="43.635719"
           y="133.93672"
           transform="matrix(0.96592583,0.25881905,-0.70710678,0.70710678,0,0)" />
        <path
           id="path1149"
           style="fill:#fffae7;fill-opacity:1;fill-rule:evenodd;stroke:none;stroke-width:0.545953"
           d="m -41.134979,113.13823 -19.031714,6.51378 9.872575,2.64535 z" />
        <path
           style="fill:#ffeda4;fill-opacity:1;stroke:none;stroke-width:0.545955px;stroke-linecap:butt;stroke-linejoin:miter;stroke-opacity:1"
           d="m -66.102921,119.54554 -0.06122,8.041 17.247193,4.62138 -1.162987,-8.36902 z"
           id="path1151" />
        <path
           style="fill:#ffe88c;fill-opacity:1;stroke:none;stroke-width:0.545955px;stroke-linecap:butt;stroke-linejoin:miter;stroke-opacity:1"
           d="m -36.535707,110.29467 2.197808,7.3342 -14.579047,14.57905 -1.162986,-8.36902 z"
           id="path1153" />
        <rect
           style="fill:#fff2bc;fill-opacity:1;fill-rule:evenodd;stroke:none;stroke-width:0.586667"
           id="rect1157"
           width="16.588219"
           height="19.154427"
           x="68.006798"
           y="133.93672"
           transform="matrix(0.96592583,0.25881905,-0.70710678,0.70710678,0,0)" />
        <path
           id="path1159"
           style="fill:#fffae7;fill-opacity:1;fill-rule:evenodd;stroke:none;stroke-width:0.545953"
           d="m -17.59433,119.44592 -19.031713,6.51379 9.872575,2.64534 z" />
        <path
           style="fill:#ffeda4;fill-opacity:1;stroke:none;stroke-width:0.545955px;stroke-linecap:butt;stroke-linejoin:miter;stroke-opacity:1"
           d="m -42.562272,125.85324 -0.06121,8.041 17.247194,4.62138 -1.162986,-8.36903 z"
           id="path1161" />
        <path
           style="fill:#ffe88c;fill-opacity:1;stroke:none;stroke-width:0.545955px;stroke-linecap:butt;stroke-linejoin:miter;stroke-opacity:1"
           d="m -12.995057,116.60237 2.197807,7.3342 -14.579046,14.57905 -1.162986,-8.36903 z"
           id="path1163" />
        <g
           transform="matrix(0.84145705,0.22546774,-0.71128319,0.71128319,7.9894724,17.641521)"
           id="g1197"
           style="stroke:none;stroke-width:2.36866">
          <g
             id="g1175"
             transform="matrix(0.44425683,0,0,0.44425683,-14.251038,39.603501)"
             style="stroke:none;stroke-width:5.33176">
            <rect
               y="108.90865"
               x="90.754112"
               height="42.862499"
               width="42.862499"
               id="rect1167"
               style="opacity:1;fill:#8c462d;fill-opacity:1;fill-rule:evenodd;stroke:none;stroke-width:1.4107" />
            <path
               transform="scale(0.26458333)"
               d="m 491.00781,450.07227 -99.8164,109.55078 h 99.8164 z"
               style="opacity:1;fill:#c56c4d;fill-opacity:1;fill-rule:evenodd;stroke:none;stroke-width:5.33176"
               id="path1169" />
            <path
               id="path1171"
               d="m 90.754112,151.77115 16.835388,20.11021 h 46.13732 l -20.11021,-20.11021 z"
               style="fill:#67422f;fill-opacity:1;stroke:none;stroke-width:1.4107px;stroke-linecap:butt;stroke-linejoin:miter;stroke-opacity:1" />
            <path
               id="path1173"
               d="m 133.61661,108.90865 20.11021,16.83538 v 46.13733 l -20.11021,-20.11021 z"
               style="fill:#542b1a;fill-opacity:1;stroke:none;stroke-width:1.4107px;stroke-linecap:butt;stroke-linejoin:miter;stroke-opacity:1" />
          </g>
          <g
             style="stroke:none;stroke-width:5.33176"
             transform="matrix(0.44425683,0,0,0.44425683,41.701074,39.603501)"
             id="g1185">
            <rect
               style="opacity:1;fill:#8c462d;fill-opacity:1;fill-rule:evenodd;stroke:none;stroke-width:1.4107"
               id="rect1177"
               width="42.862499"
               height="42.862499"
               x="90.754112"
               y="108.90865" />
            <path
               id="path1179"
               style="opacity:1;fill:#c56c4d;fill-opacity:1;fill-rule:evenodd;stroke:none;stroke-width:5.33176"
               d="m 491.00781,450.07227 -99.8164,109.55078 h 99.8164 z"
               transform="scale(0.26458333)" />
            <path
               style="fill:#67422f;fill-opacity:1;stroke:none;stroke-width:1.4107px;stroke-linecap:butt;stroke-linejoin:miter;stroke-opacity:1"
               d="m 90.754112,151.77115 16.835388,20.11021 h 46.13732 l -20.11021,-20.11021 z"
               id="path1181" />
            <path
               style="fill:#542b1a;fill-opacity:1;stroke:none;stroke-width:1.4107px;stroke-linecap:butt;stroke-linejoin:miter;stroke-opacity:1"
               d="m 133.61661,108.90865 20.11021,16.83538 v 46.13733 l -20.11021,-20.11021 z"
               id="path1183" />
          </g>
          <g
             id="g1195"
             transform="matrix(0.44425683,0,0,0.44425683,13.725018,39.603501)"
             style="stroke:none;stroke-width:5.33176">
            <rect
               y="108.90865"
               x="90.754112"
               height="42.862499"
               width="42.862499"
               id="rect1187"
               style="opacity:1;fill:#8c462d;fill-opacity:1;fill-rule:evenodd;stroke:none;stroke-width:1.4107" />
            <path
               transform="scale(0.26458333)"
               d="m 491.00781,450.07227 -99.8164,109.55078 h 99.8164 z"
               style="opacity:1;fill:#c56c4d;fill-opacity:1;fill-rule:evenodd;stroke:none;stroke-width:5.33176"
               id="path1189" />
            <path
               id="path1191"
               d="m 90.754112,151.77115 16.835388,20.11021 h 46.13732 l -20.11021,-20.11021 z"
               style="fill:#67422f;fill-opacity:1;stroke:none;stroke-width:1.4107px;stroke-linecap:butt;stroke-linejoin:miter;stroke-opacity:1" />
            <path
               id="path1193"
               d="m 133.61661,108.90865 20.11021,16.83538 v 46.13733 l -20.11021,-20.11021 z"
               style="fill:#542b1a;fill-opacity:1;stroke:none;stroke-width:1.4107px;stroke-linecap:butt;stroke-linejoin:miter;stroke-opacity:1" />
          </g>
        </g>
        <rect
           y="77.654137"
           x="43.635719"
           height="19.154427"
           width="16.588219"
           id="rect1115"
           style="fill:#fff2bc;fill-opacity:1;fill-rule:evenodd;stroke:none;stroke-width:0.586667"
           transform="matrix(0.96592583,0.25881905,-0.70710678,0.70710678,0,0)" />
        <path
           d="m -1.337181,73.340423 -19.031713,6.513791 9.872575,2.645348 z"
           style="fill:#fffae7;fill-opacity:1;fill-rule:evenodd;stroke:none;stroke-width:0.545953"
           id="path1117" />
        <path
           id="path1119"
           d="m -26.305123,79.747747 -0.06122,8.041 17.2471936,4.621372 -1.1629866,-8.369025 z"
           style="fill:#ffeda4;fill-opacity:1;stroke:none;stroke-width:0.545955px;stroke-linecap:butt;stroke-linejoin:miter;stroke-opacity:1" />
        <path
           id="path1121"
           d="M 3.2620912,70.496869 5.4598993,77.831073 -9.1191474,92.410119 -10.282134,84.041094 Z"
           style="fill:#ffe88c;fill-opacity:1;stroke:none;stroke-width:0.545955px;stroke-linecap:butt;stroke-linejoin:miter;stroke-opacity:1" />
        <rect
           style="fill:#fff2bc;fill-opacity:1;fill-rule:evenodd;stroke:none;stroke-width:0.586667"
           id="rect1125"
           width="16.588219"
           height="19.154427"
           x="92.377869"
           y="77.654137"
           transform="matrix(0.96592583,0.25881905,-0.70710678,0.70710678,0,0)" />
        <path
           id="path1127"
           style="fill:#fffae7;fill-opacity:1;fill-rule:evenodd;stroke:none;stroke-width:0.545953"
           d="M 45.744118,85.955819 26.712404,92.46961 36.58498,95.114958 Z" />
        <path
           style="fill:#ffeda4;fill-opacity:1;stroke:none;stroke-width:0.545955px;stroke-linecap:butt;stroke-linejoin:miter;stroke-opacity:1"
           d="m 20.776176,92.363143 -0.06122,8.041007 17.247193,4.62136 -1.162986,-8.36902 z"
           id="path1129" />
        <path
           style="fill:#ffe88c;fill-opacity:1;stroke:none;stroke-width:0.545955px;stroke-linecap:butt;stroke-linejoin:miter;stroke-opacity:1"
           d="m 50.34339,83.112265 2.197808,7.334204 -14.579046,14.579041 -1.162987,-8.36902 z"
           id="path1131" />
        <rect
           y="77.654137"
           x="68.006798"
           height="19.154427"
           width="16.588219"
           id="rect1135"
           style="fill:#fff2bc;fill-opacity:1;fill-rule:evenodd;stroke:none;stroke-width:0.586667"
           transform="matrix(0.96592583,0.25881905,-0.70710678,0.70710678,0,0)" />
        <path
           d="M 22.203469,79.648121 3.1717548,86.161912 13.04433,88.80726 Z"
           style="fill:#fffae7;fill-opacity:1;fill-rule:evenodd;stroke:none;stroke-width:0.545953"
           id="path1137" />
        <path
           id="path1139"
           d="m -2.7644732,86.055445 -0.061215,8.041 17.2471932,4.621375 -1.162987,-8.369028 z"
           style="fill:#ffeda4;fill-opacity:1;stroke:none;stroke-width:0.545955px;stroke-linecap:butt;stroke-linejoin:miter;stroke-opacity:1" />
        <path
           id="path1141"
           d="M 26.802741,76.804567 29.000549,84.138771 14.421502,98.71782 13.258516,90.348792 Z"
           style="fill:#ffe88c;fill-opacity:1;stroke:none;stroke-width:0.545955px;stroke-linecap:butt;stroke-linejoin:miter;stroke-opacity:1" />
        <rect
           style="fill:#fff2bc;fill-opacity:1;fill-rule:evenodd;stroke:none;stroke-width:0.586667"
           id="rect1199"
           width="16.588219"
           height="19.154427"
           x="43.635719"
           y="105.79543"
           transform="matrix(0.96592583,0.25881905,-0.70710678,0.70710678,0,0)" />
        <path
           id="path1201"
           style="fill:#fffae7;fill-opacity:1;fill-rule:evenodd;stroke:none;stroke-width:0.545953"
           d="m -21.23608,93.239322 -19.031713,6.513788 9.872574,2.64535 z" />
        <path
           style="fill:#ffeda4;fill-opacity:1;stroke:none;stroke-width:0.545955px;stroke-linecap:butt;stroke-linejoin:miter;stroke-opacity:1"
           d="m -46.204022,99.646648 -0.06121,8.041002 17.247193,4.62137 -1.162986,-8.36903 z"
           id="path1203" />
        <path
           style="fill:#ffe88c;fill-opacity:1;stroke:none;stroke-width:0.545955px;stroke-linecap:butt;stroke-linejoin:miter;stroke-opacity:1"
           d="m -16.636808,90.395768 2.197808,7.334204 -14.579046,14.579048 -1.162986,-8.36903 z"
           id="path1205" />
        <rect
           y="105.79543"
           x="92.377869"
           height="19.154427"
           width="16.588219"
           id="rect1209"
           style="fill:#fff2bc;fill-opacity:1;fill-rule:evenodd;stroke:none;stroke-width:0.586667"
           transform="matrix(0.96592583,0.25881905,-0.70710678,0.70710678,0,0)" />
        <path
           d="m 25.845219,105.85472 -19.0317138,6.51379 9.8725758,2.64535 z"
           style="fill:#fffae7;fill-opacity:1;fill-rule:evenodd;stroke:none;stroke-width:0.545953"
           id="path1211" />
        <path
           id="path1213"
           d="m 0.87727718,112.26204 -0.061215,8.041 17.24719282,4.62138 -1.162986,-8.36903 z"
           style="fill:#ffeda4;fill-opacity:1;stroke:none;stroke-width:0.545955px;stroke-linecap:butt;stroke-linejoin:miter;stroke-opacity:1" />
        <path
           id="path1215"
           d="m 30.444491,103.01117 2.197808,7.3342 -14.579046,14.57905 -1.162987,-8.36903 z"
           style="fill:#ffe88c;fill-opacity:1;stroke:none;stroke-width:0.545955px;stroke-linecap:butt;stroke-linejoin:miter;stroke-opacity:1" />
        <rect
           style="fill:#fff2bc;fill-opacity:1;fill-rule:evenodd;stroke:none;stroke-width:0.586667"
           id="rect1219"
           width="16.588219"
           height="19.154427"
           x="68.006798"
           y="105.79543"
           transform="matrix(0.96592583,0.25881905,-0.70710678,0.70710678,0,0)" />
        <path
           id="path1221"
           style="fill:#fffae7;fill-opacity:1;fill-rule:evenodd;stroke:none;stroke-width:0.545953"
           d="m 2.3045694,99.547024 -19.0317134,6.513786 9.872575,2.64535 z" />
        <path
           style="fill:#ffeda4;fill-opacity:1;stroke:none;stroke-width:0.545955px;stroke-linecap:butt;stroke-linejoin:miter;stroke-opacity:1"
           d="m -22.663373,105.95434 -0.06122,8.041 17.247193,4.62137 -1.1629864,-8.36902 z"
           id="path1223" />
        <path
           style="fill:#ffe88c;fill-opacity:1;stroke:none;stroke-width:0.545955px;stroke-linecap:butt;stroke-linejoin:miter;stroke-opacity:1"
           d="m 6.9038416,96.703466 2.197808,7.334204 -14.5790466,14.57904 -1.1629864,-8.36902 z"
           id="path1225" />
        <path
           id="path1407"
           d="m 56.502019,89.207196 -39.424,39.424004 v 5.77988 l 39.424,-39.424003 z"
           style="fill:#ffe788;fill-opacity:1;stroke:none;stroke-width:0.545955px;stroke-linecap:butt;stroke-linejoin:miter;stroke-opacity:1" />
        <path
           id="path1409"
           d="m -15.578706,143.44132 v 5.77988 l -54.546132,-14.6156 v -5.77988 z"
           style="fill:#ffe788;fill-opacity:1;stroke:none;stroke-width:0.545955px;stroke-linecap:butt;stroke-linejoin:miter;stroke-opacity:1" />
      </g>
    </g>
  </g>
</svg>
