<?xml version="1.0" encoding="UTF-8" standalone="no"?>
<svg
   xmlns:dc="http://purl.org/dc/elements/1.1/"
   xmlns:cc="http://creativecommons.org/ns#"
   xmlns:rdf="http://www.w3.org/1999/02/22-rdf-syntax-ns#"
   xmlns:svg="http://www.w3.org/2000/svg"
   xmlns="http://www.w3.org/2000/svg"
   xmlns:xlink="http://www.w3.org/1999/xlink"
   xmlns:sodipodi="http://sodipodi.sourceforge.net/DTD/sodipodi-0.dtd"
   xmlns:inkscape="http://www.inkscape.org/namespaces/inkscape"
   width="793.70081"
   height="1122.5197"
   viewBox="0 0 210 297"
   version="1.1"
   id="svg8"
   inkscape:version="1.0.2 (e86c870879, 2021-01-15, custom)"
   sodipodi:docname="Christmas-Backround.svg">
  <defs
     id="defs2" />
  <sodipodi:namedview
     id="base"
     pagecolor="#ffffff"
     bordercolor="#666666"
     borderopacity="1.0"
     inkscape:pageopacity="1"
     inkscape:pageshadow="2"
     inkscape:zoom="0.5"
     inkscape:cx="376"
     inkscape:cy="352.5"
     inkscape:document-units="mm"
     inkscape:current-layer="layer1"
     inkscape:document-rotation="0"
     showgrid="false"
     units="px"
     showborder="true"
     inkscape:pagecheckerboard="false"
     inkscape:snap-smooth-nodes="true"
     inkscape:snap-intersection-paths="true"
     inkscape:object-nodes="true"
     inkscape:object-paths="true"
     inkscape:window-width="1920"
     inkscape:window-height="1017"
     inkscape:window-x="-8"
     inkscape:window-y="-8"
     inkscape:window-maximized="1" />
  <metadata
     id="metadata5">
    <rdf:RDF>
      <cc:Work
         rdf:about="">
        <dc:format>image/svg+xml</dc:format>
        <dc:type
           rdf:resource="http://purl.org/dc/dcmitype/StillImage" />
        <dc:title></dc:title>
      </cc:Work>
    </rdf:RDF>
  </metadata>
  <g
     inkscape:label="Layer 1"
     inkscape:groupmode="layer"
     id="layer1">
    <g
       id="g2138"
       transform="translate(107.47328,224.71544)">
      <g
         id="g2088">
        <g
           id="g2039">
          <g
             id="g1991">
            <g
               id="g1944">
              <g
                 id="g1898">
                <g
                   id="g1853">
                  <g
                     id="g1809">
                    <g
                       id="g1766">
                      <g
                         id="g1724">
                        <g
                           id="g1683">
                          <g
                             id="g1643">
                            <g
                               id="g1604">
                              <g
                                 id="g1566">
                                <g
                                   id="g1459"
                                   transform="matrix(0.267887,0,0,0.267887,-72.94167,-118.88561)"
                                   style="stroke-width:3.73292"
                                   inkscape:tile-cx="-221.35035"
                                   inkscape:tile-cy="-285.75977"
                                   inkscape:tile-w="16.666515"
                                   inkscape:tile-h="62.806282"
                                   inkscape:tile-x0="-229.68361"
                                   inkscape:tile-y0="-317.16291">
                                <rect
                                   style="fill:#ff0000;stroke-width:18.6645;stroke-linecap:square"
                                   id="rect1433"
                                   width="66.408104"
                                   height="250.25322"
                                   x="-60.879402"
                                   y="-275.94888" />
                                <g
                                   id="g1453"
                                   transform="translate(97.525314,18.530585)"
                                   style="stroke-width:3.73292">
                                <path
                                   id="path844"
                                   style="fill:#ffffff;stroke-width:18.6645;stroke-linecap:square"
                                   d="m -144.33951,-278.83363 a 8.0561417,3.1114537 75 0 0 -0.31005,0.0419 8.0561417,3.1114537 75 0 0 -0.92036,8.58657 8.0561417,3.1114537 75 0 0 4.73356,7.01765 3.1114537,8.0561417 15 0 0 0.006,0 8.0561417,3.1114537 75 0 0 5.3e-4,0 3.1114537,8.0561417 15 0 0 0.0191,5.3e-4 8.0561417,3.1114537 75 0 0 0.001,0 3.1114537,8.0561417 15 0 0 0.046,-5.3e-4 3.1114537,8.0561417 15 0 0 4.73356,-7.01765 3.1114537,8.0561417 15 0 0 -0.92035,-8.58657 3.1114537,8.0561417 15 0 0 -3.8499,3.59979 8.0561417,3.1114537 75 0 0 -3.53932,-3.64165 z m 32.53497,0 a 8.0561417,3.1114537 75 0 0 -0.30954,0.0419 8.0561417,3.1114537 75 0 0 -0.92036,8.58657 8.0561417,3.1114537 75 0 0 4.73356,7.01765 3.1114537,8.0561417 15 0 0 0.006,0 8.0561417,3.1114537 75 0 0 0.001,0 3.1114537,8.0561417 15 0 0 0.0191,5.3e-4 8.0561417,3.1114537 75 0 0 0.001,0 3.1114537,8.0561417 15 0 0 0.046,-5.3e-4 3.1114537,8.0561417 15 0 0 4.73356,-7.01765 3.1114537,8.0561417 15 0 0 -0.92036,-8.58657 3.1114537,8.0561417 15 0 0 -3.84989,3.59979 8.0561417,3.1114537 75 0 0 -3.53932,-3.64165 z m -21.69015,15.64608 a 8.0561417,3.1114537 75 0 0 -0.30954,0.0419 8.0561417,3.1114537 75 0 0 -0.92036,8.58655 8.0561417,3.1114537 75 0 0 4.73305,7.01766 3.1114537,8.0561417 15 0 0 0.006,0 8.0561417,3.1114537 75 0 0 10e-4,0 3.1114537,8.0561417 15 0 0 0.0191,5.3e-4 8.0561417,3.1114537 75 0 0 0.001,0 3.1114537,8.0561417 15 0 0 0.046,-5.3e-4 3.1114537,8.0561417 15 0 0 4.73357,-7.01766 3.1114537,8.0561417 15 0 0 -0.92036,-8.58655 3.1114537,8.0561417 15 0 0 -3.8499,3.59978 8.0561417,3.1114537 75 0 0 -3.53931,-3.64164 z m 10.84533,0 a 8.0561417,3.1114537 75 0 0 -0.31006,0.0419 8.0561417,3.1114537 75 0 0 -0.92035,8.58655 8.0561417,3.1114537 75 0 0 4.73356,7.01766 3.1114537,8.0561417 15 0 0 0.006,0 8.0561417,3.1114537 75 0 0 5.3e-4,0 3.1114537,8.0561417 15 0 0 0.0191,5.3e-4 8.0561417,3.1114537 75 0 0 0.001,0 3.1114537,8.0561417 15 0 0 0.046,-5.3e-4 3.1114537,8.0561417 15 0 0 4.73356,-7.01766 3.1114537,8.0561417 15 0 0 -0.92036,-8.58655 3.1114537,8.0561417 15 0 0 -3.84938,3.59978 8.0561417,3.1114537 75 0 0 -3.53983,-3.64164 z m -10.84533,15.64607 a 8.0561417,3.1114537 75 0 0 -0.30954,0.0419 8.0561417,3.1114537 75 0 0 -0.92036,8.58656 8.0561417,3.1114537 75 0 0 4.73305,7.01766 3.1114537,8.0561417 15 0 0 0.006,0 8.0561417,3.1114537 75 0 0 10e-4,0 3.1114537,8.0561417 15 0 0 0.0191,5.3e-4 8.0561417,3.1114537 75 0 0 0.001,0 3.1114537,8.0561417 15 0 0 0.046,-5.3e-4 3.1114537,8.0561417 15 0 0 4.73357,-7.01766 3.1114537,8.0561417 15 0 0 -0.92036,-8.58656 3.1114537,8.0561417 15 0 0 -3.8499,3.59978 8.0561417,3.1114537 75 0 0 -3.53931,-3.64164 z m 10.84533,0 a 8.0561417,3.1114537 75 0 0 -0.31006,0.0419 8.0561417,3.1114537 75 0 0 -0.92035,8.58656 8.0561417,3.1114537 75 0 0 4.73356,7.01766 3.1114537,8.0561417 15 0 0 0.006,0 8.0561417,3.1114537 75 0 0 5.3e-4,0 3.1114537,8.0561417 15 0 0 0.0191,5.3e-4 8.0561417,3.1114537 75 0 0 0.001,0 3.1114537,8.0561417 15 0 0 0.046,-5.3e-4 3.1114537,8.0561417 15 0 0 4.73356,-7.01766 3.1114537,8.0561417 15 0 0 -0.92036,-8.58656 3.1114537,8.0561417 15 0 0 -3.84938,3.59978 8.0561417,3.1114537 75 0 0 -3.53983,-3.64164 z m -21.69015,15.60474 a 8.0561417,3.1114537 75 0 0 -0.31005,0.0413 8.0561417,3.1114537 75 0 0 -0.92036,8.58707 8.0561417,3.1114537 75 0 0 4.73356,7.01714 3.1114537,8.0561417 15 0 0 0.006,5.3e-4 8.0561417,3.1114537 75 0 0 5.3e-4,0 3.1114537,8.0561417 15 0 0 0.0191,0 8.0561417,3.1114537 75 0 0 0.001,0 3.1114537,8.0561417 15 0 0 0.046,-5.3e-4 3.1114537,8.0561417 15 0 0 4.73356,-7.01714 3.1114537,8.0561417 15 0 0 -0.92035,-8.58707 3.1114537,8.0561417 15 0 0 -3.8499,3.59978 8.0561417,3.1114537 75 0 0 -3.53932,-3.64112 z m 32.53497,0 a 8.0561417,3.1114537 75 0 0 -0.30954,0.0413 8.0561417,3.1114537 75 0 0 -0.92036,8.58707 8.0561417,3.1114537 75 0 0 4.73356,7.01714 3.1114537,8.0561417 15 0 0 0.006,5.3e-4 8.0561417,3.1114537 75 0 0 0.001,0 3.1114537,8.0561417 15 0 0 0.0191,0 8.0561417,3.1114537 75 0 0 0.001,0 3.1114537,8.0561417 15 0 0 0.046,-5.3e-4 3.1114537,8.0561417 15 0 0 4.73356,-7.01714 3.1114537,8.0561417 15 0 0 -0.92036,-8.58707 3.1114537,8.0561417 15 0 0 -3.84989,3.59978 8.0561417,3.1114537 75 0 0 -3.53932,-3.64112 z m -43.3803,31.29163 a 8.0561417,3.1114537 75 0 0 -0.30954,0.0418 8.0561417,3.1114537 75 0 0 -0.92036,8.58708 8.0561417,3.1114537 75 0 0 4.73305,7.01714 3.1114537,8.0561417 15 0 0 0.006,0 8.0561417,3.1114537 75 0 0 0.001,0 3.1114537,8.0561417 15 0 0 0.0191,5.3e-4 8.0561417,3.1114537 75 0 0 5.2e-4,0 3.1114537,8.0561417 15 0 0 0.0465,-5.3e-4 3.1114537,8.0561417 15 0 0 4.73356,-7.01714 3.1114537,8.0561417 15 0 0 -0.92035,-8.58708 3.1114537,8.0561417 15 0 0 -3.8499,3.59978 8.0561417,3.1114537 75 0 0 -3.53932,-3.64163 z m 10.84533,0 a 8.0561417,3.1114537 75 0 0 -0.31005,0.0418 8.0561417,3.1114537 75 0 0 -0.92036,8.58708 8.0561417,3.1114537 75 0 0 4.73356,7.01714 3.1114537,8.0561417 15 0 0 0.006,0 8.0561417,3.1114537 75 0 0 5.3e-4,0 3.1114537,8.0561417 15 0 0 0.0191,5.3e-4 8.0561417,3.1114537 75 0 0 0.001,0 3.1114537,8.0561417 15 0 0 0.046,-5.3e-4 3.1114537,8.0561417 15 0 0 4.73356,-7.01714 3.1114537,8.0561417 15 0 0 0.65268,-4.59042 8.0561417,3.1114537 75 0 0 0.65267,4.59042 8.0561417,3.1114537 75 0 0 4.73304,7.01714 3.1114537,8.0561417 15 0 0 0.006,0 8.0561417,3.1114537 75 0 0 0.001,0 3.1114537,8.0561417 15 0 0 0.0191,5.3e-4 8.0561417,3.1114537 75 0 0 0.001,0 3.1114537,8.0561417 15 0 0 0.046,-5.3e-4 3.1114537,8.0561417 15 0 0 4.73356,-7.01714 3.1114537,8.0561417 15 0 0 -0.92036,-8.58708 3.1114537,8.0561417 15 0 0 -3.84989,3.59978 8.0561417,3.1114537 75 0 0 -3.53932,-3.64163 h -5.3e-4 a 8.0561417,3.1114537 75 0 0 -0.30954,0.0418 8.0561417,3.1114537 75 0 0 -1.57303,3.96565 3.1114537,8.0561417 15 0 0 -1.57303,-3.96565 3.1114537,8.0561417 15 0 0 -3.84989,3.59978 8.0561417,3.1114537 75 0 0 -3.53932,-3.64163 z m 21.69015,0 a 8.0561417,3.1114537 75 0 0 -0.31006,0.0418 8.0561417,3.1114537 75 0 0 -0.92035,8.58708 8.0561417,3.1114537 75 0 0 4.73356,7.01714 3.1114537,8.0561417 15 0 0 0.006,0 8.0561417,3.1114537 75 0 0 5.3e-4,0 3.1114537,8.0561417 15 0 0 0.0191,5.3e-4 8.0561417,3.1114537 75 0 0 0.001,0 3.1114537,8.0561417 15 0 0 0.046,-5.3e-4 3.1114537,8.0561417 15 0 0 4.73356,-7.01714 3.1114537,8.0561417 15 0 0 0.65267,-4.59042 3.1114537,8.0561417 15 0 0 -1.57303,-3.99666 3.1114537,8.0561417 15 0 0 -3.84938,3.59978 8.0561417,3.1114537 75 0 0 -3.53983,-3.64163 z m 8.96225,4.03851 a 8.0561417,3.1114537 75 0 0 0.65267,4.59042 8.0561417,3.1114537 75 0 0 4.73356,7.01714 3.1114537,8.0561417 15 0 0 0.006,0 8.0561417,3.1114537 75 0 0 0.001,0 3.1114537,8.0561417 15 0 0 0.0191,5.3e-4 8.0561417,3.1114537 75 0 0 0.001,0 3.1114537,8.0561417 15 0 0 0.046,-5.3e-4 3.1114537,8.0561417 15 0 0 4.73356,-7.01714 3.1114537,8.0561417 15 0 0 -0.92036,-8.58708 3.1114537,8.0561417 15 0 0 -3.84989,3.59978 8.0561417,3.1114537 75 0 0 -3.53932,-3.64163 h -5.3e-4 a 8.0561417,3.1114537 75 0 0 -0.30954,0.0418 8.0561417,3.1114537 75 0 0 -1.57303,3.99666 z m 12.7279,-4.03851 a 8.0561417,3.1114537 75 0 0 -0.31006,0.0418 8.0561417,3.1114537 75 0 0 -0.92035,8.58708 8.0561417,3.1114537 75 0 0 4.733555,7.01714 3.1114537,8.0561417 15 0 0 0.0062,0 8.0561417,3.1114537 75 0 0 5.29e-4,0 3.1114537,8.0561417 15 0 0 0.01913,5.3e-4 8.0561417,3.1114537 75 0 0 0.0011,0 3.1114537,8.0561417 15 0 0 0.04599,-5.3e-4 3.1114537,8.0561417 15 0 0 4.734079,-7.01714 3.1114537,8.0561417 15 0 0 -0.920874,-8.58708 3.1114537,8.0561417 15 0 0 -3.849378,3.59978 8.0561417,3.1114537 75 0 0 -3.539831,-3.64163 z m -55.47051,31.29214 a 8.0838243,3.2537471 74.029028 0 0 -0.32453,0.0413 8.0838243,3.2537471 74.029028 0 0 -0.96583,8.58708 8.0838243,3.2537471 74.029028 0 0 4.96714,7.01714 3.2537471,8.0838243 15.970972 0 0 0.006,5.3e-4 8.0838243,3.2537471 74.029028 0 0 0.001,0 3.2537471,8.0838243 15.970972 0 0 0.0202,0 8.0838243,3.2537471 74.029028 0 0 0.001,0 3.2537471,8.0838243 15.970972 0 0 0.0481,-5.3e-4 3.2537471,8.0838243 15.970972 0 0 4.96714,-7.01714 3.2537471,8.0838243 15.970972 0 0 -0.96583,-8.58708 3.2537471,8.0838243 15.970972 0 0 -4.03955,3.59978 8.0838243,3.2537471 74.029028 0 0 -3.71398,-3.64112 z m 34.14003,0 a 8.0838243,3.2537471 74.029028 0 0 -0.32453,0.0413 8.0838243,3.2537471 74.029028 0 0 -0.96583,8.58708 8.0838243,3.2537471 74.029028 0 0 4.96714,7.01714 3.2537471,8.0838243 15.970972 0 0 0.006,5.3e-4 8.0838243,3.2537471 74.029028 0 0 0.001,0 3.2537471,8.0838243 15.970972 0 0 0.0202,0 8.0838243,3.2537471 74.029028 0 0 0.001,0 3.2537471,8.0838243 15.970972 0 0 0.0481,-5.3e-4 3.2537471,8.0838243 15.970972 0 0 4.96713,-7.01714 3.2537471,8.0838243 15.970972 0 0 -0.96583,-8.58708 3.2537471,8.0838243 15.970972 0 0 -4.03954,3.59978 8.0838243,3.2537471 74.029028 0 0 -3.71399,-3.64112 z m -11.37966,15.64556 5.2e-4,5.3e-4 a 8.0838243,3.2537471 74.029028 0 0 -0.32556,0.0413 8.0838243,3.2537471 74.029028 0 0 -0.96583,8.58707 8.0838243,3.2537471 74.029028 0 0 4.96714,7.01714 3.2537471,8.0838243 15.970972 0 0 0.006,0 8.0838243,3.2537471 74.029028 0 0 5.3e-4,0 3.2537471,8.0838243 15.970972 0 0 0.0202,5.3e-4 8.0838243,3.2537471 74.029028 0 0 0.001,0 3.2537471,8.0838243 15.970972 0 0 0.0481,-5.3e-4 3.2537471,8.0838243 15.970972 0 0 4.96714,-7.01714 3.2537471,8.0838243 15.970972 0 0 -0.96532,-8.58707 3.2537471,8.0838243 15.970972 0 0 -4.04006,3.59978 8.0838243,3.2537471 74.029028 0 0 -3.71399,-3.64164 z m 22.75984,0 5.3e-4,5.3e-4 a 8.0838243,3.2537471 74.029028 0 0 -0.32504,0.0413 8.0838243,3.2537471 74.029028 0 0 -0.96583,8.58707 8.0838243,3.2537471 74.029028 0 0 4.96662,7.01714 3.2537471,8.0838243 15.970972 0 0 0.006,0 8.0838243,3.2537471 74.029028 0 0 0.001,0 3.2537471,8.0838243 15.970972 0 0 0.0202,5.3e-4 8.0838243,3.2537471 74.029028 0 0 5.3e-4,0 3.2537471,8.0838243 15.970972 0 0 0.0486,-5.3e-4 3.2537471,8.0838243 15.970972 0 0 4.96714,-7.01714 3.2537471,8.0838243 15.970972 0 0 -0.96583,-8.58707 3.2537471,8.0838243 15.970972 0 0 -4.03955,3.59978 8.0838243,3.2537471 74.029028 0 0 -3.7145,-3.64164 z m -34.14003,15.64607 5.3e-4,5.3e-4 a 8.0838243,3.2537471 74.029028 0 0 -0.32504,0.0413 8.0838243,3.2537471 74.029028 0 0 -0.96584,8.58708 8.0838243,3.2537471 74.029028 0 0 4.96663,7.01714 3.2537471,8.0838243 15.970972 0 0 0.006,0 8.0838243,3.2537471 74.029028 0 0 10e-4,0 3.2537471,8.0838243 15.970972 0 0 0.0196,5.3e-4 8.0838243,3.2537471 74.029028 0 0 0.001,0 3.2537471,8.0838243 15.970972 0 0 0.0486,-5.3e-4 3.2537471,8.0838243 15.970972 0 0 4.96714,-7.01714 3.2537471,8.0838243 15.970972 0 0 -0.96583,-8.58708 3.2537471,8.0838243 15.970972 0 0 -4.03955,3.59978 8.0838243,3.2537471 74.029028 0 0 -3.7145,-3.64164 z m 44.09033,0 v 5.3e-4 a 8.0561417,3.1114537 75 0 0 -0.31006,0.0413 8.0561417,3.1114537 75 0 0 -0.92035,8.58708 8.0561417,3.1114537 75 0 0 4.733555,7.01714 3.1114537,8.0561417 15 0 0 0.0062,0 8.0561417,3.1114537 75 0 0 5.29e-4,0 3.1114537,8.0561417 15 0 0 0.01913,5.3e-4 8.0561417,3.1114537 75 0 0 0.0011,0 3.1114537,8.0561417 15 0 0 0.04599,-5.3e-4 3.1114537,8.0561417 15 0 0 4.734079,-7.01714 3.1114537,8.0561417 15 0 0 -0.920874,-8.58708 3.1114537,8.0561417 15 0 0 -3.849378,3.59978 8.0561417,3.1114537 75 0 0 -3.539831,-3.64164 z m -55.47051,15.64607 a 8.0838243,3.2537471 74.029028 0 0 -0.32453,0.0419 8.0838243,3.2537471 74.029028 0 0 -0.96583,8.58708 8.0838243,3.2537471 74.029028 0 0 4.96714,7.01714 3.2537471,8.0838243 15.970972 0 0 0.006,0 8.0838243,3.2537471 74.029028 0 0 0.001,0 3.2537471,8.0838243 15.970972 0 0 0.0202,5.3e-4 8.0838243,3.2537471 74.029028 0 0 0.001,0 3.2537471,8.0838243 15.970972 0 0 0.0481,-5.3e-4 3.2537471,8.0838243 15.970972 0 0 4.96714,-7.01714 3.2537471,8.0838243 15.970972 0 0 -0.96583,-8.58708 3.2537471,8.0838243 15.970972 0 0 -4.03955,3.59978 8.0838243,3.2537471 74.029028 0 0 -3.71398,-3.64164 z m 33.78036,0 a 8.0561417,3.1114537 75 0 0 -0.31006,0.0419 8.0561417,3.1114537 75 0 0 -0.92035,8.58708 8.0561417,3.1114537 75 0 0 4.73356,7.01714 3.1114537,8.0561417 15 0 0 0.006,0 8.0561417,3.1114537 75 0 0 5.3e-4,0 3.1114537,8.0561417 15 0 0 0.0191,5.3e-4 8.0561417,3.1114537 75 0 0 0.001,0 3.1114537,8.0561417 15 0 0 0.046,-5.3e-4 3.1114537,8.0561417 15 0 0 4.73356,-7.01714 3.1114537,8.0561417 15 0 0 -0.92036,-8.58708 3.1114537,8.0561417 15 0 0 -3.84938,3.59978 8.0561417,3.1114537 75 0 0 -3.53983,-3.64164 z m -32.53548,62.542957 a 8.0561417,3.1114537 75 0 0 -0.30954,0.04134 8.0561417,3.1114537 75 0 0 -0.92036,8.587073 8.0561417,3.1114537 75 0 0 4.73305,7.017142 3.1114537,8.0561417 15 0 0 0.006,5.29e-4 8.0561417,3.1114537 75 0 0 0.001,0 3.1114537,8.0561417 15 0 0 0.0191,0 8.0561417,3.1114537 75 0 0 5.2e-4,0 3.1114537,8.0561417 15 0 0 0.0465,-5.29e-4 3.1114537,8.0561417 15 0 0 4.73356,-7.017142 3.1114537,8.0561417 15 0 0 -0.92035,-8.587073 3.1114537,8.0561417 15 0 0 -3.8499,3.599781 8.0561417,3.1114537 75 0 0 -3.53932,-3.641122 z m 10.84533,0 a 8.0561417,3.1114537 75 0 0 -0.31005,0.04134 8.0561417,3.1114537 75 0 0 -0.92036,8.587073 8.0561417,3.1114537 75 0 0 4.73356,7.017142 3.1114537,8.0561417 15 0 0 0.006,5.29e-4 8.0561417,3.1114537 75 0 0 5.3e-4,0 3.1114537,8.0561417 15 0 0 0.0191,0 8.0561417,3.1114537 75 0 0 0.001,0 3.1114537,8.0561417 15 0 0 0.046,-5.29e-4 3.1114537,8.0561417 15 0 0 4.73356,-7.017142 3.1114537,8.0561417 15 0 0 0.65268,-4.590417 8.0561417,3.1114537 75 0 0 0.65267,4.590417 8.0561417,3.1114537 75 0 0 4.73304,7.017142 3.1114537,8.0561417 15 0 0 0.006,5.29e-4 8.0561417,3.1114537 75 0 0 0.001,0 3.1114537,8.0561417 15 0 0 0.0191,0 8.0561417,3.1114537 75 0 0 0.001,0 3.1114537,8.0561417 15 0 0 0.046,-5.29e-4 3.1114537,8.0561417 15 0 0 4.73356,-7.017142 3.1114537,8.0561417 15 0 0 -0.92036,-8.587073 3.1114537,8.0561417 15 0 0 -3.84989,3.599781 8.0561417,3.1114537 75 0 0 -3.53932,-3.641122 h -5.3e-4 a 8.0561417,3.1114537 75 0 0 -0.30954,0.04134 8.0561417,3.1114537 75 0 0 -1.57303,3.966165 3.1114537,8.0561417 15 0 0 -1.57303,-3.966165 3.1114537,8.0561417 15 0 0 -3.84989,3.599781 8.0561417,3.1114537 75 0 0 -3.53932,-3.641122 z m 21.69015,0 a 8.0561417,3.1114537 75 0 0 -0.31006,0.04134 8.0561417,3.1114537 75 0 0 -0.92035,8.587073 8.0561417,3.1114537 75 0 0 4.73356,7.017142 3.1114537,8.0561417 15 0 0 0.006,5.29e-4 8.0561417,3.1114537 75 0 0 5.3e-4,0 3.1114537,8.0561417 15 0 0 0.0191,0 8.0561417,3.1114537 75 0 0 0.001,0 3.1114537,8.0561417 15 0 0 0.046,-5.29e-4 3.1114537,8.0561417 15 0 0 4.73356,-7.017142 3.1114537,8.0561417 15 0 0 0.65267,-4.590417 3.1114537,8.0561417 15 0 0 -1.57303,-3.996656 3.1114537,8.0561417 15 0 0 -3.84938,3.599781 8.0561417,3.1114537 75 0 0 -3.53983,-3.641122 z m 8.96225,4.037997 a 8.0561417,3.1114537 75 0 0 0.65267,4.590417 8.0561417,3.1114537 75 0 0 4.73356,7.017142 3.1114537,8.0561417 15 0 0 0.006,5.29e-4 8.0561417,3.1114537 75 0 0 0.001,0 3.1114537,8.0561417 15 0 0 0.0191,0 8.0561417,3.1114537 75 0 0 0.001,0 3.1114537,8.0561417 15 0 0 0.046,-5.29e-4 3.1114537,8.0561417 15 0 0 4.73356,-7.017142 3.1114537,8.0561417 15 0 0 -0.92036,-8.587073 3.1114537,8.0561417 15 0 0 -3.84989,3.599781 8.0561417,3.1114537 75 0 0 -3.53932,-3.641122 h -5.3e-4 a 8.0561417,3.1114537 75 0 0 -0.30954,0.04134 8.0561417,3.1114537 75 0 0 -1.57303,3.996656 z m 12.7279,-4.037997 a 8.0561417,3.1114537 75 0 0 -0.31006,0.04134 8.0561417,3.1114537 75 0 0 -0.92035,8.587073 8.0561417,3.1114537 75 0 0 4.733555,7.017142 3.1114537,8.0561417 15 0 0 0.0062,5.29e-4 8.0561417,3.1114537 75 0 0 5.29e-4,0 3.1114537,8.0561417 15 0 0 0.01913,0 8.0561417,3.1114537 75 0 0 0.0011,0 3.1114537,8.0561417 15 0 0 0.04599,-5.29e-4 3.1114537,8.0561417 15 0 0 4.734079,-7.017142 3.1114537,8.0561417 15 0 0 -0.920874,-8.587073 3.1114537,8.0561417 15 0 0 -3.849378,3.599781 8.0561417,3.1114537 75 0 0 -3.539831,-3.641122 z" />
                                <path
                                   id="path846"
                                   style="fill:#00ff00;stroke-width:18.6645;stroke-linecap:square"
                                   d="m -155.71401,-294.47918 a 8.0561417,3.1114537 75 0 0 -0.30954,0.0413 8.0561417,3.1114537 75 0 0 -0.92036,8.58705 8.0561417,3.1114537 75 0 0 4.73305,7.01715 3.1114537,8.0561417 15 0 0 0.006,0 8.0561417,3.1114537 75 0 0 0.001,0 3.1114537,8.0561417 15 0 0 0.0191,0 8.0561417,3.1114537 75 0 0 5.2e-4,0 3.1114537,8.0561417 15 0 0 0.0465,0 3.1114537,8.0561417 15 0 0 4.73356,-7.01715 3.1114537,8.0561417 15 0 0 -0.92035,-8.58705 3.1114537,8.0561417 15 0 0 -3.8499,3.59976 8.0561417,3.1114537 75 0 0 -3.53932,-3.64111 z m 10.84533,0 a 8.0561417,3.1114537 75 0 0 -0.31005,0.0413 8.0561417,3.1114537 75 0 0 -0.92036,8.58705 8.0561417,3.1114537 75 0 0 4.73356,7.01715 3.1114537,8.0561417 15 0 0 0.006,0 8.0561417,3.1114537 75 0 0 5.3e-4,0 3.1114537,8.0561417 15 0 0 0.0191,0 8.0561417,3.1114537 75 0 0 0.001,0 3.1114537,8.0561417 15 0 0 0.046,0 3.1114537,8.0561417 15 0 0 4.73356,-7.01715 3.1114537,8.0561417 15 0 0 0.65268,-4.59041 8.0561417,3.1114537 75 0 0 0.65267,4.59041 8.0561417,3.1114537 75 0 0 4.73304,7.01715 3.1114537,8.0561417 15 0 0 0.006,0 8.0561417,3.1114537 75 0 0 0.001,0 3.1114537,8.0561417 15 0 0 0.0191,0 8.0561417,3.1114537 75 0 0 0.001,0 3.1114537,8.0561417 15 0 0 0.046,0 3.1114537,8.0561417 15 0 0 4.73356,-7.01715 3.1114537,8.0561417 15 0 0 -0.92036,-8.58705 3.1114537,8.0561417 15 0 0 -3.84989,3.59976 8.0561417,3.1114537 75 0 0 -3.53932,-3.64111 h -5.3e-4 a 8.0561417,3.1114537 75 0 0 -0.30954,0.0413 8.0561417,3.1114537 75 0 0 -1.57303,3.96616 3.1114537,8.0561417 15 0 0 -1.57303,-3.96616 3.1114537,8.0561417 15 0 0 -3.84989,3.59976 8.0561417,3.1114537 75 0 0 -3.53932,-3.64111 z m 21.69015,0 a 8.0561417,3.1114537 75 0 0 -0.31006,0.0413 8.0561417,3.1114537 75 0 0 -0.92035,8.58705 8.0561417,3.1114537 75 0 0 4.73356,7.01715 3.1114537,8.0561417 15 0 0 0.006,0 8.0561417,3.1114537 75 0 0 5.3e-4,0 3.1114537,8.0561417 15 0 0 0.0191,0 8.0561417,3.1114537 75 0 0 10e-4,0 3.1114537,8.0561417 15 0 0 0.046,0 3.1114537,8.0561417 15 0 0 4.73356,-7.01715 3.1114537,8.0561417 15 0 0 0.65267,-4.59041 3.1114537,8.0561417 15 0 0 -1.57303,-3.99664 3.1114537,8.0561417 15 0 0 -3.84938,3.59976 8.0561417,3.1114537 75 0 0 -3.53983,-3.64111 z m 8.96225,4.03799 a 8.0561417,3.1114537 75 0 0 0.65267,4.59041 8.0561417,3.1114537 75 0 0 4.73356,7.01715 3.1114537,8.0561417 15 0 0 0.006,0 8.0561417,3.1114537 75 0 0 0.001,0 3.1114537,8.0561417 15 0 0 0.0191,0 8.0561417,3.1114537 75 0 0 0.001,0 3.1114537,8.0561417 15 0 0 0.046,0 3.1114537,8.0561417 15 0 0 4.73356,-7.01715 3.1114537,8.0561417 15 0 0 -0.92036,-8.58705 3.1114537,8.0561417 15 0 0 -3.84989,3.59976 8.0561417,3.1114537 75 0 0 -3.53932,-3.64111 h -5.3e-4 a 8.0561417,3.1114537 75 0 0 -0.30954,0.0413 8.0561417,3.1114537 75 0 0 -1.57303,3.99664 z m 12.7279,-4.03799 a 8.0561417,3.1114537 75 0 0 -0.31006,0.0413 8.0561417,3.1114537 75 0 0 -0.92035,8.58705 8.0561417,3.1114537 75 0 0 4.733558,7.01715 3.1114537,8.0561417 15 0 0 0.0062,0 8.0561417,3.1114537 75 0 0 5.29e-4,0 3.1114537,8.0561417 15 0 0 0.01913,0 8.0561417,3.1114537 75 0 0 0.0011,0 3.1114537,8.0561417 15 0 0 0.04599,0 3.1114537,8.0561417 15 0 0 4.734079,-7.01715 3.1114537,8.0561417 15 0 0 -0.920874,-8.58705 3.1114537,8.0561417 15 0 0 -3.849378,3.59976 8.0561417,3.1114537 75 0 0 -3.539834,-3.64111 z m -54.22563,15.64555 a 8.0561417,3.1114537 75 0 0 -0.30954,0.0419 8.0561417,3.1114537 75 0 0 -0.92036,8.58657 8.0561417,3.1114537 75 0 0 4.73305,7.01765 3.1114537,8.0561417 15 0 0 0.006,0 8.0561417,3.1114537 75 0 0 0.001,0 3.1114537,8.0561417 15 0 0 0.0191,5.3e-4 8.0561417,3.1114537 75 0 0 5.2e-4,0 3.1114537,8.0561417 15 0 0 0.0465,-5.3e-4 3.1114537,8.0561417 15 0 0 4.73356,-7.01765 3.1114537,8.0561417 15 0 0 -0.92035,-8.58657 3.1114537,8.0561417 15 0 0 -3.8499,3.59979 8.0561417,3.1114537 75 0 0 -3.53932,-3.64165 z m 21.69015,0 a 8.0561417,3.1114537 75 0 0 -0.30954,0.0419 8.0561417,3.1114537 75 0 0 -0.92036,8.58657 8.0561417,3.1114537 75 0 0 4.73305,7.01765 3.1114537,8.0561417 15 0 0 0.006,0 8.0561417,3.1114537 75 0 0 0.001,0 3.1114537,8.0561417 15 0 0 0.0191,5.3e-4 8.0561417,3.1114537 75 0 0 0.001,0 3.1114537,8.0561417 15 0 0 0.046,-5.3e-4 3.1114537,8.0561417 15 0 0 4.73357,-7.01765 3.1114537,8.0561417 15 0 0 -0.92036,-8.58657 3.1114537,8.0561417 15 0 0 -3.8499,3.59979 8.0561417,3.1114537 75 0 0 -3.53931,-3.64165 z m 10.84533,0 a 8.0561417,3.1114537 75 0 0 -0.31006,0.0419 8.0561417,3.1114537 75 0 0 -0.92035,8.58657 8.0561417,3.1114537 75 0 0 4.73356,7.01765 3.1114537,8.0561417 15 0 0 0.006,0 8.0561417,3.1114537 75 0 0 5.3e-4,0 3.1114537,8.0561417 15 0 0 0.0191,5.3e-4 8.0561417,3.1114537 75 0 0 10e-4,0 3.1114537,8.0561417 15 0 0 0.046,-5.3e-4 3.1114537,8.0561417 15 0 0 4.73356,-7.01765 3.1114537,8.0561417 15 0 0 -0.92036,-8.58657 3.1114537,8.0561417 15 0 0 -3.84938,3.59979 8.0561417,3.1114537 75 0 0 -3.53983,-3.64165 z m 21.69015,0 a 8.0561417,3.1114537 75 0 0 -0.31006,0.0419 8.0561417,3.1114537 75 0 0 -0.92035,8.58657 8.0561417,3.1114537 75 0 0 4.733558,7.01765 3.1114537,8.0561417 15 0 0 0.0062,0 8.0561417,3.1114537 75 0 0 5.29e-4,0 3.1114537,8.0561417 15 0 0 0.01913,5.3e-4 8.0561417,3.1114537 75 0 0 0.0011,0 3.1114537,8.0561417 15 0 0 0.04599,-5.3e-4 3.1114537,8.0561417 15 0 0 4.734079,-7.01765 3.1114537,8.0561417 15 0 0 -0.920874,-8.58657 3.1114537,8.0561417 15 0 0 -3.849378,3.59979 8.0561417,3.1114537 75 0 0 -3.539834,-3.64165 z m -54.22563,15.64608 a 8.0561417,3.1114537 75 0 0 -0.30954,0.0419 8.0561417,3.1114537 75 0 0 -0.92036,8.58655 8.0561417,3.1114537 75 0 0 4.73305,7.01766 3.1114537,8.0561417 15 0 0 0.006,0 8.0561417,3.1114537 75 0 0 0.001,0 3.1114537,8.0561417 15 0 0 0.0191,5.3e-4 8.0561417,3.1114537 75 0 0 5.2e-4,0 3.1114537,8.0561417 15 0 0 0.0465,-5.3e-4 3.1114537,8.0561417 15 0 0 4.73356,-7.01766 3.1114537,8.0561417 15 0 0 -0.92035,-8.58655 3.1114537,8.0561417 15 0 0 -3.8499,3.59978 8.0561417,3.1114537 75 0 0 -3.53932,-3.64164 z m 10.84533,0 a 8.0561417,3.1114537 75 0 0 -0.31005,0.0419 8.0561417,3.1114537 75 0 0 -0.92036,8.58655 8.0561417,3.1114537 75 0 0 4.73356,7.01766 3.1114537,8.0561417 15 0 0 0.006,0 8.0561417,3.1114537 75 0 0 5.3e-4,0 3.1114537,8.0561417 15 0 0 0.0191,5.3e-4 8.0561417,3.1114537 75 0 0 0.001,0 3.1114537,8.0561417 15 0 0 0.046,-5.3e-4 3.1114537,8.0561417 15 0 0 4.73356,-7.01766 3.1114537,8.0561417 15 0 0 -0.92035,-8.58655 3.1114537,8.0561417 15 0 0 -3.8499,3.59978 8.0561417,3.1114537 75 0 0 -3.53932,-3.64164 z m 32.53497,0 a 8.0561417,3.1114537 75 0 0 -0.30954,0.0419 8.0561417,3.1114537 75 0 0 -0.92036,8.58655 8.0561417,3.1114537 75 0 0 4.73356,7.01766 3.1114537,8.0561417 15 0 0 0.006,0 8.0561417,3.1114537 75 0 0 0.001,0 3.1114537,8.0561417 15 0 0 0.0191,5.3e-4 8.0561417,3.1114537 75 0 0 0.001,0 3.1114537,8.0561417 15 0 0 0.046,-5.3e-4 3.1114537,8.0561417 15 0 0 4.73356,-7.01766 3.1114537,8.0561417 15 0 0 -0.92036,-8.58655 3.1114537,8.0561417 15 0 0 -3.84989,3.59978 8.0561417,3.1114537 75 0 0 -3.53932,-3.64164 z m 10.84533,0 a 8.0561417,3.1114537 75 0 0 -0.31006,0.0419 8.0561417,3.1114537 75 0 0 -0.92035,8.58655 8.0561417,3.1114537 75 0 0 4.733558,7.01766 3.1114537,8.0561417 15 0 0 0.0062,0 8.0561417,3.1114537 75 0 0 5.29e-4,0 3.1114537,8.0561417 15 0 0 0.01913,5.3e-4 8.0561417,3.1114537 75 0 0 0.0011,0 3.1114537,8.0561417 15 0 0 0.04599,-5.3e-4 3.1114537,8.0561417 15 0 0 4.734079,-7.01766 3.1114537,8.0561417 15 0 0 -0.920874,-8.58655 3.1114537,8.0561417 15 0 0 -3.849378,3.59978 8.0561417,3.1114537 75 0 0 -3.539834,-3.64164 z m -54.22563,15.64607 a 8.0561417,3.1114537 75 0 0 -0.30954,0.0419 8.0561417,3.1114537 75 0 0 -0.92036,8.58656 8.0561417,3.1114537 75 0 0 4.73305,7.01766 3.1114537,8.0561417 15 0 0 0.006,0 8.0561417,3.1114537 75 0 0 0.001,0 3.1114537,8.0561417 15 0 0 0.0191,5.3e-4 8.0561417,3.1114537 75 0 0 5.2e-4,0 3.1114537,8.0561417 15 0 0 0.0465,-5.3e-4 3.1114537,8.0561417 15 0 0 4.73356,-7.01766 3.1114537,8.0561417 15 0 0 -0.92035,-8.58656 3.1114537,8.0561417 15 0 0 -3.8499,3.59978 8.0561417,3.1114537 75 0 0 -3.53932,-3.64164 z m 10.84533,0 a 8.0561417,3.1114537 75 0 0 -0.31005,0.0419 8.0561417,3.1114537 75 0 0 -0.92036,8.58656 8.0561417,3.1114537 75 0 0 4.73356,7.01766 3.1114537,8.0561417 15 0 0 0.006,0 8.0561417,3.1114537 75 0 0 5.3e-4,0 3.1114537,8.0561417 15 0 0 0.0191,5.3e-4 8.0561417,3.1114537 75 0 0 0.001,0 3.1114537,8.0561417 15 0 0 0.046,-5.3e-4 3.1114537,8.0561417 15 0 0 4.73356,-7.01766 3.1114537,8.0561417 15 0 0 -0.92035,-8.58656 3.1114537,8.0561417 15 0 0 -3.8499,3.59978 8.0561417,3.1114537 75 0 0 -3.53932,-3.64164 z m 32.53497,0 a 8.0561417,3.1114537 75 0 0 -0.30954,0.0419 8.0561417,3.1114537 75 0 0 -0.92036,8.58656 8.0561417,3.1114537 75 0 0 4.73356,7.01766 3.1114537,8.0561417 15 0 0 0.006,0 8.0561417,3.1114537 75 0 0 0.001,0 3.1114537,8.0561417 15 0 0 0.0191,5.3e-4 8.0561417,3.1114537 75 0 0 0.001,0 3.1114537,8.0561417 15 0 0 0.046,-5.3e-4 3.1114537,8.0561417 15 0 0 4.73356,-7.01766 3.1114537,8.0561417 15 0 0 -0.92036,-8.58656 3.1114537,8.0561417 15 0 0 -3.84989,3.59978 8.0561417,3.1114537 75 0 0 -3.53932,-3.64164 z m 10.84533,0 a 8.0561417,3.1114537 75 0 0 -0.31006,0.0419 8.0561417,3.1114537 75 0 0 -0.92035,8.58656 8.0561417,3.1114537 75 0 0 4.733558,7.01766 3.1114537,8.0561417 15 0 0 0.0062,0 8.0561417,3.1114537 75 0 0 5.29e-4,0 3.1114537,8.0561417 15 0 0 0.01913,5.3e-4 8.0561417,3.1114537 75 0 0 0.0011,0 3.1114537,8.0561417 15 0 0 0.04599,-5.3e-4 3.1114537,8.0561417 15 0 0 4.734079,-7.01766 3.1114537,8.0561417 15 0 0 -0.920874,-8.58656 3.1114537,8.0561417 15 0 0 -3.849378,3.59978 8.0561417,3.1114537 75 0 0 -3.539834,-3.64164 z m -54.22563,15.60474 a 8.0561417,3.1114537 75 0 0 -0.30954,0.0413 8.0561417,3.1114537 75 0 0 -0.92036,8.58707 8.0561417,3.1114537 75 0 0 4.73305,7.01714 3.1114537,8.0561417 15 0 0 0.006,5.3e-4 8.0561417,3.1114537 75 0 0 0.001,0 3.1114537,8.0561417 15 0 0 0.0191,0 8.0561417,3.1114537 75 0 0 5.2e-4,0 3.1114537,8.0561417 15 0 0 0.0465,-5.3e-4 3.1114537,8.0561417 15 0 0 4.73356,-7.01714 3.1114537,8.0561417 15 0 0 -0.92035,-8.58707 3.1114537,8.0561417 15 0 0 -3.8499,3.59978 8.0561417,3.1114537 75 0 0 -3.53932,-3.64112 z m 21.69015,0 a 8.0561417,3.1114537 75 0 0 -0.30954,0.0413 8.0561417,3.1114537 75 0 0 -0.92036,8.58707 8.0561417,3.1114537 75 0 0 4.73305,7.01714 3.1114537,8.0561417 15 0 0 0.006,5.3e-4 8.0561417,3.1114537 75 0 0 0.001,0 3.1114537,8.0561417 15 0 0 0.0191,0 8.0561417,3.1114537 75 0 0 0.001,0 3.1114537,8.0561417 15 0 0 0.046,-5.3e-4 3.1114537,8.0561417 15 0 0 4.73357,-7.01714 3.1114537,8.0561417 15 0 0 -0.92036,-8.58707 3.1114537,8.0561417 15 0 0 -3.8499,3.59978 8.0561417,3.1114537 75 0 0 -3.53931,-3.64112 z m 10.84533,0 a 8.0561417,3.1114537 75 0 0 -0.31006,0.0413 8.0561417,3.1114537 75 0 0 -0.92035,8.58707 8.0561417,3.1114537 75 0 0 4.73356,7.01714 3.1114537,8.0561417 15 0 0 0.006,5.3e-4 8.0561417,3.1114537 75 0 0 5.3e-4,0 3.1114537,8.0561417 15 0 0 0.0191,0 8.0561417,3.1114537 75 0 0 10e-4,0 3.1114537,8.0561417 15 0 0 0.046,-5.3e-4 3.1114537,8.0561417 15 0 0 4.73356,-7.01714 3.1114537,8.0561417 15 0 0 -0.92036,-8.58707 3.1114537,8.0561417 15 0 0 -3.84938,3.59978 8.0561417,3.1114537 75 0 0 -3.53983,-3.64112 z m 21.69015,0 a 8.0561417,3.1114537 75 0 0 -0.31006,0.0413 8.0561417,3.1114537 75 0 0 -0.92035,8.58707 8.0561417,3.1114537 75 0 0 4.733558,7.01714 3.1114537,8.0561417 15 0 0 0.0062,5.3e-4 8.0561417,3.1114537 75 0 0 5.29e-4,0 3.1114537,8.0561417 15 0 0 0.01913,0 8.0561417,3.1114537 75 0 0 0.0011,0 3.1114537,8.0561417 15 0 0 0.04599,-5.3e-4 3.1114537,8.0561417 15 0 0 4.734079,-7.01714 3.1114537,8.0561417 15 0 0 -0.920874,-8.58707 3.1114537,8.0561417 15 0 0 -3.849378,3.59978 8.0561417,3.1114537 75 0 0 -3.539834,-3.64112 z m -54.22563,15.64555 a 8.0561417,3.1114537 75 0 0 -0.30954,0.0419 8.0561417,3.1114537 75 0 0 -0.92036,8.58707 8.0561417,3.1114537 75 0 0 4.73305,7.01715 3.1114537,8.0561417 15 0 0 0.006,0 8.0561417,3.1114537 75 0 0 0.001,0 3.1114537,8.0561417 15 0 0 0.0191,5.2e-4 8.0561417,3.1114537 75 0 0 5.2e-4,0 3.1114537,8.0561417 15 0 0 0.0465,-5.2e-4 3.1114537,8.0561417 15 0 0 4.73356,-7.01715 3.1114537,8.0561417 15 0 0 -0.92035,-8.58707 3.1114537,8.0561417 15 0 0 -3.8499,3.59978 8.0561417,3.1114537 75 0 0 -3.53932,-3.64164 z m 10.84533,0 a 8.0561417,3.1114537 75 0 0 -0.31005,0.0419 8.0561417,3.1114537 75 0 0 -0.92036,8.58707 8.0561417,3.1114537 75 0 0 4.73356,7.01715 3.1114537,8.0561417 15 0 0 0.006,0 8.0561417,3.1114537 75 0 0 5.3e-4,0 3.1114537,8.0561417 15 0 0 0.0191,5.2e-4 8.0561417,3.1114537 75 0 0 0.001,0 3.1114537,8.0561417 15 0 0 0.046,-5.2e-4 3.1114537,8.0561417 15 0 0 4.73356,-7.01715 3.1114537,8.0561417 15 0 0 0.65268,-4.59041 8.0561417,3.1114537 75 0 0 0.65267,4.59041 8.0561417,3.1114537 75 0 0 4.73304,7.01715 3.1114537,8.0561417 15 0 0 0.006,0 8.0561417,3.1114537 75 0 0 0.001,0 3.1114537,8.0561417 15 0 0 0.0191,5.2e-4 8.0561417,3.1114537 75 0 0 0.001,0 3.1114537,8.0561417 15 0 0 0.046,-5.2e-4 3.1114537,8.0561417 15 0 0 4.73356,-7.01715 3.1114537,8.0561417 15 0 0 -0.92036,-8.58707 3.1114537,8.0561417 15 0 0 -3.84989,3.59978 8.0561417,3.1114537 75 0 0 -3.53932,-3.64164 h -5.3e-4 a 8.0561417,3.1114537 75 0 0 -0.30954,0.0419 8.0561417,3.1114537 75 0 0 -1.57303,3.96565 3.1114537,8.0561417 15 0 0 -1.57303,-3.96565 3.1114537,8.0561417 15 0 0 -3.84989,3.59978 8.0561417,3.1114537 75 0 0 -3.53932,-3.64164 z m 21.69015,0 a 8.0561417,3.1114537 75 0 0 -0.31006,0.0419 8.0561417,3.1114537 75 0 0 -0.92035,8.58707 8.0561417,3.1114537 75 0 0 4.73356,7.01715 3.1114537,8.0561417 15 0 0 0.006,0 8.0561417,3.1114537 75 0 0 5.3e-4,0 3.1114537,8.0561417 15 0 0 0.0191,5.2e-4 8.0561417,3.1114537 75 0 0 10e-4,0 3.1114537,8.0561417 15 0 0 0.046,-5.2e-4 3.1114537,8.0561417 15 0 0 4.73356,-7.01715 3.1114537,8.0561417 15 0 0 0.65267,-4.59041 3.1114537,8.0561417 15 0 0 -1.57303,-3.99666 3.1114537,8.0561417 15 0 0 -3.84938,3.59978 8.0561417,3.1114537 75 0 0 -3.53983,-3.64164 z m 8.96225,4.03852 a 8.0561417,3.1114537 75 0 0 0.65267,4.59041 8.0561417,3.1114537 75 0 0 4.73356,7.01715 3.1114537,8.0561417 15 0 0 0.006,0 8.0561417,3.1114537 75 0 0 0.001,0 3.1114537,8.0561417 15 0 0 0.0191,5.2e-4 8.0561417,3.1114537 75 0 0 0.001,0 3.1114537,8.0561417 15 0 0 0.046,-5.2e-4 3.1114537,8.0561417 15 0 0 4.73356,-7.01715 3.1114537,8.0561417 15 0 0 -0.92036,-8.58707 3.1114537,8.0561417 15 0 0 -3.84989,3.59978 8.0561417,3.1114537 75 0 0 -3.53932,-3.64164 h -5.3e-4 a 8.0561417,3.1114537 75 0 0 -0.30954,0.0419 8.0561417,3.1114537 75 0 0 -1.57303,3.99666 z m 12.7279,-4.03852 a 8.0561417,3.1114537 75 0 0 -0.31006,0.0419 8.0561417,3.1114537 75 0 0 -0.92035,8.58707 8.0561417,3.1114537 75 0 0 4.733558,7.01715 3.1114537,8.0561417 15 0 0 0.0062,0 8.0561417,3.1114537 75 0 0 5.29e-4,0 3.1114537,8.0561417 15 0 0 0.01913,5.2e-4 8.0561417,3.1114537 75 0 0 0.0011,0 3.1114537,8.0561417 15 0 0 0.04599,-5.2e-4 3.1114537,8.0561417 15 0 0 4.734079,-7.01715 3.1114537,8.0561417 15 0 0 -0.920874,-8.58707 3.1114537,8.0561417 15 0 0 -3.849378,3.59978 8.0561417,3.1114537 75 0 0 -3.539834,-3.64164 z m -54.22563,31.29215 a 8.0561417,3.1114537 75 0 0 -0.30954,0.0419 8.0561417,3.1114537 75 0 0 -0.92036,8.58707 8.0561417,3.1114537 75 0 0 4.73305,7.01714 3.1114537,8.0561417 15 0 0 0.006,0 8.0561417,3.1114537 75 0 0 0.001,0 3.1114537,8.0561417 15 0 0 0.0191,5.3e-4 8.0561417,3.1114537 75 0 0 5.2e-4,0 3.1114537,8.0561417 15 0 0 0.0465,-5.3e-4 3.1114537,8.0561417 15 0 0 4.73356,-7.01714 3.1114537,8.0561417 15 0 0 -0.92035,-8.58707 3.1114537,8.0561417 15 0 0 -3.8499,3.59978 8.0561417,3.1114537 75 0 0 -3.53932,-3.64164 z m 10.84533,0 a 8.0561417,3.1114537 75 0 0 -0.31005,0.0419 8.0561417,3.1114537 75 0 0 -0.92036,8.58707 8.0561417,3.1114537 75 0 0 4.73356,7.01714 3.1114537,8.0561417 15 0 0 0.006,0 8.0561417,3.1114537 75 0 0 5.3e-4,0 3.1114537,8.0561417 15 0 0 0.0191,5.3e-4 8.0561417,3.1114537 75 0 0 0.001,0 3.1114537,8.0561417 15 0 0 0.046,-5.3e-4 3.1114537,8.0561417 15 0 0 4.73356,-7.01714 3.1114537,8.0561417 15 0 0 0.65268,-4.59042 8.0561417,3.1114537 75 0 0 0.65267,4.59042 8.0561417,3.1114537 75 0 0 4.73304,7.01714 3.1114537,8.0561417 15 0 0 0.006,0 8.0561417,3.1114537 75 0 0 0.001,0 3.1114537,8.0561417 15 0 0 0.0191,5.3e-4 8.0561417,3.1114537 75 0 0 0.001,0 3.1114537,8.0561417 15 0 0 0.046,-5.3e-4 3.1114537,8.0561417 15 0 0 4.73356,-7.01714 3.1114537,8.0561417 15 0 0 -0.92036,-8.58707 3.1114537,8.0561417 15 0 0 -3.84989,3.59978 8.0561417,3.1114537 75 0 0 -3.53932,-3.64164 h -5.3e-4 a 8.0561417,3.1114537 75 0 0 -0.30954,0.0419 8.0561417,3.1114537 75 0 0 -1.57303,3.96565 3.1114537,8.0561417 15 0 0 -1.57303,-3.96565 3.1114537,8.0561417 15 0 0 -3.84989,3.59978 8.0561417,3.1114537 75 0 0 -3.53932,-3.64164 z m 21.69015,0 a 8.0561417,3.1114537 75 0 0 -0.31006,0.0419 8.0561417,3.1114537 75 0 0 -0.92035,8.58707 8.0561417,3.1114537 75 0 0 4.73356,7.01714 3.1114537,8.0561417 15 0 0 0.006,0 8.0561417,3.1114537 75 0 0 5.3e-4,0 3.1114537,8.0561417 15 0 0 0.0191,5.3e-4 8.0561417,3.1114537 75 0 0 10e-4,0 3.1114537,8.0561417 15 0 0 0.046,-5.3e-4 3.1114537,8.0561417 15 0 0 4.73356,-7.01714 3.1114537,8.0561417 15 0 0 0.65267,-4.59042 3.1114537,8.0561417 15 0 0 -1.57303,-3.99665 3.1114537,8.0561417 15 0 0 -3.84938,3.59978 8.0561417,3.1114537 75 0 0 -3.53983,-3.64164 z m 8.96225,4.03851 a 8.0561417,3.1114537 75 0 0 0.65267,4.59042 8.0561417,3.1114537 75 0 0 4.73356,7.01714 3.1114537,8.0561417 15 0 0 0.006,0 8.0561417,3.1114537 75 0 0 0.001,0 3.1114537,8.0561417 15 0 0 0.0191,5.3e-4 8.0561417,3.1114537 75 0 0 0.001,0 3.1114537,8.0561417 15 0 0 0.046,-5.3e-4 3.1114537,8.0561417 15 0 0 4.73356,-7.01714 3.1114537,8.0561417 15 0 0 -0.92036,-8.58707 3.1114537,8.0561417 15 0 0 -3.84989,3.59978 8.0561417,3.1114537 75 0 0 -3.53932,-3.64164 h -5.3e-4 a 8.0561417,3.1114537 75 0 0 -0.30954,0.0419 8.0561417,3.1114537 75 0 0 -1.57303,3.99665 z m 12.7279,-4.03851 a 8.0561417,3.1114537 75 0 0 -0.31006,0.0419 8.0561417,3.1114537 75 0 0 -0.92035,8.58707 8.0561417,3.1114537 75 0 0 4.733558,7.01714 3.1114537,8.0561417 15 0 0 0.0062,0 8.0561417,3.1114537 75 0 0 5.29e-4,0 3.1114537,8.0561417 15 0 0 0.01913,5.3e-4 8.0561417,3.1114537 75 0 0 0.0011,0 3.1114537,8.0561417 15 0 0 0.04599,-5.3e-4 3.1114537,8.0561417 15 0 0 4.734079,-7.01714 3.1114537,8.0561417 15 0 0 -0.920874,-8.58707 3.1114537,8.0561417 15 0 0 -3.849378,3.59978 8.0561417,3.1114537 75 0 0 -3.539834,-3.64164 z m -43.3803,15.64607 a 8.0561417,3.1114537 75 0 0 -0.31005,0.0413 8.0561417,3.1114537 75 0 0 -0.92036,8.58708 8.0561417,3.1114537 75 0 0 4.73356,7.01714 3.1114537,8.0561417 15 0 0 0.006,5.3e-4 8.0561417,3.1114537 75 0 0 5.3e-4,0 3.1114537,8.0561417 15 0 0 0.0191,0 8.0561417,3.1114537 75 0 0 0.001,0 3.1114537,8.0561417 15 0 0 0.046,-5.3e-4 3.1114537,8.0561417 15 0 0 4.73356,-7.01714 3.1114537,8.0561417 15 0 0 0.65268,-4.59042 8.0561417,3.1114537 75 0 0 0.65267,4.59042 8.0561417,3.1114537 75 0 0 4.73304,7.01714 3.1114537,8.0561417 15 0 0 0.006,5.3e-4 8.0561417,3.1114537 75 0 0 0.001,0 3.1114537,8.0561417 15 0 0 0.0191,0 8.0561417,3.1114537 75 0 0 0.001,0 3.1114537,8.0561417 15 0 0 0.046,-5.3e-4 3.1114537,8.0561417 15 0 0 4.73356,-7.01714 3.1114537,8.0561417 15 0 0 -0.92036,-8.58708 3.1114537,8.0561417 15 0 0 -3.84989,3.59978 8.0561417,3.1114537 75 0 0 -3.53932,-3.64112 h -5.3e-4 a 8.0561417,3.1114537 75 0 0 -0.30954,0.0413 8.0561417,3.1114537 75 0 0 -1.57303,3.96617 3.1114537,8.0561417 15 0 0 -1.57303,-3.96617 3.1114537,8.0561417 15 0 0 -3.84989,3.59978 8.0561417,3.1114537 75 0 0 -3.53932,-3.64112 z m 32.53497,0 a 8.0561417,3.1114537 75 0 0 -0.30954,0.0413 8.0561417,3.1114537 75 0 0 -0.92036,8.58708 8.0561417,3.1114537 75 0 0 4.73356,7.01714 3.1114537,8.0561417 15 0 0 0.006,5.3e-4 8.0561417,3.1114537 75 0 0 0.001,0 3.1114537,8.0561417 15 0 0 0.0191,0 8.0561417,3.1114537 75 0 0 0.001,0 3.1114537,8.0561417 15 0 0 0.046,-5.3e-4 3.1114537,8.0561417 15 0 0 4.73356,-7.01714 3.1114537,8.0561417 15 0 0 -0.92036,-8.58708 3.1114537,8.0561417 15 0 0 -3.84989,3.59978 8.0561417,3.1114537 75 0 0 -3.53932,-3.64112 z m 10.84533,0 a 8.0561417,3.1114537 75 0 0 -0.31006,0.0413 8.0561417,3.1114537 75 0 0 -0.92035,8.58708 8.0561417,3.1114537 75 0 0 4.733558,7.01714 3.1114537,8.0561417 15 0 0 0.0062,5.3e-4 8.0561417,3.1114537 75 0 0 5.29e-4,0 3.1114537,8.0561417 15 0 0 0.01913,0 8.0561417,3.1114537 75 0 0 0.0011,0 3.1114537,8.0561417 15 0 0 0.04599,-5.3e-4 3.1114537,8.0561417 15 0 0 4.734079,-7.01714 3.1114537,8.0561417 15 0 0 -0.920874,-8.58708 3.1114537,8.0561417 15 0 0 -3.849378,3.59978 8.0561417,3.1114537 75 0 0 -3.539834,-3.64112 z m -54.22563,15.64556 5.3e-4,5.3e-4 a 8.0561417,3.1114537 75 0 0 -0.31006,0.0413 8.0561417,3.1114537 75 0 0 -0.92035,8.58707 8.0561417,3.1114537 75 0 0 4.73304,7.01714 3.1114537,8.0561417 15 0 0 0.006,0 8.0561417,3.1114537 75 0 0 0.001,0 3.1114537,8.0561417 15 0 0 0.0191,5.3e-4 8.0561417,3.1114537 75 0 0 5.3e-4,0 3.1114537,8.0561417 15 0 0 0.0465,-5.3e-4 3.1114537,8.0561417 15 0 0 4.73356,-7.01714 3.1114537,8.0561417 15 0 0 -0.92036,-8.58707 3.1114537,8.0561417 15 0 0 -3.84989,3.59978 8.0561417,3.1114537 75 0 0 -3.53984,-3.64164 z m 10.84533,0 v 5.3e-4 a 8.0561417,3.1114537 75 0 0 -0.31005,0.0413 8.0561417,3.1114537 75 0 0 -0.92036,8.58707 8.0561417,3.1114537 75 0 0 4.73356,7.01714 3.1114537,8.0561417 15 0 0 0.006,0 8.0561417,3.1114537 75 0 0 5.3e-4,0 3.1114537,8.0561417 15 0 0 0.0191,5.3e-4 8.0561417,3.1114537 75 0 0 0.001,0 3.1114537,8.0561417 15 0 0 0.046,-5.3e-4 3.1114537,8.0561417 15 0 0 4.73356,-7.01714 3.1114537,8.0561417 15 0 0 -0.92035,-8.58707 3.1114537,8.0561417 15 0 0 -3.8499,3.59978 8.0561417,3.1114537 75 0 0 -3.53932,-3.64164 z m 21.69015,0 v 5.3e-4 a 8.0561417,3.1114537 75 0 0 -0.31006,0.0413 8.0561417,3.1114537 75 0 0 -0.92035,8.58707 8.0561417,3.1114537 75 0 0 4.73356,7.01714 3.1114537,8.0561417 15 0 0 0.006,0 8.0561417,3.1114537 75 0 0 5.3e-4,0 3.1114537,8.0561417 15 0 0 0.0191,5.3e-4 8.0561417,3.1114537 75 0 0 10e-4,0 3.1114537,8.0561417 15 0 0 0.046,-5.3e-4 3.1114537,8.0561417 15 0 0 4.73356,-7.01714 3.1114537,8.0561417 15 0 0 -0.92036,-8.58707 3.1114537,8.0561417 15 0 0 -3.84938,3.59978 8.0561417,3.1114537 75 0 0 -3.53983,-3.64164 z m 21.69015,0 v 5.3e-4 a 8.0561417,3.1114537 75 0 0 -0.31006,0.0413 8.0561417,3.1114537 75 0 0 -0.92035,8.58707 8.0561417,3.1114537 75 0 0 4.733558,7.01714 3.1114537,8.0561417 15 0 0 0.0062,0 8.0561417,3.1114537 75 0 0 5.29e-4,0 3.1114537,8.0561417 15 0 0 0.01913,5.3e-4 8.0561417,3.1114537 75 0 0 0.0011,0 3.1114537,8.0561417 15 0 0 0.04599,-5.3e-4 3.1114537,8.0561417 15 0 0 4.734079,-7.01714 3.1114537,8.0561417 15 0 0 -0.920874,-8.58707 3.1114537,8.0561417 15 0 0 -3.849378,3.59978 8.0561417,3.1114537 75 0 0 -3.539834,-3.64164 z m -54.22563,15.64607 5.3e-4,5.3e-4 a 8.0561417,3.1114537 75 0 0 -0.31006,0.0413 8.0561417,3.1114537 75 0 0 -0.92035,8.58708 8.0561417,3.1114537 75 0 0 4.73304,7.01714 3.1114537,8.0561417 15 0 0 0.006,0 8.0561417,3.1114537 75 0 0 0.001,0 3.1114537,8.0561417 15 0 0 0.0191,5.3e-4 8.0561417,3.1114537 75 0 0 5.3e-4,0 3.1114537,8.0561417 15 0 0 0.0465,-5.3e-4 3.1114537,8.0561417 15 0 0 4.73356,-7.01714 3.1114537,8.0561417 15 0 0 -0.92036,-8.58708 3.1114537,8.0561417 15 0 0 -3.84989,3.59978 8.0561417,3.1114537 75 0 0 -3.53984,-3.64164 z m 21.69015,0 5.3e-4,5.3e-4 a 8.0561417,3.1114537 75 0 0 -0.31006,0.0413 8.0561417,3.1114537 75 0 0 -0.92036,8.58708 8.0561417,3.1114537 75 0 0 4.73305,7.01714 3.1114537,8.0561417 15 0 0 0.006,0 8.0561417,3.1114537 75 0 0 0.001,0 3.1114537,8.0561417 15 0 0 0.0191,5.3e-4 8.0561417,3.1114537 75 0 0 0.001,0 3.1114537,8.0561417 15 0 0 0.046,-5.3e-4 3.1114537,8.0561417 15 0 0 4.73357,-7.01714 3.1114537,8.0561417 15 0 0 -0.92036,-8.58708 3.1114537,8.0561417 15 0 0 -3.8499,3.59978 8.0561417,3.1114537 75 0 0 -3.53983,-3.64164 z m 10.84533,0 v 5.3e-4 a 8.0561417,3.1114537 75 0 0 -0.31006,0.0413 8.0561417,3.1114537 75 0 0 -0.92035,8.58708 8.0561417,3.1114537 75 0 0 4.73356,7.01714 3.1114537,8.0561417 15 0 0 0.006,0 8.0561417,3.1114537 75 0 0 5.3e-4,0 3.1114537,8.0561417 15 0 0 0.0191,5.3e-4 8.0561417,3.1114537 75 0 0 10e-4,0 3.1114537,8.0561417 15 0 0 0.046,-5.3e-4 3.1114537,8.0561417 15 0 0 4.73356,-7.01714 3.1114537,8.0561417 15 0 0 0.65267,-4.59042 3.1114537,8.0561417 15 0 0 -1.57303,-3.99666 3.1114537,8.0561417 15 0 0 -3.84938,3.59978 8.0561417,3.1114537 75 0 0 -3.53983,-3.64164 z m 8.96225,4.03851 a 8.0561417,3.1114537 75 0 0 0.65267,4.59042 8.0561417,3.1114537 75 0 0 4.73356,7.01714 3.1114537,8.0561417 15 0 0 0.006,0 8.0561417,3.1114537 75 0 0 0.001,0 3.1114537,8.0561417 15 0 0 0.0191,5.3e-4 8.0561417,3.1114537 75 0 0 0.001,0 3.1114537,8.0561417 15 0 0 0.046,-5.3e-4 3.1114537,8.0561417 15 0 0 4.73356,-7.01714 3.1114537,8.0561417 15 0 0 -0.92036,-8.58707 3.1114537,8.0561417 15 0 0 -3.84989,3.59978 8.0561417,3.1114537 75 0 0 -3.53984,-3.64164 l 5.3e-4,5.3e-4 a 8.0561417,3.1114537 75 0 0 -0.31006,0.0413 8.0561417,3.1114537 75 0 0 -1.57303,3.99666 z m -30.6524,11.60756 a 8.0561417,3.1114537 75 0 0 -0.31005,0.0419 8.0561417,3.1114537 75 0 0 -0.92036,8.58708 8.0561417,3.1114537 75 0 0 4.73356,7.01714 3.1114537,8.0561417 15 0 0 0.006,0 8.0561417,3.1114537 75 0 0 5.3e-4,0 3.1114537,8.0561417 15 0 0 0.0191,5.3e-4 8.0561417,3.1114537 75 0 0 0.001,0 3.1114537,8.0561417 15 0 0 0.046,-5.3e-4 3.1114537,8.0561417 15 0 0 4.73356,-7.01714 3.1114537,8.0561417 15 0 0 0.65268,-4.59042 8.0561417,3.1114537 75 0 0 0.65267,4.59042 8.0561417,3.1114537 75 0 0 4.73304,7.01714 3.1114537,8.0561417 15 0 0 0.006,0 8.0561417,3.1114537 75 0 0 0.001,0 3.1114537,8.0561417 15 0 0 0.0191,5.3e-4 8.0561417,3.1114537 75 0 0 0.001,0 3.1114537,8.0561417 15 0 0 0.046,-5.3e-4 3.1114537,8.0561417 15 0 0 4.73356,-7.01714 3.1114537,8.0561417 15 0 0 -0.92036,-8.58708 3.1114537,8.0561417 15 0 0 -3.84989,3.59978 8.0561417,3.1114537 75 0 0 -3.53932,-3.64164 h -5.3e-4 a 8.0561417,3.1114537 75 0 0 -0.30954,0.0419 8.0561417,3.1114537 75 0 0 -1.57303,3.96565 3.1114537,8.0561417 15 0 0 -1.57303,-3.96565 3.1114537,8.0561417 15 0 0 -3.84989,3.59978 8.0561417,3.1114537 75 0 0 -3.53932,-3.64164 z m 32.53497,0 a 8.0561417,3.1114537 75 0 0 -0.30954,0.0419 8.0561417,3.1114537 75 0 0 -0.92036,8.58708 8.0561417,3.1114537 75 0 0 4.73356,7.01714 3.1114537,8.0561417 15 0 0 0.006,0 8.0561417,3.1114537 75 0 0 0.001,0 3.1114537,8.0561417 15 0 0 0.0191,5.3e-4 8.0561417,3.1114537 75 0 0 0.001,0 3.1114537,8.0561417 15 0 0 0.046,-5.3e-4 3.1114537,8.0561417 15 0 0 4.73356,-7.01714 3.1114537,8.0561417 15 0 0 -0.92036,-8.58708 3.1114537,8.0561417 15 0 0 -3.84989,3.59978 8.0561417,3.1114537 75 0 0 -3.53932,-3.64164 z m 10.84533,0 a 8.0561417,3.1114537 75 0 0 -0.31006,0.0419 8.0561417,3.1114537 75 0 0 -0.92035,8.58708 8.0561417,3.1114537 75 0 0 4.733558,7.01714 3.1114537,8.0561417 15 0 0 0.0062,0 8.0561417,3.1114537 75 0 0 5.29e-4,0 3.1114537,8.0561417 15 0 0 0.01913,5.3e-4 8.0561417,3.1114537 75 0 0 0.0011,0 3.1114537,8.0561417 15 0 0 0.04599,-5.3e-4 3.1114537,8.0561417 15 0 0 4.734079,-7.01714 3.1114537,8.0561417 15 0 0 -0.920874,-8.58708 3.1114537,8.0561417 15 0 0 -3.849378,3.59978 8.0561417,3.1114537 75 0 0 -3.539834,-3.64164 z m -54.22563,15.60474 a 8.0561417,3.1114537 75 0 0 -0.30954,0.0413 8.0561417,3.1114537 75 0 0 -0.92036,8.587071 8.0561417,3.1114537 75 0 0 4.73305,7.01766 3.1114537,8.0561417 15 0 0 0.006,0 8.0561417,3.1114537 75 0 0 0.001,0 3.1114537,8.0561417 15 0 0 0.0191,5.29e-4 8.0561417,3.1114537 75 0 0 5.2e-4,0 3.1114537,8.0561417 15 0 0 0.0465,-5.29e-4 3.1114537,8.0561417 15 0 0 4.73356,-7.01766 3.1114537,8.0561417 15 0 0 -0.92035,-8.587071 3.1114537,8.0561417 15 0 0 -3.8499,3.59978 8.0561417,3.1114537 75 0 0 -3.53932,-3.64112 z m 10.84533,0 a 8.0561417,3.1114537 75 0 0 -0.31005,0.0413 8.0561417,3.1114537 75 0 0 -0.92036,8.587071 8.0561417,3.1114537 75 0 0 4.73356,7.01766 3.1114537,8.0561417 15 0 0 0.006,0 8.0561417,3.1114537 75 0 0 5.3e-4,0 3.1114537,8.0561417 15 0 0 0.0191,5.29e-4 8.0561417,3.1114537 75 0 0 0.001,0 3.1114537,8.0561417 15 0 0 0.046,-5.29e-4 3.1114537,8.0561417 15 0 0 4.73356,-7.01766 3.1114537,8.0561417 15 0 0 0.65268,-4.589901 8.0561417,3.1114537 75 0 0 0.65267,4.589901 8.0561417,3.1114537 75 0 0 4.73304,7.01766 3.1114537,8.0561417 15 0 0 0.006,0 8.0561417,3.1114537 75 0 0 0.001,0 3.1114537,8.0561417 15 0 0 0.0191,5.29e-4 8.0561417,3.1114537 75 0 0 0.001,0 3.1114537,8.0561417 15 0 0 0.046,-5.29e-4 3.1114537,8.0561417 15 0 0 4.73356,-7.01766 3.1114537,8.0561417 15 0 0 -0.92036,-8.587071 3.1114537,8.0561417 15 0 0 -3.84989,3.59978 8.0561417,3.1114537 75 0 0 -3.53932,-3.64112 h -5.3e-4 a 8.0561417,3.1114537 75 0 0 -0.30954,0.0413 8.0561417,3.1114537 75 0 0 -1.57303,3.96616 3.1114537,8.0561417 15 0 0 -1.57303,-3.96616 3.1114537,8.0561417 15 0 0 -3.84989,3.59978 8.0561417,3.1114537 75 0 0 -3.53932,-3.64112 z m 21.69015,0 a 8.0561417,3.1114537 75 0 0 -0.31006,0.0413 8.0561417,3.1114537 75 0 0 -0.92035,8.587071 8.0561417,3.1114537 75 0 0 4.73356,7.01766 3.1114537,8.0561417 15 0 0 0.006,0 8.0561417,3.1114537 75 0 0 5.3e-4,0 3.1114537,8.0561417 15 0 0 0.0191,5.29e-4 8.0561417,3.1114537 75 0 0 10e-4,0 3.1114537,8.0561417 15 0 0 0.046,-5.29e-4 3.1114537,8.0561417 15 0 0 4.73356,-7.01766 3.1114537,8.0561417 15 0 0 0.65267,-4.589901 3.1114537,8.0561417 15 0 0 -1.57303,-3.99717 3.1114537,8.0561417 15 0 0 -3.84938,3.59978 8.0561417,3.1114537 75 0 0 -3.53983,-3.64112 z m 8.96225,4.03851 a 8.0561417,3.1114537 75 0 0 0.65267,4.589901 8.0561417,3.1114537 75 0 0 4.73356,7.01766 3.1114537,8.0561417 15 0 0 0.006,0 8.0561417,3.1114537 75 0 0 0.001,0 3.1114537,8.0561417 15 0 0 0.0191,5.29e-4 8.0561417,3.1114537 75 0 0 0.001,0 3.1114537,8.0561417 15 0 0 0.046,-5.29e-4 3.1114537,8.0561417 15 0 0 4.73356,-7.01766 3.1114537,8.0561417 15 0 0 -0.92036,-8.587071 3.1114537,8.0561417 15 0 0 -3.84989,3.59978 8.0561417,3.1114537 75 0 0 -3.53932,-3.64112 h -5.3e-4 a 8.0561417,3.1114537 75 0 0 -0.30954,0.0413 8.0561417,3.1114537 75 0 0 -1.57303,3.99717 z m 12.7279,-4.03851 a 8.0561417,3.1114537 75 0 0 -0.31006,0.0413 8.0561417,3.1114537 75 0 0 -0.92035,8.587071 8.0561417,3.1114537 75 0 0 4.733558,7.01766 3.1114537,8.0561417 15 0 0 0.0062,0 8.0561417,3.1114537 75 0 0 5.29e-4,0 3.1114537,8.0561417 15 0 0 0.01913,5.29e-4 8.0561417,3.1114537 75 0 0 0.0011,0 3.1114537,8.0561417 15 0 0 0.04599,-5.29e-4 3.1114537,8.0561417 15 0 0 4.734079,-7.01766 3.1114537,8.0561417 15 0 0 -0.920874,-8.587071 3.1114537,8.0561417 15 0 0 -3.849378,3.59978 8.0561417,3.1114537 75 0 0 -3.539834,-3.64112 z m -54.22563,15.646071 a 8.0561417,3.1114537 75 0 0 -0.30954,0.04134 8.0561417,3.1114537 75 0 0 -0.92036,8.587071 8.0561417,3.1114537 75 0 0 4.73305,7.017144 3.1114537,8.0561417 15 0 0 0.006,5.29e-4 8.0561417,3.1114537 75 0 0 0.001,0 3.1114537,8.0561417 15 0 0 0.0191,0 8.0561417,3.1114537 75 0 0 5.2e-4,0 3.1114537,8.0561417 15 0 0 0.0465,-5.29e-4 3.1114537,8.0561417 15 0 0 4.73356,-7.017144 3.1114537,8.0561417 15 0 0 -0.92035,-8.587071 3.1114537,8.0561417 15 0 0 -3.8499,3.599778 8.0561417,3.1114537 75 0 0 -3.53932,-3.641119 z m 10.84533,0 a 8.0561417,3.1114537 75 0 0 -0.31005,0.04134 8.0561417,3.1114537 75 0 0 -0.92036,8.587071 8.0561417,3.1114537 75 0 0 4.73356,7.017144 3.1114537,8.0561417 15 0 0 0.006,5.29e-4 8.0561417,3.1114537 75 0 0 5.3e-4,0 3.1114537,8.0561417 15 0 0 0.0191,0 8.0561417,3.1114537 75 0 0 0.001,0 3.1114537,8.0561417 15 0 0 0.046,-5.29e-4 3.1114537,8.0561417 15 0 0 4.73356,-7.017144 3.1114537,8.0561417 15 0 0 0.65268,-4.590418 8.0561417,3.1114537 75 0 0 0.65267,4.590418 8.0561417,3.1114537 75 0 0 4.73304,7.017144 3.1114537,8.0561417 15 0 0 0.006,5.29e-4 8.0561417,3.1114537 75 0 0 0.001,0 3.1114537,8.0561417 15 0 0 0.0191,0 8.0561417,3.1114537 75 0 0 0.001,0 3.1114537,8.0561417 15 0 0 0.046,-5.29e-4 3.1114537,8.0561417 15 0 0 4.73356,-7.017144 3.1114537,8.0561417 15 0 0 -0.92036,-8.587071 3.1114537,8.0561417 15 0 0 -3.84989,3.599778 8.0561417,3.1114537 75 0 0 -3.53932,-3.641119 h -5.3e-4 a 8.0561417,3.1114537 75 0 0 -0.30954,0.04134 8.0561417,3.1114537 75 0 0 -1.57303,3.966165 3.1114537,8.0561417 15 0 0 -1.57303,-3.966165 3.1114537,8.0561417 15 0 0 -3.84989,3.599778 8.0561417,3.1114537 75 0 0 -3.53932,-3.641119 z m 21.69015,0 a 8.0561417,3.1114537 75 0 0 -0.31006,0.04134 8.0561417,3.1114537 75 0 0 -0.92035,8.587071 8.0561417,3.1114537 75 0 0 4.73356,7.017144 3.1114537,8.0561417 15 0 0 0.006,5.29e-4 8.0561417,3.1114537 75 0 0 5.3e-4,0 3.1114537,8.0561417 15 0 0 0.0191,0 8.0561417,3.1114537 75 0 0 10e-4,0 3.1114537,8.0561417 15 0 0 0.046,-5.29e-4 3.1114537,8.0561417 15 0 0 4.73356,-7.017144 3.1114537,8.0561417 15 0 0 0.65267,-4.590418 3.1114537,8.0561417 15 0 0 -1.57303,-3.996653 3.1114537,8.0561417 15 0 0 -3.84938,3.599778 8.0561417,3.1114537 75 0 0 -3.53983,-3.641119 z m 8.96225,4.037994 a 8.0561417,3.1114537 75 0 0 0.65267,4.590418 8.0561417,3.1114537 75 0 0 4.73356,7.017144 3.1114537,8.0561417 15 0 0 0.006,5.29e-4 8.0561417,3.1114537 75 0 0 0.001,0 3.1114537,8.0561417 15 0 0 0.0191,0 8.0561417,3.1114537 75 0 0 0.001,0 3.1114537,8.0561417 15 0 0 0.046,-5.29e-4 3.1114537,8.0561417 15 0 0 4.73356,-7.017144 3.1114537,8.0561417 15 0 0 -0.92036,-8.587071 3.1114537,8.0561417 15 0 0 -3.84989,3.599778 8.0561417,3.1114537 75 0 0 -3.53932,-3.641119 h -5.3e-4 a 8.0561417,3.1114537 75 0 0 -0.30954,0.04134 8.0561417,3.1114537 75 0 0 -1.57303,3.996653 z m 12.7279,-4.037994 a 8.0561417,3.1114537 75 0 0 -0.31006,0.04134 8.0561417,3.1114537 75 0 0 -0.92035,8.587071 8.0561417,3.1114537 75 0 0 4.733558,7.017144 3.1114537,8.0561417 15 0 0 0.0062,5.29e-4 8.0561417,3.1114537 75 0 0 5.29e-4,0 3.1114537,8.0561417 15 0 0 0.01913,0 8.0561417,3.1114537 75 0 0 0.0011,0 3.1114537,8.0561417 15 0 0 0.04599,-5.29e-4 3.1114537,8.0561417 15 0 0 4.734079,-7.017144 3.1114537,8.0561417 15 0 0 -0.920874,-8.587071 3.1114537,8.0561417 15 0 0 -3.849378,3.599778 8.0561417,3.1114537 75 0 0 -3.539834,-3.641119 z m -54.22563,15.646072 a 8.0561417,3.1114537 75 0 0 -0.30954,0.04134 8.0561417,3.1114537 75 0 0 -0.92036,8.587073 8.0561417,3.1114537 75 0 0 4.73305,7.017141 3.1114537,8.0561417 15 0 0 0.006,5.3e-4 8.0561417,3.1114537 75 0 0 0.001,0 3.1114537,8.0561417 15 0 0 0.0191,0 8.0561417,3.1114537 75 0 0 5.2e-4,0 3.1114537,8.0561417 15 0 0 0.0465,-5.3e-4 3.1114537,8.0561417 15 0 0 4.73356,-7.017141 3.1114537,8.0561417 15 0 0 -0.92035,-8.587073 3.1114537,8.0561417 15 0 0 -3.8499,3.59978 8.0561417,3.1114537 75 0 0 -3.53932,-3.641121 z m 10.84533,0 a 8.0561417,3.1114537 75 0 0 -0.31005,0.04134 8.0561417,3.1114537 75 0 0 -0.92036,8.587073 8.0561417,3.1114537 75 0 0 4.73356,7.017141 3.1114537,8.0561417 15 0 0 0.006,5.3e-4 8.0561417,3.1114537 75 0 0 5.3e-4,0 3.1114537,8.0561417 15 0 0 0.0191,0 8.0561417,3.1114537 75 0 0 0.001,0 3.1114537,8.0561417 15 0 0 0.046,-5.3e-4 3.1114537,8.0561417 15 0 0 4.73356,-7.017141 3.1114537,8.0561417 15 0 0 0.65268,-4.590418 8.0561417,3.1114537 75 0 0 0.65267,4.590418 8.0561417,3.1114537 75 0 0 4.73304,7.017141 3.1114537,8.0561417 15 0 0 0.006,5.3e-4 8.0561417,3.1114537 75 0 0 0.001,0 3.1114537,8.0561417 15 0 0 0.0191,0 8.0561417,3.1114537 75 0 0 0.001,0 3.1114537,8.0561417 15 0 0 0.046,-5.3e-4 3.1114537,8.0561417 15 0 0 4.73356,-7.017141 3.1114537,8.0561417 15 0 0 -0.92036,-8.587073 3.1114537,8.0561417 15 0 0 -3.84989,3.59978 8.0561417,3.1114537 75 0 0 -3.53932,-3.641121 h -5.3e-4 a 8.0561417,3.1114537 75 0 0 -0.30954,0.04134 8.0561417,3.1114537 75 0 0 -1.57303,3.966167 3.1114537,8.0561417 15 0 0 -1.57303,-3.966167 3.1114537,8.0561417 15 0 0 -3.84989,3.59978 8.0561417,3.1114537 75 0 0 -3.53932,-3.641121 z m 21.69015,0 a 8.0561417,3.1114537 75 0 0 -0.31006,0.04134 8.0561417,3.1114537 75 0 0 -0.92035,8.587073 8.0561417,3.1114537 75 0 0 4.73356,7.017141 3.1114537,8.0561417 15 0 0 0.006,5.3e-4 8.0561417,3.1114537 75 0 0 5.3e-4,0 3.1114537,8.0561417 15 0 0 0.0191,0 8.0561417,3.1114537 75 0 0 10e-4,0 3.1114537,8.0561417 15 0 0 0.046,-5.3e-4 3.1114537,8.0561417 15 0 0 4.73356,-7.017141 3.1114537,8.0561417 15 0 0 0.65267,-4.590418 3.1114537,8.0561417 15 0 0 -1.57303,-3.996655 3.1114537,8.0561417 15 0 0 -3.84938,3.59978 8.0561417,3.1114537 75 0 0 -3.53983,-3.641121 z m 8.96225,4.037996 a 8.0561417,3.1114537 75 0 0 0.65267,4.590418 8.0561417,3.1114537 75 0 0 4.73356,7.017141 3.1114537,8.0561417 15 0 0 0.006,5.3e-4 8.0561417,3.1114537 75 0 0 0.001,0 3.1114537,8.0561417 15 0 0 0.0191,0 8.0561417,3.1114537 75 0 0 0.001,0 3.1114537,8.0561417 15 0 0 0.046,-5.3e-4 3.1114537,8.0561417 15 0 0 4.73356,-7.017141 3.1114537,8.0561417 15 0 0 -0.92036,-8.587073 3.1114537,8.0561417 15 0 0 -3.84989,3.59978 8.0561417,3.1114537 75 0 0 -3.53932,-3.641121 h -5.3e-4 a 8.0561417,3.1114537 75 0 0 -0.30954,0.04134 8.0561417,3.1114537 75 0 0 -1.57303,3.996655 z m 12.7279,-4.037996 a 8.0561417,3.1114537 75 0 0 -0.31006,0.04134 8.0561417,3.1114537 75 0 0 -0.92035,8.587073 8.0561417,3.1114537 75 0 0 4.733558,7.017141 3.1114537,8.0561417 15 0 0 0.0062,5.3e-4 8.0561417,3.1114537 75 0 0 5.29e-4,0 3.1114537,8.0561417 15 0 0 0.01913,0 8.0561417,3.1114537 75 0 0 0.0011,0 3.1114537,8.0561417 15 0 0 0.04599,-5.3e-4 3.1114537,8.0561417 15 0 0 4.734079,-7.017141 3.1114537,8.0561417 15 0 0 -0.920874,-8.587073 3.1114537,8.0561417 15 0 0 -3.849378,3.59978 8.0561417,3.1114537 75 0 0 -3.539834,-3.641121 z" />
                                </g>
                                </g>
                                <use
                                   x="0"
                                   y="0"
                                   inkscape:tiled-clone-of="#g1459"
                                   xlink:href="#g1459"
                                   id="use1471"
                                   style="stroke-width:0.936853"
                                   width="100%"
                                   height="100%" />
                                <use
                                   x="0"
                                   y="0"
                                   inkscape:tiled-clone-of="#g1459"
                                   xlink:href="#g1459"
                                   transform="translate(0,67.039615)"
                                   id="use1473"
                                   style="stroke-width:0.936853"
                                   width="100%"
                                   height="100%" />
                                <use
                                   x="0"
                                   y="0"
                                   inkscape:tiled-clone-of="#g1459"
                                   xlink:href="#g1459"
                                   transform="translate(0,134.07923)"
                                   id="use1475"
                                   style="stroke-width:0.936853"
                                   width="100%"
                                   height="100%" />
                                <use
                                   x="0"
                                   y="0"
                                   inkscape:tiled-clone-of="#g1459"
                                   xlink:href="#g1459"
                                   transform="translate(17.78989)"
                                   id="use1477"
                                   style="stroke-width:0.936853"
                                   width="100%"
                                   height="100%" />
                                <use
                                   x="0"
                                   y="0"
                                   inkscape:tiled-clone-of="#g1459"
                                   xlink:href="#g1459"
                                   transform="translate(17.78989,67.039615)"
                                   id="use1479"
                                   style="stroke-width:0.936853"
                                   width="100%"
                                   height="100%" />
                                <use
                                   x="0"
                                   y="0"
                                   inkscape:tiled-clone-of="#g1459"
                                   xlink:href="#g1459"
                                   transform="translate(17.78989,134.07923)"
                                   id="use1481"
                                   style="stroke-width:0.936853"
                                   width="100%"
                                   height="100%" />
                                <use
                                   x="0"
                                   y="0"
                                   inkscape:tiled-clone-of="#g1459"
                                   xlink:href="#g1459"
                                   transform="translate(35.57978)"
                                   id="use1483"
                                   style="stroke-width:0.936853"
                                   width="100%"
                                   height="100%" />
                                <use
                                   x="0"
                                   y="0"
                                   inkscape:tiled-clone-of="#g1459"
                                   xlink:href="#g1459"
                                   transform="translate(35.57978,67.039615)"
                                   id="use1485"
                                   style="stroke-width:0.936853"
                                   width="100%"
                                   height="100%" />
                                <use
                                   x="0"
                                   y="0"
                                   inkscape:tiled-clone-of="#g1459"
                                   xlink:href="#g1459"
                                   transform="translate(35.57978,134.07923)"
                                   id="use1487"
                                   style="stroke-width:0.936853"
                                   width="100%"
                                   height="100%" />
                                <use
                                   x="0"
                                   y="0"
                                   inkscape:tiled-clone-of="#g1459"
                                   xlink:href="#g1459"
                                   transform="translate(53.369666)"
                                   id="use1489"
                                   style="stroke-width:0.936853"
                                   width="100%"
                                   height="100%" />
                                <use
                                   x="0"
                                   y="0"
                                   inkscape:tiled-clone-of="#g1459"
                                   xlink:href="#g1459"
                                   transform="translate(53.369666,67.039615)"
                                   id="use1491"
                                   style="stroke-width:0.936853"
                                   width="100%"
                                   height="100%" />
                                <use
                                   x="0"
                                   y="0"
                                   inkscape:tiled-clone-of="#g1459"
                                   xlink:href="#g1459"
                                   transform="translate(53.369666,134.07923)"
                                   id="use1493"
                                   style="stroke-width:0.936853"
                                   width="100%"
                                   height="100%" />
                                <use
                                   x="0"
                                   y="0"
                                   inkscape:tiled-clone-of="#g1459"
                                   xlink:href="#g1459"
                                   transform="translate(71.159554)"
                                   id="use1495"
                                   style="stroke-width:0.936853"
                                   width="100%"
                                   height="100%" />
                                <use
                                   x="0"
                                   y="0"
                                   inkscape:tiled-clone-of="#g1459"
                                   xlink:href="#g1459"
                                   transform="translate(71.159554,67.039615)"
                                   id="use1497"
                                   style="stroke-width:0.936853"
                                   width="100%"
                                   height="100%" />
                                <use
                                   x="0"
                                   y="0"
                                   inkscape:tiled-clone-of="#g1459"
                                   xlink:href="#g1459"
                                   transform="translate(71.159554,134.07923)"
                                   id="use1499"
                                   style="stroke-width:0.936853"
                                   width="100%"
                                   height="100%" />
                                <use
                                   x="0"
                                   y="0"
                                   inkscape:tiled-clone-of="#g1459"
                                   xlink:href="#g1459"
                                   transform="translate(88.949442)"
                                   id="use1501"
                                   style="stroke-width:0.936853"
                                   width="100%"
                                   height="100%" />
                                <use
                                   x="0"
                                   y="0"
                                   inkscape:tiled-clone-of="#g1459"
                                   xlink:href="#g1459"
                                   transform="translate(88.949442,67.039615)"
                                   id="use1503"
                                   style="stroke-width:0.936853"
                                   width="100%"
                                   height="100%" />
                                <use
                                   x="0"
                                   y="0"
                                   inkscape:tiled-clone-of="#g1459"
                                   xlink:href="#g1459"
                                   transform="translate(88.949442,134.07923)"
                                   id="use1505"
                                   style="stroke-width:0.936853"
                                   width="100%"
                                   height="100%" />
                                <use
                                   x="0"
                                   y="0"
                                   inkscape:tiled-clone-of="#g1459"
                                   xlink:href="#g1459"
                                   transform="translate(106.73933)"
                                   id="use1507"
                                   style="stroke-width:0.936853"
                                   width="100%"
                                   height="100%" />
                                <use
                                   x="0"
                                   y="0"
                                   inkscape:tiled-clone-of="#g1459"
                                   xlink:href="#g1459"
                                   transform="translate(106.73933,67.039615)"
                                   id="use1509"
                                   style="stroke-width:0.936853"
                                   width="100%"
                                   height="100%" />
                                <use
                                   x="0"
                                   y="0"
                                   inkscape:tiled-clone-of="#g1459"
                                   xlink:href="#g1459"
                                   transform="translate(106.73933,134.07923)"
                                   id="use1511"
                                   style="stroke-width:0.936853"
                                   width="100%"
                                   height="100%" />
                                <use
                                   x="0"
                                   y="0"
                                   inkscape:tiled-clone-of="#g1459"
                                   xlink:href="#g1459"
                                   transform="translate(124.52922)"
                                   id="use1513"
                                   style="stroke-width:0.936853"
                                   width="100%"
                                   height="100%" />
                                <use
                                   x="0"
                                   y="0"
                                   inkscape:tiled-clone-of="#g1459"
                                   xlink:href="#g1459"
                                   transform="translate(124.52922,67.039615)"
                                   id="use1515"
                                   style="stroke-width:0.936853"
                                   width="100%"
                                   height="100%" />
                                <use
                                   x="0"
                                   y="0"
                                   inkscape:tiled-clone-of="#g1459"
                                   xlink:href="#g1459"
                                   transform="translate(124.52922,134.07923)"
                                   id="use1517"
                                   style="stroke-width:0.936853"
                                   width="100%"
                                   height="100%" />
                                <use
                                   x="0"
                                   y="0"
                                   inkscape:tiled-clone-of="#g1459"
                                   xlink:href="#g1459"
                                   transform="translate(142.31911)"
                                   id="use1519"
                                   style="stroke-width:0.936853"
                                   width="100%"
                                   height="100%" />
                                <use
                                   x="0"
                                   y="0"
                                   inkscape:tiled-clone-of="#g1459"
                                   xlink:href="#g1459"
                                   transform="translate(142.31911,67.039615)"
                                   id="use1521"
                                   style="stroke-width:0.936853"
                                   width="100%"
                                   height="100%" />
                                <use
                                   x="0"
                                   y="0"
                                   inkscape:tiled-clone-of="#g1459"
                                   xlink:href="#g1459"
                                   transform="translate(142.31911,134.07923)"
                                   id="use1523"
                                   style="stroke-width:0.936853"
                                   width="100%"
                                   height="100%" />
                                <use
                                   x="0"
                                   y="0"
                                   inkscape:tiled-clone-of="#g1459"
                                   xlink:href="#g1459"
                                   transform="translate(160.10899)"
                                   id="use1525"
                                   style="stroke-width:0.936853"
                                   width="100%"
                                   height="100%" />
                                <use
                                   x="0"
                                   y="0"
                                   inkscape:tiled-clone-of="#g1459"
                                   xlink:href="#g1459"
                                   transform="translate(160.10899,67.039615)"
                                   id="use1527"
                                   style="stroke-width:0.936853"
                                   width="100%"
                                   height="100%" />
                                <use
                                   x="0"
                                   y="0"
                                   inkscape:tiled-clone-of="#g1459"
                                   xlink:href="#g1459"
                                   transform="translate(160.10899,134.07923)"
                                   id="use1529"
                                   style="stroke-width:0.936853"
                                   width="100%"
                                   height="100%" />
                              </g>
                            </g>
                          </g>
                        </g>
                      </g>
                    </g>
                  </g>
                </g>
              </g>
            </g>
          </g>
        </g>
      </g>
    </g>
  </g>
</svg>
