<?xml version="1.0" encoding="UTF-8" standalone="no"?>
<svg
   xmlns:dc="http://purl.org/dc/elements/1.1/"
   xmlns:cc="http://creativecommons.org/ns#"
   xmlns:rdf="http://www.w3.org/1999/02/22-rdf-syntax-ns#"
   xmlns:svg="http://www.w3.org/2000/svg"
   xmlns="http://www.w3.org/2000/svg"
   xmlns:xlink="http://www.w3.org/1999/xlink"
   xmlns:sodipodi="http://sodipodi.sourceforge.net/DTD/sodipodi-0.dtd"
   xmlns:inkscape="http://www.inkscape.org/namespaces/inkscape"
   width="793.70081"
   height="1122.5197"
   viewBox="0 0 210 297"
   version="1.1"
   id="svg8"
   inkscape:version="1.0.2 (e86c870879, 2021-01-15, custom)"
   sodipodi:docname="Circle(P).svg">
  <defs
     id="defs2">
    <linearGradient
       inkscape:collect="always"
       id="linearGradient1616">
      <stop
         style="stop-color:#ffbf00;stop-opacity:1"
         offset="0"
         id="stop1612" />
      <stop
         style="stop-color:#664a00;stop-opacity:1"
         offset="1"
         id="stop1614" />
    </linearGradient>
    <linearGradient
       inkscape:collect="always"
       id="linearGradient1592">
      <stop
         style="stop-color:#ff0000;stop-opacity:1"
         offset="0"
         id="stop1588" />
      <stop
         style="stop-color:#520000;stop-opacity:1"
         offset="1"
         id="stop1590" />
    </linearGradient>
    <linearGradient
       inkscape:collect="always"
       id="linearGradient1584">
      <stop
         style="stop-color:#00bfff;stop-opacity:1"
         offset="0"
         id="stop1580" />
      <stop
         style="stop-color:#01607f;stop-opacity:1"
         offset="1"
         id="stop1582" />
    </linearGradient>
    <linearGradient
       inkscape:collect="always"
       xlink:href="#linearGradient1584"
       id="linearGradient1586"
       x1="118.1834"
       y1="162.88213"
       x2="87.312103"
       y2="135.36546"
       gradientUnits="userSpaceOnUse" />
    <linearGradient
       inkscape:collect="always"
       xlink:href="#linearGradient1616"
       id="linearGradient1594"
       x1="56.955254"
       y1="151.38055"
       x2="73.850449"
       y2="182.33681"
       gradientUnits="userSpaceOnUse" />
    <linearGradient
       inkscape:collect="always"
       xlink:href="#linearGradient1592"
       id="linearGradient1602"
       x1="53.446075"
       y1="221.97382"
       x2="128.46284"
       y2="181.49257"
       gradientUnits="userSpaceOnUse" />
  </defs>
  <sodipodi:namedview
     id="base"
     pagecolor="#ffffff"
     bordercolor="#666666"
     borderopacity="1.0"
     inkscape:pageopacity="0.0"
     inkscape:pageshadow="2"
     inkscape:zoom="1"
     inkscape:cx="400"
     inkscape:cy="560"
     inkscape:document-units="mm"
     inkscape:current-layer="layer1"
     inkscape:document-rotation="0"
     showgrid="false"
     units="px"
     showborder="false"
     inkscape:window-width="1920"
     inkscape:window-height="1017"
     inkscape:window-x="-8"
     inkscape:window-y="-8"
     inkscape:window-maximized="1" />
  <metadata
     id="metadata5">
    <rdf:RDF>
      <cc:Work
         rdf:about="">
        <dc:format>image/svg+xml</dc:format>
        <dc:type
           rdf:resource="http://purl.org/dc/dcmitype/StillImage" />
        <dc:title></dc:title>
      </cc:Work>
    </rdf:RDF>
  </metadata>
  <g
     inkscape:label="Layer 1"
     inkscape:groupmode="layer"
     id="layer1">
    <g
       id="g1621">
      <path
         id="path1032"
         style="fill:url(#linearGradient1602);fill-opacity:1;stroke-width:0.264583"
         d="m 40.964594,135.17935 a 61.912497,61.912497 0 0 0 0.138455,61.67065 61.912497,61.912497 0 0 0 53.340885,30.95504 61.912497,61.912497 0 0 0 0.0097,0 61.912497,61.912497 0 0 0 0.289004,0.001 33.742309,33.742309 0 0 0 29.199842,-16.87115 33.742309,33.742309 0 0 0 3.16334,-26.34365 33.742309,33.742309 0 0 0 -15.51377,-19.74915 33.742309,33.742309 0 0 0 -8.88239,-3.56057 33.742309,33.742309 0 0 1 -3.163345,7.39806 33.742309,33.742309 0 0 1 -4.825427,6.43853 33.742309,33.742309 0 0 1 -32.384952,9.4731 33.742309,33.742309 0 0 1 -8.882388,-3.56118 33.742309,33.742309 0 0 1 -12.488912,-45.85092 z m 66.222796,48.19138 a 33.742309,33.742309 0 0 0 0.28235,0.10581 33.742309,33.742309 0 0 1 -0.28235,-0.10581 z m 1.22313,0.43593 a 33.742309,33.742309 0 0 0 0.40147,0.13181 33.742309,33.742309 0 0 1 -0.40147,-0.13181 z m 18.607,0.80595 a 33.742309,33.742309 0 0 1 -0.18017,0.0429 33.742309,33.742309 0 0 0 0.18017,-0.0429 z m -14.3753,0.31077 a 33.742309,33.742309 0 0 0 0.35672,0.0677 33.742309,33.742309 0 0 1 -0.35672,-0.0677 z m 5.10052,0.59918 a 33.742309,33.742309 0 0 0 0.69652,0.0212 33.742309,33.742309 0 0 1 -0.69652,-0.0212 z m -24.024344,42.26858 a 33.742309,33.742309 0 0 0 0.266029,0.007 33.742309,33.742309 0 0 1 -0.266029,-0.007 z" />
      <path
         id="path1010"
         style="fill:url(#linearGradient1586);fill-opacity:1;stroke-width:0.264583"
         d="m 119.11461,118.06634 a 33.742309,33.742309 0 0 0 -16.86874,4.52071 33.742309,33.742309 0 0 0 -7.525024,5.91131 33.742309,33.742309 0 0 0 -7.988767,32.78279 33.742309,33.742309 0 0 1 15.977531,6.2e-4 33.742309,33.742309 0 0 1 8.88239,3.56056 33.742309,33.742309 0 0 1 15.5138,19.74912 33.742309,33.742309 0 0 1 -3.16335,26.34365 33.742309,33.742309 0 0 1 -29.199838,16.87115 61.912497,61.912497 0 0 0 30.934478,-8.2947 61.912497,61.912497 0 0 0 22.80061,-84.33099 61.912497,61.912497 0 0 0 -0.13906,-0.24306 61.912497,61.912497 0 0 0 -0.14027,-0.24063 33.742309,33.742309 0 0 0 -29.08376,-16.63053 z m -21.437804,13.98413 a 33.742309,33.742309 0 0 1 0.30291,0.42565 33.742309,33.742309 0 0 0 -0.30291,-0.42565 z m 4.331454,8.15443 a 33.742309,33.742309 0 0 1 0.15902,0.44258 33.742309,33.742309 0 0 0 -0.15902,-0.44258 z m 0.1965,0.55081 a 33.742309,33.742309 0 0 1 0.15418,0.45467 33.742309,33.742309 0 0 0 -0.15418,-0.45467 z m 0.90813,3.08716 a 33.742309,33.742309 0 0 1 0.16446,0.71223 33.742309,33.742309 0 0 0 -0.16446,-0.71223 z m 0.19348,0.84525 a 33.742309,33.742309 0 0 1 0.0858,0.40751 33.742309,33.742309 0 0 0 -0.0858,-0.40751 z m 0.19952,0.99398 a 33.742309,33.742309 0 0 1 0.0484,0.26785 33.742309,33.742309 0 0 0 -0.0484,-0.26785 z m 0.29324,1.88338 a 33.742309,33.742309 0 0 1 0.0629,0.53085 33.742309,33.742309 0 0 0 -0.0629,-0.53085 z m 0.0647,0.54536 a 33.742309,33.742309 0 0 1 0.0732,0.74428 33.742309,33.742309 0 0 0 -0.0732,-0.74428 z m 0.084,0.87185 a 33.742309,33.742309 0 0 1 0.0544,0.74307 33.742309,33.742309 0 0 0 -0.0544,-0.74307 z m 0.1185,2.92573 a 33.742309,33.742309 0 0 1 -0.005,0.49941 33.742309,33.742309 0 0 0 0.005,-0.49941 z m -0.007,0.58224 a 33.742309,33.742309 0 0 1 -0.032,0.93172 33.742309,33.742309 0 0 0 0.032,-0.93172 z m -0.21766,3.20446 a 33.742309,33.742309 0 0 1 -0.1838,1.34648 33.742309,33.742309 0 0 0 0.1838,-1.34648 z m -0.92385,4.84236 a 33.742309,33.742309 0 0 1 -0.18501,0.66205 33.742309,33.742309 0 0 0 0.18501,-0.66205 z" />
      <path
         id="path1008"
         style="fill:url(#linearGradient1594);fill-opacity:1;stroke-width:0.264583"
         d="m 94.699081,103.98125 a 61.912497,61.912497 0 0 0 -30.934484,8.2947 61.912497,61.912497 0 0 0 -22.524904,22.42696 61.912497,61.912497 0 0 0 -0.275099,0.47644 33.742309,33.742309 0 0 0 12.488912,45.85092 33.742309,33.742309 0 0 0 8.882388,3.56118 33.742309,33.742309 0 0 0 32.384952,-9.4731 33.742309,33.742309 0 0 1 -4.825426,-6.43853 33.742309,33.742309 0 0 1 -3.163341,-7.39867 33.742309,33.742309 0 0 0 -0.176547,0.0435 33.742309,33.742309 0 0 1 0.176547,-0.0435 33.742309,33.742309 0 0 1 7.988767,-32.78279 33.742309,33.742309 0 0 1 7.525024,-5.91131 33.742309,33.742309 0 0 1 45.9525,12.10982 61.912497,61.912497 0 0 0 -53.499289,-30.71562 z m -48.331052,24.06546 a 33.742309,33.742309 0 0 1 6.19e-4,0 33.742309,33.742309 0 0 0 -0.191059,0.19348 33.742309,33.742309 0 0 1 0.190452,-0.19348 z m 39.038131,33.58633 a 33.742309,33.742309 0 0 0 -0.248498,0.0726 33.742309,33.742309 0 0 0 -0.22794,0.0683 33.742309,33.742309 0 0 1 0.22794,-0.0683 33.742309,33.742309 0 0 1 0.248498,-0.0726 z m -2.079269,0.67051 a 33.742309,33.742309 0 0 0 -0.172315,0.0629 33.742309,33.742309 0 0 1 0.172315,-0.0629 z m -1.503071,0.58043 a 33.742309,33.742309 0 0 0 -0.161431,0.0671 33.742309,33.742309 0 0 1 0.161431,-0.0671 z m -2.220142,1.01394 a 33.742309,33.742309 0 0 0 -0.242453,0.12274 33.742309,33.742309 0 0 0 -0.241846,0.12455 33.742309,33.742309 0 0 0 -0.210403,0.11064 33.742309,33.742309 0 0 1 0.210403,-0.11064 33.742309,33.742309 0 0 1 0.241846,-0.12455 33.742309,33.742309 0 0 1 0.242453,-0.12274 z m -2.381576,1.31625 a 33.742309,33.742309 0 0 0 -0.197105,0.12032 33.742309,33.742309 0 0 1 0.197105,-0.12032 z m -1.144536,0.72614 a 33.742309,33.742309 0 0 0 -0.197105,0.1312 33.742309,33.742309 0 0 1 0.197105,-0.1312 z m -0.920828,0.63182 a 33.742309,33.742309 0 0 0 -0.179571,0.12878 33.742309,33.742309 0 0 1 0.179571,-0.12878 z m -0.850693,0.62638 a 33.742309,33.742309 0 0 0 -0.215846,0.16506 33.742309,33.742309 0 0 0 -0.137851,0.10702 33.742309,33.742309 0 0 1 0.137851,-0.10702 33.742309,33.742309 0 0 1 0.215846,-0.16506 z m -4.044868,3.62225 a 33.742309,33.742309 0 0 0 -0.129991,0.13785 33.742309,33.742309 0 0 1 0.129991,-0.13785 z m -1.631249,1.84709 a 33.742309,33.742309 0 0 0 -0.138458,0.1705 33.742309,33.742309 0 0 1 0.138458,-0.1705 z m -0.329516,0.40812 a 33.742309,33.742309 0 0 0 -0.168081,0.21342 33.742309,33.742309 0 0 1 0.168081,-0.21342 z m -0.499411,0.64452 a 33.742309,33.742309 0 0 0 -0.101574,0.13543 33.742309,33.742309 0 0 1 0.101574,-0.13543 z m -2.301765,3.4723 a 33.742309,33.742309 0 0 0 -0.13483,0.2358 33.742309,33.742309 0 0 1 0.13483,-0.2358 z m -0.276916,0.48913 a 33.742309,33.742309 0 0 0 -0.114875,0.20859 33.742309,33.742309 0 0 1 0.114875,-0.20859 z" />
    </g>
  </g>
</svg>
