<?xml version="1.0" encoding="UTF-8" standalone="no"?>
<svg
   xmlns:dc="http://purl.org/dc/elements/1.1/"
   xmlns:cc="http://creativecommons.org/ns#"
   xmlns:rdf="http://www.w3.org/1999/02/22-rdf-syntax-ns#"
   xmlns:svg="http://www.w3.org/2000/svg"
   xmlns="http://www.w3.org/2000/svg"
   xmlns:sodipodi="http://sodipodi.sourceforge.net/DTD/sodipodi-0.dtd"
   xmlns:inkscape="http://www.inkscape.org/namespaces/inkscape"
   sodipodi:docname="D.svg"
   inkscape:version="1.0 (6e3e5246a0, 2020-05-07)"
   id="svg8"
   version="1.1"
   viewBox="0 0 210 297"
   height="1122.5197"
   width="793.70081">
  <defs
     id="defs2">
    <rect
       id="rect835"
       height="141.68499"
       width="75.233756"
       y="91.856441"
       x="17.456436" />
  </defs>
  <sodipodi:namedview
     inkscape:window-maximized="1"
     inkscape:window-y="27"
     inkscape:window-x="74"
     inkscape:window-height="1016"
     inkscape:window-width="1846"
     inkscape:object-paths="true"
     units="px"
     showborder="false"
     showgrid="false"
     inkscape:document-rotation="0"
     inkscape:current-layer="layer1"
     inkscape:document-units="mm"
     inkscape:cy="650.8453"
     inkscape:cx="82.938959"
     inkscape:zoom="1"
     inkscape:pageshadow="2"
     inkscape:pageopacity="0.0"
     borderopacity="1.0"
     bordercolor="#666666"
     pagecolor="#ffffff"
     id="base" />
  <metadata
     id="metadata5">
    <rdf:RDF>
      <cc:Work
         rdf:about="">
        <dc:format>image/svg+xml</dc:format>
        <dc:type
           rdf:resource="http://purl.org/dc/dcmitype/StillImage" />
        <dc:title></dc:title>
      </cc:Work>
    </rdf:RDF>
  </metadata>
  <g
     id="layer1"
     inkscape:groupmode="layer"
     inkscape:label="Layer 1">
    <text
       style="font-style:normal;font-size:10.5833px;line-height:1.25;font-family:sans-serif;-inkscape-font-specification:sans-serif;white-space:pre;shape-inside:url(#rect835);font-weight:normal;font-stretch:normal;font-variant:normal;"
       id="text833"
       xml:space="preserve" />
    <g
       transform="translate(-45.004553,0.85476049)"
       style="font-style:normal;font-variant:normal;font-weight:normal;font-stretch:normal;font-size:161.492px;line-height:1.25;font-family:sans-serif;-inkscape-font-specification:sans-serif;opacity:0.51331;fill:#000000;fill-opacity:1;stroke-width:4.03733"
       id="text841"
       aria-label="D">
      <path
         id="path968"
         style="font-style:normal;font-variant:normal;font-weight:normal;font-stretch:normal;font-family:sans-serif;-inkscape-font-specification:sans-serif;fill:#000000;fill-opacity:1;stroke-width:4.03733"
         d="m 78.404131,109.19688 v 91.54893 h 19.240258 q 24.365741,0 35.641791,-11.03949 11.35491,-11.03949 11.35491,-34.85326 0,-23.65605 -11.35491,-34.61669 -11.27605,-11.03949 -35.641791,-11.03949 z M 62.475721,96.107193 H 95.19993 q 34.22243,0 50.22969,14.272487 16.00727,14.19363 16.00727,44.47338 0,30.43746 -16.08612,44.70995 -16.08612,14.27248 -50.15084,14.27248 H 62.475721 Z" />
    </g>
    <path
       sodipodi:nodetypes="sssssss"
       d="M -10.137523,96.961933 H 20.30038 c 4.367671,0 7.883881,3.768297 7.883881,8.449077 0,4.6808 -3.51621,8.4491 -7.883881,8.4491 h -30.437903 c -4.367669,0 -7.883886,-3.7683 -7.883886,-8.4491 0,-4.68078 3.516217,-8.449077 7.883886,-8.449077 z"
       style="opacity:0.51331;fill:#000000;fill-rule:evenodd;stroke-width:0.276914;stroke-linecap:square"
       id="rect861" />
    <path
       id="path866"
       style="opacity:0.489236;fill:#00ff00;fill-rule:evenodd;stroke-width:0.276914;stroke-linecap:square"
       d="M -10.137523,113.96756 H 20.30038 c 4.367671,0 7.883881,3.7683 7.883881,8.44908 0,4.6808 -3.51621,8.4491 -7.883881,8.4491 h -30.437903 c -4.367669,0 -7.883886,-3.7683 -7.883886,-8.4491 0,-4.68078 3.516217,-8.44908 7.883886,-8.44908 z"
       sodipodi:nodetypes="sssssss" />
    <path
       id="path870"
       style="opacity:0.51331;fill:#000000;fill-rule:evenodd;stroke-width:0.276914;stroke-linecap:square"
       d="m 11.880637,130.75829 h 8.7954 c 4.367671,0 7.883881,3.7683 7.883881,8.44908 0,4.6808 -3.51621,8.4491 -7.883881,8.4491 h -8.7954 c -4.3676697,0 -7.8838857,-3.7683 -7.8838857,-8.4491 0,-4.68078 3.516216,-8.44908 7.8838857,-8.44908 z"
       sodipodi:nodetypes="sssssss" />
    <path
       sodipodi:nodetypes="sssssss"
       d="m -25.903577,130.75829 h 16.8624083 c 4.36767,0 7.883881,3.7683 7.883881,8.44908 0,4.6808 -3.516211,8.4491 -7.883881,8.4491 H -25.903577 c -4.36767,0 -7.883886,-3.7683 -7.883886,-8.4491 0,-4.68078 3.516216,-8.44908 7.883886,-8.44908 z"
       style="opacity:0.51331;fill:#000000;fill-rule:evenodd;stroke-width:0.276914;stroke-linecap:square"
       id="path872" />
    <path
       id="path874"
       style="opacity:0.489236;fill:#00ff00;fill-rule:evenodd;stroke-width:0.266485;stroke-linecap:square"
       d="M -7.8272007,147.28874 H 20.361452 c 4.044915,0 7.30129,3.7683 7.30129,8.44909 0,4.68079 -3.256375,8.44909 -7.30129,8.44909 H -7.8272007 c -4.0449153,0 -7.3012943,-3.7683 -7.3012943,-8.44909 0,-4.68079 3.256379,-8.44909 7.3012943,-8.44909 z"
       sodipodi:nodetypes="sssssss" />
    <path
       sodipodi:nodetypes="sssssss"
       d="m -20.113483,164.18692 h 40.860971 c 4.044916,0 7.301291,3.7683 7.301291,8.44908 0,4.6808 -3.256375,8.4491 -7.301291,8.4491 h -40.860971 c -4.044915,0 -7.301294,-3.7683 -7.301294,-8.4491 0,-4.68078 3.256379,-8.44908 7.301294,-8.44908 z"
       style="opacity:0.51331;fill:#000000;fill-rule:evenodd;stroke-width:0.266485;stroke-linecap:square"
       id="path878" />
    <path
       sodipodi:nodetypes="sssssss"
       d="m -10.809937,181.0851 h 28.188652 c 4.044916,0 7.301291,3.7683 7.301291,8.44908 0,4.6808 -3.256375,8.4491 -7.301291,8.4491 h -28.188652 c -4.044915,0 -7.301294,-3.7683 -7.301294,-8.4491 0,-4.68078 3.256379,-8.44908 7.301294,-8.44908 z"
       style="opacity:0.489236;fill:#00ff00;fill-rule:evenodd;stroke-width:0.266485;stroke-linecap:square"
       id="path882" />
    <path
       id="path884"
       style="opacity:0.51331;fill:#000000;fill-rule:evenodd;stroke-width:0.266485;stroke-linecap:square"
       d="M 6.9289643,197.66669 H 20.747488 c 4.044916,0 7.301291,3.7683 7.301291,8.44908 0,4.6808 -3.256375,8.4491 -7.301291,8.4491 H 6.9289643 c -4.044915,0 -7.30129401,-3.7683 -7.30129401,-8.4491 0,-4.68078 3.25637901,-8.44908 7.30129401,-8.44908 z"
       sodipodi:nodetypes="sssssss" />
    <path
       sodipodi:nodetypes="sssssss"
       d="m -18.387126,197.66669 h 7.072343 c 4.0449163,0 7.3012913,3.7683 7.3012913,8.44908 0,4.6808 -3.256375,8.4491 -7.3012913,8.4491 h -7.072343 c -4.044915,0 -7.301294,-3.7683 -7.301294,-8.4491 0,-4.68078 3.256379,-8.44908 7.301294,-8.44908 z"
       style="opacity:0.51331;fill:#000000;fill-rule:evenodd;stroke-width:0.266485;stroke-linecap:square"
       id="path890" />
    <path
       id="path892"
       style="opacity:0.51331;fill:#000000;fill-rule:evenodd;stroke-width:0.337244;stroke-linecap:square"
       d="m -56.91765,197.66669 h 11.326801 c 6.478186,0 11.693474,3.7683 11.693474,8.44908 0,4.6808 -5.215288,8.4491 -11.693474,8.4491 H -56.91765 c -6.478184,0 -11.693479,-3.7683 -11.693479,-8.4491 0,-4.68078 5.215295,-8.44908 11.693479,-8.44908 z"
       sodipodi:nodetypes="sssssss" />
  </g>
</svg>
