<?xml version="1.0" encoding="UTF-8" standalone="no"?>
<svg
   xmlns:dc="http://purl.org/dc/elements/1.1/"
   xmlns:cc="http://creativecommons.org/ns#"
   xmlns:rdf="http://www.w3.org/1999/02/22-rdf-syntax-ns#"
   xmlns:svg="http://www.w3.org/2000/svg"
   xmlns="http://www.w3.org/2000/svg"
   xmlns:xlink="http://www.w3.org/1999/xlink"
   xmlns:sodipodi="http://sodipodi.sourceforge.net/DTD/sodipodi-0.dtd"
   xmlns:inkscape="http://www.inkscape.org/namespaces/inkscape"
   inkscape:export-ydpi="96"
   inkscape:export-xdpi="96"
   inkscape:export-filename="/home/rajesh/Documents/dax/d.png"
   width="210mm"
   height="297mm"
   viewBox="0 0 210 297"
   version="1.1"
   id="svg954"
   inkscape:version="1.0 (6e3e5246a0, 2020-05-07)"
   sodipodi:docname="d.svg">
  <defs
     id="defs948">
    <linearGradient
       inkscape:collect="always"
       id="linearGradient1081">
      <stop
         style="stop-color:#00ffff;stop-opacity:1;"
         offset="0"
         id="stop1077" />
      <stop
         style="stop-color:#0000ff;stop-opacity:1"
         offset="1"
         id="stop1079" />
    </linearGradient>
    <linearGradient
       inkscape:collect="always"
       xlink:href="#linearGradient1081"
       id="linearGradient1083"
       x1="255.70898"
       y1="555.25879"
       x2="517.70898"
       y2="555.25879"
       gradientUnits="userSpaceOnUse" />
    <linearGradient
       inkscape:collect="always"
       xlink:href="#linearGradient1081"
       id="linearGradient1091"
       x1="442.70898"
       y1="597.42383"
       x2="217.39453"
       y2="594.79297"
       gradientUnits="userSpaceOnUse" />
  </defs>
  <sodipodi:namedview
     id="base"
     pagecolor="#ffffff"
     bordercolor="#666666"
     borderopacity="1.0"
     inkscape:pageopacity="0.0"
     inkscape:pageshadow="2"
     inkscape:zoom="1"
     inkscape:cx="372.85039"
     inkscape:cy="634.17826"
     inkscape:document-units="px"
     inkscape:current-layer="layer1"
     inkscape:document-rotation="0"
     showgrid="false"
     inkscape:showpageshadow="false"
     borderlayer="false"
     showborder="false"
     inkscape:window-width="1846"
     inkscape:window-height="1016"
     inkscape:window-x="74"
     inkscape:window-y="27"
     inkscape:window-maximized="1"
     inkscape:object-paths="true"
     inkscape:snap-intersection-paths="true"
     inkscape:object-nodes="true"
     inkscape:snap-smooth-nodes="true" />
  <metadata
     id="metadata951">
    <rdf:RDF>
      <cc:Work
         rdf:about="">
        <dc:format>image/svg+xml</dc:format>
        <dc:type
           rdf:resource="http://purl.org/dc/dcmitype/StillImage" />
        <dc:title />
      </cc:Work>
    </rdf:RDF>
  </metadata>
  <g
     inkscape:label="Layer 1"
     inkscape:groupmode="layer"
     id="layer1">
    <path
       id="path956"
       style="opacity:1;fill:url(#linearGradient1091);fill-opacity:1;stroke-width:0.953575"
       d="M 367.39453 444.79297 A 149.99999 149.99999 0 0 0 217.39453 594.79297 A 149.99999 149.99999 0 0 0 367.39453 744.79297 A 149.99999 149.99999 0 0 0 517.39453 594.79297 A 149.99999 149.99999 0 0 0 367.39453 444.79297 z M 367.70898 522.42383 A 74.999996 74.999996 0 0 1 442.70898 597.42383 A 74.999996 74.999996 0 0 1 367.70898 672.42383 A 74.999996 74.999996 0 0 1 292.70898 597.42383 A 74.999996 74.999996 0 0 1 367.70898 522.42383 z "
       transform="scale(0.26458333)" />
    <path
       id="path979"
       style="opacity:1;fill:url(#linearGradient1083);fill-opacity:1;stroke-width:0.712003"
       d="M 517.70898 364.09375 C 476.15901 364.09375 442.70898 397.54374 442.70898 439.09375 L 442.70898 597.48828 A 74.999993 74.999993 0 0 1 367.70898 672.42383 A 74.999993 74.999993 0 0 1 292.70898 597.42383 A 74.999993 74.999993 0 0 1 367.70898 522.42383 A 111.99999 112.00002 0 0 0 367.0957 522.42383 A 111.99999 112.00002 0 0 0 255.70898 634.42383 A 111.99999 112.00002 0 0 0 367.70898 746.42383 A 111.99999 112.00002 0 0 0 427.00977 729.43555 L 426.49805 732.6582 L 462.45898 710.82227 L 488.08203 683.86914 L 506.79492 650.17773 L 514.43164 624.46094 L 517.37109 597.48828 L 517.70898 597.48828 L 517.70898 364.09375 z "
       transform="scale(0.26458333)" />
  </g>
</svg>
