<?xml version="1.0" encoding="UTF-8" standalone="no"?>
<svg
   xmlns:dc="http://purl.org/dc/elements/1.1/"
   xmlns:cc="http://creativecommons.org/ns#"
   xmlns:rdf="http://www.w3.org/1999/02/22-rdf-syntax-ns#"
   xmlns:svg="http://www.w3.org/2000/svg"
   xmlns="http://www.w3.org/2000/svg"
   xmlns:sodipodi="http://sodipodi.sourceforge.net/DTD/sodipodi-0.dtd"
   xmlns:inkscape="http://www.inkscape.org/namespaces/inkscape"
   width="793.70081"
   height="1122.5197"
   viewBox="0 0 210 297"
   version="1.1"
   id="svg8"
   inkscape:version="1.0 (9f2f71dc58, 2020-08-02)"
   sodipodi:docname="Download-Icon.svg">
  <defs
     id="defs2" />
  <sodipodi:namedview
     id="base"
     pagecolor="#ffffff"
     bordercolor="#666666"
     borderopacity="1.0"
     inkscape:pageopacity="0.0"
     inkscape:pageshadow="2"
     inkscape:zoom="1"
     inkscape:cx="327.20159"
     inkscape:cy="560.88573"
     inkscape:document-units="px"
     inkscape:current-layer="layer1"
     inkscape:document-rotation="0"
     showgrid="false"
     showborder="true"
     units="px"
     inkscape:object-paths="false"
     inkscape:object-nodes="true"
     inkscape:snap-intersection-paths="true"
     inkscape:snap-smooth-nodes="false"
     inkscape:snap-midpoints="false"
     inkscape:window-width="1846"
     inkscape:window-height="1016"
     inkscape:window-x="74"
     inkscape:window-y="27"
     inkscape:window-maximized="1"
     showguides="true"
     inkscape:guide-bbox="true"
     inkscape:snap-to-guides="true"
     inkscape:snap-nodes="false"
     inkscape:snap-grids="false" />
  <metadata
     id="metadata5">
    <rdf:RDF>
      <cc:Work
         rdf:about="">
        <dc:format>image/svg+xml</dc:format>
        <dc:type
           rdf:resource="http://purl.org/dc/dcmitype/StillImage" />
        <dc:title></dc:title>
      </cc:Work>
    </rdf:RDF>
  </metadata>
  <g
     inkscape:label="Layer 1"
     inkscape:groupmode="layer"
     id="layer1">
    <g
       id="g974">
      <rect
         style="fill:#ff0000;fill-opacity:1;fill-rule:evenodd;stroke:none;stroke-width:1.85208;stroke-linecap:round;stroke-linejoin:round"
         id="rect871"
         width="138.66844"
         height="113.90857"
         x="9.3795605"
         y="89.019142"
         ry="0" />
      <path
         id="path883"
         style="fill:#ca0000;fill-opacity:1;stroke:none;stroke-width:0.264583px;stroke-linecap:butt;stroke-linejoin:miter;stroke-opacity:1"
         d="m 112.30167,113.74964 -65.863163,65.94172 23.236309,23.2363 h 66.852764 c 6.38245,0 11.52023,-5.13829 11.52023,-11.52074 v -41.91114 z" />
      <rect
         style="fill:#00ffff;fill-opacity:1;fill-rule:evenodd;stroke-width:1.85208;stroke-linecap:round;stroke-linejoin:round;stroke-miterlimit:4;stroke-dasharray:none"
         id="rect19361"
         width="74.321205"
         height="74.321205"
         x="41.553177"
         y="108.81283"
         ry="14.48115" />
      <path
         id="path897"
         style="fill:#00b3b3;fill-opacity:1;stroke:none;stroke-width:0.264583px;stroke-linecap:butt;stroke-linejoin:miter;stroke-opacity:1"
         d="m 83.802637,123.60641 -30.86124,34.8796 24.432175,24.64803 h 24.019718 c 8.02256,0 14.48129,-6.45873 14.48129,-14.48129 v -12.9744 z"
         sodipodi:nodetypes="cccsscc" />
      <g
         id="g910">
        <path
           id="path19363"
           style="fill:#e2dada;fill-opacity:0.894044;fill-rule:evenodd;stroke:none;stroke-width:1.85208;stroke-linecap:round;stroke-linejoin:round;stroke-miterlimit:4;stroke-dasharray:none;stroke-opacity:1"
           d="m 78.688599,122.74226 a 15.373938,15.321409 0 0 0 -15.348626,15.32159 15.373938,15.321409 0 0 0 0.246231,2.73081 10.905169,10.867909 0 0 0 -2.304181,-0.2454 10.905169,10.867909 0 0 0 -10.905169,10.86791 10.905169,10.867909 0 0 0 10.56535,10.86277 10.905169,10.867909 0 0 0 0.0014,0 10.905169,10.867909 0 0 0 0.338527,0.006 10.905169,10.867909 0 0 0 0.348533,-0.006 l 33.618143,-0.0312 a 10.905169,10.867909 0 0 0 0.89682,0.0369 10.905169,10.867909 0 0 0 0.915867,-0.0386 10.905169,10.867909 0 0 0 8.7e-4,0 10.905169,10.867909 0 0 0 9.988336,-10.82932 10.905169,10.867909 0 0 0 -10.905169,-10.8679 10.905169,10.867909 0 0 0 -2.30418,0.24539 15.373938,15.321409 0 0 0 0.246231,-2.73081 15.373938,15.321409 0 0 0 -15.373798,-15.32158 15.373938,15.321409 0 0 0 -0.02517,0 z" />
        <path
           id="path905"
           style="fill:#e2dada;fill-opacity:0.894044;fill-rule:evenodd;stroke:none;stroke-width:1.85208;stroke-linecap:round;stroke-linejoin:round;stroke-miterlimit:4;stroke-dasharray:none;stroke-opacity:1"
           d="m 78.688599,122.74226 a 15.373938,15.321409 0 0 0 -15.348626,15.32159 15.373938,15.321409 0 0 0 0.246231,2.73081 10.905169,10.867909 0 0 0 -2.304181,-0.2454 10.905169,10.867909 0 0 0 -10.905169,10.86791 10.905169,10.867909 0 0 0 10.56535,10.86277 10.905169,10.867909 0 0 0 0.0014,0 10.905169,10.867909 0 0 0 0.338527,0.006 10.905169,10.867909 0 0 0 0.348533,-0.006 l 33.618143,-0.0312 a 10.905169,10.867909 0 0 0 0.89682,0.0369 10.905169,10.867909 0 0 0 0.915867,-0.0386 10.905169,10.867909 0 0 0 8.7e-4,0 10.905169,10.867909 0 0 0 9.988336,-10.82932 10.905169,10.867909 0 0 0 -10.905169,-10.8679 10.905169,10.867909 0 0 0 -2.30418,0.24539 15.373938,15.321409 0 0 0 0.246231,-2.73081 15.373938,15.321409 0 0 0 -15.373798,-15.32158 15.373938,15.321409 0 0 0 -0.02517,0 z" />
      </g>
      <path
         id="rect19381"
         style="fill:#ffcc00;fill-opacity:0.894044;fill-rule:evenodd;stroke:none;stroke-width:1.85211;stroke-linecap:round;stroke-linejoin:round;stroke-miterlimit:4;stroke-dasharray:none;stroke-opacity:1"
         d="m 78.713859,132.4755 c -1.5064,0 -2.719135,1.38356 -2.719135,3.10233 v 12.17516 l -6.69105,-6.63757 c -1.065186,-1.05669 -2.780215,-1.05669 -3.845404,0 -1.065188,1.05666 -1.065185,2.75818 0,3.81486 l 11.330421,11.23968 c 0.532593,0.52831 1.22764,0.79251 1.922703,0.79251 4.43e-4,0 8.28e-4,0 0.0014,0 0.0014,0 0.0024,0 0.0036,0 0.695063,0 1.390109,-0.2642 1.922703,-0.79251 l 11.330239,-11.23968 c 1.065185,-1.05668 1.065186,-2.7582 0,-3.81486 -1.065189,-1.05669 -2.780219,-1.05669 -3.845406,0 l -6.690859,6.63757 v -12.17516 c 0,-1.71877 -1.212734,-3.10233 -2.719135,-3.10233 z" />
    </g>
  </g>
</svg>
