<?xml version="1.0" encoding="UTF-8" standalone="no"?>
<svg
   xmlns:dc="http://purl.org/dc/elements/1.1/"
   xmlns:cc="http://creativecommons.org/ns#"
   xmlns:rdf="http://www.w3.org/1999/02/22-rdf-syntax-ns#"
   xmlns:svg="http://www.w3.org/2000/svg"
   xmlns="http://www.w3.org/2000/svg"
   xmlns:xlink="http://www.w3.org/1999/xlink"
   xmlns:sodipodi="http://sodipodi.sourceforge.net/DTD/sodipodi-0.dtd"
   xmlns:inkscape="http://www.inkscape.org/namespaces/inkscape"
   width="793.70081"
   height="1122.5197"
   viewBox="0 0 210 297"
   version="1.1"
   id="svg8"
   inkscape:version="1.0.2 (e86c870879, 2021-01-15, custom)"
   sodipodi:docname="Heart.svg">
  <defs
     id="defs2">
    <linearGradient
       inkscape:collect="always"
       id="linearGradient954">
      <stop
         style="stop-color:#e20000;stop-opacity:1;"
         offset="0"
         id="stop950" />
      <stop
         style="stop-color:#ff6d6d;stop-opacity:1"
         offset="1"
         id="stop952" />
    </linearGradient>
    <linearGradient
       inkscape:collect="always"
       id="linearGradient946">
      <stop
         style="stop-color:#2b0000;stop-opacity:1"
         offset="0"
         id="stop942" />
      <stop
         style="stop-color:#a00000;stop-opacity:1"
         offset="1"
         id="stop944" />
    </linearGradient>
    <linearGradient
       inkscape:collect="always"
       xlink:href="#linearGradient946"
       id="linearGradient948"
       x1="90.432007"
       y1="166.27141"
       x2="90.432007"
       y2="41.486515"
       gradientUnits="userSpaceOnUse" />
    <linearGradient
       inkscape:collect="always"
       xlink:href="#linearGradient954"
       id="linearGradient956"
       x1="97.422012"
       y1="159.65691"
       x2="97.422012"
       y2="37.948578"
       gradientUnits="userSpaceOnUse" />
  </defs>
  <sodipodi:namedview
     id="base"
     pagecolor="#ffffff"
     bordercolor="#000000"
     borderopacity="1"
     inkscape:pageopacity="0.0"
     inkscape:pageshadow="2"
     inkscape:zoom="1"
     inkscape:cx="314.79143"
     inkscape:cy="276.85314"
     inkscape:document-units="mm"
     inkscape:current-layer="layer1"
     inkscape:document-rotation="0"
     showgrid="false"
     units="px"
     showborder="false"
     inkscape:object-nodes="true"
     inkscape:window-width="1920"
     inkscape:window-height="1017"
     inkscape:window-x="-8"
     inkscape:window-y="-8"
     inkscape:window-maximized="1"
     showguides="false"
     inkscape:snap-smooth-nodes="true" />
  <metadata
     id="metadata5">
    <rdf:RDF>
      <cc:Work
         rdf:about="">
        <dc:format>image/svg+xml</dc:format>
        <dc:type
           rdf:resource="http://purl.org/dc/dcmitype/StillImage" />
        <dc:title></dc:title>
      </cc:Work>
    </rdf:RDF>
  </metadata>
  <g
     inkscape:label="Layer 1"
     inkscape:groupmode="layer"
     id="layer1">
    <g
       id="g960">
      <path
         id="path888"
         style="color:#000000;font-style:normal;font-variant:normal;font-weight:normal;font-stretch:normal;font-size:medium;line-height:normal;font-family:sans-serif;font-variant-ligatures:normal;font-variant-position:normal;font-variant-caps:normal;font-variant-numeric:normal;font-variant-alternates:normal;font-variant-east-asian:normal;font-feature-settings:normal;font-variation-settings:normal;text-indent:0;text-align:start;text-decoration:none;text-decoration-line:none;text-decoration-style:solid;text-decoration-color:#000000;letter-spacing:normal;word-spacing:normal;text-transform:none;writing-mode:lr-tb;direction:ltr;text-orientation:mixed;dominant-baseline:auto;baseline-shift:baseline;text-anchor:start;white-space:normal;shape-padding:0;shape-margin:0;inline-size:0;clip-rule:nonzero;display:inline;overflow:visible;visibility:visible;opacity:1;isolation:auto;mix-blend-mode:normal;color-interpolation:sRGB;color-interpolation-filters:linearRGB;solid-color:#000000;solid-opacity:1;vector-effect:none;fill:url(#linearGradient956);fill-opacity:1;fill-rule:nonzero;stroke:none;stroke-width:1;stroke-linecap:round;stroke-linejoin:round;stroke-miterlimit:4;stroke-dasharray:none;stroke-dashoffset:0;stroke-opacity:1;color-rendering:auto;image-rendering:auto;shape-rendering:auto;text-rendering:auto;enable-background:accumulate;stop-color:#000000;stop-opacity:1"
         d="m 147.50926,55.067083 c -2.2613,-3.916352 -5.538,-7.305776 -9.7088,-9.713796 l -12.62238,-7.287449 c 4.17081,2.408017 7.4475,5.797445 9.70881,9.713797 0.10119,0.175257 0.19761,0.352887 0.29472,0.530213 l 0.001,-0.0018 c 0.0162,0.02967 0.0312,0.05994 0.0474,0.08966 0.0804,0.148199 0.15824,0.297613 0.23583,0.44719 0.0542,0.104482 0.10871,0.208779 0.16151,0.313913 0.0779,0.155007 0.15341,0.310989 0.2282,0.467375 0.0463,0.09677 0.0929,0.193386 0.13802,0.290664 0.0754,0.162508 0.14813,0.326073 0.22021,0.489963 0.0428,0.09735 0.0856,0.194681 0.12723,0.292501 0.0685,0.160942 0.13481,0.322695 0.20018,0.484872 0.0419,0.104023 0.0837,0.208057 0.12436,0.312569 0.0602,0.15491 0.11861,0.310486 0.17594,0.466431 0.0415,0.112927 0.0827,0.225916 0.12274,0.339365 0.0556,0.157684 0.10914,0.31594 0.1618,0.474593 0.0361,0.108769 0.072,0.217517 0.10668,0.326723 0.0509,0.160106 0.10003,0.320711 0.14795,0.481717 0.0341,0.114373 0.0677,0.228801 0.10021,0.343608 0.044,0.155186 0.0863,0.310844 0.1275,0.466787 0.0315,0.119264 0.0622,0.238699 0.0921,0.358382 0.0393,0.157503 0.0773,0.315198 0.11378,0.473392 0.0273,0.118073 0.0538,0.236282 0.0795,0.354718 0.0351,0.162059 0.0685,0.324403 0.10066,0.487103 0.0222,0.112382 0.0436,0.224935 0.0643,0.337603 0.0306,0.166104 0.0599,0.332429 0.0874,0.499121 0.0198,0.11946 0.0383,0.239082 0.0564,0.358822 0.0237,0.156501 0.0462,0.313124 0.0671,0.470069 0.017,0.12734 0.0329,0.254837 0.0481,0.382446 0.0184,0.155084 0.0361,0.310266 0.0519,0.465711 0.0133,0.1311 0.0248,0.262372 0.0362,0.393705 0.013,0.150306 0.0256,0.300607 0.0361,0.451188 0.009,0.133875 0.017,0.267834 0.0243,0.4019 0.008,0.151297 0.0162,0.302569 0.022,0.454076 0.005,0.136984 0.008,0.274057 0.0112,0.411186 0.004,0.1474 0.007,0.294835 0.007,0.442371 7.3e-4,0.137483 -6.6e-4,0.275081 -0.002,0.412658 -0.001,0.150007 -0.003,0.299929 -0.007,0.450013 -0.004,0.131609 -0.009,0.263226 -0.0144,0.394869 -0.007,0.157882 -0.0132,0.31568 -0.0224,0.473577 -0.007,0.124639 -0.0166,0.249154 -0.0257,0.373782 -0.0117,0.160297 -0.0234,0.320559 -0.038,0.480801 -0.0115,0.127183 -0.0254,0.254246 -0.0389,0.381373 -0.017,0.160752 -0.0339,0.321473 -0.0539,0.482095 -0.0159,0.128158 -0.0343,0.256159 -0.0521,0.384211 -0.0212,0.152235 -0.0418,0.304387 -0.0656,0.456442 -0.0223,0.142632 -0.0476,0.284981 -0.0723,0.427424 -0.0249,0.143645 -0.0492,0.287317 -0.0765,0.43074 -0.0256,0.134577 -0.0541,0.268816 -0.0819,0.403175 -0.0314,0.151635 -0.0619,0.303371 -0.096,0.454693 -0.0287,0.12749 -0.0606,0.254552 -0.0912,0.381796 -0.0375,0.156055 -0.0743,0.312073 -0.11477,0.467725 -0.0349,0.134154 -0.0733,0.267828 -0.1104,0.401654 -0.04,0.14446 -0.079,0.289054 -0.1216,0.433105 -0.0425,0.143761 -0.0883,0.286915 -0.13335,0.430239 -0.0432,0.137373 -0.0849,0.274921 -0.13037,0.411865 -0.0471,0.141961 -0.0983,0.283186 -0.14795,0.424654 -0.0481,0.13693 -0.0946,0.274264 -0.14507,0.410705 -0.0479,0.129392 -0.0997,0.257741 -0.14972,0.38667 -0.0582,0.149902 -0.11468,0.300207 -0.17573,0.449447 -0.0462,0.112857 -0.0962,0.224892 -0.14402,0.337352 -0.068,0.159937 -0.1345,0.320052 -0.20591,0.479147 -0.0499,0.111029 -0.10376,0.220965 -0.15525,0.331564 -0.0759,0.162996 -0.15035,0.326554 -0.22983,0.488576 -7.4e-4,0.0018 -0.001,0.0036 -0.002,0.0054 -0.0367,0.0746 -0.0765,0.148244 -0.11384,0.222625 -0.0956,0.190147 -0.19058,0.38043 -0.29114,0.56912 -7.4e-4,0.0016 -0.001,0.0033 -0.002,0.0049 -0.0516,0.09684 -0.10723,0.1924 -0.16019,0.288838 -0.0916,0.166722 -0.1816,0.333754 -0.27715,0.499236 L 98.847097,137.11526 90.432039,122.53995 58.528037,67.280596 c -2.044701,-3.541525 -2.179127,-7.542177 -0.69536,-10.921918 -0.156522,-0.01728 -0.313602,-0.03126 -0.471028,-0.0423 -0.0895,-0.0062 -0.179418,-0.0095 -0.269166,-0.01377 -0.08834,-0.0042 -0.176691,-0.0086 -0.265246,-0.01077 -0.08444,-0.0021 -0.168921,-0.0024 -0.253532,-0.0026 -0.09751,-3.22e-4 -0.194989,3.47e-4 -0.292681,0.0024 -0.08041,0.0017 -0.160876,0.0037 -0.241391,0.007 -0.101003,0.0042 -0.202034,0.01089 -0.303158,0.01769 -0.07897,0.0053 -0.157908,0.0094 -0.236925,0.01626 -0.16418,0.01433 -0.328611,0.0315 -0.492873,0.05271 -0.0011,1.38e-4 -0.0021,3.94e-4 -0.0032,5.34e-4 -0.07751,0.01001 -0.154921,0.02314 -0.232416,0.0347 -0.09971,0.01489 -0.19951,0.02993 -0.299164,0.04738 -0.07984,0.01396 -0.159653,0.02971 -0.239433,0.04532 -0.107645,0.02108 -0.215125,0.04339 -0.322617,0.06749 -0.07012,0.0157 -0.140282,0.03168 -0.210321,0.04868 -0.119507,0.02902 -0.238743,0.0608 -0.357949,0.09359 -0.05858,0.0161 -0.117182,0.03094 -0.175674,0.04796 -0.172969,0.05034 -0.345689,0.103825 -0.517762,0.162186 -2.34e-4,7.9e-5 -4.23e-4,3e-4 -6.58e-4,3.8e-4 -0.04803,0.01628 -0.09569,0.0349 -0.143643,0.05182 -0.128724,0.04542 -0.257244,0.09185 -0.385324,0.141823 -0.06614,0.0258 -0.132083,0.05357 -0.198033,0.08059 -0.115113,0.04716 -0.229912,0.0958 -0.34439,0.146678 -0.06138,0.02727 -0.12257,0.05495 -0.183756,0.0833 -0.127083,0.0589 -0.253748,0.120296 -0.379911,0.183841 -0.04641,0.02337 -0.09305,0.04591 -0.139326,0.06992 -0.174774,0.09067 -0.348928,0.184799 -0.521642,0.284516 -5.936517,3.42745 -7.873316,10.65568 -4.445865,16.592198 l 44.526526,77.122196 8.414867,14.57498 8.415014,-14.57506 40.31898,-69.834836 c 4.9307,-8.540226 4.5586,-18.769123 -0.0717,-26.78832 z m -25.01513,0.220326 c -0.0635,-0.112203 -0.12939,-0.223524 -0.19672,-0.333903 -0.0281,-0.04602 -0.0554,-0.09243 -0.0841,-0.138133 -0.0846,-0.134556 -0.17207,-0.267408 -0.26237,-0.399006 -0.0297,-0.04342 -0.0608,-0.08611 -0.0912,-0.129203 -0.0752,-0.106567 -0.15208,-0.212249 -0.23106,-0.316709 -0.0278,-0.03673 -0.0547,-0.07385 -0.083,-0.110313 -0.10038,-0.12964 -0.20389,-0.25759 -0.31008,-0.383728 -0.0346,-0.04113 -0.0704,-0.08147 -0.10562,-0.122217 -0.0851,-0.09838 -0.17187,-0.195739 -0.26052,-0.291815 -0.0325,-0.03515 -0.0641,-0.07089 -0.097,-0.105731 -0.11646,-0.123251 -0.2363,-0.243959 -0.35867,-0.363125 -0.0313,-0.0305 -0.0632,-0.06051 -0.0949,-0.09072 -0.11508,-0.10971 -0.23228,-0.218234 -0.35242,-0.324219 -0.0178,-0.0157 -0.035,-0.03189 -0.0529,-0.04751 -0.13643,-0.118981 -0.27671,-0.234585 -0.41952,-0.348589 -0.0311,-0.02488 -0.0626,-0.04946 -0.0941,-0.07411 -0.14511,-0.113613 -0.29248,-0.225723 -0.44398,-0.334028 -0.15472,-0.110602 -0.3136,-0.217475 -0.47491,-0.322307 -0.0321,-0.02084 -0.0644,-0.04144 -0.0967,-0.06204 -0.16183,-0.10315 -0.3258,-0.204446 -0.49408,-0.301603 -9e-5,-5.6e-5 -9e-5,-2.73e-4 -1.9e-4,-3.28e-4 -0.9275,-0.53549 -1.88664,-0.939844 -2.85772,-1.218633 -0.77685,-0.223009 -1.56157,-0.36577 -2.34397,-0.430507 -1e-4,-8e-6 -2.2e-4,1.99e-4 -3.2e-4,1.9e-4 -0.19552,-0.01617 -0.39093,-0.02772 -0.58601,-0.03421 -1.1e-4,-3e-6 -2.2e-4,1.93e-4 -3.3e-4,1.89e-4 -0.39039,-0.01299 -0.77932,-0.0068 -1.16612,0.01846 -0.1934,0.01263 -0.38624,0.02999 -0.57827,0.05205 -0.38396,0.04411 -0.76499,0.107075 -1.14164,0.188411 -1.1e-4,2.4e-5 -2.1e-4,1.65e-4 -3.2e-4,1.9e-4 -0.18826,0.04067 -0.37557,0.08589 -0.56153,0.135733 -1.1e-4,3.2e-5 -2.1e-4,1.59e-4 -3.3e-4,1.9e-4 -0.18595,0.04985 -0.37074,0.104069 -0.5541,0.163009 -1.2e-4,3.7e-5 -2.1e-4,1.51e-4 -3.3e-4,1.9e-4 -0.18335,0.05894 -0.3654,0.122276 -0.54583,0.190229 -0.18068,0.06803 -0.35961,0.140609 -0.53706,0.21759 -0.17732,0.07693 -0.35283,0.158216 -0.52662,0.244003 -1.1e-4,5.6e-5 -2.1e-4,1.33e-4 -3.3e-4,1.89e-4 -0.17379,0.08579 -0.34574,0.175993 -0.51568,0.270553 -0.001,8.08e-4 -0.003,0.0017 -0.004,0.0025 -0.33839,0.188456 -0.66864,0.393935 -0.98992,0.616675 -0.16132,0.111842 -0.32028,0.228124 -0.47682,0.348485 -0.15653,0.120363 -0.31043,0.244806 -0.46188,0.373606 -9e-5,8.1e-5 -2.3e-4,1.07e-4 -3.2e-4,1.89e-4 -0.15135,0.128725 -0.30014,0.261609 -0.44609,0.398676 -9e-5,8.4e-5 -2.4e-4,1.05e-4 -3.3e-4,1.9e-4 -0.14595,0.137071 -0.28921,0.278363 -0.42946,0.423695 -8e-5,8.7e-5 -2.4e-4,1.01e-4 -3.2e-4,1.89e-4 -0.14025,0.14534 -0.27742,0.294958 -0.41165,0.448474 -8e-5,9.1e-5 -2.4e-4,9.8e-5 -3.2e-4,1.89e-4 -0.13423,0.153523 -0.26495,0.311068 -0.39285,0.472683 -7e-5,9.4e-5 -2.5e-4,9.7e-5 -3.3e-4,1.91e-4 -0.12789,0.161622 -0.25259,0.327588 -0.37385,0.497219 -7e-5,9.6e-5 -2.6e-4,9.5e-5 -3.3e-4,1.9e-4 -0.12126,0.16964 -0.23891,0.343243 -0.35322,0.52081 -6e-5,9.6e-5 -2.7e-4,9.2e-5 -3.3e-4,1.89e-4 -0.11431,0.177575 -0.22502,0.359118 -0.33207,0.544538 -6e-5,9.7e-5 -2.8e-4,9.3e-5 -3.3e-4,1.9e-4 l -2.451952,4.246916 -6.659397,-11.534414 c -0.129114,-0.223632 -0.26173,-0.444183 -0.396533,-0.662523 -0.02297,-0.03725 -0.04663,-0.07384 -0.06975,-0.110937 -0.114338,-0.183142 -0.230247,-0.364908 -0.348455,-0.544332 -0.02558,-0.03891 -0.05145,-0.07754 -0.07721,-0.116273 -0.121059,-0.181664 -0.243498,-0.361538 -0.368396,-0.539393 -0.01919,-0.02738 -0.03852,-0.05461 -0.0578,-0.0819 C 90.725944,45.589213 90.580287,45.388439 90.43201,45.190678 82.457566,34.554891 67.466345,31.264759 55.686331,38.065954 l -12.622445,7.287571 c 4.037844,-2.331251 8.453194,-3.475469 12.833916,-3.546232 0.01105,-1.8e-4 0.02209,-1.24e-4 0.03314,-2.9e-4 0.296707,-0.0044 0.593172,-0.0044 0.889425,10e-4 0.303043,0.0055 0.605816,0.01614 0.908111,0.03188 0.289325,0.01506 0.578036,0.03554 0.866432,0.05988 0.02347,0.002 0.04694,0.0037 0.07041,0.0058 0.579743,0.05047 1.157209,0.119645 1.73165,0.207252 0.02829,0.0043 0.05654,0.0089 0.0848,0.01327 0.281667,0.04387 0.56273,0.09142 0.842747,0.144124 0.296449,0.0558 0.591849,0.116522 0.886183,0.182158 0.280742,0.0626 0.560147,0.130185 0.838719,0.201672 0.02314,0.0059 0.0463,0.01177 0.06943,0.01777 0.553597,0.143622 1.102473,0.304933 1.646017,0.483283 0.04505,0.01478 0.09001,0.02977 0.134988,0.04478 0.256261,0.08558 0.511606,0.174068 0.765285,0.267299 0.0064,0.0023 0.01288,0.0045 0.01929,0.0068 0.273779,0.100851 0.545828,0.206562 0.81635,0.316268 0.02341,0.0095 0.04671,0.01923 0.07008,0.02879 0.239416,0.09787 0.477289,0.199623 0.713947,0.30439 0.04032,0.01784 0.08081,0.03523 0.121042,0.05327 0.510088,0.228802 1.013082,0.474088 1.508912,0.734684 0.05167,0.02715 0.103231,0.05454 0.154738,0.08203 0.222446,0.118765 0.44359,0.240315 0.662856,0.365442 0.02238,0.01277 0.04505,0.02496 0.0674,0.03779 0.240093,0.13793 0.477871,0.280285 0.713923,0.425807 0.04952,0.03053 0.09871,0.06161 0.148051,0.09246 0.196044,0.122629 0.390643,0.247772 0.583714,0.375635 0.04492,0.02975 0.09,0.05915 0.13476,0.08918 0.235479,0.158004 0.468997,0.319034 0.69978,0.484813 0.0062,0.0044 0.01217,0.0091 0.01833,0.01352 0.215918,0.155382 0.429051,0.315162 0.640661,0.477307 0.05178,0.03968 0.103432,0.07952 0.154952,0.119598 0.210178,0.163519 0.419001,0.329497 0.62466,0.499694 0.0068,0.0056 0.01347,0.01121 0.02023,0.01681 0.216016,0.179132 0.428709,0.362512 0.63952,0.548967 0.04815,0.04258 0.09573,0.08582 0.1436,0.128782 0.169066,0.151744 0.336656,0.305686 0.50218,0.462153 0.04406,0.04165 0.08834,0.0829 0.132143,0.124878 0.201017,0.192658 0.399743,0.388031 0.595251,0.587675 0.02859,0.02919 0.05644,0.05927 0.0849,0.0886 0.168794,0.173977 0.335311,0.350961 0.4998,0.530146 0.04711,0.05132 0.09413,0.102707 0.14089,0.154452 0.18175,0.201169 0.361352,0.404658 0.537545,0.612225 0.0059,0.0069 0.01204,0.01345 0.01788,0.02035 0.18057,0.213167 0.357498,0.43063 0.53202,0.650478 0.04817,0.06068 0.09544,0.122208 0.143137,0.183396 0.139217,0.178583 0.276435,0.359194 0.41158,0.542073 0.03642,0.04928 0.07324,0.09808 0.109363,0.147671 0.164214,0.225481 0.325561,0.453661 0.483448,0.685534 0.03711,0.0545 0.07297,0.110144 0.109724,0.164994 0.12753,0.190323 0.253107,0.382817 0.376285,0.577353 0.04009,0.06331 0.08029,0.126481 0.11991,0.190231 0.152202,0.244914 0.301958,0.491882 0.447126,0.743321 l 10.867022,18.822234 8.414868,14.574978 4.207173,-7.287341 10.86743,-18.822686 c 2.04458,-3.541319 5.4416,-5.658179 9.10991,-6.063408 -0.0588,-0.134033 -0.12072,-0.26673 -0.18464,-0.39874 -0.0261,-0.05384 -0.0525,-0.107548 -0.0794,-0.161034 -0.0683,-0.135823 -0.13862,-0.270771 -0.21234,-0.404219 -0.0198,-0.03595 -0.0408,-0.07144 -0.061,-0.107209 z" />
      <path
         id="rect830"
         style="color:#000000;font-style:normal;font-variant:normal;font-weight:normal;font-stretch:normal;font-size:medium;line-height:normal;font-family:sans-serif;font-variant-ligatures:normal;font-variant-position:normal;font-variant-caps:normal;font-variant-numeric:normal;font-variant-alternates:normal;font-variant-east-asian:normal;font-feature-settings:normal;font-variation-settings:normal;text-indent:0;text-align:start;text-decoration:none;text-decoration-line:none;text-decoration-style:solid;text-decoration-color:#000000;letter-spacing:normal;word-spacing:normal;text-transform:none;writing-mode:lr-tb;direction:ltr;text-orientation:mixed;dominant-baseline:auto;baseline-shift:baseline;text-anchor:start;white-space:normal;shape-padding:0;shape-margin:0;inline-size:0;clip-rule:nonzero;display:inline;overflow:visible;visibility:visible;opacity:1;isolation:auto;mix-blend-mode:normal;color-interpolation:sRGB;color-interpolation-filters:linearRGB;solid-color:#000000;solid-opacity:1;vector-effect:none;fill:url(#linearGradient948);fill-opacity:1;fill-rule:nonzero;stroke:none;stroke-width:1;stroke-linecap:round;stroke-linejoin:round;stroke-miterlimit:4;stroke-dasharray:none;stroke-dashoffset:0;stroke-opacity:1;color-rendering:auto;image-rendering:auto;shape-rendering:auto;text-rendering:auto;enable-background:accumulate;stop-color:#000000;stop-opacity:1"
         d="m 134.88689,47.779635 c -2.26131,-3.916352 -5.538,-7.30578 -9.70881,-9.713797 -11.78011,-6.801247 -26.771676,-3.511159 -34.74607,7.12484 0.630255,0.840591 1.218021,1.725559 1.755549,2.656584 l 6.659398,11.534415 2.451953,-4.246916 c 3.42745,-5.936521 10.65487,-7.873812 16.59139,-4.446359 5.93652,3.42745 7.87334,10.655587 4.4459,16.592106 l -31.904161,55.259442 8.415058,14.57531 36.111663,-62.546976 c 4.9307,-8.540227 4.55842,-18.769452 -0.0719,-26.788649 z M 79.565114,55.134834 C 72.226394,42.423797 55.774925,38.014803 43.063886,45.353525 30.352852,52.692244 25.944427,69.144704 33.283147,81.85574 l 40.319061,69.83466 8.414868,14.57498 16.829878,-8e-5 L 90.432087,151.69032 45.905592,74.568168 C 42.478141,68.631649 44.41494,61.40342 50.351458,57.97597 56.28798,54.548517 63.515219,56.485886 66.94267,62.422406 l 6.659588,11.534745 4.207434,7.287489 4.207434,7.28749 16.829879,-8e-5 -8.414868,-14.574982 z" />
    </g>
  </g>
</svg>
