<?xml version="1.0" encoding="UTF-8" standalone="no"?>
<svg
   xmlns:dc="http://purl.org/dc/elements/1.1/"
   xmlns:cc="http://creativecommons.org/ns#"
   xmlns:rdf="http://www.w3.org/1999/02/22-rdf-syntax-ns#"
   xmlns:svg="http://www.w3.org/2000/svg"
   xmlns="http://www.w3.org/2000/svg"
   xmlns:xlink="http://www.w3.org/1999/xlink"
   xmlns:sodipodi="http://sodipodi.sourceforge.net/DTD/sodipodi-0.dtd"
   xmlns:inkscape="http://www.inkscape.org/namespaces/inkscape"
   sodipodi:docname="Helix.svg"
   inkscape:version="1.0 (9f2f71dc58, 2020-08-02)"
   id="svg8"
   version="1.1"
   viewBox="0 0 210 297"
   height="1122.5197"
   width="793.70081">
  <defs
     id="defs2">
    <linearGradient
       id="linearGradient1171"
       inkscape:collect="always">
      <stop
         id="stop1167"
         offset="0"
         style="stop-color:#080f5e;stop-opacity:1;" />
      <stop
         id="stop1169"
         offset="1"
         style="stop-color:#1c2d91;stop-opacity:1" />
    </linearGradient>
    <linearGradient
       inkscape:collect="always"
       id="linearGradient1154">
      <stop
         style="stop-color:#00ffff;stop-opacity:1;"
         offset="0"
         id="stop1150" />
      <stop
         style="stop-color:#0000ff;stop-opacity:1"
         offset="1"
         id="stop1152" />
    </linearGradient>
    <linearGradient
       inkscape:collect="always"
       id="linearGradient1148">
      <stop
         style="stop-color:#00ffff;stop-opacity:1;"
         offset="0"
         id="stop1144" />
      <stop
         style="stop-color:#0000ff;stop-opacity:1"
         offset="1"
         id="stop1146" />
    </linearGradient>
    <linearGradient
       inkscape:collect="always"
       id="linearGradient1142">
      <stop
         style="stop-color:#00ffff;stop-opacity:1;"
         offset="0"
         id="stop1138" />
      <stop
         style="stop-color:#0000ff;stop-opacity:1"
         offset="1"
         id="stop1140" />
    </linearGradient>
    <linearGradient
       id="linearGradient1128"
       inkscape:collect="always">
      <stop
         id="stop1124"
         offset="0"
         style="stop-color:#00ffff;stop-opacity:1;" />
      <stop
         id="stop1126"
         offset="1"
         style="stop-color:#0000ff;stop-opacity:1" />
    </linearGradient>
    <linearGradient
       id="linearGradient1061"
       inkscape:collect="always">
      <stop
         id="stop1057"
         offset="0"
         style="stop-color:#ff0033;stop-opacity:1;" />
      <stop
         id="stop1059"
         offset="1"
         style="stop-color:#ffcc00;stop-opacity:1" />
    </linearGradient>
    <linearGradient
       gradientTransform="matrix(0,-0.46019873,0.46019873,0,82.925777,127.78267)"
       gradientUnits="userSpaceOnUse"
       y2="28.687393"
       x2="20.772387"
       y1="55.282959"
       x1="9.7932739"
       id="linearGradient1063"
       xlink:href="#linearGradient1061"
       inkscape:collect="always" />
    <linearGradient
       gradientTransform="matrix(0,-0.12176091,0.12176091,0,82.925777,127.78267)"
       gradientUnits="userSpaceOnUse"
       y2="282.80103"
       x2="310.44595"
       y1="160.60176"
       x1="169.57071"
       id="linearGradient1071"
       xlink:href="#linearGradient1061"
       inkscape:collect="always" />
    <linearGradient
       gradientTransform="matrix(0,-0.12176091,0.12176091,0,82.925777,127.78267)"
       gradientUnits="userSpaceOnUse"
       y2="104.15612"
       x2="503.7644"
       y1="313.73053"
       x1="335.99756"
       id="linearGradient1079"
       xlink:href="#linearGradient1061"
       inkscape:collect="always" />
    <linearGradient
       gradientTransform="matrix(0,-0.12176091,0.12176091,0,82.926231,80.064705)"
       y2="282.80103"
       x2="310.44595"
       y1="160.60176"
       x1="169.57071"
       gradientUnits="userSpaceOnUse"
       id="linearGradient1092"
       xlink:href="#linearGradient1061"
       inkscape:collect="always" />
    <linearGradient
       gradientTransform="matrix(0,-0.46019873,0.46019873,0,82.925777,127.78267)"
       gradientUnits="userSpaceOnUse"
       y2="55.282864"
       x2="217.04419"
       y1="98.684464"
       x1="187.94279"
       id="linearGradient1100"
       xlink:href="#linearGradient1061"
       inkscape:collect="always" />
    <linearGradient
       gradientUnits="userSpaceOnUse"
       y2="60.177647"
       x2="106.37902"
       y1="60.177645"
       x1="95.604972"
       id="linearGradient1130"
       xlink:href="#linearGradient1154"
       inkscape:collect="always" />
    <linearGradient
       gradientUnits="userSpaceOnUse"
       y2="107.89554"
       x2="104.96381"
       y1="107.89554"
       x1="95.604995"
       id="linearGradient1132"
       xlink:href="#linearGradient1148"
       inkscape:collect="always" />
    <linearGradient
       gradientUnits="userSpaceOnUse"
       y2="49.371307"
       x2="121.50885"
       y1="49.371307"
       x1="114.9913"
       id="linearGradient1134"
       xlink:href="#linearGradient1142"
       inkscape:collect="always" />
    <linearGradient
       gradientUnits="userSpaceOnUse"
       y2="97.089211"
       x2="118.98777"
       y1="97.089211"
       x1="115.5182"
       id="linearGradient1136"
       xlink:href="#linearGradient1128"
       inkscape:collect="always" />
    <linearGradient
       gradientTransform="translate(-30.874424,-3.6078709)"
       gradientUnits="userSpaceOnUse"
       y2="107.28133"
       x2="-1.4362307"
       y1="107.28133"
       x1="-122.64947"
       id="linearGradient1173"
       xlink:href="#linearGradient1171"
       inkscape:collect="always" />
  </defs>
  <sodipodi:namedview
     inkscape:window-maximized="1"
     inkscape:window-y="27"
     inkscape:window-x="74"
     inkscape:window-height="1016"
     inkscape:window-width="1846"
     inkscape:snap-nodes="true"
     units="px"
     inkscape:object-paths="true"
     showborder="true"
     showgrid="false"
     inkscape:document-rotation="0"
     inkscape:current-layer="layer1"
     inkscape:document-units="mm"
     inkscape:cy="140.03599"
     inkscape:cx="411.03474"
     inkscape:zoom="1.1579732"
     inkscape:pageshadow="2"
     inkscape:pageopacity="0.0"
     borderopacity="1.0"
     bordercolor="#666666"
     pagecolor="#ffffff"
     id="base" />
  <metadata
     id="metadata5">
    <rdf:RDF>
      <cc:Work
         rdf:about="">
        <dc:format>image/svg+xml</dc:format>
        <dc:type
           rdf:resource="http://purl.org/dc/dcmitype/StillImage" />
        <dc:title></dc:title>
      </cc:Work>
    </rdf:RDF>
  </metadata>
  <g
     id="layer1"
     inkscape:groupmode="layer"
     inkscape:label="Layer 1">
    <rect
       transform="rotate(-90)"
       y="74.506035"
       x="-186.74524"
       height="60.056435"
       width="148.229"
       id="rect1102"
       style="opacity:1;fill:url(#linearGradient1173);fill-opacity:1;fill-rule:evenodd;stroke-width:0.121952;stroke-linecap:square" />
    <g
       transform="translate(-3.8329425,33.997262)"
       id="g1165">
      <path
         id="path870"
         style="fill:url(#linearGradient1071);fill-opacity:1;fill-rule:evenodd;stroke-width:0.128402"
         d="m 95.605083,107.92446 a 28.68416,14.34208 0 0 0 0.0028,0.17694 v 12.64482 A 28.68416,14.34208 0 0 1 108.36691,109.01889 28.68416,14.34208 0 0 0 121.1254,97.302965 h 4.9e-4 v -0.0071 a 28.68416,14.34208 0 0 0 0.003,-0.16005 v -0.07539 a 28.68416,14.34208 0 0 0 -0.003,-0.176933 V 84.238638 A 28.68416,14.34208 0 0 1 108.36691,95.965973 28.68416,14.34208 0 0 0 95.608413,107.68189 h -4.87e-4 v 0.007 a 28.68416,14.34208 0 0 0 -0.0028,0.16005 z m 0.0028,13.2377 h 2.43e-4 a 28.68416,14.34208 0 0 1 -2.43e-4,-0.007 z M 121.12565,83.8227 a 28.68416,14.34208 0 0 1 2.4e-4,0.0074 v -0.0074 z" />
      <path
         id="ellipse849"
         style="fill:url(#linearGradient1132);fill-opacity:1;fill-rule:evenodd;stroke-width:0.128402"
         d="m 95.605032,107.94186 a 28.684161,14.342081 0 0 0 12.761838,11.88338 37.920277,18.960139 0 0 1 -8.447263,-11.92969 37.920277,18.960139 0 0 1 8.447263,-11.929702 28.684161,14.342081 0 0 0 -12.761838,11.929702 28.684161,14.342081 0 0 0 0,0.0463 z" />
      <path
         id="ellipse856"
         style="fill:url(#linearGradient1063);fill-opacity:1;fill-rule:evenodd;stroke-width:0.128402"
         d="m 95.60509,120.99492 a 28.684161,14.34208 0 0 0 0.0029,0.16005 v 0.007 h 5.06e-4 a 28.684161,14.34208 0 0 0 12.758474,11.71593 v -13.05292 a 28.684161,14.34208 0 0 1 -12.758973,-11.7271 v 12.64483 a 28.684161,14.34208 0 0 0 -0.0029,0.1767 z m 0.0029,-13.30571 a 28.684161,14.34208 0 0 1 2.44e-4,-0.007 h -2.44e-4 z" />
      <path
         d="m 121.1288,97.042899 a 28.684161,14.342081 0 0 0 -12.76184,-11.883388 37.920277,18.960139 0 0 1 8.44726,11.929698 37.920277,18.960139 0 0 1 -8.44726,11.929701 28.684161,14.342081 0 0 0 12.76184,-11.929701 28.684161,14.342081 0 0 0 0,-0.04631 z"
         style="fill:url(#linearGradient1136);fill-opacity:1;fill-rule:evenodd;stroke-width:0.128402"
         id="path1013" />
      <path
         d="m 95.605537,60.206499 a 28.684161,14.34208 0 0 0 0.0029,0.176933 v 12.644825 a 28.684161,14.34208 0 0 1 12.758973,-11.727336 28.684161,14.34208 0 0 0 12.7585,-11.715919 h 5.1e-4 v -0.0071 a 28.684161,14.34208 0 0 0 0.003,-0.160048 v -0.07539 a 28.684161,14.34208 0 0 0 -0.003,-0.176933 V 36.520678 a 28.684161,14.34208 0 0 1 -12.759,11.727332 28.684161,14.34208 0 0 0 -12.758506,11.715919 h -5.06e-4 v 0.0071 a 28.684161,14.34208 0 0 0 -0.0029,0.160048 z m 0.0029,13.237695 h 2.44e-4 a 28.684161,14.34208 0 0 1 -2.44e-4,-0.0074 z M 121.12616,36.104737 a 28.684161,14.34208 0 0 1 2.4e-4,0.0074 v -0.0074 z"
         style="fill:url(#linearGradient1092);fill-opacity:1;fill-rule:evenodd;stroke-width:0.128402"
         id="path1090" />
      <path
         id="path1015"
         style="fill:url(#linearGradient1079);fill-opacity:1;fill-rule:evenodd;stroke-width:0.128402"
         d="m 95.605083,73.277065 a 28.68416,14.34208 0 0 0 0.0028,0.160048 v 0.0069 h 4.87e-4 a 28.68416,14.34208 0 0 0 12.7585,11.715921 28.68416,14.34208 0 0 1 12.75897,11.727098 V 84.242201 a 28.68416,14.34208 0 0 0 0.003,-0.176697 v -0.07563 a 28.68416,14.34208 0 0 0 -0.003,-0.160048 v -0.0069 h -4.9e-4 A 28.68416,14.34208 0 0 0 108.36691,72.107018 28.68416,14.34208 0 0 1 95.607932,60.37992 v 12.644823 a 28.68416,14.34208 0 0 0 -0.0028,0.176697 z m 0.0028,-13.30571 a 28.68416,14.34208 0 0 1 2.43e-4,-0.0074 h -2.43e-4 z m 25.517717,37.33161 h 2.4e-4 v -0.0074 a 28.68416,14.34208 0 0 1 -2.4e-4,0.0074 z" />
      <path
         d="m 95.605009,60.223955 a 28.684161,14.342081 0 0 0 12.761841,11.883389 37.920277,18.960139 0 0 1 -8.447265,-11.929699 37.920277,18.960139 0 0 1 8.447265,-11.929699 28.684161,14.342081 0 0 0 -12.761841,11.929699 28.684161,14.342081 0 0 0 0,0.04631 z"
         style="fill:url(#linearGradient1130);fill-opacity:1;fill-rule:evenodd;stroke-width:0.128402"
         id="path1029" />
      <path
         id="path1037"
         style="fill:url(#linearGradient1134);fill-opacity:1;fill-rule:evenodd;stroke-width:0.128402"
         d="m 121.12877,49.324999 a 28.684161,14.342081 0 0 0 -12.76183,-11.883389 37.920277,18.960139 0 0 1 8.44726,11.929699 37.920277,18.960139 0 0 1 -8.44726,11.929699 28.684161,14.342081 0 0 0 12.76183,-11.929699 28.684161,14.342081 0 0 0 0,-0.04631 z" />
      <path
         id="path1039"
         style="fill:url(#linearGradient1100);fill-opacity:1;fill-rule:evenodd;stroke-width:0.128402"
         d="m 121.12872,36.271932 a 28.684161,14.34208 0 0 0 -0.003,-0.160048 v -0.0069 h -5e-4 A 28.684161,14.34208 0 0 0 108.36688,24.389057 v 13.052912 a 28.684161,14.34208 0 0 1 12.75898,11.727096 V 36.52424 a 28.684161,14.34208 0 0 0 0.003,-0.176698 z m -0.003,13.305707 a 28.684161,14.34208 0 0 1 -2.4e-4,0.0074 h 2.4e-4 z" />
    </g>
  </g>
</svg>
