<?xml version="1.0" encoding="UTF-8" standalone="no"?>
<svg
   xmlns:dc="http://purl.org/dc/elements/1.1/"
   xmlns:cc="http://creativecommons.org/ns#"
   xmlns:rdf="http://www.w3.org/1999/02/22-rdf-syntax-ns#"
   xmlns:svg="http://www.w3.org/2000/svg"
   xmlns="http://www.w3.org/2000/svg"
   xmlns:xlink="http://www.w3.org/1999/xlink"
   xmlns:sodipodi="http://sodipodi.sourceforge.net/DTD/sodipodi-0.dtd"
   xmlns:inkscape="http://www.inkscape.org/namespaces/inkscape"
   sodipodi:docname="House.svg"
   inkscape:version="1.0 (6e3e5246a0, 2020-05-07)"
   id="svg8"
   version="1.1"
   viewBox="0 0 210 297"
   height="297mm"
   width="210mm">
  <defs
     id="defs2">
    <linearGradient
       id="linearGradient3999"
       inkscape:collect="always">
      <stop
         id="stop3995"
         offset="0"
         style="stop-color:#ffcc00;stop-opacity:1" />
      <stop
         id="stop3997"
         offset="1"
         style="stop-color:#fff6d5;stop-opacity:1" />
    </linearGradient>
    <linearGradient
       gradientUnits="userSpaceOnUse"
       y2="104.77463"
       x2="37.117569"
       y1="162.45749"
       x1="88.219841"
       id="linearGradient4001"
       xlink:href="#linearGradient3999"
       inkscape:collect="always" />
  </defs>
  <sodipodi:namedview
     inkscape:window-maximized="1"
     inkscape:window-y="27"
     inkscape:window-x="74"
     inkscape:window-height="1016"
     inkscape:window-width="1846"
     inkscape:snap-nodes="false"
     inkscape:snap-object-midpoints="false"
     inkscape:snap-center="false"
     inkscape:snap-smooth-nodes="true"
     inkscape:snap-intersection-paths="true"
     inkscape:object-paths="true"
     inkscape:object-nodes="true"
     showgrid="false"
     inkscape:document-rotation="0"
     inkscape:current-layer="layer1"
     inkscape:document-units="mm"
     inkscape:cy="534.17586"
     inkscape:cx="400"
     inkscape:zoom="1"
     inkscape:pageshadow="2"
     inkscape:pageopacity="0.0"
     borderopacity="1.0"
     bordercolor="#666666"
     pagecolor="#ffffff"
     id="base" />
  <metadata
     id="metadata5">
    <rdf:RDF>
      <cc:Work
         rdf:about="">
        <dc:format>image/svg+xml</dc:format>
        <dc:type
           rdf:resource="http://purl.org/dc/dcmitype/StillImage" />
        <dc:title></dc:title>
      </cc:Work>
    </rdf:RDF>
  </metadata>
  <g
     id="layer1"
     inkscape:groupmode="layer"
     inkscape:label="Layer 1">
    <path
       id="path3991"
       d="m 107.4429,218.55561 v -32.8678 L 57.645846,163.25884 v 26.37763 z"
       style="fill:#72ffff;fill-opacity:1;stroke:none;stroke-width:0.264583px;stroke-linecap:butt;stroke-linejoin:miter;stroke-opacity:1" />
    <path
       id="path3993"
       d="m 107.4429,218.55561 49.79706,-28.91914 v -27.18281 l -49.79706,23.23415 z"
       style="fill:#00ffff;fill-opacity:1;stroke:none;stroke-width:0.264583px;stroke-linecap:butt;stroke-linejoin:miter;stroke-opacity:1" />
    <g
       inkscape:transform-center-y="-9.2042489"
       inkscape:transform-center-x="1.8395278"
       style="fill:#000000;fill-opacity:1"
       transform="matrix(-1,-0.53589838,0,1,127.41907,15.727409)"
       id="g3932">
      <path
         sodipodi:nodetypes="ccccc"
         d="M -26.626249,59.176495 -9.80458,57.214656 v 55.286324 l -16.821669,1.96184 z"
         style="fill:#000000;fill-opacity:1;fill-rule:evenodd;stroke-width:0.264583"
         id="rect3914" />
      <path
         id="path4065"
         style="fill:#000000;fill-opacity:1;fill-rule:evenodd;stroke-width:0.264583"
         d="M -26.626249,59.176495 -9.80458,57.214656 v 55.286324 l -16.821669,1.96184 z"
         sodipodi:nodetypes="ccccc" />
    </g>
    <g
       inkscape:transform-center-y="-9.2042479"
       inkscape:transform-center-x="-1.5107619"
       style="fill:#000000;fill-opacity:1;stroke-width:1.10346"
       transform="matrix(0.82126986,-0.53589838,0,1,111.57302,14.566312)"
       id="g4063">
      <rect
         style="fill:#000000;fill-opacity:1;fill-rule:evenodd;stroke-width:0.291957"
         id="rect4061"
         width="20.482512"
         height="46.006332"
         x="10.750382"
         y="80.367668" />
    </g>
    <path
       id="path4073"
       style="opacity:1;fill:#b3b3b3;fill-rule:evenodd;stroke-width:0.264583"
       d="m 134.46188,79.988373 a 5.7020377,6.1607027 74.693295 0 0 -4.38622,7.112174 5.7020377,6.1607027 74.693295 0 0 -4.43709,7.126091 5.7020377,6.1607027 74.693295 0 0 7.44756,3.873329 5.7020377,6.1607027 74.693295 0 0 7.44756,3.873323 5.7020377,6.1607027 74.693295 0 0 4.43658,-7.125952 5.7020377,6.1607027 74.693295 0 0 4.43707,-7.126089 5.7020377,6.1607027 74.693295 0 0 -7.44755,-3.873328 5.7020377,6.1607027 74.693295 0 0 -7.44707,-3.873463 5.7020377,6.1607027 74.693295 0 0 -0.0508,0.01391 z" />
    <g
       id="g4058"
       transform="matrix(-0.82126986,-0.53589838,0,1,146.05262,25.542857)"
       style="fill:#ff2424;fill-opacity:1;stroke-width:1.10346"
       inkscape:transform-center-x="1.5107536"
       inkscape:transform-center-y="-9.2042479">
      <rect
         y="80.367668"
         x="10.750382"
         height="46.006332"
         width="20.482512"
         id="rect4056"
         style="fill:#ff2424;fill-opacity:1;fill-rule:evenodd;stroke-width:0.291957" />
    </g>
    <path
       id="path3965"
       style="fill:#b3b3b3;fill-rule:evenodd;stroke-width:0.264583;opacity:1"
       d="m 132.82679,42.539128 a 5.7020377,6.1607027 74.693295 0 0 -4.38623,7.112175 5.7020377,6.1607027 74.693295 0 0 -4.43708,7.12609 5.7020377,6.1607027 74.693295 0 0 7.44756,3.873327 5.7020377,6.1607027 74.693295 0 0 7.44756,3.873326 5.7020377,6.1607027 74.693295 0 0 4.43658,-7.125953 5.7020377,6.1607027 74.693295 0 0 4.43707,-7.126089 5.7020377,6.1607027 74.693295 0 0 -7.44755,-3.873328 5.7020377,6.1607027 74.693295 0 0 -7.44707,-3.873463 5.7020377,6.1607027 74.693295 0 0 -0.0508,0.01391 z" />
    <path
       id="path3967"
       style="fill:#b3b3b3;fill-rule:evenodd;stroke-width:0.264583;opacity:1"
       d="m 147.13271,61.309972 a 5.7020377,6.1607027 74.693295 0 0 -4.38623,7.112174 5.7020377,6.1607027 74.693295 0 0 -4.43708,7.126091 5.7020377,6.1607027 74.693295 0 0 7.44756,3.873327 5.7020377,6.1607027 74.693295 0 0 7.44756,3.873326 5.7020377,6.1607027 74.693295 0 0 4.43658,-7.125953 5.7020377,6.1607027 74.693295 0 0 4.43707,-7.126089 5.7020377,6.1607027 74.693295 0 0 -7.44755,-3.873328 5.7020377,6.1607027 74.693295 0 0 -7.44707,-3.873463 5.7020377,6.1607027 74.693295 0 0 -0.0508,0.01391 z" />
    <path
       d="m 120.42313,61.880306 a 5.7020377,6.1607027 74.693295 0 0 -4.38622,7.112174 5.7020377,6.1607027 74.693295 0 0 -4.43709,7.126091 5.7020377,6.1607027 74.693295 0 0 7.44756,3.873329 5.7020377,6.1607027 74.693295 0 0 7.44756,3.873322 5.7020377,6.1607027 74.693295 0 0 4.43658,-7.125951 5.7020377,6.1607027 74.693295 0 0 4.43707,-7.126089 5.7020377,6.1607027 74.693295 0 0 -7.44755,-3.873328 5.7020377,6.1607027 74.693295 0 0 -7.44707,-3.873463 5.7020377,6.1607027 74.693295 0 0 -0.0508,0.01391 z"
       style="fill:#b3b3b3;fill-rule:evenodd;stroke-width:0.264583;opacity:1"
       id="path3952" />
    <path
       sodipodi:nodetypes="ccccc"
       style="fill:#371818;fill-opacity:1;stroke:none;stroke-width:0.264583px;stroke-linecap:butt;stroke-linejoin:miter;stroke-opacity:1"
       d="m 92.146648,209.36762 -0.09891,-21.44982 -19.10564,-11.3743 v 21.88571 z"
       id="path4005" />
    <g
       id="g4071"
       transform="matrix(1,-0.53589838,0,1,163.8499,26.703954)"
       style="fill:#ff0000;fill-opacity:1"
       inkscape:transform-center-x="-1.8395356"
       inkscape:transform-center-y="-9.2042489">
      <path
         id="path4067"
         style="fill:#ff0000;fill-opacity:1;fill-rule:evenodd;stroke-width:0.264583"
         d="M -26.626249,59.176495 -9.80458,57.214656 v 55.286324 l -16.821669,1.96184 z"
         sodipodi:nodetypes="ccccc" />
      <path
         sodipodi:nodetypes="ccccc"
         d="M -26.626249,59.176495 -9.80458,57.214656 v 55.286324 l -16.821669,1.96184 z"
         style="fill:#ff0000;fill-opacity:1;fill-rule:evenodd;stroke-width:0.264583"
         id="path4069" />
    </g>
    <path
       id="path3907"
       d="M 107.4429,188.8371 173.65629,154.98205 108.05774,92.394282 41.229511,156.15529 Z"
       style="fill:url(#linearGradient4001);fill-opacity:1;stroke:none;stroke-width:0.264583px;stroke-linecap:butt;stroke-linejoin:miter;stroke-opacity:1" />
    <path
       id="path4007"
       d="m 53.737548,209.36762 0.09891,-21.44982 19.10564,-11.3743 v 21.88571 z"
       style="fill:#0000ff;fill-opacity:1;stroke:none;stroke-width:0.264583px;stroke-linecap:butt;stroke-linejoin:miter;stroke-opacity:1"
       sodipodi:nodetypes="ccccc" />
  </g>
</svg>
