<?xml version="1.0" encoding="UTF-8" standalone="no"?>
<svg
   xmlns:dc="http://purl.org/dc/elements/1.1/"
   xmlns:cc="http://creativecommons.org/ns#"
   xmlns:rdf="http://www.w3.org/1999/02/22-rdf-syntax-ns#"
   xmlns:svg="http://www.w3.org/2000/svg"
   xmlns="http://www.w3.org/2000/svg"
   xmlns:sodipodi="http://sodipodi.sourceforge.net/DTD/sodipodi-0.dtd"
   xmlns:inkscape="http://www.inkscape.org/namespaces/inkscape"
   sodipodi:docname="Infinite.svg"
   inkscape:version="1.0 (6e3e5246a0, 2020-05-07)"
   id="svg8"
   version="1.1"
   viewBox="0 0 210 297"
   height="1122.5197"
   width="793.70081">
  <defs
     id="defs2" />
  <sodipodi:namedview
     inkscape:window-maximized="1"
     inkscape:window-y="27"
     inkscape:window-x="74"
     inkscape:window-height="1016"
     inkscape:window-width="1846"
     inkscape:snap-nodes="false"
     inkscape:snap-intersection-paths="true"
     inkscape:object-paths="true"
     units="px"
     showborder="true"
     showgrid="false"
     inkscape:document-rotation="0"
     inkscape:current-layer="layer1"
     inkscape:document-units="mm"
     inkscape:cy="451.51203"
     inkscape:cx="312.53149"
     inkscape:zoom="1"
     inkscape:pageshadow="2"
     inkscape:pageopacity="0.0"
     borderopacity="1.0"
     bordercolor="#666666"
     pagecolor="#ffffff"
     id="base" />
  <metadata
     id="metadata5">
    <rdf:RDF>
      <cc:Work
         rdf:about="">
        <dc:format>image/svg+xml</dc:format>
        <dc:type
           rdf:resource="http://purl.org/dc/dcmitype/StillImage" />
        <dc:title></dc:title>
      </cc:Work>
    </rdf:RDF>
  </metadata>
  <g
     id="layer1"
     inkscape:groupmode="layer"
     inkscape:label="Layer 1">
    <g
       transform="rotate(45,88.595297,131.00849)"
       id="g998">
      <g
         id="g887"
         style="opacity:1"
         transform="rotate(-45,82.823238,110.74232)">
        <g
           style="opacity:1"
           id="g875">
          <path
             id="path877"
             d="m 40.131758,78.52913 c -8.66087,1e-6 -17.322033,3.137826 -23.909081,9.414256 -13.1741026,12.552854 -13.1741042,33.010364 0,45.563214 13.174103,12.55285 34.644055,12.55284 47.818163,0 5.894458,-5.61649 15.475276,-14.74551 21.345723,-20.33913 1.415725,-1.34893 1.415725,-3.53602 0,-4.88495 C 78.904338,102.10597 69.935301,93.559889 64.04084,87.943386 57.453788,81.666959 48.792629,78.52913 40.131758,78.52913 Z m 0,6.864694 c 6.790396,0 13.580496,2.477959 18.782363,7.434525 5.186605,4.94202 12.623593,12.028301 18.782363,17.896651 -5.855741,5.5796 -13.595756,12.95461 -18.782363,17.89664 -10.403741,9.91312 -27.160989,9.91313 -37.564725,0 -10.403734,-9.91312 -10.403733,-25.88017 0,-35.793291 5.201864,-4.956568 11.991967,-7.434524 18.782362,-7.434525 z"
             style="color:#000000;font-style:normal;font-variant:normal;font-weight:normal;font-stretch:normal;font-size:medium;line-height:normal;font-family:sans-serif;font-variant-ligatures:normal;font-variant-position:normal;font-variant-caps:normal;font-variant-numeric:normal;font-variant-alternates:normal;font-variant-east-asian:normal;font-feature-settings:normal;font-variation-settings:normal;text-indent:0;text-align:start;text-decoration:none;text-decoration-line:none;text-decoration-style:solid;text-decoration-color:#000000;letter-spacing:normal;word-spacing:normal;text-transform:none;writing-mode:lr-tb;direction:ltr;text-orientation:mixed;dominant-baseline:auto;baseline-shift:baseline;text-anchor:start;white-space:normal;shape-padding:0;shape-margin:0;inline-size:0;clip-rule:nonzero;display:inline;overflow:visible;visibility:visible;isolation:auto;mix-blend-mode:normal;color-interpolation:sRGB;color-interpolation-filters:linearRGB;solid-color:#000000;solid-opacity:1;vector-effect:none;fill:#ff0000;fill-opacity:1;fill-rule:evenodd;stroke:none;stroke-width:15.0813;stroke-linecap:round;stroke-linejoin:round;stroke-miterlimit:4;stroke-dasharray:none;stroke-dashoffset:0;stroke-opacity:1;color-rendering:auto;image-rendering:auto;shape-rendering:auto;text-rendering:auto;enable-background:accumulate;stop-color:#000000;stop-opacity:1" />
          <path
             id="path879"
             d="m 40.130859,70.988281 c -10.482183,10e-7 -21.04108,3.808267 -29.109375,11.496094 -16.1362883,15.375353 -16.1362919,41.105115 0,56.480465 16.13629,15.37535 42.084412,15.37534 58.220704,0 5.894461,-5.61649 15.475254,-14.74427 21.345703,-20.33789 4.362738,-4.1569 4.362738,-11.64582 0,-15.80273 C 84.105662,96.647665 75.136644,88.100874 69.242188,82.484375 61.173892,74.796555 50.613046,70.988281 40.130859,70.988281 Z m 0,21.945313 c 4.955901,0 9.844045,1.791799 13.582032,5.353515 3.60458,3.434601 8.458757,8.060161 13.052734,12.437501 -4.581546,4.36549 -9.448148,9.00289 -13.052734,12.4375 -7.476118,7.12356 -19.686,7.12356 -27.16211,0 -7.476101,-7.12355 -7.476101,-17.75145 0,-24.875001 3.737981,-3.561714 8.624176,-5.353515 13.580078,-5.353515 z"
             style="color:#000000;font-style:normal;font-variant:normal;font-weight:normal;font-stretch:normal;font-size:medium;line-height:normal;font-family:sans-serif;font-variant-ligatures:normal;font-variant-position:normal;font-variant-caps:normal;font-variant-numeric:normal;font-variant-alternates:normal;font-variant-east-asian:normal;font-feature-settings:normal;font-variation-settings:normal;text-indent:0;text-align:start;text-decoration:none;text-decoration-line:none;text-decoration-style:solid;text-decoration-color:#000000;letter-spacing:normal;word-spacing:normal;text-transform:none;writing-mode:lr-tb;direction:ltr;text-orientation:mixed;dominant-baseline:auto;baseline-shift:baseline;text-anchor:start;white-space:normal;shape-padding:0;shape-margin:0;inline-size:0;clip-rule:nonzero;display:inline;overflow:visible;visibility:visible;isolation:auto;mix-blend-mode:normal;color-interpolation:sRGB;color-interpolation-filters:linearRGB;solid-color:#000000;solid-opacity:1;vector-effect:none;fill:#ff0000;fill-opacity:1;fill-rule:evenodd;stroke:none;stroke-width:15.0813;stroke-linecap:round;stroke-linejoin:round;stroke-miterlimit:4;stroke-dasharray:none;stroke-dashoffset:0;stroke-opacity:1;color-rendering:auto;image-rendering:auto;shape-rendering:auto;text-rendering:auto;enable-background:accumulate;stop-color:#000000;stop-opacity:1" />
        </g>
        <g
           style="opacity:1"
           id="g869">
          <path
             id="path871"
             d="m 125.51464,78.52913 c -8.66087,0 -17.32202,3.137835 -23.90908,9.414256 -5.894455,5.616493 -15.475272,14.745514 -21.345717,20.339134 -1.415725,1.34893 -1.415725,3.53602 0,4.88495 6.482225,6.17654 15.451262,14.72263 21.345717,20.33913 13.17411,12.55285 34.64407,12.55286 47.81817,0 13.1741,-12.55285 13.17409,-33.01036 0,-45.563214 -6.58705,-6.276425 -15.24822,-9.414255 -23.90909,-9.414256 z m 0,6.864694 c 6.7904,1e-6 13.5805,2.477959 18.78236,7.434525 10.40374,9.913121 10.40374,25.880181 0,35.793291 -10.40372,9.91313 -27.16098,9.91313 -37.56471,0 -5.18661,-4.94202 -12.623599,-12.02831 -18.782367,-17.89664 5.855739,-5.57961 13.595747,-12.954621 18.782367,-17.896651 5.20186,-4.956564 11.99196,-7.434525 18.78235,-7.434525 z"
             style="color:#000000;font-style:normal;font-variant:normal;font-weight:normal;font-stretch:normal;font-size:medium;line-height:normal;font-family:sans-serif;font-variant-ligatures:normal;font-variant-position:normal;font-variant-caps:normal;font-variant-numeric:normal;font-variant-alternates:normal;font-variant-east-asian:normal;font-feature-settings:normal;font-variation-settings:normal;text-indent:0;text-align:start;text-decoration:none;text-decoration-line:none;text-decoration-style:solid;text-decoration-color:#000000;letter-spacing:normal;word-spacing:normal;text-transform:none;writing-mode:lr-tb;direction:ltr;text-orientation:mixed;dominant-baseline:auto;baseline-shift:baseline;text-anchor:start;white-space:normal;shape-padding:0;shape-margin:0;inline-size:0;clip-rule:nonzero;display:inline;overflow:visible;visibility:visible;isolation:auto;mix-blend-mode:normal;color-interpolation:sRGB;color-interpolation-filters:linearRGB;solid-color:#000000;solid-opacity:1;vector-effect:none;fill:#ff0000;fill-opacity:1;fill-rule:evenodd;stroke:none;stroke-width:15.0813;stroke-linecap:round;stroke-linejoin:round;stroke-miterlimit:4;stroke-dasharray:none;stroke-dashoffset:0;stroke-opacity:1;color-rendering:auto;image-rendering:auto;shape-rendering:auto;text-rendering:auto;enable-background:accumulate;stop-color:#000000;stop-opacity:1" />
          <path
             id="path873"
             d="m 125.51367,70.988281 c -10.48219,0 -21.04108,3.80829 -29.109373,11.496094 -5.894456,5.616494 -15.475256,14.746222 -21.345703,20.339845 -4.362739,4.15691 -4.362739,11.64583 0,15.80273 6.482222,6.17654 15.451251,14.7214 21.345703,20.33789 16.136293,15.37535 42.084413,15.37537 58.220703,0 16.13629,-15.37535 16.13627,-41.105112 0,-56.480465 -8.0683,-7.687821 -18.62914,-11.496093 -29.11133,-11.496094 z m 0,21.945313 c 4.95591,0 9.84406,1.791803 13.58203,5.353515 7.47611,7.123551 7.4761,17.751461 0,24.875001 -7.47609,7.12355 -19.686,7.12356 -27.16211,0 -3.60458,-3.4346 -8.45875,-8.06016 -13.052731,-12.4375 4.581541,-4.36549 9.448141,-9.0029 13.052731,-12.437501 3.73798,-3.561712 8.62419,-5.353515 13.58008,-5.353515 z"
             style="color:#000000;font-style:normal;font-variant:normal;font-weight:normal;font-stretch:normal;font-size:medium;line-height:normal;font-family:sans-serif;font-variant-ligatures:normal;font-variant-position:normal;font-variant-caps:normal;font-variant-numeric:normal;font-variant-alternates:normal;font-variant-east-asian:normal;font-feature-settings:normal;font-variation-settings:normal;text-indent:0;text-align:start;text-decoration:none;text-decoration-line:none;text-decoration-style:solid;text-decoration-color:#000000;letter-spacing:normal;word-spacing:normal;text-transform:none;writing-mode:lr-tb;direction:ltr;text-orientation:mixed;dominant-baseline:auto;baseline-shift:baseline;text-anchor:start;white-space:normal;shape-padding:0;shape-margin:0;inline-size:0;clip-rule:nonzero;display:inline;overflow:visible;visibility:visible;isolation:auto;mix-blend-mode:normal;color-interpolation:sRGB;color-interpolation-filters:linearRGB;solid-color:#000000;solid-opacity:1;vector-effect:none;fill:#ff0000;fill-opacity:1;fill-rule:evenodd;stroke:none;stroke-width:15.0813;stroke-linecap:round;stroke-linejoin:round;stroke-miterlimit:4;stroke-dasharray:none;stroke-dashoffset:0;stroke-opacity:1;color-rendering:auto;image-rendering:auto;shape-rendering:auto;text-rendering:auto;enable-background:accumulate;stop-color:#000000;stop-opacity:1" />
        </g>
      </g>
      <g
         id="g891"
         style="opacity:1;fill:#ffcc00"
         transform="rotate(-45,82.823238,110.74232)">
        <path
           id="path859"
           d="m 40.131758,78.52913 c -8.66087,1e-6 -17.322033,3.137826 -23.909081,9.414256 -13.1741026,12.552854 -13.1741042,33.010364 0,45.563214 13.174103,12.55285 34.644055,12.55284 47.818163,0 5.894458,-5.61649 15.475276,-14.74551 21.345723,-20.33913 a 3.6250878,3.4541403 0 0 0 0,-4.88495 C 78.904338,102.10597 69.935301,93.559889 64.04084,87.943386 57.453788,81.666959 48.792629,78.52913 40.131758,78.52913 Z m 0,6.864694 c 6.790396,0 13.580496,2.477959 18.782363,7.434525 5.186605,4.94202 12.623593,12.028301 18.782363,17.896651 -5.855741,5.5796 -13.595756,12.95461 -18.782363,17.89664 -10.403741,9.91312 -27.160989,9.91313 -37.564725,0 -10.403734,-9.91312 -10.403733,-25.88017 0,-35.793291 5.201864,-4.956568 11.991967,-7.434524 18.782362,-7.434525 z"
           style="color:#000000;font-style:normal;font-variant:normal;font-weight:normal;font-stretch:normal;font-size:medium;line-height:normal;font-family:sans-serif;font-variant-ligatures:normal;font-variant-position:normal;font-variant-caps:normal;font-variant-numeric:normal;font-variant-alternates:normal;font-variant-east-asian:normal;font-feature-settings:normal;font-variation-settings:normal;text-indent:0;text-align:start;text-decoration:none;text-decoration-line:none;text-decoration-style:solid;text-decoration-color:#000000;letter-spacing:normal;word-spacing:normal;text-transform:none;writing-mode:lr-tb;direction:ltr;text-orientation:mixed;dominant-baseline:auto;baseline-shift:baseline;text-anchor:start;white-space:normal;shape-padding:0;shape-margin:0;inline-size:0;clip-rule:nonzero;display:inline;overflow:visible;visibility:visible;opacity:1;isolation:auto;mix-blend-mode:normal;color-interpolation:sRGB;color-interpolation-filters:linearRGB;solid-color:#000000;solid-opacity:1;vector-effect:none;fill:#ffcc00;fill-opacity:1;fill-rule:evenodd;stroke:none;stroke-width:5.29167;stroke-linecap:round;stroke-linejoin:round;stroke-miterlimit:4;stroke-dasharray:none;stroke-dashoffset:0;stroke-opacity:1;color-rendering:auto;image-rendering:auto;shape-rendering:auto;text-rendering:auto;enable-background:accumulate;stop-color:#000000;stop-opacity:1" />
        <path
           id="path863"
           d="m 125.51464,78.52913 c -8.66087,0 -17.32202,3.137835 -23.90908,9.414256 -5.894455,5.616493 -15.475272,14.745514 -21.345717,20.339134 a 3.6250878,3.4541403 0 0 0 0,4.88495 c 6.482225,6.17654 15.451262,14.72263 21.345717,20.33913 13.17411,12.55285 34.64407,12.55286 47.81817,0 13.1741,-12.55285 13.17409,-33.01036 0,-45.563214 -6.58705,-6.276425 -15.24822,-9.414255 -23.90909,-9.414256 z m 0,6.864694 c 6.7904,1e-6 13.5805,2.477959 18.78236,7.434525 10.40374,9.913121 10.40374,25.880181 0,35.793291 -10.40372,9.91313 -27.16098,9.91313 -37.56471,0 -5.18661,-4.94202 -12.623599,-12.02831 -18.782367,-17.89664 5.855739,-5.57961 13.595747,-12.954621 18.782367,-17.896651 5.20186,-4.956564 11.99196,-7.434525 18.78235,-7.434525 z"
           style="color:#000000;font-style:normal;font-variant:normal;font-weight:normal;font-stretch:normal;font-size:medium;line-height:normal;font-family:sans-serif;font-variant-ligatures:normal;font-variant-position:normal;font-variant-caps:normal;font-variant-numeric:normal;font-variant-alternates:normal;font-variant-east-asian:normal;font-feature-settings:normal;font-variation-settings:normal;text-indent:0;text-align:start;text-decoration:none;text-decoration-line:none;text-decoration-style:solid;text-decoration-color:#000000;letter-spacing:normal;word-spacing:normal;text-transform:none;writing-mode:lr-tb;direction:ltr;text-orientation:mixed;dominant-baseline:auto;baseline-shift:baseline;text-anchor:start;white-space:normal;shape-padding:0;shape-margin:0;inline-size:0;clip-rule:nonzero;display:inline;overflow:visible;visibility:visible;opacity:1;isolation:auto;mix-blend-mode:normal;color-interpolation:sRGB;color-interpolation-filters:linearRGB;solid-color:#000000;solid-opacity:1;vector-effect:none;fill:#ffcc00;fill-opacity:1;fill-rule:evenodd;stroke:none;stroke-width:5.29167;stroke-linecap:round;stroke-linejoin:round;stroke-miterlimit:4;stroke-dasharray:none;stroke-dashoffset:0;stroke-opacity:1;color-rendering:auto;image-rendering:auto;shape-rendering:auto;text-rendering:auto;enable-background:accumulate;stop-color:#000000;stop-opacity:1" />
      </g>
      <path
         id="path897"
         style="opacity:0.554502;fill:#350000;fill-opacity:1;stroke:none;stroke-width:0.999999px;stroke-linecap:butt;stroke-linejoin:miter;stroke-opacity:1"
         d="m 355.17383,403.88672 -1.44922,56.38086 -83.58008,0.59375 -0.72656,28.29492 83.58398,-0.5918 2.17578,-84.67773 z"
         transform="scale(0.26458333)" />
      <path
         id="path895"
         style="opacity:0.554502;fill:#350000;fill-opacity:1;stroke:none;stroke-width:0.999999px;stroke-linecap:butt;stroke-linejoin:miter;stroke-opacity:1"
         d="m 356.62109,347.50977 -83.62304,2.02343 -0.71875,28.08008 41.81054,-1.01172 41.8086,-1.00976 z"
         transform="scale(0.26458333)" />
      <path
         style="fill:#ff0000;stroke:none;stroke-width:0.264583px;stroke-linecap:butt;stroke-linejoin:miter;stroke-opacity:1"
         d="M 71.456266,122.08424 71.992608,99.911692 94.164794,99.375329 93.595533,121.54968 Z"
         id="path947" />
      <path
         style="fill:#ffcc00;stroke:none;stroke-width:0.264583px;stroke-linecap:butt;stroke-linejoin:miter;stroke-opacity:1"
         d="m 70.726536,107.4588 24.316521,-0.59711 -0.146707,7.13969 -24.327505,0.5361 z"
         id="path949" />
    </g>
  </g>
</svg>
