<?xml version="1.0" encoding="UTF-8" standalone="no"?>
<svg
   xmlns:dc="http://purl.org/dc/elements/1.1/"
   xmlns:cc="http://creativecommons.org/ns#"
   xmlns:rdf="http://www.w3.org/1999/02/22-rdf-syntax-ns#"
   xmlns:svg="http://www.w3.org/2000/svg"
   xmlns="http://www.w3.org/2000/svg"
   xmlns:xlink="http://www.w3.org/1999/xlink"
   xmlns:sodipodi="http://sodipodi.sourceforge.net/DTD/sodipodi-0.dtd"
   xmlns:inkscape="http://www.inkscape.org/namespaces/inkscape"
   sodipodi:docname="Iphone.svg"
   inkscape:version="1.0 (6e3e5246a0, 2020-05-07)"
   id="svg8"
   version="1.1"
   viewBox="0 0 210 297"
   height="297mm"
   width="210mm">
  <defs
     id="defs2">
    <linearGradient
       id="linearGradient987"
       inkscape:collect="always">
      <stop
         id="stop983"
         offset="0"
         style="stop-color:#ececec;stop-opacity:1;" />
      <stop
         id="stop985"
         offset="1"
         style="stop-color:#000000;stop-opacity:1" />
    </linearGradient>
    <linearGradient
       id="linearGradient928-6"
       inkscape:collect="always">
      <stop
         id="stop942"
         offset="0"
         style="stop-color:#4d4d4d;stop-opacity:1;" />
      <stop
         id="stop944"
         offset="1"
         style="stop-color:#808080;stop-opacity:1" />
    </linearGradient>
    <linearGradient
       id="linearGradient883"
       inkscape:collect="always">
      <stop
         id="stop879"
         offset="0"
         style="stop-color:#b3b3b3;stop-opacity:1;" />
      <stop
         id="stop881"
         offset="1"
         style="stop-color:#ececec;stop-opacity:1" />
    </linearGradient>
    <linearGradient
       gradientUnits="userSpaceOnUse"
       y2="40.346855"
       x2="48.091751"
       y1="124.97333"
       x1="48.091751"
       id="linearGradient885"
       xlink:href="#linearGradient883"
       inkscape:collect="always" />
    <linearGradient
       gradientUnits="userSpaceOnUse"
       y2="42.906742"
       x2="0.57767707"
       y1="156.243"
       x1="0.57767707"
       id="linearGradient930"
       xlink:href="#linearGradient928-6"
       inkscape:collect="always" />
    <linearGradient
       gradientTransform="scale(0.26458333)"
       gradientUnits="userSpaceOnUse"
       y2="223.81165"
       x2="60.724182"
       y1="109.15588"
       x1="60.724182"
       id="linearGradient989"
       xlink:href="#linearGradient987"
       inkscape:collect="always" />
  </defs>
  <sodipodi:namedview
     inkscape:window-maximized="1"
     inkscape:window-y="27"
     inkscape:window-x="74"
     inkscape:window-height="1016"
     inkscape:window-width="1846"
     inkscape:guide-bbox="true"
     showguides="true"
     inkscape:object-nodes="false"
     inkscape:snap-nodes="true"
     showborder="true"
     showgrid="false"
     inkscape:document-rotation="0"
     inkscape:current-layer="layer1"
     inkscape:document-units="px"
     inkscape:cy="205.04167"
     inkscape:cx="-19.29837"
     inkscape:zoom="1"
     inkscape:pageshadow="2"
     inkscape:pageopacity="0.0"
     borderopacity="1.0"
     bordercolor="#666666"
     pagecolor="#ffffff"
     id="base" />
  <metadata
     id="metadata5">
    <rdf:RDF>
      <cc:Work
         rdf:about="">
        <dc:format>image/svg+xml</dc:format>
        <dc:type
           rdf:resource="http://purl.org/dc/dcmitype/StillImage" />
        <dc:title></dc:title>
      </cc:Work>
    </rdf:RDF>
  </metadata>
  <g
     id="layer1"
     inkscape:groupmode="layer"
     inkscape:label="Layer 1">
    <g
       id="g1158">
      <rect
         rx="0.26895225"
         ry="0.26895225"
         y="46.600735"
         x="85.988586"
         height="7.9375"
         width="0.79374987"
         id="rect865"
         style="fill:#1a1a1a;fill-rule:evenodd;stroke-width:0.264584" />
      <path
         id="rect857"
         style="fill:#1a1a1a;fill-rule:evenodd;stroke-width:0.264583"
         d="m 32.455334,38.574622 c -0.149,0 -0.268719,0.120235 -0.268719,0.269235 v 3.430796 c 0,0.149 0.119719,0.268719 0.268719,0.268719 h 0.256315 c 0.149,0 0.268716,-0.119719 0.268716,-0.268719 v -3.430796 c 0,-0.149 -0.119716,-0.269235 -0.268716,-0.269235 z m 0,8.009848 c -0.149,0 -0.268719,0.120232 -0.268719,0.269232 v 7.399549 c 0,0.149 0.119719,0.268719 0.268719,0.268719 h 0.256315 c 0.149,0 0.268716,-0.119719 0.268716,-0.268719 v -7.399549 c 0,-0.149 -0.119716,-0.269232 -0.268716,-0.269232 z m 0,9.502777 c -0.149,0 -0.268719,0.120235 -0.268719,0.269235 v 7.399553 c 0,0.14899 0.119719,0.26871 0.268719,0.26871 h 0.256315 c 0.149,0 0.268716,-0.11972 0.268716,-0.26871 v -7.399553 c 0,-0.149 -0.119716,-0.269235 -0.268716,-0.269235 z" />
      <path
         d="m 39.571075,21.816187 h 39.824818 c 3.626438,0 6.545918,2.919484 6.545918,6.545927 v 96.710246 c 0,3.62645 -2.91948,6.54593 -6.545918,6.54593 H 39.571075 c -3.626443,0 -6.545927,-2.91948 -6.545927,-6.54593 V 28.362114 c 0,-3.626443 2.919484,-6.545927 6.545927,-6.545927 z"
         style="fill:#000000;fill-rule:evenodd;stroke-width:0.264583;stroke-miterlimit:4;stroke-dasharray:none"
         id="path949" />
      <path
         id="path842"
         style="fill:url(#linearGradient930);fill-opacity:1;fill-rule:evenodd;stroke-width:0.264583;stroke-miterlimit:4;stroke-dasharray:none"
         d="m 39.571703,21.370066 c -3.865989,0 -6.992188,3.126198 -6.992188,6.992188 V 125.0732 c 0,3.866 3.12636,6.99024 6.992188,6.99024 h 39.82422 c 3.865818,0 6.990228,-3.1244 6.990228,-6.99024 V 28.362254 c 0,-3.865829 -3.12424,-6.992188 -6.990228,-6.992188 z" />
      <path
         id="rect833"
         style="fill:#000000;fill-rule:evenodd;stroke-width:0.264583;stroke-miterlimit:4;stroke-dasharray:none"
         d="m 39.571075,21.816187 h 39.824818 c 3.626438,0 6.545918,2.919484 6.545918,6.545927 v 96.710246 c 0,3.62645 -2.91948,6.54593 -6.545918,6.54593 H 39.571075 c -3.626443,0 -6.545927,-2.91948 -6.545927,-6.54593 V 28.362114 c 0,-3.626443 2.919484,-6.545927 6.545927,-6.545927 z" />
      <path
         id="path947"
         style="fill:url(#linearGradient989);fill-opacity:1;stroke:#000000;stroke-width:0.264583px;stroke-linecap:butt;stroke-linejoin:miter;stroke-opacity:1"
         d="M 48.953747,21.816334 85.941668,74.607427 V 28.36219 c 0,-3.626443 -2.919415,-6.545856 -6.545853,-6.545856 z" />
      <path
         id="path838"
         style="fill:#1a1a1a;fill-rule:evenodd;stroke-width:0.264583"
         d="m 35.671312,38.194285 a 0.38095376,0.38095376 0 0 0 -0.380859,0.380859 v 76.285166 a 0.38095376,0.38095376 0 0 0 0.380859,0.38086 h 47.624999 a 0.38095376,0.38095376 0 0 0 0.38086,-0.38086 V 38.575144 a 0.38095376,0.38095376 0 0 0 -0.38086,-0.380859 z" />
      <path
         id="rect835"
         style="fill:url(#linearGradient885);fill-opacity:1;fill-rule:evenodd;stroke-width:0.264583"
         d="m 35.670984,38.57474 h 47.624997 v 76.285 H 35.670984 Z" />
      <circle
         style="fill:#333333;fill-rule:evenodd;stroke-width:0.264583"
         id="path847"
         cx="59.086613"
         cy="123.30714"
         r="4.3656249" />
      <circle
         r="3.96875"
         cy="123.30714"
         cx="59.086613"
         id="circle849"
         style="fill:#000000;fill-rule:evenodd;stroke-width:0.264583" />
      <rect
         style="fill:#000000;fill-rule:evenodd;stroke-width:0.264584"
         id="rect851"
         width="7.9375"
         height="1.3229167"
         x="55.514736"
         y="29.627176"
         rx="0.66145837"
         ry="0.66145837" />
      <circle
         style="fill:#000000;fill-rule:evenodd;stroke-width:0.264583"
         id="path853"
         cx="59.483486"
         cy="25.273127"
         r="0.66145831" />
      <circle
         r="1.0583334"
         cy="30.288637"
         cx="50.011166"
         id="circle855"
         style="fill:#333333;fill-rule:evenodd;stroke-width:0.264582" />
      <path
         id="circle887"
         style="opacity:0.137854;fill:#ececec;fill-rule:evenodd;stroke-width:0.264583"
         d="m 55.286047,122.16447 a 3.9687499,3.9687499 0 0 0 -0.167949,1.14256 3.9687499,3.9687499 0 0 0 3.96875,3.96875 3.9687499,3.9687499 0 0 0 3.96875,-3.96875 3.9687499,3.9687499 0 0 0 -0.168466,-1.14256 5.5185217,5.5185217 0 0 1 -3.800284,1.51722 5.5185217,5.5185217 0 0 1 -3.800801,-1.51722 z" />
      <path
         id="rect1007"
         style="fill:#666666;fill-rule:evenodd;stroke-width:0.264583"
         d="m 55.525438,30.178615 c -0.006,0.03591 -0.01085,0.07241 -0.01085,0.110072 0,0.366448 0.295011,0.661458 0.661459,0.661458 h 6.614583 c 0.366448,0 0.661458,-0.29501 0.661458,-0.661458 0,-0.03767 -0.0049,-0.07416 -0.01085,-0.110072 -0.05225,0.313534 -0.32179,0.551905 -0.650606,0.551905 h -6.614582 c -0.328815,0 -0.598352,-0.238371 -0.650607,-0.551905 z" />
      <path
         id="circle1017"
         style="fill:#666666;fill-rule:evenodd;stroke-width:0.264583"
         d="m 58.830146,25.171169 a 0.6614583,0.6614583 0 0 0 -0.0083,0.101804 0.6614583,0.6614583 0 0 0 0.661458,0.661458 0.6614583,0.6614583 0 0 0 0.661459,-0.661458 0.6614583,0.6614583 0 0 0 -0.0078,-0.101804 0.6614583,0.6614583 0 0 1 -0.653707,0.559139 0.6614583,0.6614583 0 0 1 -0.65319,-0.559139 z" />
      <path
         id="circle1024"
         style="fill:#b3b3b3;fill-rule:evenodd;stroke-width:0.264582"
         d="m 51.051293,30.093348 a 1.0583334,1.0583334 0 0 1 -1.040247,0.864547 1.0583334,1.0583334 0 0 1 -1.03973,-0.864029 1.0583334,1.0583334 0 0 0 -0.0186,0.194821 1.0583334,1.0583334 0 0 0 1.058334,1.058333 1.0583334,1.0583334 0 0 0 1.058333,-1.058333 1.0583334,1.0583334 0 0 0 -0.01809,-0.195339 z" />
    </g>
  </g>
</svg>
