<?xml version="1.0" encoding="UTF-8" standalone="no"?>
<svg
   xmlns:dc="http://purl.org/dc/elements/1.1/"
   xmlns:cc="http://creativecommons.org/ns#"
   xmlns:rdf="http://www.w3.org/1999/02/22-rdf-syntax-ns#"
   xmlns:svg="http://www.w3.org/2000/svg"
   xmlns="http://www.w3.org/2000/svg"
   xmlns:xlink="http://www.w3.org/1999/xlink"
   xmlns:sodipodi="http://sodipodi.sourceforge.net/DTD/sodipodi-0.dtd"
   xmlns:inkscape="http://www.inkscape.org/namespaces/inkscape"
   width="210mm"
   height="297mm"
   viewBox="0 0 210 297"
   version="1.1"
   id="svg839"
   inkscape:version="1.0 (9f2f71dc58, 2020-08-02)"
   sodipodi:docname="Lightning-clock.svg">
  <defs
     id="defs833">
    <linearGradient
       inkscape:collect="always"
       id="linearGradient1971">
      <stop
         style="stop-color:#000000;stop-opacity:1;"
         offset="0"
         id="stop1967" />
      <stop
         style="stop-color:#ffcc00;stop-opacity:1"
         offset="1"
         id="stop1969" />
    </linearGradient>
    <linearGradient
       inkscape:collect="always"
       id="linearGradient1927">
      <stop
         style="stop-color:#000000;stop-opacity:1;"
         offset="0"
         id="stop1923" />
      <stop
         style="stop-color:#000000;stop-opacity:0;"
         offset="1"
         id="stop1925" />
    </linearGradient>
    <linearGradient
       inkscape:collect="always"
       id="linearGradient1881">
      <stop
         style="stop-color:#000000;stop-opacity:1"
         offset="0"
         id="stop1877" />
      <stop
         style="stop-color:#ffcc00;stop-opacity:1"
         offset="1"
         id="stop1879" />
    </linearGradient>
    <inkscape:perspective
       sodipodi:type="inkscape:persp3d"
       inkscape:vp_x="207.83653 : -69.016694 : 1"
       inkscape:vp_y="0 : 362.54907 : 0"
       inkscape:vp_z="-283.19064 : -69.016694 : 1"
       inkscape:persp3d-origin="-37.677012 : -86.962869 : 1"
       id="perspective1615" />
    <linearGradient
       inkscape:collect="always"
       xlink:href="#linearGradient1927"
       id="linearGradient1929"
       x1="71.312752"
       y1="209.32178"
       x2="106.34628"
       y2="223.3539"
       gradientUnits="userSpaceOnUse"
       gradientTransform="matrix(1.1760522,0,0,1.1742068,-25.009078,-18.631946)" />
    <linearGradient
       inkscape:collect="always"
       xlink:href="#linearGradient1971"
       id="linearGradient1973"
       x1="108.46219"
       y1="243.83846"
       x2="108.46219"
       y2="220.31706"
       gradientUnits="userSpaceOnUse"
       gradientTransform="matrix(1.1760522,0,0,1.1742068,-25.009078,-18.631946)" />
    <linearGradient
       inkscape:collect="always"
       xlink:href="#linearGradient1881"
       id="linearGradient1975"
       x1="109.30936"
       y1="279.98996"
       x2="109.30936"
       y2="199.28404"
       gradientUnits="userSpaceOnUse"
       gradientTransform="translate(1.7698162,-11.895506)" />
  </defs>
  <sodipodi:namedview
     id="base"
     pagecolor="#ffffff"
     bordercolor="#666666"
     borderopacity="1.0"
     inkscape:pageopacity="0.0"
     inkscape:pageshadow="2"
     inkscape:zoom="1.3409019"
     inkscape:cx="525.80876"
     inkscape:cy="978.57049"
     inkscape:document-units="mm"
     inkscape:current-layer="layer1"
     inkscape:document-rotation="0"
     showgrid="false"
     showborder="false"
     inkscape:object-paths="true"
     inkscape:snap-intersection-paths="true"
     inkscape:snap-smooth-nodes="true"
     inkscape:snap-midpoints="true"
     inkscape:snap-nodes="true"
     inkscape:window-width="1846"
     inkscape:window-height="1016"
     inkscape:window-x="74"
     inkscape:window-y="27"
     inkscape:window-maximized="1"
     inkscape:snap-object-midpoints="true" />
  <metadata
     id="metadata836">
    <rdf:RDF>
      <cc:Work
         rdf:about="">
        <dc:format>image/svg+xml</dc:format>
        <dc:type
           rdf:resource="http://purl.org/dc/dcmitype/StillImage" />
        <dc:title></dc:title>
      </cc:Work>
    </rdf:RDF>
  </metadata>
  <g
     inkscape:label="Layer 1"
     inkscape:groupmode="layer"
     id="layer1">
    <text
       xml:space="preserve"
       style="font-style:normal;font-size:10.5833px;line-height:1.25;font-family:Georgia;-inkscape-font-specification:Georgia;stroke-width:0.264583;font-weight:normal;font-stretch:normal;font-variant:normal;"
       x="-11.224452"
       y="258.48972"
       id="text1679"><tspan
         sodipodi:role="line"
         id="tspan1677"
         x="-11.224452"
         y="258.48972"
         style="stroke-width:0.264583;-inkscape-font-specification:Georgia;font-family:Georgia;font-weight:normal;font-style:normal;font-stretch:normal;font-variant:normal;" /></text>
    <g
       id="g1795"
       transform="matrix(0.75265464,0,0,0.75265464,36.804913,65.201613)"
       style="stroke-width:1.32863">
      <path
         id="path1659"
         style="fill:url(#linearGradient1929);fill-opacity:1;fill-rule:evenodd;stroke:url(#linearGradient1973);stroke-width:5.63074;stroke-linecap:round;stroke-linejoin:round;stroke-miterlimit:4;stroke-dasharray:none"
         d="m 147.05818,240.5084 c -0.0529,0.0117 -0.10573,0.0227 -0.15846,0.0344 v 25.02536 l 22.60627,-1.13826 c 1.76936,-0.23251 0.89699,-0.19451 -0.11278,-0.19418 l -22.33502,1.21073 z"
         sodipodi:nodetypes="ccccccc" />
      <g
         id="g1775"
         transform="matrix(1.3707299,0,0,1.3707299,-55.164493,-47.538433)"
         style="stroke-width:0.969287">
        <path
           id="path1665"
           style="fill:none;fill-rule:evenodd;stroke:url(#linearGradient1975);stroke-width:5.3621;stroke-linecap:round;stroke-linejoin:round;stroke-miterlimit:4;stroke-dasharray:none"
           d="m 173.6596,202.13157 a 35.157215,35.157215 0 0 1 0,49.71981 35.157215,35.157215 0 0 1 -49.71981,1e-5 35.157215,35.157215 0 0 1 -1e-5,-49.71982 35.157215,35.157215 0 0 1 49.71982,0 z" />
        <path
           d="m 160.52506,202.85081 q -0.22225,0 -0.37042,-0.13758 -0.13758,-0.14817 -0.0952,-0.39158 0.0423,-0.17992 0.14816,-0.34925 0.11642,-0.17992 0.26458,-0.32808 0.14817,-0.15875 0.29634,-0.28575 0.14816,-0.127 0.25399,-0.21167 0.0847,-0.0635 0.11642,-0.0847 0.0423,-0.0212 0.0847,-0.0212 0.10584,0 0.0847,0.10583 -0.0423,0.254 0.0317,0.42333 0.0741,0.15875 0.29634,0.15875 0.13758,0 0.26458,-0.0212 0.127,-0.0212 0.24341,-0.0529 0.11642,-0.0318 0.23284,-0.0741 0.26458,-0.381 0.55033,-0.67733 0.24342,-0.254 0.52917,-0.46567 0.29633,-0.22225 0.5715,-0.22225 0.21166,0 0.33866,0.15875 0.13758,0.14817 0.0952,0.35983 -0.0423,0.22225 -0.33866,0.55033 -0.29634,0.32809 -0.75142,0.635 -0.14817,0.10584 -0.42333,0.43392 -0.27517,0.32808 -0.60325,0.80433 -0.32809,0.46566 -0.68792,1.04775 -0.34925,0.57149 -0.65616,1.15358 -0.30692,0.58208 -0.53975,1.13241 -0.23283,0.55033 -0.3175,0.97366 -0.0212,0.0952 -0.0635,0.14817 -0.0423,0.0635 -0.16933,0.0635 -0.0952,0 -0.23284,-0.0847 -0.13758,-0.0847 -0.26458,-0.21166 -0.11641,-0.13759 -0.1905,-0.28575 -0.0741,-0.15875 -0.0423,-0.29634 0.0529,-0.29633 0.254,-0.71966 0.21167,-0.42333 0.48683,-0.889 0.28575,-0.47625 0.59267,-0.94191 0.3175,-0.46567 0.58208,-0.84667 0.26458,-0.39158 0.4445,-0.63499 0.1905,-0.254 0.21166,-0.29634 -0.0212,0.0106 -0.13758,0.0741 -0.11641,0.0635 -0.29633,0.13758 -0.16933,0.0635 -0.381,0.11642 -0.21167,0.0529 -0.41275,0.0529 z"
           style="font-style:italic;font-size:10.5833px;line-height:1.25;font-family:Milkshake;-inkscape-font-specification:'Milkshake Italic';stroke:#ffcc00;stroke-width:0.547647;stroke-miterlimit:4;stroke-dasharray:none"
           id="path1764" />
        <path
           d="m 171.61657,209.03614 q 0.41275,0 0.74083,0.11641 0.32808,0.10584 0.53975,0.32808 0.21166,0.21167 0.28575,0.51859 0.0847,0.29633 0.0106,0.67733 -0.0952,0.45508 -0.51858,1.03716 -0.41275,0.58208 -1.02658,1.19591 -0.61383,0.60325 -1.35466,1.2065 -0.74083,0.60325 -1.49225,1.10066 0.29633,0.0741 0.58208,0.11642 0.29634,0.0423 0.58208,0.0423 0.29634,0 0.53975,-0.0847 0.254,-0.0847 0.43392,-0.1905 0.1905,-0.10584 0.3175,-0.1905 0.127,-0.0847 0.17991,-0.0847 0.127,0 0.10584,0.10583 -0.0106,0.0423 -0.10584,0.1905 -0.0953,0.13759 -0.254,0.32809 -0.14816,0.17991 -0.34925,0.39158 -0.19049,0.20108 -0.43391,0.37041 -0.23283,0.16934 -0.48683,0.28575 -0.24342,0.10584 -0.48683,0.10584 -0.39159,0 -0.83608,-0.22225 -0.4445,-0.22225 -0.89959,-0.47625 -0.57149,0.32808 -1.04774,0.51858 -0.47625,0.17992 -0.78317,0.17992 -0.52916,0 -0.78316,-0.28575 -0.26458,-0.28575 -0.1905,-0.66675 0.0423,-0.20108 0.16933,-0.39158 0.127,-0.20109 0.32809,-0.34925 0.1905,-0.14817 0.42333,-0.23284 0.24341,-0.0952 0.51858,-0.0952 0.30691,0 0.70908,0.11642 0.41275,0.10583 0.86783,0.254 0.60325,-0.43391 1.23825,-1.00541 0.63499,-0.58208 1.16416,-1.19592 0.53975,-0.61383 0.92075,-1.22766 0.381,-0.61383 0.47625,-1.13241 0.0741,-0.33867 -0.127,-0.53975 -0.1905,-0.20108 -0.52917,-0.20108 -0.29633,0 -0.68791,0.20108 -0.39159,0.1905 -0.77258,0.51858 -0.37042,0.3175 -0.65617,0.71967 -0.28575,0.40216 -0.37041,0.81491 -0.0423,0.22225 -0.0212,0.35983 0.0318,0.127 0.0952,0.1905 0.0635,0.0635 0.127,0.0847 0.0741,0.0212 0.127,0.0212 0.127,0 0.10583,0.10584 -0.0106,0.0529 -0.0847,0.127 -0.0635,0.0741 -0.19049,0.15875 -0.11642,0.0741 -0.29634,0.127 -0.16933,0.0529 -0.37041,0.0529 -0.21167,0 -0.41275,-0.0635 -0.20108,-0.0741 -0.34925,-0.20108 -0.14817,-0.13758 -0.22225,-0.32808 -0.0741,-0.1905 -0.0212,-0.43392 0.13759,-0.66675 0.62442,-1.22766 0.48683,-0.5715 1.14299,-0.97366 0.66675,-0.41275 1.40758,-0.635 0.75142,-0.23283 1.397,-0.23283 z m -5.43982,6.25473 q -0.24341,0 -0.381,0.0952 -0.13758,0.0847 -0.15875,0.1905 -0.0318,0.15874 0.0741,0.23283 0.11641,0.0635 0.254,0.0635 0.20108,0 0.45508,-0.0847 0.26458,-0.0953 0.5715,-0.26458 -0.22225,-0.10583 -0.43392,-0.16933 -0.20108,-0.0635 -0.381,-0.0635 z"
           style="font-style:italic;font-size:10.5833px;line-height:1.25;font-family:Milkshake;-inkscape-font-specification:'Milkshake Italic';stroke:#ffcc00;stroke-width:0.547647;stroke-miterlimit:4;stroke-dasharray:none"
           id="path1767" />
        <path
           d="m 177.73984,224.90892 q 0.254,-0.28575 0.51858,-0.51858 0.23283,-0.20108 0.49741,-0.35983 0.27517,-0.16934 0.53975,-0.16934 0.24342,0 0.34925,0.13759 0.11642,0.127 0.0741,0.34925 -0.0635,0.32808 -0.46567,0.60324 -0.40217,0.26459 -1.05833,0.41275 -0.0847,0.0635 -0.30692,0.23284 -0.21166,0.16933 -0.43391,0.34924 -0.26458,0.20109 -0.58208,0.4445 0.29633,0 0.59266,0.0847 0.29633,0.0847 0.508,0.28575 0.22225,0.20108 0.3175,0.51858 0.10583,0.3175 0.0106,0.79375 -0.13758,0.6985 -0.59266,1.31233 -0.45508,0.61383 -1.06891,1.06891 -0.61384,0.4445 -1.31233,0.70908 -0.6985,0.26458 -1.3335,0.26458 -0.46567,0 -0.84666,-0.0952 -0.37042,-0.0953 -0.635,-0.26458 -0.254,-0.17991 -0.37042,-0.42333 -0.10583,-0.254 -0.0529,-0.55033 0.0529,-0.254 0.29633,-0.46567 0.254,-0.22225 0.55033,-0.381 0.29633,-0.16933 0.55033,-0.254 0.254,-0.0952 0.3175,-0.0952 0.15875,0 0.13758,0.11641 -0.0106,0.0529 -0.0423,0.0847 -0.0318,0.0318 -0.0847,0.0847 -0.10583,0.11642 -0.28575,0.33867 -0.16933,0.22225 -0.22224,0.46567 -0.0318,0.14816 0,0.29633 0.0423,0.13758 0.13758,0.254 0.0952,0.11641 0.254,0.1905 0.16933,0.0741 0.40216,0.0741 0.381,0 0.79375,-0.21167 0.42333,-0.21166 0.79375,-0.59266 0.381,-0.381 0.66675,-0.91017 0.29633,-0.52916 0.42333,-1.17474 0.0952,-0.4445 -0.0635,-0.70908 -0.14817,-0.26459 -0.53975,-0.26459 -0.11642,0.10584 -0.30692,0.254 -0.1905,0.13759 -0.41274,0.26459 -0.22225,0.127 -0.46567,0.22225 -0.24342,0.0847 -0.46566,0.0847 -0.22225,0 -0.33867,-0.11641 -0.10583,-0.127 -0.0635,-0.32809 0.0529,-0.26458 0.3175,-0.43391 0.27516,-0.17992 0.58208,-0.28575 0.35983,-0.11642 0.80433,-0.1905 l 1.143,-0.889 q -0.24342,0 -0.64558,-0.0212 -0.39159,-0.0212 -0.762,-0.0953 -0.35983,-0.0741 -0.60325,-0.21167 -0.24342,-0.14817 -0.20108,-0.40216 0.0423,-0.20109 0.26458,-0.37042 0.23283,-0.17992 0.508,-0.29633 0.28575,-0.127 0.56091,-0.1905 0.27517,-0.0741 0.40217,-0.0741 0.16933,0 0.13758,0.13759 0,0.0423 -0.0529,0.0847 -0.0423,0.0317 -0.0953,0.0847 -0.0423,0.0423 -0.0952,0.0952 -0.0423,0.0529 -0.0529,0.127 -0.0212,0.11642 0.0847,0.21167 0.10583,0.0952 0.30691,0.16933 0.21167,0.0635 0.46567,0.10583 0.26458,0.0317 0.55033,0.0317 z"
           style="font-style:italic;font-size:10.5833px;line-height:1.25;font-family:Milkshake;-inkscape-font-specification:'Milkshake Italic';stroke:#ffcc00;stroke-width:0.547647;stroke-miterlimit:4;stroke-dasharray:none"
           id="path1770" />
        <path
           d="m 169.76001,236.75646 q 0.39158,0 0.65616,0.20108 0.26458,0.1905 0.17992,0.61383 -0.0423,0.1905 -0.16934,0.42333 -0.11641,0.23284 -0.28575,0.48684 -0.16933,0.24341 -0.38099,0.49741 -0.21167,0.24342 -0.41275,0.47625 -0.48683,0.55033 -1.0795,1.12183 0.14817,0.0847 0.32808,0.16933 0.14817,0.0741 0.34925,0.15875 0.21167,0.0741 0.46567,0.127 0.33866,-0.55033 0.71966,-1.12183 0.381,-0.5715 0.75142,-1.06891 0.37041,-0.508 0.70908,-0.91017 0.34925,-0.40216 0.62441,-0.62441 0.16933,-0.14817 0.39158,-0.254 0.23284,-0.10583 0.45509,-0.16933 0.22224,-0.0635 0.39158,-0.0953 0.17991,-0.0317 0.254,-0.0317 0.0953,0 0.0741,0.10583 -0.0106,0.0635 -0.254,0.27517 -0.23283,0.21166 -0.61383,0.65616 -0.10583,0.127 -0.35983,0.4445 -0.254,0.3175 -0.58208,0.762 -0.32809,0.43391 -0.6985,0.97366 -0.37042,0.52917 -0.71967,1.11125 0.35984,-0.0635 0.60325,-0.17992 0.254,-0.127 0.41275,-0.23283 0.10583,-0.0741 0.15875,-0.0741 0.0529,0 0.0741,0.0423 0.0318,0.0317 0.0212,0.0635 -0.0106,0.0635 -0.0847,0.15875 -0.10583,0.13758 -0.29633,0.34925 -0.1905,0.21166 -0.4445,0.43391 -0.24341,0.21167 -0.52916,0.381 -0.28575,0.15875 -0.56092,0.20108 -0.254,0.508 -0.4445,0.99483 -0.1905,0.47625 -0.27516,0.91017 -0.0423,0.1905 -0.22225,0.1905 -0.10583,0 -0.254,-0.0741 -0.14817,-0.0635 -0.28575,-0.17991 -0.13758,-0.11642 -0.22225,-0.27517 -0.0741,-0.16933 -0.0318,-0.35983 0.0318,-0.17992 0.21167,-0.56092 0.1905,-0.39158 0.46566,-0.89958 -0.22225,-0.127 -0.4445,-0.26458 -0.21166,-0.14816 -0.39158,-0.27516 -0.17991,-0.127 -0.32808,-0.21167 -0.13758,-0.0847 -0.21167,-0.0847 -0.20108,0.127 -0.43391,0.22225 -0.20108,0.0847 -0.45508,0.14817 -0.24342,0.0635 -0.48684,0.0635 -0.28574,0 -0.48683,-0.1905 -0.1905,-0.20108 -0.127,-0.47625 0.0318,-0.16933 0.13759,-0.29633 0.11641,-0.13758 0.254,-0.22225 0.14816,-0.0847 0.31749,-0.127 0.17992,-0.0423 0.33867,-0.0423 0.1905,0 0.35983,0.0212 0.16933,0.0212 0.29633,0.0423 0.15875,0.0318 0.28575,0.0635 0.42334,-0.381 0.78317,-0.80433 0.30691,-0.34925 0.58208,-0.78317 0.28575,-0.43391 0.37041,-0.83608 0.0423,-0.1905 -0.0529,-0.29633 -0.0952,-0.11642 -0.254,-0.11642 -0.11642,0 -0.24342,0.0423 -0.127,0.0423 -0.24341,0.0952 -0.10584,0.0423 -0.1905,0.0847 -0.0741,0.0423 -0.11642,0.0423 -0.0529,0 -0.0953,-0.0529 -0.0423,-0.0529 -0.0318,-0.10584 0.0106,-0.0741 0.1905,-0.22224 0.1905,-0.14817 0.45508,-0.28575 0.26459,-0.13759 0.5715,-0.24342 0.30692,-0.10583 0.56092,-0.10583 z"
           style="font-style:italic;font-size:10.5833px;line-height:1.25;font-family:Milkshake;-inkscape-font-specification:'Milkshake Italic';stroke:#ffcc00;stroke-width:0.547647;stroke-miterlimit:4;stroke-dasharray:none"
           id="path1773" />
        <path
           d="m 157.16063,251.36922 q 0.39159,0 0.79375,-0.20109 0.41275,-0.21166 0.75142,-0.57149 0.33866,-0.37042 0.60324,-0.85725 0.26459,-0.48683 0.381,-1.05833 0.0741,-0.381 0.0106,-0.60325 -0.0529,-0.23283 -0.17991,-0.34925 -0.11642,-0.11641 -0.28575,-0.14816 -0.16934,-0.0423 -0.32809,-0.0423 -0.0847,0 -0.16933,0.0212 -0.0741,0.0212 -0.127,0.0423 -0.0741,0.0318 -0.13758,0.0529 -0.21167,0.28575 -0.45508,0.508 -0.1905,0.1905 -0.42334,0.34925 -0.23283,0.15875 -0.44449,0.15875 -0.22225,0 -0.32809,-0.13759 -0.10583,-0.13758 -0.0635,-0.33866 0.0317,-0.17992 0.22225,-0.34925 0.1905,-0.17992 0.39159,-0.30692 0.24341,-0.14816 0.53974,-0.27516 l 0.99483,-1.44992 q -0.11641,-0.127 -0.1905,-0.25399 -0.0741,-0.11642 -0.127,-0.24342 -0.0423,-0.127 -0.0212,-0.26458 0.0635,-0.30692 0.29634,-0.46567 0.23283,-0.15875 0.45508,-0.15875 0.23283,0 0.33866,0.13759 0.11642,0.12699 0.15875,0.27516 0.0529,0.1905 0.0317,0.41275 0.0635,0.0212 0.14817,0.0423 0.0635,0.0212 0.14817,0.0317 0.0847,0.0106 0.17991,0.0106 0.3175,0 0.65617,-0.0635 0.34925,-0.0741 0.68791,-0.17992 0.33867,-0.11642 0.635,-0.26458 0.30692,-0.14817 0.53975,-0.30692 0.14816,-0.0952 0.23283,-0.0952 0.0529,0 0.0953,0.0529 0.0529,0.0529 0.0423,0.10583 -0.0106,0.0635 -0.0635,0.127 -0.0423,0.0635 -0.0953,0.127 -0.19049,0.23283 -0.45508,0.49742 -0.254,0.26458 -0.53975,0.48683 -0.28575,0.22225 -0.56091,0.37041 -0.26458,0.14817 -0.47625,0.14817 -0.1905,0 -0.4445,-0.0423 -0.254,-0.0423 -0.48683,-0.0952 -0.254,-0.0635 -0.52916,-0.14817 l -0.68792,1.06891 q 0.0529,-0.0212 0.15875,-0.0529 0.0741,-0.0212 0.1905,-0.0317 0.127,-0.0212 0.27517,-0.0212 0.35983,0 0.70908,0.10583 0.34925,0.0952 0.60324,0.29634 0.26459,0.20108 0.39159,0.50799 0.127,0.30692 0.0423,0.71967 -0.13759,0.6985 -0.59267,1.31233 -0.45508,0.60325 -1.06891,1.05833 -0.61383,0.4445 -1.31233,0.70908 -0.6985,0.26458 -1.3335,0.26458 -0.46566,0 -0.84666,-0.0952 -0.37042,-0.0953 -0.62441,-0.26458 -0.26459,-0.17992 -0.37042,-0.42333 -0.11642,-0.254 -0.0635,-0.55033 0.0529,-0.254 0.30691,-0.46567 0.24342,-0.22225 0.53975,-0.381 0.29634,-0.16933 0.55033,-0.254 0.254,-0.0952 0.3175,-0.0952 0.15875,0 0.13759,0.11642 -0.0106,0.0529 -0.0423,0.0847 -0.0317,0.0318 -0.0847,0.0847 -0.10584,0.11642 -0.28575,0.33867 -0.16934,0.22225 -0.22225,0.46566 -0.0317,0.14817 0,0.29634 0.0423,0.13758 0.14816,0.25399 0.11642,0.11642 0.29634,0.1905 0.1905,0.0741 0.46566,0.0741 z"
           style="font-style:italic;font-size:10.5833px;line-height:1.25;font-family:Milkshake;-inkscape-font-specification:'Milkshake Italic';stroke:#ffcc00;stroke-width:0.547647;stroke-miterlimit:4;stroke-dasharray:none"
           id="path1776" />
        <path
           d="m 149.18587,246.48503 q 0.59267,0 0.78317,0.20108 0.20108,0.1905 0.13758,0.48683 -0.0423,0.23284 -0.22225,0.45508 -0.17992,0.21167 -0.39158,0.39159 -0.21167,0.16933 -0.41275,0.27516 -0.20108,0.10584 -0.29633,0.10584 -0.20108,0 -0.16933,-0.17992 0.0106,-0.0529 0.0741,-0.11642 0.0635,-0.0741 0.13758,-0.16933 0.0741,-0.10583 0.13758,-0.23283 0.0741,-0.127 0.11642,-0.29633 0.0212,-0.11642 -0.0529,-0.20109 -0.0635,-0.0847 -0.20108,-0.0847 -0.29634,0 -0.67734,0.1905 -0.38099,0.1905 -0.79374,0.51858 -0.41275,0.32808 -0.81492,0.77258 -0.39158,0.4445 -0.74083,0.96308 -0.34925,0.51858 -0.61383,1.0795 -0.254,0.56091 -0.37042,1.12183 -0.0847,0.42333 -0.0635,0.74083 0.0317,0.30691 0.14817,0.50799 0.11642,0.20109 0.28575,0.30692 0.17992,0.0953 0.40217,0.0953 0.32808,0 0.69849,-0.23283 0.381,-0.24342 0.71967,-0.635 0.34925,-0.39158 0.61383,-0.89958 0.26458,-0.51858 0.381,-1.0795 0.0635,-0.33866 -0.0847,-0.48683 -0.14817,-0.14817 -0.35983,-0.14817 -0.37042,0 -0.79375,0.21167 -0.41275,0.21167 -0.74083,0.48683 -0.0423,0.0317 -0.0953,0.0635 -0.0423,0.0317 -0.0741,0.0317 -0.0529,0 -0.10584,-0.0317 -0.0423,-0.0423 -0.0212,-0.11641 0.0212,-0.14817 0.28575,-0.41275 0.26459,-0.26459 0.65617,-0.51858 0.39158,-0.254 0.84666,-0.4445 0.46567,-0.1905 0.89958,-0.1905 0.26458,0 0.48683,0.0741 0.22225,0.0741 0.37042,0.23283 0.14816,0.15875 0.20108,0.40217 0.0635,0.23283 0,0.56091 -0.13758,0.6985 -0.60325,1.37583 -0.45508,0.67733 -1.06891,1.21708 -0.61383,0.52917 -1.31233,0.85725 -0.68791,0.3175 -1.31233,0.3175 -0.33866,0 -0.71966,-0.11642 -0.381,-0.11641 -0.67733,-0.39158 -0.29634,-0.28575 -0.4445,-0.74083 -0.14817,-0.45508 -0.0106,-1.13241 0.127,-0.64559 0.47625,-1.28058 0.34925,-0.635 0.83608,-1.2065 0.49741,-0.58208 1.07949,-1.06891 0.59267,-0.49742 1.19592,-0.85725 0.61383,-0.35983 1.19591,-0.56092 0.59266,-0.21166 1.0795,-0.21166 z"
           style="font-style:italic;font-size:10.5833px;line-height:1.25;font-family:Milkshake;-inkscape-font-specification:'Milkshake Italic';stroke:#ffcc00;stroke-width:0.547647;stroke-miterlimit:4;stroke-dasharray:none"
           id="path1779" />
        <path
           d="m 136.68493,244.21487 q 0.13758,0 0.11642,0.11642 -0.0106,0.0635 -0.13759,0.17991 -0.11641,0.11642 -0.14816,0.28575 -0.0635,0.3175 0.33866,0.55033 0.40217,0.22225 1.43933,0.22225 0.56092,-0.57149 1.016,-0.91016 0.45508,-0.33867 0.85725,-0.33867 0.22225,0 0.33866,0.13759 0.127,0.127 0.0847,0.35983 -0.0741,0.32808 -0.51858,0.66675 -0.4445,0.32808 -1.23825,0.62441 -0.45508,0.43392 -0.98424,1.0795 -0.52917,0.64558 -1.016,1.34408 -0.47625,0.68791 -0.8255,1.34408 -0.34924,0.65616 -0.44449,1.10066 -0.0423,0.21167 -0.0423,0.39158 0.0106,0.17992 0,0.26458 -0.0317,0.14817 -0.19049,0.14817 -0.21167,0 -0.43392,-0.0847 -0.22225,-0.0741 -0.39158,-0.22224 -0.16933,-0.15875 -0.26458,-0.37042 -0.0847,-0.21167 -0.0318,-0.47625 0.0423,-0.23283 0.21166,-0.53975 0.17992,-0.30691 0.42333,-0.65616 0.254,-0.34925 0.55034,-0.71967 0.30691,-0.37041 0.62441,-0.71966 0.71967,-0.81491 1.61924,-1.72508 -0.46566,0 -0.96307,-0.0106 -0.48684,-0.0212 -0.89959,-0.0952 -0.40216,-0.0847 -0.64558,-0.254 -0.23283,-0.16933 -0.16933,-0.47625 0.0423,-0.23283 0.26458,-0.4445 0.23283,-0.22225 0.508,-0.39158 0.27517,-0.16933 0.53975,-0.27517 0.27516,-0.10583 0.41275,-0.10583 z"
           style="font-style:italic;font-size:10.5833px;line-height:1.25;font-family:Milkshake;-inkscape-font-specification:'Milkshake Italic';stroke:#ffcc00;stroke-width:0.547647;stroke-miterlimit:4;stroke-dasharray:none"
           id="path1782" />
        <path
           d="m 130.63398,234.9859 q 0.26458,0 0.56091,0.0741 0.29633,0.0635 0.52917,0.20108 0.24341,0.127 0.381,0.32809 0.14816,0.1905 0.0952,0.44449 -0.0529,0.27517 -0.3175,0.56092 -0.254,0.27517 -0.64559,0.56091 -0.38099,0.28575 -0.87841,0.59267 -0.48683,0.29633 -1.00541,0.61383 0.13758,0.17992 0.26458,0.37042 0.13758,0.17991 0.22225,0.381 0.0952,0.20108 0.127,0.43391 0.0423,0.22225 -0.0106,0.48683 -0.13758,0.65617 -0.46567,1.13242 -0.3175,0.46566 -0.75141,0.78316 -0.42333,0.30692 -0.92075,0.45508 -0.48683,0.14817 -0.95249,0.14817 -0.39159,0 -0.78317,-0.10584 -0.39158,-0.0952 -0.68791,-0.27516 -0.29633,-0.1905 -0.46567,-0.45508 -0.15875,-0.27517 -0.0952,-0.61383 0.0847,-0.381 0.381,-0.71967 0.29633,-0.34925 0.71967,-0.66675 0.43391,-0.3175 0.95249,-0.62441 0.52917,-0.30692 1.0795,-0.61383 -0.11642,-0.15875 -0.23283,-0.30692 -0.10584,-0.14816 -0.1905,-0.29633 -0.0847,-0.15875 -0.11642,-0.32808 -0.0318,-0.16934 0.0106,-0.37042 0.0741,-0.40216 0.41275,-0.71966 0.33867,-0.32809 0.75141,-0.55033 0.42334,-0.22225 0.8255,-0.33867 0.41275,-0.11642 0.635,-0.11642 0.23283,0 0.20108,0.14817 -0.0106,0.0741 -0.0635,0.11642 -0.0529,0.0317 -0.16933,0.0847 -0.0741,0.0318 -0.26458,0.11642 -0.1905,0.0847 -0.40217,0.22225 -0.21166,0.127 -0.39158,0.30691 -0.17992,0.16934 -0.22225,0.37042 -0.0529,0.30691 0.0212,0.5715 0.0741,0.254 0.22225,0.49741 0.37041,-0.22225 0.6985,-0.45508 0.32808,-0.23283 0.59266,-0.47625 0.26458,-0.254 0.43392,-0.508 0.16933,-0.26458 0.23283,-0.55033 0.0212,-0.13758 -0.0212,-0.24341 -0.0318,-0.10584 -0.10583,-0.17992 -0.0635,-0.0741 -0.14817,-0.11642 -0.0741,-0.0529 -0.127,-0.0847 -0.13758,-0.0741 -0.127,-0.14817 0.0317,-0.13758 0.21167,-0.13758 z m -4.39207,6.42406 q -0.0529,0.26458 0.10583,0.43392 0.15875,0.15875 0.41275,0.15875 0.254,0 0.52917,-0.13759 0.27516,-0.13758 0.50799,-0.381 0.24342,-0.24341 0.42334,-0.56091 0.17991,-0.32808 0.25399,-0.6985 0.0741,-0.37041 0.0212,-0.65616 -0.0423,-0.29634 -0.15875,-0.53975 -0.39158,0.26458 -0.75141,0.55033 -0.34925,0.27517 -0.62441,0.5715 -0.27517,0.29633 -0.46567,0.61383 -0.1905,0.3175 -0.254,0.64558 z"
           style="font-style:italic;font-size:10.5833px;line-height:1.25;font-family:Milkshake;-inkscape-font-specification:'Milkshake Italic';stroke:#ffcc00;stroke-width:0.547647;stroke-miterlimit:4;stroke-dasharray:none"
           id="path1785" />
        <path
           d="m 126.12164,222.41333 q 0.39158,0 0.68791,0.0952 0.29634,0.0952 0.48684,0.29633 0.20108,0.1905 0.26458,0.49741 0.0635,0.30692 -0.0212,0.73025 -0.13758,0.68792 -0.508,1.397 -0.37041,0.6985 -0.91016,1.36524 -0.53975,0.65617 -1.21708,1.23825 -0.66675,0.58208 -1.397,1.016 -0.73024,0.43391 -1.48166,0.68791 -0.74083,0.24342 -1.44991,0.24342 -0.23283,0 -0.37042,-0.0635 -0.13758,-0.0529 -0.11641,-0.16934 0.0212,-0.0635 0.0847,-0.11641 0.0741,-0.0529 0.14816,-0.0529 0.55033,0 1.143,-0.254 0.60325,-0.254 1.18533,-0.67733 0.58208,-0.42333 1.12183,-0.98425 0.55033,-0.56091 0.99483,-1.18533 0.4445,-0.62441 0.75141,-1.25941 0.30692,-0.64558 0.42333,-1.23824 0.0953,-0.43392 -0.0741,-0.65617 -0.16933,-0.23283 -0.47624,-0.23283 -0.35984,0 -0.77258,0.23283 -0.40217,0.23283 -0.77259,0.61383 -0.35983,0.37042 -0.63499,0.84667 -0.27517,0.46566 -0.35984,0.93133 -0.11641,0.58208 0.0529,0.88899 0.16934,0.30692 0.47625,0.45509 0.0953,0.0529 0.13759,0.0953 0.0529,0.0317 0.0318,0.11641 -0.0318,0.15875 -0.39159,0.15875 -0.29633,0 -0.64558,-0.10583 -0.34925,-0.10583 -0.635,-0.32808 -0.27516,-0.22225 -0.43391,-0.5715 -0.15875,-0.34925 -0.0635,-0.83608 0.10583,-0.52917 0.53975,-1.09008 0.4445,-0.5715 1.10066,-1.02658 0.65617,-0.46567 1.4605,-0.762 0.80433,-0.29633 1.64041,-0.29633 z"
           style="font-style:italic;font-size:10.5833px;line-height:1.25;font-family:Milkshake;-inkscape-font-specification:'Milkshake Italic';stroke:#ffcc00;stroke-width:0.547647;stroke-miterlimit:4;stroke-dasharray:none"
           id="path1788" />
        <path
           d="m 124.64628,211.4713 q -0.22225,0 -0.37041,-0.13759 -0.13758,-0.14816 -0.0953,-0.39158 0.0423,-0.17991 0.14816,-0.34925 0.11642,-0.17991 0.26459,-0.32808 0.14816,-0.15875 0.29633,-0.28575 0.14817,-0.127 0.254,-0.21166 0.0847,-0.0635 0.11641,-0.0847 0.0423,-0.0212 0.0847,-0.0212 0.10584,0 0.0847,0.10584 -0.0423,0.25399 0.0318,0.42333 0.0741,0.15875 0.29634,0.15875 0.13758,0 0.26458,-0.0212 0.127,-0.0212 0.24342,-0.0529 0.11641,-0.0317 0.23283,-0.0741 0.26458,-0.381 0.55033,-0.67733 0.24342,-0.254 0.52916,-0.46567 0.29634,-0.22224 0.5715,-0.22224 0.21167,0 0.33867,0.15874 0.13758,0.14817 0.0952,0.35984 -0.0423,0.22225 -0.33867,0.55033 -0.29633,0.32808 -0.75141,0.635 -0.14817,0.10583 -0.42333,0.43391 -0.27517,0.32808 -0.60325,0.80433 -0.32808,0.46567 -0.68792,1.04775 -0.34924,0.5715 -0.65616,1.15358 -0.30692,0.58208 -0.53975,1.13241 -0.23283,0.55033 -0.3175,0.97367 -0.0212,0.0952 -0.0635,0.14816 -0.0423,0.0635 -0.16933,0.0635 -0.0952,0 -0.23283,-0.0847 -0.13759,-0.0847 -0.26459,-0.21166 -0.11641,-0.13758 -0.19049,-0.28575 -0.0741,-0.15875 -0.0423,-0.29633 0.0529,-0.29633 0.25399,-0.71967 0.21167,-0.42333 0.48684,-0.88899 0.28575,-0.47625 0.59266,-0.94192 0.3175,-0.46566 0.58208,-0.84666 0.26459,-0.39158 0.4445,-0.635 0.1905,-0.254 0.21167,-0.29633 -0.0212,0.0106 -0.13759,0.0741 -0.11641,0.0635 -0.29633,0.13758 -0.16933,0.0635 -0.381,0.11642 -0.21166,0.0529 -0.41275,0.0529 z"
           style="font-style:italic;font-size:10.5833px;line-height:1.25;font-family:Milkshake;-inkscape-font-specification:'Milkshake Italic';stroke:#ffcc00;stroke-width:0.547647;stroke-miterlimit:4;stroke-dasharray:none"
           id="path1791" />
        <path
           d="m 132.18573,208.73022 q 0.34925,0 0.62441,0.10584 0.28575,0.0952 0.46567,0.29633 0.1905,0.1905 0.254,0.49741 0.0635,0.29633 -0.0106,0.68792 -0.0952,0.47625 -0.39159,1.11124 -0.29633,0.62442 -0.73024,1.29117 -0.42334,0.66674 -0.97367,1.31233 -0.53975,0.64558 -1.13241,1.15357 -0.59267,0.49742 -1.21708,0.81492 -0.62441,0.30691 -1.2065,0.30691 -0.37041,0 -0.68791,-0.11641 -0.3175,-0.11642 -0.52917,-0.35983 -0.20108,-0.24342 -0.28575,-0.60325 -0.0741,-0.37042 0.0318,-0.86783 0.13759,-0.68792 0.48684,-1.37583 0.35983,-0.68792 0.83608,-1.31233 0.48683,-0.62442 1.06891,-1.16416 0.59267,-0.53975 1.18533,-0.93133 0.59266,-0.39159 1.16416,-0.61384 0.58208,-0.23283 1.04775,-0.23283 z m -0.40217,0.74083 q -0.26458,0 -0.635,0.21167 -0.37041,0.21166 -0.77258,0.58208 -0.40216,0.37042 -0.81491,0.86783 -0.41275,0.48683 -0.762,1.04775 -0.34925,0.56091 -0.62441,1.16416 -0.26459,0.60325 -0.381,1.18533 -0.10584,0.52917 0.0635,0.80433 0.16933,0.27517 0.508,0.27517 0.34924,0 0.74083,-0.29634 0.39158,-0.29633 0.78316,-0.77258 0.40217,-0.47624 0.77258,-1.06891 0.381,-0.60325 0.67733,-1.19591 0.29634,-0.60325 0.508,-1.143 0.22225,-0.55033 0.29633,-0.93133 0.0741,-0.37041 -0.0318,-0.55033 -0.10583,-0.17992 -0.32808,-0.17992 z"
           style="font-style:italic;font-size:10.5833px;line-height:1.25;font-family:Milkshake;-inkscape-font-specification:'Milkshake Italic';stroke:#ffcc00;stroke-width:0.547647;stroke-miterlimit:4;stroke-dasharray:none"
           id="path1793" />
        <path
           d="m 133.85218,201.52147 q -0.22225,0 -0.37042,-0.13759 -0.13758,-0.14816 -0.0952,-0.39158 0.0423,-0.17991 0.14817,-0.34925 0.11642,-0.17991 0.26458,-0.32808 0.14817,-0.15875 0.29633,-0.28575 0.14817,-0.127 0.254,-0.21166 0.0847,-0.0635 0.11642,-0.0847 0.0423,-0.0212 0.0847,-0.0212 0.10583,0 0.0847,0.10584 -0.0423,0.254 0.0317,0.42333 0.0741,0.15875 0.29633,0.15875 0.13759,0 0.26459,-0.0212 0.127,-0.0212 0.24341,-0.0529 0.11642,-0.0318 0.23283,-0.0741 0.26459,-0.381 0.55034,-0.67733 0.24341,-0.254 0.52916,-0.46566 0.29633,-0.22225 0.5715,-0.22225 0.21167,0 0.33866,0.15875 0.13759,0.14816 0.0952,0.35983 -0.0423,0.22225 -0.33866,0.55033 -0.29633,0.32808 -0.75142,0.635 -0.14816,0.10583 -0.42333,0.43391 -0.27516,0.32808 -0.60325,0.80433 -0.32808,0.46567 -0.68791,1.04775 -0.34925,0.5715 -0.65616,1.15358 -0.30692,0.58208 -0.53975,1.13241 -0.23284,0.55033 -0.3175,0.97367 -0.0212,0.0952 -0.0635,0.14816 -0.0423,0.0635 -0.16933,0.0635 -0.0952,0 -0.23284,-0.0847 -0.13758,-0.0847 -0.26458,-0.21167 -0.11642,-0.13758 -0.1905,-0.28575 -0.0741,-0.15875 -0.0423,-0.29633 0.0529,-0.29633 0.254,-0.71967 0.21166,-0.42333 0.48683,-0.88899 0.28575,-0.47625 0.59267,-0.94192 0.31749,-0.46566 0.58208,-0.84666 0.26458,-0.39158 0.4445,-0.635 0.1905,-0.254 0.21166,-0.29633 -0.0212,0.0106 -0.13758,0.0741 -0.11642,0.0635 -0.29633,0.13758 -0.16934,0.0635 -0.381,0.11642 -0.21167,0.0529 -0.41275,0.0529 z"
           style="font-style:italic;font-size:10.5833px;line-height:1.25;font-family:Milkshake;-inkscape-font-specification:'Milkshake Italic';stroke:#ffcc00;stroke-width:0.547647;stroke-miterlimit:4;stroke-dasharray:none"
           id="path1796" />
        <path
           d="m 137.88293,201.52147 q -0.22225,0 -0.37042,-0.13759 -0.13758,-0.14816 -0.0953,-0.39158 0.0423,-0.17991 0.14817,-0.34925 0.11641,-0.17991 0.26458,-0.32808 0.14817,-0.15875 0.29633,-0.28575 0.14817,-0.127 0.254,-0.21166 0.0847,-0.0635 0.11642,-0.0847 0.0423,-0.0212 0.0847,-0.0212 0.10583,0 0.0847,0.10584 -0.0423,0.254 0.0318,0.42333 0.0741,0.15875 0.29633,0.15875 0.13759,0 0.26458,-0.0212 0.127,-0.0212 0.24342,-0.0529 0.11642,-0.0318 0.23283,-0.0741 0.26459,-0.381 0.55033,-0.67733 0.24342,-0.254 0.52917,-0.46566 0.29633,-0.22225 0.5715,-0.22225 0.21166,0 0.33866,0.15875 0.13759,0.14816 0.0952,0.35983 -0.0423,0.22225 -0.33866,0.55033 -0.29633,0.32808 -0.75142,0.635 -0.14816,0.10583 -0.42333,0.43391 -0.27516,0.32808 -0.60325,0.80433 -0.32808,0.46567 -0.68791,1.04775 -0.34925,0.5715 -0.65617,1.15358 -0.30691,0.58208 -0.53974,1.13241 -0.23284,0.55033 -0.3175,0.97367 -0.0212,0.0952 -0.0635,0.14816 -0.0423,0.0635 -0.16934,0.0635 -0.0952,0 -0.23283,-0.0847 -0.13758,-0.0847 -0.26458,-0.21167 -0.11642,-0.13758 -0.1905,-0.28575 -0.0741,-0.15875 -0.0423,-0.29633 0.0529,-0.29633 0.254,-0.71967 0.21166,-0.42333 0.48683,-0.88899 0.28575,-0.47625 0.59266,-0.94192 0.3175,-0.46566 0.58208,-0.84666 0.26459,-0.39158 0.4445,-0.635 0.1905,-0.254 0.21167,-0.29633 -0.0212,0.0106 -0.13758,0.0741 -0.11642,0.0635 -0.29634,0.13758 -0.16933,0.0635 -0.38099,0.11642 -0.21167,0.0529 -0.41275,0.0529 z"
           style="font-style:italic;font-size:10.5833px;line-height:1.25;font-family:Milkshake;-inkscape-font-specification:'Milkshake Italic';stroke:#ffcc00;stroke-width:0.547647;stroke-miterlimit:4;stroke-dasharray:none"
           id="path1798" />
        <path
           d="m 145.14652,199.91694 q -0.22225,0 -0.37041,-0.13758 -0.13759,-0.14816 -0.0953,-0.39158 0.0423,-0.17992 0.14816,-0.34925 0.11642,-0.17992 0.26459,-0.32808 0.14816,-0.15875 0.29633,-0.28575 0.14816,-0.127 0.254,-0.21167 0.0847,-0.0635 0.11641,-0.0847 0.0423,-0.0212 0.0847,-0.0212 0.10584,0 0.0847,0.10583 -0.0423,0.254 0.0318,0.42334 0.0741,0.15875 0.29634,0.15875 0.13758,0 0.26458,-0.0212 0.127,-0.0212 0.24341,-0.0529 0.11642,-0.0317 0.23284,-0.0741 0.26458,-0.381 0.55033,-0.67733 0.24341,-0.254 0.52916,-0.46567 0.29634,-0.22225 0.5715,-0.22225 0.21167,0 0.33867,0.15875 0.13758,0.14817 0.0952,0.35983 -0.0423,0.22225 -0.33867,0.55034 -0.29633,0.32808 -0.75141,0.63499 -0.14817,0.10584 -0.42333,0.43392 -0.27517,0.32808 -0.60325,0.80433 -0.32808,0.46567 -0.68792,1.04775 -0.34925,0.5715 -0.65616,1.15358 -0.30692,0.58208 -0.53975,1.13241 -0.23283,0.55033 -0.3175,0.97366 -0.0212,0.0952 -0.0635,0.14817 -0.0423,0.0635 -0.16933,0.0635 -0.0952,0 -0.23283,-0.0847 -0.13759,-0.0847 -0.26459,-0.21166 -0.11641,-0.13759 -0.1905,-0.28575 -0.0741,-0.15875 -0.0423,-0.29633 0.0529,-0.29634 0.254,-0.71967 0.21167,-0.42333 0.48683,-0.889 0.28575,-0.47624 0.59267,-0.94191 0.3175,-0.46566 0.58208,-0.84666 0.26458,-0.39159 0.4445,-0.635 0.1905,-0.254 0.21166,-0.29633 -0.0212,0.0106 -0.13758,0.0741 -0.11641,0.0635 -0.29633,0.13758 -0.16933,0.0635 -0.381,0.11642 -0.21167,0.0529 -0.41275,0.0529 z"
           style="font-style:italic;font-size:10.5833px;line-height:1.25;font-family:Milkshake;-inkscape-font-specification:'Milkshake Italic';stroke:#ffcc00;stroke-width:0.547647;stroke-miterlimit:4;stroke-dasharray:none"
           id="path1801" />
        <path
           d="m 153.04299,197.17587 q 0.41274,0 0.74083,0.11642 0.32808,0.10583 0.53975,0.32808 0.21166,0.21166 0.28574,0.51858 0.0847,0.29633 0.0106,0.67733 -0.0952,0.45508 -0.51858,1.03717 -0.41275,0.58208 -1.02658,1.19591 -0.61383,0.60325 -1.35466,1.20649 -0.74083,0.60325 -1.49225,1.10067 0.29634,0.0741 0.58209,0.11641 0.29633,0.0423 0.58208,0.0423 0.29633,0 0.53975,-0.0847 0.254,-0.0847 0.43391,-0.1905 0.1905,-0.10583 0.3175,-0.1905 0.127,-0.0847 0.17992,-0.0847 0.12699,0 0.10583,0.10583 -0.0106,0.0423 -0.10583,0.1905 -0.0952,0.13758 -0.254,0.32808 -0.14817,0.17992 -0.34925,0.39158 -0.1905,0.20108 -0.43392,0.37042 -0.23283,0.16933 -0.48683,0.28575 -0.24341,0.10583 -0.48683,0.10583 -0.39158,0 -0.83608,-0.22225 -0.4445,-0.22225 -0.89958,-0.47625 -0.5715,0.32808 -1.04775,0.51858 -0.47625,0.17992 -0.78316,0.17992 -0.52917,0 -0.78317,-0.28575 -0.26458,-0.28575 -0.1905,-0.66675 0.0423,-0.20108 0.16934,-0.39158 0.127,-0.20108 0.32808,-0.34925 0.1905,-0.14816 0.42333,-0.23283 0.24342,-0.0952 0.51858,-0.0952 0.30692,0 0.70908,0.11642 0.41275,0.10583 0.86783,0.25399 0.60325,-0.43391 1.23825,-1.00541 0.635,-0.58208 1.16416,-1.19591 0.53975,-0.61383 0.92075,-1.22766 0.381,-0.61384 0.47625,-1.13242 0.0741,-0.33866 -0.127,-0.53975 -0.1905,-0.20108 -0.52917,-0.20108 -0.29633,0 -0.68791,0.20108 -0.39158,0.1905 -0.77258,0.51859 -0.37042,0.31749 -0.65617,0.71966 -0.28574,0.40217 -0.37041,0.81491 -0.0423,0.22225 -0.0212,0.35984 0.0317,0.127 0.0952,0.1905 0.0635,0.0635 0.127,0.0847 0.0741,0.0212 0.127,0.0212 0.127,0 0.10583,0.10583 -0.0106,0.0529 -0.0847,0.127 -0.0635,0.0741 -0.1905,0.15875 -0.11642,0.0741 -0.29633,0.127 -0.16933,0.0529 -0.37042,0.0529 -0.21166,0 -0.41275,-0.0635 -0.20108,-0.0741 -0.34924,-0.20109 -0.14817,-0.13758 -0.22225,-0.32808 -0.0741,-0.1905 -0.0212,-0.43391 0.13758,-0.66675 0.62441,-1.22767 0.48683,-0.57149 1.143,-0.97366 0.66675,-0.41275 1.40758,-0.635 0.75141,-0.23283 1.39699,-0.23283 z m -5.43982,6.25473 q -0.24342,0 -0.381,0.0952 -0.13758,0.0847 -0.15875,0.1905 -0.0317,0.15875 0.0741,0.23283 0.11642,0.0635 0.254,0.0635 0.20108,0 0.45508,-0.0847 0.26459,-0.0953 0.5715,-0.26459 -0.22225,-0.10583 -0.43391,-0.16933 -0.20109,-0.0635 -0.381,-0.0635 z"
           style="font-style:italic;font-size:10.5833px;line-height:1.25;font-family:Milkshake;-inkscape-font-specification:'Milkshake Italic';stroke:#ffcc00;stroke-width:0.547647;stroke-miterlimit:4;stroke-dasharray:none"
           id="path1803" />
      </g>
    </g>
  </g>
</svg>
