<?xml version="1.0" encoding="UTF-8" standalone="no"?>
<svg
   xmlns:dc="http://purl.org/dc/elements/1.1/"
   xmlns:cc="http://creativecommons.org/ns#"
   xmlns:rdf="http://www.w3.org/1999/02/22-rdf-syntax-ns#"
   xmlns:svg="http://www.w3.org/2000/svg"
   xmlns="http://www.w3.org/2000/svg"
   xmlns:xlink="http://www.w3.org/1999/xlink"
   xmlns:sodipodi="http://sodipodi.sourceforge.net/DTD/sodipodi-0.dtd"
   xmlns:inkscape="http://www.inkscape.org/namespaces/inkscape"
   shape-rendering="crispEdges"
   width="793.70081"
   height="1122.5197"
   viewBox="0 0 210 297"
   version="1.1"
   id="svg8"
   inkscape:version="1.0 (6e3e5246a0, 2020-05-07)"
   sodipodi:docname="Lightning-Dax.svg">
  <defs
     id="defs2">
    <linearGradient
       id="linearGradient1063"
       inkscape:collect="always">
      <stop
         id="stop1059"
         offset="0"
         style="stop-color:#16fbe9;stop-opacity:1" />
      <stop
         id="stop1061"
         offset="1"
         style="stop-color:#efcf10;stop-opacity:1" />
    </linearGradient>
    <linearGradient
       inkscape:collect="always"
       id="linearGradient1026-1">
      <stop
         style="stop-color:#ffcc00;stop-opacity:1"
         offset="0"
         id="stop1022" />
      <stop
         style="stop-color:#00ffff;stop-opacity:1"
         offset="1"
         id="stop1024" />
    </linearGradient>
    <linearGradient
       inkscape:collect="always"
       id="linearGradient1016">
      <stop
         style="stop-color:#ffcc00;stop-opacity:1"
         offset="0"
         id="stop1012" />
      <stop
         style="stop-color:#00ffff;stop-opacity:1"
         offset="1"
         id="stop1014" />
    </linearGradient>
    <inkscape:perspective
       sodipodi:type="inkscape:persp3d"
       inkscape:vp_x="0 : 148.5 : 1"
       inkscape:vp_y="0 : 1000 : 0"
       inkscape:vp_z="210 : 148.5 : 1"
       inkscape:persp3d-origin="105 : 99 : 1"
       id="perspective851" />
    <rect
       x="59.8582"
       y="102.31645"
       width="146.99842"
       height="111.58122"
       id="rect837" />
    <clipPath
       clipPathUnits="userSpaceOnUse"
       id="clipPath892">
      <path
         d="m 193.06174,399.48923 c -4.06327,0 -8.06796,0.17802 -12.01172,0.53711 -3.82427,0.35906 -7.76681,0.53907 -11.83008,0.53907 l -20.97461,-0.004 -1.43359,6.81252 10.57617,2.1504 c 0.71704,0.11981 1.25475,0.53881 1.61328,1.25582 0.478,0.71683 0.65855,1.49337 0.53907,2.33012 l -15.41797,76.90428 c -0.23906,0.9561 -0.71655,1.7927 -1.4336,2.50975 -0.717,0.71705 -1.55366,1.13424 -2.50976,1.2539 l -11.11328,1.97269 -1.25586,6.6328 h 21.15234 c 3.46573,0 7.17146,0.12019 11.11524,0.35943 3.94376,0.35906 7.3486,0.53711 10.21678,0.53711 15.41653,0.35868 28.68267,-4.1218 39.79688,-13.44336 11.11423,-9.44111 18.4636,-23.24485 22.04883,-41.41013 3.22672,-15.89446 1.67376,-28.02501 -4.66015,-36.39065 -6.2144,-8.36553 -17.68687,-12.54686 -34.41797,-12.54686 z m -4.66211,7.35156 c 12.3093,0 20.73604,3.58537 25.27734,10.75586 4.66082,7.17052 5.43729,18.28388 2.33008,33.34182 -3.1072,15.65548 -8.30572,27.00948 -15.5957,34.06053 -7.28998,7.05056 -16.37283,10.69421 -27.24805,10.93357 -2.39015,0.11981 -5.13888,0.0597 -8.24609,-0.17953 -2.98771,-0.23924 -5.37731,-0.59656 -7.16992,-1.07421 l 17.38867,-86.94138 c 1.4341,-0.11981 3.286,-0.29783 5.55663,-0.53711 2.39017,-0.23925 4.95836,-0.35944 7.70704,-0.35944 z m 93.66015,19.71874 c -6.81194,0 -13.20625,1.31422 -19.18163,3.94337 -5.9754,2.62923 -10.39744,6.51353 -13.26564,11.65236 l 2.86915,3.22655 c 3.70475,-2.98768 7.52891,-5.1385 11.47265,-6.45313 3.94377,-1.3146 7.94651,-1.97265 12.00977,-1.97265 5.49736,0 9.3215,1.37431 11.47265,4.12305 2.15111,2.62915 2.57044,7.35012 1.25586,14.16211 l -1.79297,8.78321 -15.23828,1.25586 c -3.34622,0.23811 -6.87143,0.77454 -10.57616,1.61133 -3.58525,0.71705 -6.93187,1.85253 -10.03906,3.40622 -2.98771,1.55358 -5.61608,3.58606 -7.88673,6.0957 -2.15119,2.50968 -3.64589,5.67583 -4.48242,9.50003 -1.07558,5.85596 0.06,10.33818 3.40626,13.44529 3.3462,2.98768 8.00702,4.48245 13.98242,4.48245 4.54129,0 9.02352,-0.83675 13.44531,-2.5098 4.54128,-1.79263 8.48581,-4.1842 11.83203,-7.17188 0.1195,2.98768 1.01438,5.31916 2.68749,6.9922 1.79261,1.55369 4.24241,2.33008 7.34962,2.33008 2.03162,0 4.363,-0.29896 6.99219,-0.89647 2.74867,-0.59739 4.72092,-1.07451 5.916,-1.43361 l 1.25391,-6.0957 -7.16991,-0.71678 c -1.31455,-0.11981 -2.27156,-0.4769 -2.86915,-1.07422 -0.47801,-0.71705 -0.53625,-1.79248 -0.17775,-3.22658 l 7.34961,-36.74997 c 1.79263,-8.963 0.95597,-15.65432 -2.50976,-20.07617 -3.46574,-4.42179 -9.50091,-6.63285 -18.10547,-6.63285 z m 45.61329,1.79297 -1.25587,6.27345 4.83984,1.07618 c 0.83652,0.11981 1.55477,0.41688 2.15235,0.8945 0.71703,0.478 1.19452,1.07592 1.43359,1.79297 l 14.87891,27.42777 -25.81445,26.70898 c -0.71709,0.71705 -1.49356,1.25616 -2.33008,1.61522 -0.83651,0.35792 -1.7314,0.59712 -2.6875,0.71678 l -6.63281,0.89454 -1.25587,6.63285 h 31.19141 l 1.25586,-6.63285 -10.57617,-1.25586 20.61328,-22.58789 10.75586,22.58789 -9.32031,1.25393 -1.25586,6.63281 h 34.41796 l 1.25586,-6.63281 -5.19923,-0.71486 c -0.95603,-0.11981 -1.7325,-0.35867 -2.33008,-0.71678 -0.59758,-0.47804 -1.07505,-1.07596 -1.43361,-1.79297 l -15.59567,-28.86134 24.91602,-25.45509 c 0.59751,-0.59735 1.2556,-1.13563 1.97265,-1.61329 0.8366,-0.47765 1.67324,-0.77484 2.50976,-0.8945 l 6.09571,-1.07618 1.25389,-6.27345 h -28.50194 l -1.25585,6.27345 9.32226,1.61329 -20.07812,21.51171 -10.57618,-21.51171 9.67969,-1.61329 1.25586,-6.27345 z m -42.20704,42.48242 -3.40625,17.56838 c -2.74868,1.9121 -5.85654,3.46499 -9.32226,4.66016 -3.34622,1.0761 -6.57249,1.61521 -9.6797,1.61521 v -0.002 c -3.70473,0 -6.33505,-0.89488 -7.88866,-2.68747 -1.4341,-1.79263 -1.85148,-4.24237 -1.2539,-7.34963 0.83655,-4.06322 2.80879,-7.05079 5.916,-8.96289 3.22672,-2.03112 7.5284,-3.22681 12.90626,-3.58594 z"
         style="font-style:italic;font-variant:normal;font-weight:normal;font-stretch:normal;font-size:10.5833px;line-height:1.25;font-family:Rasa;-inkscape-font-specification:'Rasa Italic';font-variant-ligatures:normal;font-variant-caps:normal;font-variant-numeric:normal;font-variant-east-asian:normal;white-space:pre;opacity:0.414318;fill:#ff0000;fill-opacity:1;stroke-width:0.999999"
         id="path894" />
    </clipPath>
    <filter
       inkscape:collect="always"
       style="color-interpolation-filters:sRGB"
       id="filter1008"
       x="-0.040294557"
       width="1.0805891"
       y="-0.081560086"
       height="1.1631202">
      <feGaussianBlur
         inkscape:collect="always"
         stdDeviation="14.466428"
         id="feGaussianBlur1010" />
    </filter>
    <linearGradient
       inkscape:collect="always"
       xlink:href="#linearGradient1016"
       id="linearGradient1020"
       gradientUnits="userSpaceOnUse"
       x1="177.76358"
       y1="451.65524"
       x2="389.02914"
       y2="453.01184"
       gradientTransform="translate(0,7.3589035)" />
    <linearGradient
       inkscape:collect="always"
       xlink:href="#linearGradient1026-1"
       id="linearGradient1028"
       x1="20.830168"
       y1="109.41113"
       x2="85.945061"
       y2="109.94185"
       gradientUnits="userSpaceOnUse" />
    <linearGradient
       inkscape:collect="always"
       xlink:href="#linearGradient1063"
       id="linearGradient1057"
       x1="27.854788"
       y1="108.05045"
       x2="38.353642"
       y2="108.05045"
       gradientUnits="userSpaceOnUse" />
    <linearGradient
       y2="108.05045"
       x2="38.353642"
       y1="108.05045"
       x1="27.854788"
       gradientUnits="userSpaceOnUse"
       id="linearGradient861"
       xlink:href="#linearGradient1063"
       inkscape:collect="always" />
  </defs>
  <sodipodi:namedview
     inkscape:pagecheckerboard="false"
     id="base"
     pagecolor="#180a87"
     bordercolor="#666666"
     borderopacity="1.0"
     inkscape:pageopacity="0"
     inkscape:pageshadow="2"
     inkscape:zoom="2.803215"
     inkscape:cx="213.5592"
     inkscape:cy="431.23909"
     inkscape:document-units="mm"
     inkscape:current-layer="layer1"
     inkscape:document-rotation="0"
     showgrid="false"
     showborder="true"
     units="px"
     inkscape:snap-nodes="false"
     inkscape:window-width="1846"
     inkscape:window-height="1016"
     inkscape:window-x="74"
     inkscape:window-y="27"
     inkscape:window-maximized="1" />
  <metadata
     id="metadata5">
    <rdf:RDF>
      <cc:Work
         rdf:about="">
        <dc:format>image/svg+xml</dc:format>
        <dc:type
           rdf:resource="http://purl.org/dc/dcmitype/StillImage" />
        <dc:title></dc:title>
      </cc:Work>
    </rdf:RDF>
  </metadata>
  <g
     inkscape:label="Layer 1"
     inkscape:groupmode="layer"
     id="layer1">
    <rect
       y="85.630775"
       x="8.2353115"
       height="51.559116"
       width="104.10785"
       id="rect863"
       style="opacity:1;fill:#800000;fill-opacity:0;fill-rule:evenodd;stroke-width:0.264583;stroke-linecap:round" />
    <path
       sodipodi:nodetypes="ccccccc"
       id="path859"
       d="m 36.346393,98.376842 -5.084529,9.191208 6.514673,-3.21235 -7.772028,14.04554 4.331348,-10.8537 -6.185543,3.09835 z"
       style="opacity:0.53309;fill:url(#linearGradient861);fill-opacity:1;stroke:none;stroke-width:0.264583px;stroke-linecap:butt;stroke-linejoin:miter;stroke-opacity:1" />
    <path
       id="rect867"
       style="opacity:0.695642;fill:url(#linearGradient1020);fill-opacity:1;fill-rule:evenodd;stroke-width:0.999999;stroke-linecap:round;stroke-miterlimit:4;stroke-dasharray:none;filter:url(#filter1008)"
       d="M -162.98047,241.30273 V 666.99414 H 698.66016 V 241.30273 Z m 359.21289,160.67969 c 16.7311,0 28.20357,4.18135 34.41797,12.54688 6.33392,8.36564 7.88687,20.49616 4.66016,36.39062 -3.58524,18.16528 -10.9346,31.96905 -22.04883,41.41016 -11.11422,9.32156 -24.38035,13.80203 -39.79688,13.44336 -2.86819,0 -6.27303,-0.17806 -10.21679,-0.53711 -3.94377,-0.23925 -7.64951,-0.35938 -11.11524,-0.35938 h -21.15234 l 1.25586,-6.63281 11.11328,-1.97266 c 0.9561,-0.11966 1.79277,-0.53685 2.50977,-1.2539 0.71705,-0.71705 1.19453,-1.55366 1.43359,-2.50977 l 15.41797,-76.90429 c 0.11948,-0.83675 -0.0611,-1.61326 -0.53906,-2.33008 -0.35853,-0.71702 -0.89624,-1.13605 -1.61329,-1.25586 l -10.57617,-2.15039 1.4336,-6.8125 20.9746,0.004 c 4.06327,0 8.00582,-0.18 11.83008,-0.53906 3.94376,-0.35909 7.94845,-0.53711 12.01172,-0.53711 z m -4.66211,7.35156 c -2.74868,0 -5.31687,0.12014 -7.70703,0.35938 -2.27064,0.23928 -4.12254,0.4173 -5.55664,0.53711 l -17.38867,86.94141 c 1.79261,0.47765 4.18222,0.83497 7.16992,1.07421 3.10721,0.23925 5.85594,0.2995 8.24609,0.17969 10.87522,-0.23936 19.95807,-3.88304 27.24805,-10.93359 7.28998,-7.05105 12.48851,-18.40507 15.5957,-34.06055 3.10721,-15.05794 2.33075,-26.17128 -2.33007,-33.3418 -4.5413,-7.17048 -12.96804,-10.75586 -25.27735,-10.75586 z m 93.66016,19.71875 c 8.60456,0 14.63973,2.21103 18.10547,6.63282 3.46573,4.42186 4.30239,11.11317 2.50976,20.07617 l -7.34961,36.75 c -0.3585,1.4341 -0.30027,2.50951 0.17774,3.22656 0.59758,0.59732 1.55459,0.95441 2.86914,1.07422 l 7.16992,0.7168 -1.25391,6.0957 c -1.19507,0.35909 -3.16733,0.8362 -5.91601,1.43359 -2.62918,0.59751 -4.96056,0.89649 -6.99219,0.89649 -3.10721,0 -5.557,-0.77639 -7.34961,-2.33008 -1.67311,-1.67305 -2.56799,-4.00451 -2.6875,-6.99219 -3.34622,2.98768 -7.29074,5.37925 -11.83203,7.17188 -4.42179,1.67304 -8.90401,2.50976 -13.44531,2.50976 -5.9754,0 -10.63622,-1.49474 -13.98242,-4.48242 -3.34625,-3.10711 -4.48182,-7.58935 -3.40625,-13.44531 0.83653,-3.8242 2.33123,-6.99032 4.48242,-9.5 2.27064,-2.50965 4.89901,-4.54213 7.88672,-6.0957 3.1072,-1.55369 6.45382,-2.6892 10.03906,-3.40625 3.70474,-0.83679 7.22995,-1.37322 10.57617,-1.61133 l 15.23828,-1.25586 1.79297,-8.7832 c 1.31458,-6.812 0.89524,-11.53296 -1.25586,-14.16211 -2.15115,-2.74874 -5.97529,-4.12305 -11.47265,-4.12305 -4.06326,0 -8.06601,0.65806 -12.00977,1.97266 -3.94375,1.31463 -7.76791,3.46544 -11.47266,6.45312 l -2.86914,-3.22656 c 2.8682,-5.13884 7.29023,-9.02312 13.26563,-11.65235 5.97539,-2.62915 12.36969,-3.94336 19.18164,-3.94336 z m 45.61328,1.79297 h 33.70117 l -1.25586,6.27344 -9.67968,1.61328 10.57617,21.51172 20.07812,-21.51172 -9.32226,-1.61328 1.25586,-6.27344 h 28.50195 l -1.25391,6.27344 -6.0957,1.07617 c -0.83652,0.11966 -1.67317,0.41688 -2.50977,0.89453 -0.71705,0.47766 -1.37515,1.01593 -1.97265,1.61328 l -24.91602,25.45508 15.59571,28.86133 c 0.35856,0.71702 0.83601,1.31494 1.43359,1.79297 0.59758,0.35811 1.37405,0.59699 2.33008,0.7168 l 5.19922,0.71484 -1.25586,6.63281 h -34.41797 l 1.25586,-6.63281 9.32031,-1.25391 -10.75586,-22.58789 -20.61328,22.58789 10.57617,1.25586 -1.25586,6.63282 h -31.1914 l 1.25585,-6.63282 6.63282,-0.89453 c 0.9561,-0.11966 1.85099,-0.35887 2.6875,-0.71679 0.83652,-0.35906 1.61299,-0.89819 2.33007,-1.61524 l 25.81446,-26.70898 -14.87891,-27.42774 c -0.23907,-0.71705 -0.71656,-1.31497 -1.43359,-1.79297 -0.59758,-0.47762 -1.31583,-0.77472 -2.15235,-0.89453 l -4.83984,-1.07617 z m -42.20703,42.48242 -12.72852,1.25586 c -5.37785,0.35914 -9.67954,1.55482 -12.90625,3.58594 -3.10721,1.9121 -5.07946,4.89967 -5.91601,8.96289 -0.59758,3.10727 -0.1802,5.55698 1.2539,7.34961 1.55361,1.79259 4.18394,2.6875 7.88868,2.6875 v 0.002 c 3.10721,0 6.33346,-0.53913 9.67968,-1.61524 3.46573,-1.19516 6.57359,-2.74805 9.32227,-4.66016 z"
       transform="matrix(0.26458333,0,0,0.26458333,-16.98556,-11.864575)"
       clip-path="url(#clipPath892)" />
    <path
       id="path841"
       style="font-style:italic;font-variant:normal;font-weight:normal;font-stretch:normal;font-size:10.5833px;line-height:1.25;font-family:Rasa;-inkscape-font-specification:'Rasa Italic';font-variant-ligatures:normal;font-variant-caps:normal;font-variant-numeric:normal;font-variant-east-asian:normal;white-space:pre;fill:url(#linearGradient1028);fill-opacity:1;stroke-width:1"
       d="m 34.934364,94.493025 c -1.075074,0 -2.134648,0.0471 -3.178101,0.14211 -1.011836,0.095 -2.054969,0.14263 -3.130042,0.14263 l -5.549532,-0.001 -0.379304,1.80248 2.798278,0.56896 c 0.189719,0.0317 0.331988,0.14256 0.426847,0.33227 0.126473,0.18966 0.174241,0.39512 0.142629,0.616512 l -4.079338,20.347593 c -0.06325,0.25297 -0.189587,0.47432 -0.379307,0.66404 -0.189706,0.18972 -0.411072,0.3001 -0.66404,0.33176 l -2.940389,0.52194 -0.33228,1.75493 h 5.596557 c 0.916974,0 1.897451,0.0318 2.940907,0.0951 1.043453,0.095 1.944317,0.14211 2.703192,0.14211 4.078955,0.0949 7.588954,-1.09056 10.529591,-3.55689 2.94064,-2.49796 4.885159,-6.1502 5.833753,-10.95643 0.853734,-4.20541 0.442849,-7.41495 -1.233,-9.628365 -1.644227,-2.21338 -4.679651,-3.31969 -9.106421,-3.31969 z m -1.233517,1.9451 c 3.256838,0 5.486413,0.94863 6.687963,2.845822 1.233175,1.897203 1.438616,4.837613 0.6165,8.821693 -0.822113,4.14218 -2.197555,7.14626 -4.126362,9.01185 -1.928807,1.86546 -4.331978,2.82951 -7.20938,2.89284 -0.632394,0.0317 -1.359662,0.0158 -2.181778,-0.0475 -0.790496,-0.0633 -1.422746,-0.15784 -1.897041,-0.28422 l 4.600752,-23.003245 c 0.379439,-0.0317 0.869421,-0.0788 1.470194,-0.14211 0.632397,-0.0633 1.311897,-0.0951 2.039152,-0.0951 z m 24.780917,5.217255 c -1.802328,0 -3.494154,0.34772 -5.075142,1.04335 -1.580991,0.69565 -2.750987,1.72337 -3.509865,3.08302 l 0.759127,0.85369 c 0.980215,-0.79049 1.992024,-1.35956 3.035474,-1.70739 1.043454,-0.34782 2.102512,-0.52193 3.177583,-0.52193 1.454512,0 2.466316,0.36362 3.035474,1.09089 0.569146,0.69563 0.680096,1.94472 0.33228,3.74706 l -0.47439,2.32389 -4.031795,0.33228 c -0.885354,0.063 -1.818066,0.20493 -2.798278,0.42633 -0.948595,0.18972 -1.834055,0.49015 -2.656168,0.90123 -0.790498,0.41105 -1.485921,0.94881 -2.086695,1.61282 -0.569169,0.66402 -0.964644,1.50173 -1.185976,2.51355 -0.284578,1.54939 0.01588,2.73531 0.90124,3.5574 0.885351,0.79049 2.118524,1.18598 3.699515,1.18598 1.201552,0 2.387473,-0.22139 3.557405,-0.66405 1.201549,-0.4743 2.245204,-1.10707 3.130558,-1.89756 0.03162,0.79049 0.26839,1.40736 0.711067,1.85002 0.474295,0.41108 1.122469,0.6165 1.944585,0.6165 0.537535,0 1.154379,-0.0791 1.850017,-0.23719 0.727254,-0.15806 1.249079,-0.2843 1.565277,-0.37931 l 0.331764,-1.61282 -1.897041,-0.18965 c -0.347808,-0.0317 -0.601017,-0.12618 -0.759127,-0.28422 -0.126474,-0.18972 -0.141885,-0.47426 -0.04703,-0.8537 l 1.944584,-9.72343 c 0.4743,-2.37146 0.252934,-4.14187 -0.66404,-5.31182 -0.916977,-1.16993 -2.513783,-1.75494 -4.790406,-1.75494 z m 12.068514,0.47439 -0.33228,1.65985 1.280541,0.28474 c 0.221329,0.0317 0.411366,0.1103 0.569476,0.23667 0.189714,0.12647 0.31605,0.28467 0.379304,0.47439 l 3.936711,7.25693 -6.830075,7.06675 c -0.189728,0.18972 -0.395169,0.33236 -0.616498,0.42736 -0.221327,0.0947 -0.4581,0.15799 -0.711068,0.18965 l -1.754933,0.23668 -0.33228,1.75494 h 8.252727 l 0.33228,-1.75494 -2.798279,-0.33228 5.453931,-5.97638 2.845821,5.97638 -2.465999,0.33177 -0.332279,1.75493 H 86.5338 l 0.33228,-1.75493 -1.37563,-0.18914 c -0.25295,-0.0317 -0.45839,-0.0949 -0.6165,-0.18965 -0.15811,-0.12648 -0.28444,-0.28468 -0.37931,-0.47439 l -4.126358,-7.63623 6.592368,-6.73499 c 0.15809,-0.15805 0.33221,-0.30047 0.52193,-0.42685 0.22135,-0.12638 0.44271,-0.20501 0.66404,-0.23667 l 1.61282,-0.28474 0.33176,-1.65985 h -7.54114 l -0.332277,1.65985 2.466517,0.42685 -5.312338,5.69164 -2.798281,-5.69164 2.561085,-0.42685 0.332279,-1.65985 z m -11.167277,11.24014 -0.901237,4.6483 c -0.727255,0.50591 -1.549543,0.91678 -2.466517,1.233 -0.885354,0.28472 -1.738969,0.42736 -2.561085,0.42736 v -5.2e-4 c -0.980212,0 -1.676151,-0.23677 -2.08721,-0.71106 -0.379439,-0.4743 -0.489871,-1.12246 -0.331761,-1.94459 0.221337,-1.07506 0.743161,-1.86552 1.565277,-2.37143 0.853734,-0.5374 1.991889,-0.85376 3.414779,-0.94878 z" />
    <path
       style="fill:url(#linearGradient1057);fill-opacity:1;stroke:none;stroke-width:0.264583px;stroke-linecap:butt;stroke-linejoin:miter;stroke-opacity:1"
       d="m 37.446651,98.376842 -5.084529,9.191208 6.514673,-3.21235 -7.772028,14.04554 4.331348,-10.8537 -6.185543,3.09835 z"
       id="path1036"
       sodipodi:nodetypes="ccccccc" />
    <path
       style="opacity:0.3217745;fill:#e2d21d;fill-opacity:1;stroke:none;stroke-width:0.264583px;stroke-linecap:butt;stroke-linejoin:miter;stroke-opacity:1"
       d="m 53.352165,80.01316 -8.065535,9.747595 5.861274,-1.725475 -5.695371,7.71064 5.280844,-1.899176 -5.946509,8.261196 9.404509,-9.993703 -5.326075,1.367439 6.108736,-8.885933 -7.78577,4.162888 z"
       id="path875"
       sodipodi:nodetypes="ccccccccccc" />
    <path
       style="opacity:0.3217745;fill:#e2d21d;fill-opacity:1;stroke:none;stroke-width:0.264583px;stroke-linecap:butt;stroke-linejoin:miter;stroke-opacity:1"
       d="m 43.658893,118.95225 -8.065535,9.7476 5.861274,-1.72548 -5.695371,7.71064 5.280844,-1.89917 -5.946509,8.2612 9.404509,-9.99371 -5.326075,1.36744 6.108736,-8.88593 -7.78577,4.16289 z"
       id="path877"
       sodipodi:nodetypes="ccccccccccc" />
    <path
       style="opacity:0.3217745;fill:#e2d21d;fill-opacity:1;stroke:none;stroke-width:0.264583px;stroke-linecap:butt;stroke-linejoin:miter;stroke-opacity:1"
       d="m 96.452573,109.7036 -8.065535,9.74759 5.861274,-1.72547 -5.695371,7.71064 5.280844,-1.89918 -5.946509,8.2612 9.404509,-9.99371 -5.326075,1.36744 6.108736,-8.88593 -7.78577,4.16289 z"
       id="path879"
       sodipodi:nodetypes="ccccccccccc" />
    <path
       style="opacity:0.3217745;fill:#e2d21d;fill-opacity:1;stroke:none;stroke-width:0.264583px;stroke-linecap:butt;stroke-linejoin:miter;stroke-opacity:1"
       d="m 14.543217,87.794618 -8.065535,9.747595 5.861274,-1.725475 -5.695371,7.710642 5.280844,-1.89918 -5.946509,8.2612 9.404509,-9.993705 -5.326075,1.367435 6.108736,-8.885929 -7.78577,4.162888 z"
       id="path881"
       sodipodi:nodetypes="ccccccccccc" />
    <path
       sodipodi:nodetypes="ccccccccccc"
       id="path865"
       d="m 92.148255,79.502767 -8.065536,9.747595 5.861276,-1.725475 -5.695373,7.71064 5.280843,-1.899176 -5.946508,8.261199 9.404508,-9.993706 -5.326074,1.367439 6.108734,-8.885933 -7.785768,4.162888 z"
       style="opacity:0.3217745;fill:#e2d21d;fill-opacity:1;stroke:none;stroke-width:0.264583px;stroke-linecap:butt;stroke-linejoin:miter;stroke-opacity:1" />
  </g>
</svg>
