<?xml version="1.0" encoding="UTF-8" standalone="no"?>
<svg
   xmlns:dc="http://purl.org/dc/elements/1.1/"
   xmlns:cc="http://creativecommons.org/ns#"
   xmlns:rdf="http://www.w3.org/1999/02/22-rdf-syntax-ns#"
   xmlns:svg="http://www.w3.org/2000/svg"
   xmlns="http://www.w3.org/2000/svg"
   xmlns:sodipodi="http://sodipodi.sourceforge.net/DTD/sodipodi-0.dtd"
   xmlns:inkscape="http://www.inkscape.org/namespaces/inkscape"
   version="1.1"
   id="svg830"
   width="1600"
   height="1308"
   viewBox="0 0 1600 1308"
   sodipodi:docname="Lion-And-Tiger-Heart.svg"
   inkscape:version="1.0.2 (e86c870879, 2021-01-15, custom)">
  <metadata
     id="metadata836">
    <rdf:RDF>
      <cc:Work
         rdf:about="">
        <dc:format>image/svg+xml</dc:format>
        <dc:type
           rdf:resource="http://purl.org/dc/dcmitype/StillImage" />
        <dc:title></dc:title>
      </cc:Work>
    </rdf:RDF>
  </metadata>
  <defs
     id="defs834" />
  <sodipodi:namedview
     pagecolor="#ffffff"
     bordercolor="#666666"
     borderopacity="1"
     objecttolerance="10"
     gridtolerance="10"
     guidetolerance="10"
     inkscape:pageopacity="0"
     inkscape:pageshadow="2"
     inkscape:window-width="1920"
     inkscape:window-height="1017"
     id="namedview832"
     showgrid="false"
     showborder="true"
     inkscape:zoom="0.5"
     inkscape:cx="900"
     inkscape:cy="642.62549"
     inkscape:window-x="-8"
     inkscape:window-y="-8"
     inkscape:window-maximized="1"
     inkscape:current-layer="g838" />
  <g
     inkscape:groupmode="layer"
     inkscape:label="Image"
     id="g838">
    <path
       id="path915"
       style="fill:#cd1616;fill-opacity:1;stroke-width:10;stroke-linecap:round;stroke-linejoin:round"
       d="M 1151.235,15.968865 C 1008.3915,15.924934 879.49921,59.945507 775.01194,144.47042 750.6158,164.20567 728.79839,180.33327 726.52839,180.31861 724.25841,180.30327 705.7985,167.04663 685.52045,150.8601 570.20018,58.807813 471.15696,23.038104 316.67693,17.642776 196.59599,13.448815 93.123352,33.968377 43.882612,71.742065 -38.594206,131.48028 289.42284,1002.2283 283.2166,728.33113 c -0.73219,-9.11503 -0.27031,-13.7725 2.45388,-24.3408 l 3.37785,-13.07933 -9.37752,-8.67557 c -5.15806,-4.77175 -12.44485,-11.4468 -16.19321,-14.84923 -3.74827,-3.40241 -9.19701,-9.65765 -12.10741,-13.88331 -8.10991,-11.77537 -8.38779,-20.52183 -1.6199,-51.86741 2.19111,-10.14831 2.16507,-11.26406 -0.73795,-23.27282 -3.44145,-14.2362 -3.01833,-20.49813 2.18387,-31.93039 6.13017,-13.47178 18.60319,-25.86805 34.36029,-34.16232 8.9183,-4.69449 52.93005,-19.90942 62.30687,-21.53892 11.60643,-2.01706 53.53919,-21.62478 59.24702,-27.70058 2.00924,-2.13868 3.56491,-6.43924 4.3618,-12.07739 0.68134,-4.82102 2.26752,-10.77414 3.5278,-13.21137 3.79994,-7.34807 17.50175,-18.31665 37.92413,-30.35847 45.91186,-27.07178 59.57098,-36.79684 59.57098,-42.40588 0,-1.35425 -2.04828,-7.14714 -4.55976,-12.86934 -3.80331,-8.66537 -4.43039,-11.64488 -3.7858,-17.8911 3.48087,-33.72744 43.30212,-60.72785 110.05846,-74.58827 26.37634,-5.47652 47.67775,-10.64158 61.47891,-14.92124 11.30735,-3.50652 23.13413,-4.93637 40.162,-4.55976 5.676,0.12595 11.93804,0.45666 18.94106,0.97193 38.31833,2.81806 59.19287,8.37419 90.99142,24.22679 17.99248,8.96976 32.04755,17.73878 48.45956,30.22049 15.72396,11.95838 23.64133,16.59727 38.65006,22.63686 25.14711,10.11915 53.16816,32.11971 64.35881,50.54148 5.05962,8.32904 25.48958,51.353 27.71848,58.37705 3.2544,10.25263 21.6106,47.67354 28.3727,57.83112 9.1181,13.69671 15.0797,20.22894 27.6166,30.26247 5.0307,4.02624 9.1436,8.25147 9.1436,9.38954 0,1.13814 -0.2289,2.0699 -0.51,2.0699 -1.9528,0 -11.3514,-3.95701 -15.5993,-6.5697 -2.8173,-1.73289 -7.7989,-4.20183 -11.0753,-5.48973 -19.0339,-7.48152 -4.3395,14.40293 16.0251,23.86684 4.9286,2.2906 13.5265,4.88322 19.097,5.7597 14.8887,2.34269 15.04,2.58204 7.4277,11.69341 -2.8174,3.37207 -5.1297,7.68088 -5.1297,9.5755 0,1.89472 -1.6036,5.18571 -3.57,7.30765 -3.9919,4.30719 -3.6503,6.48767 2.772,17.50712 10.25,17.58801 16.0489,40.01936 22.6969,87.8176 8.0128,57.61412 14.4401,86.72877 22.7988,103.27281 0.8528,1.68767 2.611,4.28949 4.6137,7.01967 11.7272,-15.13601 22.7043,-29.34812 35.5243,-45.82571 48.097,-147.00561 315.9682,-470.2727 263.9269,-643.281734 C 1412.6765,52.219472 1291.9881,16.012761 1151.235,15.968865 Z M 598.04481,852.99889 c -6.57259,0 -23.05684,14.74013 -23.05684,20.61494 0,6.74546 -23.28761,44.41798 -35.10424,56.79914 -7.82794,8.20217 -11.79093,9.97051 -22.60085,10.07948 -7.20766,0.0736 -18.51116,2.26085 -25.13877,4.87175 -6.62766,2.611 -16.13019,4.61307 -21.10092,4.43382 -4.56379,-0.16408 -13.58642,1.79383 -22.96686,4.48777 102.26288,138.08401 166.3679,237.10601 208.55556,322.77771 2.5076,1.222 4.57173,2.1528 9.37751,4.7999 13.96279,7.6909 15.01614,7.6497 35.99221,-1.656 8.98733,-3.987 16.83444,-5.5322 21.78492,-4.2898 7.23435,1.8158 20.58704,12.1964 25.49871,18.6831 l 36.34617,2.5139 c 18.94761,-40.2846 41.36815,-82.5906 63.84881,-119.622 2.0609,-3.3948 4.22053,-6.7459 6.29366,-10.1214 -1.62128,-13.7193 -8.45993,-29.4812 -18.70106,-38.7222 -12.63718,-11.403 -44.83292,-63.6841 -45.08173,-73.2083 -0.25897,-9.9141 -11.83641,-25.2102 -36.94614,-48.8256 l -27.25664,-25.64265 -2.57388,-32.93235 c -1.41381,-18.11532 -3.71475,-34.09115 -5.12974,-35.5062 -1.42201,-1.42205 -6.33911,2.34577 -10.97944,8.42962 -4.64629,6.09158 -15.05883,14.08389 -23.31482,17.90905 l -14.92127,6.92365 -17.06313,-8.9636 c -17.97894,-9.44147 -21.01188,-13.4352 -21.38293,-28.10251 -0.42887,-16.96748 -6.42415,-31.35476 -18.14309,-43.55185 -6.44092,-6.70372 -13.74697,-12.1794 -16.2352,-12.17937 z"
       sodipodi:nodetypes="cscssccccsssssssssssssssssscsssscssssssssssssssccccssssscccsssccscsscccsscccsss" />
  </g>
</svg>
