<?xml version="1.0" encoding="UTF-8" standalone="no"?>
<svg
   xmlns:dc="http://purl.org/dc/elements/1.1/"
   xmlns:cc="http://creativecommons.org/ns#"
   xmlns:rdf="http://www.w3.org/1999/02/22-rdf-syntax-ns#"
   xmlns:svg="http://www.w3.org/2000/svg"
   xmlns="http://www.w3.org/2000/svg"
   xmlns:sodipodi="http://sodipodi.sourceforge.net/DTD/sodipodi-0.dtd"
   xmlns:inkscape="http://www.inkscape.org/namespaces/inkscape"
   version="1.1"
   id="svg830"
   width="1600"
   height="1308"
   viewBox="0 0 1600 1308"
   sodipodi:docname="Lion-And-Tiger-Circle.svg"
   inkscape:version="1.0.2 (e86c870879, 2021-01-15, custom)">
  <metadata
     id="metadata836">
    <rdf:RDF>
      <cc:Work
         rdf:about="">
        <dc:format>image/svg+xml</dc:format>
        <dc:type
           rdf:resource="http://purl.org/dc/dcmitype/StillImage" />
        <dc:title />
      </cc:Work>
    </rdf:RDF>
  </metadata>
  <defs
     id="defs834" />
  <sodipodi:namedview
     pagecolor="#ffffff"
     bordercolor="#666666"
     borderopacity="1"
     objecttolerance="10"
     gridtolerance="10"
     guidetolerance="10"
     inkscape:pageopacity="0"
     inkscape:pageshadow="2"
     inkscape:window-width="1920"
     inkscape:window-height="1017"
     id="namedview832"
     showgrid="false"
     showborder="true"
     inkscape:zoom="0.5"
     inkscape:cx="810"
     inkscape:cy="579"
     inkscape:window-x="-8"
     inkscape:window-y="-8"
     inkscape:window-maximized="1"
     inkscape:current-layer="g838"
     inkscape:document-rotation="0" />
  <g
     inkscape:groupmode="layer"
     inkscape:label="Image"
     id="g838">
    <path
       style="opacity:1;fill:#f58200;fill-opacity:1;stroke-width:10;stroke-linecap:round;stroke-linejoin:round"
       d="m 792.00005,31.608853 c -347.05086,0 -628.39117,281.340317 -628.39112,628.391167 0,347.05088 281.34029,628.39108 628.39112,628.39108 24.28852,0 48.55654,-1.4106 72.68191,-4.2212 -4.76576,-18.5316 -11.01676,-38.7205 -18.40062,-58.5956 -1.65354,-4.4505 -3.79598,-10.2317 -4.76055,-12.8498 -5.23103,-14.1975 -14.32771,-35.6491 -21.39451,-50.4598 -10.63198,-22.2823 -14.96563,-33.2239 -19.05146,-48.0796 -2.13444,-7.7609 -4.99555,-13.6932 -11.03665,-22.1383 -14.98208,-50.8152 3.5661,-97.57766 -8.62849,-135.84251 -10.37823,0.13221 -14.18881,-3.29008 -16.74558,-13.43549 -1.29004,-5.11969 -2.07288,-9.30724 -1.73869,-9.30724 0.33422,0 4.39063,2.07687 9.00969,4.62107 9.08281,5.00291 9.7672,4.97479 23.41216,-1.07856 5.84618,-2.59352 10.94981,-3.59763 14.17008,-2.78941 4.70592,1.18114 13.39244,7.93283 16.58745,12.15244 l 33.94676,2.34303 c 0.83255,-1.47799 2.08866,-3.30233 3.63547,-5.17893 3.19538,-3.87646 5.81124,-9.22603 5.81124,-11.89203 0,-4.92766 16.78651,-23.1511 20.32526,-22.06399 0.94074,0.28899 1.20285,-0.80379 0.57646,-2.43604 -0.63983,-1.66738 0.26896,-3.75992 2.07343,-4.76985 2.96715,-1.66047 2.95888,-2.04363 -0.0839,-5.08596 -4.28707,-4.28725 -4.22141,-14.42796 0.12983,-19.23744 6.95385,-7.68567 1.81156,-29.59479 -9.30718,-39.62772 -8.22047,-7.41764 -29.16385,-41.42857 -29.32571,-47.62401 -0.16849,-6.44911 -7.70131,-16.39999 -24.03513,-31.76173 l -17.73116,-16.68044 -1.67359,-21.42244 c -0.91971,-11.784 -2.41751,-22.17555 -3.33797,-23.09604 -0.925,-0.925 -4.12227,1.52827 -7.1408,5.48576 -3.02243,3.96259 -9.79444,9.16208 -15.16495,11.65032 l -9.70701,4.50018 -11.1017,-5.82981 c -11.69529,-6.14168 -13.66838,-8.73865 -13.90976,-18.27976 -0.27897,-11.03722 -4.17589,-20.39659 -11.79903,-28.33076 -4.18979,-4.36077 -8.94388,-7.92181 -10.56244,-7.92181 -4.27544,0 -14.99754,9.58603 -14.99754,13.40763 0,4.38793 -15.14908,28.89593 -22.83574,36.94991 -5.09208,5.33541 -7.66819,6.48413 -14.70005,6.55509 -4.68855,0.0477 -12.04379,1.47219 -16.35504,3.17053 -4.31128,1.69843 -10.4903,2.99902 -13.72375,2.88239 -6.99439,-0.2517 -30.05709,6.96322 -34.44882,10.77628 -1.70158,1.47739 -5.52142,2.67783 -8.48901,2.67783 -1.66933,0 -4.66121,0.58595 -8.29375,1.52486 2.51688,-9.51859 5.57075,-18.41575 8.76798,-24.81617 4.48412,-8.97659 11.39118,-17.96808 22.38007,-29.11182 l 11.53876,-11.69678 0.65086,-15.9088 c 0.35846,-8.749 1.26621,-20.19373 2.01766,-25.42977 1.65294,-11.51773 1.7678,-17.09966 0.39989,-19.65584 -1.71561,-3.20573 -6.7282,-4.62039 -16.31787,-4.60252 -11.396,0.0206 -20.29544,1.95216 -27.67994,5.99721 -3.24868,1.77949 -8.25907,4.53469 -11.13892,6.12734 -11.59789,6.4141 -37.88034,8.46462 -45.3925,3.54249 -4.92516,-3.22706 -15.15268,-30.71699 -16.17834,-43.48643 -0.4763,-5.92929 -0.17298,-8.95972 1.59919,-15.83435 l 2.19432,-8.50762 -6.09943,-5.64379 c -3.35533,-3.10401 -8.09622,-7.44729 -10.53454,-9.66057 -2.43824,-2.21325 -5.9822,-6.27952 -7.87534,-9.02832 -5.27553,-7.65985 -5.45317,-13.35193 -1.05065,-33.74215 1.4253,-6.60145 1.4049,-7.32535 -0.48349,-15.13701 -2.23867,-9.26063 -1.96144,-13.33485 1.42258,-20.77154 3.98765,-8.76337 12.10223,-16.82666 22.35221,-22.2221 5.80133,-3.05374 34.43007,-12.95195 40.52964,-14.01194 7.54998,-1.31214 34.82697,-14.06712 38.53993,-18.01943 1.30697,-1.39118 2.31752,-4.18912 2.83588,-7.85672 0.44321,-3.13608 1.47677,-7.00589 2.29657,-8.59131 2.47187,-4.77991 11.3827,-11.91554 24.6674,-19.74875 29.86557,-17.61011 38.75374,-23.93834 38.75374,-27.58698 0,-0.88096 -1.33229,-4.64588 -2.966,-8.36814 -2.47407,-5.6368 -2.88328,-7.57784 -2.46394,-11.64097 2.26426,-21.93962 28.16914,-39.50046 71.594,-48.51663 17.15775,-3.56248 31.01277,-6.92312 39.99041,-9.70702 7.35539,-2.28096 15.05055,-3.21105 26.12716,-2.96603 3.6922,0.0819 7.76428,0.29692 12.31974,0.6322 24.92599,1.83315 38.50576,5.44794 59.19064,15.76003 11.70405,5.83481 20.84398,11.53649 31.51996,19.65582 10.22837,7.77894 15.37842,10.79918 25.14159,14.72793 16.35812,6.58247 34.58906,20.89416 41.86855,32.87746 3.29129,5.41801 16.57873,33.40362 18.02868,37.97271 2.1169,6.66934 14.05774,31.01194 18.45644,37.61943 5.9313,8.90965 9.8082,13.15693 17.9635,19.68373 3.2725,2.61905 5.9507,5.36839 5.9507,6.10873 0,0.74035 -0.1519,1.3482 -0.3344,1.3482 -1.2705,0 -7.3811,-2.57746 -10.1442,-4.27703 -1.8327,-1.12726 -5.0746,-2.73267 -7.2058,-3.57043 -12.3815,-4.8667 -2.8242,9.37131 10.4228,15.52754 3.206,1.49008 8.7985,3.1769 12.422,3.74709 9.6851,1.52391 9.7867,1.67876 4.835,7.60567 -1.8327,2.19353 -3.3379,4.9972 -3.3379,6.22963 0,1.2325 -1.0455,3.37091 -2.3245,4.75123 -2.5968,2.80182 -2.3739,4.22181 1.8038,11.38997 6.6676,11.44097 10.4406,26.03382 14.7651,57.12647 5.2122,37.47785 9.3929,56.41564 14.8302,67.17754 1.2072,2.38945 4.8341,7.25243 8.0613,10.81346 3.9549,4.36409 5.5583,6.78947 4.9094,7.43833 -2.0131,2.01299 -11.8612,0.21131 -21.097,-3.85861 -11.4017,-5.02397 -13.3333,-5.13146 -13.3333,-0.75243 0,7.84207 6.7832,22.74203 13.6308,29.94863 8.6458,9.09853 36.3182,28.51725 49.6603,34.84861 16.0247,7.60453 22.8756,9.63291 79.0418,23.44938 33.8531,8.32769 60.7683,16.33779 87.1029,25.90404 18.5275,6.73021 22.84,8.61117 45.2251,19.77671 18.9833,9.46896 21.9688,10.65975 31.8918,12.73814 6.0216,1.26121 17.1144,2.97064 24.658,3.79355 10.3111,1.12475 19.574,2.50394 28.3867,4.18409 7.7985,-39.80275 11.725,-80.26702 11.7248,-120.82657 0,-347.05085 -281.3404,-628.391151 -628.3912,-628.391151 z"
       id="path918"
       sodipodi:nodetypes="csccssssccsssssccssssssssscccssccsssssssscsscscccsscsssscccssssssssssssssssscsssssssssssssssssssssssssssssscccc" />
  </g>
</svg>
