<?xml version="1.0" encoding="UTF-8" standalone="no"?>
<svg
   xmlns:dc="http://purl.org/dc/elements/1.1/"
   xmlns:cc="http://creativecommons.org/ns#"
   xmlns:rdf="http://www.w3.org/1999/02/22-rdf-syntax-ns#"
   xmlns:svg="http://www.w3.org/2000/svg"
   xmlns="http://www.w3.org/2000/svg"
   xmlns:xlink="http://www.w3.org/1999/xlink"
   xmlns:sodipodi="http://sodipodi.sourceforge.net/DTD/sodipodi-0.dtd"
   xmlns:inkscape="http://www.inkscape.org/namespaces/inkscape"
   sodipodi:docname="Metal-Dax.svg"
   inkscape:version="1.0 (6e3e5246a0, 2020-05-07)"
   id="svg8"
   version="1.1"
   viewBox="0 0 210 297"
   height="1122.5197"
   width="793.70081">
  <defs
     id="defs2">
    <linearGradient
       inkscape:collect="always"
       id="linearGradient893-4-3-3">
      <stop
         style="stop-color:#dedede;stop-opacity:1"
         offset="0"
         id="stop914" />
      <stop
         id="stop927"
         offset="0.41021627"
         style="stop-color:#b3b3b3;stop-opacity:1" />
      <stop
         style="stop-color:#e1e1e1;stop-opacity:1"
         offset="0.62421429"
         id="stop929" />
      <stop
         id="stop931"
         offset="0.81210715"
         style="stop-color:#000000;stop-opacity:1" />
      <stop
         style="stop-color:#ffffff;stop-opacity:1"
         offset="1"
         id="stop916" />
    </linearGradient>
    <rect
       id="rect870"
       height="72.369969"
       width="163.89382"
       y="113.37814"
       x="0.88539492" />
    <linearGradient
       gradientTransform="scale(0.26458332)"
       y2="630.78442"
       x2="382.50754"
       y1="466.85321"
       x1="338.58231"
       gradientUnits="userSpaceOnUse"
       id="linearGradient897"
       xlink:href="#linearGradient893-4-3-3"
       inkscape:collect="always" />
  </defs>
  <sodipodi:namedview
     inkscape:snap-nodes="false"
     inkscape:window-maximized="1"
     inkscape:window-y="27"
     inkscape:window-x="74"
     inkscape:window-height="1016"
     inkscape:window-width="1846"
     units="px"
     showborder="true"
     showgrid="false"
     inkscape:document-rotation="0"
     inkscape:current-layer="layer1"
     inkscape:document-units="mm"
     inkscape:cy="592.51057"
     inkscape:cx="265.26697"
     inkscape:zoom="1"
     inkscape:pageshadow="2"
     inkscape:pageopacity="0.0"
     borderopacity="1.0"
     bordercolor="#666666"
     pagecolor="#ffffff"
     id="base">
    <inkscape:grid
       spacingy="7.9375"
       spacingx="7.9375"
       id="grid833"
       type="xygrid" />
  </sodipodi:namedview>
  <metadata
     id="metadata5">
    <rdf:RDF>
      <cc:Work
         rdf:about="">
        <dc:format>image/svg+xml</dc:format>
        <dc:type
           rdf:resource="http://purl.org/dc/dcmitype/StillImage" />
        <dc:title></dc:title>
      </cc:Work>
    </rdf:RDF>
  </metadata>
  <g
     id="layer1"
     inkscape:groupmode="layer"
     inkscape:label="Layer 1">
    <path
       d="m 24.238028,123.67281 -0.638383,2.97983 c 0.567504,-0.0669 1.39019,-0.11679 2.468446,-0.15038 1.078257,-0.0619 1.986489,-0.022 2.724243,0.12085 0.652631,0.13695 1.078138,0.42069 1.276763,0.85013 0.227002,0.39317 0.340878,0.90148 0.340878,1.52574 0,0.25549 -0.04277,0.60743 -0.127899,1.05579 -0.05675,0.41248 -0.127853,0.80043 -0.212979,1.16368 l -10.0445,46.14807 c -0.198625,1.04636 -0.567472,2.01063 -1.106602,2.89285 -0.510752,0.84645 -1.277333,1.60517 -2.29884,2.27588 -0.567504,0.37938 -1.53184,0.82209 -2.893848,1.3287 -1.333633,0.49901 -2.369629,0.84736 -3.107383,1.04505 l -0.6383818,2.98037 26.3465828,-7.05954 c 5.079157,-1.36096 9.931393,-3.48381 14.556544,-6.36887 4.653529,-2.89265 8.866947,-6.44805 12.640844,-10.66565 3.632024,-4.06608 6.568917,-8.74036 8.810554,-14.02291 2.241639,-5.31095 3.362626,-10.84626 3.362626,-16.60643 0,-4.31303 -0.83713,-7.77721 -2.511264,-10.39313 -1.645759,-2.65191 -3.844958,-4.53122 -6.597351,-5.63814 -2.610515,-1.05976 -5.419645,-1.54138 -8.427415,-1.44482 -3.007767,0.0681 -5.788569,0.44444 -8.342334,1.12871 z m 22.77098,-2.86841 c 5.646659,-1.51301 10.172818,-0.96657 13.577839,1.63961 3.404921,2.60604 5.107508,7.08746 5.107608,13.4432 -5.1e-5,4.31284 -0.582208,8.58264 -1.745539,12.80994 -1.163384,4.22756 -2.92263,8.31684 -5.27777,12.26778 -2.298388,3.82224 -5.192509,7.16576 -8.682655,10.03046 -3.461771,2.8571 -7.30634,4.85214 -11.534242,5.985 -3.234769,0.86675 -5.561731,1.14978 -6.98049,0.8489 -1.418759,-0.32923 -2.128124,-1.34517 -2.128124,-3.04764 0,-0.34044 0.02832,-0.70294 0.08508,-1.08715 0.05675,-0.38375 0.127852,-0.78556 0.212979,-1.20592 l 10.810778,-49.75829 c 0.709379,-0.21913 1.68816,-0.50994 2.936666,-0.87195 1.24851,-0.39107 2.454486,-0.7422 3.61787,-1.05394 z m 56.991672,-1.05353 c -3.17802,0.85154 -6.271002,2.46078 -9.278771,4.82735 -3.007767,2.33817 -5.604148,5.06254 -7.789035,8.17337 -2.298392,3.25475 -4.099853,6.71657 -5.405111,10.38619 -1.305259,3.66963 -1.957963,7.26413 -1.957963,10.78267 0,5.10751 1.163205,8.82486 3.489968,11.15241 2.355139,2.32 5.589775,2.92863 9.704176,1.82619 1.532254,-0.41057 2.950988,-1.06005 4.256247,-1.94901 1.305259,-0.86045 2.511238,-1.79353 3.617869,-2.79947 1.16338,-1.02111 2.17104,-2.02884 3.0223,-3.02302 0.87963,-1.03029 1.63121,-1.88439 2.25547,-2.56231 l 0.29806,-0.0798 c 0.11349,1.81393 0.7662,3.15724 1.95796,4.02967 1.19176,0.87243 2.80936,1.03449 4.85236,0.48706 1.78764,-0.479 3.30581,-1.11232 4.55431,-1.90096 1.24852,-0.78854 3.14942,-2.03612 5.70318,-3.74192 l 0.63837,-2.89474 c -0.53912,0.34322 -1.30514,0.73279 -2.29827,1.16912 -0.99316,0.43633 -1.75919,0.72661 -2.29829,0.87106 -1.6174,0.43338 -2.76671,0.45802 -3.44771,0.0729 -0.681,-0.38502 -1.02152,-1.38641 -1.02152,-3.00383 0,-0.59587 0.11333,-1.5484 0.34032,-2.85769 0.25539,-1.34535 0.49647,-2.48815 0.72346,-3.42857 l 6.47002,-29.18682 -0.51105,-0.50146 -7.78903,4.08785 c -1.04988,-0.39962 -2.49695,-0.62236 -4.34133,-0.66737 -1.81601,-0.0526 -3.73135,0.19128 -5.74599,0.73109 z m 63.54621,-16.68683 c -1.39038,0.37255 -2.85189,1.18966 -4.38415,2.45149 -1.50389,1.22583 -3.14925,3.19878 -4.93688,5.91941 -1.92952,2.90051 -3.31991,5.18841 -4.17117,6.86364 -0.85125,1.67524 -1.95836,3.74559 -3.32036,6.21027 -0.45399,-1.92131 -0.76561,-3.19989 -0.93589,-3.83531 -0.14188,-0.67136 -0.65293,-2.46425 -1.53256,-5.37815 -0.76613,-2.51878 -1.80157,-4.0711 -3.10683,-4.65772 -1.27689,-0.62262 -2.89448,-0.67191 -4.85237,-0.1473 -0.62426,0.16727 -1.81578,0.78484 -3.57504,1.85211 -1.73089,1.03128 -3.689,2.29363 -5.8739,3.78711 l -0.80853,3.02542 c 0.7945,-0.44021 1.64551,-0.89534 2.55352,-1.36542 0.93638,-0.47768 1.81628,-0.82644 2.63917,-1.04693 1.50388,-0.40297 2.73818,-0.40759 3.70294,-0.0135 0.96476,0.39415 1.81578,1.64148 2.55353,3.7422 0.5675,1.66397 1.16355,3.6185 1.7878,5.86307 0.65259,2.23703 1.24864,4.29041 1.7878,6.16057 -1.53226,3.16297 -3.19263,6.06259 -4.98027,8.69809 -1.75925,2.62791 -3.17798,4.59674 -4.25624,5.90719 -0.93638,-0.033 -1.84405,-0.0876 -2.72369,-0.16381 -0.85125,-0.11235 -1.73115,-0.0466 -2.63916,0.19667 -1.78764,0.479 -3.19192,1.33745 -4.21343,2.57591 -1.0215,1.21009 -1.53256,2.4819 -1.53256,3.81553 0,1.39038 0.43995,2.36518 1.31958,2.92397 0.85126,0.53806 1.94391,0.628 3.27755,0.27066 1.50388,-0.40298 2.97926,-1.23768 4.4264,-2.50508 1.44713,-1.26736 3.03584,-3.1829 4.76674,-5.74647 1.98625,-2.94412 3.40498,-5.2113 4.25624,-6.80137 0.85126,-1.61852 1.93002,-3.58183 3.23528,-5.88942 0.34051,1.29912 0.68047,2.6129 1.02096,3.94041 0.36888,1.29158 0.83716,2.89702 1.40467,4.81632 0.7945,2.62466 1.83049,4.21962 3.10738,4.78547 1.30526,0.55824 2.95063,0.57122 4.93689,0.0389 1.58901,-0.42577 3.06497,-0.9913 4.42697,-1.69668 1.39038,-0.71305 3.44738,-2.00195 6.1714,-3.86683 l 0.76626,-3.01464 c -0.65262,0.40165 -1.57474,0.86156 -2.7665,1.37966 -1.19175,0.48954 -2.12832,0.82553 -2.80932,1.008 -1.87276,0.50181 -3.39092,0.39807 -4.55431,-0.31169 -1.13497,-0.74575 -1.9721,-1.91182 -2.51126,-3.49827 -0.62422,-1.76226 -1.20583,-3.52176 -1.74498,-5.27843 -0.53914,-1.78505 -1.14906,-3.93416 -1.83007,-6.44729 1.50389,-3.07026 3.0926,-5.93625 4.76674,-8.59806 1.70251,-2.66948 3.19234,-4.74293 4.46922,-6.22005 0.62425,0.0315 1.47582,0.059 2.55408,0.0819 1.07826,-0.005 2.0426,-0.12191 2.89385,-0.35001 1.39038,-0.37255 2.66747,-1.09744 3.83084,-2.17533 1.19158,-1.11376 1.80152,-2.49765 1.83007,-4.15105 0.0284,-1.28452 -0.39713,-2.20649 -1.27677,-2.76528 -0.85124,-0.59478 -1.90113,-0.72453 -3.14964,-0.38999 z m -62.86501,19.52605 c 1.50389,-0.40296 2.75208,-0.52458 3.74521,-0.36515 0.99313,0.15956 1.7736,0.51812 2.3411,1.07543 0.62428,0.5705 1.0359,1.25454 1.23451,2.05259 0.1986,0.79804 0.2975,1.66533 0.2975,2.6017 l -5.40511,24.34718 c -2.1849,2.82706 -4.15689,4.93026 -5.91615,6.30969 -1.730889,1.34338 -3.39126,2.22826 -4.98027,2.65404 -1.560633,0.41816 -2.851598,0.46634 -3.873106,0.14417 -1.021532,-0.32216 -1.801446,-0.95031 -2.340549,-1.88411 -0.567522,-0.95452 -0.950812,-2.07228 -1.14942,-3.3527 -0.198608,-1.28043 -0.298058,-2.7858 -0.298058,-4.5167 0,-3.14962 0.46828,-6.38253 1.404661,-9.69798 0.936383,-3.3154 2.142362,-6.24881 3.617865,-8.8007 1.560638,-2.71656 3.319884,-5.01832 5.277769,-6.90491 1.957888,-1.88665 3.972658,-3.10752 6.044048,-3.66255 z"
       style="font-style:italic;font-variant:normal;font-weight:normal;font-stretch:normal;font-size:10.5833px;line-height:1.25;font-family:Georgia;-inkscape-font-specification:'Georgia, Italic';font-variant-ligatures:normal;font-variant-caps:normal;font-variant-numeric:normal;font-variant-east-asian:normal;white-space:pre;fill:url(#linearGradient897);fill-opacity:1;stroke:#000000;stroke-width:0.256;stroke-miterlimit:4;stroke-dasharray:none"
       id="path878" />
  </g>
</svg>
