<?xml version="1.0" encoding="UTF-8" standalone="no"?>
<svg
   xmlns:dc="http://purl.org/dc/elements/1.1/"
   xmlns:cc="http://creativecommons.org/ns#"
   xmlns:rdf="http://www.w3.org/1999/02/22-rdf-syntax-ns#"
   xmlns:svg="http://www.w3.org/2000/svg"
   xmlns="http://www.w3.org/2000/svg"
   xmlns:xlink="http://www.w3.org/1999/xlink"
   xmlns:sodipodi="http://sodipodi.sourceforge.net/DTD/sodipodi-0.dtd"
   xmlns:inkscape="http://www.inkscape.org/namespaces/inkscape"
   inkscape:export-ydpi="96"
   inkscape:export-xdpi="96"
   inkscape:export-filename="/home/rajesh/Documents/dax/Mountain.png"
   inkscape:version="1.0 (6e3e5246a0, 2020-05-07)"
   sodipodi:docname="Mountain.svg"
   id="svg8"
   version="1.1"
   viewBox="0 0 210 297"
   height="297mm"
   width="210mm">
  <defs
     id="defs2">
    <linearGradient
       id="linearGradient880"
       inkscape:collect="always">
      <stop
         id="stop876"
         offset="0"
         style="stop-color:#6600ff;stop-opacity:1;" />
      <stop
         id="stop878"
         offset="1"
         style="stop-color:#ff0000;stop-opacity:1" />
    </linearGradient>
    <linearGradient
       gradientTransform="matrix(0.2601595,0,0,0.2577357,-0.46460789,-1.4296316)"
       gradientUnits="userSpaceOnUse"
       y2="156.71288"
       x2="326.53598"
       y1="744.56323"
       x1="327.53598"
       id="linearGradient882"
       xlink:href="#linearGradient880"
       inkscape:collect="always" />
  </defs>
  <sodipodi:namedview
     inkscape:window-maximized="1"
     inkscape:window-y="27"
     inkscape:window-x="74"
     inkscape:window-height="1016"
     inkscape:window-width="1846"
     showguides="false"
     showborder="false"
     showgrid="false"
     inkscape:document-rotation="0"
     inkscape:current-layer="layer1"
     inkscape:document-units="mm"
     inkscape:cy="484.17466"
     inkscape:cx="376"
     inkscape:zoom="1"
     inkscape:pageshadow="2"
     inkscape:pageopacity="0.0"
     borderopacity="1.0"
     bordercolor="#666666"
     pagecolor="#ffffff"
     id="base" />
  <metadata
     id="metadata5">
    <rdf:RDF>
      <cc:Work
         rdf:about="">
        <dc:format>image/svg+xml</dc:format>
        <dc:type
           rdf:resource="http://purl.org/dc/dcmitype/StillImage" />
        <dc:title></dc:title>
      </cc:Work>
    </rdf:RDF>
  </metadata>
  <g
     id="layer1"
     inkscape:groupmode="layer"
     inkscape:label="Layer 1">
    <path
       id="path874"
       d="M -3.3986467,203.7378 C -3.3229337,203.54219 17.281404,167.83492 42.388648,124.38829 67.495898,80.941655 88.889217,43.847106 89.929361,41.955954 l 1.891169,-3.43846 0.79145,1.376573 c 0.435299,0.757117 21.97331,37.723939 47.86224,82.148493 25.88894,44.42456 47.12632,80.91526 47.19418,81.09045 0.0975,0.25187 -10.53645,0.35215 -50.81834,0.47925 -28.01794,0.0884 -71.066784,0.23282 -95.664088,0.32096 -37.9635944,0.136 -44.7015503,0.10646 -44.5846187,-0.19542 z M 125.22551,169.61549 c -0.084,-0.21677 -2.61905,-4.62882 -5.63353,-9.80456 -3.01448,-5.17574 -5.54641,-9.57962 -5.62652,-9.78643 -0.12493,-0.32254 0.67472,-0.376 5.62479,-0.376 4.62729,0 5.75375,-0.067 5.6863,-0.33771 -0.10906,-0.43782 -30.891157,-53.297433 -31.285074,-53.723319 -0.230962,-0.249703 -1.626796,1.960124 -6.142204,9.724079 -3.213827,5.52597 -5.901857,10.04799 -5.973401,10.04894 -0.07154,9.8e-4 -1.401261,-2.20024 -2.954928,-4.89154 -1.553668,-2.69128 -2.899992,-4.89163 -2.991835,-4.88965 -0.166202,0.004 -31.516205,53.69237 -31.516205,53.97343 0,0.0811 5.320878,0.14747 11.824176,0.14747 h 11.824177 l -2.230056,3.80159 c -1.226533,2.09089 -2.578147,4.41051 -3.003589,5.15472 l -0.773532,1.35311 h 31.662049 c 28.305932,0 31.645862,-0.0418 31.509382,-0.39413 z"
       style="fill:url(#linearGradient882);fill-opacity:1;stroke-width:0.258945" />
  </g>
</svg>
