<?xml version="1.0" encoding="UTF-8" standalone="no"?>
<svg
   xmlns:dc="http://purl.org/dc/elements/1.1/"
   xmlns:cc="http://creativecommons.org/ns#"
   xmlns:rdf="http://www.w3.org/1999/02/22-rdf-syntax-ns#"
   xmlns:svg="http://www.w3.org/2000/svg"
   xmlns="http://www.w3.org/2000/svg"
   xmlns:xlink="http://www.w3.org/1999/xlink"
   xmlns:sodipodi="http://sodipodi.sourceforge.net/DTD/sodipodi-0.dtd"
   xmlns:inkscape="http://www.inkscape.org/namespaces/inkscape"
   id="svg8"
   version="1.1"
   viewBox="0 0 215.9 279.40001"
   height="11in"
   width="8.5in"
   sodipodi:docname="Neon-Dax.svg"
   inkscape:version="1.0 (b51213c273, 2020-08-10)">
  <defs
     id="defs2">
    <linearGradient
       inkscape:collect="always"
       id="linearGradient2669">
      <stop
         style="stop-color:#0bf568;stop-opacity:1"
         offset="0"
         id="stop2665" />
      <stop
         style="stop-color:#000000;stop-opacity:1"
         offset="0.69999999"
         id="stop2673" />
      <stop
         style="stop-color:#000000;stop-opacity:1"
         offset="1"
         id="stop2667" />
    </linearGradient>
    <filter
       inkscape:collect="always"
       style="color-interpolation-filters:sRGB"
       id="filter1642"
       x="-0.092298539"
       width="1.1845971"
       y="-0.20062184"
       height="1.4012437">
      <feGaussianBlur
         inkscape:collect="always"
         stdDeviation="3.0263211"
         id="feGaussianBlur1644" />
    </filter>
    <filter
       inkscape:collect="always"
       style="color-interpolation-filters:sRGB"
       id="filter2576"
       x="-0.022930411"
       width="1.0458608"
       y="-0.049841862"
       height="1.0996837">
      <feGaussianBlur
         inkscape:collect="always"
         stdDeviation="0.75184995"
         id="feGaussianBlur2578" />
    </filter>
    <filter
       inkscape:collect="always"
       style="color-interpolation-filters:sRGB"
       id="filter2629"
       x="-0.033660644"
       width="1.0673213"
       y="-0.073165859"
       height="1.1463317">
      <feGaussianBlur
         inkscape:collect="always"
         stdDeviation="1.1036765"
         id="feGaussianBlur2631" />
    </filter>
    <radialGradient
       inkscape:collect="always"
       xlink:href="#linearGradient2669"
       id="radialGradient2671"
       cx="-9.4875412"
       cy="34.524948"
       fx="-9.4875412"
       fy="34.524948"
       r="92.919235"
       gradientTransform="matrix(1.9751748,0,0,1.0235307,9.2520112,-0.81239509)"
       gradientUnits="userSpaceOnUse" />
    <filter
       inkscape:collect="always"
       style="color-interpolation-filters:sRGB"
       id="filter2863"
       x="-0.016442349"
       width="1.0328847"
       y="-0.035739375"
       height="1.0714787">
      <feGaussianBlur
         inkscape:collect="always"
         stdDeviation="0.72017932"
         id="feGaussianBlur2865" />
    </filter>
  </defs>
  <sodipodi:namedview
     id="base"
     pagecolor="#aaaaaa"
     bordercolor="#666666"
     borderopacity="1.0"
     inkscape:pageopacity="0"
     inkscape:pageshadow="2"
     inkscape:zoom="1"
     inkscape:cx="52.559504"
     inkscape:cy="146.92487"
     inkscape:document-units="px"
     inkscape:current-layer="layer1"
     inkscape:document-rotation="0"
     showgrid="false"
     showborder="false"
     units="in"
     inkscape:object-nodes="true"
     inkscape:snap-smooth-nodes="true"
     inkscape:snap-intersection-paths="true"
     inkscape:object-paths="true"
     inkscape:snap-nodes="false"
     inkscape:window-width="1846"
     inkscape:window-height="1016"
     inkscape:window-x="74"
     inkscape:window-y="27"
     inkscape:window-maximized="1" />
  <metadata
     id="metadata5">
    <rdf:RDF>
      <cc:Work
         rdf:about="">
        <dc:format>image/svg+xml</dc:format>
        <dc:type
           rdf:resource="http://purl.org/dc/dcmitype/StillImage" />
        <dc:title></dc:title>
      </cc:Work>
    </rdf:RDF>
  </metadata>
  <g
     inkscape:label="Layer 1"
     inkscape:groupmode="layer"
     id="layer1">
    <text
       xml:space="preserve"
       style="font-style:normal;font-variant:normal;font-weight:bold;font-stretch:normal;font-size:53.2778px;line-height:1.25;font-family:'Learning Curve';-inkscape-font-specification:'Learning Curve Bold';stroke-width:1.10995"
       x="411.22815"
       y="163.15663"
       id="text839"><tspan
         sodipodi:role="line"
         id="tspan837"
         x="411.22815"
         y="163.15663"
         style="font-style:normal;font-variant:normal;font-weight:bold;font-stretch:normal;font-size:53.2778px;font-family:'Learning Curve';-inkscape-font-specification:'Learning Curve Bold';stroke-width:1.10995">Dax</tspan></text>
    <g
       id="g2874">
      <rect
         style="opacity:1;fill:#09e663;fill-opacity:1;fill-rule:evenodd;stroke:none;stroke-width:18.4708;stroke-linecap:square"
         id="rect993"
         width="185.83847"
         height="106.02272"
         x="-102.40678"
         y="-18.48641" />
      <rect
         style="opacity:1;fill:url(#radialGradient2671);fill-opacity:1;fill-rule:evenodd;stroke:none;stroke-width:18.4708;stroke-linecap:square"
         id="rect2663"
         width="185.83847"
         height="106.02272"
         x="-102.40678"
         y="-18.48641" />
      <path
         id="path872"
         style="fill:#01fe80;fill-opacity:1;fill-rule:evenodd;stroke:#01fe80;stroke-width:4.10104;stroke-linecap:square;stroke-miterlimit:4;stroke-dasharray:none;stroke-opacity:1;filter:url(#filter1642)"
         inkscape:transform-center-x="-0.5200095"
         inkscape:transform-center-y="-0.65041604"
         d="m 22.647026,52.936153 c -1.242261,0 -2.484681,0.10625 -3.726942,0.31921 -1.242271,0.17746 -2.413741,0.47936 -3.514042,0.90529 -1.703671,0.67437 -3.123442,1.63239 -4.259232,2.87466 -1.10029,1.24227 -1.6503102,2.62673 -1.6503102,4.15296 0,0.56789 0.10657,1.08261 0.31953,1.54403 0.2129602,0.42591 0.5856402,0.63874 1.1180302,0.63874 0.28395,0 0.53224,-0.0884 0.7452,-0.2659 0.24845,-0.21296 0.37284,-0.47939 0.37284,-0.79883 0,-0.14198 -0.0531,-0.28418 -0.1596,-0.42616 -0.10648,-0.17746 -0.21322,-0.3012 -0.3197,-0.37219 v -0.69254 c 0.0355,-0.17747 0.0886,-0.37262 0.15961,-0.58559 0.28394,-0.95832 0.81631,-1.75664 1.597171,-2.39553 0.780851,-0.67437 1.632941,-1.20691 2.555761,-1.59734 1.029311,-0.42591 2.164832,-0.72766 3.407092,-0.90513 1.277761,-0.21296 2.431582,-0.31969 3.460892,-0.31969 0.389111,0 0.771211,0.014 1.147181,0.0402 l -0.907861,0.98791 -0.19954,0.21694 10e-4,5.2e-4 c -0.49295,0.54935 -0.98582,1.19739 -1.478801,1.9486 -0.70986,1.13579 -1.40209,2.43182 -2.076461,3.88705 -0.67437,1.41974 -1.33065,2.9456 -1.969531,4.5783 -0.63888,1.6327 -1.260331,3.26545 -1.863711,4.89815 l -0.37236,1.06474 c -0.85184,2.23608 -1.703761,4.40122 -2.555602,6.49532 -0.57094,1.46459 -1.15087,2.73395 -1.73922,3.81668 l 1.964371,0.67594 c 0.68018,-1.27727 1.350411,-2.72087 2.010921,-4.33252 0.92283,-2.2006 1.845531,-4.54325 2.768351,-7.02778 0.567901,-1.56172 1.153391,-3.12354 1.756781,-4.68524 0.638881,-1.56171 1.260331,-3.01696 1.863711,-4.36571 0.638881,-1.38424 1.259691,-2.60885 1.863071,-3.67366 0.623071,-1.03844 1.246441,-1.85584 1.869512,-2.45543 l 0.30762,-0.2767 c 0.73047,-0.3269 1.692201,-0.51392 2.553661,-0.51392 0.53764,0 1.131931,0.0989 1.691391,0.26526 0.782471,0.40497 1.498791,0.89266 2.149262,1.46253 0.008,0.0239 0.015,0.0478 0.0203,0.0718 0.002,-0.007 0.0132,-0.0177 0.0287,-0.0295 0.0734,0.0651 0.14603,0.13119 0.21774,0.19843 1.13579,1.0293 2.02319,2.32469 2.66207,3.8864 0.67438,1.52622 1.0116,3.2832 1.0116,5.27084 0,1.41974 -0.17735,2.87499 -0.53229,4.3657 -0.35494,1.45524 -0.86966,2.87501 -1.54405,4.25926 -0.63887,1.38424 -1.43784,2.69729 -2.396151,3.93955 -0.95832,1.20678 -2.058531,2.27169 -3.300802,3.19452 -1.24226,0.92283 -2.608901,1.65037 -4.099622,2.18277 -1.490711,0.5324 -3.087512,0.79836 -4.791193,0.79836 -1.277751,0 -2.484701,-0.12391 -3.620482,-0.37236 -1.13579,-0.24847 -2.200541,-0.55021 -3.194352,-0.90514 l -2.0233202,-0.6389 -0.31905,-0.16009 c -0.74535,-0.28394 -1.43758,-0.51441 -2.076464,-0.69188 -0.638882,-0.17747 -1.242684,-0.2659 -1.810571,-0.2659 -0.816352,0 -1.526241,0.28359 -2.129627,0.85149 -0.638885,0.53241 -0.957951,1.22463 -0.957951,2.07648 0,0.88732 0.319066,1.61487 0.957951,2.18277 0.603386,0.60338 1.420005,0.90528 2.449315,0.90528 0.532404,0 1.224629,-0.1775 2.076477,-0.53244 0.51163,-0.21318 1.02301,-0.53098 1.53468,-0.94909 l -1.8534,-1.14752 c -0.120095,0.0791 -0.243309,0.15704 -0.373329,0.23289 -0.42592,0.24844 -0.887519,0.37284 -1.384428,0.37284 -0.283944,0 -0.585843,-0.0884 -0.905285,-0.2659 -0.319439,-0.17747 -0.479135,-0.42624 -0.479135,-0.74569 0,-0.24845 0.106571,-0.46127 0.319529,-0.63874 0.212962,-0.17747 0.461251,-0.26606 0.745203,-0.26606 0.319439,0 0.710254,0.0708 1.171672,0.21275 0.49691,0.14198 1.047103,0.31949 1.650483,0.53245 l 2.1296102,0.74519 c 1.10029,0.39044 2.324411,0.7453 3.673162,1.06474 1.34874,0.31944 2.839771,0.4793 4.472462,0.4793 2.768482,0 5.288453,-0.62098 7.560025,-1.86324 2.307061,-1.24228 4.277022,-2.85722 5.909713,-4.84485 1.66819,-1.98763 2.94593,-4.22402 3.83326,-6.70857 0.92285,-2.48453 1.38396,-4.96905 1.38396,-7.45361 0,-2.1651 -0.37269,-4.13506 -1.11805,-5.90973 -0.74536,-1.77467 -1.79247,-3.28288 -3.14123,-4.52515 -1.31324,-1.27777 -2.874571,-2.2536 -4.684732,-2.92797 -1.810151,-0.70987 -3.797762,-1.06489 -5.962854,-1.06489 z m 27.413626,17.56896 c -1.63271,0 -3.26546,0.40863 -4.89818,1.22498 -1.59721,0.81635 -3.03465,1.86297 -4.31241,3.14073 -1.27779,1.27777 -2.30722,2.7152 -3.08809,4.3124 -0.81635,1.56171 -1.22434,3.08822 -1.22434,4.57895 0,1.24226 0.31955,2.28936 0.95844,3.1412 0.63888,0.81635 1.59707,1.22434 2.87484,1.22434 1.17128,0 2.2537,-0.33721 3.24752,-1.01159 1.02931,-0.70986 1.95219,-1.52584 2.76854,-2.44867 0,0.88734 0.24814,1.68565 0.74505,2.39553 0.49691,0.70986 1.27822,1.06473 2.34303,1.06473 1.0648,0 2.37785,-0.72755 3.93957,-2.18278 1.56172,-1.45523 3.51388,-3.4605 5.85648,-6.01603 0.11374,-0.11375 0.19486,-0.23836 0.24786,-0.37236 0.0619,-0.0699 0.12365,-0.13898 0.18553,-0.21323 l 0.53228,-0.63922 c 1.06482,-1.24228 2.04131,-2.36032 2.92864,-3.35413 0.88735,-1.02931 1.68567,-1.73921 2.39554,-2.12963 0.31944,-0.17747 0.65666,-0.2659 1.0116,-0.2659 0.39042,0 0.63871,0.21283 0.74519,0.63874 0.21295,0.6034 0.33734,1.34875 0.37285,2.23608 0.071,0.88734 0.12409,1.73928 0.1596,2.55562 v 0.53245 c -0.99382,0.81635 -1.952,1.61466 -2.87484,2.39552 -0.92284,0.78086 -1.75711,1.52622 -2.50248,2.23608 -0.74536,0.67439 -1.384,1.27801 -1.9164,1.81042 -0.53241,0.49691 -0.90507,0.86959 -1.11804,1.11804 -0.10648,0.17747 -0.15945,0.31951 -0.15945,0.42599 0,0.24846 0.0884,0.47909 0.26591,0.69205 0.21295,0.24845 0.46125,0.37284 0.74519,0.37284 0.21298,0 0.37267,-0.0536 0.47915,-0.16009 0.14197,-0.071 0.26636,-0.15958 0.37284,-0.26606 0.14198,-0.17746 0.42622,-0.46155 0.85214,-0.85198 0.42592,-0.39042 0.94001,-0.85154 1.5434,-1.38394 0.6034,-0.56789 1.27797,-1.17169 2.02334,-1.81058 0.74537,-0.63888 1.52652,-1.29516 2.34288,-1.96954 0.0354,0.70987 0.0709,1.43757 0.10645,2.18294 0.071,0.74536 0.1949,1.36618 0.37236,1.86308 0.21296,0.67439 0.58597,1.27818 1.11837,1.81058 0.5679,0.49691 1.25965,0.74504 2.07601,0.74504 0.67438,0 1.36661,-0.23048 2.07649,-0.6919 0.88734,-0.60338 1.88132,-1.47312 2.98162,-2.60892 1.10031,-1.17128 2.41352,-2.59105 3.93975,-4.25924 l 0.58559,-0.69189 c 0.141968,-0.21297 0.213238,-0.42643 0.213238,-0.63939 0,-0.70987 -0.337208,-1.06473 -1.011588,-1.06473 -0.28395,0 -0.53273,0.10673 -0.74569,0.31969 -1.59721,1.70368 -2.9812,3.17643 -4.15249,4.41869 -1.13581,1.20678 -2.12978,2.12965 -2.98163,2.76853 -0.14198,0.071 -0.30183,0.14225 -0.47929,0.21324 -0.14199,0.071 -0.28402,0.1063 -0.426,0.1063 -0.56789,0 -0.95824,-0.33721 -1.1712,-1.01159 -0.21294,-0.60339 -0.33685,-1.3664 -0.37235,-2.28923 -0.0355,-0.92284 -0.0536,-1.8632 -0.0536,-2.82151 l 9.051,-7.08142 c 0.35493,-0.28395 0.53228,-0.56755 0.53228,-0.85149 0,-0.24845 -0.0884,-0.4791 -0.26589,-0.69206 -0.14197,-0.24845 -0.39076,-0.37284 -0.7457,-0.37284 -0.071,0 -0.17707,0.0177 -0.31905,0.0532 -0.14197,0.0355 -0.26635,0.0886 -0.37283,0.1596 l -7.93296,6.12298 c -0.0355,-0.74536 -0.10628,-1.5265 -0.21275,-2.34286 -0.10648,-0.81635 -0.2487,-1.47263 -0.42616,-1.96954 -0.17747,-0.4969 -0.49703,-0.95866 -0.95845,-1.38458 -0.42592,-0.42593 -0.99377,-0.63874 -1.70364,-0.63874 -0.67438,0 -1.34879,0.17751 -2.02318,0.53244 -0.88734,0.49691 -1.82787,1.27757 -2.82169,2.34238 -0.95833,1.0648 -2.00542,2.27176 -3.14123,3.62051 l -0.95795,1.11804 c -0.12231,0.12231 -0.20563,0.25757 -0.25769,0.40328 -0.32202,0.36189 -0.66174,0.74471 -1.24093,1.40665 -0.74537,0.81635 -1.5437,1.65064 -2.39554,2.50246 -0.85185,0.85185 -1.68614,1.61486 -2.50248,2.28924 -0.78087,0.63888 -1.38403,0.95843 -1.80994,0.95843 -0.31944,0 -0.56822,-0.12438 -0.74569,-0.37284 -0.17747,-0.28394 -0.26606,-0.62067 -0.26606,-1.0111 0,-0.49691 0.0886,-1.11835 0.26606,-1.86373 0.21297,-0.78085 0.47939,-1.57917 0.79883,-2.39552 0.46142,-0.78086 0.92254,-1.57981 1.38395,-2.39617 0.46142,-0.81634 0.87005,-1.57935 1.22499,-2.28923 0.39044,-0.74536 0.70999,-1.40212 0.95844,-1.97002 0.28395,-0.60339 0.47911,-1.04685 0.5856,-1.33079 0.0354,-0.071 0.0708,-0.14225 0.1063,-0.21324 0.0355,-0.10648 0.0531,-0.21273 0.0531,-0.31921 0,-0.17747 -0.0889,-0.33716 -0.26639,-0.47914 -0.14197,-0.14198 -0.28353,-0.24871 -0.42551,-0.3197 -0.10648,-0.071 -0.44368,-0.17707 -1.01159,-0.31904 -0.53239,-0.17747 -1.22464,-0.26655 -2.07648,-0.26655 z m -0.0532,2.07648 c 0.17748,0 0.35483,0.0177 0.53229,0.0532 0.21296,0 0.40813,0.0177 0.5856,0.0532 -0.42593,0.74536 -0.97595,1.73948 -1.65033,2.98176 -0.67438,1.24227 -1.27818,2.53765 -1.81059,3.88641 v -0.0532 c -0.35494,0.60338 -0.81605,1.29561 -1.38395,2.07647 -0.53239,0.74536 -1.13556,1.45524 -1.80994,2.12962 -0.63889,0.67437 -1.31347,1.24206 -2.02334,1.70348 -0.70988,0.42592 -1.41976,0.6389 -2.12964,0.6389 -0.5679,0 -0.99403,-0.21298 -1.27797,-0.6389 -0.28395,-0.46142 -0.42551,-0.99379 -0.42551,-1.59718 0,-1.17129 0.31891,-2.41355 0.95779,-3.7268 0.67439,-1.31326 1.54414,-2.52021 2.60895,-3.62051 1.06481,-1.13579 2.27177,-2.0585 3.62052,-2.76837 1.38425,-0.74537 2.78638,-1.11804 4.20612,-1.11804 z"
         transform="matrix(1.5593762,0,0,1.5593762,-75.024448,-76.249325)" />
      <path
         style="fill:#55feaa;fill-opacity:1;fill-rule:evenodd;stroke:#55feaa;stroke-width:3.86292;stroke-linecap:square;stroke-miterlimit:4;stroke-dasharray:none;stroke-opacity:1;filter:url(#filter2629)"
         d="m 22.647133,52.936059 c -1.2422,0 -2.4847,0.106 -3.7269,0.319 h -6e-4 c -1.2421,0.178 -2.4133,0.48 -3.5135,0.906 h -4e-4 c -1.7035,0.674 -3.1231,1.632 -4.2588,2.874 l -3e-4,0.001 c -1.1001,1.242 -1.6499998,2.626 -1.6499998,4.152 v 10e-4 c 0,0.567 0.1066,1.082 0.3195,1.543 h 10e-5 c 0.2129998,0.426 0.5855998,0.639 1.1179998,0.639 h 5e-4 c 0.2837,0 0.5318,-0.089 0.7447,-0.266 h 2e-4 c 0.2483,-0.213 0.3726,-0.479 0.3726,-0.799 v 0 c -10e-5,-0.142 -0.0532,-0.284 -0.1596,-0.426 h -10e-5 c -0.1065,-0.177 -0.2132,-0.301 -0.3196,-0.372 v 0 c 0,-0.007 0,-0.693 0,-0.693 v 0 c 0.0355,-0.177 0.0886,-0.372 0.1596,-0.585 h 10e-5 c 0.2839,-0.959 0.8163,-1.757 1.5971,-2.396 h 2e-4 c 0.7808,-0.674 1.6328,-1.207 2.5555,-1.597 h 3e-4 c 1.0292,-0.426 2.1647,-0.728 3.4068,-0.905 h 3e-4 c 1.2777,-0.213 2.4314,-0.32 3.4606,-0.32 h 2e-4 c 0.3891,0 0.7711,0.014 1.147,0.04 l -2e-4,10e-4 c -0.0092,0.01 -0.9077,0.987 -0.9077,0.987 h -2e-4 c -0.0039,0.005 -0.1993,0.217 -0.1993,0.217 h 2e-4 l 8e-4,0.001 h -2e-4 c -0.4929,0.549 -0.9857,1.197 -1.4786,1.948 l -3e-4,10e-4 c -0.7098,1.136 -1.4019,2.431 -2.0762,3.886 l -10e-5,0.001 c -0.6743,1.419 -1.3306,2.945 -1.9694,4.578 h -2e-4 c -0.6388,1.633 -1.2602,3.265 -1.8635,4.898 h -2e-4 c -0.0075,0.022 -0.3722,1.065 -0.3722,1.065 h -2e-4 c -0.8517,2.236 -1.7036,4.401 -2.5554,6.495 h -10e-5 c -0.5709,1.465 -1.1508,2.734 -1.7391,3.817 h 3e-4 c 0.0201,0.007 1.9641,0.676 1.9641,0.676 l 10e-5,-0.001 c 0.6802,-1.277 1.3503,-2.72 2.0108,-4.332 l 2e-4,-0.001 c 0.9228,-2.2 1.8454,-4.542 2.7682,-7.027 h 10e-5 c 0.5679,-1.562 1.1533,-3.123 1.7566,-4.685 h 2e-4 c 0.6388,-1.562 1.2602,-3.017 1.8635,-4.366 h 2e-4 c 0.6388,-1.384 1.2596,-2.609 1.8629,-3.673 l 3e-4,-10e-4 c 0.623,-1.038 1.2463,-1.855 1.8692,-2.455 h 2e-4 c 0.0062,-0.006 0.3074,-0.277 0.3074,-0.277 h 4e-4 c 0.7304,-0.326 1.692,-0.513 2.5533,-0.513 h 5e-4 c 0.5375,0 1.1316,0.099 1.6909,0.265 h 4e-4 c 0.7823,0.405 1.4985,0.893 2.1489,1.462 l 10e-5,0.001 c 0.0079,0.024 0.0149,0.047 0.0202,0.071 h 10e-5 c 0.0023,-0.007 0.0134,-0.018 0.0286,-0.029 h 3e-4 c 0.0733,0.065 0.1458,0.131 0.2174,0.198 h 3e-4 c 1.1356,1.03 2.0229,2.325 2.6618,3.887 h 10e-5 c 0.6743,1.526 1.0115,3.283 1.0115,5.27 v 0.001 c -10e-5,1.42 -0.1774,2.875 -0.5323,4.365 l -2e-4,0.001 c -0.3549,1.455 -0.8696,2.874 -1.5439,4.258 l -10e-5,0.001 c -0.6389,1.384 -1.4378,2.697 -2.396,3.939 h -3e-4 c -0.9582,1.207 -2.0583,2.272 -3.3005,3.194 l -3e-4,0.001 c -1.2422,0.922 -2.6087,1.65 -4.0993,2.182 h -4e-4 c -1.4906,0.533 -3.0873,0.799 -4.7908,0.799 h -7e-4 c -1.2775,-10e-4 -2.4842,-0.124 -3.6198,-0.373 h -6e-4 c -1.1356,-0.248 -2.2001,-0.55 -3.1938,-0.905 h -2e-4 c -0.0208,-0.007 -2.0230998,-0.639 -2.0230998,-0.639 h -6e-4 c -0.0125,-0.006 -0.3184,-0.16 -0.3184,-0.16 h -4e-4 c -0.7452,-0.284 -1.4373,-0.514 -2.0761,-0.692 h -6e-4 c -0.6387,-0.177 -1.2423,-0.266 -1.81,-0.266 h -4e-4 c -0.8162,0 -1.5259,0.284 -2.1292,0.852 h -3e-4 c -0.6387,0.532 -0.9577,1.224 -0.9577,2.076 v 0.001 c 2e-4,0.887 0.3192,1.614 0.958,2.182 h 3e-4 c 0.6034,0.603 1.4199,0.905 2.449,0.905 h 5e-4 c 0.5324,0 1.2244,-0.177 2.076,-0.532 h 5e-4 c 0.5115,-0.214 1.0227,-0.531 1.5342,-0.949 h -3e-4 c -0.019,-0.012 -1.8531,-1.148 -1.8531,-1.148 l -5e-4,0.001 c -0.1199,0.079 -0.243,0.156 -0.3729,0.232 h -4e-4 c -0.4258,0.249 -0.8872,0.373 -1.384,0.373 h -5e-4 c -0.2838,0 -0.5855,-0.089 -0.9048,-0.266 h -6e-4 c -0.319,-0.178 -0.4785,-0.426 -0.4785,-0.746 v 0 c 10e-5,-0.248 0.1067,-0.461 0.3195,-0.638 l 4e-4,-0.001 c 0.2129,-0.177 0.4611,-0.265 0.7448,-0.265 h 7e-4 c 0.3193,0 0.7099,0.07 1.171,0.212 h 5e-4 c 0.4968,0.142 1.0468,0.32 1.65,0.533 h 2e-4 c 0.0219,0.007 2.1293998,0.745 2.1293998,0.745 h 5e-4 c 1.1002,0.39 2.3241,0.745 3.6727,1.065 h 6e-4 c 1.3486,0.319 2.8394,0.479 4.4718,0.479 h 7e-4 c 2.7682,0 5.288,-0.621 7.5593,-1.863 l 6e-4,-0.001 c 2.3068,-1.242 4.2766,-2.857 5.9092,-4.844 l 4e-4,-0.001 c 1.668,-1.987 2.9456,-4.223 3.8328,-6.708 h 2e-4 c 0.9227,-2.485 1.3838,-4.969 1.3838,-7.453 v -10e-4 c -10e-5,-2.165 -0.3728,-4.135 -1.1181,-5.909 h -2e-4 c -0.7453,-1.775 -1.7924,-3.283 -3.141,-4.525 h -3e-4 c -1.3132,-1.278 -2.8744,-2.254 -4.6844,-2.928 h -5e-4 c -1.81,-0.71 -3.7975,-1.065 -5.9624,-1.065 h 3e-4 z m 18.2758,11.713 m 9.137804,5.856 c -0.5443,0 -1.0887,0.136 -1.6331,0.408 -1.0883,0 -2.1767,0.273 -3.265,0.817 -0.5326,0.272 -1.0118,0.621 -1.4379,1.047 -1.064604,0.544 -2.022804,1.242 -2.874504,2.094 -0.4261,0.426 -0.7693,0.905 -1.0297,1.438 -0.8517,0.851 -1.5379,1.81 -2.0584,2.874 -0.2722,0.521 -0.4083,1.03 -0.4083,1.527 -0.5441,1.041 -0.8161,2.058 -0.8161,3.052 0,0.414 0.1065,0.764 0.3195,1.048 10e-5,0.828 0.2131,1.526 0.639,2.093 0.213,0.273 0.5325,0.409 0.9586,0.409 0.4259,0.544 1.0646,0.816 1.9162,0.816 0.3906,0 0.7516,-0.113 1.0831,-0.338 0.7806,0 1.502,-0.224 2.164404,-0.674 0.3433,-0.237 0.6511,-0.509 0.9234,-0.816 0.686,-0.474 1.3011,-1.018 1.8452,-1.633 0,0.296 0.0827,0.563 0.2483,0.799 10e-5,0.592 0.1655,1.124 0.4967,1.597 0.1657,0.237 0.4262,0.355 0.7813,0.355 0.3313,0.473 0.852,0.71 1.5617,0.71 0.3552,0 0.793,-0.243 1.3138,-0.728 0.7097,0 1.5849,-0.485 2.6258,-1.455 0.5207,-0.485 1.1716,-1.154 1.9526,-2.006 1.041,-0.97 2.3424,-2.307 3.9039,-4.01 0.0381,-0.038 0.0652,-0.08 0.0831,-0.125 0.0756,-0.075 0.1295,-0.158 0.1648,-0.247 0.0207,-0.024 0.0413,-0.047 0.062,-0.072 0.0412,-0.046 0.0823,-0.092 0.1235,-0.142 l 0.1777,-0.213 c 0.0107,-0.013 0.3546,-0.426 0.3546,-0.426 0.355,-0.414 0.6806,-0.787 0.9764,-1.118 0.7098,-0.828 1.3607,-1.574 1.9522,-2.236 0.2959,-0.343 0.5622,-0.58 0.799,-0.71 0.5913,-0.686 1.1234,-1.159 1.5965,-1.42 0.1067,-0.059 0.2193,-0.089 0.3379,-0.089 0.2127,-0.118 0.4373,-0.177 0.6737,-0.177 0.1303,0 0.2132,0.071 0.2488,0.213 0.2601,0 0.4255,0.142 0.4964,0.426 0.0711,0.201 0.1126,0.45 0.1245,0.746 0.1419,0.402 0.2247,0.899 0.2484,1.49 0.0237,0.296 0.0414,0.58 0.0532,0.853 0.0473,0.591 0.0827,1.159 0.1064,1.703 v 0.178 c 0,0.01 0,0.354 0,0.354 -0.3315,0.273 -0.651,0.539 -0.9588,0.799 -0.6624,0.544 -1.301,1.076 -1.9161,1.597 -0.3077,0.26 -0.586,0.509 -0.8346,0.746 -0.615,0.52 -1.171,1.017 -1.6678,1.49 -0.2486,0.225 -0.4616,0.426 -0.6392,0.604 -0.4968,0.449 -0.9224,0.851 -1.2772,1.206 -0.1777,0.166 -0.3021,0.291 -0.3732,0.373 -0.3547,0.332 -0.603,0.58 -0.7449,0.745 -0.0355,0.06 -0.0533,0.107 -0.0533,0.143 -0.0709,0.118 -0.1061,0.212 -0.1061,0.283 0,0.083 0.0294,0.16 0.0886,0.232 1e-4,0.165 0.0591,0.319 0.1773,0.46 0.0711,0.083 0.154,0.125 0.2488,0.125 0.1419,0.165 0.3073,0.248 0.4964,0.248 0.0711,0 0.1245,-0.018 0.1601,-0.053 0.1418,0 0.2481,-0.036 0.319,-0.107 0.0475,-0.024 0.0892,-0.053 0.1249,-0.089 0.0944,-0.047 0.1771,-0.106 0.248,-0.177 0.0474,-0.059 0.1422,-0.154 0.2843,-0.284 0.0947,-0.119 0.2841,-0.308 0.5678,-0.568 0.1421,-0.13 0.3136,-0.284 0.5149,-0.462 0.2839,-0.26 0.6264,-0.567 1.0285,-0.922 0.2012,-0.189 0.4262,-0.391 0.6747,-0.604 0.4022,-0.378 0.8519,-0.781 1.3486,-1.206 0.2486,-0.213 0.5091,-0.432 0.7814,-0.657 0.4968,-0.426 1.0174,-0.863 1.5615,-1.313 0.0118,0.237 0.0237,0.48 0.0355,0.728 0.0236,0.473 0.0473,0.958 0.071,1.455 0.0237,0.249 0.065,0.456 0.1241,0.621 0.0474,0.497 0.13,0.911 0.2482,1.242 0.0711,0.225 0.1955,0.427 0.373,0.604 0.142,0.45 0.3906,0.852 0.7454,1.207 0.1894,0.165 0.4201,0.248 0.6923,0.248 0.3785,0.331 0.8396,0.497 1.3837,0.497 0.225,0 0.456,-0.077 0.6928,-0.231 0.4494,0 0.9107,-0.154 1.3837,-0.461 0.2959,-0.201 0.6274,-0.491 0.9943,-0.87 0.5915,-0.402 1.254,-0.982 1.9873,-1.739 0.3669,-0.391 0.8047,-0.864 1.3135,-1.42 0.7335,-0.781 1.6089,-1.727 2.6263,-2.839 l 0.1955,-0.231 c 0.0118,-0.014 0.3901,-0.461 0.3901,-0.461 0.0474,-0.071 0.0712,-0.143 0.0713,-0.214 0.0947,-0.142 0.1417,-0.284 0.1417,-0.426 0,-0.237 -0.1122,-0.355 -0.337,-0.355 -2e-4,-0.473 -0.225,-0.709 -0.6744,-0.709 -0.0948,0 -0.1779,0.035 -0.2491,0.106 -0.1891,0 -0.3547,0.071 -0.4966,0.213 -0.5325,0.568 -0.994,1.059 -1.3845,1.474 -1.0647,1.135 -1.9872,2.117 -2.768,2.945 -0.3787,0.402 -0.7101,0.71 -0.9941,0.923 -0.7571,0.805 -1.4197,1.42 -1.9875,1.846 -0.0475,0.023 -0.101,0.047 -0.1603,0.071 -0.0945,0.047 -0.2009,0.095 -0.319,0.142 -0.0475,0.024 -0.095,0.035 -0.1425,0.035 -0.0945,0.048 -0.189,0.071 -0.2835,0.071 -0.1895,0 -0.3198,-0.112 -0.3909,-0.337 -0.3783,0 -0.6384,-0.225 -0.7803,-0.675 -0.071,-0.201 -0.1124,-0.455 -0.1243,-0.763 -0.1418,-0.402 -0.2244,-0.911 -0.248,-1.526 -0.0119,-0.308 -0.0179,-0.621 -0.0179,-0.941 -0.0237,-0.615 -0.0357,-1.242 -0.0357,-1.88 l 3.0172,-2.361 c 0.0468,-0.037 6.0338,-4.721 6.0338,-4.721 0.1184,-0.094 0.1776,-0.189 0.1777,-0.284 0.2364,-0.189 0.3545,-0.378 0.3545,-0.567 0,-0.083 -0.0294,-0.16 -0.0886,-0.231 -1e-4,-0.166 -0.059,-0.319 -0.1772,-0.461 -0.0475,-0.083 -0.1305,-0.125 -0.2489,-0.125 -0.0947,-0.165 -0.2605,-0.248 -0.4968,-0.248 -0.0239,0 -0.0594,0.006 -0.107,0.018 -0.0473,0 -0.1178,0.012 -0.2121,0.035 -0.0475,0.012 -0.0891,0.03 -0.1248,0.053 -0.0944,0.024 -0.1772,0.059 -0.248,0.107 l -2.6446,2.041 c -0.041,0.032 -5.2884,4.082 -5.2884,4.082 -0.0118,-0.249 -0.0354,-0.509 -0.0709,-0.782 -0.0237,-0.496 -0.0709,-1.017 -0.1418,-1.561 -0.0355,-0.272 -0.083,-0.491 -0.1421,-0.657 -0.071,-0.544 -0.1658,-0.982 -0.2841,-1.313 -0.0592,-0.166 -0.1658,-0.32 -0.3197,-0.462 -0.1183,-0.331 -0.3313,-0.638 -0.6387,-0.922 -0.1422,-0.142 -0.3316,-0.213 -0.5683,-0.214 -0.2839,-0.283 -0.6624,-0.425 -1.1354,-0.425 -0.225,0 -0.45,0.059 -0.675,0.177 -0.4494,0.001 -0.8988,0.119 -1.3482,0.355 -0.2959,0.166 -0.6095,0.426 -0.941,0.781 -0.5914,0.332 -1.2183,0.852 -1.8807,1.562 -0.3196,0.355 -0.6687,0.757 -1.0475,1.207 -0.6388,0.71 -1.3367,1.514 -2.0937,2.413 l -0.3198,0.374 c -0.0193,0.022 -0.6381,0.744 -0.6381,0.744 -0.041,0.041 -0.0689,0.087 -0.0864,0.135 -0.0813,0.082 -0.1367,0.172 -0.1713,0.269 -0.1075,0.12 -0.2208,0.248 -0.414,0.469 -0.2146,0.241 -0.441,0.496 -0.827,0.937 -0.2485,0.273 -0.5148,0.551 -0.7988,0.835 -0.4968,0.544 -1.0289,1.1 -1.5967,1.668 -0.2841,0.284 -0.5623,0.538 -0.8346,0.763 -0.5677,0.568 -1.1238,1.076 -1.6679,1.526 -0.2604,0.213 -0.4616,0.32 -0.6037,0.32 -0.5204,0.425 -0.9223,0.638 -1.2062,0.638 -0.1067,0 -0.1898,-0.041 -0.2492,-0.124 -0.2127,0 -0.3783,-0.083 -0.4965,-0.248 -0.0593,-0.095 -0.0889,-0.208 -0.089,-0.338 -0.1181,-0.189 -0.1771,-0.414 -0.1771,-0.674 0,-0.165 0.0296,-0.373 0.0887,-0.621 10e-5,-0.331 0.0591,-0.746 0.1774,-1.242 0.071,-0.261 0.1599,-0.527 0.2664,-0.799 0.1419,-0.521 0.3195,-1.053 0.5324,-1.597 0.1539,-0.26 0.3077,-0.527 0.4616,-0.799 0.3075,-0.52 0.6148,-1.053 0.9224,-1.597 0.1539,-0.272 0.2901,-0.527 0.4085,-0.763 0.3076,-0.545 0.5799,-1.053 0.8165,-1.526 0.1302,-0.249 0.2368,-0.468 0.3196,-0.657 0.2602,-0.497 0.4732,-0.935 0.6388,-1.313 0.0947,-0.202 0.1599,-0.35 0.1955,-0.444 0.1891,-0.402 0.3191,-0.698 0.3901,-0.887 0.0119,-0.024 0.0238,-0.048 0.0357,-0.072 0.0235,-0.047 0.047,-0.094 0.0706,-0.141 0.0119,-0.036 0.0178,-0.071 0.0178,-0.107 0.0236,-0.071 0.0353,-0.142 0.0353,-0.212 0,-0.06 -0.0296,-0.113 -0.0888,-0.161 -2e-4,-0.118 -0.0595,-0.224 -0.1776,-0.319 -0.0474,-0.047 -0.0947,-0.083 -0.1421,-0.106 -0.0946,-0.095 -0.1888,-0.166 -0.2834,-0.213 -0.0356,-0.024 -0.1482,-0.059 -0.3376,-0.107 -0.0715,-0.047 -0.2961,-0.118 -0.674,-0.212 -0.1776,-0.06 -0.4085,-0.089 -0.6927,-0.089 -0.3548,-0.119 -0.8161,-0.178 -1.3838,-0.178 z m -0.0354,1.384 z m -0.0171,0.693 c 0.0593,0 0.1185,0.005 0.1778,0.017 0.118,0 0.2359,0.012 0.3538,0.036 0.0712,0 0.1364,0.006 0.1956,0.017 0.1419,0 0.2718,0.012 0.39,0.036 -0.142,0.249 -0.3254,0.58 -0.5503,0.994 -0.2839,0.497 -0.6505,1.16 -1.1,1.988 -0.2249,0.414 -0.4263,0.846 -0.6039,1.296 -0.4494,0.828 -0.8518,1.691 -1.2067,2.59 v -0.018 c 0,-0.004 0,-0.035 0,-0.035 -0.1184,0.201 -0.2721,0.432 -0.4615,0.692 -0.2366,0.403 -0.5439,0.864 -0.9224,1.384 -0.1776,0.249 -0.3787,0.486 -0.6036,0.711 -0.3549,0.496 -0.7569,0.97 -1.2064,1.419 -0.213,0.225 -0.438,0.414 -0.6747,0.568 -0.4259,0.45 -0.875504,0.828 -1.348604,1.135 -0.2368,0.143 -0.4735,0.214 -0.7102,0.214 -0.4732,0.283 -0.9463,0.425 -1.4195,0.425 -0.1894,0 -0.3317,-0.071 -0.4265,-0.213 -0.3783,0 -0.6622,-0.142 -0.8514,-0.426 -0.0948,-0.153 -0.142,-0.331 -0.1421,-0.532 -0.1892,-0.308 -0.2834,-0.663 -0.2834,-1.065 0,-0.39 0.1063,-0.805 0.3192,-1.243 10e-5,-0.78 0.2127,-1.608 0.6386,-2.483 0.2248,-0.438 0.5148,-0.841 0.8698,-1.208 0.4495,-0.875 1.0293,-1.68 1.7391,-2.413 0.355,-0.379 0.7574,-0.686 1.207104,-0.923 0.7098,-0.757 1.5144,-1.372 2.4134,-1.845 0.4616,-0.249 0.929,-0.373 1.4024,-0.373 0.9227,-0.497 1.8574,-0.745 2.8037,-0.745 z"
         id="path1081"
         transform="matrix(1.5593762,0,0,1.5593762,-75.024448,-76.249325)" />
      <path
         style="fill:#aafed4;fill-opacity:1;fill-rule:evenodd;stroke:#abffd4;stroke-width:4.10104;stroke-linecap:square;stroke-miterlimit:4;stroke-dasharray:none;stroke-opacity:0.584314;filter:url(#filter2576)"
         d="m -61.171787,32.045488 c -1.2422,0 -2.4847,0.1063 -3.7269,0.3192 l -3e-4,10e-5 c -1.2422,0.1774 -2.4136,0.4793 -3.5138,0.9052 l -2e-4,1e-4 c -1.7036,0.6744 -3.1233,1.6323 -4.259,2.8746 l -1e-4,10e-5 c -1.1002,1.2423 -1.6502,2.6267 -1.6502,4.1528 v 6e-4 c 1e-4,0.5677 0.1066,1.0822 0.3195,1.5435 l 2e-4,4e-4 c 0.213,0.4256 0.5856,0.6383 1.1179,0.6383 h 2e-4 c 0.2839,-10e-5 0.5321,-0.0885 0.745,-0.2659 l 4e-4,-4e-4 c 0.2482,-0.2129 0.3724,-0.4792 0.3724,-0.7984 v -6e-4 c -10e-5,-0.1418 -0.0532,-0.2838 -0.1596,-0.4256 l -2e-4,-3e-4 c -0.1064,-0.1773 -0.2131,-0.3009 -0.3195,-0.3719 v -3e-4 c 0,-0.014 0,-0.6922 0,-0.6922 l 1e-4,-4e-4 c 0.0355,-0.1773 0.0885,-0.3724 0.1595,-0.5852 l 1e-4,-5e-4 c 0.284,-0.9581 0.8163,-1.7563 1.5971,-2.395 l 4e-4,-4e-4 c 0.7807,-0.6742 1.6327,-1.2066 2.5553,-1.597 l 5e-4,-2e-4 c 1.0292,-0.4258 2.1646,-0.7275 3.4066,-0.9049 l 6e-4,-10e-5 c 1.2776,-0.2129 2.4312,-0.3196 3.4603,-0.3196 h 4e-4 c 0.389,0 0.771,0.014 1.1468,0.0402 l -4e-4,5e-4 c -0.0184,0.02 -0.9075,0.9875 -0.9075,0.9875 l -3e-4,4e-4 c -0.0078,0.0084 -0.1992,0.2165 -0.1992,0.2165 l 3e-4,2e-4 7e-4,4e-4 -1e-4,1e-4 c -0.4929,0.5493 -0.9858,1.1973 -1.4787,1.9485 l -2e-4,3e-4 c -0.7098,1.1357 -1.4019,2.4316 -2.0763,3.8867 v 2e-4 c -0.6744,1.4197 -1.3306,2.9455 -1.9695,4.5781 l -1e-4,2e-4 c -0.6388,1.6327 -1.2603,3.2653 -1.8636,4.898 l -1e-4,2e-4 c -0.0038,0.0108 -0.3723,1.0645 -0.3723,1.0645 l -10e-5,3e-4 c -0.8518,2.236 -1.7037,4.401 -2.5555,6.495 v 2e-4 c -0.571,1.4645 -1.1509,2.7338 -1.7392,3.8165 l 1e-4,1e-4 c 0.0101,0.0034 1.9643,0.6759 1.9643,0.6759 l 1e-4,-2e-4 c 0.6801,-1.2772 1.3503,-2.7208 2.0108,-4.3324 l 1e-4,-2e-4 c 0.9228,-2.2006 1.8455,-4.5431 2.7683,-7.0275 v -2e-4 c 0.5679,-1.5617 1.1534,-3.1234 1.7567,-4.6851 l 1e-4,-2e-4 c 0.6389,-1.5616 1.2603,-3.0168 1.8636,-4.3655 l 1e-4,-2e-4 c 0.6389,-1.3841 1.2597,-2.6087 1.863,-3.6734 l 2e-4,-3e-4 c 0.623,-1.0383 1.2463,-1.8556 1.8693,-2.4552 h 1e-4 c 0.0031,-0.0028 0.3075,-0.2767 0.3075,-0.2767 l 2e-4,-10e-5 c 0.7305,-0.3268 1.6921,-0.5138 2.5535,-0.5138 h 3e-4 c 0.5375,0 1.1317,0.0989 1.6911,0.2653 l 2e-4,10e-5 c 0.7824,0.4049 1.4986,0.8926 2.1491,1.4624 v 2e-4 c 0.008,0.0238 0.015,0.0476 0.0203,0.0716 v -2e-4 c 0.0022,-0.0071 0.0133,-0.0176 0.0287,-0.0293 l 10e-5,2e-4 c 0.0734,0.065 0.1459,0.1311 0.2176,0.1983 l 10e-5,10e-5 c 1.1358,1.0293 2.0231,2.3246 2.662,3.8863 l 1e-4,10e-5 c 0.6743,1.5262 1.0115,3.2831 1.0115,5.2707 v 3e-4 c -10e-5,1.4197 -0.1774,2.8748 -0.5323,4.3654 l -10e-5,4e-4 c -0.3549,1.4551 -0.8696,2.8747 -1.544,4.2589 v 10e-5 c -0.6389,1.3842 -1.4378,2.6972 -2.3961,3.9394 l -1e-4,2e-4 c -0.9583,1.2067 -2.0585,2.2715 -3.3007,3.1943 l -2e-4,1e-4 c -1.2422,0.9228 -2.6088,1.6503 -4.0994,2.1827 l -2e-4,1e-4 c -1.4907,0.5323 -3.0874,0.7983 -4.791,0.7983 h -3e-4 c -1.2777,-1e-4 -2.4845,-0.124 -3.6202,-0.3724 l -3e-4,-1e-4 c -1.1357,-0.2484 -2.2003,-0.5501 -3.1941,-0.905 l -1e-4,-1e-4 c -0.0104,-0.0033 -2.0232,-0.6388 -2.0232,-0.6388 l -3e-4,-2e-4 c -0.0062,-0.0031 -0.3187,-0.1599 -0.3187,-0.1599 l -2e-4,-1e-4 c -0.7453,-0.2839 -1.4375,-0.5144 -2.0763,-0.6918 l -3e-4,-10e-5 c -0.6388,-0.1774 -1.2425,-0.2658 -1.8103,-0.2658 h -2e-4 c -0.8162,0 -1.5261,0.2836 -2.1294,0.8515 l -2e-4,1e-4 c -0.6387,0.5324 -0.9578,1.2246 -0.9578,2.0764 v 2e-4 c 1e-4,0.8872 0.3192,1.6147 0.958,2.1825 l 1e-4,2e-4 c 0.6034,0.6033 1.42,0.9051 2.4492,0.9051 h 3e-4 c 0.5323,-1e-4 1.2245,-0.1776 2.0762,-0.5324 l 2e-4,-1e-4 c 0.5116,-0.2132 1.0229,-0.531 1.5345,-0.949 l -1e-4,-1e-4 c -0.0095,-0.0059 -1.8533,-1.1474 -1.8533,-1.1474 l -3e-4,1e-4 c -0.12,0.0791 -0.2431,0.1569 -0.3731,0.2327 l -2e-4,2e-4 c -0.4258,0.2483 -0.8874,0.3727 -1.3842,0.3727 h -3e-4 c -0.2838,-10e-5 -0.5856,-0.0885 -0.905,-0.2659 l -3e-4,-2e-4 c -0.3192,-0.1774 -0.4788,-0.4262 -0.4788,-0.7455 v -2e-4 c 10e-5,-0.2484 0.1066,-0.4611 0.3195,-0.6385 l 2e-4,-2e-4 c 0.2129,-0.1774 0.4612,-0.2659 0.745,-0.2659 h 3e-4 c 0.3194,0 0.7101,0.0708 1.1714,0.2127 l 2e-4,1e-4 c 0.4969,0.142 1.047,0.3195 1.6503,0.5324 h 1e-4 c 0.0109,0.0039 2.1295,0.7452 2.1295,0.7452 l 3e-4,1e-4 c 1.1002,0.3904 2.3242,0.7452 3.6729,1.0646 l 3e-4,1e-4 c 1.3486,0.3194 2.8396,0.4792 4.4721,0.4792 h 4e-4 c 2.7683,0 5.2882,-0.621 7.5596,-1.8632 l 3e-4,-2e-4 c 2.307,-1.2422 4.2768,-2.8571 5.9095,-4.8447 l 2e-4,-2e-4 c 1.668,-1.9876 2.9457,-4.2239 3.833,-6.7083 l 1e-4,-3e-4 c 0.9228,-2.4845 1.3839,-4.9689 1.3839,-7.4533 v -3e-4 c -10e-5,-2.165 -0.3727,-4.1349 -1.1181,-5.9095 l -1e-4,-2e-4 c -0.7453,-1.7746 -1.7924,-3.2827 -3.1411,-4.5249 l -2e-4,-2e-4 c -1.3132,-1.2777 -2.8745,-2.2534 -4.6845,-2.9278 l -3e-4,-10e-5 c -1.8101,-0.7098 -3.7976,-1.0648 -5.9626,-1.0648 l 1e-4,10e-5 z m 9.1379,5.8563 m 18.2757,11.7127 c -1.0885,0 -2.1771,0.2724 -3.2656,0.8166 -0.5442,10e-5 -1.0884,0.1363 -1.6325,0.4083 -1.0649,0.5443 -2.0233,1.2421 -2.8752,2.094 -0.5323,0.2721 -1.0114,0.6209 -1.4372,1.0468 -0.852,0.8519 -1.5383,1.8102 -2.0589,2.8751 -0.4259,0.4259 -0.769,0.9049 -1.0292,1.4373 -0.5443,1.0412 -0.8163,2.0589 -0.8164,3.0528 -0.272,0.5205 -0.408,1.0293 -0.408,1.5261 0,0.8283 0.2131,1.5265 0.639,2.0945 0,0.4139 0.1066,0.7629 0.3195,1.0467 0.4259,0.5443 1.0648,0.8164 1.9167,0.8165 0.2129,0.2719 0.5323,0.4079 0.9581,0.4079 0.781,0 1.5027,-0.2248 2.1653,-0.6744 0.3903,-10e-5 0.751,-0.1125 1.0822,-0.3372 0.6863,-0.4733 1.3017,-1.0174 1.846,-1.6326 0.343,-0.2366 0.6505,-0.5086 0.9226,-0.8161 0,0.5916 0.1654,1.1239 0.4967,1.5972 0,0.2957 0.0827,0.5618 0.2483,0.7983 0.3313,0.4733 0.8522,0.71 1.5622,0.71 0.1656,0.2365 0.426,0.3548 0.7808,0.3548 0.71,0 1.5855,-0.4851 2.6267,-1.4552 0.3549,-10e-5 0.7925,-0.2427 1.3129,-0.7276 1.0412,-0.9702 2.3427,-2.3071 3.9045,-4.0109 0.5206,-0.485 1.1712,-1.1534 1.952,-2.0051 0.0759,-0.0759 0.13,-0.1591 0.1655,-0.2485 0.0378,-0.0379 0.0647,-0.0793 0.0824,-0.1239 0.0413,-0.0467 0.0825,-0.0927 0.1238,-0.1423 0.0206,-0.0232 0.0411,-0.0462 0.0617,-0.0709 l 0.355,-0.4263 c 0.0053,-0.0065 0.1773,-0.213 0.1773,-0.213 0.7099,-0.8282 1.3609,-1.5736 1.9525,-2.2362 0.3549,-0.414 0.6804,-0.7867 0.9761,-1.1179 0.5916,-0.6863 1.1239,-1.1596 1.5972,-1.42 0.2957,-0.343 0.5618,-0.5795 0.7983,-0.7096 0.2131,-0.1184 0.438,-0.1774 0.6748,-0.1774 0.1063,-0.0591 0.2186,-0.0885 0.3368,-0.0885 0.2604,0 0.426,0.1419 0.497,0.4258 0.1301,1e-4 0.2128,0.071 0.2482,0.2129 0.142,0.4024 0.225,0.8994 0.2487,1.491 0.0709,0.2011 0.1124,0.4495 0.1242,0.7451 0.0473,0.5916 0.0827,1.1597 0.1064,1.704 0.0237,0.2957 0.0414,0.5796 0.0532,0.8516 v 0.3551 c 0,0.0054 0,0.1774 0,0.1774 -0.6626,0.5443 -1.3015,1.0766 -1.9168,1.5972 -0.3312,0.272 -0.6505,0.5381 -0.9581,0.7983 -0.6153,0.5206 -1.1715,1.0176 -1.6685,1.4909 -0.3075,0.2602 -0.5855,0.5086 -0.8339,0.7452 -0.497,0.4496 -0.9228,0.8521 -1.2778,1.2071 -0.2484,0.2247 -0.4612,0.4259 -0.6386,0.6033 -0.3551,0.3314 -0.6036,0.5799 -0.7457,0.7456 -0.1773,0.1655 -0.3014,0.2897 -0.3724,0.3724 -0.071,0.1184 -0.1063,0.2132 -0.1064,0.2842 -0.0354,0.0591 -0.053,0.1064 -0.053,0.1418 0,0.1657 0.0589,0.3196 0.1772,0.4616 10e-5,0.0828 0.0296,0.1596 0.0887,0.2305 0.142,0.1657 0.3076,0.2487 0.497,0.2488 0.0709,0.0826 0.1536,0.124 0.2482,0.124 0.142,0 0.2486,-0.0357 0.3196,-0.1067 0.0709,0 0.1241,-0.0179 0.1595,-0.0534 0.0948,-0.0473 0.1778,-0.1064 0.2489,-0.1775 0.0472,-0.0236 0.0885,-0.0531 0.124,-0.0885 0.0947,-0.1184 0.2842,-0.3078 0.5682,-0.5682 0.0474,-0.0592 0.1421,-0.1538 0.2839,-0.2838 0.284,-0.2604 0.6268,-0.5678 1.0291,-0.9228 0.142,-0.1301 0.3133,-0.2838 0.5143,-0.4612 0.4023,-0.3786 0.8521,-0.7812 1.349,-1.2071 0.2011,-0.1893 0.4259,-0.3905 0.6743,-0.6034 0.497,-0.426 1.0178,-0.8636 1.5621,-1.3132 0.2484,-0.2129 0.5088,-0.4316 0.7808,-0.6564 0.0236,0.4734 0.0473,0.9586 0.071,1.4557 0.0118,0.2365 0.0236,0.4789 0.0355,0.7273 0.0473,0.4969 0.1299,0.9109 0.2482,1.2422 0.0237,0.2484 0.065,0.4553 0.1241,0.6208 0.142,0.4497 0.3908,0.8524 0.7457,1.2074 0.071,0.2247 0.1953,0.4258 0.3727,0.6032 0.3787,0.3313 0.8399,0.4968 1.3841,0.4968 0.1893,0.1656 0.4199,0.2483 0.6919,0.2483 0.4497,0 0.9113,-0.1537 1.3847,-0.4613 0.2247,-1e-4 0.4553,-0.0769 0.6918,-0.2306 0.5915998,-0.4023 1.2543998,-0.9822 1.9879998,-1.7395 0.2957,-0.2011 0.6269,-0.4909 0.9936,-0.8695 0.7336,-0.7809 1.6091,-1.7274 2.6267,-2.8396 0.3667,-0.3904 0.8044,-0.8636 1.3131,-1.4196 l 0.3905,-0.4614 c 0.0059,-0.007 0.1951,-0.2305 0.1951,-0.2305 0.0947,-0.142 0.142002,-0.2844 0.142002,-0.4265 0.047,-0.0709 0.071,-0.142 0.071,-0.2129 0,-0.4733 -0.224602,-0.71 -0.674202,-0.7101 -10e-5,-0.2364 -0.1125,-0.3546 -0.3372,-0.3546 -0.1894,0 -0.3553,0.0711 -0.4974,0.2131 -0.0945,1e-4 -0.1774,0.0357 -0.2483,0.1066 -1.0648,1.1358 -1.9876,2.1177 -2.7685,2.946 -0.5323,0.5678 -0.9936,1.0586 -1.384,1.4727 -0.7572,0.8045 -1.4199,1.4198 -1.9878998,1.8458 -0.3785,0.4022 -0.7098,0.7098 -0.9937,0.9227 -0.0947,0.0474 -0.2014,0.0949 -0.3198,0.1423 -0.0473,0.0236 -0.1004,0.0473 -0.1595,0.0709 -0.0947,0.0474 -0.1895,0.071 -0.2843,0.071 -0.0472,0.0236 -0.0945,0.0353 -0.1417,0.0353 -0.3787,0 -0.639,-0.2248 -0.7811,-0.6743 -0.1891,-2e-4 -0.3191,-0.1126 -0.3901,-0.3372 -0.142,-0.4024 -0.2246,-0.9112 -0.2483,-1.5265 -0.0709,-0.2011 -0.1122,-0.4553 -0.124,-0.7628 -0.0237,-0.6153 -0.0358,-1.2423 -0.0358,-1.8812 -0.0118,-0.3075 -0.0178,-0.6209 -0.0178,-0.9403 l 6.0340998,-4.721 c 0.0234,-0.0183 3.0169,-2.3604 3.0169,-2.3604 0.2366,-0.1893 0.3549,-0.3785 0.355,-0.5678 0.1182,-0.0946 0.1772,-0.1891 0.1772,-0.2837 0,-0.1657 -0.0589,-0.3195 -0.1772,-0.4616 -1e-4,-0.0827 -0.0295,-0.1595 -0.0886,-0.2305 -0.0947,-0.1657 -0.2606,-0.2487 -0.4973,-0.2488 -0.0474,-0.0826 -0.1302,-0.124 -0.2484,-0.124 -0.0475,0 -0.1183,0.0118 -0.213,0.0354 -0.0237,10e-5 -0.059,0.006 -0.1061,0.0178 -0.0947,0.0237 -0.1777,0.0591 -0.2488,0.1064 -0.0472,0.0119 -0.0886,0.0296 -0.124,0.0532 l -5.2887998,4.0821 c -0.0205,0.0158 -2.6442,2.0409 -2.6442,2.0409 -0.0237,-0.497 -0.0708,-1.0178 -0.1418,-1.5621 -0.0119,-0.2484 -0.0355,-0.5087 -0.0709,-0.7808 -0.071,-0.5443 -0.1659,-0.9819 -0.2842,-1.3132 -0.0355,-0.2721 -0.0829,-0.4907 -0.142,-0.6563 -0.1183,-0.3314 -0.3314,-0.6393 -0.639,-0.9233 -0.0592,-0.1656 -0.1657,-0.3194 -0.3194,-0.4613 -0.2841,-0.284 -0.6627,-0.426 -1.136,-0.4261 -0.142,-0.1418 -0.3312,-0.2127 -0.5677,-0.2127 -0.4497,0 -0.8994,0.1184 -1.3491,0.355 -0.2247,10e-5 -0.4494,0.0592 -0.6741,0.1775 -0.5916,0.3313 -1.2187,0.8518 -1.8813,1.5617 -0.2957,0.1656 -0.6092,0.4258 -0.9404,0.7807 -0.6389,0.7099 -1.3371,1.5146 -2.0943,2.4139 -0.3194,0.3549 -0.6684,0.7571 -1.0469,1.2066 l -0.6389,0.7456 c -0.0096,0.0113 -0.319,0.3724 -0.319,0.3724 -0.0817,0.0816 -0.1373,0.1719 -0.1721,0.2691 -0.0406,0.0407 -0.0683,0.0857 -0.0856,0.1342 -0.2148,0.2413 -0.4413,0.4966 -0.8275,0.9379 -0.1073,0.1206 -0.2205,0.2482 -0.4135,0.4687 -0.4969,0.5443 -1.0292,1.1006 -1.5972,1.6685 -0.2484,0.2721 -0.5144,0.5501 -0.7983,0.834 -0.568,0.568 -1.1242,1.0767 -1.6685,1.5264 -0.2839,0.2838 -0.5619,0.5381 -0.834,0.7628 -0.5206,0.426 -0.9228,0.6391 -1.2068,0.6391 -0.2602,0.2129 -0.4612,0.3194 -0.6031,0.3194 -0.2131,0 -0.379,-0.083 -0.4975,-0.2486 -0.1063,-1e-4 -0.1891,-0.0415 -0.2482,-0.1243 -0.1184,-0.1894 -0.1775,-0.4139 -0.1776,-0.6743 -0.059,-0.0946 -0.0885,-0.2068 -0.0885,-0.3368 0,-0.3313 0.0591,-0.7457 0.1774,-1.2427 0,-0.1656 0.0296,-0.3727 0.0887,-0.621 0.142,-0.5206 0.3196,-1.0529 0.5326,-1.5972 0.071,-0.2602 0.1598,-0.5263 0.2662,-0.7983 0.3077,-0.5207 0.6151,-1.0534 0.9228,-1.5977 0.1537,-0.2602 0.3074,-0.5264 0.4612,-0.7985 0.3076,-0.5443 0.5801,-1.053 0.8167,-1.5263 0.1538,-0.2721 0.29,-0.5264 0.4083,-0.7629 0.2603,-0.497 0.4734,-0.9349 0.639,-1.3136 0.1301,-0.2483 0.2366,-0.4672 0.3194,-0.6564 0.1894,-0.4024 0.3195,-0.6981 0.3905,-0.8875 0.0946,-0.201 0.1596,-0.3487 0.1951,-0.4433 0.0237,-0.0475 0.0473,-0.0951 0.071,-0.1425 0.0118,-0.0235 0.0235,-0.0472 0.0353,-0.0708 0.0237,-0.071 0.0355,-0.1419 0.0355,-0.213 0.0118,-0.0354 0.0176,-0.0708 0.0176,-0.1062 0,-0.1184 -0.0593,-0.225 -0.1776,-0.3198 -10e-5,-0.059 -0.0297,-0.1121 -0.0888,-0.1593 -0.0947,-0.0947 -0.1891,-0.1659 -0.2838,-0.2133 -0.0473,-0.0473 -0.0944,-0.0828 -0.1417,-0.1064 -0.0711,-0.0474 -0.2959,-0.1182 -0.6746,-0.2129 -0.0357,-0.0236 -0.1481,-0.0589 -0.337,-0.1062 -0.355,-0.1183 -0.8166,-0.1777 -1.3846,-0.1778 -0.1774,-0.0591 -0.4081,-0.0887 -0.6919,-0.0887 z m -0.0177,0.6921 z m -0.0351,1.3843 c 0.1184,0 0.2367,0.0118 0.355,0.0355 0.059,0 0.118,0.0059 0.1769,0.0177 0.1421,0 0.2723,0.0118 0.3906,0.0354 0.0709,10e-5 0.1359,0.006 0.195,0.0178 -0.284,0.4969 -0.6507,1.1598 -1.1003,1.988 -0.142,0.2484 -0.3253,0.5798 -0.55,0.9937 -0.4496,0.8283 -0.8522,1.692 -1.2072,2.5913 -0.2247,0.414 -0.426,0.8457 -0.6034,1.2952 v -0.0357 c 0,-0.0019 0,-0.0175 0,-0.0175 -0.2366,0.4023 -0.5441,0.8638 -0.9227,1.3844 -0.1183,0.2011 -0.272,0.4318 -0.4612,0.6921 -0.355,0.4969 -0.7572,0.9702 -1.2068,1.4199 -0.1774,0.2484 -0.3784,0.4849 -0.6032,0.7097 -0.426,0.4496 -0.8757,0.8281 -1.349,1.1358 -0.2129,0.2247 -0.4378,0.4139 -0.6743,0.5677 -0.4733,0.2839 -0.9466,0.426 -1.4199,0.426 -0.2366,0.1419 -0.4732,0.2129 -0.7098,0.2129 -0.3786,0 -0.6628,-0.142 -0.8522,-0.426 -0.1892,0 -0.3311,-0.071 -0.4257,-0.2129 -0.1894,-0.3077 -0.2838,-0.6627 -0.2838,-1.0651 -0.0946,-0.1537 -0.1417,-0.3311 -0.1417,-0.5321 0,-0.781 0.2126,-1.6092 0.6385,-2.4848 0,-0.3904 0.1063,-0.8044 0.3193,-1.242 0.4496,-0.8756 1.0294,-1.6803 1.7393,-2.4139 0.2248,-0.4376 0.5147,-0.8399 0.8696,-1.2066 0.7099,-0.7573 1.5146,-1.3725 2.4138,-1.8458 0.3549,-0.3785 0.7572,-0.686 1.2067,-0.9226 0.9229,-0.4969 1.8577,-0.7454 2.8043,-0.7455 0.4613,-0.2483 0.9287,-0.3725 1.4018,-0.3725 z"
         id="path1083"
         transform="matrix(1.5593762,0,0,1.5593762,55.680787,-43.673144)" />
      <path
         id="path2701"
         style="fill:#000000;fill-opacity:1;fill-rule:evenodd;stroke:none;stroke-width:2.50379;stroke-linecap:square;stroke-miterlimit:4;stroke-dasharray:none;opacity:0.445;filter:url(#filter2863)"
         inkscape:transform-center-x="-0.44548478"
         inkscape:transform-center-y="-0.55710463"
         d="m -35.377085,18.088777 c -1.659472,0 -3.319156,0.141935 -4.978627,0.426416 -1.659485,0.23707 -3.224389,0.640347 -4.694224,1.209324 -2.275844,0.900854 -4.172443,2.180615 -5.689684,3.840103 -1.469821,1.659482 -2.204564,3.508912 -2.204564,5.547711 0,0.758617 0.142362,1.446211 0.426844,2.062588 0.284483,0.568963 0.782326,0.853264 1.493518,0.853264 0.379314,0 0.710992,-0.118142 0.995473,-0.355203 0.331891,-0.284484 0.498058,-0.640392 0.498058,-1.067117 0,-0.189654 -0.07093,-0.379618 -0.213201,-0.569273 -0.142242,-0.237068 -0.28483,-0.402365 -0.427071,-0.497198 v -0.92512 c 0.04742,-0.23707 0.118356,-0.497778 0.213214,-0.782264 0.379301,-1.280171 1.090467,-2.346611 2.133578,-3.200056 1.043097,-0.90086 2.18136,-1.612242 3.414107,-2.133799 1.375003,-0.568963 2.891885,-0.972039 4.551355,-1.209109 1.706894,-0.284486 3.248223,-0.427061 4.623224,-0.427061 0.519793,0 1.03022,0.0187 1.532459,0.05378 l -1.212764,1.319693 -0.266555,0.289799 0.0014,8.33e-4 c -0.658507,0.733854 -1.316906,1.599537 -1.975453,2.603029 -0.948265,1.517243 -1.872979,3.248542 -2.773835,5.192506 -0.900856,1.896554 -1.777546,3.934871 -2.630994,6.115915 -0.853446,2.181032 -1.68361,4.36214 -2.489634,6.543178 l -0.497416,1.422325 c -1.137928,2.98707 -2.275964,5.879361 -3.413895,8.67677 -0.762688,1.956465 -1.537386,3.652139 -2.323332,5.098493 l 2.6241,0.902961 c 0.908617,-1.70624 1.803943,-3.634673 2.686284,-5.787598 1.23276,-2.939663 2.465348,-6.069083 3.698095,-9.388038 0.758629,-2.086211 1.540754,-4.172564 2.346792,-6.258769 0.853447,-2.086206 1.683609,-4.030192 2.489633,-5.83192 0.853448,-1.849138 1.682755,-3.485022 2.488779,-4.907442 0.832328,-1.387198 1.665055,-2.479116 2.497383,-3.280089 l 0.410934,-0.369615 c 0.975796,-0.436696 2.260522,-0.686522 3.411301,-0.686525 0.718205,7e-6 1.512087,0.132156 2.259441,0.354342 1.045261,0.540988 2.002156,1.192458 2.871086,1.953723 0.01068,0.03191 0.02004,0.06381 0.02712,0.09595 0.0027,-0.0096 0.01763,-0.02359 0.03834,-0.03937 0.09805,0.08698 0.195074,0.17525 0.290868,0.265056 1.517242,1.374995 2.702673,3.105434 3.556119,5.191646 0.90087,2.038792 1.351343,4.385853 1.351343,7.041034 0,1.896554 -0.236912,3.840541 -0.711058,5.831921 -0.474145,1.943965 -1.161733,3.840567 -2.062615,5.689707 -0.853432,1.849147 -1.920735,3.603169 -3.200893,5.262643 -1.280169,1.612073 -2.749883,3.034628 -4.409368,4.26739 -1.659469,1.232762 -3.485094,2.204644 -5.47647,2.915855 -1.991362,0.711203 -4.124444,1.066474 -6.400303,1.066474 -1.706881,0 -3.319182,-0.165527 -4.836412,-0.497413 -1.517242,-0.331911 -2.939587,-0.734989 -4.267167,-1.20912 l -2.702847,-0.853482 -0.426189,-0.21385 c -0.995687,-0.379312 -1.920401,-0.687188 -2.773853,-0.92426 -0.853447,-0.237065 -1.660035,-0.3552 -2.418645,-0.3552 -1.090522,0 -2.038825,0.378848 -2.844859,1.137464 -0.853453,0.711212 -1.279676,1.635923 -1.279676,2.773859 0,1.185328 0.426223,2.157225 1.279676,2.915849 0.806034,0.80603 1.89691,1.209323 3.271914,1.209323 0.71121,0 1.635917,-0.237121 2.773855,-0.711259 0.683459,-0.284785 1.366585,-0.709308 2.050098,-1.267845 l -2.47586,-1.532906 c -0.160427,0.105692 -0.325024,0.209777 -0.498709,0.3111 -0.568964,0.331885 -1.18559,0.498056 -1.849384,0.498056 -0.379307,0 -0.782598,-0.118142 -1.209325,-0.355206 -0.42672,-0.237066 -0.64005,-0.569389 -0.64005,-0.996113 0,-0.331899 0.142363,-0.616197 0.426841,-0.853264 0.284485,-0.237072 0.616163,-0.35542 0.995479,-0.35542 0.426721,0 0.948789,0.09455 1.565175,0.284208 0.663796,0.189658 1.398769,0.426787 2.204792,0.711265 l 2.844835,0.995468 c 1.46982,0.521558 3.105059,0.995599 4.906784,1.422325 1.801711,0.426725 3.793501,0.640268 5.974528,0.640268 3.698269,0 7.064567,-0.829526 10.09904,-2.489006 3.081882,-1.659493 5.713449,-3.816802 7.894476,-6.471973 2.228447,-2.65517 3.935313,-5.642648 5.120651,-8.961623 1.232786,-3.318961 1.848759,-6.637908 1.848759,-9.956883 0,-2.892256 -0.497857,-5.523815 -1.493544,-7.894511 -0.995688,-2.370688 -2.394466,-4.385426 -4.196205,-6.044907 -1.754288,-1.706896 -3.839988,-3.010454 -6.258087,-3.911318 -2.418086,-0.948268 -5.073231,-1.422532 -7.965464,-1.422532 z M 1.2433394,41.558215 c -2.18105163,0 -4.3621567,0.545874 -6.5432217,1.636389 -2.133629,1.090516 -4.0538297,2.488645 -5.7607217,4.195539 -1.706934,1.7069 -3.082095,3.627086 -4.125218,5.760706 -1.090519,2.086212 -1.635532,4.125394 -1.635532,6.116774 0,1.659481 0.426871,3.058248 1.280331,4.196169 0.853446,1.090523 2.133442,1.635528 3.840347,1.635528 1.564652,0 3.0105997,-0.450463 4.3381916,-1.351327 1.3750013,-0.94827 2.6078283,-2.038293 3.6983474,-3.271047 0,1.185342 0.3314772,2.251772 0.9952733,3.200056 0.6637959,0.94827 1.70750697,1.422318 3.1299308,1.422318 1.4224105,0 3.1764451,-0.971883 5.2626649,-2.915856 2.0862202,-1.943967 4.694008,-4.6227 7.823364,-8.036495 0.15194,-0.151958 0.260303,-0.318413 0.331103,-0.497418 0.08268,-0.09343 0.165178,-0.185651 0.24784,-0.284853 l 0.711045,-0.853903 c 1.422438,-1.659494 2.726879,-3.15301 3.912216,-4.480599 1.185365,-1.375003 2.251799,-2.323315 3.200077,-2.844858 0.426723,-0.237072 0.877197,-0.355199 1.351343,-0.355199 0.521542,0 0.85322,0.284298 0.995461,0.853255 0.284468,0.806044 0.450634,1.801728 0.49807,2.987069 0.09484,1.185349 0.165765,2.323404 0.213202,3.413914 v 0.711266 c -1.327592,1.090522 -2.607574,2.156947 -3.840348,3.200056 -1.232774,1.043111 -2.347232,2.038792 -3.342932,2.987062 -0.995688,0.900871 -1.848813,1.707228 -2.560019,2.418446 -0.711218,0.66379 -1.209035,1.161631 -1.49353,1.49353 -0.142241,0.237073 -0.213001,0.426822 -0.213001,0.569055 0,0.331906 0.118089,0.639991 0.355215,0.924476 0.284469,0.331893 0.61616,0.498057 0.99546,0.498057 0.284509,0 0.497831,-0.07162 0.640071,-0.213855 0.189651,-0.09483 0.355817,-0.213175 0.498058,-0.355415 0.189663,-0.237073 0.569365,-0.616566 1.138329,-1.138116 0.568965,-0.521538 1.25571,-1.137527 2.061747,-1.848738 0.806051,-0.758616 1.707173,-1.565202 2.702874,-2.418653 0.995701,-0.853443 2.039198,-1.730139 3.129731,-2.631001 0.04729,0.948276 0.09471,1.920373 0.1422,2.916071 0.09485,0.995689 0.260357,1.825 0.497417,2.488788 0.284481,0.900871 0.782766,1.707451 1.493971,2.418661 0.758628,0.663791 1.6827,0.995253 2.773233,0.995253 0.900869,0 1.825583,-0.307884 2.773874,-0.924262 1.185351,-0.806037 2.513157,-1.967878 3.98299,-3.485125 1.469846,-1.564654 3.224095,-3.461249 5.262905,-5.689702 l 0.782259,-0.92426 c 0.189645,-0.284485 0.284851,-0.569639 0.284851,-0.854131 0,-0.94827 -0.450455,-1.422318 -1.351325,-1.422318 -0.379313,0 -0.711646,0.14258 -0.996128,0.427065 -2.133629,2.275866 -3.982428,4.243224 -5.547094,5.902696 -1.517268,1.612076 -2.845061,2.844886 -3.983003,3.698336 -0.189663,0.09482 -0.403198,0.190027 -0.640258,0.284854 -0.189677,0.09483 -0.379407,0.141996 -0.569071,0.141996 -0.758615,0 -1.280062,-0.450457 -1.564545,-1.351325 -0.284455,-0.806032 -0.449979,-1.825306 -0.497402,-3.058061 -0.04742,-1.232769 -0.0716,-2.48895 -0.0716,-3.769112 l 12.090754,-9.459689 c 0.474132,-0.379318 0.711045,-0.758158 0.711045,-1.137463 0,-0.331898 -0.118089,-0.639997 -0.355188,-0.924483 -0.189651,-0.331898 -0.521996,-0.498056 -0.996142,-0.498056 -0.09484,0 -0.236539,0.02355 -0.426202,0.071 -0.18965,0.04745 -0.355803,0.11837 -0.498044,0.213203 L 27.78138,50.519849 c -0.04742,-0.995691 -0.141974,-2.039182 -0.284201,-3.129704 -0.142241,-1.090517 -0.332226,-1.967212 -0.569285,-2.63101 -0.237073,-0.66379 -0.663956,-1.280627 -1.280343,-1.849592 -0.568964,-0.568972 -1.327525,-0.853262 -2.275804,-0.853262 -0.900869,0 -1.801778,0.237127 -2.702659,0.711266 -1.185351,0.663797 -2.441756,1.706644 -3.769348,3.129067 -1.280183,1.422406 -2.678936,3.034712 -4.196205,4.836443 l -1.279675,1.493531 c -0.163388,0.163387 -0.27469,0.344071 -0.344234,0.538719 -0.43017,0.483434 -0.883984,0.994822 -1.657694,1.879075 -0.9957005,1.090515 -2.0621478,2.204991 -3.2000758,3.342908 -1.1379417,1.137935 -2.252426,2.157203 -3.3429318,3.058065 -1.0431233,0.853451 -1.848853,1.280322 -2.41780384,1.280322 -0.42672319,0 -0.75905534,-0.166158 -0.99612819,-0.498056 -0.23707286,-0.379312 -0.3554156,-0.82913 -0.3554156,-1.350673 0,-0.663798 0.1183561,-1.493955 0.3554156,-2.489658 0.28449548,-1.043096 0.64039198,-2.109534 1.06711508,-3.20005 C 1.1484943,53.74413 1.7644802,52.676845 2.3808537,51.586322 2.9972405,50.495805 3.5431078,49.476538 4.0172535,48.528254 4.5388219,47.532566 4.965692,46.65523 5.2975833,45.896615 5.6768971,45.090569 5.9376012,44.49818 6.0798556,44.118867 c 0.047289,-0.09482 0.094578,-0.19002 0.1420006,-0.284846 0.047423,-0.142239 0.070934,-0.284174 0.070934,-0.426412 0,-0.237081 -0.1187568,-0.450401 -0.3558564,-0.640061 C 5.747283,42.577889 5.5581804,42.435309 5.3685168,42.340483 5.2262757,42.245651 4.7758279,42.103939 4.0171868,41.914286 3.3059949,41.677213 2.3812544,41.558219 1.2433261,41.558219 Z m -0.071067,2.77386 c 0.2370862,0 0.4739987,0.02355 0.7110582,0.071 0.2844821,0 0.5451995,0.02355 0.7822723,0.071 -0.5689775,0.99569 -1.3037204,2.323695 -2.20458922,3.983182 -0.90086885,1.659481 -1.70745358,3.389924 -2.41867218,5.191651 v -0.071 c -0.4741457,0.806031 -1.0901184,1.73075 -1.8487462,2.773852 -0.7111919,0.99569 -1.5169351,1.943981 -2.4178039,2.844851 -0.8534597,0.900863 -1.7545957,1.659203 -2.7028737,2.275581 -0.9482915,0.568971 -1.8965837,0.853477 -2.8448747,0.853477 -0.758627,0 -1.327872,-0.284506 -1.707173,-0.853477 -0.379314,-0.616378 -0.568416,-1.327548 -0.568416,-2.133585 0,-1.564661 0.426015,-3.224134 1.279461,-4.978441 0.900882,-1.754307 2.062735,-3.36661 3.4851595,-4.836446 1.4224239,-1.517241 3.0347384,-2.749843 4.8364628,-3.69812 1.849147,-0.995696 3.72217886,-1.493531 5.6187351,-1.493531 z" />
      <path
         id="path995"
         style="fill:#ffffff;fill-opacity:1;fill-rule:evenodd;stroke:none;stroke-width:2.92275;stroke-linecap:square;stroke-miterlimit:4;stroke-dasharray:none"
         inkscape:transform-center-x="-0.5200095"
         inkscape:transform-center-y="-0.65032186"
         d="m -39.709209,6.2977184 c -1.937153,0 -3.874553,0.1656853 -5.811705,0.4977685 -1.937168,0.2767393 -3.76393,0.7474979 -5.479713,1.4116814 -2.656664,1.051595 -4.870622,2.5454997 -6.641745,4.4826717 -1.715767,1.937165 -2.573455,4.096062 -2.573455,6.476015 0,0.885557 0.166183,1.688207 0.498268,2.407723 0.332085,0.664168 0.913233,0.996041 1.743429,0.996041 0.442785,0 0.829963,-0.137911 1.162047,-0.41464 0.387427,-0.332086 0.581398,-0.747549 0.581398,-1.245678 0,-0.221389 -0.0828,-0.44314 -0.248876,-0.66453 -0.166043,-0.276737 -0.33249,-0.469693 -0.498533,-0.580395 v -1.079921 c 0.05536,-0.276739 0.138161,-0.581072 0.248892,-0.913161 0.442769,-1.494383 1.272935,-2.739272 2.490591,-3.735525 1.21764,-1.051601 2.546369,-1.88202 3.985393,-2.490849 1.605083,-0.664168 3.375787,-1.134691 5.312938,-1.411431 1.99251,-0.332089 3.791751,-0.4985212 5.396832,-0.4985212 0.606771,0 1.202608,0.021831 1.788887,0.06278 l -1.415697,1.5405192 -0.311158,0.338291 0.0016,9.73e-4 c -0.768695,0.85665 -1.537265,1.867188 -2.306007,3.038596 -1.106939,1.771125 -2.186386,3.792124 -3.237984,6.061373 -1.051597,2.213906 -2.074984,4.593297 -3.07124,7.139297 -0.996254,2.545986 -1.96533,5.092061 -2.906227,7.638054 l -0.580649,1.660324 c -1.328339,3.4869 -2.656804,6.86316 -3.985145,10.128663 -0.89031,2.283842 -1.794639,4.263254 -2.712098,5.951628 l 3.063193,1.054055 c 1.060657,-1.991747 2.105799,-4.242867 3.135783,-6.756043 1.439039,-3.431559 2.877877,-7.084628 4.3169,-10.958947 0.885572,-2.435299 1.798571,-4.870763 2.739483,-7.306055 0.996256,-2.435293 1.96533,-4.704568 2.906226,-6.807781 0.996256,-2.158556 1.964332,-4.068174 2.905229,-5.728609 0.971602,-1.619319 1.94367,-2.893949 2.915272,-3.828949 l 0.479696,-0.431464 c 1.139077,-0.509768 2.638778,-0.801398 3.982118,-0.801401 0.838383,8e-6 1.765106,0.154269 2.637515,0.413634 1.220166,0.631512 2.337179,1.391993 3.351508,2.280641 0.01247,0.03725 0.02339,0.07449 0.03166,0.11201 0.0031,-0.01123 0.02058,-0.02754 0.04475,-0.04596 0.114458,0.101531 0.227716,0.204575 0.339539,0.309408 1.771124,1.605075 3.154914,3.62507 4.151168,6.06037 1.051613,2.379945 1.577465,5.119742 1.577465,8.219217 0,2.213906 -0.276555,4.483182 -0.83004,6.807781 -0.553485,2.269251 -1.356127,4.483213 -2.407755,6.641772 -0.996238,2.158566 -2.242133,4.206091 -3.736501,6.143246 -1.494381,1.881823 -3.210024,3.542415 -5.147192,4.981456 -1.93715,1.439042 -4.068258,2.57355 -6.392853,3.403768 -2.324579,0.83021 -4.814592,1.244928 -7.471272,1.244928 -1.992495,0 -3.874584,-0.193224 -5.645694,-0.580645 -1.771123,-0.38745 -3.431471,-0.857976 -4.981196,-1.411444 l -3.155117,-0.996296 -0.497503,-0.249633 c -1.162297,-0.442783 -2.241744,-0.802176 -3.238005,-1.078918 -0.996255,-0.276733 -1.93781,-0.414635 -2.823359,-0.414635 -1.273,0 -2.379984,0.442241 -3.320892,1.327796 -0.996262,0.83022 -1.493806,1.909664 -1.493806,3.238012 0,1.38367 0.497544,2.518196 1.493806,3.403761 0.940908,0.940904 2.214322,1.41168 3.819406,1.41168 0.830218,0 1.909657,-0.276799 3.238007,-0.830275 0.797823,-0.332438 1.595257,-0.827997 2.393143,-1.479994 l -2.890148,-1.789409 c -0.187271,0.123377 -0.37941,0.244879 -0.582158,0.363157 -0.66417,0.387419 -1.383976,0.581396 -2.158844,0.581396 -0.442776,0 -0.91355,-0.137911 -1.411682,-0.414643 -0.498124,-0.276735 -0.74715,-0.664665 -0.74715,-1.162794 0,-0.387436 0.166184,-0.719306 0.498264,-0.996041 0.332088,-0.276742 0.719266,-0.414893 1.162054,-0.414893 0.498125,0 1.107551,0.110373 1.827077,0.331765 0.77487,0.221393 1.632826,0.498201 2.573722,0.830282 l 3.320864,1.16204 c 1.715766,0.608831 3.624631,1.162194 5.727841,1.660324 2.103193,0.498129 4.428271,0.747405 6.974251,0.747405 4.317105,0 8.246688,-0.968331 11.788923,-2.905494 3.597576,-1.937178 6.669486,-4.455471 9.215466,-7.554934 2.601335,-3.099463 4.593813,-6.586838 5.977494,-10.461181 1.43907,-3.874326 2.158114,-7.748635 2.158114,-11.622977 0,-3.37622 -0.581164,-6.448121 -1.74346,-9.215507 -1.162297,-2.767378 -2.795135,-5.119244 -4.89836,-7.056408 -2.047835,-1.992512 -4.482537,-3.5141961 -7.305259,-4.565802 -2.822706,-1.1069434 -5.92214,-1.6605657 -9.298333,-1.6605657 z M 3.0389466,33.694321 c -2.54600913,0 -5.0920806,0.637215 -7.6381053,1.910207 -2.4906513,1.272993 -4.732161,2.905072 -6.7246693,4.897583 -1.992556,1.992517 -3.597824,4.23401 -4.815494,6.72465 -1.272997,2.4353 -1.909207,4.8157 -1.909207,7.1403 0,1.937163 0.498299,3.569987 1.494569,4.898318 0.996254,1.273001 2.490433,1.909202 4.482957,1.909202 1.826466,0 3.5143658,-0.525839 5.064105,-1.577445 1.6050816,-1.106945 3.0441987,-2.379363 4.3171954,-3.818395 0,1.383686 0.3869436,2.628563 1.1618133,3.735524 0.77486959,1.106945 1.99322581,1.660316 3.6536652,1.660316 1.6604238,0 3.7079627,-1.134509 6.1432717,-3.403769 2.4353094,-2.269252 5.4794604,-5.396221 9.1324554,-9.381249 0.177364,-0.177385 0.30386,-0.371694 0.386507,-0.580651 0.09652,-0.109063 0.192817,-0.216717 0.289311,-0.332518 l 0.830025,-0.996788 c 1.660455,-1.937178 3.18317,-3.680606 4.566851,-5.230342 1.383713,-1.605083 2.628594,-2.712077 3.735548,-3.320891 0.498128,-0.276741 1.02398,-0.414634 1.577465,-0.414634 0.608812,0 0.99599,0.33187 1.162032,0.996031 0.332069,0.94092 0.52604,2.103212 0.581413,3.486898 0.110716,1.383695 0.193503,2.712181 0.248877,3.985167 v 0.830283 c -1.549739,1.273 -3.043902,2.517871 -4.482957,3.735525 -1.439055,1.217655 -2.739996,2.379945 -3.902308,3.48689 -1.162297,1.051614 -2.158177,1.9929 -2.988389,2.823126 -0.830227,0.774863 -1.411344,1.356008 -1.743444,1.743444 -0.166043,0.276743 -0.248643,0.498243 -0.248643,0.664276 0,0.387444 0.137849,0.747081 0.414654,1.079169 0.332069,0.387429 0.719262,0.581398 1.162031,0.581398 0.332116,0 0.581133,-0.0836 0.747175,-0.24964 0.221385,-0.110701 0.415356,-0.248846 0.581398,-0.414887 0.2214,-0.276742 0.664638,-0.719736 1.328807,-1.328558 0.66417,-0.608807 1.465829,-1.32787 2.406741,-2.158089 0.940928,-0.885556 1.992836,-1.827109 3.155148,-2.823368 1.162313,-0.996251 2.380419,-2.019645 3.653432,-3.07125 0.0552,1.106952 0.11056,2.241712 0.165995,3.40402 0.110716,1.162299 0.303923,2.130379 0.58065,2.90524 0.332084,1.051615 0.913747,1.99316 1.743959,2.823378 0.88557,0.774864 1.964268,1.161789 3.237281,1.161789 1.051612,0 2.131059,-0.359402 3.238029,-1.078919 1.383697,-0.940912 2.933685,-2.297165 4.649467,-4.068295 1.715797,-1.826469 3.763586,-4.040423 6.143552,-6.641765 l 0.913155,-1.078917 c 0.221379,-0.332089 0.332516,-0.664957 0.332516,-0.997054 0,-1.106945 -0.525831,-1.660316 -1.577444,-1.660316 -0.442784,0 -0.830726,0.166438 -1.162811,0.498526 -2.490651,2.656689 -4.648812,4.953247 -6.475294,6.8904 -1.771155,1.881826 -3.321128,3.320924 -4.649483,4.317183 -0.2214,0.110684 -0.470666,0.221824 -0.747393,0.332518 -0.221416,0.1107 -0.442894,0.165757 -0.664294,0.165757 -0.885555,0 -1.494257,-0.525833 -1.826342,-1.577444 -0.332053,-0.940906 -0.525275,-2.130736 -0.580633,-3.569769 -0.05536,-1.43905 -0.08358,-2.905429 -0.08358,-4.399801 L 48.214418,37.264097 c 0.553469,-0.44279 0.830025,-0.885021 0.830025,-1.327796 0,-0.387435 -0.137849,-0.747088 -0.414623,-1.079178 -0.221385,-0.387434 -0.609342,-0.581396 -1.162827,-0.581396 -0.110715,0 -0.276119,0.02749 -0.497519,0.08288 -0.221384,0.05539 -0.41534,0.138176 -0.581382,0.248878 l -12.370469,9.548028 c -0.05536,-1.1623 -0.16573,-2.3804 -0.331757,-3.6534 -0.166042,-1.272994 -0.387817,-2.296388 -0.664544,-3.07126 -0.276742,-0.774862 -0.775056,-1.494915 -1.494584,-2.159085 -0.664169,-0.664179 -1.549661,-0.99604 -2.656616,-0.99604 -1.051612,0 -2.103271,0.276806 -3.154898,0.830283 -1.383697,0.774871 -2.850337,1.992219 -4.400076,3.652657 -1.494397,1.660419 -3.127205,3.542513 -4.89836,5.64573 l -1.493804,1.743445 c -0.190728,0.190726 -0.320655,0.401644 -0.401836,0.628863 -0.50215,0.564327 -1.031901,1.161286 -1.935077,2.193502 -1.162312,1.272992 -2.407209,2.573955 -3.7355476,3.90228 -1.3283546,1.328347 -2.6293266,2.51817 -3.9023078,3.569775 -1.2176701,0.996259 -2.1582234,1.494559 -2.8223773,1.494559 -0.4981272,0 -0.8860688,-0.193961 -1.16281128,-0.581396 -0.2767425,-0.442783 -0.41488764,-0.967869 -0.41488764,-1.576683 0,-0.774872 0.13816074,-1.74394 0.41488764,-2.906255 C 1.2951274,51.65485 1.7105764,50.409964 2.2087035,49.136971 2.9282309,47.919316 3.6472904,46.673442 4.3668022,45.40044 5.0863296,44.127446 5.7235375,42.937624 6.2770224,41.830663 6.8858653,40.668365 7.384164,39.644224 7.771591,38.758669 c 0.4427848,-0.940922 0.7471127,-1.632436 0.9131707,-2.07522 0.055202,-0.110684 0.1104038,-0.221816 0.1657617,-0.33251 0.055358,-0.16604 0.082803,-0.331725 0.082803,-0.497764 0,-0.276752 -0.1386285,-0.525767 -0.4154022,-0.747163 C 8.2965394,34.884617 8.0757941,34.71818 7.8543939,34.607486 7.6883515,34.496786 7.1625298,34.331361 6.2769445,34.109973 5.4467482,33.833231 4.36727,33.694325 3.038931,33.694325 Z m -0.082959,3.238012 c 0.2767581,0 0.5533134,0.02749 0.8300403,0.08288 0.3320848,0 0.6364282,0.02749 0.9131707,0.08288 -0.6641851,1.1623 -1.5218732,2.712521 -2.5734853,4.649692 -1.0516121,1.937163 -1.99316347,3.957163 -2.82339095,6.060375 v -0.08288 c -0.55348495,0.940905 -1.27252895,2.020358 -2.15809865,3.238004 -0.8301963,1.1623 -1.7707653,2.269269 -2.8223774,3.320882 -0.9962699,1.051606 -2.0481939,1.936839 -3.1551482,2.656357 -1.10697,0.664177 -2.2139401,0.99629 -3.3209101,0.99629 -0.885569,0 -1.550066,-0.332113 -1.992836,-0.99629 -0.442785,-0.719518 -0.66353,-1.549688 -0.66353,-2.4906 0,-1.826477 0.497301,-3.763632 1.493555,-5.811489 1.051628,-2.047856 2.407895,-3.929948 4.0683344,-5.645733 1.6604394,-1.771122 3.5425441,-3.209977 5.6457527,-4.31693 2.1585666,-1.162307 4.3450147,-1.743445 6.5589235,-1.743445 z" />
    </g>
  </g>
</svg>
