<?xml version="1.0" encoding="UTF-8" standalone="no"?>
<svg
   xmlns:dc="http://purl.org/dc/elements/1.1/"
   xmlns:cc="http://creativecommons.org/ns#"
   xmlns:rdf="http://www.w3.org/1999/02/22-rdf-syntax-ns#"
   xmlns:svg="http://www.w3.org/2000/svg"
   xmlns="http://www.w3.org/2000/svg"
   xmlns:xlink="http://www.w3.org/1999/xlink"
   xmlns:sodipodi="http://sodipodi.sourceforge.net/DTD/sodipodi-0.dtd"
   xmlns:inkscape="http://www.inkscape.org/namespaces/inkscape"
   width="793.70081"
   height="1122.5197"
   viewBox="0 0 210 297"
   version="1.1"
   id="svg8"
   inkscape:version="1.0 (b51213c273, 2020-08-10)"
   sodipodi:docname="Page-Curl.svg">
  <defs
     id="defs2">
    <linearGradient
       inkscape:collect="always"
       id="linearGradient999">
      <stop
         style="stop-color:#ffffff;stop-opacity:1;"
         offset="0"
         id="stop995" />
      <stop
         style="stop-color:#ffcc00;stop-opacity:1"
         offset="1"
         id="stop997" />
    </linearGradient>
    <linearGradient
       inkscape:collect="always"
       id="linearGradient960">
      <stop
         style="stop-color:#1eb3ff;stop-opacity:1;"
         offset="0"
         id="stop956" />
      <stop
         style="stop-color:#0090db;stop-opacity:1"
         offset="0.70561326"
         id="stop964" />
      <stop
         style="stop-color:#53c5ff;stop-opacity:1"
         offset="1"
         id="stop958" />
    </linearGradient>
    <linearGradient
       inkscape:collect="always"
       id="linearGradient868">
      <stop
         style="stop-color:#000000;stop-opacity:1;"
         offset="0"
         id="stop864" />
      <stop
         style="stop-color:#1a1a1a;stop-opacity:1"
         offset="1"
         id="stop866" />
    </linearGradient>
    <linearGradient
       inkscape:collect="always"
       xlink:href="#linearGradient868"
       id="linearGradient870"
       x1="512.18872"
       y1="619.62842"
       x2="519.94629"
       y2="634.26398"
       gradientUnits="userSpaceOnUse" />
    <filter
       inkscape:collect="always"
       style="color-interpolation-filters:sRGB"
       id="filter944"
       x="-0.011086303"
       width="1.0221726"
       y="-0.014427356"
       height="1.0288547">
      <feGaussianBlur
         inkscape:collect="always"
         stdDeviation="0.24917355"
         id="feGaussianBlur946" />
    </filter>
    <linearGradient
       inkscape:collect="always"
       xlink:href="#linearGradient960"
       id="linearGradient962"
       x1="511.72079"
       y1="554.16656"
       x2="539.8501"
       y2="612.35864"
       gradientUnits="userSpaceOnUse" />
    <filter
       inkscape:collect="always"
       style="color-interpolation-filters:sRGB"
       id="filter982"
       x="-0.0009680566"
       width="1.0019361"
       y="-0.0019076013"
       height="1.0038152">
      <feGaussianBlur
         inkscape:collect="always"
         stdDeviation="0.1190155"
         id="feGaussianBlur984" />
    </filter>
    <linearGradient
       inkscape:collect="always"
       xlink:href="#linearGradient999"
       id="linearGradient1001"
       x1="176.66406"
       y1="439.47754"
       x2="272.9043"
       y2="439.47754"
       gradientUnits="userSpaceOnUse"
       gradientTransform="matrix(0.30275393,0,0,0.30275393,-8.5808355,-16.774693)" />
    <linearGradient
       inkscape:collect="always"
       xlink:href="#linearGradient999"
       id="linearGradient1005"
       gradientUnits="userSpaceOnUse"
       gradientTransform="matrix(0.15137697,-0.26219259,0.26219259,0.15137697,-103.51449,110.13546)"
       x1="176.66406"
       y1="439.47754"
       x2="272.9043"
       y2="439.47754" />
    <linearGradient
       inkscape:collect="always"
       xlink:href="#linearGradient999"
       id="linearGradient1009"
       gradientUnits="userSpaceOnUse"
       gradientTransform="matrix(-0.15137696,-0.2621926,0.2621926,-0.15137696,-41.073875,255.80631)"
       x1="176.66406"
       y1="439.47754"
       x2="272.9043"
       y2="439.47754" />
    <linearGradient
       inkscape:collect="always"
       xlink:href="#linearGradient999"
       id="linearGradient1017"
       gradientUnits="userSpaceOnUse"
       gradientTransform="matrix(-0.30275393,0,0,-0.30275393,116.30108,274.56658)"
       x1="176.66406"
       y1="439.47754"
       x2="272.9043"
       y2="439.47754" />
    <linearGradient
       inkscape:collect="always"
       xlink:href="#linearGradient999"
       id="linearGradient1021"
       gradientUnits="userSpaceOnUse"
       gradientTransform="matrix(-0.15137697,0.26219259,-0.26219259,-0.15137697,211.23543,147.65601)"
       x1="176.66406"
       y1="439.47754"
       x2="272.9043"
       y2="439.47754" />
    <linearGradient
       inkscape:collect="always"
       xlink:href="#linearGradient999"
       id="linearGradient1025"
       gradientUnits="userSpaceOnUse"
       gradientTransform="matrix(0.15137696,0.2621926,-0.2621926,0.15137696,148.79483,1.985169)"
       x1="176.66406"
       y1="439.47754"
       x2="272.9043"
       y2="439.47754" />
  </defs>
  <sodipodi:namedview
     id="base"
     pagecolor="#ffffff"
     bordercolor="#666666"
     borderopacity="1.0"
     inkscape:pageopacity="0.0"
     inkscape:pageshadow="2"
     inkscape:zoom="1"
     inkscape:cx="307.43063"
     inkscape:cy="527.98906"
     inkscape:document-units="px"
     inkscape:current-layer="layer1"
     inkscape:document-rotation="0"
     showgrid="false"
     showborder="true"
     units="px"
     inkscape:object-paths="false"
     inkscape:object-nodes="true"
     inkscape:window-width="1846"
     inkscape:window-height="1016"
     inkscape:window-x="74"
     inkscape:window-y="27"
     inkscape:window-maximized="1" />
  <metadata
     id="metadata5">
    <rdf:RDF>
      <cc:Work
         rdf:about="">
        <dc:format>image/svg+xml</dc:format>
        <dc:type
           rdf:resource="http://purl.org/dc/dcmitype/StillImage" />
        <dc:title></dc:title>
      </cc:Work>
    </rdf:RDF>
  </metadata>
  <g
     inkscape:label="Layer 1"
     inkscape:groupmode="layer"
     id="layer1">
    <g
       id="g1049"
       transform="translate(17.558424,0.26458333)"
       inkscape:export-xdpi="96"
       inkscape:export-ydpi="96">
      <rect
         style="fill:#1a1a1a;fill-rule:evenodd;stroke:none;stroke-width:14.3549;stroke-linecap:square"
         id="rect833"
         width="160.60208"
         height="92.868752"
         x="2.1398418"
         y="93.335983" />
      <path
         id="path872"
         style="opacity:0.484887;fill:#000000;fill-opacity:1;stroke:none;stroke-width:0.264583px;stroke-linecap:butt;stroke-linejoin:miter;stroke-opacity:1;filter:url(#filter944)"
         d="m 131.76047,141.57853 a 26.047551,43.136954 45 0 1 -16.81138,30.09997 26.047551,43.136954 45 0 1 -14.949476,11.35021 l 53.941926,-27.66859 v -5.2e-4 a 17.952227,9.6416991 45 0 1 -17.15244,-7.25951 17.952227,9.6416991 45 0 1 -5.02863,-6.52156 z" />
      <path
         id="path848"
         style="fill:#1eb3ff;fill-opacity:1;fill-rule:evenodd;stroke:none;stroke-width:54.2547;stroke-linecap:square"
         d="m 615.08789,554.0293 a 67.850936,36.441068 45 0 1 -6.48242,17.77148 67.850936,36.441068 45 0 1 -8.91602,5.22852 v 0.002 l -203.875,104.57422 a 98.447439,163.03731 45 0 1 -75.78906,22.16015 h 295.0625 z m -67.60937,6.58984 a 67.850935,36.441067 45 0 0 0.60351,0.45508 67.850936,36.441068 45 0 1 -0.60351,-0.45508 z m 2.02343,1.50391 a 67.850935,36.441067 45 0 0 0.39844,0.28711 67.850936,36.441068 45 0 1 -0.39844,-0.28711 z m 15.39258,9.3164 a 67.850935,36.441067 45 0 0 0.43359,0.21094 67.850936,36.441068 45 0 1 -0.43359,-0.21094 z m 5.49414,2.43946 a 67.850935,36.441067 45 0 0 0.47852,0.18945 67.850936,36.441068 45 0 1 -0.47852,-0.18945 z"
         transform="scale(0.26458333)" />
      <path
         id="path850"
         style="fill:url(#linearGradient962);fill-opacity:1;stroke:none;stroke-width:0.999999px;stroke-linecap:butt;stroke-linejoin:miter;stroke-opacity:1"
         d="m 515.85547,524.94336 a 98.447439,163.03731 45 0 1 -63.53906,113.76367 98.447439,163.03731 45 0 1 -56.50196,42.89844 l 203.875,-104.57422 v -0.002 a 67.850936,36.441068 45 0 1 -64.82812,-27.4375 67.850936,36.441068 45 0 1 -19.00586,-24.64844 z"
         transform="scale(0.26458333)" />
      <path
         id="path862"
         style="fill:url(#linearGradient870);fill-opacity:1;fill-rule:evenodd;stroke:none;stroke-width:54.2547;stroke-linecap:square;filter:url(#filter982)"
         d="m 615.08789,554.0293 a 67.850936,36.441068 45 0 1 -6.48242,17.77148 67.850936,36.441068 45 0 1 -8.91602,5.22852 v 0.002 l -203.875,104.57422 a 98.447439,163.03731 45 0 1 -75.78906,22.16015 h 295.0625 z m -67.60937,6.58984 a 67.850935,36.441067 45 0 0 0.60351,0.45508 67.850936,36.441068 45 0 1 -0.60351,-0.45508 z m 2.02343,1.50391 a 67.850935,36.441067 45 0 0 0.39844,0.28711 67.850936,36.441068 45 0 1 -0.39844,-0.28711 z m 15.39258,9.3164 a 67.850935,36.441067 45 0 0 0.43359,0.21094 67.850936,36.441068 45 0 1 -0.43359,-0.21094 z m 5.49414,2.43946 a 67.850935,36.441067 45 0 0 0.47852,0.18945 67.850936,36.441068 45 0 1 -0.47852,-0.18945 z"
         transform="scale(0.26458333)" />
      <text
         xml:space="preserve"
         style="font-style:italic;font-size:12.794px;line-height:1.25;font-family:Milkshake;-inkscape-font-specification:'Milkshake Italic';fill:#ffffff;stroke-width:0.319851"
         x="131.53963"
         y="179.29845"
         id="text954"><tspan
           sodipodi:role="line"
           id="tspan952"
           x="131.53963"
           y="179.29845"
           style="fill:#ffffff;stroke-width:0.319851">Dax</tspan></text>
      <g
         id="g1033">
        <path
           id="path986"
           style="opacity:1;fill:url(#linearGradient1001);fill-opacity:1;fill-rule:evenodd;stroke:none;stroke-width:6.88163;stroke-linecap:square"
           inkscape:transform-center-y="-2.7392245e-06"
           d="m 59.473756,108.83212 -14.568853,8.41147 v 6.48201 l 14.568853,-8.41088 14.568258,8.41088 v -6.48201 z" />
        <path
           id="path1003"
           style="opacity:1;fill:url(#linearGradient1005);fill-opacity:1;fill-rule:evenodd;stroke:none;stroke-width:6.88163;stroke-linecap:square"
           inkscape:transform-center-y="2.1028673"
           d="m 39.291495,114.00186 1.2e-4,16.82274 5.613585,3.241 3.91e-4,-16.82244 14.568165,-8.41104 -5.613585,-3.241 z"
           inkscape:transform-center-x="-3.6422111" />
        <path
           id="path1007"
           style="opacity:1;fill:url(#linearGradient1009);fill-opacity:1;fill-rule:evenodd;stroke:none;stroke-width:6.88163;stroke-linecap:square"
           inkscape:transform-center-y="-2.1028678"
           d="m 33.677518,134.0659 14.56898,8.41127 5.61358,-3.24101 -14.568463,-8.41156 -9.4e-5,-16.82192 -5.61358,3.24101 z"
           inkscape:transform-center-x="-3.6420606" />
        <path
           id="path1015"
           style="opacity:1;fill:url(#linearGradient1017);fill-opacity:1;fill-rule:evenodd;stroke:none;stroke-width:6.88163;stroke-linecap:square"
           inkscape:transform-center-y="-2.7460969e-06"
           d="m 48.246497,148.95977 14.568864,-8.41147 -7e-6,-6.48201 -14.568856,8.41088 -14.568257,-8.41087 7e-6,6.482 z" />
        <path
           id="path1019"
           style="opacity:1;fill:url(#linearGradient1021);fill-opacity:1;fill-rule:evenodd;stroke:none;stroke-width:6.88163;stroke-linecap:square"
           inkscape:transform-center-y="-2.1028728"
           d="m 68.429457,143.7896 -1.15e-4,-16.82274 -5.613589,-3.241 -3.92e-4,16.82244 -14.568156,8.41105 5.61358,3.24099 z"
           inkscape:transform-center-x="3.6422141" />
        <path
           id="path1023"
           style="opacity:1;fill:url(#linearGradient1025);fill-opacity:1;fill-rule:evenodd;stroke:none;stroke-width:6.88163;stroke-linecap:square"
           inkscape:transform-center-y="2.1028623"
           d="m 74.043438,123.72556 -14.568978,-8.41127 -5.613583,3.24102 14.568465,8.41155 1.05e-4,16.82192 5.613569,-3.24101 z"
           inkscape:transform-center-x="3.6420686" />
      </g>
    </g>
  </g>
</svg>
