<?xml version="1.0" encoding="UTF-8" standalone="no"?>
<svg
   xmlns:dc="http://purl.org/dc/elements/1.1/"
   xmlns:cc="http://creativecommons.org/ns#"
   xmlns:rdf="http://www.w3.org/1999/02/22-rdf-syntax-ns#"
   xmlns:svg="http://www.w3.org/2000/svg"
   xmlns="http://www.w3.org/2000/svg"
   xmlns:xlink="http://www.w3.org/1999/xlink"
   xmlns:sodipodi="http://sodipodi.sourceforge.net/DTD/sodipodi-0.dtd"
   xmlns:inkscape="http://www.inkscape.org/namespaces/inkscape"
   width="793.70081"
   height="1122.5197"
   viewBox="0 0 210 297"
   version="1.1"
   id="svg8"
   inkscape:version="1.0 (9f2f71dc58, 2020-08-02)"
   sodipodi:docname="Spirals].svg">
  <defs
     id="defs2">
    <linearGradient
       inkscape:collect="always"
       id="linearGradient1726">
      <stop
         style="stop-color:#6600ff;stop-opacity:1"
         offset="0"
         id="stop1722" />
      <stop
         style="stop-color:#000000;stop-opacity:1"
         offset="1"
         id="stop1724" />
    </linearGradient>
    <inkscape:perspective
       sodipodi:type="inkscape:persp3d"
       inkscape:vp_x="4261.1725 : 176.53785 : 1"
       inkscape:vp_y="1459.6947 : 62.447798 : 0"
       inkscape:vp_z="4262.6554 : 149.05226 : 1"
       inkscape:persp3d-origin="4189.6591 : 159.70392 : 1"
       id="perspective841" />
    <linearGradient
       inkscape:collect="always"
       xlink:href="#linearGradient1726"
       id="linearGradient1728"
       x1="4203.1479"
       y1="95.871469"
       x2="4269.9014"
       y2="95.871469"
       gradientUnits="userSpaceOnUse" />
  </defs>
  <sodipodi:namedview
     id="base"
     pagecolor="#ffffff"
     bordercolor="#666666"
     borderopacity="1.0"
     inkscape:pageopacity="0.0"
     inkscape:pageshadow="2"
     inkscape:zoom="1"
     inkscape:cx="356.26698"
     inkscape:cy="284.16986"
     inkscape:document-units="px"
     inkscape:current-layer="layer1"
     inkscape:document-rotation="0"
     showgrid="false"
     showborder="true"
     units="px"
     showguides="true"
     inkscape:guide-bbox="true"
     inkscape:snap-center="false"
     inkscape:snap-nodes="true"
     inkscape:window-width="1846"
     inkscape:window-height="1016"
     inkscape:window-x="74"
     inkscape:window-y="27"
     inkscape:window-maximized="1" />
  <metadata
     id="metadata5">
    <rdf:RDF>
      <cc:Work
         rdf:about="">
        <dc:format>image/svg+xml</dc:format>
        <dc:type
           rdf:resource="http://purl.org/dc/dcmitype/StillImage" />
        <dc:title></dc:title>
      </cc:Work>
    </rdf:RDF>
  </metadata>
  <g
     inkscape:label="Layer 1"
     inkscape:groupmode="layer"
     id="layer1">
    <g
       id="g1784"
       transform="rotate(90,2195.6993,-2046.0319)">
      <g
         id="g1772"
         transform="translate(4.1464269)">
        <g
           id="g1706"
           transform="matrix(0.86325298,0,0,0.86325298,515.76537,62.599856)"
           style="stroke-width:1.15841">
          <path
             sodipodi:type="spiral"
             style="fill:none;fill-rule:evenodd;stroke:#ff0000;stroke-width:2.81976;stroke-miterlimit:4;stroke-dasharray:none"
             id="path1700"
             sodipodi:cx="4417.7378"
             sodipodi:cy="33.058891"
             sodipodi:expansion="1"
             sodipodi:revolution="4.62183"
             sodipodi:radius="33.798527"
             sodipodi:argument="-28.274334"
             sodipodi:t0="0"
             d="m 4417.7378,33.058891 c -1.1,0 -0.5427,-1.482719 0,-1.8282 1.4706,-0.936232 3.2055,0.411753 3.6564,1.8282 0.8065,2.533691 -1.2404,4.971915 -3.6564,5.484602 -3.5456,0.752388 -6.7698,-2.072796 -7.3128,-5.484601 -0.7238,-4.5474 2.9055,-8.579847 7.3128,-9.141003 5.5461,-0.706157 10.3959,3.738114 10.9692,9.141002 0.6943,6.543621 -4.5706,12.215481 -10.9692,12.797403 -7.5405,0.685776 -14.0372,-5.403086 -14.6256,-12.797402 -0.6794,-8.53703 6.2355,-15.860325 14.6256,-16.453805 9.5334,-0.674349 17.6845,7.067873 18.282,16.453803 0.6703,10.529595 -7.9002,19.509366 -18.282,20.110206 -11.5257,0.667047 -21.3348,-8.732578 -21.9384,-20.110203 -0.6643,-12.521816 9.5649,-23.1606677 21.9384,-23.7666076 13.5178,-0.6619806 24.9869,10.3972456 25.5948,23.7666036 0.66,14.513869 -11.2296,26.813329 -25.5948,27.423009 -15.5099,0.65826 -28.64,-12.061894 -29.2512,-27.423005 -0.6568,-16.505829 12.8942,-30.4668681 29.2512,-31.0794095 17.5018,-0.655412 32.2939,13.7265345 32.9076,31.0794055 0.3028,8.56115 -2.8226,17.046435 -8.5372,23.418441" />
          <path
             sodipodi:type="spiral"
             style="fill:none;fill-rule:evenodd;stroke:#ffcc00;stroke-width:3.05052;stroke-miterlimit:4;stroke-dasharray:none"
             id="path1702"
             sodipodi:cx="4324.9468"
             sodipodi:cy="33.058891"
             sodipodi:expansion="1"
             sodipodi:revolution="4.62183"
             sodipodi:radius="33.798527"
             sodipodi:argument="-28.274334"
             sodipodi:t0="0"
             d="m 4324.9468,33.058891 c -1.1,0 -0.5427,-1.482719 0,-1.8282 1.4706,-0.936232 3.2055,0.411753 3.6564,1.8282 0.8065,2.533691 -1.2404,4.971915 -3.6564,5.484602 -3.5456,0.752388 -6.7698,-2.072796 -7.3128,-5.484601 -0.7238,-4.5474 2.9055,-8.579847 7.3128,-9.141003 5.5461,-0.706157 10.3959,3.738114 10.9692,9.141002 0.6943,6.543621 -4.5707,12.215481 -10.9692,12.797403 -7.5405,0.685776 -14.0372,-5.403086 -14.6256,-12.797402 -0.6794,-8.53703 6.2355,-15.860325 14.6256,-16.453805 9.5333,-0.674349 17.6845,7.067873 18.282,16.453803 0.6703,10.529595 -7.9003,19.509366 -18.282,20.110206 -11.5258,0.667047 -21.3348,-8.732578 -21.9384,-20.110203 -0.6643,-12.521816 9.5649,-23.1606677 21.9384,-23.7666076 13.5178,-0.6619806 24.9868,10.3972456 25.5948,23.7666036 0.66,14.513869 -11.2296,26.813329 -25.5948,27.423009 -15.5099,0.65826 -28.64,-12.061894 -29.2512,-27.423005 -0.6568,-16.505829 12.8942,-30.4668681 29.2512,-31.0794095 17.5018,-0.655412 32.2939,13.7265345 32.9076,31.0794055 0.3028,8.56115 -2.8226,17.046435 -8.5372,23.418441"
             transform="matrix(0.92389414,0,0,0.92478014,422.08383,2.3492773)" />
        </g>
        <g
           id="g1756"
           transform="matrix(0.86325298,0,0,0.86325298,584.35562,26.707094)"
           style="stroke-width:1.15841">
          <path
             sodipodi:type="spiral"
             style="fill:none;fill-rule:evenodd;stroke:#ff00ff;stroke-width:2.81976;stroke-miterlimit:4;stroke-dasharray:none"
             id="path1750"
             sodipodi:cx="4338.2822"
             sodipodi:cy="13.269078"
             sodipodi:expansion="1"
             sodipodi:revolution="4.62183"
             sodipodi:radius="33.798527"
             sodipodi:argument="-28.274334"
             sodipodi:t0="0"
             d="m 4338.2822,13.269078 c -1.0999,0 -0.5427,-1.482719 0,-1.8282 1.4707,-0.936232 3.2056,0.411753 3.6564,1.8282 0.8065,2.533691 -1.2404,4.971915 -3.6564,5.484602 -3.5455,0.752388 -6.7698,-2.072796 -7.3128,-5.484601 -0.7237,-4.5474 2.9055,-8.5798473 7.3128,-9.141003 5.5462,-0.7061572 10.396,3.7381135 10.9692,9.141001 0.6943,6.543622 -4.5706,12.215482 -10.9692,12.797404 -7.5405,0.685776 -14.0372,-5.403086 -14.6256,-12.797402 -0.6793,-8.5370296 6.2355,-15.8603255 14.6256,-16.4538049 9.5334,-0.6743489 17.6845,7.0678732 18.282,16.4538029 0.6704,10.529595 -7.9002,19.509365 -18.282,20.110206 -11.5257,0.667047 -21.3348,-8.732578 -21.9384,-20.110203 -0.6643,-12.52181595 9.5649,-23.1606677 21.9384,-23.766608 13.5179,-0.66198 24.9869,10.3972456 25.5948,23.766604 0.66,14.513869 -11.2295,26.813329 -25.5948,27.423009 -15.5098,0.65826 -28.64,-12.061894 -29.2512,-27.423005 -0.6567,-16.5058292 12.8942,-30.466868 29.2512,-31.07941 17.5018,-0.655412 32.2939,13.7265346 32.9076,31.079406 0.3028,8.56115 -2.8226,17.046435 -8.5372,23.418441" />
          <path
             sodipodi:type="spiral"
             style="fill:none;fill-rule:evenodd;stroke:#00ffff;stroke-width:3.05052;stroke-miterlimit:4;stroke-dasharray:none"
             id="path1752"
             sodipodi:cx="4324.9468"
             sodipodi:cy="33.058891"
             sodipodi:expansion="1"
             sodipodi:revolution="4.62183"
             sodipodi:radius="33.798527"
             sodipodi:argument="-28.274334"
             sodipodi:t0="0"
             d="m 4324.9468,33.058891 c -1.1,0 -0.5427,-1.482719 0,-1.8282 1.4706,-0.936232 3.2055,0.411753 3.6564,1.8282 0.8065,2.533691 -1.2404,4.971915 -3.6564,5.484602 -3.5456,0.752388 -6.7698,-2.072796 -7.3128,-5.484601 -0.7238,-4.5474 2.9055,-8.579847 7.3128,-9.141003 5.5461,-0.706157 10.3959,3.738114 10.9692,9.141002 0.6943,6.543621 -4.5707,12.215481 -10.9692,12.797403 -7.5405,0.685776 -14.0372,-5.403086 -14.6256,-12.797402 -0.6794,-8.53703 6.2355,-15.860325 14.6256,-16.453805 9.5333,-0.674349 17.6845,7.067873 18.282,16.453803 0.6703,10.529595 -7.9003,19.509366 -18.282,20.110206 -11.5258,0.667047 -21.3348,-8.732578 -21.9384,-20.110203 -0.6643,-12.521816 9.5649,-23.1606677 21.9384,-23.7666076 13.5178,-0.6619806 24.9868,10.3972456 25.5948,23.7666036 0.66,14.513869 -11.2296,26.813329 -25.5948,27.423009 -15.5099,0.65826 -28.64,-12.061894 -29.2512,-27.423005 -0.6568,-16.505829 12.8942,-30.4668681 29.2512,-31.0794095 17.5018,-0.655412 32.2939,13.7265345 32.9076,31.0794055 0.3028,8.56115 -2.8226,17.046435 -8.5372,23.418441"
             transform="matrix(0.92389414,0,0,0.92478014,342.62825,-17.440535)" />
        </g>
      </g>
      <g
         id="g1764"
         transform="translate(0,-46.61596)">
        <path
           sodipodi:type="spiral"
           style="fill:none;fill-rule:evenodd;stroke:#0000ff;stroke-width:2.43417;stroke-miterlimit:4;stroke-dasharray:none"
           id="path1758"
           sodipodi:cx="4333.5371"
           sodipodi:cy="31.801247"
           sodipodi:expansion="1"
           sodipodi:revolution="4.62183"
           sodipodi:radius="29.176678"
           sodipodi:argument="-28.274334"
           sodipodi:t0="0"
           d="m 4333.5371,31.801247 c -0.9495,0 -0.4685,-1.279962 0,-1.5782 1.2695,-0.808204 2.7672,0.355447 3.1564,1.578199 0.6962,2.187217 -1.0708,4.292021 -3.1564,4.734599 -3.0607,0.649502 -5.844,-1.789347 -6.3128,-4.734598 -0.6248,-3.925556 2.5082,-7.406578 6.3128,-7.890997 4.7877,-0.609593 8.9743,3.226937 9.4692,7.890996 0.5994,5.6488 -3.9456,10.54505 -9.4692,11.047397 -6.5093,0.591997 -12.1176,-4.664231 -12.6256,-11.047395 -0.5864,-7.369617 5.3828,-13.691473 12.6256,-14.203796 8.2297,-0.582134 15.2662,6.101362 15.782,14.203794 0.5787,9.089703 -6.8199,16.841517 -15.782,17.360194 -9.9496,0.575831 -18.4173,-7.538423 -18.9384,-17.360192 -0.5734,-10.809494 8.257,-19.993514 18.9384,-20.516594 11.6693,-0.571457 21.57,8.975453 22.0948,20.516591 0.5697,12.52914 -9.694,23.146685 -22.0948,23.672993 -13.3889,0.568245 -24.7236,-10.412466 -25.2512,-23.67299 -0.5669,-14.248705 11.131,-26.3006134 25.2512,-26.8293916 15.1085,-0.5657864 27.8778,11.8494706 28.4076,26.8293886 0.2614,7.390438 -2.4366,14.715385 -7.3698,20.216037" />
        <path
           sodipodi:type="spiral"
           style="fill:none;fill-rule:evenodd;stroke:#00ffff;stroke-width:3.05052;stroke-miterlimit:4;stroke-dasharray:none"
           id="path1760"
           sodipodi:cx="4324.9468"
           sodipodi:cy="33.058891"
           sodipodi:expansion="1"
           sodipodi:revolution="4.62183"
           sodipodi:radius="33.798527"
           sodipodi:argument="-28.274334"
           sodipodi:t0="0"
           d="m 4324.9468,33.058891 c -1.1,0 -0.5427,-1.482719 0,-1.8282 1.4706,-0.936232 3.2055,0.411753 3.6564,1.8282 0.8065,2.533691 -1.2404,4.971915 -3.6564,5.484602 -3.5456,0.752388 -6.7698,-2.072796 -7.3128,-5.484601 -0.7238,-4.5474 2.9055,-8.579847 7.3128,-9.141003 5.5461,-0.706157 10.3959,3.738114 10.9692,9.141002 0.6943,6.543621 -4.5707,12.215481 -10.9692,12.797403 -7.5405,0.685776 -14.0372,-5.403086 -14.6256,-12.797402 -0.6794,-8.53703 6.2355,-15.860325 14.6256,-16.453805 9.5333,-0.674349 17.6845,7.067873 18.282,16.453803 0.6703,10.529595 -7.9003,19.509366 -18.282,20.110206 -11.5258,0.667047 -21.3348,-8.732578 -21.9384,-20.110203 -0.6643,-12.521816 9.5649,-23.1606677 21.9384,-23.7666076 13.5178,-0.6619806 24.9868,10.3972456 25.5948,23.7666036 0.66,14.513869 -11.2296,26.813329 -25.5948,27.423009 -15.5099,0.65826 -28.64,-12.061894 -29.2512,-27.423005 -0.6568,-16.505829 12.8942,-30.4668681 29.2512,-31.0794095 17.5018,-0.655412 32.2939,13.7265345 32.9076,31.0794055 0.3028,8.56115 -2.8226,17.046435 -8.5372,23.418441"
           transform="matrix(0.79755437,0,0,0.79831921,884.27657,5.2910816)" />
      </g>
    </g>
  </g>
</svg>
