<?xml version="1.0" encoding="UTF-8" standalone="no"?>
<svg
   xmlns:dc="http://purl.org/dc/elements/1.1/"
   xmlns:cc="http://creativecommons.org/ns#"
   xmlns:rdf="http://www.w3.org/1999/02/22-rdf-syntax-ns#"
   xmlns:svg="http://www.w3.org/2000/svg"
   xmlns="http://www.w3.org/2000/svg"
   xmlns:xlink="http://www.w3.org/1999/xlink"
   xmlns:sodipodi="http://sodipodi.sourceforge.net/DTD/sodipodi-0.dtd"
   xmlns:inkscape="http://www.inkscape.org/namespaces/inkscape"
   sodipodi:docname="Ultimate.svg"
   inkscape:version="1.0 (6e3e5246a0, 2020-05-07)"
   id="svg974"
   version="1.1"
   viewBox="0 0 210 297"
   height="297mm"
   width="210mm">
  <defs
     id="defs968">
    <linearGradient
       id="linearGradient1673"
       inkscape:collect="always">
      <stop
         id="stop1669"
         offset="0"
         style="stop-color:#6600ff;stop-opacity:1" />
      <stop
         id="stop1671"
         offset="1"
         style="stop-color:#00ff00;stop-opacity:1" />
    </linearGradient>
    <linearGradient
       id="linearGradient1654"
       inkscape:collect="always">
      <stop
         id="stop1650"
         offset="0"
         style="stop-color:#0000ff;stop-opacity:1;" />
      <stop
         id="stop1652"
         offset="1"
         style="stop-color:#00ffff;stop-opacity:1" />
    </linearGradient>
    <linearGradient
       id="linearGradient1624"
       inkscape:collect="always">
      <stop
         id="stop1620"
         offset="0"
         style="stop-color:#ff0000;stop-opacity:1;" />
      <stop
         id="stop1622"
         offset="1"
         style="stop-color:#ffcc00;stop-opacity:1" />
    </linearGradient>
    <linearGradient
       gradientTransform="translate(1.132925,-49.259622)"
       gradientUnits="userSpaceOnUse"
       y2="144.73901"
       x2="154.7034"
       y1="144.9897"
       x1="47.579007"
       id="linearGradient1626"
       xlink:href="#linearGradient1624"
       inkscape:collect="always" />
    <linearGradient
       y2="144.73901"
       x2="154.7034"
       y1="144.9897"
       x1="47.579007"
       gradientTransform="rotate(-60,47.765172,155.79688)"
       gradientUnits="userSpaceOnUse"
       id="linearGradient1630"
       xlink:href="#linearGradient1624"
       inkscape:collect="always" />
    <linearGradient
       y2="144.73901"
       x2="154.7034"
       y1="144.9897"
       x1="47.579007"
       gradientTransform="rotate(-120,76.205231,156.45097)"
       gradientUnits="userSpaceOnUse"
       id="linearGradient1634"
       xlink:href="#linearGradient1624"
       inkscape:collect="always" />
    <linearGradient
       y2="144.73901"
       x2="154.7034"
       y1="144.9897"
       x1="47.579007"
       gradientTransform="rotate(180,90.425262,156.77801)"
       gradientUnits="userSpaceOnUse"
       id="linearGradient1638"
       xlink:href="#linearGradient1624"
       inkscape:collect="always" />
    <linearGradient
       y2="144.73901"
       x2="154.7034"
       y1="144.9897"
       x1="47.579007"
       gradientTransform="rotate(120,104.64529,157.10506)"
       gradientUnits="userSpaceOnUse"
       id="linearGradient1642"
       xlink:href="#linearGradient1624"
       inkscape:collect="always" />
    <linearGradient
       y2="144.73901"
       x2="154.7034"
       y1="144.9897"
       x1="47.579007"
       gradientTransform="rotate(60,133.08536,157.75914)"
       gradientUnits="userSpaceOnUse"
       id="linearGradient1646"
       xlink:href="#linearGradient1624"
       inkscape:collect="always" />
    <radialGradient
       gradientUnits="userSpaceOnUse"
       gradientTransform="matrix(0.78574028,-0.00588992,0.00600042,0.80048155,70.594907,101.68106)"
       r="158.79229"
       fy="499.49286"
       fx="343.47134"
       cy="499.49286"
       cx="343.47134"
       id="radialGradient1656"
       xlink:href="#linearGradient1654"
       inkscape:collect="always" />
    <linearGradient
       gradientTransform="translate(-6.8601699,1.6220182)"
       gradientUnits="userSpaceOnUse"
       y2="46.90469"
       x2="90.195366"
       y1="238.26927"
       x1="90.195366"
       id="linearGradient1675"
       xlink:href="#linearGradient1673"
       inkscape:collect="always" />
  </defs>
  <sodipodi:namedview
     inkscape:window-maximized="1"
     inkscape:window-y="27"
     inkscape:window-x="74"
     inkscape:window-height="1016"
     inkscape:window-width="1846"
     showborder="false"
     showgrid="false"
     inkscape:document-rotation="0"
     inkscape:current-layer="layer1"
     inkscape:document-units="mm"
     inkscape:cy="560"
     inkscape:cx="68.265313"
     inkscape:zoom="1"
     inkscape:pageshadow="2"
     inkscape:pageopacity="0.0"
     borderopacity="1.0"
     bordercolor="#666666"
     pagecolor="#ffffff"
     id="base" />
  <metadata
     id="metadata971">
    <rdf:RDF>
      <cc:Work
         rdf:about="">
        <dc:format>image/svg+xml</dc:format>
        <dc:type
           rdf:resource="http://purl.org/dc/dcmitype/StillImage" />
        <dc:title></dc:title>
      </cc:Work>
    </rdf:RDF>
  </metadata>
  <g
     id="layer1"
     inkscape:groupmode="layer"
     inkscape:label="Layer 1">
    <g
       inkscape:export-ydpi="96"
       inkscape:export-xdpi="96"
       transform="translate(-58.797429,1.4266248)"
       id="g1686">
      <path
         style="fill:url(#linearGradient1675);fill-opacity:1;stroke:#000000;stroke-width:0.264583px;stroke-linecap:butt;stroke-linejoin:miter;stroke-opacity:1"
         d="M -2.1930199,52.32695 V 235.47576 H 187.28304 l 0.42103,-183.498336 z"
         id="path1667"
         sodipodi:nodetypes="ccccc" />
      <g
         id="g1665"
         transform="translate(3.0776222,8.1568988)">
        <path
           d="m 77.341141,73.911878 -28.629209,34.988192 7.07646,8.64821 21.552749,-26.339982 h 57.259429 l 21.55274,26.339982 7.07646,-8.64821 -28.6292,-34.987842 z"
           style="opacity:1;fill:url(#linearGradient1626);fill-opacity:1;stroke-width:0.169279"
           id="path1539" />
        <path
           id="path1628"
           style="opacity:1;fill:url(#linearGradient1630);fill-opacity:1;stroke-width:0.169279"
           d="m 33.732295,114.85179 15.986058,42.28772 11.0278,-1.8043 L 48.711435,123.5 77.341141,73.911878 110.92861,68.416647 106.97727,57.964149 62.362313,65.263843 Z" />
        <path
           d="m 47.382877,173.08811 44.615268,7.29952 3.951331,-10.4525 L 62.362018,164.4399 33.732295,114.85179 45.76702,83.016569 34.739222,81.212281 18.753464,123.49982 Z"
           style="opacity:1;fill:url(#linearGradient1634);fill-opacity:1;stroke-width:0.169279"
           id="path1632" />
        <path
           id="path1636"
           style="opacity:1;fill:url(#linearGradient1638);fill-opacity:1;stroke-width:0.169279"
           d="m 104.6423,190.38452 28.6292,-34.9882 -7.07646,-8.6482 -21.55274,26.33998 -57.259423,1e-5 -21.552748,-26.33999 -7.076458,8.64821 28.629204,34.98784 z" />
        <path
           d="m 148.25114,149.44461 -15.98607,-42.28771 -11.02779,1.80429 12.03472,31.83521 -28.6297,49.58812 -33.587474,5.49523 3.95134,10.4525 44.614964,-7.2997 z"
           style="opacity:1;fill:url(#linearGradient1642);fill-opacity:1;stroke-width:0.169279"
           id="path1640" />
        <path
           id="path1644"
           style="opacity:1;fill:url(#linearGradient1646);fill-opacity:1;stroke-width:0.169279"
           d="m 134.60055,91.208287 -44.615267,-7.299513 -3.951335,10.45249 33.587472,5.49524 28.62972,49.588106 -12.03474,31.83522 11.02781,1.80429 15.98575,-42.28755 z" />
        <path
           transform="scale(0.26458333)"
           id="path1648"
           d="m 359.5,653.03702 c 0,-0.52964 0.89095,-3.22334 1.97989,-5.986 l 1.97989,-5.02301 -2.22989,-0.49737 c -1.22644,-0.27356 -29.85322,-4.99069 -63.61506,-10.48251 -33.76184,-5.49182 -61.48657,-10.11181 -61.6105,-10.26663 -0.8557,-1.06898 -16.51976,-28.61191 -17.00955,-29.90879 -0.50517,-1.3376 0.37521,-1.75096 4.94532,-2.32196 3.62805,-0.45329 5.5599,-1.15925 5.5599,-2.03176 0,-0.7354 -10.08471,-27.98242 -22.41047,-60.54894 l -22.41047,-59.21184 4.76081,-8.12911 c 2.61844,-4.471 6.69843,-11.47795 9.06664,-15.57098 l 4.30584,-7.44189 4.11765,4.74643 4.11765,4.74643 40.87786,-50.05455 L 292.80337,345 h 17.84832 c 9.81657,0 17.84808,0.3375 17.84781,0.75 -2.8e-4,0.4125 -0.88605,3.07987 -1.96838,5.92749 l -1.96787,5.17749 2.71838,0.57151 c 1.4951,0.31434 30.09786,5.03895 63.56167,10.49915 33.46382,5.4602 60.95473,10.07315 61.09091,10.251 0.97624,1.27492 17.56579,30.60435 17.56579,31.05535 0,0.3144 -2.72986,0.88847 -6.06636,1.27571 -5.07202,0.58867 -5.96152,0.97356 -5.42677,2.34819 7.40277,19.02949 43.91573,116.24403 44.23586,117.7765 0.29484,1.41137 -2.52932,7.29033 -8.35244,17.38697 l -8.79791,15.2546 -4.10606,-4.73308 -4.10606,-4.73307 -40.94013,50.08164 L 395,653.97108 l -17.75,0.0145 c -10.72176,0.009 -17.75,-0.36688 -17.75,-0.94856 z"
           style="opacity:1;fill:url(#radialGradient1656);fill-opacity:1" />
      </g>
    </g>
  </g>
</svg>
