<?xml version="1.0" encoding="UTF-8" standalone="no"?>
<svg
   xmlns:dc="http://purl.org/dc/elements/1.1/"
   xmlns:cc="http://creativecommons.org/ns#"
   xmlns:rdf="http://www.w3.org/1999/02/22-rdf-syntax-ns#"
   xmlns:svg="http://www.w3.org/2000/svg"
   xmlns="http://www.w3.org/2000/svg"
   xmlns:sodipodi="http://sodipodi.sourceforge.net/DTD/sodipodi-0.dtd"
   xmlns:inkscape="http://www.inkscape.org/namespaces/inkscape"
   width="1122.5197"
   height="793.70081"
   viewBox="0 0 296.99998 210.00001"
   version="1.1"
   id="svg8"
   inkscape:version="1.0.2 (e86c870879, 2021-01-15, custom)"
   sodipodi:docname="WT.svg">
  <defs
     id="defs2" />
  <sodipodi:namedview
     id="base"
     pagecolor="#ffffff"
     bordercolor="#000000"
     borderopacity="1"
     inkscape:pageopacity="0.0"
     inkscape:pageshadow="2"
     inkscape:zoom="1"
     inkscape:cx="400"
     inkscape:cy="580"
     inkscape:document-units="px"
     inkscape:current-layer="layer1"
     inkscape:document-rotation="0"
     showgrid="false"
     units="px"
     showborder="false"
     showguides="true"
     inkscape:object-paths="true"
     inkscape:window-width="1920"
     inkscape:window-height="1017"
     inkscape:window-x="-8"
     inkscape:window-y="-8"
     inkscape:window-maximized="1" />
  <metadata
     id="metadata5">
    <rdf:RDF>
      <cc:Work
         rdf:about="">
        <dc:format>image/svg+xml</dc:format>
        <dc:type
           rdf:resource="http://purl.org/dc/dcmitype/StillImage" />
        <dc:title></dc:title>
      </cc:Work>
    </rdf:RDF>
  </metadata>
  <g
     inkscape:label="Layer 1"
     inkscape:groupmode="layer"
     id="layer1">
    <path
       id="path844"
       style="opacity:1;fill:#ff8800;fill-opacity:1;stroke:none;stroke-width:0.264583px;stroke-linecap:butt;stroke-linejoin:miter;stroke-opacity:1"
       d="m 142.98599,66.555055 -69.34937,0.133656 c -0.632379,-0.02375 -1.270681,-0.03817 -1.919675,-0.03817 -0.909698,0 -1.808032,0.01927 -2.700113,0.04774 h -0.171048 l 8.15e-4,0.0064 c -10.896653,0.370266 -20.479253,2.862769 -28.741034,7.48936 -4.190892,2.394794 -7.483617,5.208661 -9.878413,8.441639 -2.394795,3.113238 -3.592729,6.345907 -3.592729,9.698618 0,3.35272 0.478855,5.867896 1.436774,7.544251 0.957918,1.556621 2.57465,2.633641 4.849706,3.232341 7.064647,-7.423859 14.608605,-11.135387 22.631165,-11.135387 4.550115,0 8.022209,0.957717 10.417004,2.873543 2.394799,1.915842 3.591933,4.610395 3.591933,8.082844 0,8.62127 -8.740294,14.36833 -26.222303,17.24208 l -3.054139,16.16489 c 14.608254,0 21.912783,5.32826 21.912783,15.9851 0,5.62777 -1.73605,9.879 -5.208502,12.75275 -3.472453,2.87375 -7.963111,4.31032 -13.471143,4.31032 -5.388287,0 -10.23769,-1.01777 -14.548322,-3.05334 -4.190892,-2.03558 -7.483617,-5.26825 -9.878413,-9.69862 -4.669851,3.83167 -7.004866,8.86044 -7.004866,15.08692 0,6.22646 2.933981,11.25603 8.80123,15.0877 5.86725,3.71194 13.709893,5.5673 23.528554,5.5673 16.524088,0 29.8151,-3.83163 39.873243,-11.49498 2.04564,-1.57954 3.865859,-3.2507 5.468648,-5.00961 -4.493261,-7.25165 -6.741537,-16.4172 -6.741537,-27.49917 0,-9.45944 1.616732,-19.03893 4.849706,-28.73785 3.232971,-9.69893 7.78289,-18.50007 13.650146,-26.402903 5.86724,-7.902826 12.81223,-14.368169 20.8348,-19.397232 6.52237,-4.088653 13.40124,-6.514767 20.63591,-7.279331 z m 75.6072,0.09547 c -16.85995,0 -30.67951,5.366218 -41.46355,16.08852 1.2e-4,0.02578 0.002,0.05054 0.002,0.07637 0,5.747502 -2.15565,10.297418 -6.46627,13.650138 -3.5922,-4.669857 -9.63873,-7.004864 -18.14026,-7.004864 -11.1358,0 -19.75758,3.891691 -25.8643,11.674781 -4.31063,5.38829 -7.42399,12.93224 -9.33982,22.63116 3.11323,-5.1488 6.70544,-9.04049 10.77659,-11.67477 4.19089,-2.75401 9.1604,-4.13132 14.90791,-4.13132 5.74752,0 10.41754,1.01777 14.00974,3.05334 3.71193,2.03558 6.70517,4.73014 8.98023,8.08284 4.31063,6.22648 6.46627,13.76963 6.46627,22.63038 0,8.86074 -1.61673,16.40469 -4.8497,22.63116 -3.11324,6.22648 -7.12425,11.43462 -12.03358,15.62551 -4.90933,4.19089 -10.41775,7.30425 -16.52448,9.33982 -5.35803,1.92889 -10.61999,2.99231 -15.78621,3.19495 l 0.002,0.002 h 66.15123 l -8.1e-4,-0.002 c 0.67407,0.0239 1.35676,0.0374 2.05094,0.0374 18.3202,0 32.98851,-7.4839 44.00456,-22.45137 5.26855,-7.18439 9.33961,-15.80536 12.21337,-25.86352 2.99349,-10.17788 4.49011,-21.73284 4.49011,-34.66473 0,-13.05164 -2.99324,-23.468725 -8.98023,-31.251811 -5.98698,-7.783085 -14.18916,-11.674777 -24.60653,-11.674777 z m -5.2085,16.164893 c 2.75402,0 4.60937,1.49662 5.5673,4.490112 1.07766,2.873755 1.61657,7.543787 1.61657,14.00973 0,19.15837 -2.81387,36.46039 -8.44164,51.90682 -2.63427,7.06465 -5.62751,12.69238 -8.98023,16.88328 -3.23297,4.19089 -6.64581,6.28647 -10.238,6.28647 -3.95142,0 -5.92689,-6.04653 -5.92689,-18.14025 0,-17.00306 2.99324,-33.82701 8.98023,-50.47084 2.63428,-7.30413 5.5082,-13.29061 8.62143,-17.960458 3.23297,-4.669848 6.16696,-7.004864 8.80123,-7.004864 z M 131.5109,127.35857 c -2.51454,0 -4.7895,0.71828 -6.82507,2.15516 -1.91584,1.43687 -3.71195,3.41235 -5.3883,5.92688 -1.55662,2.51454 -2.81381,5.44853 -3.77173,8.80123 -0.95792,3.35272 -1.43677,7.42378 -1.43677,12.21337 0,4.66985 1.01776,8.56154 3.05334,11.67478 2.15532,2.99349 4.90913,4.49011 8.26184,4.49011 3.35271,0 5.98722,-1.13787 7.90305,-3.41293 2.03558,-2.39479 3.59225,-5.20866 4.66991,-8.44164 1.91584,-5.7475 2.87355,-11.25513 2.87355,-16.52369 0,-5.26854 -0.95771,-9.39966 -2.87355,-12.39316 -1.79609,-2.99349 -3.95174,-4.49011 -6.46627,-4.49011 z" />
  </g>
</svg>
